M48
; DRILL file {KiCad 7.0.10} date Tue Mar  5 14:46:16 2024
; FORMAT={-:-/ absolute / inch / decimal}
; #@! TF.CreationDate,2024-03-05T14:46:16-05:00
; #@! TF.GenerationSoftware,Kicad,Pcbnew,7.0.10
; #@! TF.FileFunction,Plated,1,2,PTH
FMAT,2
INCH
; #@! TA.AperFunction,Plated,PTH,ViaDrill
T1C0.0157
; #@! TA.AperFunction,Plated,PTH,ComponentDrill
T2C0.0394
; #@! TA.AperFunction,Plated,PTH,ComponentDrill
T3C0.0433
%
G90
G05
T1
X4.5571Y-4.9501
X5.6043Y-4.9461
X6.5138Y-4.9343
T2
X4.2441Y-2.1102
X4.3441Y-2.1102
X4.4441Y-2.1102
X4.5441Y-2.1102
X4.6441Y-2.1102
X4.7441Y-2.1102
X4.8441Y-2.1102
X4.9441Y-2.1102
X5.0441Y-2.1102
X5.1441Y-2.1102
X5.2441Y-2.1102
X5.3441Y-2.1102
X5.3809Y-5.6825
X5.4441Y-2.1102
X5.4809Y-5.6825
X5.5441Y-2.1102
X5.5809Y-5.6825
X5.6441Y-2.1102
X5.6809Y-5.6825
X5.7441Y-2.1102
X5.7809Y-5.6825
X5.8809Y-5.6825
X5.9809Y-5.6825
X6.0809Y-5.6825
T3
X4.6161Y-4.6568
X4.6161Y-4.8339
X4.872Y-4.6568
X4.872Y-4.8339
X5.6211Y-4.6568
X5.6211Y-4.8339
X5.877Y-4.6568
X5.877Y-4.8339
X6.626Y-4.6568
X6.626Y-4.8339
X6.8819Y-4.6568
X6.8819Y-4.8339
M30
