%TF.GenerationSoftware,KiCad,Pcbnew,7.0.10*%
%TF.CreationDate,2024-03-06T15:30:26-05:00*%
%TF.ProjectId,User_Interface,55736572-5f49-46e7-9465-72666163652e,rev?*%
%TF.SameCoordinates,Original*%
%TF.FileFunction,Soldermask,Bot*%
%TF.FilePolarity,Negative*%
%FSLAX46Y46*%
G04 Gerber Fmt 4.6, Leading zero omitted, Abs format (unit mm)*
G04 Created by KiCad (PCBNEW 7.0.10) date 2024-03-06 15:30:26*
%MOMM*%
%LPD*%
G01*
G04 APERTURE LIST*
G04 Aperture macros list*
%AMRoundRect*
0 Rectangle with rounded corners*
0 $1 Rounding radius*
0 $2 $3 $4 $5 $6 $7 $8 $9 X,Y pos of 4 corners*
0 Add a 4 corners polygon primitive as box body*
4,1,4,$2,$3,$4,$5,$6,$7,$8,$9,$2,$3,0*
0 Add four circle primitives for the rounded corners*
1,1,$1+$1,$2,$3*
1,1,$1+$1,$4,$5*
1,1,$1+$1,$6,$7*
1,1,$1+$1,$8,$9*
0 Add four rect primitives between the rounded corners*
20,1,$1+$1,$2,$3,$4,$5,0*
20,1,$1+$1,$4,$5,$6,$7,0*
20,1,$1+$1,$6,$7,$8,$9,0*
20,1,$1+$1,$8,$9,$2,$3,0*%
G04 Aperture macros list end*
%ADD10C,4.000000*%
%ADD11C,2.000000*%
%ADD12R,1.700000X1.700000*%
%ADD13O,1.700000X1.700000*%
%ADD14RoundRect,0.250000X0.400000X0.625000X-0.400000X0.625000X-0.400000X-0.625000X0.400000X-0.625000X0*%
%ADD15RoundRect,0.250000X0.412500X0.650000X-0.412500X0.650000X-0.412500X-0.650000X0.412500X-0.650000X0*%
%ADD16RoundRect,0.250000X-0.412500X-0.650000X0.412500X-0.650000X0.412500X0.650000X-0.412500X0.650000X0*%
G04 APERTURE END LIST*
D10*
%TO.C,H4*%
X192400000Y-141600000D03*
%TD*%
D11*
%TO.C,STOP1*%
X142775000Y-118281802D03*
X149275000Y-118281802D03*
X142775000Y-122781802D03*
X149275000Y-122781802D03*
%TD*%
D10*
%TO.C,H3*%
X95900000Y-140900000D03*
%TD*%
D12*
%TO.C,OLED1*%
X107800000Y-53600000D03*
D13*
X110340000Y-53600000D03*
X112880000Y-53600000D03*
X115420000Y-53600000D03*
X117960000Y-53600000D03*
X120500000Y-53600000D03*
X123040000Y-53600000D03*
X125580000Y-53600000D03*
X128120000Y-53600000D03*
X130660000Y-53600000D03*
X133200000Y-53600000D03*
X135740000Y-53600000D03*
X138280000Y-53600000D03*
X140820000Y-53600000D03*
X143360000Y-53600000D03*
X145900000Y-53600000D03*
%TD*%
D12*
%TO.C,MAIN_CONTROL1*%
X136675000Y-144335000D03*
D13*
X139215000Y-144335000D03*
X141755000Y-144335000D03*
X144295000Y-144335000D03*
X146835000Y-144335000D03*
X149375000Y-144335000D03*
X151915000Y-144335000D03*
X154455000Y-144335000D03*
%TD*%
D10*
%TO.C,H2*%
X192500000Y-52200000D03*
%TD*%
D11*
%TO.C,RESET1*%
X168300000Y-118281802D03*
X174800000Y-118281802D03*
X168300000Y-122781802D03*
X174800000Y-122781802D03*
%TD*%
%TO.C,START1*%
X117250000Y-118281802D03*
X123750000Y-118281802D03*
X117250000Y-122781802D03*
X123750000Y-122781802D03*
%TD*%
D10*
%TO.C,H1*%
X95000000Y-53400000D03*
%TD*%
D14*
%TO.C,R1*%
X121870000Y-131841802D03*
X118770000Y-131841802D03*
%TD*%
D15*
%TO.C,C1*%
X121932500Y-128131802D03*
X118807500Y-128131802D03*
%TD*%
%TO.C,C2*%
X147882500Y-128231802D03*
X144757500Y-128231802D03*
%TD*%
D14*
%TO.C,R5*%
X173250000Y-131331802D03*
X170150000Y-131331802D03*
%TD*%
D15*
%TO.C,C3*%
X173275000Y-127931802D03*
X170150000Y-127931802D03*
%TD*%
D16*
%TO.C,C5*%
X136335000Y-134610000D03*
X139460000Y-134610000D03*
%TD*%
D14*
%TO.C,R3*%
X147820000Y-131541802D03*
X144720000Y-131541802D03*
%TD*%
%TO.C,R6*%
X173250000Y-134621802D03*
X170150000Y-134621802D03*
%TD*%
%TO.C,R2*%
X121870000Y-135131802D03*
X118770000Y-135131802D03*
%TD*%
%TO.C,R4*%
X147820000Y-134831802D03*
X144720000Y-134831802D03*
%TD*%
D16*
%TO.C,C4*%
X136297500Y-139290000D03*
X139422500Y-139290000D03*
%TD*%
M02*
