%TF.GenerationSoftware,KiCad,Pcbnew,7.0.10*%
%TF.CreationDate,2024-03-05T14:46:17-05:00*%
%TF.ProjectId,User_Interface,55736572-5f49-46e7-9465-72666163652e,rev?*%
%TF.SameCoordinates,Original*%
%TF.FileFunction,Drillmap*%
%TF.FilePolarity,Positive*%
%FSLAX45Y45*%
G04 Gerber Fmt 4.5, Leading zero omitted, Abs format (unit mm)*
G04 Created by KiCad (PCBNEW 7.0.10) date 2024-03-05 14:46:17*
%MOMM*%
%LPD*%
G01*
G04 APERTURE LIST*
%ADD10C,0.200000*%
%ADD11C,0.100000*%
%ADD12C,0.110000*%
G04 APERTURE END LIST*
D10*
X8745000Y-4473180D02*
X19935000Y-4473180D01*
X19935000Y-14883180D01*
X8745000Y-14883180D01*
X8745000Y-4473180D01*
D11*
X11555000Y-12553180D02*
X11595000Y-12593180D01*
X11595000Y-12553180D02*
X11555000Y-12593180D01*
X14215000Y-12543180D02*
X14255000Y-12583180D01*
X14255000Y-12543180D02*
X14215000Y-12583180D01*
X16525000Y-12513180D02*
X16565000Y-12553180D01*
X16565000Y-12513180D02*
X16525000Y-12553180D01*
X10830000Y-5360000D02*
G75*
G03*
X10730000Y-5360000I-50000J0D01*
G01*
X10730000Y-5360000D02*
G75*
G03*
X10830000Y-5360000I50000J0D01*
G01*
X11084000Y-5360000D02*
G75*
G03*
X10984000Y-5360000I-50000J0D01*
G01*
X10984000Y-5360000D02*
G75*
G03*
X11084000Y-5360000I50000J0D01*
G01*
X11338000Y-5360000D02*
G75*
G03*
X11238000Y-5360000I-50000J0D01*
G01*
X11238000Y-5360000D02*
G75*
G03*
X11338000Y-5360000I50000J0D01*
G01*
X11592000Y-5360000D02*
G75*
G03*
X11492000Y-5360000I-50000J0D01*
G01*
X11492000Y-5360000D02*
G75*
G03*
X11592000Y-5360000I50000J0D01*
G01*
X11846000Y-5360000D02*
G75*
G03*
X11746000Y-5360000I-50000J0D01*
G01*
X11746000Y-5360000D02*
G75*
G03*
X11846000Y-5360000I50000J0D01*
G01*
X12100000Y-5360000D02*
G75*
G03*
X12000000Y-5360000I-50000J0D01*
G01*
X12000000Y-5360000D02*
G75*
G03*
X12100000Y-5360000I50000J0D01*
G01*
X12354000Y-5360000D02*
G75*
G03*
X12254000Y-5360000I-50000J0D01*
G01*
X12254000Y-5360000D02*
G75*
G03*
X12354000Y-5360000I50000J0D01*
G01*
X12608000Y-5360000D02*
G75*
G03*
X12508000Y-5360000I-50000J0D01*
G01*
X12508000Y-5360000D02*
G75*
G03*
X12608000Y-5360000I50000J0D01*
G01*
X12862000Y-5360000D02*
G75*
G03*
X12762000Y-5360000I-50000J0D01*
G01*
X12762000Y-5360000D02*
G75*
G03*
X12862000Y-5360000I50000J0D01*
G01*
X13116000Y-5360000D02*
G75*
G03*
X13016000Y-5360000I-50000J0D01*
G01*
X13016000Y-5360000D02*
G75*
G03*
X13116000Y-5360000I50000J0D01*
G01*
X13370000Y-5360000D02*
G75*
G03*
X13270000Y-5360000I-50000J0D01*
G01*
X13270000Y-5360000D02*
G75*
G03*
X13370000Y-5360000I50000J0D01*
G01*
X13624000Y-5360000D02*
G75*
G03*
X13524000Y-5360000I-50000J0D01*
G01*
X13524000Y-5360000D02*
G75*
G03*
X13624000Y-5360000I50000J0D01*
G01*
X13717500Y-14433500D02*
G75*
G03*
X13617500Y-14433500I-50000J0D01*
G01*
X13617500Y-14433500D02*
G75*
G03*
X13717500Y-14433500I50000J0D01*
G01*
X13878000Y-5360000D02*
G75*
G03*
X13778000Y-5360000I-50000J0D01*
G01*
X13778000Y-5360000D02*
G75*
G03*
X13878000Y-5360000I50000J0D01*
G01*
X13971500Y-14433500D02*
G75*
G03*
X13871500Y-14433500I-50000J0D01*
G01*
X13871500Y-14433500D02*
G75*
G03*
X13971500Y-14433500I50000J0D01*
G01*
X14132000Y-5360000D02*
G75*
G03*
X14032000Y-5360000I-50000J0D01*
G01*
X14032000Y-5360000D02*
G75*
G03*
X14132000Y-5360000I50000J0D01*
G01*
X14225500Y-14433500D02*
G75*
G03*
X14125500Y-14433500I-50000J0D01*
G01*
X14125500Y-14433500D02*
G75*
G03*
X14225500Y-14433500I50000J0D01*
G01*
X14386000Y-5360000D02*
G75*
G03*
X14286000Y-5360000I-50000J0D01*
G01*
X14286000Y-5360000D02*
G75*
G03*
X14386000Y-5360000I50000J0D01*
G01*
X14479500Y-14433500D02*
G75*
G03*
X14379500Y-14433500I-50000J0D01*
G01*
X14379500Y-14433500D02*
G75*
G03*
X14479500Y-14433500I50000J0D01*
G01*
X14640000Y-5360000D02*
G75*
G03*
X14540000Y-5360000I-50000J0D01*
G01*
X14540000Y-5360000D02*
G75*
G03*
X14640000Y-5360000I50000J0D01*
G01*
X14733500Y-14433500D02*
G75*
G03*
X14633500Y-14433500I-50000J0D01*
G01*
X14633500Y-14433500D02*
G75*
G03*
X14733500Y-14433500I50000J0D01*
G01*
X14987500Y-14433500D02*
G75*
G03*
X14887500Y-14433500I-50000J0D01*
G01*
X14887500Y-14433500D02*
G75*
G03*
X14987500Y-14433500I50000J0D01*
G01*
X15241500Y-14433500D02*
G75*
G03*
X15141500Y-14433500I-50000J0D01*
G01*
X15141500Y-14433500D02*
G75*
G03*
X15241500Y-14433500I50000J0D01*
G01*
X15495500Y-14433500D02*
G75*
G03*
X15395500Y-14433500I-50000J0D01*
G01*
X15395500Y-14433500D02*
G75*
G03*
X15495500Y-14433500I50000J0D01*
G01*
D12*
X11725000Y-11773180D02*
X11725000Y-11883180D01*
X11670000Y-11828180D02*
X11780000Y-11828180D01*
X11725000Y-12223180D02*
X11725000Y-12333180D01*
X11670000Y-12278180D02*
X11780000Y-12278180D01*
X12375000Y-11773180D02*
X12375000Y-11883180D01*
X12320000Y-11828180D02*
X12430000Y-11828180D01*
X12375000Y-12223180D02*
X12375000Y-12333180D01*
X12320000Y-12278180D02*
X12430000Y-12278180D01*
X14277500Y-11773180D02*
X14277500Y-11883180D01*
X14222500Y-11828180D02*
X14332500Y-11828180D01*
X14277500Y-12223180D02*
X14277500Y-12333180D01*
X14222500Y-12278180D02*
X14332500Y-12278180D01*
X14927500Y-11773180D02*
X14927500Y-11883180D01*
X14872500Y-11828180D02*
X14982500Y-11828180D01*
X14927500Y-12223180D02*
X14927500Y-12333180D01*
X14872500Y-12278180D02*
X14982500Y-12278180D01*
X16830000Y-11773180D02*
X16830000Y-11883180D01*
X16775000Y-11828180D02*
X16885000Y-11828180D01*
X16830000Y-12223180D02*
X16830000Y-12333180D01*
X16775000Y-12278180D02*
X16885000Y-12278180D01*
X17480000Y-11773180D02*
X17480000Y-11883180D01*
X17425000Y-11828180D02*
X17535000Y-11828180D01*
X17480000Y-12223180D02*
X17480000Y-12333180D01*
X17425000Y-12278180D02*
X17535000Y-12278180D01*
D10*
X8995777Y-15204664D02*
X8995777Y-15004664D01*
X8995777Y-15004664D02*
X9043396Y-15004664D01*
X9043396Y-15004664D02*
X9071967Y-15014188D01*
X9071967Y-15014188D02*
X9091015Y-15033235D01*
X9091015Y-15033235D02*
X9100539Y-15052283D01*
X9100539Y-15052283D02*
X9110063Y-15090378D01*
X9110063Y-15090378D02*
X9110063Y-15118950D01*
X9110063Y-15118950D02*
X9100539Y-15157045D01*
X9100539Y-15157045D02*
X9091015Y-15176092D01*
X9091015Y-15176092D02*
X9071967Y-15195140D01*
X9071967Y-15195140D02*
X9043396Y-15204664D01*
X9043396Y-15204664D02*
X8995777Y-15204664D01*
X9195777Y-15204664D02*
X9195777Y-15071331D01*
X9195777Y-15109426D02*
X9205301Y-15090378D01*
X9205301Y-15090378D02*
X9214824Y-15080854D01*
X9214824Y-15080854D02*
X9233872Y-15071331D01*
X9233872Y-15071331D02*
X9252920Y-15071331D01*
X9319586Y-15204664D02*
X9319586Y-15071331D01*
X9319586Y-15004664D02*
X9310063Y-15014188D01*
X9310063Y-15014188D02*
X9319586Y-15023712D01*
X9319586Y-15023712D02*
X9329110Y-15014188D01*
X9329110Y-15014188D02*
X9319586Y-15004664D01*
X9319586Y-15004664D02*
X9319586Y-15023712D01*
X9443396Y-15204664D02*
X9424348Y-15195140D01*
X9424348Y-15195140D02*
X9414824Y-15176092D01*
X9414824Y-15176092D02*
X9414824Y-15004664D01*
X9548158Y-15204664D02*
X9529110Y-15195140D01*
X9529110Y-15195140D02*
X9519586Y-15176092D01*
X9519586Y-15176092D02*
X9519586Y-15004664D01*
X9776729Y-15204664D02*
X9776729Y-15004664D01*
X9776729Y-15004664D02*
X9843396Y-15147521D01*
X9843396Y-15147521D02*
X9910063Y-15004664D01*
X9910063Y-15004664D02*
X9910063Y-15204664D01*
X10091015Y-15204664D02*
X10091015Y-15099902D01*
X10091015Y-15099902D02*
X10081491Y-15080854D01*
X10081491Y-15080854D02*
X10062444Y-15071331D01*
X10062444Y-15071331D02*
X10024348Y-15071331D01*
X10024348Y-15071331D02*
X10005301Y-15080854D01*
X10091015Y-15195140D02*
X10071967Y-15204664D01*
X10071967Y-15204664D02*
X10024348Y-15204664D01*
X10024348Y-15204664D02*
X10005301Y-15195140D01*
X10005301Y-15195140D02*
X9995777Y-15176092D01*
X9995777Y-15176092D02*
X9995777Y-15157045D01*
X9995777Y-15157045D02*
X10005301Y-15137997D01*
X10005301Y-15137997D02*
X10024348Y-15128473D01*
X10024348Y-15128473D02*
X10071967Y-15128473D01*
X10071967Y-15128473D02*
X10091015Y-15118950D01*
X10186253Y-15071331D02*
X10186253Y-15271331D01*
X10186253Y-15080854D02*
X10205301Y-15071331D01*
X10205301Y-15071331D02*
X10243396Y-15071331D01*
X10243396Y-15071331D02*
X10262444Y-15080854D01*
X10262444Y-15080854D02*
X10271967Y-15090378D01*
X10271967Y-15090378D02*
X10281491Y-15109426D01*
X10281491Y-15109426D02*
X10281491Y-15166569D01*
X10281491Y-15166569D02*
X10271967Y-15185616D01*
X10271967Y-15185616D02*
X10262444Y-15195140D01*
X10262444Y-15195140D02*
X10243396Y-15204664D01*
X10243396Y-15204664D02*
X10205301Y-15204664D01*
X10205301Y-15204664D02*
X10186253Y-15195140D01*
X10367205Y-15185616D02*
X10376729Y-15195140D01*
X10376729Y-15195140D02*
X10367205Y-15204664D01*
X10367205Y-15204664D02*
X10357682Y-15195140D01*
X10357682Y-15195140D02*
X10367205Y-15185616D01*
X10367205Y-15185616D02*
X10367205Y-15204664D01*
X10367205Y-15080854D02*
X10376729Y-15090378D01*
X10376729Y-15090378D02*
X10367205Y-15099902D01*
X10367205Y-15099902D02*
X10357682Y-15090378D01*
X10357682Y-15090378D02*
X10367205Y-15080854D01*
X10367205Y-15080854D02*
X10367205Y-15099902D01*
D11*
X8695000Y-15513180D02*
X8735000Y-15553180D01*
X8735000Y-15513180D02*
X8695000Y-15553180D01*
D10*
X9033872Y-15424664D02*
X9052920Y-15424664D01*
X9052920Y-15424664D02*
X9071967Y-15434188D01*
X9071967Y-15434188D02*
X9081491Y-15443712D01*
X9081491Y-15443712D02*
X9091015Y-15462759D01*
X9091015Y-15462759D02*
X9100539Y-15500854D01*
X9100539Y-15500854D02*
X9100539Y-15548473D01*
X9100539Y-15548473D02*
X9091015Y-15586569D01*
X9091015Y-15586569D02*
X9081491Y-15605616D01*
X9081491Y-15605616D02*
X9071967Y-15615140D01*
X9071967Y-15615140D02*
X9052920Y-15624664D01*
X9052920Y-15624664D02*
X9033872Y-15624664D01*
X9033872Y-15624664D02*
X9014824Y-15615140D01*
X9014824Y-15615140D02*
X9005301Y-15605616D01*
X9005301Y-15605616D02*
X8995777Y-15586569D01*
X8995777Y-15586569D02*
X8986253Y-15548473D01*
X8986253Y-15548473D02*
X8986253Y-15500854D01*
X8986253Y-15500854D02*
X8995777Y-15462759D01*
X8995777Y-15462759D02*
X9005301Y-15443712D01*
X9005301Y-15443712D02*
X9014824Y-15434188D01*
X9014824Y-15434188D02*
X9033872Y-15424664D01*
X9186253Y-15605616D02*
X9195777Y-15615140D01*
X9195777Y-15615140D02*
X9186253Y-15624664D01*
X9186253Y-15624664D02*
X9176729Y-15615140D01*
X9176729Y-15615140D02*
X9186253Y-15605616D01*
X9186253Y-15605616D02*
X9186253Y-15624664D01*
X9367205Y-15491331D02*
X9367205Y-15624664D01*
X9319586Y-15415140D02*
X9271967Y-15557997D01*
X9271967Y-15557997D02*
X9395777Y-15557997D01*
X9510063Y-15424664D02*
X9529110Y-15424664D01*
X9529110Y-15424664D02*
X9548158Y-15434188D01*
X9548158Y-15434188D02*
X9557682Y-15443712D01*
X9557682Y-15443712D02*
X9567205Y-15462759D01*
X9567205Y-15462759D02*
X9576729Y-15500854D01*
X9576729Y-15500854D02*
X9576729Y-15548473D01*
X9576729Y-15548473D02*
X9567205Y-15586569D01*
X9567205Y-15586569D02*
X9557682Y-15605616D01*
X9557682Y-15605616D02*
X9548158Y-15615140D01*
X9548158Y-15615140D02*
X9529110Y-15624664D01*
X9529110Y-15624664D02*
X9510063Y-15624664D01*
X9510063Y-15624664D02*
X9491015Y-15615140D01*
X9491015Y-15615140D02*
X9481491Y-15605616D01*
X9481491Y-15605616D02*
X9471967Y-15586569D01*
X9471967Y-15586569D02*
X9462444Y-15548473D01*
X9462444Y-15548473D02*
X9462444Y-15500854D01*
X9462444Y-15500854D02*
X9471967Y-15462759D01*
X9471967Y-15462759D02*
X9481491Y-15443712D01*
X9481491Y-15443712D02*
X9491015Y-15434188D01*
X9491015Y-15434188D02*
X9510063Y-15424664D01*
X9700539Y-15424664D02*
X9719586Y-15424664D01*
X9719586Y-15424664D02*
X9738634Y-15434188D01*
X9738634Y-15434188D02*
X9748158Y-15443712D01*
X9748158Y-15443712D02*
X9757682Y-15462759D01*
X9757682Y-15462759D02*
X9767205Y-15500854D01*
X9767205Y-15500854D02*
X9767205Y-15548473D01*
X9767205Y-15548473D02*
X9757682Y-15586569D01*
X9757682Y-15586569D02*
X9748158Y-15605616D01*
X9748158Y-15605616D02*
X9738634Y-15615140D01*
X9738634Y-15615140D02*
X9719586Y-15624664D01*
X9719586Y-15624664D02*
X9700539Y-15624664D01*
X9700539Y-15624664D02*
X9681491Y-15615140D01*
X9681491Y-15615140D02*
X9671967Y-15605616D01*
X9671967Y-15605616D02*
X9662444Y-15586569D01*
X9662444Y-15586569D02*
X9652920Y-15548473D01*
X9652920Y-15548473D02*
X9652920Y-15500854D01*
X9652920Y-15500854D02*
X9662444Y-15462759D01*
X9662444Y-15462759D02*
X9671967Y-15443712D01*
X9671967Y-15443712D02*
X9681491Y-15434188D01*
X9681491Y-15434188D02*
X9700539Y-15424664D01*
X9852920Y-15624664D02*
X9852920Y-15491331D01*
X9852920Y-15510378D02*
X9862444Y-15500854D01*
X9862444Y-15500854D02*
X9881491Y-15491331D01*
X9881491Y-15491331D02*
X9910063Y-15491331D01*
X9910063Y-15491331D02*
X9929110Y-15500854D01*
X9929110Y-15500854D02*
X9938634Y-15519902D01*
X9938634Y-15519902D02*
X9938634Y-15624664D01*
X9938634Y-15519902D02*
X9948158Y-15500854D01*
X9948158Y-15500854D02*
X9967205Y-15491331D01*
X9967205Y-15491331D02*
X9995777Y-15491331D01*
X9995777Y-15491331D02*
X10014825Y-15500854D01*
X10014825Y-15500854D02*
X10024348Y-15519902D01*
X10024348Y-15519902D02*
X10024348Y-15624664D01*
X10119586Y-15624664D02*
X10119586Y-15491331D01*
X10119586Y-15510378D02*
X10129110Y-15500854D01*
X10129110Y-15500854D02*
X10148158Y-15491331D01*
X10148158Y-15491331D02*
X10176729Y-15491331D01*
X10176729Y-15491331D02*
X10195777Y-15500854D01*
X10195777Y-15500854D02*
X10205301Y-15519902D01*
X10205301Y-15519902D02*
X10205301Y-15624664D01*
X10205301Y-15519902D02*
X10214825Y-15500854D01*
X10214825Y-15500854D02*
X10233872Y-15491331D01*
X10233872Y-15491331D02*
X10262444Y-15491331D01*
X10262444Y-15491331D02*
X10281491Y-15500854D01*
X10281491Y-15500854D02*
X10291015Y-15519902D01*
X10291015Y-15519902D02*
X10291015Y-15624664D01*
X10681491Y-15415140D02*
X10510063Y-15672283D01*
X10938634Y-15424664D02*
X10957682Y-15424664D01*
X10957682Y-15424664D02*
X10976729Y-15434188D01*
X10976729Y-15434188D02*
X10986253Y-15443712D01*
X10986253Y-15443712D02*
X10995777Y-15462759D01*
X10995777Y-15462759D02*
X11005301Y-15500854D01*
X11005301Y-15500854D02*
X11005301Y-15548473D01*
X11005301Y-15548473D02*
X10995777Y-15586569D01*
X10995777Y-15586569D02*
X10986253Y-15605616D01*
X10986253Y-15605616D02*
X10976729Y-15615140D01*
X10976729Y-15615140D02*
X10957682Y-15624664D01*
X10957682Y-15624664D02*
X10938634Y-15624664D01*
X10938634Y-15624664D02*
X10919587Y-15615140D01*
X10919587Y-15615140D02*
X10910063Y-15605616D01*
X10910063Y-15605616D02*
X10900539Y-15586569D01*
X10900539Y-15586569D02*
X10891015Y-15548473D01*
X10891015Y-15548473D02*
X10891015Y-15500854D01*
X10891015Y-15500854D02*
X10900539Y-15462759D01*
X10900539Y-15462759D02*
X10910063Y-15443712D01*
X10910063Y-15443712D02*
X10919587Y-15434188D01*
X10919587Y-15434188D02*
X10938634Y-15424664D01*
X11091015Y-15605616D02*
X11100539Y-15615140D01*
X11100539Y-15615140D02*
X11091015Y-15624664D01*
X11091015Y-15624664D02*
X11081491Y-15615140D01*
X11081491Y-15615140D02*
X11091015Y-15605616D01*
X11091015Y-15605616D02*
X11091015Y-15624664D01*
X11224348Y-15424664D02*
X11243396Y-15424664D01*
X11243396Y-15424664D02*
X11262444Y-15434188D01*
X11262444Y-15434188D02*
X11271967Y-15443712D01*
X11271967Y-15443712D02*
X11281491Y-15462759D01*
X11281491Y-15462759D02*
X11291015Y-15500854D01*
X11291015Y-15500854D02*
X11291015Y-15548473D01*
X11291015Y-15548473D02*
X11281491Y-15586569D01*
X11281491Y-15586569D02*
X11271967Y-15605616D01*
X11271967Y-15605616D02*
X11262444Y-15615140D01*
X11262444Y-15615140D02*
X11243396Y-15624664D01*
X11243396Y-15624664D02*
X11224348Y-15624664D01*
X11224348Y-15624664D02*
X11205301Y-15615140D01*
X11205301Y-15615140D02*
X11195777Y-15605616D01*
X11195777Y-15605616D02*
X11186253Y-15586569D01*
X11186253Y-15586569D02*
X11176729Y-15548473D01*
X11176729Y-15548473D02*
X11176729Y-15500854D01*
X11176729Y-15500854D02*
X11186253Y-15462759D01*
X11186253Y-15462759D02*
X11195777Y-15443712D01*
X11195777Y-15443712D02*
X11205301Y-15434188D01*
X11205301Y-15434188D02*
X11224348Y-15424664D01*
X11481491Y-15624664D02*
X11367206Y-15624664D01*
X11424348Y-15624664D02*
X11424348Y-15424664D01*
X11424348Y-15424664D02*
X11405301Y-15453235D01*
X11405301Y-15453235D02*
X11386253Y-15472283D01*
X11386253Y-15472283D02*
X11367206Y-15481807D01*
X11662444Y-15424664D02*
X11567206Y-15424664D01*
X11567206Y-15424664D02*
X11557682Y-15519902D01*
X11557682Y-15519902D02*
X11567206Y-15510378D01*
X11567206Y-15510378D02*
X11586253Y-15500854D01*
X11586253Y-15500854D02*
X11633872Y-15500854D01*
X11633872Y-15500854D02*
X11652920Y-15510378D01*
X11652920Y-15510378D02*
X11662444Y-15519902D01*
X11662444Y-15519902D02*
X11671967Y-15538950D01*
X11671967Y-15538950D02*
X11671967Y-15586569D01*
X11671967Y-15586569D02*
X11662444Y-15605616D01*
X11662444Y-15605616D02*
X11652920Y-15615140D01*
X11652920Y-15615140D02*
X11633872Y-15624664D01*
X11633872Y-15624664D02*
X11586253Y-15624664D01*
X11586253Y-15624664D02*
X11567206Y-15615140D01*
X11567206Y-15615140D02*
X11557682Y-15605616D01*
X11738634Y-15424664D02*
X11871967Y-15424664D01*
X11871967Y-15424664D02*
X11786253Y-15624664D01*
X11938634Y-15424664D02*
X11938634Y-15462759D01*
X12014825Y-15424664D02*
X12014825Y-15462759D01*
X12310063Y-15700854D02*
X12300539Y-15691331D01*
X12300539Y-15691331D02*
X12281491Y-15662759D01*
X12281491Y-15662759D02*
X12271968Y-15643712D01*
X12271968Y-15643712D02*
X12262444Y-15615140D01*
X12262444Y-15615140D02*
X12252920Y-15567521D01*
X12252920Y-15567521D02*
X12252920Y-15529426D01*
X12252920Y-15529426D02*
X12262444Y-15481807D01*
X12262444Y-15481807D02*
X12271968Y-15453235D01*
X12271968Y-15453235D02*
X12281491Y-15434188D01*
X12281491Y-15434188D02*
X12300539Y-15405616D01*
X12300539Y-15405616D02*
X12310063Y-15396092D01*
X12367206Y-15424664D02*
X12491015Y-15424664D01*
X12491015Y-15424664D02*
X12424348Y-15500854D01*
X12424348Y-15500854D02*
X12452920Y-15500854D01*
X12452920Y-15500854D02*
X12471968Y-15510378D01*
X12471968Y-15510378D02*
X12481491Y-15519902D01*
X12481491Y-15519902D02*
X12491015Y-15538950D01*
X12491015Y-15538950D02*
X12491015Y-15586569D01*
X12491015Y-15586569D02*
X12481491Y-15605616D01*
X12481491Y-15605616D02*
X12471968Y-15615140D01*
X12471968Y-15615140D02*
X12452920Y-15624664D01*
X12452920Y-15624664D02*
X12395777Y-15624664D01*
X12395777Y-15624664D02*
X12376729Y-15615140D01*
X12376729Y-15615140D02*
X12367206Y-15605616D01*
X12729110Y-15624664D02*
X12729110Y-15424664D01*
X12814825Y-15624664D02*
X12814825Y-15519902D01*
X12814825Y-15519902D02*
X12805301Y-15500854D01*
X12805301Y-15500854D02*
X12786253Y-15491331D01*
X12786253Y-15491331D02*
X12757682Y-15491331D01*
X12757682Y-15491331D02*
X12738634Y-15500854D01*
X12738634Y-15500854D02*
X12729110Y-15510378D01*
X12938634Y-15624664D02*
X12919587Y-15615140D01*
X12919587Y-15615140D02*
X12910063Y-15605616D01*
X12910063Y-15605616D02*
X12900539Y-15586569D01*
X12900539Y-15586569D02*
X12900539Y-15529426D01*
X12900539Y-15529426D02*
X12910063Y-15510378D01*
X12910063Y-15510378D02*
X12919587Y-15500854D01*
X12919587Y-15500854D02*
X12938634Y-15491331D01*
X12938634Y-15491331D02*
X12967206Y-15491331D01*
X12967206Y-15491331D02*
X12986253Y-15500854D01*
X12986253Y-15500854D02*
X12995777Y-15510378D01*
X12995777Y-15510378D02*
X13005301Y-15529426D01*
X13005301Y-15529426D02*
X13005301Y-15586569D01*
X13005301Y-15586569D02*
X12995777Y-15605616D01*
X12995777Y-15605616D02*
X12986253Y-15615140D01*
X12986253Y-15615140D02*
X12967206Y-15624664D01*
X12967206Y-15624664D02*
X12938634Y-15624664D01*
X13119587Y-15624664D02*
X13100539Y-15615140D01*
X13100539Y-15615140D02*
X13091015Y-15596092D01*
X13091015Y-15596092D02*
X13091015Y-15424664D01*
X13271968Y-15615140D02*
X13252920Y-15624664D01*
X13252920Y-15624664D02*
X13214825Y-15624664D01*
X13214825Y-15624664D02*
X13195777Y-15615140D01*
X13195777Y-15615140D02*
X13186253Y-15596092D01*
X13186253Y-15596092D02*
X13186253Y-15519902D01*
X13186253Y-15519902D02*
X13195777Y-15500854D01*
X13195777Y-15500854D02*
X13214825Y-15491331D01*
X13214825Y-15491331D02*
X13252920Y-15491331D01*
X13252920Y-15491331D02*
X13271968Y-15500854D01*
X13271968Y-15500854D02*
X13281491Y-15519902D01*
X13281491Y-15519902D02*
X13281491Y-15538950D01*
X13281491Y-15538950D02*
X13186253Y-15557997D01*
X13357682Y-15615140D02*
X13376730Y-15624664D01*
X13376730Y-15624664D02*
X13414825Y-15624664D01*
X13414825Y-15624664D02*
X13433872Y-15615140D01*
X13433872Y-15615140D02*
X13443396Y-15596092D01*
X13443396Y-15596092D02*
X13443396Y-15586569D01*
X13443396Y-15586569D02*
X13433872Y-15567521D01*
X13433872Y-15567521D02*
X13414825Y-15557997D01*
X13414825Y-15557997D02*
X13386253Y-15557997D01*
X13386253Y-15557997D02*
X13367206Y-15548473D01*
X13367206Y-15548473D02*
X13357682Y-15529426D01*
X13357682Y-15529426D02*
X13357682Y-15519902D01*
X13357682Y-15519902D02*
X13367206Y-15500854D01*
X13367206Y-15500854D02*
X13386253Y-15491331D01*
X13386253Y-15491331D02*
X13414825Y-15491331D01*
X13414825Y-15491331D02*
X13433872Y-15500854D01*
X13510063Y-15700854D02*
X13519587Y-15691331D01*
X13519587Y-15691331D02*
X13538634Y-15662759D01*
X13538634Y-15662759D02*
X13548158Y-15643712D01*
X13548158Y-15643712D02*
X13557682Y-15615140D01*
X13557682Y-15615140D02*
X13567206Y-15567521D01*
X13567206Y-15567521D02*
X13567206Y-15529426D01*
X13567206Y-15529426D02*
X13557682Y-15481807D01*
X13557682Y-15481807D02*
X13548158Y-15453235D01*
X13548158Y-15453235D02*
X13538634Y-15434188D01*
X13538634Y-15434188D02*
X13519587Y-15405616D01*
X13519587Y-15405616D02*
X13510063Y-15396092D01*
D11*
X8735000Y-15797180D02*
G75*
G03*
X8635000Y-15797180I-50000J0D01*
G01*
X8635000Y-15797180D02*
G75*
G03*
X8735000Y-15797180I50000J0D01*
G01*
D10*
X9100539Y-15888664D02*
X8986253Y-15888664D01*
X9043396Y-15888664D02*
X9043396Y-15688664D01*
X9043396Y-15688664D02*
X9024348Y-15717235D01*
X9024348Y-15717235D02*
X9005301Y-15736283D01*
X9005301Y-15736283D02*
X8986253Y-15745807D01*
X9186253Y-15869616D02*
X9195777Y-15879140D01*
X9195777Y-15879140D02*
X9186253Y-15888664D01*
X9186253Y-15888664D02*
X9176729Y-15879140D01*
X9176729Y-15879140D02*
X9186253Y-15869616D01*
X9186253Y-15869616D02*
X9186253Y-15888664D01*
X9319586Y-15688664D02*
X9338634Y-15688664D01*
X9338634Y-15688664D02*
X9357682Y-15698188D01*
X9357682Y-15698188D02*
X9367205Y-15707712D01*
X9367205Y-15707712D02*
X9376729Y-15726759D01*
X9376729Y-15726759D02*
X9386253Y-15764854D01*
X9386253Y-15764854D02*
X9386253Y-15812473D01*
X9386253Y-15812473D02*
X9376729Y-15850569D01*
X9376729Y-15850569D02*
X9367205Y-15869616D01*
X9367205Y-15869616D02*
X9357682Y-15879140D01*
X9357682Y-15879140D02*
X9338634Y-15888664D01*
X9338634Y-15888664D02*
X9319586Y-15888664D01*
X9319586Y-15888664D02*
X9300539Y-15879140D01*
X9300539Y-15879140D02*
X9291015Y-15869616D01*
X9291015Y-15869616D02*
X9281491Y-15850569D01*
X9281491Y-15850569D02*
X9271967Y-15812473D01*
X9271967Y-15812473D02*
X9271967Y-15764854D01*
X9271967Y-15764854D02*
X9281491Y-15726759D01*
X9281491Y-15726759D02*
X9291015Y-15707712D01*
X9291015Y-15707712D02*
X9300539Y-15698188D01*
X9300539Y-15698188D02*
X9319586Y-15688664D01*
X9510063Y-15688664D02*
X9529110Y-15688664D01*
X9529110Y-15688664D02*
X9548158Y-15698188D01*
X9548158Y-15698188D02*
X9557682Y-15707712D01*
X9557682Y-15707712D02*
X9567205Y-15726759D01*
X9567205Y-15726759D02*
X9576729Y-15764854D01*
X9576729Y-15764854D02*
X9576729Y-15812473D01*
X9576729Y-15812473D02*
X9567205Y-15850569D01*
X9567205Y-15850569D02*
X9557682Y-15869616D01*
X9557682Y-15869616D02*
X9548158Y-15879140D01*
X9548158Y-15879140D02*
X9529110Y-15888664D01*
X9529110Y-15888664D02*
X9510063Y-15888664D01*
X9510063Y-15888664D02*
X9491015Y-15879140D01*
X9491015Y-15879140D02*
X9481491Y-15869616D01*
X9481491Y-15869616D02*
X9471967Y-15850569D01*
X9471967Y-15850569D02*
X9462444Y-15812473D01*
X9462444Y-15812473D02*
X9462444Y-15764854D01*
X9462444Y-15764854D02*
X9471967Y-15726759D01*
X9471967Y-15726759D02*
X9481491Y-15707712D01*
X9481491Y-15707712D02*
X9491015Y-15698188D01*
X9491015Y-15698188D02*
X9510063Y-15688664D01*
X9700539Y-15688664D02*
X9719586Y-15688664D01*
X9719586Y-15688664D02*
X9738634Y-15698188D01*
X9738634Y-15698188D02*
X9748158Y-15707712D01*
X9748158Y-15707712D02*
X9757682Y-15726759D01*
X9757682Y-15726759D02*
X9767205Y-15764854D01*
X9767205Y-15764854D02*
X9767205Y-15812473D01*
X9767205Y-15812473D02*
X9757682Y-15850569D01*
X9757682Y-15850569D02*
X9748158Y-15869616D01*
X9748158Y-15869616D02*
X9738634Y-15879140D01*
X9738634Y-15879140D02*
X9719586Y-15888664D01*
X9719586Y-15888664D02*
X9700539Y-15888664D01*
X9700539Y-15888664D02*
X9681491Y-15879140D01*
X9681491Y-15879140D02*
X9671967Y-15869616D01*
X9671967Y-15869616D02*
X9662444Y-15850569D01*
X9662444Y-15850569D02*
X9652920Y-15812473D01*
X9652920Y-15812473D02*
X9652920Y-15764854D01*
X9652920Y-15764854D02*
X9662444Y-15726759D01*
X9662444Y-15726759D02*
X9671967Y-15707712D01*
X9671967Y-15707712D02*
X9681491Y-15698188D01*
X9681491Y-15698188D02*
X9700539Y-15688664D01*
X9852920Y-15888664D02*
X9852920Y-15755331D01*
X9852920Y-15774378D02*
X9862444Y-15764854D01*
X9862444Y-15764854D02*
X9881491Y-15755331D01*
X9881491Y-15755331D02*
X9910063Y-15755331D01*
X9910063Y-15755331D02*
X9929110Y-15764854D01*
X9929110Y-15764854D02*
X9938634Y-15783902D01*
X9938634Y-15783902D02*
X9938634Y-15888664D01*
X9938634Y-15783902D02*
X9948158Y-15764854D01*
X9948158Y-15764854D02*
X9967205Y-15755331D01*
X9967205Y-15755331D02*
X9995777Y-15755331D01*
X9995777Y-15755331D02*
X10014825Y-15764854D01*
X10014825Y-15764854D02*
X10024348Y-15783902D01*
X10024348Y-15783902D02*
X10024348Y-15888664D01*
X10119586Y-15888664D02*
X10119586Y-15755331D01*
X10119586Y-15774378D02*
X10129110Y-15764854D01*
X10129110Y-15764854D02*
X10148158Y-15755331D01*
X10148158Y-15755331D02*
X10176729Y-15755331D01*
X10176729Y-15755331D02*
X10195777Y-15764854D01*
X10195777Y-15764854D02*
X10205301Y-15783902D01*
X10205301Y-15783902D02*
X10205301Y-15888664D01*
X10205301Y-15783902D02*
X10214825Y-15764854D01*
X10214825Y-15764854D02*
X10233872Y-15755331D01*
X10233872Y-15755331D02*
X10262444Y-15755331D01*
X10262444Y-15755331D02*
X10281491Y-15764854D01*
X10281491Y-15764854D02*
X10291015Y-15783902D01*
X10291015Y-15783902D02*
X10291015Y-15888664D01*
X10681491Y-15679140D02*
X10510063Y-15936283D01*
X10938634Y-15688664D02*
X10957682Y-15688664D01*
X10957682Y-15688664D02*
X10976729Y-15698188D01*
X10976729Y-15698188D02*
X10986253Y-15707712D01*
X10986253Y-15707712D02*
X10995777Y-15726759D01*
X10995777Y-15726759D02*
X11005301Y-15764854D01*
X11005301Y-15764854D02*
X11005301Y-15812473D01*
X11005301Y-15812473D02*
X10995777Y-15850569D01*
X10995777Y-15850569D02*
X10986253Y-15869616D01*
X10986253Y-15869616D02*
X10976729Y-15879140D01*
X10976729Y-15879140D02*
X10957682Y-15888664D01*
X10957682Y-15888664D02*
X10938634Y-15888664D01*
X10938634Y-15888664D02*
X10919587Y-15879140D01*
X10919587Y-15879140D02*
X10910063Y-15869616D01*
X10910063Y-15869616D02*
X10900539Y-15850569D01*
X10900539Y-15850569D02*
X10891015Y-15812473D01*
X10891015Y-15812473D02*
X10891015Y-15764854D01*
X10891015Y-15764854D02*
X10900539Y-15726759D01*
X10900539Y-15726759D02*
X10910063Y-15707712D01*
X10910063Y-15707712D02*
X10919587Y-15698188D01*
X10919587Y-15698188D02*
X10938634Y-15688664D01*
X11091015Y-15869616D02*
X11100539Y-15879140D01*
X11100539Y-15879140D02*
X11091015Y-15888664D01*
X11091015Y-15888664D02*
X11081491Y-15879140D01*
X11081491Y-15879140D02*
X11091015Y-15869616D01*
X11091015Y-15869616D02*
X11091015Y-15888664D01*
X11224348Y-15688664D02*
X11243396Y-15688664D01*
X11243396Y-15688664D02*
X11262444Y-15698188D01*
X11262444Y-15698188D02*
X11271967Y-15707712D01*
X11271967Y-15707712D02*
X11281491Y-15726759D01*
X11281491Y-15726759D02*
X11291015Y-15764854D01*
X11291015Y-15764854D02*
X11291015Y-15812473D01*
X11291015Y-15812473D02*
X11281491Y-15850569D01*
X11281491Y-15850569D02*
X11271967Y-15869616D01*
X11271967Y-15869616D02*
X11262444Y-15879140D01*
X11262444Y-15879140D02*
X11243396Y-15888664D01*
X11243396Y-15888664D02*
X11224348Y-15888664D01*
X11224348Y-15888664D02*
X11205301Y-15879140D01*
X11205301Y-15879140D02*
X11195777Y-15869616D01*
X11195777Y-15869616D02*
X11186253Y-15850569D01*
X11186253Y-15850569D02*
X11176729Y-15812473D01*
X11176729Y-15812473D02*
X11176729Y-15764854D01*
X11176729Y-15764854D02*
X11186253Y-15726759D01*
X11186253Y-15726759D02*
X11195777Y-15707712D01*
X11195777Y-15707712D02*
X11205301Y-15698188D01*
X11205301Y-15698188D02*
X11224348Y-15688664D01*
X11357682Y-15688664D02*
X11481491Y-15688664D01*
X11481491Y-15688664D02*
X11414825Y-15764854D01*
X11414825Y-15764854D02*
X11443396Y-15764854D01*
X11443396Y-15764854D02*
X11462444Y-15774378D01*
X11462444Y-15774378D02*
X11471967Y-15783902D01*
X11471967Y-15783902D02*
X11481491Y-15802950D01*
X11481491Y-15802950D02*
X11481491Y-15850569D01*
X11481491Y-15850569D02*
X11471967Y-15869616D01*
X11471967Y-15869616D02*
X11462444Y-15879140D01*
X11462444Y-15879140D02*
X11443396Y-15888664D01*
X11443396Y-15888664D02*
X11386253Y-15888664D01*
X11386253Y-15888664D02*
X11367206Y-15879140D01*
X11367206Y-15879140D02*
X11357682Y-15869616D01*
X11576729Y-15888664D02*
X11614825Y-15888664D01*
X11614825Y-15888664D02*
X11633872Y-15879140D01*
X11633872Y-15879140D02*
X11643396Y-15869616D01*
X11643396Y-15869616D02*
X11662444Y-15841045D01*
X11662444Y-15841045D02*
X11671967Y-15802950D01*
X11671967Y-15802950D02*
X11671967Y-15726759D01*
X11671967Y-15726759D02*
X11662444Y-15707712D01*
X11662444Y-15707712D02*
X11652920Y-15698188D01*
X11652920Y-15698188D02*
X11633872Y-15688664D01*
X11633872Y-15688664D02*
X11595777Y-15688664D01*
X11595777Y-15688664D02*
X11576729Y-15698188D01*
X11576729Y-15698188D02*
X11567206Y-15707712D01*
X11567206Y-15707712D02*
X11557682Y-15726759D01*
X11557682Y-15726759D02*
X11557682Y-15774378D01*
X11557682Y-15774378D02*
X11567206Y-15793426D01*
X11567206Y-15793426D02*
X11576729Y-15802950D01*
X11576729Y-15802950D02*
X11595777Y-15812473D01*
X11595777Y-15812473D02*
X11633872Y-15812473D01*
X11633872Y-15812473D02*
X11652920Y-15802950D01*
X11652920Y-15802950D02*
X11662444Y-15793426D01*
X11662444Y-15793426D02*
X11671967Y-15774378D01*
X11843396Y-15755331D02*
X11843396Y-15888664D01*
X11795777Y-15679140D02*
X11748158Y-15821997D01*
X11748158Y-15821997D02*
X11871967Y-15821997D01*
X11938634Y-15688664D02*
X11938634Y-15726759D01*
X12014825Y-15688664D02*
X12014825Y-15726759D01*
X12310063Y-15964854D02*
X12300539Y-15955331D01*
X12300539Y-15955331D02*
X12281491Y-15926759D01*
X12281491Y-15926759D02*
X12271968Y-15907712D01*
X12271968Y-15907712D02*
X12262444Y-15879140D01*
X12262444Y-15879140D02*
X12252920Y-15831521D01*
X12252920Y-15831521D02*
X12252920Y-15793426D01*
X12252920Y-15793426D02*
X12262444Y-15745807D01*
X12262444Y-15745807D02*
X12271968Y-15717235D01*
X12271968Y-15717235D02*
X12281491Y-15698188D01*
X12281491Y-15698188D02*
X12300539Y-15669616D01*
X12300539Y-15669616D02*
X12310063Y-15660092D01*
X12376729Y-15707712D02*
X12386253Y-15698188D01*
X12386253Y-15698188D02*
X12405301Y-15688664D01*
X12405301Y-15688664D02*
X12452920Y-15688664D01*
X12452920Y-15688664D02*
X12471968Y-15698188D01*
X12471968Y-15698188D02*
X12481491Y-15707712D01*
X12481491Y-15707712D02*
X12491015Y-15726759D01*
X12491015Y-15726759D02*
X12491015Y-15745807D01*
X12491015Y-15745807D02*
X12481491Y-15774378D01*
X12481491Y-15774378D02*
X12367206Y-15888664D01*
X12367206Y-15888664D02*
X12491015Y-15888664D01*
X12662444Y-15755331D02*
X12662444Y-15888664D01*
X12614825Y-15679140D02*
X12567206Y-15821997D01*
X12567206Y-15821997D02*
X12691015Y-15821997D01*
X12919587Y-15888664D02*
X12919587Y-15688664D01*
X13005301Y-15888664D02*
X13005301Y-15783902D01*
X13005301Y-15783902D02*
X12995777Y-15764854D01*
X12995777Y-15764854D02*
X12976730Y-15755331D01*
X12976730Y-15755331D02*
X12948158Y-15755331D01*
X12948158Y-15755331D02*
X12929110Y-15764854D01*
X12929110Y-15764854D02*
X12919587Y-15774378D01*
X13129110Y-15888664D02*
X13110063Y-15879140D01*
X13110063Y-15879140D02*
X13100539Y-15869616D01*
X13100539Y-15869616D02*
X13091015Y-15850569D01*
X13091015Y-15850569D02*
X13091015Y-15793426D01*
X13091015Y-15793426D02*
X13100539Y-15774378D01*
X13100539Y-15774378D02*
X13110063Y-15764854D01*
X13110063Y-15764854D02*
X13129110Y-15755331D01*
X13129110Y-15755331D02*
X13157682Y-15755331D01*
X13157682Y-15755331D02*
X13176730Y-15764854D01*
X13176730Y-15764854D02*
X13186253Y-15774378D01*
X13186253Y-15774378D02*
X13195777Y-15793426D01*
X13195777Y-15793426D02*
X13195777Y-15850569D01*
X13195777Y-15850569D02*
X13186253Y-15869616D01*
X13186253Y-15869616D02*
X13176730Y-15879140D01*
X13176730Y-15879140D02*
X13157682Y-15888664D01*
X13157682Y-15888664D02*
X13129110Y-15888664D01*
X13310063Y-15888664D02*
X13291015Y-15879140D01*
X13291015Y-15879140D02*
X13281491Y-15860092D01*
X13281491Y-15860092D02*
X13281491Y-15688664D01*
X13462444Y-15879140D02*
X13443396Y-15888664D01*
X13443396Y-15888664D02*
X13405301Y-15888664D01*
X13405301Y-15888664D02*
X13386253Y-15879140D01*
X13386253Y-15879140D02*
X13376730Y-15860092D01*
X13376730Y-15860092D02*
X13376730Y-15783902D01*
X13376730Y-15783902D02*
X13386253Y-15764854D01*
X13386253Y-15764854D02*
X13405301Y-15755331D01*
X13405301Y-15755331D02*
X13443396Y-15755331D01*
X13443396Y-15755331D02*
X13462444Y-15764854D01*
X13462444Y-15764854D02*
X13471968Y-15783902D01*
X13471968Y-15783902D02*
X13471968Y-15802950D01*
X13471968Y-15802950D02*
X13376730Y-15821997D01*
X13548158Y-15879140D02*
X13567206Y-15888664D01*
X13567206Y-15888664D02*
X13605301Y-15888664D01*
X13605301Y-15888664D02*
X13624349Y-15879140D01*
X13624349Y-15879140D02*
X13633872Y-15860092D01*
X13633872Y-15860092D02*
X13633872Y-15850569D01*
X13633872Y-15850569D02*
X13624349Y-15831521D01*
X13624349Y-15831521D02*
X13605301Y-15821997D01*
X13605301Y-15821997D02*
X13576730Y-15821997D01*
X13576730Y-15821997D02*
X13557682Y-15812473D01*
X13557682Y-15812473D02*
X13548158Y-15793426D01*
X13548158Y-15793426D02*
X13548158Y-15783902D01*
X13548158Y-15783902D02*
X13557682Y-15764854D01*
X13557682Y-15764854D02*
X13576730Y-15755331D01*
X13576730Y-15755331D02*
X13605301Y-15755331D01*
X13605301Y-15755331D02*
X13624349Y-15764854D01*
X13700539Y-15964854D02*
X13710063Y-15955331D01*
X13710063Y-15955331D02*
X13729111Y-15926759D01*
X13729111Y-15926759D02*
X13738634Y-15907712D01*
X13738634Y-15907712D02*
X13748158Y-15879140D01*
X13748158Y-15879140D02*
X13757682Y-15831521D01*
X13757682Y-15831521D02*
X13757682Y-15793426D01*
X13757682Y-15793426D02*
X13748158Y-15745807D01*
X13748158Y-15745807D02*
X13738634Y-15717235D01*
X13738634Y-15717235D02*
X13729111Y-15698188D01*
X13729111Y-15698188D02*
X13710063Y-15669616D01*
X13710063Y-15669616D02*
X13700539Y-15660092D01*
D12*
X8680000Y-16006180D02*
X8680000Y-16116180D01*
X8625000Y-16061180D02*
X8735000Y-16061180D01*
D10*
X9100539Y-16152664D02*
X8986253Y-16152664D01*
X9043396Y-16152664D02*
X9043396Y-15952664D01*
X9043396Y-15952664D02*
X9024348Y-15981235D01*
X9024348Y-15981235D02*
X9005301Y-16000283D01*
X9005301Y-16000283D02*
X8986253Y-16009807D01*
X9186253Y-16133616D02*
X9195777Y-16143140D01*
X9195777Y-16143140D02*
X9186253Y-16152664D01*
X9186253Y-16152664D02*
X9176729Y-16143140D01*
X9176729Y-16143140D02*
X9186253Y-16133616D01*
X9186253Y-16133616D02*
X9186253Y-16152664D01*
X9386253Y-16152664D02*
X9271967Y-16152664D01*
X9329110Y-16152664D02*
X9329110Y-15952664D01*
X9329110Y-15952664D02*
X9310063Y-15981235D01*
X9310063Y-15981235D02*
X9291015Y-16000283D01*
X9291015Y-16000283D02*
X9271967Y-16009807D01*
X9510063Y-15952664D02*
X9529110Y-15952664D01*
X9529110Y-15952664D02*
X9548158Y-15962188D01*
X9548158Y-15962188D02*
X9557682Y-15971712D01*
X9557682Y-15971712D02*
X9567205Y-15990759D01*
X9567205Y-15990759D02*
X9576729Y-16028854D01*
X9576729Y-16028854D02*
X9576729Y-16076473D01*
X9576729Y-16076473D02*
X9567205Y-16114569D01*
X9567205Y-16114569D02*
X9557682Y-16133616D01*
X9557682Y-16133616D02*
X9548158Y-16143140D01*
X9548158Y-16143140D02*
X9529110Y-16152664D01*
X9529110Y-16152664D02*
X9510063Y-16152664D01*
X9510063Y-16152664D02*
X9491015Y-16143140D01*
X9491015Y-16143140D02*
X9481491Y-16133616D01*
X9481491Y-16133616D02*
X9471967Y-16114569D01*
X9471967Y-16114569D02*
X9462444Y-16076473D01*
X9462444Y-16076473D02*
X9462444Y-16028854D01*
X9462444Y-16028854D02*
X9471967Y-15990759D01*
X9471967Y-15990759D02*
X9481491Y-15971712D01*
X9481491Y-15971712D02*
X9491015Y-15962188D01*
X9491015Y-15962188D02*
X9510063Y-15952664D01*
X9700539Y-15952664D02*
X9719586Y-15952664D01*
X9719586Y-15952664D02*
X9738634Y-15962188D01*
X9738634Y-15962188D02*
X9748158Y-15971712D01*
X9748158Y-15971712D02*
X9757682Y-15990759D01*
X9757682Y-15990759D02*
X9767205Y-16028854D01*
X9767205Y-16028854D02*
X9767205Y-16076473D01*
X9767205Y-16076473D02*
X9757682Y-16114569D01*
X9757682Y-16114569D02*
X9748158Y-16133616D01*
X9748158Y-16133616D02*
X9738634Y-16143140D01*
X9738634Y-16143140D02*
X9719586Y-16152664D01*
X9719586Y-16152664D02*
X9700539Y-16152664D01*
X9700539Y-16152664D02*
X9681491Y-16143140D01*
X9681491Y-16143140D02*
X9671967Y-16133616D01*
X9671967Y-16133616D02*
X9662444Y-16114569D01*
X9662444Y-16114569D02*
X9652920Y-16076473D01*
X9652920Y-16076473D02*
X9652920Y-16028854D01*
X9652920Y-16028854D02*
X9662444Y-15990759D01*
X9662444Y-15990759D02*
X9671967Y-15971712D01*
X9671967Y-15971712D02*
X9681491Y-15962188D01*
X9681491Y-15962188D02*
X9700539Y-15952664D01*
X9852920Y-16152664D02*
X9852920Y-16019331D01*
X9852920Y-16038378D02*
X9862444Y-16028854D01*
X9862444Y-16028854D02*
X9881491Y-16019331D01*
X9881491Y-16019331D02*
X9910063Y-16019331D01*
X9910063Y-16019331D02*
X9929110Y-16028854D01*
X9929110Y-16028854D02*
X9938634Y-16047902D01*
X9938634Y-16047902D02*
X9938634Y-16152664D01*
X9938634Y-16047902D02*
X9948158Y-16028854D01*
X9948158Y-16028854D02*
X9967205Y-16019331D01*
X9967205Y-16019331D02*
X9995777Y-16019331D01*
X9995777Y-16019331D02*
X10014825Y-16028854D01*
X10014825Y-16028854D02*
X10024348Y-16047902D01*
X10024348Y-16047902D02*
X10024348Y-16152664D01*
X10119586Y-16152664D02*
X10119586Y-16019331D01*
X10119586Y-16038378D02*
X10129110Y-16028854D01*
X10129110Y-16028854D02*
X10148158Y-16019331D01*
X10148158Y-16019331D02*
X10176729Y-16019331D01*
X10176729Y-16019331D02*
X10195777Y-16028854D01*
X10195777Y-16028854D02*
X10205301Y-16047902D01*
X10205301Y-16047902D02*
X10205301Y-16152664D01*
X10205301Y-16047902D02*
X10214825Y-16028854D01*
X10214825Y-16028854D02*
X10233872Y-16019331D01*
X10233872Y-16019331D02*
X10262444Y-16019331D01*
X10262444Y-16019331D02*
X10281491Y-16028854D01*
X10281491Y-16028854D02*
X10291015Y-16047902D01*
X10291015Y-16047902D02*
X10291015Y-16152664D01*
X10681491Y-15943140D02*
X10510063Y-16200283D01*
X10938634Y-15952664D02*
X10957682Y-15952664D01*
X10957682Y-15952664D02*
X10976729Y-15962188D01*
X10976729Y-15962188D02*
X10986253Y-15971712D01*
X10986253Y-15971712D02*
X10995777Y-15990759D01*
X10995777Y-15990759D02*
X11005301Y-16028854D01*
X11005301Y-16028854D02*
X11005301Y-16076473D01*
X11005301Y-16076473D02*
X10995777Y-16114569D01*
X10995777Y-16114569D02*
X10986253Y-16133616D01*
X10986253Y-16133616D02*
X10976729Y-16143140D01*
X10976729Y-16143140D02*
X10957682Y-16152664D01*
X10957682Y-16152664D02*
X10938634Y-16152664D01*
X10938634Y-16152664D02*
X10919587Y-16143140D01*
X10919587Y-16143140D02*
X10910063Y-16133616D01*
X10910063Y-16133616D02*
X10900539Y-16114569D01*
X10900539Y-16114569D02*
X10891015Y-16076473D01*
X10891015Y-16076473D02*
X10891015Y-16028854D01*
X10891015Y-16028854D02*
X10900539Y-15990759D01*
X10900539Y-15990759D02*
X10910063Y-15971712D01*
X10910063Y-15971712D02*
X10919587Y-15962188D01*
X10919587Y-15962188D02*
X10938634Y-15952664D01*
X11091015Y-16133616D02*
X11100539Y-16143140D01*
X11100539Y-16143140D02*
X11091015Y-16152664D01*
X11091015Y-16152664D02*
X11081491Y-16143140D01*
X11081491Y-16143140D02*
X11091015Y-16133616D01*
X11091015Y-16133616D02*
X11091015Y-16152664D01*
X11224348Y-15952664D02*
X11243396Y-15952664D01*
X11243396Y-15952664D02*
X11262444Y-15962188D01*
X11262444Y-15962188D02*
X11271967Y-15971712D01*
X11271967Y-15971712D02*
X11281491Y-15990759D01*
X11281491Y-15990759D02*
X11291015Y-16028854D01*
X11291015Y-16028854D02*
X11291015Y-16076473D01*
X11291015Y-16076473D02*
X11281491Y-16114569D01*
X11281491Y-16114569D02*
X11271967Y-16133616D01*
X11271967Y-16133616D02*
X11262444Y-16143140D01*
X11262444Y-16143140D02*
X11243396Y-16152664D01*
X11243396Y-16152664D02*
X11224348Y-16152664D01*
X11224348Y-16152664D02*
X11205301Y-16143140D01*
X11205301Y-16143140D02*
X11195777Y-16133616D01*
X11195777Y-16133616D02*
X11186253Y-16114569D01*
X11186253Y-16114569D02*
X11176729Y-16076473D01*
X11176729Y-16076473D02*
X11176729Y-16028854D01*
X11176729Y-16028854D02*
X11186253Y-15990759D01*
X11186253Y-15990759D02*
X11195777Y-15971712D01*
X11195777Y-15971712D02*
X11205301Y-15962188D01*
X11205301Y-15962188D02*
X11224348Y-15952664D01*
X11462444Y-16019331D02*
X11462444Y-16152664D01*
X11414825Y-15943140D02*
X11367206Y-16085997D01*
X11367206Y-16085997D02*
X11491015Y-16085997D01*
X11548158Y-15952664D02*
X11671967Y-15952664D01*
X11671967Y-15952664D02*
X11605301Y-16028854D01*
X11605301Y-16028854D02*
X11633872Y-16028854D01*
X11633872Y-16028854D02*
X11652920Y-16038378D01*
X11652920Y-16038378D02*
X11662444Y-16047902D01*
X11662444Y-16047902D02*
X11671967Y-16066950D01*
X11671967Y-16066950D02*
X11671967Y-16114569D01*
X11671967Y-16114569D02*
X11662444Y-16133616D01*
X11662444Y-16133616D02*
X11652920Y-16143140D01*
X11652920Y-16143140D02*
X11633872Y-16152664D01*
X11633872Y-16152664D02*
X11576729Y-16152664D01*
X11576729Y-16152664D02*
X11557682Y-16143140D01*
X11557682Y-16143140D02*
X11548158Y-16133616D01*
X11738634Y-15952664D02*
X11862444Y-15952664D01*
X11862444Y-15952664D02*
X11795777Y-16028854D01*
X11795777Y-16028854D02*
X11824348Y-16028854D01*
X11824348Y-16028854D02*
X11843396Y-16038378D01*
X11843396Y-16038378D02*
X11852920Y-16047902D01*
X11852920Y-16047902D02*
X11862444Y-16066950D01*
X11862444Y-16066950D02*
X11862444Y-16114569D01*
X11862444Y-16114569D02*
X11852920Y-16133616D01*
X11852920Y-16133616D02*
X11843396Y-16143140D01*
X11843396Y-16143140D02*
X11824348Y-16152664D01*
X11824348Y-16152664D02*
X11767206Y-16152664D01*
X11767206Y-16152664D02*
X11748158Y-16143140D01*
X11748158Y-16143140D02*
X11738634Y-16133616D01*
X11938634Y-15952664D02*
X11938634Y-15990759D01*
X12014825Y-15952664D02*
X12014825Y-15990759D01*
X12310063Y-16228854D02*
X12300539Y-16219331D01*
X12300539Y-16219331D02*
X12281491Y-16190759D01*
X12281491Y-16190759D02*
X12271968Y-16171712D01*
X12271968Y-16171712D02*
X12262444Y-16143140D01*
X12262444Y-16143140D02*
X12252920Y-16095521D01*
X12252920Y-16095521D02*
X12252920Y-16057426D01*
X12252920Y-16057426D02*
X12262444Y-16009807D01*
X12262444Y-16009807D02*
X12271968Y-15981235D01*
X12271968Y-15981235D02*
X12281491Y-15962188D01*
X12281491Y-15962188D02*
X12300539Y-15933616D01*
X12300539Y-15933616D02*
X12310063Y-15924092D01*
X12491015Y-16152664D02*
X12376729Y-16152664D01*
X12433872Y-16152664D02*
X12433872Y-15952664D01*
X12433872Y-15952664D02*
X12414825Y-15981235D01*
X12414825Y-15981235D02*
X12395777Y-16000283D01*
X12395777Y-16000283D02*
X12376729Y-16009807D01*
X12567206Y-15971712D02*
X12576729Y-15962188D01*
X12576729Y-15962188D02*
X12595777Y-15952664D01*
X12595777Y-15952664D02*
X12643396Y-15952664D01*
X12643396Y-15952664D02*
X12662444Y-15962188D01*
X12662444Y-15962188D02*
X12671968Y-15971712D01*
X12671968Y-15971712D02*
X12681491Y-15990759D01*
X12681491Y-15990759D02*
X12681491Y-16009807D01*
X12681491Y-16009807D02*
X12671968Y-16038378D01*
X12671968Y-16038378D02*
X12557682Y-16152664D01*
X12557682Y-16152664D02*
X12681491Y-16152664D01*
X12919587Y-16152664D02*
X12919587Y-15952664D01*
X13005301Y-16152664D02*
X13005301Y-16047902D01*
X13005301Y-16047902D02*
X12995777Y-16028854D01*
X12995777Y-16028854D02*
X12976730Y-16019331D01*
X12976730Y-16019331D02*
X12948158Y-16019331D01*
X12948158Y-16019331D02*
X12929110Y-16028854D01*
X12929110Y-16028854D02*
X12919587Y-16038378D01*
X13129110Y-16152664D02*
X13110063Y-16143140D01*
X13110063Y-16143140D02*
X13100539Y-16133616D01*
X13100539Y-16133616D02*
X13091015Y-16114569D01*
X13091015Y-16114569D02*
X13091015Y-16057426D01*
X13091015Y-16057426D02*
X13100539Y-16038378D01*
X13100539Y-16038378D02*
X13110063Y-16028854D01*
X13110063Y-16028854D02*
X13129110Y-16019331D01*
X13129110Y-16019331D02*
X13157682Y-16019331D01*
X13157682Y-16019331D02*
X13176730Y-16028854D01*
X13176730Y-16028854D02*
X13186253Y-16038378D01*
X13186253Y-16038378D02*
X13195777Y-16057426D01*
X13195777Y-16057426D02*
X13195777Y-16114569D01*
X13195777Y-16114569D02*
X13186253Y-16133616D01*
X13186253Y-16133616D02*
X13176730Y-16143140D01*
X13176730Y-16143140D02*
X13157682Y-16152664D01*
X13157682Y-16152664D02*
X13129110Y-16152664D01*
X13310063Y-16152664D02*
X13291015Y-16143140D01*
X13291015Y-16143140D02*
X13281491Y-16124092D01*
X13281491Y-16124092D02*
X13281491Y-15952664D01*
X13462444Y-16143140D02*
X13443396Y-16152664D01*
X13443396Y-16152664D02*
X13405301Y-16152664D01*
X13405301Y-16152664D02*
X13386253Y-16143140D01*
X13386253Y-16143140D02*
X13376730Y-16124092D01*
X13376730Y-16124092D02*
X13376730Y-16047902D01*
X13376730Y-16047902D02*
X13386253Y-16028854D01*
X13386253Y-16028854D02*
X13405301Y-16019331D01*
X13405301Y-16019331D02*
X13443396Y-16019331D01*
X13443396Y-16019331D02*
X13462444Y-16028854D01*
X13462444Y-16028854D02*
X13471968Y-16047902D01*
X13471968Y-16047902D02*
X13471968Y-16066950D01*
X13471968Y-16066950D02*
X13376730Y-16085997D01*
X13548158Y-16143140D02*
X13567206Y-16152664D01*
X13567206Y-16152664D02*
X13605301Y-16152664D01*
X13605301Y-16152664D02*
X13624349Y-16143140D01*
X13624349Y-16143140D02*
X13633872Y-16124092D01*
X13633872Y-16124092D02*
X13633872Y-16114569D01*
X13633872Y-16114569D02*
X13624349Y-16095521D01*
X13624349Y-16095521D02*
X13605301Y-16085997D01*
X13605301Y-16085997D02*
X13576730Y-16085997D01*
X13576730Y-16085997D02*
X13557682Y-16076473D01*
X13557682Y-16076473D02*
X13548158Y-16057426D01*
X13548158Y-16057426D02*
X13548158Y-16047902D01*
X13548158Y-16047902D02*
X13557682Y-16028854D01*
X13557682Y-16028854D02*
X13576730Y-16019331D01*
X13576730Y-16019331D02*
X13605301Y-16019331D01*
X13605301Y-16019331D02*
X13624349Y-16028854D01*
X13700539Y-16228854D02*
X13710063Y-16219331D01*
X13710063Y-16219331D02*
X13729111Y-16190759D01*
X13729111Y-16190759D02*
X13738634Y-16171712D01*
X13738634Y-16171712D02*
X13748158Y-16143140D01*
X13748158Y-16143140D02*
X13757682Y-16095521D01*
X13757682Y-16095521D02*
X13757682Y-16057426D01*
X13757682Y-16057426D02*
X13748158Y-16009807D01*
X13748158Y-16009807D02*
X13738634Y-15981235D01*
X13738634Y-15981235D02*
X13729111Y-15962188D01*
X13729111Y-15962188D02*
X13710063Y-15933616D01*
X13710063Y-15933616D02*
X13700539Y-15924092D01*
M02*
