%TF.GenerationSoftware,KiCad,Pcbnew,7.0.10*%
%TF.CreationDate,2024-03-05T14:46:02-05:00*%
%TF.ProjectId,User_Interface,55736572-5f49-46e7-9465-72666163652e,rev?*%
%TF.SameCoordinates,Original*%
%TF.FileFunction,Copper,L1,Top*%
%TF.FilePolarity,Positive*%
%FSLAX46Y46*%
G04 Gerber Fmt 4.6, Leading zero omitted, Abs format (unit mm)*
G04 Created by KiCad (PCBNEW 7.0.10) date 2024-03-05 14:46:02*
%MOMM*%
%LPD*%
G01*
G04 APERTURE LIST*
%TA.AperFunction,ComponentPad*%
%ADD10C,2.000000*%
%TD*%
%TA.AperFunction,ComponentPad*%
%ADD11R,1.700000X1.700000*%
%TD*%
%TA.AperFunction,ComponentPad*%
%ADD12O,1.700000X1.700000*%
%TD*%
%TA.AperFunction,ViaPad*%
%ADD13C,0.800000*%
%TD*%
%TA.AperFunction,Conductor*%
%ADD14C,0.250000*%
%TD*%
G04 APERTURE END LIST*
D10*
%TO.P,STOP1,1,1*%
%TO.N,POWER_3*%
X142775000Y-118281802D03*
X149275000Y-118281802D03*
%TO.P,STOP1,2,A*%
%TO.N,Net-(STOP1-A)*%
X142775000Y-122781802D03*
X149275000Y-122781802D03*
%TD*%
D11*
%TO.P,OLED1,1,VSS*%
%TO.N,GND*%
X107800000Y-53600000D03*
D12*
%TO.P,OLED1,2,VDD*%
%TO.N,POWER_3*%
X110340000Y-53600000D03*
%TO.P,OLED1,3*%
%TO.N,unconnected-(OLED1-Pad3)*%
X112880000Y-53600000D03*
%TO.P,OLED1,4*%
%TO.N,unconnected-(OLED1-Pad4)*%
X115420000Y-53600000D03*
%TO.P,OLED1,5*%
%TO.N,unconnected-(OLED1-Pad5)*%
X117960000Y-53600000D03*
%TO.P,OLED1,6*%
%TO.N,unconnected-(OLED1-Pad6)*%
X120500000Y-53600000D03*
%TO.P,OLED1,7*%
%TO.N,unconnected-(OLED1-Pad7)*%
X123040000Y-53600000D03*
%TO.P,OLED1,8*%
%TO.N,unconnected-(OLED1-Pad8)*%
X125580000Y-53600000D03*
%TO.P,OLED1,9*%
%TO.N,unconnected-(OLED1-Pad9)*%
X128120000Y-53600000D03*
%TO.P,OLED1,10*%
%TO.N,unconnected-(OLED1-Pad10)*%
X130660000Y-53600000D03*
%TO.P,OLED1,11*%
%TO.N,unconnected-(OLED1-Pad11)*%
X133200000Y-53600000D03*
%TO.P,OLED1,12,SCK*%
%TO.N,SPI_SCK*%
X135740000Y-53600000D03*
%TO.P,OLED1,13,SDO*%
%TO.N,unconnected-(OLED1-SDO-Pad13)*%
X138280000Y-53600000D03*
%TO.P,OLED1,14,SDI*%
%TO.N,SPI_MOSI*%
X140820000Y-53600000D03*
%TO.P,OLED1,15*%
%TO.N,unconnected-(OLED1-Pad15)*%
X143360000Y-53600000D03*
%TO.P,OLED1,16,nCS*%
%TO.N,SPI_NSS*%
X145900000Y-53600000D03*
%TD*%
D11*
%TO.P,MAIN_CONTROL1,1,VDD*%
%TO.N,POWER_3*%
X136675000Y-144335000D03*
D12*
%TO.P,MAIN_CONTROL1,2,VSS*%
%TO.N,GND*%
X139215000Y-144335000D03*
%TO.P,MAIN_CONTROL1,3,USER_START*%
%TO.N,USR_START*%
X141755000Y-144335000D03*
%TO.P,MAIN_CONTROL1,4,USER_STOP*%
%TO.N,USR_STOP*%
X144295000Y-144335000D03*
%TO.P,MAIN_CONTROL1,5,USER_RESET*%
%TO.N,USR_RESET*%
X146835000Y-144335000D03*
%TO.P,MAIN_CONTROL1,6,SPI_SCK*%
%TO.N,SPI_SCK*%
X149375000Y-144335000D03*
%TO.P,MAIN_CONTROL1,7,SPI_MOSI*%
%TO.N,SPI_MOSI*%
X151915000Y-144335000D03*
%TO.P,MAIN_CONTROL1,8,SPI_NSS*%
%TO.N,SPI_NSS*%
X154455000Y-144335000D03*
%TD*%
D10*
%TO.P,RESET1,1,1*%
%TO.N,POWER_3*%
X168300000Y-118281802D03*
X174800000Y-118281802D03*
%TO.P,RESET1,2,A*%
%TO.N,Net-(RESET1-A)*%
X168300000Y-122781802D03*
X174800000Y-122781802D03*
%TD*%
%TO.P,START1,1,1*%
%TO.N,POWER_3*%
X117250000Y-118281802D03*
X123750000Y-118281802D03*
%TO.P,START1,2,A*%
%TO.N,Net-(START1-A)*%
X117250000Y-122781802D03*
X123750000Y-122781802D03*
%TD*%
D13*
%TO.N,GND*%
X115750000Y-125731802D03*
X142350000Y-125631802D03*
X165450000Y-125331802D03*
%TD*%
D14*
%TO.N,GND*%
X115831802Y-125650000D02*
X142331802Y-125650000D01*
X115750000Y-125731802D02*
X115831802Y-125650000D01*
X142621802Y-125360000D02*
X165421802Y-125360000D01*
X165421802Y-125360000D02*
X165450000Y-125331802D01*
X142331802Y-125650000D02*
X142350000Y-125631802D01*
X142350000Y-125631802D02*
X142621802Y-125360000D01*
%TD*%
%TA.AperFunction,Conductor*%
%TO.N,GND*%
G36*
X199292539Y-44751987D02*
G01*
X199338294Y-44804791D01*
X199349500Y-44856302D01*
X199349500Y-148707302D01*
X199329815Y-148774341D01*
X199277011Y-148820096D01*
X199225500Y-148831302D01*
X87574500Y-148831302D01*
X87507461Y-148811617D01*
X87461706Y-148758813D01*
X87450500Y-148707302D01*
X87450500Y-145232870D01*
X135324500Y-145232870D01*
X135324501Y-145232876D01*
X135330908Y-145292483D01*
X135381202Y-145427328D01*
X135381206Y-145427335D01*
X135467452Y-145542544D01*
X135467455Y-145542547D01*
X135582664Y-145628793D01*
X135582671Y-145628797D01*
X135717517Y-145679091D01*
X135717516Y-145679091D01*
X135724444Y-145679835D01*
X135777127Y-145685500D01*
X137572872Y-145685499D01*
X137632483Y-145679091D01*
X137767331Y-145628796D01*
X137882546Y-145542546D01*
X137968796Y-145427331D01*
X138018002Y-145295401D01*
X138059872Y-145239468D01*
X138125337Y-145215050D01*
X138193610Y-145229901D01*
X138221865Y-145251053D01*
X138343917Y-145373105D01*
X138537421Y-145508600D01*
X138751507Y-145608429D01*
X138751516Y-145608433D01*
X138965000Y-145665634D01*
X138965000Y-144770501D01*
X139072685Y-144819680D01*
X139179237Y-144835000D01*
X139250763Y-144835000D01*
X139357315Y-144819680D01*
X139465000Y-144770501D01*
X139465000Y-145665633D01*
X139678483Y-145608433D01*
X139678492Y-145608429D01*
X139892578Y-145508600D01*
X140086082Y-145373105D01*
X140253105Y-145206082D01*
X140383119Y-145020405D01*
X140437696Y-144976781D01*
X140507195Y-144969588D01*
X140569549Y-145001110D01*
X140586269Y-145020405D01*
X140716505Y-145206401D01*
X140883599Y-145373495D01*
X140980384Y-145441265D01*
X141077165Y-145509032D01*
X141077167Y-145509033D01*
X141077170Y-145509035D01*
X141291337Y-145608903D01*
X141519592Y-145670063D01*
X141696034Y-145685500D01*
X141754999Y-145690659D01*
X141755000Y-145690659D01*
X141755001Y-145690659D01*
X141813966Y-145685500D01*
X141990408Y-145670063D01*
X142218663Y-145608903D01*
X142432830Y-145509035D01*
X142626401Y-145373495D01*
X142793495Y-145206401D01*
X142923425Y-145020842D01*
X142978002Y-144977217D01*
X143047500Y-144970023D01*
X143109855Y-145001546D01*
X143126575Y-145020842D01*
X143256500Y-145206395D01*
X143256505Y-145206401D01*
X143423599Y-145373495D01*
X143520384Y-145441265D01*
X143617165Y-145509032D01*
X143617167Y-145509033D01*
X143617170Y-145509035D01*
X143831337Y-145608903D01*
X144059592Y-145670063D01*
X144236034Y-145685500D01*
X144294999Y-145690659D01*
X144295000Y-145690659D01*
X144295001Y-145690659D01*
X144353966Y-145685500D01*
X144530408Y-145670063D01*
X144758663Y-145608903D01*
X144972830Y-145509035D01*
X145166401Y-145373495D01*
X145333495Y-145206401D01*
X145463425Y-145020842D01*
X145518002Y-144977217D01*
X145587500Y-144970023D01*
X145649855Y-145001546D01*
X145666575Y-145020842D01*
X145796500Y-145206395D01*
X145796505Y-145206401D01*
X145963599Y-145373495D01*
X146060384Y-145441265D01*
X146157165Y-145509032D01*
X146157167Y-145509033D01*
X146157170Y-145509035D01*
X146371337Y-145608903D01*
X146599592Y-145670063D01*
X146776034Y-145685500D01*
X146834999Y-145690659D01*
X146835000Y-145690659D01*
X146835001Y-145690659D01*
X146893966Y-145685500D01*
X147070408Y-145670063D01*
X147298663Y-145608903D01*
X147512830Y-145509035D01*
X147706401Y-145373495D01*
X147873495Y-145206401D01*
X148003425Y-145020842D01*
X148058002Y-144977217D01*
X148127500Y-144970023D01*
X148189855Y-145001546D01*
X148206575Y-145020842D01*
X148336500Y-145206395D01*
X148336505Y-145206401D01*
X148503599Y-145373495D01*
X148600384Y-145441265D01*
X148697165Y-145509032D01*
X148697167Y-145509033D01*
X148697170Y-145509035D01*
X148911337Y-145608903D01*
X149139592Y-145670063D01*
X149316034Y-145685500D01*
X149374999Y-145690659D01*
X149375000Y-145690659D01*
X149375001Y-145690659D01*
X149433966Y-145685500D01*
X149610408Y-145670063D01*
X149838663Y-145608903D01*
X150052830Y-145509035D01*
X150246401Y-145373495D01*
X150413495Y-145206401D01*
X150543425Y-145020842D01*
X150598002Y-144977217D01*
X150667500Y-144970023D01*
X150729855Y-145001546D01*
X150746575Y-145020842D01*
X150876500Y-145206395D01*
X150876505Y-145206401D01*
X151043599Y-145373495D01*
X151140384Y-145441265D01*
X151237165Y-145509032D01*
X151237167Y-145509033D01*
X151237170Y-145509035D01*
X151451337Y-145608903D01*
X151679592Y-145670063D01*
X151856034Y-145685500D01*
X151914999Y-145690659D01*
X151915000Y-145690659D01*
X151915001Y-145690659D01*
X151973966Y-145685500D01*
X152150408Y-145670063D01*
X152378663Y-145608903D01*
X152592830Y-145509035D01*
X152786401Y-145373495D01*
X152953495Y-145206401D01*
X153083425Y-145020842D01*
X153138002Y-144977217D01*
X153207500Y-144970023D01*
X153269855Y-145001546D01*
X153286575Y-145020842D01*
X153416500Y-145206395D01*
X153416505Y-145206401D01*
X153583599Y-145373495D01*
X153680384Y-145441265D01*
X153777165Y-145509032D01*
X153777167Y-145509033D01*
X153777170Y-145509035D01*
X153991337Y-145608903D01*
X154219592Y-145670063D01*
X154396034Y-145685500D01*
X154454999Y-145690659D01*
X154455000Y-145690659D01*
X154455001Y-145690659D01*
X154513966Y-145685500D01*
X154690408Y-145670063D01*
X154918663Y-145608903D01*
X155132830Y-145509035D01*
X155326401Y-145373495D01*
X155493495Y-145206401D01*
X155629035Y-145012830D01*
X155728903Y-144798663D01*
X155790063Y-144570408D01*
X155810659Y-144335000D01*
X155790063Y-144099592D01*
X155728903Y-143871337D01*
X155629035Y-143657171D01*
X155623731Y-143649595D01*
X155493494Y-143463597D01*
X155326402Y-143296506D01*
X155326395Y-143296501D01*
X155132834Y-143160967D01*
X155132830Y-143160965D01*
X155110388Y-143150500D01*
X154918663Y-143061097D01*
X154918659Y-143061096D01*
X154918655Y-143061094D01*
X154690413Y-142999938D01*
X154690403Y-142999936D01*
X154455001Y-142979341D01*
X154454999Y-142979341D01*
X154219596Y-142999936D01*
X154219586Y-142999938D01*
X153991344Y-143061094D01*
X153991335Y-143061098D01*
X153777171Y-143160964D01*
X153777169Y-143160965D01*
X153583597Y-143296505D01*
X153416505Y-143463597D01*
X153286575Y-143649158D01*
X153231998Y-143692783D01*
X153162500Y-143699977D01*
X153100145Y-143668454D01*
X153083425Y-143649158D01*
X152953494Y-143463597D01*
X152786402Y-143296506D01*
X152786395Y-143296501D01*
X152592834Y-143160967D01*
X152592830Y-143160965D01*
X152570388Y-143150500D01*
X152378663Y-143061097D01*
X152378659Y-143061096D01*
X152378655Y-143061094D01*
X152150413Y-142999938D01*
X152150403Y-142999936D01*
X151915001Y-142979341D01*
X151914999Y-142979341D01*
X151679596Y-142999936D01*
X151679586Y-142999938D01*
X151451344Y-143061094D01*
X151451335Y-143061098D01*
X151237171Y-143160964D01*
X151237169Y-143160965D01*
X151043597Y-143296505D01*
X150876505Y-143463597D01*
X150746575Y-143649158D01*
X150691998Y-143692783D01*
X150622500Y-143699977D01*
X150560145Y-143668454D01*
X150543425Y-143649158D01*
X150413494Y-143463597D01*
X150246402Y-143296506D01*
X150246395Y-143296501D01*
X150052834Y-143160967D01*
X150052830Y-143160965D01*
X150030388Y-143150500D01*
X149838663Y-143061097D01*
X149838659Y-143061096D01*
X149838655Y-143061094D01*
X149610413Y-142999938D01*
X149610403Y-142999936D01*
X149375001Y-142979341D01*
X149374999Y-142979341D01*
X149139596Y-142999936D01*
X149139586Y-142999938D01*
X148911344Y-143061094D01*
X148911335Y-143061098D01*
X148697171Y-143160964D01*
X148697169Y-143160965D01*
X148503597Y-143296505D01*
X148336505Y-143463597D01*
X148206575Y-143649158D01*
X148151998Y-143692783D01*
X148082500Y-143699977D01*
X148020145Y-143668454D01*
X148003425Y-143649158D01*
X147873494Y-143463597D01*
X147706402Y-143296506D01*
X147706395Y-143296501D01*
X147512834Y-143160967D01*
X147512830Y-143160965D01*
X147490388Y-143150500D01*
X147298663Y-143061097D01*
X147298659Y-143061096D01*
X147298655Y-143061094D01*
X147070413Y-142999938D01*
X147070403Y-142999936D01*
X146835001Y-142979341D01*
X146834999Y-142979341D01*
X146599596Y-142999936D01*
X146599586Y-142999938D01*
X146371344Y-143061094D01*
X146371335Y-143061098D01*
X146157171Y-143160964D01*
X146157169Y-143160965D01*
X145963597Y-143296505D01*
X145796505Y-143463597D01*
X145666575Y-143649158D01*
X145611998Y-143692783D01*
X145542500Y-143699977D01*
X145480145Y-143668454D01*
X145463425Y-143649158D01*
X145333494Y-143463597D01*
X145166402Y-143296506D01*
X145166395Y-143296501D01*
X144972834Y-143160967D01*
X144972830Y-143160965D01*
X144950388Y-143150500D01*
X144758663Y-143061097D01*
X144758659Y-143061096D01*
X144758655Y-143061094D01*
X144530413Y-142999938D01*
X144530403Y-142999936D01*
X144295001Y-142979341D01*
X144294999Y-142979341D01*
X144059596Y-142999936D01*
X144059586Y-142999938D01*
X143831344Y-143061094D01*
X143831335Y-143061098D01*
X143617171Y-143160964D01*
X143617169Y-143160965D01*
X143423597Y-143296505D01*
X143256505Y-143463597D01*
X143126575Y-143649158D01*
X143071998Y-143692783D01*
X143002500Y-143699977D01*
X142940145Y-143668454D01*
X142923425Y-143649158D01*
X142793494Y-143463597D01*
X142626402Y-143296506D01*
X142626395Y-143296501D01*
X142432834Y-143160967D01*
X142432830Y-143160965D01*
X142410388Y-143150500D01*
X142218663Y-143061097D01*
X142218659Y-143061096D01*
X142218655Y-143061094D01*
X141990413Y-142999938D01*
X141990403Y-142999936D01*
X141755001Y-142979341D01*
X141754999Y-142979341D01*
X141519596Y-142999936D01*
X141519586Y-142999938D01*
X141291344Y-143061094D01*
X141291335Y-143061098D01*
X141077171Y-143160964D01*
X141077169Y-143160965D01*
X140883597Y-143296505D01*
X140716508Y-143463594D01*
X140586269Y-143649595D01*
X140531692Y-143693219D01*
X140462193Y-143700412D01*
X140399839Y-143668890D01*
X140383119Y-143649594D01*
X140253113Y-143463926D01*
X140253108Y-143463920D01*
X140086082Y-143296894D01*
X139892578Y-143161399D01*
X139678492Y-143061570D01*
X139678486Y-143061567D01*
X139465000Y-143004364D01*
X139465000Y-143899498D01*
X139357315Y-143850320D01*
X139250763Y-143835000D01*
X139179237Y-143835000D01*
X139072685Y-143850320D01*
X138965000Y-143899498D01*
X138965000Y-143004364D01*
X138964999Y-143004364D01*
X138751513Y-143061567D01*
X138751507Y-143061570D01*
X138537422Y-143161399D01*
X138537420Y-143161400D01*
X138343926Y-143296886D01*
X138221865Y-143418947D01*
X138160542Y-143452431D01*
X138090850Y-143447447D01*
X138034917Y-143405575D01*
X138018002Y-143374598D01*
X137968797Y-143242671D01*
X137968793Y-143242664D01*
X137882547Y-143127455D01*
X137882544Y-143127452D01*
X137767335Y-143041206D01*
X137767328Y-143041202D01*
X137632482Y-142990908D01*
X137632483Y-142990908D01*
X137572883Y-142984501D01*
X137572881Y-142984500D01*
X137572873Y-142984500D01*
X137572864Y-142984500D01*
X135777129Y-142984500D01*
X135777123Y-142984501D01*
X135717516Y-142990908D01*
X135582671Y-143041202D01*
X135582664Y-143041206D01*
X135467455Y-143127452D01*
X135467452Y-143127455D01*
X135381206Y-143242664D01*
X135381202Y-143242671D01*
X135330908Y-143377517D01*
X135324501Y-143437116D01*
X135324500Y-143437135D01*
X135324500Y-145232870D01*
X87450500Y-145232870D01*
X87450500Y-140975373D01*
X93645723Y-140975373D01*
X93675881Y-141275160D01*
X93675882Y-141275162D01*
X93745728Y-141568252D01*
X93745733Y-141568266D01*
X93854020Y-141849427D01*
X93854024Y-141849436D01*
X93998825Y-142113665D01*
X93998829Y-142113671D01*
X94112725Y-142268252D01*
X94177554Y-142356238D01*
X94177561Y-142356245D01*
X94387019Y-142572823D01*
X94623478Y-142759553D01*
X94623480Y-142759554D01*
X94623485Y-142759558D01*
X94882730Y-142913109D01*
X95160128Y-143030736D01*
X95450729Y-143110340D01*
X95749347Y-143150500D01*
X95749351Y-143150500D01*
X95975252Y-143150500D01*
X96139164Y-143139526D01*
X96200634Y-143135412D01*
X96495903Y-143075396D01*
X96780537Y-142976560D01*
X97049459Y-142840668D01*
X97297869Y-142670144D01*
X97521333Y-142468032D01*
X97715865Y-142237939D01*
X97877993Y-141983970D01*
X98004823Y-141710658D01*
X98015769Y-141675373D01*
X190145723Y-141675373D01*
X190175881Y-141975160D01*
X190175882Y-141975162D01*
X190245728Y-142268252D01*
X190245733Y-142268266D01*
X190354020Y-142549427D01*
X190354024Y-142549436D01*
X190498825Y-142813665D01*
X190498829Y-142813671D01*
X190629419Y-142990909D01*
X190677554Y-143056238D01*
X190746427Y-143127452D01*
X190887019Y-143272823D01*
X191123478Y-143459553D01*
X191123480Y-143459554D01*
X191123485Y-143459558D01*
X191382730Y-143613109D01*
X191660128Y-143730736D01*
X191950729Y-143810340D01*
X192249347Y-143850500D01*
X192249351Y-143850500D01*
X192475252Y-143850500D01*
X192639164Y-143839526D01*
X192700634Y-143835412D01*
X192995903Y-143775396D01*
X193280537Y-143676560D01*
X193549459Y-143540668D01*
X193797869Y-143370144D01*
X194021333Y-143168032D01*
X194215865Y-142937939D01*
X194377993Y-142683970D01*
X194504823Y-142410658D01*
X194594093Y-142122879D01*
X194644209Y-141825770D01*
X194654277Y-141524631D01*
X194624118Y-141224838D01*
X194554269Y-140931739D01*
X194445977Y-140650566D01*
X194301175Y-140386335D01*
X194122446Y-140143762D01*
X193912980Y-139927176D01*
X193789742Y-139829856D01*
X193676521Y-139740446D01*
X193676517Y-139740443D01*
X193676515Y-139740442D01*
X193417270Y-139586891D01*
X193139872Y-139469264D01*
X193139863Y-139469261D01*
X192849272Y-139389660D01*
X192774616Y-139379620D01*
X192550653Y-139349500D01*
X192324756Y-139349500D01*
X192324748Y-139349500D01*
X192099368Y-139364587D01*
X192099359Y-139364589D01*
X191804094Y-139424604D01*
X191519464Y-139523439D01*
X191519459Y-139523441D01*
X191250546Y-139659328D01*
X191002125Y-139829860D01*
X190778665Y-140031969D01*
X190584132Y-140262064D01*
X190422006Y-140516030D01*
X190422005Y-140516032D01*
X190295181Y-140789333D01*
X190295177Y-140789342D01*
X190295176Y-140789346D01*
X190205907Y-141077118D01*
X190155791Y-141374230D01*
X190145723Y-141675373D01*
X98015769Y-141675373D01*
X98094093Y-141422879D01*
X98144209Y-141125770D01*
X98154277Y-140824631D01*
X98124118Y-140524838D01*
X98054269Y-140231739D01*
X97945977Y-139950566D01*
X97801175Y-139686335D01*
X97622446Y-139443762D01*
X97412980Y-139227176D01*
X97289742Y-139129856D01*
X97176521Y-139040446D01*
X97176517Y-139040443D01*
X97176515Y-139040442D01*
X96917270Y-138886891D01*
X96639872Y-138769264D01*
X96639863Y-138769261D01*
X96349272Y-138689660D01*
X96274616Y-138679620D01*
X96050653Y-138649500D01*
X95824756Y-138649500D01*
X95824748Y-138649500D01*
X95599368Y-138664587D01*
X95599359Y-138664589D01*
X95304094Y-138724604D01*
X95019464Y-138823439D01*
X95019459Y-138823441D01*
X94750546Y-138959328D01*
X94502125Y-139129860D01*
X94278665Y-139331969D01*
X94084132Y-139562064D01*
X93922006Y-139816030D01*
X93922005Y-139816032D01*
X93795181Y-140089333D01*
X93795177Y-140089342D01*
X93795176Y-140089346D01*
X93705907Y-140377118D01*
X93680990Y-140524837D01*
X93655791Y-140674230D01*
X93647182Y-140931747D01*
X93645723Y-140975373D01*
X87450500Y-140975373D01*
X87450500Y-122781807D01*
X115744357Y-122781807D01*
X115764890Y-123029614D01*
X115764892Y-123029626D01*
X115825936Y-123270683D01*
X115925826Y-123498408D01*
X116061833Y-123706584D01*
X116061836Y-123706587D01*
X116230256Y-123889540D01*
X116426491Y-124042276D01*
X116645190Y-124160630D01*
X116880386Y-124241373D01*
X117125665Y-124282302D01*
X117374335Y-124282302D01*
X117619614Y-124241373D01*
X117854810Y-124160630D01*
X118073509Y-124042276D01*
X118269744Y-123889540D01*
X118438164Y-123706587D01*
X118574173Y-123498409D01*
X118674063Y-123270683D01*
X118735108Y-123029623D01*
X118755643Y-122781807D01*
X122244357Y-122781807D01*
X122264890Y-123029614D01*
X122264892Y-123029626D01*
X122325936Y-123270683D01*
X122425826Y-123498408D01*
X122561833Y-123706584D01*
X122561836Y-123706587D01*
X122730256Y-123889540D01*
X122926491Y-124042276D01*
X123145190Y-124160630D01*
X123380386Y-124241373D01*
X123625665Y-124282302D01*
X123874335Y-124282302D01*
X124119614Y-124241373D01*
X124354810Y-124160630D01*
X124573509Y-124042276D01*
X124769744Y-123889540D01*
X124938164Y-123706587D01*
X125074173Y-123498409D01*
X125174063Y-123270683D01*
X125235108Y-123029623D01*
X125255643Y-122781807D01*
X141269357Y-122781807D01*
X141289890Y-123029614D01*
X141289892Y-123029626D01*
X141350936Y-123270683D01*
X141450826Y-123498408D01*
X141586833Y-123706584D01*
X141586836Y-123706587D01*
X141755256Y-123889540D01*
X141951491Y-124042276D01*
X142170190Y-124160630D01*
X142405386Y-124241373D01*
X142650665Y-124282302D01*
X142899335Y-124282302D01*
X143144614Y-124241373D01*
X143379810Y-124160630D01*
X143598509Y-124042276D01*
X143794744Y-123889540D01*
X143963164Y-123706587D01*
X144099173Y-123498409D01*
X144199063Y-123270683D01*
X144260108Y-123029623D01*
X144280643Y-122781807D01*
X147769357Y-122781807D01*
X147789890Y-123029614D01*
X147789892Y-123029626D01*
X147850936Y-123270683D01*
X147950826Y-123498408D01*
X148086833Y-123706584D01*
X148086836Y-123706587D01*
X148255256Y-123889540D01*
X148451491Y-124042276D01*
X148670190Y-124160630D01*
X148905386Y-124241373D01*
X149150665Y-124282302D01*
X149399335Y-124282302D01*
X149644614Y-124241373D01*
X149879810Y-124160630D01*
X150098509Y-124042276D01*
X150294744Y-123889540D01*
X150463164Y-123706587D01*
X150599173Y-123498409D01*
X150699063Y-123270683D01*
X150760108Y-123029623D01*
X150780643Y-122781807D01*
X166794357Y-122781807D01*
X166814890Y-123029614D01*
X166814892Y-123029626D01*
X166875936Y-123270683D01*
X166975826Y-123498408D01*
X167111833Y-123706584D01*
X167111836Y-123706587D01*
X167280256Y-123889540D01*
X167476491Y-124042276D01*
X167695190Y-124160630D01*
X167930386Y-124241373D01*
X168175665Y-124282302D01*
X168424335Y-124282302D01*
X168669614Y-124241373D01*
X168904810Y-124160630D01*
X169123509Y-124042276D01*
X169319744Y-123889540D01*
X169488164Y-123706587D01*
X169624173Y-123498409D01*
X169724063Y-123270683D01*
X169785108Y-123029623D01*
X169805643Y-122781807D01*
X173294357Y-122781807D01*
X173314890Y-123029614D01*
X173314892Y-123029626D01*
X173375936Y-123270683D01*
X173475826Y-123498408D01*
X173611833Y-123706584D01*
X173611836Y-123706587D01*
X173780256Y-123889540D01*
X173976491Y-124042276D01*
X174195190Y-124160630D01*
X174430386Y-124241373D01*
X174675665Y-124282302D01*
X174924335Y-124282302D01*
X175169614Y-124241373D01*
X175404810Y-124160630D01*
X175623509Y-124042276D01*
X175819744Y-123889540D01*
X175988164Y-123706587D01*
X176124173Y-123498409D01*
X176224063Y-123270683D01*
X176285108Y-123029623D01*
X176305643Y-122781802D01*
X176285108Y-122533981D01*
X176224063Y-122292921D01*
X176124173Y-122065195D01*
X175988166Y-121857019D01*
X175966557Y-121833546D01*
X175819744Y-121674064D01*
X175623509Y-121521328D01*
X175623507Y-121521327D01*
X175623506Y-121521326D01*
X175404811Y-121402974D01*
X175404802Y-121402971D01*
X175169616Y-121322231D01*
X174924335Y-121281302D01*
X174675665Y-121281302D01*
X174430383Y-121322231D01*
X174195197Y-121402971D01*
X174195188Y-121402974D01*
X173976493Y-121521326D01*
X173780257Y-121674063D01*
X173611833Y-121857019D01*
X173475826Y-122065195D01*
X173375936Y-122292920D01*
X173314892Y-122533977D01*
X173314890Y-122533989D01*
X173294357Y-122781796D01*
X173294357Y-122781807D01*
X169805643Y-122781807D01*
X169805643Y-122781802D01*
X169785108Y-122533981D01*
X169724063Y-122292921D01*
X169624173Y-122065195D01*
X169488166Y-121857019D01*
X169466557Y-121833546D01*
X169319744Y-121674064D01*
X169123509Y-121521328D01*
X169123507Y-121521327D01*
X169123506Y-121521326D01*
X168904811Y-121402974D01*
X168904802Y-121402971D01*
X168669616Y-121322231D01*
X168424335Y-121281302D01*
X168175665Y-121281302D01*
X167930383Y-121322231D01*
X167695197Y-121402971D01*
X167695188Y-121402974D01*
X167476493Y-121521326D01*
X167280257Y-121674063D01*
X167111833Y-121857019D01*
X166975826Y-122065195D01*
X166875936Y-122292920D01*
X166814892Y-122533977D01*
X166814890Y-122533989D01*
X166794357Y-122781796D01*
X166794357Y-122781807D01*
X150780643Y-122781807D01*
X150780643Y-122781802D01*
X150760108Y-122533981D01*
X150699063Y-122292921D01*
X150599173Y-122065195D01*
X150463166Y-121857019D01*
X150441557Y-121833546D01*
X150294744Y-121674064D01*
X150098509Y-121521328D01*
X150098507Y-121521327D01*
X150098506Y-121521326D01*
X149879811Y-121402974D01*
X149879802Y-121402971D01*
X149644616Y-121322231D01*
X149399335Y-121281302D01*
X149150665Y-121281302D01*
X148905383Y-121322231D01*
X148670197Y-121402971D01*
X148670188Y-121402974D01*
X148451493Y-121521326D01*
X148255257Y-121674063D01*
X148086833Y-121857019D01*
X147950826Y-122065195D01*
X147850936Y-122292920D01*
X147789892Y-122533977D01*
X147789890Y-122533989D01*
X147769357Y-122781796D01*
X147769357Y-122781807D01*
X144280643Y-122781807D01*
X144280643Y-122781802D01*
X144260108Y-122533981D01*
X144199063Y-122292921D01*
X144099173Y-122065195D01*
X143963166Y-121857019D01*
X143941557Y-121833546D01*
X143794744Y-121674064D01*
X143598509Y-121521328D01*
X143598507Y-121521327D01*
X143598506Y-121521326D01*
X143379811Y-121402974D01*
X143379802Y-121402971D01*
X143144616Y-121322231D01*
X142899335Y-121281302D01*
X142650665Y-121281302D01*
X142405383Y-121322231D01*
X142170197Y-121402971D01*
X142170188Y-121402974D01*
X141951493Y-121521326D01*
X141755257Y-121674063D01*
X141586833Y-121857019D01*
X141450826Y-122065195D01*
X141350936Y-122292920D01*
X141289892Y-122533977D01*
X141289890Y-122533989D01*
X141269357Y-122781796D01*
X141269357Y-122781807D01*
X125255643Y-122781807D01*
X125255643Y-122781802D01*
X125235108Y-122533981D01*
X125174063Y-122292921D01*
X125074173Y-122065195D01*
X124938166Y-121857019D01*
X124916557Y-121833546D01*
X124769744Y-121674064D01*
X124573509Y-121521328D01*
X124573507Y-121521327D01*
X124573506Y-121521326D01*
X124354811Y-121402974D01*
X124354802Y-121402971D01*
X124119616Y-121322231D01*
X123874335Y-121281302D01*
X123625665Y-121281302D01*
X123380383Y-121322231D01*
X123145197Y-121402971D01*
X123145188Y-121402974D01*
X122926493Y-121521326D01*
X122730257Y-121674063D01*
X122561833Y-121857019D01*
X122425826Y-122065195D01*
X122325936Y-122292920D01*
X122264892Y-122533977D01*
X122264890Y-122533989D01*
X122244357Y-122781796D01*
X122244357Y-122781807D01*
X118755643Y-122781807D01*
X118755643Y-122781802D01*
X118735108Y-122533981D01*
X118674063Y-122292921D01*
X118574173Y-122065195D01*
X118438166Y-121857019D01*
X118416557Y-121833546D01*
X118269744Y-121674064D01*
X118073509Y-121521328D01*
X118073507Y-121521327D01*
X118073506Y-121521326D01*
X117854811Y-121402974D01*
X117854802Y-121402971D01*
X117619616Y-121322231D01*
X117374335Y-121281302D01*
X117125665Y-121281302D01*
X116880383Y-121322231D01*
X116645197Y-121402971D01*
X116645188Y-121402974D01*
X116426493Y-121521326D01*
X116230257Y-121674063D01*
X116061833Y-121857019D01*
X115925826Y-122065195D01*
X115825936Y-122292920D01*
X115764892Y-122533977D01*
X115764890Y-122533989D01*
X115744357Y-122781796D01*
X115744357Y-122781807D01*
X87450500Y-122781807D01*
X87450500Y-118281807D01*
X115744357Y-118281807D01*
X115764890Y-118529614D01*
X115764892Y-118529626D01*
X115825936Y-118770683D01*
X115925826Y-118998408D01*
X116061833Y-119206584D01*
X116061836Y-119206587D01*
X116230256Y-119389540D01*
X116426491Y-119542276D01*
X116645190Y-119660630D01*
X116880386Y-119741373D01*
X117125665Y-119782302D01*
X117374335Y-119782302D01*
X117619614Y-119741373D01*
X117854810Y-119660630D01*
X118073509Y-119542276D01*
X118269744Y-119389540D01*
X118438164Y-119206587D01*
X118574173Y-118998409D01*
X118674063Y-118770683D01*
X118735108Y-118529623D01*
X118755643Y-118281807D01*
X122244357Y-118281807D01*
X122264890Y-118529614D01*
X122264892Y-118529626D01*
X122325936Y-118770683D01*
X122425826Y-118998408D01*
X122561833Y-119206584D01*
X122561836Y-119206587D01*
X122730256Y-119389540D01*
X122926491Y-119542276D01*
X123145190Y-119660630D01*
X123380386Y-119741373D01*
X123625665Y-119782302D01*
X123874335Y-119782302D01*
X124119614Y-119741373D01*
X124354810Y-119660630D01*
X124573509Y-119542276D01*
X124769744Y-119389540D01*
X124938164Y-119206587D01*
X125074173Y-118998409D01*
X125174063Y-118770683D01*
X125235108Y-118529623D01*
X125255643Y-118281807D01*
X141269357Y-118281807D01*
X141289890Y-118529614D01*
X141289892Y-118529626D01*
X141350936Y-118770683D01*
X141450826Y-118998408D01*
X141586833Y-119206584D01*
X141586836Y-119206587D01*
X141755256Y-119389540D01*
X141951491Y-119542276D01*
X142170190Y-119660630D01*
X142405386Y-119741373D01*
X142650665Y-119782302D01*
X142899335Y-119782302D01*
X143144614Y-119741373D01*
X143379810Y-119660630D01*
X143598509Y-119542276D01*
X143794744Y-119389540D01*
X143963164Y-119206587D01*
X144099173Y-118998409D01*
X144199063Y-118770683D01*
X144260108Y-118529623D01*
X144280643Y-118281807D01*
X147769357Y-118281807D01*
X147789890Y-118529614D01*
X147789892Y-118529626D01*
X147850936Y-118770683D01*
X147950826Y-118998408D01*
X148086833Y-119206584D01*
X148086836Y-119206587D01*
X148255256Y-119389540D01*
X148451491Y-119542276D01*
X148670190Y-119660630D01*
X148905386Y-119741373D01*
X149150665Y-119782302D01*
X149399335Y-119782302D01*
X149644614Y-119741373D01*
X149879810Y-119660630D01*
X150098509Y-119542276D01*
X150294744Y-119389540D01*
X150463164Y-119206587D01*
X150599173Y-118998409D01*
X150699063Y-118770683D01*
X150760108Y-118529623D01*
X150780643Y-118281807D01*
X166794357Y-118281807D01*
X166814890Y-118529614D01*
X166814892Y-118529626D01*
X166875936Y-118770683D01*
X166975826Y-118998408D01*
X167111833Y-119206584D01*
X167111836Y-119206587D01*
X167280256Y-119389540D01*
X167476491Y-119542276D01*
X167695190Y-119660630D01*
X167930386Y-119741373D01*
X168175665Y-119782302D01*
X168424335Y-119782302D01*
X168669614Y-119741373D01*
X168904810Y-119660630D01*
X169123509Y-119542276D01*
X169319744Y-119389540D01*
X169488164Y-119206587D01*
X169624173Y-118998409D01*
X169724063Y-118770683D01*
X169785108Y-118529623D01*
X169805643Y-118281807D01*
X173294357Y-118281807D01*
X173314890Y-118529614D01*
X173314892Y-118529626D01*
X173375936Y-118770683D01*
X173475826Y-118998408D01*
X173611833Y-119206584D01*
X173611836Y-119206587D01*
X173780256Y-119389540D01*
X173976491Y-119542276D01*
X174195190Y-119660630D01*
X174430386Y-119741373D01*
X174675665Y-119782302D01*
X174924335Y-119782302D01*
X175169614Y-119741373D01*
X175404810Y-119660630D01*
X175623509Y-119542276D01*
X175819744Y-119389540D01*
X175988164Y-119206587D01*
X176124173Y-118998409D01*
X176224063Y-118770683D01*
X176285108Y-118529623D01*
X176305643Y-118281802D01*
X176285108Y-118033981D01*
X176224063Y-117792921D01*
X176124173Y-117565195D01*
X175988166Y-117357019D01*
X175966557Y-117333546D01*
X175819744Y-117174064D01*
X175623509Y-117021328D01*
X175623507Y-117021327D01*
X175623506Y-117021326D01*
X175404811Y-116902974D01*
X175404802Y-116902971D01*
X175169616Y-116822231D01*
X174924335Y-116781302D01*
X174675665Y-116781302D01*
X174430383Y-116822231D01*
X174195197Y-116902971D01*
X174195188Y-116902974D01*
X173976493Y-117021326D01*
X173780257Y-117174063D01*
X173611833Y-117357019D01*
X173475826Y-117565195D01*
X173375936Y-117792920D01*
X173314892Y-118033977D01*
X173314890Y-118033989D01*
X173294357Y-118281796D01*
X173294357Y-118281807D01*
X169805643Y-118281807D01*
X169805643Y-118281802D01*
X169785108Y-118033981D01*
X169724063Y-117792921D01*
X169624173Y-117565195D01*
X169488166Y-117357019D01*
X169466557Y-117333546D01*
X169319744Y-117174064D01*
X169123509Y-117021328D01*
X169123507Y-117021327D01*
X169123506Y-117021326D01*
X168904811Y-116902974D01*
X168904802Y-116902971D01*
X168669616Y-116822231D01*
X168424335Y-116781302D01*
X168175665Y-116781302D01*
X167930383Y-116822231D01*
X167695197Y-116902971D01*
X167695188Y-116902974D01*
X167476493Y-117021326D01*
X167280257Y-117174063D01*
X167111833Y-117357019D01*
X166975826Y-117565195D01*
X166875936Y-117792920D01*
X166814892Y-118033977D01*
X166814890Y-118033989D01*
X166794357Y-118281796D01*
X166794357Y-118281807D01*
X150780643Y-118281807D01*
X150780643Y-118281802D01*
X150760108Y-118033981D01*
X150699063Y-117792921D01*
X150599173Y-117565195D01*
X150463166Y-117357019D01*
X150441557Y-117333546D01*
X150294744Y-117174064D01*
X150098509Y-117021328D01*
X150098507Y-117021327D01*
X150098506Y-117021326D01*
X149879811Y-116902974D01*
X149879802Y-116902971D01*
X149644616Y-116822231D01*
X149399335Y-116781302D01*
X149150665Y-116781302D01*
X148905383Y-116822231D01*
X148670197Y-116902971D01*
X148670188Y-116902974D01*
X148451493Y-117021326D01*
X148255257Y-117174063D01*
X148086833Y-117357019D01*
X147950826Y-117565195D01*
X147850936Y-117792920D01*
X147789892Y-118033977D01*
X147789890Y-118033989D01*
X147769357Y-118281796D01*
X147769357Y-118281807D01*
X144280643Y-118281807D01*
X144280643Y-118281802D01*
X144260108Y-118033981D01*
X144199063Y-117792921D01*
X144099173Y-117565195D01*
X143963166Y-117357019D01*
X143941557Y-117333546D01*
X143794744Y-117174064D01*
X143598509Y-117021328D01*
X143598507Y-117021327D01*
X143598506Y-117021326D01*
X143379811Y-116902974D01*
X143379802Y-116902971D01*
X143144616Y-116822231D01*
X142899335Y-116781302D01*
X142650665Y-116781302D01*
X142405383Y-116822231D01*
X142170197Y-116902971D01*
X142170188Y-116902974D01*
X141951493Y-117021326D01*
X141755257Y-117174063D01*
X141586833Y-117357019D01*
X141450826Y-117565195D01*
X141350936Y-117792920D01*
X141289892Y-118033977D01*
X141289890Y-118033989D01*
X141269357Y-118281796D01*
X141269357Y-118281807D01*
X125255643Y-118281807D01*
X125255643Y-118281802D01*
X125235108Y-118033981D01*
X125174063Y-117792921D01*
X125074173Y-117565195D01*
X124938166Y-117357019D01*
X124916557Y-117333546D01*
X124769744Y-117174064D01*
X124573509Y-117021328D01*
X124573507Y-117021327D01*
X124573506Y-117021326D01*
X124354811Y-116902974D01*
X124354802Y-116902971D01*
X124119616Y-116822231D01*
X123874335Y-116781302D01*
X123625665Y-116781302D01*
X123380383Y-116822231D01*
X123145197Y-116902971D01*
X123145188Y-116902974D01*
X122926493Y-117021326D01*
X122730257Y-117174063D01*
X122561833Y-117357019D01*
X122425826Y-117565195D01*
X122325936Y-117792920D01*
X122264892Y-118033977D01*
X122264890Y-118033989D01*
X122244357Y-118281796D01*
X122244357Y-118281807D01*
X118755643Y-118281807D01*
X118755643Y-118281802D01*
X118735108Y-118033981D01*
X118674063Y-117792921D01*
X118574173Y-117565195D01*
X118438166Y-117357019D01*
X118416557Y-117333546D01*
X118269744Y-117174064D01*
X118073509Y-117021328D01*
X118073507Y-117021327D01*
X118073506Y-117021326D01*
X117854811Y-116902974D01*
X117854802Y-116902971D01*
X117619616Y-116822231D01*
X117374335Y-116781302D01*
X117125665Y-116781302D01*
X116880383Y-116822231D01*
X116645197Y-116902971D01*
X116645188Y-116902974D01*
X116426493Y-117021326D01*
X116230257Y-117174063D01*
X116061833Y-117357019D01*
X115925826Y-117565195D01*
X115825936Y-117792920D01*
X115764892Y-118033977D01*
X115764890Y-118033989D01*
X115744357Y-118281796D01*
X115744357Y-118281807D01*
X87450500Y-118281807D01*
X87450500Y-53475373D01*
X92745723Y-53475373D01*
X92775881Y-53775160D01*
X92775882Y-53775162D01*
X92845728Y-54068252D01*
X92845733Y-54068266D01*
X92954020Y-54349427D01*
X92954024Y-54349436D01*
X93098825Y-54613665D01*
X93098829Y-54613671D01*
X93216984Y-54774032D01*
X93277554Y-54856238D01*
X93294638Y-54873903D01*
X93487019Y-55072823D01*
X93723478Y-55259553D01*
X93723480Y-55259554D01*
X93723485Y-55259558D01*
X93982730Y-55413109D01*
X94260128Y-55530736D01*
X94550729Y-55610340D01*
X94849347Y-55650500D01*
X94849351Y-55650500D01*
X95075252Y-55650500D01*
X95239164Y-55639526D01*
X95300634Y-55635412D01*
X95595903Y-55575396D01*
X95880537Y-55476560D01*
X96149459Y-55340668D01*
X96397869Y-55170144D01*
X96621333Y-54968032D01*
X96815865Y-54737939D01*
X96969136Y-54497844D01*
X106450000Y-54497844D01*
X106456401Y-54557372D01*
X106456403Y-54557379D01*
X106506645Y-54692086D01*
X106506649Y-54692093D01*
X106592809Y-54807187D01*
X106592812Y-54807190D01*
X106707906Y-54893350D01*
X106707913Y-54893354D01*
X106842620Y-54943596D01*
X106842627Y-54943598D01*
X106902155Y-54949999D01*
X106902172Y-54950000D01*
X107550000Y-54950000D01*
X107550000Y-54035501D01*
X107657685Y-54084680D01*
X107764237Y-54100000D01*
X107835763Y-54100000D01*
X107942315Y-54084680D01*
X108050000Y-54035501D01*
X108050000Y-54950000D01*
X108697828Y-54950000D01*
X108697844Y-54949999D01*
X108757372Y-54943598D01*
X108757379Y-54943596D01*
X108892086Y-54893354D01*
X108892093Y-54893350D01*
X109007187Y-54807190D01*
X109007190Y-54807187D01*
X109093350Y-54692093D01*
X109093354Y-54692086D01*
X109142422Y-54560529D01*
X109184293Y-54504595D01*
X109249757Y-54480178D01*
X109318030Y-54495030D01*
X109346285Y-54516181D01*
X109468599Y-54638495D01*
X109545135Y-54692086D01*
X109662165Y-54774032D01*
X109662167Y-54774033D01*
X109662170Y-54774035D01*
X109876337Y-54873903D01*
X110104592Y-54935063D01*
X110275319Y-54950000D01*
X110339999Y-54955659D01*
X110340000Y-54955659D01*
X110340001Y-54955659D01*
X110404681Y-54950000D01*
X110575408Y-54935063D01*
X110803663Y-54873903D01*
X111017830Y-54774035D01*
X111211401Y-54638495D01*
X111378495Y-54471401D01*
X111508425Y-54285842D01*
X111563002Y-54242217D01*
X111632500Y-54235023D01*
X111694855Y-54266546D01*
X111711575Y-54285842D01*
X111841500Y-54471395D01*
X111841505Y-54471401D01*
X112008599Y-54638495D01*
X112085135Y-54692086D01*
X112202165Y-54774032D01*
X112202167Y-54774033D01*
X112202170Y-54774035D01*
X112416337Y-54873903D01*
X112644592Y-54935063D01*
X112815319Y-54950000D01*
X112879999Y-54955659D01*
X112880000Y-54955659D01*
X112880001Y-54955659D01*
X112944681Y-54950000D01*
X113115408Y-54935063D01*
X113343663Y-54873903D01*
X113557830Y-54774035D01*
X113751401Y-54638495D01*
X113918495Y-54471401D01*
X114048425Y-54285842D01*
X114103002Y-54242217D01*
X114172500Y-54235023D01*
X114234855Y-54266546D01*
X114251575Y-54285842D01*
X114381500Y-54471395D01*
X114381505Y-54471401D01*
X114548599Y-54638495D01*
X114625135Y-54692086D01*
X114742165Y-54774032D01*
X114742167Y-54774033D01*
X114742170Y-54774035D01*
X114956337Y-54873903D01*
X115184592Y-54935063D01*
X115355319Y-54950000D01*
X115419999Y-54955659D01*
X115420000Y-54955659D01*
X115420001Y-54955659D01*
X115484681Y-54950000D01*
X115655408Y-54935063D01*
X115883663Y-54873903D01*
X116097830Y-54774035D01*
X116291401Y-54638495D01*
X116458495Y-54471401D01*
X116588425Y-54285842D01*
X116643002Y-54242217D01*
X116712500Y-54235023D01*
X116774855Y-54266546D01*
X116791575Y-54285842D01*
X116921500Y-54471395D01*
X116921505Y-54471401D01*
X117088599Y-54638495D01*
X117165135Y-54692086D01*
X117282165Y-54774032D01*
X117282167Y-54774033D01*
X117282170Y-54774035D01*
X117496337Y-54873903D01*
X117724592Y-54935063D01*
X117895319Y-54950000D01*
X117959999Y-54955659D01*
X117960000Y-54955659D01*
X117960001Y-54955659D01*
X118024681Y-54950000D01*
X118195408Y-54935063D01*
X118423663Y-54873903D01*
X118637830Y-54774035D01*
X118831401Y-54638495D01*
X118998495Y-54471401D01*
X119128425Y-54285842D01*
X119183002Y-54242217D01*
X119252500Y-54235023D01*
X119314855Y-54266546D01*
X119331575Y-54285842D01*
X119461500Y-54471395D01*
X119461505Y-54471401D01*
X119628599Y-54638495D01*
X119705135Y-54692086D01*
X119822165Y-54774032D01*
X119822167Y-54774033D01*
X119822170Y-54774035D01*
X120036337Y-54873903D01*
X120264592Y-54935063D01*
X120435319Y-54950000D01*
X120499999Y-54955659D01*
X120500000Y-54955659D01*
X120500001Y-54955659D01*
X120564681Y-54950000D01*
X120735408Y-54935063D01*
X120963663Y-54873903D01*
X121177830Y-54774035D01*
X121371401Y-54638495D01*
X121538495Y-54471401D01*
X121668425Y-54285842D01*
X121723002Y-54242217D01*
X121792500Y-54235023D01*
X121854855Y-54266546D01*
X121871575Y-54285842D01*
X122001500Y-54471395D01*
X122001505Y-54471401D01*
X122168599Y-54638495D01*
X122245135Y-54692086D01*
X122362165Y-54774032D01*
X122362167Y-54774033D01*
X122362170Y-54774035D01*
X122576337Y-54873903D01*
X122804592Y-54935063D01*
X122975319Y-54950000D01*
X123039999Y-54955659D01*
X123040000Y-54955659D01*
X123040001Y-54955659D01*
X123104681Y-54950000D01*
X123275408Y-54935063D01*
X123503663Y-54873903D01*
X123717830Y-54774035D01*
X123911401Y-54638495D01*
X124078495Y-54471401D01*
X124208425Y-54285842D01*
X124263002Y-54242217D01*
X124332500Y-54235023D01*
X124394855Y-54266546D01*
X124411575Y-54285842D01*
X124541500Y-54471395D01*
X124541505Y-54471401D01*
X124708599Y-54638495D01*
X124785135Y-54692086D01*
X124902165Y-54774032D01*
X124902167Y-54774033D01*
X124902170Y-54774035D01*
X125116337Y-54873903D01*
X125344592Y-54935063D01*
X125515319Y-54950000D01*
X125579999Y-54955659D01*
X125580000Y-54955659D01*
X125580001Y-54955659D01*
X125644681Y-54950000D01*
X125815408Y-54935063D01*
X126043663Y-54873903D01*
X126257830Y-54774035D01*
X126451401Y-54638495D01*
X126618495Y-54471401D01*
X126748425Y-54285842D01*
X126803002Y-54242217D01*
X126872500Y-54235023D01*
X126934855Y-54266546D01*
X126951575Y-54285842D01*
X127081500Y-54471395D01*
X127081505Y-54471401D01*
X127248599Y-54638495D01*
X127325135Y-54692086D01*
X127442165Y-54774032D01*
X127442167Y-54774033D01*
X127442170Y-54774035D01*
X127656337Y-54873903D01*
X127884592Y-54935063D01*
X128055319Y-54950000D01*
X128119999Y-54955659D01*
X128120000Y-54955659D01*
X128120001Y-54955659D01*
X128184681Y-54950000D01*
X128355408Y-54935063D01*
X128583663Y-54873903D01*
X128797830Y-54774035D01*
X128991401Y-54638495D01*
X129158495Y-54471401D01*
X129288425Y-54285842D01*
X129343002Y-54242217D01*
X129412500Y-54235023D01*
X129474855Y-54266546D01*
X129491575Y-54285842D01*
X129621500Y-54471395D01*
X129621505Y-54471401D01*
X129788599Y-54638495D01*
X129865135Y-54692086D01*
X129982165Y-54774032D01*
X129982167Y-54774033D01*
X129982170Y-54774035D01*
X130196337Y-54873903D01*
X130424592Y-54935063D01*
X130595319Y-54950000D01*
X130659999Y-54955659D01*
X130660000Y-54955659D01*
X130660001Y-54955659D01*
X130724681Y-54950000D01*
X130895408Y-54935063D01*
X131123663Y-54873903D01*
X131337830Y-54774035D01*
X131531401Y-54638495D01*
X131698495Y-54471401D01*
X131828425Y-54285842D01*
X131883002Y-54242217D01*
X131952500Y-54235023D01*
X132014855Y-54266546D01*
X132031575Y-54285842D01*
X132161500Y-54471395D01*
X132161505Y-54471401D01*
X132328599Y-54638495D01*
X132405135Y-54692086D01*
X132522165Y-54774032D01*
X132522167Y-54774033D01*
X132522170Y-54774035D01*
X132736337Y-54873903D01*
X132964592Y-54935063D01*
X133135319Y-54950000D01*
X133199999Y-54955659D01*
X133200000Y-54955659D01*
X133200001Y-54955659D01*
X133264681Y-54950000D01*
X133435408Y-54935063D01*
X133663663Y-54873903D01*
X133877830Y-54774035D01*
X134071401Y-54638495D01*
X134238495Y-54471401D01*
X134368425Y-54285842D01*
X134423002Y-54242217D01*
X134492500Y-54235023D01*
X134554855Y-54266546D01*
X134571575Y-54285842D01*
X134701500Y-54471395D01*
X134701505Y-54471401D01*
X134868599Y-54638495D01*
X134945135Y-54692086D01*
X135062165Y-54774032D01*
X135062167Y-54774033D01*
X135062170Y-54774035D01*
X135276337Y-54873903D01*
X135504592Y-54935063D01*
X135675319Y-54950000D01*
X135739999Y-54955659D01*
X135740000Y-54955659D01*
X135740001Y-54955659D01*
X135804681Y-54950000D01*
X135975408Y-54935063D01*
X136203663Y-54873903D01*
X136417830Y-54774035D01*
X136611401Y-54638495D01*
X136778495Y-54471401D01*
X136908425Y-54285842D01*
X136963002Y-54242217D01*
X137032500Y-54235023D01*
X137094855Y-54266546D01*
X137111575Y-54285842D01*
X137241500Y-54471395D01*
X137241505Y-54471401D01*
X137408599Y-54638495D01*
X137485135Y-54692086D01*
X137602165Y-54774032D01*
X137602167Y-54774033D01*
X137602170Y-54774035D01*
X137816337Y-54873903D01*
X138044592Y-54935063D01*
X138215319Y-54950000D01*
X138279999Y-54955659D01*
X138280000Y-54955659D01*
X138280001Y-54955659D01*
X138344681Y-54950000D01*
X138515408Y-54935063D01*
X138743663Y-54873903D01*
X138957830Y-54774035D01*
X139151401Y-54638495D01*
X139318495Y-54471401D01*
X139448425Y-54285842D01*
X139503002Y-54242217D01*
X139572500Y-54235023D01*
X139634855Y-54266546D01*
X139651575Y-54285842D01*
X139781500Y-54471395D01*
X139781505Y-54471401D01*
X139948599Y-54638495D01*
X140025135Y-54692086D01*
X140142165Y-54774032D01*
X140142167Y-54774033D01*
X140142170Y-54774035D01*
X140356337Y-54873903D01*
X140584592Y-54935063D01*
X140755319Y-54950000D01*
X140819999Y-54955659D01*
X140820000Y-54955659D01*
X140820001Y-54955659D01*
X140884681Y-54950000D01*
X141055408Y-54935063D01*
X141283663Y-54873903D01*
X141497830Y-54774035D01*
X141691401Y-54638495D01*
X141858495Y-54471401D01*
X141988425Y-54285842D01*
X142043002Y-54242217D01*
X142112500Y-54235023D01*
X142174855Y-54266546D01*
X142191575Y-54285842D01*
X142321500Y-54471395D01*
X142321505Y-54471401D01*
X142488599Y-54638495D01*
X142565135Y-54692086D01*
X142682165Y-54774032D01*
X142682167Y-54774033D01*
X142682170Y-54774035D01*
X142896337Y-54873903D01*
X143124592Y-54935063D01*
X143295319Y-54950000D01*
X143359999Y-54955659D01*
X143360000Y-54955659D01*
X143360001Y-54955659D01*
X143424681Y-54950000D01*
X143595408Y-54935063D01*
X143823663Y-54873903D01*
X144037830Y-54774035D01*
X144231401Y-54638495D01*
X144398495Y-54471401D01*
X144528425Y-54285842D01*
X144583002Y-54242217D01*
X144652500Y-54235023D01*
X144714855Y-54266546D01*
X144731575Y-54285842D01*
X144861500Y-54471395D01*
X144861505Y-54471401D01*
X145028599Y-54638495D01*
X145105135Y-54692086D01*
X145222165Y-54774032D01*
X145222167Y-54774033D01*
X145222170Y-54774035D01*
X145436337Y-54873903D01*
X145664592Y-54935063D01*
X145835319Y-54950000D01*
X145899999Y-54955659D01*
X145900000Y-54955659D01*
X145900001Y-54955659D01*
X145964681Y-54950000D01*
X146135408Y-54935063D01*
X146363663Y-54873903D01*
X146577830Y-54774035D01*
X146771401Y-54638495D01*
X146938495Y-54471401D01*
X147074035Y-54277830D01*
X147173903Y-54063663D01*
X147235063Y-53835408D01*
X147255659Y-53600000D01*
X147235063Y-53364592D01*
X147177412Y-53149434D01*
X147173905Y-53136344D01*
X147173904Y-53136343D01*
X147173903Y-53136337D01*
X147074035Y-52922171D01*
X147068425Y-52914158D01*
X146938494Y-52728597D01*
X146771402Y-52561506D01*
X146771395Y-52561501D01*
X146577834Y-52425967D01*
X146577830Y-52425965D01*
X146506727Y-52392809D01*
X146363663Y-52326097D01*
X146363659Y-52326096D01*
X146363655Y-52326094D01*
X146174358Y-52275373D01*
X190245723Y-52275373D01*
X190275881Y-52575160D01*
X190275882Y-52575162D01*
X190345728Y-52868252D01*
X190345733Y-52868266D01*
X190454020Y-53149427D01*
X190454024Y-53149436D01*
X190598825Y-53413665D01*
X190598829Y-53413671D01*
X190755104Y-53625769D01*
X190777554Y-53656238D01*
X190885671Y-53768030D01*
X190987019Y-53872823D01*
X191223478Y-54059553D01*
X191223480Y-54059554D01*
X191223485Y-54059558D01*
X191482730Y-54213109D01*
X191760128Y-54330736D01*
X192050729Y-54410340D01*
X192349347Y-54450500D01*
X192349351Y-54450500D01*
X192575252Y-54450500D01*
X192739164Y-54439526D01*
X192800634Y-54435412D01*
X193095903Y-54375396D01*
X193380537Y-54276560D01*
X193649459Y-54140668D01*
X193897869Y-53970144D01*
X194121333Y-53768032D01*
X194315865Y-53537939D01*
X194477993Y-53283970D01*
X194604823Y-53010658D01*
X194694093Y-52722879D01*
X194744209Y-52425770D01*
X194754277Y-52124631D01*
X194724118Y-51824838D01*
X194654269Y-51531739D01*
X194545977Y-51250566D01*
X194401175Y-50986335D01*
X194222446Y-50743762D01*
X194012980Y-50527176D01*
X193889742Y-50429856D01*
X193776521Y-50340446D01*
X193776517Y-50340443D01*
X193776515Y-50340442D01*
X193517270Y-50186891D01*
X193239872Y-50069264D01*
X193239863Y-50069261D01*
X192949272Y-49989660D01*
X192874616Y-49979620D01*
X192650653Y-49949500D01*
X192424756Y-49949500D01*
X192424748Y-49949500D01*
X192199368Y-49964587D01*
X192199359Y-49964589D01*
X191904094Y-50024604D01*
X191619464Y-50123439D01*
X191619459Y-50123441D01*
X191350546Y-50259328D01*
X191102125Y-50429860D01*
X190878665Y-50631969D01*
X190684132Y-50862064D01*
X190522006Y-51116030D01*
X190522005Y-51116032D01*
X190425758Y-51323441D01*
X190395177Y-51389342D01*
X190395176Y-51389346D01*
X190305907Y-51677118D01*
X190255791Y-51974230D01*
X190245723Y-52275373D01*
X146174358Y-52275373D01*
X146135413Y-52264938D01*
X146135403Y-52264936D01*
X145900001Y-52244341D01*
X145899999Y-52244341D01*
X145664596Y-52264936D01*
X145664586Y-52264938D01*
X145436344Y-52326094D01*
X145436335Y-52326098D01*
X145222171Y-52425964D01*
X145222169Y-52425965D01*
X145028597Y-52561505D01*
X144861505Y-52728597D01*
X144731575Y-52914158D01*
X144676998Y-52957783D01*
X144607500Y-52964977D01*
X144545145Y-52933454D01*
X144528425Y-52914158D01*
X144398494Y-52728597D01*
X144231402Y-52561506D01*
X144231395Y-52561501D01*
X144037834Y-52425967D01*
X144037830Y-52425965D01*
X143966727Y-52392809D01*
X143823663Y-52326097D01*
X143823659Y-52326096D01*
X143823655Y-52326094D01*
X143595413Y-52264938D01*
X143595403Y-52264936D01*
X143360001Y-52244341D01*
X143359999Y-52244341D01*
X143124596Y-52264936D01*
X143124586Y-52264938D01*
X142896344Y-52326094D01*
X142896335Y-52326098D01*
X142682171Y-52425964D01*
X142682169Y-52425965D01*
X142488597Y-52561505D01*
X142321505Y-52728597D01*
X142191575Y-52914158D01*
X142136998Y-52957783D01*
X142067500Y-52964977D01*
X142005145Y-52933454D01*
X141988425Y-52914158D01*
X141858494Y-52728597D01*
X141691402Y-52561506D01*
X141691395Y-52561501D01*
X141497834Y-52425967D01*
X141497830Y-52425965D01*
X141426727Y-52392809D01*
X141283663Y-52326097D01*
X141283659Y-52326096D01*
X141283655Y-52326094D01*
X141055413Y-52264938D01*
X141055403Y-52264936D01*
X140820001Y-52244341D01*
X140819999Y-52244341D01*
X140584596Y-52264936D01*
X140584586Y-52264938D01*
X140356344Y-52326094D01*
X140356335Y-52326098D01*
X140142171Y-52425964D01*
X140142169Y-52425965D01*
X139948597Y-52561505D01*
X139781505Y-52728597D01*
X139651575Y-52914158D01*
X139596998Y-52957783D01*
X139527500Y-52964977D01*
X139465145Y-52933454D01*
X139448425Y-52914158D01*
X139318494Y-52728597D01*
X139151402Y-52561506D01*
X139151395Y-52561501D01*
X138957834Y-52425967D01*
X138957830Y-52425965D01*
X138886727Y-52392809D01*
X138743663Y-52326097D01*
X138743659Y-52326096D01*
X138743655Y-52326094D01*
X138515413Y-52264938D01*
X138515403Y-52264936D01*
X138280001Y-52244341D01*
X138279999Y-52244341D01*
X138044596Y-52264936D01*
X138044586Y-52264938D01*
X137816344Y-52326094D01*
X137816335Y-52326098D01*
X137602171Y-52425964D01*
X137602169Y-52425965D01*
X137408597Y-52561505D01*
X137241505Y-52728597D01*
X137111575Y-52914158D01*
X137056998Y-52957783D01*
X136987500Y-52964977D01*
X136925145Y-52933454D01*
X136908425Y-52914158D01*
X136778494Y-52728597D01*
X136611402Y-52561506D01*
X136611395Y-52561501D01*
X136417834Y-52425967D01*
X136417830Y-52425965D01*
X136346727Y-52392809D01*
X136203663Y-52326097D01*
X136203659Y-52326096D01*
X136203655Y-52326094D01*
X135975413Y-52264938D01*
X135975403Y-52264936D01*
X135740001Y-52244341D01*
X135739999Y-52244341D01*
X135504596Y-52264936D01*
X135504586Y-52264938D01*
X135276344Y-52326094D01*
X135276335Y-52326098D01*
X135062171Y-52425964D01*
X135062169Y-52425965D01*
X134868597Y-52561505D01*
X134701505Y-52728597D01*
X134571575Y-52914158D01*
X134516998Y-52957783D01*
X134447500Y-52964977D01*
X134385145Y-52933454D01*
X134368425Y-52914158D01*
X134238494Y-52728597D01*
X134071402Y-52561506D01*
X134071395Y-52561501D01*
X133877834Y-52425967D01*
X133877830Y-52425965D01*
X133806727Y-52392809D01*
X133663663Y-52326097D01*
X133663659Y-52326096D01*
X133663655Y-52326094D01*
X133435413Y-52264938D01*
X133435403Y-52264936D01*
X133200001Y-52244341D01*
X133199999Y-52244341D01*
X132964596Y-52264936D01*
X132964586Y-52264938D01*
X132736344Y-52326094D01*
X132736335Y-52326098D01*
X132522171Y-52425964D01*
X132522169Y-52425965D01*
X132328597Y-52561505D01*
X132161505Y-52728597D01*
X132031575Y-52914158D01*
X131976998Y-52957783D01*
X131907500Y-52964977D01*
X131845145Y-52933454D01*
X131828425Y-52914158D01*
X131698494Y-52728597D01*
X131531402Y-52561506D01*
X131531395Y-52561501D01*
X131337834Y-52425967D01*
X131337830Y-52425965D01*
X131266727Y-52392809D01*
X131123663Y-52326097D01*
X131123659Y-52326096D01*
X131123655Y-52326094D01*
X130895413Y-52264938D01*
X130895403Y-52264936D01*
X130660001Y-52244341D01*
X130659999Y-52244341D01*
X130424596Y-52264936D01*
X130424586Y-52264938D01*
X130196344Y-52326094D01*
X130196335Y-52326098D01*
X129982171Y-52425964D01*
X129982169Y-52425965D01*
X129788597Y-52561505D01*
X129621505Y-52728597D01*
X129491575Y-52914158D01*
X129436998Y-52957783D01*
X129367500Y-52964977D01*
X129305145Y-52933454D01*
X129288425Y-52914158D01*
X129158494Y-52728597D01*
X128991402Y-52561506D01*
X128991395Y-52561501D01*
X128797834Y-52425967D01*
X128797830Y-52425965D01*
X128726727Y-52392809D01*
X128583663Y-52326097D01*
X128583659Y-52326096D01*
X128583655Y-52326094D01*
X128355413Y-52264938D01*
X128355403Y-52264936D01*
X128120001Y-52244341D01*
X128119999Y-52244341D01*
X127884596Y-52264936D01*
X127884586Y-52264938D01*
X127656344Y-52326094D01*
X127656335Y-52326098D01*
X127442171Y-52425964D01*
X127442169Y-52425965D01*
X127248597Y-52561505D01*
X127081505Y-52728597D01*
X126951575Y-52914158D01*
X126896998Y-52957783D01*
X126827500Y-52964977D01*
X126765145Y-52933454D01*
X126748425Y-52914158D01*
X126618494Y-52728597D01*
X126451402Y-52561506D01*
X126451395Y-52561501D01*
X126257834Y-52425967D01*
X126257830Y-52425965D01*
X126186727Y-52392809D01*
X126043663Y-52326097D01*
X126043659Y-52326096D01*
X126043655Y-52326094D01*
X125815413Y-52264938D01*
X125815403Y-52264936D01*
X125580001Y-52244341D01*
X125579999Y-52244341D01*
X125344596Y-52264936D01*
X125344586Y-52264938D01*
X125116344Y-52326094D01*
X125116335Y-52326098D01*
X124902171Y-52425964D01*
X124902169Y-52425965D01*
X124708597Y-52561505D01*
X124541505Y-52728597D01*
X124411575Y-52914158D01*
X124356998Y-52957783D01*
X124287500Y-52964977D01*
X124225145Y-52933454D01*
X124208425Y-52914158D01*
X124078494Y-52728597D01*
X123911402Y-52561506D01*
X123911395Y-52561501D01*
X123717834Y-52425967D01*
X123717830Y-52425965D01*
X123646727Y-52392809D01*
X123503663Y-52326097D01*
X123503659Y-52326096D01*
X123503655Y-52326094D01*
X123275413Y-52264938D01*
X123275403Y-52264936D01*
X123040001Y-52244341D01*
X123039999Y-52244341D01*
X122804596Y-52264936D01*
X122804586Y-52264938D01*
X122576344Y-52326094D01*
X122576335Y-52326098D01*
X122362171Y-52425964D01*
X122362169Y-52425965D01*
X122168597Y-52561505D01*
X122001505Y-52728597D01*
X121871575Y-52914158D01*
X121816998Y-52957783D01*
X121747500Y-52964977D01*
X121685145Y-52933454D01*
X121668425Y-52914158D01*
X121538494Y-52728597D01*
X121371402Y-52561506D01*
X121371395Y-52561501D01*
X121177834Y-52425967D01*
X121177830Y-52425965D01*
X121106727Y-52392809D01*
X120963663Y-52326097D01*
X120963659Y-52326096D01*
X120963655Y-52326094D01*
X120735413Y-52264938D01*
X120735403Y-52264936D01*
X120500001Y-52244341D01*
X120499999Y-52244341D01*
X120264596Y-52264936D01*
X120264586Y-52264938D01*
X120036344Y-52326094D01*
X120036335Y-52326098D01*
X119822171Y-52425964D01*
X119822169Y-52425965D01*
X119628597Y-52561505D01*
X119461505Y-52728597D01*
X119331575Y-52914158D01*
X119276998Y-52957783D01*
X119207500Y-52964977D01*
X119145145Y-52933454D01*
X119128425Y-52914158D01*
X118998494Y-52728597D01*
X118831402Y-52561506D01*
X118831395Y-52561501D01*
X118637834Y-52425967D01*
X118637830Y-52425965D01*
X118566727Y-52392809D01*
X118423663Y-52326097D01*
X118423659Y-52326096D01*
X118423655Y-52326094D01*
X118195413Y-52264938D01*
X118195403Y-52264936D01*
X117960001Y-52244341D01*
X117959999Y-52244341D01*
X117724596Y-52264936D01*
X117724586Y-52264938D01*
X117496344Y-52326094D01*
X117496335Y-52326098D01*
X117282171Y-52425964D01*
X117282169Y-52425965D01*
X117088597Y-52561505D01*
X116921505Y-52728597D01*
X116791575Y-52914158D01*
X116736998Y-52957783D01*
X116667500Y-52964977D01*
X116605145Y-52933454D01*
X116588425Y-52914158D01*
X116458494Y-52728597D01*
X116291402Y-52561506D01*
X116291395Y-52561501D01*
X116097834Y-52425967D01*
X116097830Y-52425965D01*
X116026727Y-52392809D01*
X115883663Y-52326097D01*
X115883659Y-52326096D01*
X115883655Y-52326094D01*
X115655413Y-52264938D01*
X115655403Y-52264936D01*
X115420001Y-52244341D01*
X115419999Y-52244341D01*
X115184596Y-52264936D01*
X115184586Y-52264938D01*
X114956344Y-52326094D01*
X114956335Y-52326098D01*
X114742171Y-52425964D01*
X114742169Y-52425965D01*
X114548597Y-52561505D01*
X114381505Y-52728597D01*
X114251575Y-52914158D01*
X114196998Y-52957783D01*
X114127500Y-52964977D01*
X114065145Y-52933454D01*
X114048425Y-52914158D01*
X113918494Y-52728597D01*
X113751402Y-52561506D01*
X113751395Y-52561501D01*
X113557834Y-52425967D01*
X113557830Y-52425965D01*
X113486727Y-52392809D01*
X113343663Y-52326097D01*
X113343659Y-52326096D01*
X113343655Y-52326094D01*
X113115413Y-52264938D01*
X113115403Y-52264936D01*
X112880001Y-52244341D01*
X112879999Y-52244341D01*
X112644596Y-52264936D01*
X112644586Y-52264938D01*
X112416344Y-52326094D01*
X112416335Y-52326098D01*
X112202171Y-52425964D01*
X112202169Y-52425965D01*
X112008597Y-52561505D01*
X111841505Y-52728597D01*
X111711575Y-52914158D01*
X111656998Y-52957783D01*
X111587500Y-52964977D01*
X111525145Y-52933454D01*
X111508425Y-52914158D01*
X111378494Y-52728597D01*
X111211402Y-52561506D01*
X111211395Y-52561501D01*
X111017834Y-52425967D01*
X111017830Y-52425965D01*
X110946727Y-52392809D01*
X110803663Y-52326097D01*
X110803659Y-52326096D01*
X110803655Y-52326094D01*
X110575413Y-52264938D01*
X110575403Y-52264936D01*
X110340001Y-52244341D01*
X110339999Y-52244341D01*
X110104596Y-52264936D01*
X110104586Y-52264938D01*
X109876344Y-52326094D01*
X109876335Y-52326098D01*
X109662171Y-52425964D01*
X109662169Y-52425965D01*
X109468600Y-52561503D01*
X109346284Y-52683819D01*
X109284961Y-52717303D01*
X109215269Y-52712319D01*
X109159336Y-52670447D01*
X109142421Y-52639470D01*
X109093354Y-52507913D01*
X109093350Y-52507906D01*
X109007190Y-52392812D01*
X109007187Y-52392809D01*
X108892093Y-52306649D01*
X108892086Y-52306645D01*
X108757379Y-52256403D01*
X108757372Y-52256401D01*
X108697844Y-52250000D01*
X108050000Y-52250000D01*
X108050000Y-53164498D01*
X107942315Y-53115320D01*
X107835763Y-53100000D01*
X107764237Y-53100000D01*
X107657685Y-53115320D01*
X107550000Y-53164498D01*
X107550000Y-52250000D01*
X106902155Y-52250000D01*
X106842627Y-52256401D01*
X106842620Y-52256403D01*
X106707913Y-52306645D01*
X106707906Y-52306649D01*
X106592812Y-52392809D01*
X106592809Y-52392812D01*
X106506649Y-52507906D01*
X106506645Y-52507913D01*
X106456403Y-52642620D01*
X106456401Y-52642627D01*
X106450000Y-52702155D01*
X106450000Y-53350000D01*
X107366314Y-53350000D01*
X107340507Y-53390156D01*
X107300000Y-53528111D01*
X107300000Y-53671889D01*
X107340507Y-53809844D01*
X107366314Y-53850000D01*
X106450000Y-53850000D01*
X106450000Y-54497844D01*
X96969136Y-54497844D01*
X96977993Y-54483970D01*
X97104823Y-54210658D01*
X97194093Y-53922879D01*
X97244209Y-53625770D01*
X97254277Y-53324631D01*
X97224118Y-53024838D01*
X97154269Y-52731739D01*
X97045977Y-52450566D01*
X96901175Y-52186335D01*
X96855710Y-52124630D01*
X96824623Y-52082438D01*
X96722446Y-51943762D01*
X96512980Y-51727176D01*
X96276521Y-51540446D01*
X96276517Y-51540443D01*
X96276515Y-51540442D01*
X96017270Y-51386891D01*
X95739872Y-51269264D01*
X95739863Y-51269261D01*
X95449272Y-51189660D01*
X95374616Y-51179620D01*
X95150653Y-51149500D01*
X94924756Y-51149500D01*
X94924748Y-51149500D01*
X94699368Y-51164587D01*
X94699359Y-51164589D01*
X94404094Y-51224604D01*
X94119464Y-51323439D01*
X94119459Y-51323441D01*
X93850546Y-51459328D01*
X93602125Y-51629860D01*
X93378665Y-51831969D01*
X93184132Y-52062064D01*
X93022006Y-52316030D01*
X93022005Y-52316032D01*
X92908094Y-52561506D01*
X92895177Y-52589342D01*
X92895176Y-52589346D01*
X92805907Y-52877118D01*
X92783383Y-53010653D01*
X92755791Y-53174230D01*
X92749427Y-53364596D01*
X92745723Y-53475373D01*
X87450500Y-53475373D01*
X87450500Y-44856302D01*
X87470185Y-44789263D01*
X87522989Y-44743508D01*
X87574500Y-44732302D01*
X199225500Y-44732302D01*
X199292539Y-44751987D01*
G37*
%TD.AperFunction*%
%TD*%
M02*
