%TF.GenerationSoftware,KiCad,Pcbnew,7.0.10*%
%TF.CreationDate,2024-03-05T14:46:03-05:00*%
%TF.ProjectId,User_Interface,55736572-5f49-46e7-9465-72666163652e,rev?*%
%TF.SameCoordinates,Original*%
%TF.FileFunction,Soldermask,Top*%
%TF.FilePolarity,Negative*%
%FSLAX46Y46*%
G04 Gerber Fmt 4.6, Leading zero omitted, Abs format (unit mm)*
G04 Created by KiCad (PCBNEW 7.0.10) date 2024-03-05 14:46:03*
%MOMM*%
%LPD*%
G01*
G04 APERTURE LIST*
%ADD10C,4.000000*%
%ADD11C,2.000000*%
%ADD12R,1.700000X1.700000*%
%ADD13O,1.700000X1.700000*%
G04 APERTURE END LIST*
D10*
%TO.C,H4*%
X192400000Y-141600000D03*
%TD*%
D11*
%TO.C,STOP1*%
X142775000Y-118281802D03*
X149275000Y-118281802D03*
X142775000Y-122781802D03*
X149275000Y-122781802D03*
%TD*%
D10*
%TO.C,H3*%
X95900000Y-140900000D03*
%TD*%
D12*
%TO.C,OLED1*%
X107800000Y-53600000D03*
D13*
X110340000Y-53600000D03*
X112880000Y-53600000D03*
X115420000Y-53600000D03*
X117960000Y-53600000D03*
X120500000Y-53600000D03*
X123040000Y-53600000D03*
X125580000Y-53600000D03*
X128120000Y-53600000D03*
X130660000Y-53600000D03*
X133200000Y-53600000D03*
X135740000Y-53600000D03*
X138280000Y-53600000D03*
X140820000Y-53600000D03*
X143360000Y-53600000D03*
X145900000Y-53600000D03*
%TD*%
D12*
%TO.C,MAIN_CONTROL1*%
X136675000Y-144335000D03*
D13*
X139215000Y-144335000D03*
X141755000Y-144335000D03*
X144295000Y-144335000D03*
X146835000Y-144335000D03*
X149375000Y-144335000D03*
X151915000Y-144335000D03*
X154455000Y-144335000D03*
%TD*%
D10*
%TO.C,H2*%
X192500000Y-52200000D03*
%TD*%
D11*
%TO.C,RESET1*%
X168300000Y-118281802D03*
X174800000Y-118281802D03*
X168300000Y-122781802D03*
X174800000Y-122781802D03*
%TD*%
%TO.C,START1*%
X117250000Y-118281802D03*
X123750000Y-118281802D03*
X117250000Y-122781802D03*
X123750000Y-122781802D03*
%TD*%
D10*
%TO.C,H1*%
X95000000Y-53400000D03*
%TD*%
M02*
