%TF.GenerationSoftware,KiCad,Pcbnew,7.0.10*%
%TF.CreationDate,2024-03-07T12:21:26-07:00*%
%TF.ProjectId,Senior Design,53656e69-6f72-4204-9465-7369676e2e6b,rev?*%
%TF.SameCoordinates,Original*%
%TF.FileFunction,AssemblyDrawing,Bot*%
%FSLAX46Y46*%
G04 Gerber Fmt 4.6, Leading zero omitted, Abs format (unit mm)*
G04 Created by KiCad (PCBNEW 7.0.10) date 2024-03-07 12:21:26*
%MOMM*%
%LPD*%
G01*
G04 APERTURE LIST*
%ADD10C,0.100000*%
%ADD11C,0.100000*%
%TD*%
G04 APERTURE END LIST*
D10*
%TO.C,SENSOR1*%
X150730000Y-106160000D02*
X150730000Y-107860000D01*
X152430000Y-107860000D01*
X152430000Y-106160000D01*
X150730000Y-106160000D01*
X154120000Y-107860000D02*
X154120000Y-107860000D01*
X154120000Y-107860000D02*
G75*
G03*
X154120000Y-106160000I0J850000D01*
G01*
X154120000Y-106160000D02*
X154120000Y-106160000D01*
X154120000Y-106160000D02*
G75*
G03*
X154120000Y-107860000I0J-850000D01*
G01*
X156660000Y-107860000D02*
X156660000Y-107860000D01*
X156660000Y-107860000D02*
G75*
G03*
X156660000Y-106160000I0J850000D01*
G01*
X156660000Y-106160000D02*
X156660000Y-106160000D01*
X156660000Y-106160000D02*
G75*
G03*
X156660000Y-107860000I0J-850000D01*
G01*
X159200000Y-107860000D02*
X159200000Y-107860000D01*
X159200000Y-107860000D02*
G75*
G03*
X159200000Y-106160000I0J850000D01*
G01*
X159200000Y-106160000D02*
X159200000Y-106160000D01*
X159200000Y-106160000D02*
G75*
G03*
X159200000Y-107860000I0J-850000D01*
G01*
X161740000Y-107860000D02*
X161740000Y-107860000D01*
X161740000Y-107860000D02*
G75*
G03*
X161740000Y-106160000I0J850000D01*
G01*
X161740000Y-106160000D02*
X161740000Y-106160000D01*
X161740000Y-106160000D02*
G75*
G03*
X161740000Y-107860000I0J-850000D01*
G01*
X164280000Y-107860000D02*
X164280000Y-107860000D01*
X164280000Y-107860000D02*
G75*
G03*
X164280000Y-106160000I0J850000D01*
G01*
X164280000Y-106160000D02*
X164280000Y-106160000D01*
X164280000Y-106160000D02*
G75*
G03*
X164280000Y-107860000I0J-850000D01*
G01*
X166820000Y-107860000D02*
X166820000Y-107860000D01*
X166820000Y-107860000D02*
G75*
G03*
X166820000Y-106160000I0J850000D01*
G01*
X166820000Y-106160000D02*
X166820000Y-106160000D01*
X166820000Y-106160000D02*
G75*
G03*
X166820000Y-107860000I0J-850000D01*
G01*
X169360000Y-107860000D02*
X169360000Y-107860000D01*
X169360000Y-107860000D02*
G75*
G03*
X169360000Y-106160000I0J850000D01*
G01*
X169360000Y-106160000D02*
X169360000Y-106160000D01*
X169360000Y-106160000D02*
G75*
G03*
X169360000Y-107860000I0J-850000D01*
G01*
X171900000Y-107860000D02*
X171900000Y-107860000D01*
X171900000Y-107860000D02*
G75*
G03*
X171900000Y-106160000I0J850000D01*
G01*
X171900000Y-106160000D02*
X171900000Y-106160000D01*
X171900000Y-106160000D02*
G75*
G03*
X171900000Y-107860000I0J-850000D01*
G01*
X174440000Y-107860000D02*
X174440000Y-107860000D01*
X174440000Y-107860000D02*
G75*
G03*
X174440000Y-106160000I0J850000D01*
G01*
X174440000Y-106160000D02*
X174440000Y-106160000D01*
X174440000Y-106160000D02*
G75*
G03*
X174440000Y-107860000I0J-850000D01*
G01*
X176980000Y-107860000D02*
X176980000Y-107860000D01*
X176980000Y-107860000D02*
G75*
G03*
X176980000Y-106160000I0J850000D01*
G01*
X176980000Y-106160000D02*
X176980000Y-106160000D01*
X176980000Y-106160000D02*
G75*
G03*
X176980000Y-107860000I0J-850000D01*
G01*
X179520000Y-107860000D02*
X179520000Y-107860000D01*
X179520000Y-107860000D02*
G75*
G03*
X179520000Y-106160000I0J850000D01*
G01*
X179520000Y-106160000D02*
X179520000Y-106160000D01*
X179520000Y-106160000D02*
G75*
G03*
X179520000Y-107860000I0J-850000D01*
G01*
%TD*%
%TO.C,GOAL_BOT1*%
X136780000Y-135490000D02*
X136780000Y-137190000D01*
X138480000Y-137190000D01*
X138480000Y-135490000D01*
X136780000Y-135490000D01*
X140170000Y-137190000D02*
X140170000Y-137190000D01*
X140170000Y-137190000D02*
G75*
G03*
X140170000Y-135490000I0J850000D01*
G01*
X140170000Y-135490000D02*
X140170000Y-135490000D01*
X140170000Y-135490000D02*
G75*
G03*
X140170000Y-137190000I0J-850000D01*
G01*
%TD*%
%TO.C,BARREL_JACK1*%
X134970000Y-83640000D02*
X134970000Y-86240000D01*
X137570000Y-86240000D01*
X137570000Y-83640000D01*
X134970000Y-83640000D01*
X131570000Y-84940000D02*
G75*
G03*
X128970000Y-84940000I-1300000J0D01*
G01*
X128970000Y-84940000D02*
G75*
G03*
X131570000Y-84940000I1300000J0D01*
G01*
X134570000Y-89640000D02*
G75*
G03*
X131970000Y-89640000I-1300000J0D01*
G01*
X131970000Y-89640000D02*
G75*
G03*
X134570000Y-89640000I1300000J0D01*
G01*
%TD*%
%TO.C,USER_INTERFACE1*%
X195840000Y-111310000D02*
X195840000Y-113010000D01*
X197540000Y-113010000D01*
X197540000Y-111310000D01*
X195840000Y-111310000D01*
X197540000Y-109620000D02*
X197540000Y-109620000D01*
X197540000Y-109620000D02*
G75*
G03*
X195840000Y-109620000I-850000J0D01*
G01*
X195840000Y-109620000D02*
X195840000Y-109620000D01*
X195840000Y-109620000D02*
G75*
G03*
X197540000Y-109620000I850000J0D01*
G01*
X197540000Y-107080000D02*
X197540000Y-107080000D01*
X197540000Y-107080000D02*
G75*
G03*
X195840000Y-107080000I-850000J0D01*
G01*
X195840000Y-107080000D02*
X195840000Y-107080000D01*
X195840000Y-107080000D02*
G75*
G03*
X197540000Y-107080000I850000J0D01*
G01*
X197540000Y-104540000D02*
X197540000Y-104540000D01*
X197540000Y-104540000D02*
G75*
G03*
X195840000Y-104540000I-850000J0D01*
G01*
X195840000Y-104540000D02*
X195840000Y-104540000D01*
X195840000Y-104540000D02*
G75*
G03*
X197540000Y-104540000I850000J0D01*
G01*
X197540000Y-102000000D02*
X197540000Y-102000000D01*
X197540000Y-102000000D02*
G75*
G03*
X195840000Y-102000000I-850000J0D01*
G01*
X195840000Y-102000000D02*
X195840000Y-102000000D01*
X195840000Y-102000000D02*
G75*
G03*
X197540000Y-102000000I850000J0D01*
G01*
X197540000Y-99460000D02*
X197540000Y-99460000D01*
X197540000Y-99460000D02*
G75*
G03*
X195840000Y-99460000I-850000J0D01*
G01*
X195840000Y-99460000D02*
X195840000Y-99460000D01*
X195840000Y-99460000D02*
G75*
G03*
X197540000Y-99460000I850000J0D01*
G01*
X197540000Y-96920000D02*
X197540000Y-96920000D01*
X197540000Y-96920000D02*
G75*
G03*
X195840000Y-96920000I-850000J0D01*
G01*
X195840000Y-96920000D02*
X195840000Y-96920000D01*
X195840000Y-96920000D02*
G75*
G03*
X197540000Y-96920000I850000J0D01*
G01*
X197540000Y-94380000D02*
X197540000Y-94380000D01*
X197540000Y-94380000D02*
G75*
G03*
X195840000Y-94380000I-850000J0D01*
G01*
X195840000Y-94380000D02*
X195840000Y-94380000D01*
X195840000Y-94380000D02*
G75*
G03*
X197540000Y-94380000I850000J0D01*
G01*
%TD*%
%TO.C,PWM_PORT1*%
X195730000Y-84960000D02*
X195730000Y-86660000D01*
X197430000Y-86660000D01*
X197430000Y-84960000D01*
X195730000Y-84960000D01*
X197430000Y-83270000D02*
X197430000Y-83270000D01*
X197430000Y-83270000D02*
G75*
G03*
X195730000Y-83270000I-850000J0D01*
G01*
X195730000Y-83270000D02*
X195730000Y-83270000D01*
X195730000Y-83270000D02*
G75*
G03*
X197430000Y-83270000I850000J0D01*
G01*
X197430000Y-80730000D02*
X197430000Y-80730000D01*
X197430000Y-80730000D02*
G75*
G03*
X195730000Y-80730000I-850000J0D01*
G01*
X195730000Y-80730000D02*
X195730000Y-80730000D01*
X195730000Y-80730000D02*
G75*
G03*
X197430000Y-80730000I850000J0D01*
G01*
X197430000Y-78190000D02*
X197430000Y-78190000D01*
X197430000Y-78190000D02*
G75*
G03*
X195730000Y-78190000I-850000J0D01*
G01*
X195730000Y-78190000D02*
X195730000Y-78190000D01*
X195730000Y-78190000D02*
G75*
G03*
X197430000Y-78190000I850000J0D01*
G01*
X197430000Y-75650000D02*
X197430000Y-75650000D01*
X197430000Y-75650000D02*
G75*
G03*
X195730000Y-75650000I-850000J0D01*
G01*
X195730000Y-75650000D02*
X195730000Y-75650000D01*
X195730000Y-75650000D02*
G75*
G03*
X197430000Y-75650000I850000J0D01*
G01*
X197430000Y-73110000D02*
X197430000Y-73110000D01*
X197430000Y-73110000D02*
G75*
G03*
X195730000Y-73110000I-850000J0D01*
G01*
X195730000Y-73110000D02*
X195730000Y-73110000D01*
X195730000Y-73110000D02*
G75*
G03*
X197430000Y-73110000I850000J0D01*
G01*
%TD*%
%TO.C,H4*%
X215260000Y-140460000D02*
G75*
G03*
X211260000Y-140460000I-2000000J0D01*
G01*
X211260000Y-140460000D02*
G75*
G03*
X215260000Y-140460000I2000000J0D01*
G01*
%TD*%
%TO.C,Jetson_Nano1*%
X208810000Y-67890000D02*
X208810000Y-69590000D01*
X210510000Y-69590000D01*
X210510000Y-67890000D01*
X208810000Y-67890000D01*
X211350000Y-68740000D02*
X211350000Y-68740000D01*
X211350000Y-68740000D02*
G75*
G03*
X213050000Y-68740000I850000J0D01*
G01*
X213050000Y-68740000D02*
X213050000Y-68740000D01*
X213050000Y-68740000D02*
G75*
G03*
X211350000Y-68740000I-850000J0D01*
G01*
X208810000Y-71280000D02*
X208810000Y-71280000D01*
X208810000Y-71280000D02*
G75*
G03*
X210510000Y-71280000I850000J0D01*
G01*
X210510000Y-71280000D02*
X210510000Y-71280000D01*
X210510000Y-71280000D02*
G75*
G03*
X208810000Y-71280000I-850000J0D01*
G01*
X211350000Y-71280000D02*
X211350000Y-71280000D01*
X211350000Y-71280000D02*
G75*
G03*
X213050000Y-71280000I850000J0D01*
G01*
X213050000Y-71280000D02*
X213050000Y-71280000D01*
X213050000Y-71280000D02*
G75*
G03*
X211350000Y-71280000I-850000J0D01*
G01*
X208810000Y-73820000D02*
X208810000Y-73820000D01*
X208810000Y-73820000D02*
G75*
G03*
X210510000Y-73820000I850000J0D01*
G01*
X210510000Y-73820000D02*
X210510000Y-73820000D01*
X210510000Y-73820000D02*
G75*
G03*
X208810000Y-73820000I-850000J0D01*
G01*
X211350000Y-73820000D02*
X211350000Y-73820000D01*
X211350000Y-73820000D02*
G75*
G03*
X213050000Y-73820000I850000J0D01*
G01*
X213050000Y-73820000D02*
X213050000Y-73820000D01*
X213050000Y-73820000D02*
G75*
G03*
X211350000Y-73820000I-850000J0D01*
G01*
X208810000Y-76360000D02*
X208810000Y-76360000D01*
X208810000Y-76360000D02*
G75*
G03*
X210510000Y-76360000I850000J0D01*
G01*
X210510000Y-76360000D02*
X210510000Y-76360000D01*
X210510000Y-76360000D02*
G75*
G03*
X208810000Y-76360000I-850000J0D01*
G01*
X211350000Y-76360000D02*
X211350000Y-76360000D01*
X211350000Y-76360000D02*
G75*
G03*
X213050000Y-76360000I850000J0D01*
G01*
X213050000Y-76360000D02*
X213050000Y-76360000D01*
X213050000Y-76360000D02*
G75*
G03*
X211350000Y-76360000I-850000J0D01*
G01*
X208810000Y-78900000D02*
X208810000Y-78900000D01*
X208810000Y-78900000D02*
G75*
G03*
X210510000Y-78900000I850000J0D01*
G01*
X210510000Y-78900000D02*
X210510000Y-78900000D01*
X210510000Y-78900000D02*
G75*
G03*
X208810000Y-78900000I-850000J0D01*
G01*
X211350000Y-78900000D02*
X211350000Y-78900000D01*
X211350000Y-78900000D02*
G75*
G03*
X213050000Y-78900000I850000J0D01*
G01*
X213050000Y-78900000D02*
X213050000Y-78900000D01*
X213050000Y-78900000D02*
G75*
G03*
X211350000Y-78900000I-850000J0D01*
G01*
X208810000Y-81440000D02*
X208810000Y-81440000D01*
X208810000Y-81440000D02*
G75*
G03*
X210510000Y-81440000I850000J0D01*
G01*
X210510000Y-81440000D02*
X210510000Y-81440000D01*
X210510000Y-81440000D02*
G75*
G03*
X208810000Y-81440000I-850000J0D01*
G01*
X211350000Y-81440000D02*
X211350000Y-81440000D01*
X211350000Y-81440000D02*
G75*
G03*
X213050000Y-81440000I850000J0D01*
G01*
X213050000Y-81440000D02*
X213050000Y-81440000D01*
X213050000Y-81440000D02*
G75*
G03*
X211350000Y-81440000I-850000J0D01*
G01*
X208810000Y-83980000D02*
X208810000Y-83980000D01*
X208810000Y-83980000D02*
G75*
G03*
X210510000Y-83980000I850000J0D01*
G01*
X210510000Y-83980000D02*
X210510000Y-83980000D01*
X210510000Y-83980000D02*
G75*
G03*
X208810000Y-83980000I-850000J0D01*
G01*
X211350000Y-83980000D02*
X211350000Y-83980000D01*
X211350000Y-83980000D02*
G75*
G03*
X213050000Y-83980000I850000J0D01*
G01*
X213050000Y-83980000D02*
X213050000Y-83980000D01*
X213050000Y-83980000D02*
G75*
G03*
X211350000Y-83980000I-850000J0D01*
G01*
X208810000Y-86520000D02*
X208810000Y-86520000D01*
X208810000Y-86520000D02*
G75*
G03*
X210510000Y-86520000I850000J0D01*
G01*
X210510000Y-86520000D02*
X210510000Y-86520000D01*
X210510000Y-86520000D02*
G75*
G03*
X208810000Y-86520000I-850000J0D01*
G01*
X211350000Y-86520000D02*
X211350000Y-86520000D01*
X211350000Y-86520000D02*
G75*
G03*
X213050000Y-86520000I850000J0D01*
G01*
X213050000Y-86520000D02*
X213050000Y-86520000D01*
X213050000Y-86520000D02*
G75*
G03*
X211350000Y-86520000I-850000J0D01*
G01*
X208810000Y-89060000D02*
X208810000Y-89060000D01*
X208810000Y-89060000D02*
G75*
G03*
X210510000Y-89060000I850000J0D01*
G01*
X210510000Y-89060000D02*
X210510000Y-89060000D01*
X210510000Y-89060000D02*
G75*
G03*
X208810000Y-89060000I-850000J0D01*
G01*
X211350000Y-89060000D02*
X211350000Y-89060000D01*
X211350000Y-89060000D02*
G75*
G03*
X213050000Y-89060000I850000J0D01*
G01*
X213050000Y-89060000D02*
X213050000Y-89060000D01*
X213050000Y-89060000D02*
G75*
G03*
X211350000Y-89060000I-850000J0D01*
G01*
X208810000Y-91600000D02*
X208810000Y-91600000D01*
X208810000Y-91600000D02*
G75*
G03*
X210510000Y-91600000I850000J0D01*
G01*
X210510000Y-91600000D02*
X210510000Y-91600000D01*
X210510000Y-91600000D02*
G75*
G03*
X208810000Y-91600000I-850000J0D01*
G01*
X211350000Y-91600000D02*
X211350000Y-91600000D01*
X211350000Y-91600000D02*
G75*
G03*
X213050000Y-91600000I850000J0D01*
G01*
X213050000Y-91600000D02*
X213050000Y-91600000D01*
X213050000Y-91600000D02*
G75*
G03*
X211350000Y-91600000I-850000J0D01*
G01*
X208810000Y-94140000D02*
X208810000Y-94140000D01*
X208810000Y-94140000D02*
G75*
G03*
X210510000Y-94140000I850000J0D01*
G01*
X210510000Y-94140000D02*
X210510000Y-94140000D01*
X210510000Y-94140000D02*
G75*
G03*
X208810000Y-94140000I-850000J0D01*
G01*
X211350000Y-94140000D02*
X211350000Y-94140000D01*
X211350000Y-94140000D02*
G75*
G03*
X213050000Y-94140000I850000J0D01*
G01*
X213050000Y-94140000D02*
X213050000Y-94140000D01*
X213050000Y-94140000D02*
G75*
G03*
X211350000Y-94140000I-850000J0D01*
G01*
X208810000Y-96680000D02*
X208810000Y-96680000D01*
X208810000Y-96680000D02*
G75*
G03*
X210510000Y-96680000I850000J0D01*
G01*
X210510000Y-96680000D02*
X210510000Y-96680000D01*
X210510000Y-96680000D02*
G75*
G03*
X208810000Y-96680000I-850000J0D01*
G01*
X211350000Y-96680000D02*
X211350000Y-96680000D01*
X211350000Y-96680000D02*
G75*
G03*
X213050000Y-96680000I850000J0D01*
G01*
X213050000Y-96680000D02*
X213050000Y-96680000D01*
X213050000Y-96680000D02*
G75*
G03*
X211350000Y-96680000I-850000J0D01*
G01*
X208810000Y-99220000D02*
X208810000Y-99220000D01*
X208810000Y-99220000D02*
G75*
G03*
X210510000Y-99220000I850000J0D01*
G01*
X210510000Y-99220000D02*
X210510000Y-99220000D01*
X210510000Y-99220000D02*
G75*
G03*
X208810000Y-99220000I-850000J0D01*
G01*
X211350000Y-99220000D02*
X211350000Y-99220000D01*
X211350000Y-99220000D02*
G75*
G03*
X213050000Y-99220000I850000J0D01*
G01*
X213050000Y-99220000D02*
X213050000Y-99220000D01*
X213050000Y-99220000D02*
G75*
G03*
X211350000Y-99220000I-850000J0D01*
G01*
X208810000Y-101760000D02*
X208810000Y-101760000D01*
X208810000Y-101760000D02*
G75*
G03*
X210510000Y-101760000I850000J0D01*
G01*
X210510000Y-101760000D02*
X210510000Y-101760000D01*
X210510000Y-101760000D02*
G75*
G03*
X208810000Y-101760000I-850000J0D01*
G01*
X211350000Y-101760000D02*
X211350000Y-101760000D01*
X211350000Y-101760000D02*
G75*
G03*
X213050000Y-101760000I850000J0D01*
G01*
X213050000Y-101760000D02*
X213050000Y-101760000D01*
X213050000Y-101760000D02*
G75*
G03*
X211350000Y-101760000I-850000J0D01*
G01*
X208810000Y-104300000D02*
X208810000Y-104300000D01*
X208810000Y-104300000D02*
G75*
G03*
X210510000Y-104300000I850000J0D01*
G01*
X210510000Y-104300000D02*
X210510000Y-104300000D01*
X210510000Y-104300000D02*
G75*
G03*
X208810000Y-104300000I-850000J0D01*
G01*
X211350000Y-104300000D02*
X211350000Y-104300000D01*
X211350000Y-104300000D02*
G75*
G03*
X213050000Y-104300000I850000J0D01*
G01*
X213050000Y-104300000D02*
X213050000Y-104300000D01*
X213050000Y-104300000D02*
G75*
G03*
X211350000Y-104300000I-850000J0D01*
G01*
X208810000Y-106840000D02*
X208810000Y-106840000D01*
X208810000Y-106840000D02*
G75*
G03*
X210510000Y-106840000I850000J0D01*
G01*
X210510000Y-106840000D02*
X210510000Y-106840000D01*
X210510000Y-106840000D02*
G75*
G03*
X208810000Y-106840000I-850000J0D01*
G01*
X211350000Y-106840000D02*
X211350000Y-106840000D01*
X211350000Y-106840000D02*
G75*
G03*
X213050000Y-106840000I850000J0D01*
G01*
X213050000Y-106840000D02*
X213050000Y-106840000D01*
X213050000Y-106840000D02*
G75*
G03*
X211350000Y-106840000I-850000J0D01*
G01*
X208810000Y-109380000D02*
X208810000Y-109380000D01*
X208810000Y-109380000D02*
G75*
G03*
X210510000Y-109380000I850000J0D01*
G01*
X210510000Y-109380000D02*
X210510000Y-109380000D01*
X210510000Y-109380000D02*
G75*
G03*
X208810000Y-109380000I-850000J0D01*
G01*
X211350000Y-109380000D02*
X211350000Y-109380000D01*
X211350000Y-109380000D02*
G75*
G03*
X213050000Y-109380000I850000J0D01*
G01*
X213050000Y-109380000D02*
X213050000Y-109380000D01*
X213050000Y-109380000D02*
G75*
G03*
X211350000Y-109380000I-850000J0D01*
G01*
X208810000Y-111920000D02*
X208810000Y-111920000D01*
X208810000Y-111920000D02*
G75*
G03*
X210510000Y-111920000I850000J0D01*
G01*
X210510000Y-111920000D02*
X210510000Y-111920000D01*
X210510000Y-111920000D02*
G75*
G03*
X208810000Y-111920000I-850000J0D01*
G01*
X211350000Y-111920000D02*
X211350000Y-111920000D01*
X211350000Y-111920000D02*
G75*
G03*
X213050000Y-111920000I850000J0D01*
G01*
X213050000Y-111920000D02*
X213050000Y-111920000D01*
X213050000Y-111920000D02*
G75*
G03*
X211350000Y-111920000I-850000J0D01*
G01*
X208810000Y-114460000D02*
X208810000Y-114460000D01*
X208810000Y-114460000D02*
G75*
G03*
X210510000Y-114460000I850000J0D01*
G01*
X210510000Y-114460000D02*
X210510000Y-114460000D01*
X210510000Y-114460000D02*
G75*
G03*
X208810000Y-114460000I-850000J0D01*
G01*
X211350000Y-114460000D02*
X211350000Y-114460000D01*
X211350000Y-114460000D02*
G75*
G03*
X213050000Y-114460000I850000J0D01*
G01*
X213050000Y-114460000D02*
X213050000Y-114460000D01*
X213050000Y-114460000D02*
G75*
G03*
X211350000Y-114460000I-850000J0D01*
G01*
X208810000Y-117000000D02*
X208810000Y-117000000D01*
X208810000Y-117000000D02*
G75*
G03*
X210510000Y-117000000I850000J0D01*
G01*
X210510000Y-117000000D02*
X210510000Y-117000000D01*
X210510000Y-117000000D02*
G75*
G03*
X208810000Y-117000000I-850000J0D01*
G01*
X211350000Y-117000000D02*
X211350000Y-117000000D01*
X211350000Y-117000000D02*
G75*
G03*
X213050000Y-117000000I850000J0D01*
G01*
X213050000Y-117000000D02*
X213050000Y-117000000D01*
X213050000Y-117000000D02*
G75*
G03*
X211350000Y-117000000I-850000J0D01*
G01*
%TD*%
%TO.C,GOAL_USER1*%
X136330000Y-106100000D02*
X136330000Y-107800000D01*
X138030000Y-107800000D01*
X138030000Y-106100000D01*
X136330000Y-106100000D01*
X139720000Y-107800000D02*
X139720000Y-107800000D01*
X139720000Y-107800000D02*
G75*
G03*
X139720000Y-106100000I0J850000D01*
G01*
X139720000Y-106100000D02*
X139720000Y-106100000D01*
X139720000Y-106100000D02*
G75*
G03*
X139720000Y-107800000I0J-850000D01*
G01*
%TD*%
%TO.C,H3*%
X130100000Y-140200000D02*
G75*
G03*
X126100000Y-140200000I-2000000J0D01*
G01*
X126100000Y-140200000D02*
G75*
G03*
X130100000Y-140200000I2000000J0D01*
G01*
%TD*%
%TO.C,H1*%
X130500000Y-43900000D02*
G75*
G03*
X126500000Y-43900000I-2000000J0D01*
G01*
X126500000Y-43900000D02*
G75*
G03*
X130500000Y-43900000I2000000J0D01*
G01*
%TD*%
%TO.C,BOOT1*%
X151700000Y-60900000D02*
G75*
G03*
X149700000Y-60900000I-1000000J0D01*
G01*
X149700000Y-60900000D02*
G75*
G03*
X151700000Y-60900000I1000000J0D01*
G01*
X158200000Y-60900000D02*
G75*
G03*
X156200000Y-60900000I-1000000J0D01*
G01*
X156200000Y-60900000D02*
G75*
G03*
X158200000Y-60900000I1000000J0D01*
G01*
X151700000Y-65400000D02*
G75*
G03*
X149700000Y-65400000I-1000000J0D01*
G01*
X149700000Y-65400000D02*
G75*
G03*
X151700000Y-65400000I1000000J0D01*
G01*
X158200000Y-65400000D02*
G75*
G03*
X156200000Y-65400000I-1000000J0D01*
G01*
X156200000Y-65400000D02*
G75*
G03*
X158200000Y-65400000I1000000J0D01*
G01*
%TD*%
%TO.C,SENSOR2*%
X150770000Y-120910000D02*
X150770000Y-122610000D01*
X152470000Y-122610000D01*
X152470000Y-120910000D01*
X150770000Y-120910000D01*
X154160000Y-122610000D02*
X154160000Y-122610000D01*
X154160000Y-122610000D02*
G75*
G03*
X154160000Y-120910000I0J850000D01*
G01*
X154160000Y-120910000D02*
X154160000Y-120910000D01*
X154160000Y-120910000D02*
G75*
G03*
X154160000Y-122610000I0J-850000D01*
G01*
X156700000Y-122610000D02*
X156700000Y-122610000D01*
X156700000Y-122610000D02*
G75*
G03*
X156700000Y-120910000I0J850000D01*
G01*
X156700000Y-120910000D02*
X156700000Y-120910000D01*
X156700000Y-120910000D02*
G75*
G03*
X156700000Y-122610000I0J-850000D01*
G01*
X159240000Y-122610000D02*
X159240000Y-122610000D01*
X159240000Y-122610000D02*
G75*
G03*
X159240000Y-120910000I0J850000D01*
G01*
X159240000Y-120910000D02*
X159240000Y-120910000D01*
X159240000Y-120910000D02*
G75*
G03*
X159240000Y-122610000I0J-850000D01*
G01*
X161780000Y-122610000D02*
X161780000Y-122610000D01*
X161780000Y-122610000D02*
G75*
G03*
X161780000Y-120910000I0J850000D01*
G01*
X161780000Y-120910000D02*
X161780000Y-120910000D01*
X161780000Y-120910000D02*
G75*
G03*
X161780000Y-122610000I0J-850000D01*
G01*
X164320000Y-122610000D02*
X164320000Y-122610000D01*
X164320000Y-122610000D02*
G75*
G03*
X164320000Y-120910000I0J850000D01*
G01*
X164320000Y-120910000D02*
X164320000Y-120910000D01*
X164320000Y-120910000D02*
G75*
G03*
X164320000Y-122610000I0J-850000D01*
G01*
X166860000Y-122610000D02*
X166860000Y-122610000D01*
X166860000Y-122610000D02*
G75*
G03*
X166860000Y-120910000I0J850000D01*
G01*
X166860000Y-120910000D02*
X166860000Y-120910000D01*
X166860000Y-120910000D02*
G75*
G03*
X166860000Y-122610000I0J-850000D01*
G01*
X169400000Y-122610000D02*
X169400000Y-122610000D01*
X169400000Y-122610000D02*
G75*
G03*
X169400000Y-120910000I0J850000D01*
G01*
X169400000Y-120910000D02*
X169400000Y-120910000D01*
X169400000Y-120910000D02*
G75*
G03*
X169400000Y-122610000I0J-850000D01*
G01*
X171940000Y-122610000D02*
X171940000Y-122610000D01*
X171940000Y-122610000D02*
G75*
G03*
X171940000Y-120910000I0J850000D01*
G01*
X171940000Y-120910000D02*
X171940000Y-120910000D01*
X171940000Y-120910000D02*
G75*
G03*
X171940000Y-122610000I0J-850000D01*
G01*
X174480000Y-122610000D02*
X174480000Y-122610000D01*
X174480000Y-122610000D02*
G75*
G03*
X174480000Y-120910000I0J850000D01*
G01*
X174480000Y-120910000D02*
X174480000Y-120910000D01*
X174480000Y-120910000D02*
G75*
G03*
X174480000Y-122610000I0J-850000D01*
G01*
X177020000Y-122610000D02*
X177020000Y-122610000D01*
X177020000Y-122610000D02*
G75*
G03*
X177020000Y-120910000I0J850000D01*
G01*
X177020000Y-120910000D02*
X177020000Y-120910000D01*
X177020000Y-120910000D02*
G75*
G03*
X177020000Y-122610000I0J-850000D01*
G01*
X179560000Y-122610000D02*
X179560000Y-122610000D01*
X179560000Y-122610000D02*
G75*
G03*
X179560000Y-120910000I0J850000D01*
G01*
X179560000Y-120910000D02*
X179560000Y-120910000D01*
X179560000Y-120910000D02*
G75*
G03*
X179560000Y-122610000I0J-850000D01*
G01*
%TD*%
D11*
%TO.C,10pin_IDC_SWD1*%
D10*
X174550000Y-45370000D02*
X174645671Y-45389030D01*
X174726777Y-45443223D01*
X174780970Y-45524329D01*
X174800000Y-45620000D01*
X174800000Y-46820000D01*
X174780970Y-46915671D01*
X174726777Y-46996777D01*
X174645671Y-47050970D01*
X174550000Y-47070000D01*
X173350000Y-47070000D01*
X173254329Y-47050970D01*
X173173223Y-46996777D01*
X173119030Y-46915671D01*
X173100000Y-46820000D01*
X173100000Y-45620000D01*
X173119030Y-45524329D01*
X173173223Y-45443223D01*
X173254329Y-45389030D01*
X173350000Y-45370000D01*
X174550000Y-45370000D01*
X172260000Y-46220000D02*
G75*
G03*
X170560000Y-46220000I-850000J0D01*
G01*
X170560000Y-46220000D02*
G75*
G03*
X172260000Y-46220000I850000J0D01*
G01*
X169720000Y-46220000D02*
G75*
G03*
X168020000Y-46220000I-850000J0D01*
G01*
X168020000Y-46220000D02*
G75*
G03*
X169720000Y-46220000I850000J0D01*
G01*
X167180000Y-46220000D02*
G75*
G03*
X165480000Y-46220000I-850000J0D01*
G01*
X165480000Y-46220000D02*
G75*
G03*
X167180000Y-46220000I850000J0D01*
G01*
X164640000Y-46220000D02*
G75*
G03*
X162940000Y-46220000I-850000J0D01*
G01*
X162940000Y-46220000D02*
G75*
G03*
X164640000Y-46220000I850000J0D01*
G01*
X174800000Y-48760000D02*
G75*
G03*
X173100000Y-48760000I-850000J0D01*
G01*
X173100000Y-48760000D02*
G75*
G03*
X174800000Y-48760000I850000J0D01*
G01*
X172260000Y-48760000D02*
G75*
G03*
X170560000Y-48760000I-850000J0D01*
G01*
X170560000Y-48760000D02*
G75*
G03*
X172260000Y-48760000I850000J0D01*
G01*
X169720000Y-48760000D02*
G75*
G03*
X168020000Y-48760000I-850000J0D01*
G01*
X168020000Y-48760000D02*
G75*
G03*
X169720000Y-48760000I850000J0D01*
G01*
X167180000Y-48760000D02*
G75*
G03*
X165480000Y-48760000I-850000J0D01*
G01*
X165480000Y-48760000D02*
G75*
G03*
X167180000Y-48760000I850000J0D01*
G01*
X164640000Y-48760000D02*
G75*
G03*
X162940000Y-48760000I-850000J0D01*
G01*
X162940000Y-48760000D02*
G75*
G03*
X164640000Y-48760000I850000J0D01*
G01*
%TD*%
%TO.C,Serial_Adapter1*%
X188980000Y-48300000D02*
X188980000Y-50000000D01*
X190680000Y-50000000D01*
X190680000Y-48300000D01*
X188980000Y-48300000D01*
X192370000Y-50000000D02*
X192370000Y-50000000D01*
X192370000Y-50000000D02*
G75*
G03*
X192370000Y-48300000I0J850000D01*
G01*
X192370000Y-48300000D02*
X192370000Y-48300000D01*
X192370000Y-48300000D02*
G75*
G03*
X192370000Y-50000000I0J-850000D01*
G01*
X194910000Y-50000000D02*
X194910000Y-50000000D01*
X194910000Y-50000000D02*
G75*
G03*
X194910000Y-48300000I0J850000D01*
G01*
X194910000Y-48300000D02*
X194910000Y-48300000D01*
X194910000Y-48300000D02*
G75*
G03*
X194910000Y-50000000I0J-850000D01*
G01*
X197450000Y-50000000D02*
X197450000Y-50000000D01*
X197450000Y-50000000D02*
G75*
G03*
X197450000Y-48300000I0J850000D01*
G01*
X197450000Y-48300000D02*
X197450000Y-48300000D01*
X197450000Y-48300000D02*
G75*
G03*
X197450000Y-50000000I0J-850000D01*
G01*
X199990000Y-50000000D02*
X199990000Y-50000000D01*
X199990000Y-50000000D02*
G75*
G03*
X199990000Y-48300000I0J850000D01*
G01*
X199990000Y-48300000D02*
X199990000Y-48300000D01*
X199990000Y-48300000D02*
G75*
G03*
X199990000Y-50000000I0J-850000D01*
G01*
X202530000Y-50000000D02*
X202530000Y-50000000D01*
X202530000Y-50000000D02*
G75*
G03*
X202530000Y-48300000I0J850000D01*
G01*
X202530000Y-48300000D02*
X202530000Y-48300000D01*
X202530000Y-48300000D02*
G75*
G03*
X202530000Y-50000000I0J-850000D01*
G01*
%TD*%
%TO.C,H2*%
X215060000Y-44090000D02*
G75*
G03*
X211060000Y-44090000I-2000000J0D01*
G01*
X211060000Y-44090000D02*
G75*
G03*
X215060000Y-44090000I2000000J0D01*
G01*
%TD*%
%TO.C,RESET1*%
X137650000Y-60950000D02*
G75*
G03*
X135650000Y-60950000I-1000000J0D01*
G01*
X135650000Y-60950000D02*
G75*
G03*
X137650000Y-60950000I1000000J0D01*
G01*
X144150000Y-60950000D02*
G75*
G03*
X142150000Y-60950000I-1000000J0D01*
G01*
X142150000Y-60950000D02*
G75*
G03*
X144150000Y-60950000I1000000J0D01*
G01*
X137650000Y-65450000D02*
G75*
G03*
X135650000Y-65450000I-1000000J0D01*
G01*
X135650000Y-65450000D02*
G75*
G03*
X137650000Y-65450000I1000000J0D01*
G01*
X144150000Y-65450000D02*
G75*
G03*
X142150000Y-65450000I-1000000J0D01*
G01*
X142150000Y-65450000D02*
G75*
G03*
X144150000Y-65450000I1000000J0D01*
G01*
%TD*%
%TO.C,SENSOR3*%
X150690000Y-135440000D02*
X150690000Y-137140000D01*
X152390000Y-137140000D01*
X152390000Y-135440000D01*
X150690000Y-135440000D01*
X154080000Y-137140000D02*
X154080000Y-137140000D01*
X154080000Y-137140000D02*
G75*
G03*
X154080000Y-135440000I0J850000D01*
G01*
X154080000Y-135440000D02*
X154080000Y-135440000D01*
X154080000Y-135440000D02*
G75*
G03*
X154080000Y-137140000I0J-850000D01*
G01*
X156620000Y-137140000D02*
X156620000Y-137140000D01*
X156620000Y-137140000D02*
G75*
G03*
X156620000Y-135440000I0J850000D01*
G01*
X156620000Y-135440000D02*
X156620000Y-135440000D01*
X156620000Y-135440000D02*
G75*
G03*
X156620000Y-137140000I0J-850000D01*
G01*
X159160000Y-137140000D02*
X159160000Y-137140000D01*
X159160000Y-137140000D02*
G75*
G03*
X159160000Y-135440000I0J850000D01*
G01*
X159160000Y-135440000D02*
X159160000Y-135440000D01*
X159160000Y-135440000D02*
G75*
G03*
X159160000Y-137140000I0J-850000D01*
G01*
X161700000Y-137140000D02*
X161700000Y-137140000D01*
X161700000Y-137140000D02*
G75*
G03*
X161700000Y-135440000I0J850000D01*
G01*
X161700000Y-135440000D02*
X161700000Y-135440000D01*
X161700000Y-135440000D02*
G75*
G03*
X161700000Y-137140000I0J-850000D01*
G01*
X164240000Y-137140000D02*
X164240000Y-137140000D01*
X164240000Y-137140000D02*
G75*
G03*
X164240000Y-135440000I0J850000D01*
G01*
X164240000Y-135440000D02*
X164240000Y-135440000D01*
X164240000Y-135440000D02*
G75*
G03*
X164240000Y-137140000I0J-850000D01*
G01*
X166780000Y-137140000D02*
X166780000Y-137140000D01*
X166780000Y-137140000D02*
G75*
G03*
X166780000Y-135440000I0J850000D01*
G01*
X166780000Y-135440000D02*
X166780000Y-135440000D01*
X166780000Y-135440000D02*
G75*
G03*
X166780000Y-137140000I0J-850000D01*
G01*
X169320000Y-137140000D02*
X169320000Y-137140000D01*
X169320000Y-137140000D02*
G75*
G03*
X169320000Y-135440000I0J850000D01*
G01*
X169320000Y-135440000D02*
X169320000Y-135440000D01*
X169320000Y-135440000D02*
G75*
G03*
X169320000Y-137140000I0J-850000D01*
G01*
X171860000Y-137140000D02*
X171860000Y-137140000D01*
X171860000Y-137140000D02*
G75*
G03*
X171860000Y-135440000I0J850000D01*
G01*
X171860000Y-135440000D02*
X171860000Y-135440000D01*
X171860000Y-135440000D02*
G75*
G03*
X171860000Y-137140000I0J-850000D01*
G01*
X174400000Y-137140000D02*
X174400000Y-137140000D01*
X174400000Y-137140000D02*
G75*
G03*
X174400000Y-135440000I0J850000D01*
G01*
X174400000Y-135440000D02*
X174400000Y-135440000D01*
X174400000Y-135440000D02*
G75*
G03*
X174400000Y-137140000I0J-850000D01*
G01*
X176940000Y-137140000D02*
X176940000Y-137140000D01*
X176940000Y-137140000D02*
G75*
G03*
X176940000Y-135440000I0J850000D01*
G01*
X176940000Y-135440000D02*
X176940000Y-135440000D01*
X176940000Y-135440000D02*
G75*
G03*
X176940000Y-137140000I0J-850000D01*
G01*
X179480000Y-137140000D02*
X179480000Y-137140000D01*
X179480000Y-137140000D02*
G75*
G03*
X179480000Y-135440000I0J850000D01*
G01*
X179480000Y-135440000D02*
X179480000Y-135440000D01*
X179480000Y-135440000D02*
G75*
G03*
X179480000Y-137140000I0J-850000D01*
G01*
%TD*%
M02*
