%TF.GenerationSoftware,KiCad,Pcbnew,7.0.10*%
%TF.CreationDate,2024-03-07T12:21:26-07:00*%
%TF.ProjectId,Senior Design,53656e69-6f72-4204-9465-7369676e2e6b,rev?*%
%TF.SameCoordinates,Original*%
%TF.FileFunction,Other,User*%
%FSLAX46Y46*%
G04 Gerber Fmt 4.6, Leading zero omitted, Abs format (unit mm)*
G04 Created by KiCad (PCBNEW 7.0.10) date 2024-03-07 12:21:26*
%MOMM*%
%LPD*%
G01*
G04 APERTURE LIST*
%ADD10C,0.050000*%
G04 APERTURE END LIST*
D10*
%TO.C,C10*%
X156600000Y-86870000D02*
X156600000Y-81910000D01*
X158900000Y-86870000D02*
X156600000Y-86870000D01*
X156600000Y-81910000D02*
X158900000Y-81910000D01*
X158900000Y-81910000D02*
X158900000Y-86870000D01*
%TO.C,C7*%
X135857500Y-121850000D02*
X140817500Y-121850000D01*
X135857500Y-124150000D02*
X135857500Y-121850000D01*
X140817500Y-121850000D02*
X140817500Y-124150000D01*
X140817500Y-124150000D02*
X135857500Y-124150000D01*
%TO.C,R9*%
X193690000Y-79330000D02*
X188790000Y-79330000D01*
X193690000Y-77090000D02*
X193690000Y-79330000D01*
X188790000Y-79330000D02*
X188790000Y-77090000D01*
X188790000Y-77090000D02*
X193690000Y-77090000D01*
%TO.C,SENSOR1*%
X149780000Y-108810000D02*
X181330000Y-108810000D01*
X181330000Y-108810000D02*
X181330000Y-105210000D01*
X149780000Y-105210000D02*
X149780000Y-108810000D01*
X181330000Y-105210000D02*
X149780000Y-105210000D01*
%TO.C,C9*%
X165642500Y-90450000D02*
X160682500Y-90450000D01*
X165642500Y-88150000D02*
X165642500Y-90450000D01*
X160682500Y-90450000D02*
X160682500Y-88150000D01*
X160682500Y-88150000D02*
X165642500Y-88150000D01*
%TO.C,C6*%
X135882500Y-117750000D02*
X140842500Y-117750000D01*
X135882500Y-120050000D02*
X135882500Y-117750000D01*
X140842500Y-117750000D02*
X140842500Y-120050000D01*
X140842500Y-120050000D02*
X135882500Y-120050000D01*
%TO.C,Power1*%
X134912500Y-95420000D02*
X130012500Y-95420000D01*
X134912500Y-93180000D02*
X134912500Y-95420000D01*
X130012500Y-95420000D02*
X130012500Y-93180000D01*
X130012500Y-93180000D02*
X134912500Y-93180000D01*
%TO.C,C4*%
X176237500Y-72060000D02*
X181197500Y-72060000D01*
X176237500Y-74360000D02*
X176237500Y-72060000D01*
X181197500Y-72060000D02*
X181197500Y-74360000D01*
X181197500Y-74360000D02*
X176237500Y-74360000D01*
%TO.C,R5*%
X133520000Y-61050000D02*
X133520000Y-65950000D01*
X131280000Y-61050000D02*
X133520000Y-61050000D01*
X133520000Y-65950000D02*
X131280000Y-65950000D01*
X131280000Y-65950000D02*
X131280000Y-61050000D01*
%TO.C,GOAL_BOT1*%
X135830000Y-138140000D02*
X141980000Y-138140000D01*
X141980000Y-138140000D02*
X141980000Y-134540000D01*
X135830000Y-134540000D02*
X135830000Y-138140000D01*
X141980000Y-134540000D02*
X135830000Y-134540000D01*
%TO.C,BARREL_JACK1*%
X137470000Y-79940000D02*
X137470000Y-83140000D01*
X122070000Y-79940000D02*
X137470000Y-79940000D01*
X138070000Y-83140000D02*
X138070000Y-86740000D01*
X137470000Y-83140000D02*
X138070000Y-83140000D01*
X138070000Y-86740000D02*
X137470000Y-86740000D01*
X137470000Y-86740000D02*
X137470000Y-89940000D01*
X137470000Y-89940000D02*
X135070000Y-89940000D01*
X135070000Y-89940000D02*
X135070000Y-91440000D01*
X131470000Y-89940000D02*
X122070000Y-89940000D01*
X122070000Y-89940000D02*
X122070000Y-79940000D01*
X135070000Y-91440000D02*
X131470000Y-91440000D01*
X131470000Y-91440000D02*
X131470000Y-89940000D01*
%TO.C,USER_INTERFACE1*%
X198490000Y-113960000D02*
X198490000Y-92610000D01*
X198490000Y-92610000D02*
X194890000Y-92610000D01*
X194890000Y-113960000D02*
X198490000Y-113960000D01*
X194890000Y-92610000D02*
X194890000Y-113960000D01*
%TO.C,R6*%
X163920000Y-60650000D02*
X163920000Y-65550000D01*
X161680000Y-60650000D02*
X163920000Y-60650000D01*
X163920000Y-65550000D02*
X161680000Y-65550000D01*
X161680000Y-65550000D02*
X161680000Y-60650000D01*
%TO.C,R3*%
X140830000Y-127950000D02*
X135930000Y-127950000D01*
X140830000Y-125710000D02*
X140830000Y-127950000D01*
X135930000Y-127950000D02*
X135930000Y-125710000D01*
X135930000Y-125710000D02*
X140830000Y-125710000D01*
%TO.C,PWM_PORT1*%
X198380000Y-87610000D02*
X198380000Y-71310000D01*
X198380000Y-71310000D02*
X194780000Y-71310000D01*
X194780000Y-87610000D02*
X198380000Y-87610000D01*
X194780000Y-71310000D02*
X194780000Y-87610000D01*
%TO.C,H4*%
X217510000Y-140460000D02*
G75*
G03*
X209010000Y-140460000I-4250000J0D01*
G01*
X209010000Y-140460000D02*
G75*
G03*
X217510000Y-140460000I4250000J0D01*
G01*
%TO.C,C2*%
X148820000Y-81290000D02*
X148820000Y-76330000D01*
X151120000Y-81290000D02*
X148820000Y-81290000D01*
X148820000Y-76330000D02*
X151120000Y-76330000D01*
X151120000Y-76330000D02*
X151120000Y-81290000D01*
%TO.C,Jetson_Nano1*%
X207860000Y-66940000D02*
X207860000Y-118790000D01*
X207860000Y-118790000D02*
X214010000Y-118790000D01*
X214010000Y-66940000D02*
X207860000Y-66940000D01*
X214010000Y-118790000D02*
X214010000Y-66940000D01*
%TO.C,U1*%
X162300000Y-75450000D02*
X162300000Y-79600000D01*
X162300000Y-83750000D02*
X162300000Y-79600000D01*
X163750000Y-74350000D02*
X163750000Y-75450000D01*
X163750000Y-75450000D02*
X162300000Y-75450000D01*
X163750000Y-83750000D02*
X162300000Y-83750000D01*
X163750000Y-84850000D02*
X163750000Y-83750000D01*
X164850000Y-72900000D02*
X164850000Y-74350000D01*
X164850000Y-74350000D02*
X163750000Y-74350000D01*
X164850000Y-84850000D02*
X163750000Y-84850000D01*
X164850000Y-86300000D02*
X164850000Y-84850000D01*
X169000000Y-72900000D02*
X164850000Y-72900000D01*
X169000000Y-72900000D02*
X173150000Y-72900000D01*
X169000000Y-86300000D02*
X164850000Y-86300000D01*
X169000000Y-86300000D02*
X173150000Y-86300000D01*
X173150000Y-72900000D02*
X173150000Y-74350000D01*
X173150000Y-74350000D02*
X174250000Y-74350000D01*
X173150000Y-84850000D02*
X174250000Y-84850000D01*
X173150000Y-86300000D02*
X173150000Y-84850000D01*
X174250000Y-74350000D02*
X174250000Y-75450000D01*
X174250000Y-75450000D02*
X175700000Y-75450000D01*
X174250000Y-83750000D02*
X175700000Y-83750000D01*
X174250000Y-84850000D02*
X174250000Y-83750000D01*
X175700000Y-75450000D02*
X175700000Y-79600000D01*
X175700000Y-83750000D02*
X175700000Y-79600000D01*
%TO.C,C8*%
X141590000Y-86337500D02*
X141590000Y-91297500D01*
X139290000Y-86337500D02*
X141590000Y-86337500D01*
X141590000Y-91297500D02*
X139290000Y-91297500D01*
X139290000Y-91297500D02*
X139290000Y-86337500D01*
%TO.C,GOAL_USER1*%
X135380000Y-108750000D02*
X141530000Y-108750000D01*
X141530000Y-108750000D02*
X141530000Y-105150000D01*
X135380000Y-105150000D02*
X135380000Y-108750000D01*
X141530000Y-105150000D02*
X135380000Y-105150000D01*
%TO.C,C5*%
X177397500Y-90630000D02*
X172437500Y-90630000D01*
X177397500Y-88330000D02*
X177397500Y-90630000D01*
X172437500Y-90630000D02*
X172437500Y-88330000D01*
X172437500Y-88330000D02*
X177397500Y-88330000D01*
%TO.C,H3*%
X132350000Y-140200000D02*
G75*
G03*
X123850000Y-140200000I-4250000J0D01*
G01*
X123850000Y-140200000D02*
G75*
G03*
X132350000Y-140200000I4250000J0D01*
G01*
%TO.C,H1*%
X132750000Y-43900000D02*
G75*
G03*
X124250000Y-43900000I-4250000J0D01*
G01*
X124250000Y-43900000D02*
G75*
G03*
X132750000Y-43900000I4250000J0D01*
G01*
%TO.C,R1*%
X140800000Y-116510000D02*
X135900000Y-116510000D01*
X140800000Y-114270000D02*
X140800000Y-116510000D01*
X135900000Y-116510000D02*
X135900000Y-114270000D01*
X135900000Y-114270000D02*
X140800000Y-114270000D01*
%TO.C,C1*%
X137757500Y-54850000D02*
X142717500Y-54850000D01*
X137757500Y-57150000D02*
X137757500Y-54850000D01*
X142717500Y-54850000D02*
X142717500Y-57150000D01*
X142717500Y-57150000D02*
X137757500Y-57150000D01*
%TO.C,BOOT1*%
X149200000Y-59400000D02*
X149450000Y-59400000D01*
X149200000Y-59650000D02*
X149200000Y-59400000D01*
X149200000Y-66650000D02*
X149200000Y-59650000D01*
X149200000Y-66650000D02*
X149200000Y-66900000D01*
X149200000Y-66900000D02*
X149450000Y-66900000D01*
X149450000Y-59400000D02*
X158450000Y-59400000D01*
X158450000Y-59400000D02*
X158700000Y-59400000D01*
X158450000Y-66900000D02*
X149450000Y-66900000D01*
X158450000Y-66900000D02*
X158700000Y-66900000D01*
X158700000Y-59400000D02*
X158700000Y-59650000D01*
X158700000Y-59650000D02*
X158700000Y-66650000D01*
X158700000Y-66900000D02*
X158700000Y-66650000D01*
%TO.C,SENSOR2*%
X149820000Y-123560000D02*
X181370000Y-123560000D01*
X181370000Y-123560000D02*
X181370000Y-119960000D01*
X149820000Y-119960000D02*
X149820000Y-123560000D01*
X181370000Y-119960000D02*
X149820000Y-119960000D01*
%TO.C,R12*%
X199210000Y-92650000D02*
X204110000Y-92650000D01*
X199210000Y-94890000D02*
X199210000Y-92650000D01*
X204110000Y-92650000D02*
X204110000Y-94890000D01*
X204110000Y-94890000D02*
X199210000Y-94890000D01*
%TO.C,10pin_IDC_SWD1*%
X179550000Y-42540000D02*
X158190000Y-42540000D01*
X158190000Y-42540000D02*
X158190000Y-52440000D01*
X179550000Y-52440000D02*
X179550000Y-42540000D01*
X158190000Y-52440000D02*
X179550000Y-52440000D01*
%TO.C,C3*%
X158817500Y-67710000D02*
X163777500Y-67710000D01*
X158817500Y-70010000D02*
X158817500Y-67710000D01*
X163777500Y-67710000D02*
X163777500Y-70010000D01*
X163777500Y-70010000D02*
X158817500Y-70010000D01*
%TO.C,R11*%
X193690000Y-74120000D02*
X188790000Y-74120000D01*
X193690000Y-71880000D02*
X193690000Y-74120000D01*
X188790000Y-74120000D02*
X188790000Y-71880000D01*
X188790000Y-71880000D02*
X193690000Y-71880000D01*
%TO.C,Serial_Adapter1*%
X188030000Y-50950000D02*
X188030000Y-47400000D01*
X204280000Y-50950000D02*
X188030000Y-50950000D01*
X188030000Y-47400000D02*
X204280000Y-47400000D01*
X204280000Y-47400000D02*
X204280000Y-50950000D01*
%TO.C,H2*%
X217310000Y-44090000D02*
G75*
G03*
X208810000Y-44090000I-4250000J0D01*
G01*
X208810000Y-44090000D02*
G75*
G03*
X217310000Y-44090000I4250000J0D01*
G01*
%TO.C,CLOCK1*%
X156350000Y-79820000D02*
X152950000Y-79820000D01*
X156350000Y-77220000D02*
X156350000Y-79820000D01*
X152950000Y-79820000D02*
X152950000Y-77220000D01*
X152950000Y-77220000D02*
X156350000Y-77220000D01*
%TO.C,R14*%
X199330000Y-98350000D02*
X204230000Y-98350000D01*
X199330000Y-100590000D02*
X199330000Y-98350000D01*
X204230000Y-98350000D02*
X204230000Y-100590000D01*
X204230000Y-100590000D02*
X199330000Y-100590000D01*
%TO.C,R13*%
X199270000Y-95520000D02*
X204170000Y-95520000D01*
X199270000Y-97760000D02*
X199270000Y-95520000D01*
X204170000Y-95520000D02*
X204170000Y-97760000D01*
X204170000Y-97760000D02*
X199270000Y-97760000D01*
%TO.C,R10*%
X193670000Y-76700000D02*
X188770000Y-76700000D01*
X193670000Y-74460000D02*
X193670000Y-76700000D01*
X188770000Y-76700000D02*
X188770000Y-74460000D01*
X188770000Y-74460000D02*
X193670000Y-74460000D01*
%TO.C,RESET1*%
X135150000Y-59450000D02*
X135400000Y-59450000D01*
X135150000Y-59700000D02*
X135150000Y-59450000D01*
X135150000Y-66700000D02*
X135150000Y-59700000D01*
X135150000Y-66700000D02*
X135150000Y-66950000D01*
X135150000Y-66950000D02*
X135400000Y-66950000D01*
X135400000Y-59450000D02*
X144400000Y-59450000D01*
X144400000Y-59450000D02*
X144650000Y-59450000D01*
X144400000Y-66950000D02*
X135400000Y-66950000D01*
X144400000Y-66950000D02*
X144650000Y-66950000D01*
X144650000Y-59450000D02*
X144650000Y-59700000D01*
X144650000Y-59700000D02*
X144650000Y-66700000D01*
X144650000Y-66950000D02*
X144650000Y-66700000D01*
%TO.C,SENSOR3*%
X149740000Y-138090000D02*
X181290000Y-138090000D01*
X181290000Y-138090000D02*
X181290000Y-134490000D01*
X149740000Y-134490000D02*
X149740000Y-138090000D01*
X181290000Y-134490000D02*
X149740000Y-134490000D01*
%TO.C,R7*%
X134950000Y-98950000D02*
X130050000Y-98950000D01*
X134950000Y-96710000D02*
X134950000Y-98950000D01*
X130050000Y-98950000D02*
X130050000Y-96710000D01*
X130050000Y-96710000D02*
X134950000Y-96710000D01*
%TO.C,R8*%
X193660000Y-82090000D02*
X188760000Y-82090000D01*
X193660000Y-79850000D02*
X193660000Y-82090000D01*
X188760000Y-82090000D02*
X188760000Y-79850000D01*
X188760000Y-79850000D02*
X193660000Y-79850000D01*
%TO.C,R4*%
X140900000Y-132020000D02*
X136000000Y-132020000D01*
X140900000Y-129780000D02*
X140900000Y-132020000D01*
X136000000Y-132020000D02*
X136000000Y-129780000D01*
X136000000Y-129780000D02*
X140900000Y-129780000D01*
%TO.C,R2*%
X140800000Y-113220000D02*
X135900000Y-113220000D01*
X140800000Y-110980000D02*
X140800000Y-113220000D01*
X135900000Y-113220000D02*
X135900000Y-110980000D01*
X135900000Y-110980000D02*
X140800000Y-110980000D01*
%TD*%
M02*
