%TF.GenerationSoftware,KiCad,Pcbnew,7.0.10*%
%TF.CreationDate,2024-03-05T14:42:54-05:00*%
%TF.ProjectId,Senior Design,53656e69-6f72-4204-9465-7369676e2e6b,rev?*%
%TF.SameCoordinates,Original*%
%TF.FileFunction,Legend,Top*%
%TF.FilePolarity,Positive*%
%FSLAX46Y46*%
G04 Gerber Fmt 4.6, Leading zero omitted, Abs format (unit mm)*
G04 Created by KiCad (PCBNEW 7.0.10) date 2024-03-05 14:42:54*
%MOMM*%
%LPD*%
G01*
G04 APERTURE LIST*
%ADD10C,0.150000*%
%ADD11C,0.120000*%
G04 APERTURE END LIST*
D10*
X201960588Y-124377438D02*
X201865350Y-124329819D01*
X201865350Y-124329819D02*
X201722493Y-124329819D01*
X201722493Y-124329819D02*
X201579636Y-124377438D01*
X201579636Y-124377438D02*
X201484398Y-124472676D01*
X201484398Y-124472676D02*
X201436779Y-124567914D01*
X201436779Y-124567914D02*
X201389160Y-124758390D01*
X201389160Y-124758390D02*
X201389160Y-124901247D01*
X201389160Y-124901247D02*
X201436779Y-125091723D01*
X201436779Y-125091723D02*
X201484398Y-125186961D01*
X201484398Y-125186961D02*
X201579636Y-125282200D01*
X201579636Y-125282200D02*
X201722493Y-125329819D01*
X201722493Y-125329819D02*
X201817731Y-125329819D01*
X201817731Y-125329819D02*
X201960588Y-125282200D01*
X201960588Y-125282200D02*
X202008207Y-125234580D01*
X202008207Y-125234580D02*
X202008207Y-124901247D01*
X202008207Y-124901247D02*
X201817731Y-124901247D01*
X202436779Y-125329819D02*
X202436779Y-124663152D01*
X202436779Y-124853628D02*
X202484398Y-124758390D01*
X202484398Y-124758390D02*
X202532017Y-124710771D01*
X202532017Y-124710771D02*
X202627255Y-124663152D01*
X202627255Y-124663152D02*
X202722493Y-124663152D01*
X203198684Y-125329819D02*
X203103446Y-125282200D01*
X203103446Y-125282200D02*
X203055827Y-125234580D01*
X203055827Y-125234580D02*
X203008208Y-125139342D01*
X203008208Y-125139342D02*
X203008208Y-124853628D01*
X203008208Y-124853628D02*
X203055827Y-124758390D01*
X203055827Y-124758390D02*
X203103446Y-124710771D01*
X203103446Y-124710771D02*
X203198684Y-124663152D01*
X203198684Y-124663152D02*
X203341541Y-124663152D01*
X203341541Y-124663152D02*
X203436779Y-124710771D01*
X203436779Y-124710771D02*
X203484398Y-124758390D01*
X203484398Y-124758390D02*
X203532017Y-124853628D01*
X203532017Y-124853628D02*
X203532017Y-125139342D01*
X203532017Y-125139342D02*
X203484398Y-125234580D01*
X203484398Y-125234580D02*
X203436779Y-125282200D01*
X203436779Y-125282200D02*
X203341541Y-125329819D01*
X203341541Y-125329819D02*
X203198684Y-125329819D01*
X204389160Y-124663152D02*
X204389160Y-125329819D01*
X203960589Y-124663152D02*
X203960589Y-125186961D01*
X203960589Y-125186961D02*
X204008208Y-125282200D01*
X204008208Y-125282200D02*
X204103446Y-125329819D01*
X204103446Y-125329819D02*
X204246303Y-125329819D01*
X204246303Y-125329819D02*
X204341541Y-125282200D01*
X204341541Y-125282200D02*
X204389160Y-125234580D01*
X204865351Y-124663152D02*
X204865351Y-125663152D01*
X204865351Y-124710771D02*
X204960589Y-124663152D01*
X204960589Y-124663152D02*
X205151065Y-124663152D01*
X205151065Y-124663152D02*
X205246303Y-124710771D01*
X205246303Y-124710771D02*
X205293922Y-124758390D01*
X205293922Y-124758390D02*
X205341541Y-124853628D01*
X205341541Y-124853628D02*
X205341541Y-125139342D01*
X205341541Y-125139342D02*
X205293922Y-125234580D01*
X205293922Y-125234580D02*
X205246303Y-125282200D01*
X205246303Y-125282200D02*
X205151065Y-125329819D01*
X205151065Y-125329819D02*
X204960589Y-125329819D01*
X204960589Y-125329819D02*
X204865351Y-125282200D01*
X206532018Y-125329819D02*
X206532018Y-124329819D01*
X206532018Y-124329819D02*
X206865351Y-125044104D01*
X206865351Y-125044104D02*
X207198684Y-124329819D01*
X207198684Y-124329819D02*
X207198684Y-125329819D01*
X208055827Y-125282200D02*
X207960589Y-125329819D01*
X207960589Y-125329819D02*
X207770113Y-125329819D01*
X207770113Y-125329819D02*
X207674875Y-125282200D01*
X207674875Y-125282200D02*
X207627256Y-125186961D01*
X207627256Y-125186961D02*
X207627256Y-124806009D01*
X207627256Y-124806009D02*
X207674875Y-124710771D01*
X207674875Y-124710771D02*
X207770113Y-124663152D01*
X207770113Y-124663152D02*
X207960589Y-124663152D01*
X207960589Y-124663152D02*
X208055827Y-124710771D01*
X208055827Y-124710771D02*
X208103446Y-124806009D01*
X208103446Y-124806009D02*
X208103446Y-124901247D01*
X208103446Y-124901247D02*
X207627256Y-124996485D01*
X208532018Y-125329819D02*
X208532018Y-124663152D01*
X208532018Y-124758390D02*
X208579637Y-124710771D01*
X208579637Y-124710771D02*
X208674875Y-124663152D01*
X208674875Y-124663152D02*
X208817732Y-124663152D01*
X208817732Y-124663152D02*
X208912970Y-124710771D01*
X208912970Y-124710771D02*
X208960589Y-124806009D01*
X208960589Y-124806009D02*
X208960589Y-125329819D01*
X208960589Y-124806009D02*
X209008208Y-124710771D01*
X209008208Y-124710771D02*
X209103446Y-124663152D01*
X209103446Y-124663152D02*
X209246303Y-124663152D01*
X209246303Y-124663152D02*
X209341542Y-124710771D01*
X209341542Y-124710771D02*
X209389161Y-124806009D01*
X209389161Y-124806009D02*
X209389161Y-125329819D01*
X209865351Y-125329819D02*
X209865351Y-124329819D01*
X209865351Y-124710771D02*
X209960589Y-124663152D01*
X209960589Y-124663152D02*
X210151065Y-124663152D01*
X210151065Y-124663152D02*
X210246303Y-124710771D01*
X210246303Y-124710771D02*
X210293922Y-124758390D01*
X210293922Y-124758390D02*
X210341541Y-124853628D01*
X210341541Y-124853628D02*
X210341541Y-125139342D01*
X210341541Y-125139342D02*
X210293922Y-125234580D01*
X210293922Y-125234580D02*
X210246303Y-125282200D01*
X210246303Y-125282200D02*
X210151065Y-125329819D01*
X210151065Y-125329819D02*
X209960589Y-125329819D01*
X209960589Y-125329819D02*
X209865351Y-125282200D01*
X211151065Y-125282200D02*
X211055827Y-125329819D01*
X211055827Y-125329819D02*
X210865351Y-125329819D01*
X210865351Y-125329819D02*
X210770113Y-125282200D01*
X210770113Y-125282200D02*
X210722494Y-125186961D01*
X210722494Y-125186961D02*
X210722494Y-124806009D01*
X210722494Y-124806009D02*
X210770113Y-124710771D01*
X210770113Y-124710771D02*
X210865351Y-124663152D01*
X210865351Y-124663152D02*
X211055827Y-124663152D01*
X211055827Y-124663152D02*
X211151065Y-124710771D01*
X211151065Y-124710771D02*
X211198684Y-124806009D01*
X211198684Y-124806009D02*
X211198684Y-124901247D01*
X211198684Y-124901247D02*
X210722494Y-124996485D01*
X211627256Y-125329819D02*
X211627256Y-124663152D01*
X211627256Y-124853628D02*
X211674875Y-124758390D01*
X211674875Y-124758390D02*
X211722494Y-124710771D01*
X211722494Y-124710771D02*
X211817732Y-124663152D01*
X211817732Y-124663152D02*
X211912970Y-124663152D01*
X212198685Y-125282200D02*
X212293923Y-125329819D01*
X212293923Y-125329819D02*
X212484399Y-125329819D01*
X212484399Y-125329819D02*
X212579637Y-125282200D01*
X212579637Y-125282200D02*
X212627256Y-125186961D01*
X212627256Y-125186961D02*
X212627256Y-125139342D01*
X212627256Y-125139342D02*
X212579637Y-125044104D01*
X212579637Y-125044104D02*
X212484399Y-124996485D01*
X212484399Y-124996485D02*
X212341542Y-124996485D01*
X212341542Y-124996485D02*
X212246304Y-124948866D01*
X212246304Y-124948866D02*
X212198685Y-124853628D01*
X212198685Y-124853628D02*
X212198685Y-124806009D01*
X212198685Y-124806009D02*
X212246304Y-124710771D01*
X212246304Y-124710771D02*
X212341542Y-124663152D01*
X212341542Y-124663152D02*
X212484399Y-124663152D01*
X212484399Y-124663152D02*
X212579637Y-124710771D01*
X213055828Y-125234580D02*
X213103447Y-125282200D01*
X213103447Y-125282200D02*
X213055828Y-125329819D01*
X213055828Y-125329819D02*
X213008209Y-125282200D01*
X213008209Y-125282200D02*
X213055828Y-125234580D01*
X213055828Y-125234580D02*
X213055828Y-125329819D01*
X213055828Y-124710771D02*
X213103447Y-124758390D01*
X213103447Y-124758390D02*
X213055828Y-124806009D01*
X213055828Y-124806009D02*
X213008209Y-124758390D01*
X213008209Y-124758390D02*
X213055828Y-124710771D01*
X213055828Y-124710771D02*
X213055828Y-124806009D01*
X202008207Y-126939819D02*
X201674874Y-126463628D01*
X201436779Y-126939819D02*
X201436779Y-125939819D01*
X201436779Y-125939819D02*
X201817731Y-125939819D01*
X201817731Y-125939819D02*
X201912969Y-125987438D01*
X201912969Y-125987438D02*
X201960588Y-126035057D01*
X201960588Y-126035057D02*
X202008207Y-126130295D01*
X202008207Y-126130295D02*
X202008207Y-126273152D01*
X202008207Y-126273152D02*
X201960588Y-126368390D01*
X201960588Y-126368390D02*
X201912969Y-126416009D01*
X201912969Y-126416009D02*
X201817731Y-126463628D01*
X201817731Y-126463628D02*
X201436779Y-126463628D01*
X202865350Y-126273152D02*
X202865350Y-126939819D01*
X202436779Y-126273152D02*
X202436779Y-126796961D01*
X202436779Y-126796961D02*
X202484398Y-126892200D01*
X202484398Y-126892200D02*
X202579636Y-126939819D01*
X202579636Y-126939819D02*
X202722493Y-126939819D01*
X202722493Y-126939819D02*
X202817731Y-126892200D01*
X202817731Y-126892200D02*
X202865350Y-126844580D01*
X203246303Y-126939819D02*
X203770112Y-126273152D01*
X203246303Y-126273152D02*
X203770112Y-126939819D01*
X204151065Y-126939819D02*
X204151065Y-126273152D01*
X204151065Y-125939819D02*
X204103446Y-125987438D01*
X204103446Y-125987438D02*
X204151065Y-126035057D01*
X204151065Y-126035057D02*
X204198684Y-125987438D01*
X204198684Y-125987438D02*
X204151065Y-125939819D01*
X204151065Y-125939819D02*
X204151065Y-126035057D01*
X204627255Y-126273152D02*
X204627255Y-126939819D01*
X204627255Y-126368390D02*
X204674874Y-126320771D01*
X204674874Y-126320771D02*
X204770112Y-126273152D01*
X204770112Y-126273152D02*
X204912969Y-126273152D01*
X204912969Y-126273152D02*
X205008207Y-126320771D01*
X205008207Y-126320771D02*
X205055826Y-126416009D01*
X205055826Y-126416009D02*
X205055826Y-126939819D01*
X206770112Y-126939819D02*
X206293922Y-126939819D01*
X206293922Y-126939819D02*
X206293922Y-125939819D01*
X207103446Y-126939819D02*
X207103446Y-126273152D01*
X207103446Y-125939819D02*
X207055827Y-125987438D01*
X207055827Y-125987438D02*
X207103446Y-126035057D01*
X207103446Y-126035057D02*
X207151065Y-125987438D01*
X207151065Y-125987438D02*
X207103446Y-125939819D01*
X207103446Y-125939819D02*
X207103446Y-126035057D01*
X201341541Y-127549819D02*
X202008207Y-127549819D01*
X202008207Y-127549819D02*
X201341541Y-128549819D01*
X201341541Y-128549819D02*
X202008207Y-128549819D01*
X202389160Y-128549819D02*
X202389160Y-127549819D01*
X202817731Y-128549819D02*
X202817731Y-128026009D01*
X202817731Y-128026009D02*
X202770112Y-127930771D01*
X202770112Y-127930771D02*
X202674874Y-127883152D01*
X202674874Y-127883152D02*
X202532017Y-127883152D01*
X202532017Y-127883152D02*
X202436779Y-127930771D01*
X202436779Y-127930771D02*
X202389160Y-127978390D01*
X203722493Y-127883152D02*
X203722493Y-128549819D01*
X203293922Y-127883152D02*
X203293922Y-128406961D01*
X203293922Y-128406961D02*
X203341541Y-128502200D01*
X203341541Y-128502200D02*
X203436779Y-128549819D01*
X203436779Y-128549819D02*
X203579636Y-128549819D01*
X203579636Y-128549819D02*
X203674874Y-128502200D01*
X203674874Y-128502200D02*
X203722493Y-128454580D01*
X204341541Y-128549819D02*
X204246303Y-128502200D01*
X204246303Y-128502200D02*
X204198684Y-128454580D01*
X204198684Y-128454580D02*
X204151065Y-128359342D01*
X204151065Y-128359342D02*
X204151065Y-128073628D01*
X204151065Y-128073628D02*
X204198684Y-127978390D01*
X204198684Y-127978390D02*
X204246303Y-127930771D01*
X204246303Y-127930771D02*
X204341541Y-127883152D01*
X204341541Y-127883152D02*
X204484398Y-127883152D01*
X204484398Y-127883152D02*
X204579636Y-127930771D01*
X204579636Y-127930771D02*
X204627255Y-127978390D01*
X204627255Y-127978390D02*
X204674874Y-128073628D01*
X204674874Y-128073628D02*
X204674874Y-128359342D01*
X204674874Y-128359342D02*
X204627255Y-128454580D01*
X204627255Y-128454580D02*
X204579636Y-128502200D01*
X204579636Y-128502200D02*
X204484398Y-128549819D01*
X204484398Y-128549819D02*
X204341541Y-128549819D01*
X205532017Y-128502200D02*
X205436779Y-128549819D01*
X205436779Y-128549819D02*
X205246303Y-128549819D01*
X205246303Y-128549819D02*
X205151065Y-128502200D01*
X205151065Y-128502200D02*
X205103446Y-128454580D01*
X205103446Y-128454580D02*
X205055827Y-128359342D01*
X205055827Y-128359342D02*
X205055827Y-128073628D01*
X205055827Y-128073628D02*
X205103446Y-127978390D01*
X205103446Y-127978390D02*
X205151065Y-127930771D01*
X205151065Y-127930771D02*
X205246303Y-127883152D01*
X205246303Y-127883152D02*
X205436779Y-127883152D01*
X205436779Y-127883152D02*
X205532017Y-127930771D01*
X206103446Y-128549819D02*
X206008208Y-128502200D01*
X206008208Y-128502200D02*
X205960589Y-128454580D01*
X205960589Y-128454580D02*
X205912970Y-128359342D01*
X205912970Y-128359342D02*
X205912970Y-128073628D01*
X205912970Y-128073628D02*
X205960589Y-127978390D01*
X205960589Y-127978390D02*
X206008208Y-127930771D01*
X206008208Y-127930771D02*
X206103446Y-127883152D01*
X206103446Y-127883152D02*
X206246303Y-127883152D01*
X206246303Y-127883152D02*
X206341541Y-127930771D01*
X206341541Y-127930771D02*
X206389160Y-127978390D01*
X206389160Y-127978390D02*
X206436779Y-128073628D01*
X206436779Y-128073628D02*
X206436779Y-128359342D01*
X206436779Y-128359342D02*
X206389160Y-128454580D01*
X206389160Y-128454580D02*
X206341541Y-128502200D01*
X206341541Y-128502200D02*
X206246303Y-128549819D01*
X206246303Y-128549819D02*
X206103446Y-128549819D01*
X206865351Y-127883152D02*
X206865351Y-128549819D01*
X206865351Y-127978390D02*
X206912970Y-127930771D01*
X206912970Y-127930771D02*
X207008208Y-127883152D01*
X207008208Y-127883152D02*
X207151065Y-127883152D01*
X207151065Y-127883152D02*
X207246303Y-127930771D01*
X207246303Y-127930771D02*
X207293922Y-128026009D01*
X207293922Y-128026009D02*
X207293922Y-128549819D01*
X208198684Y-127883152D02*
X208198684Y-128692676D01*
X208198684Y-128692676D02*
X208151065Y-128787914D01*
X208151065Y-128787914D02*
X208103446Y-128835533D01*
X208103446Y-128835533D02*
X208008208Y-128883152D01*
X208008208Y-128883152D02*
X207865351Y-128883152D01*
X207865351Y-128883152D02*
X207770113Y-128835533D01*
X208198684Y-128502200D02*
X208103446Y-128549819D01*
X208103446Y-128549819D02*
X207912970Y-128549819D01*
X207912970Y-128549819D02*
X207817732Y-128502200D01*
X207817732Y-128502200D02*
X207770113Y-128454580D01*
X207770113Y-128454580D02*
X207722494Y-128359342D01*
X207722494Y-128359342D02*
X207722494Y-128073628D01*
X207722494Y-128073628D02*
X207770113Y-127978390D01*
X207770113Y-127978390D02*
X207817732Y-127930771D01*
X207817732Y-127930771D02*
X207912970Y-127883152D01*
X207912970Y-127883152D02*
X208103446Y-127883152D01*
X208103446Y-127883152D02*
X208198684Y-127930771D01*
X209912970Y-128549819D02*
X209436780Y-128549819D01*
X209436780Y-128549819D02*
X209436780Y-127549819D01*
X210246304Y-128549819D02*
X210246304Y-127883152D01*
X210246304Y-127549819D02*
X210198685Y-127597438D01*
X210198685Y-127597438D02*
X210246304Y-127645057D01*
X210246304Y-127645057D02*
X210293923Y-127597438D01*
X210293923Y-127597438D02*
X210246304Y-127549819D01*
X210246304Y-127549819D02*
X210246304Y-127645057D01*
X201389160Y-130112200D02*
X201532017Y-130159819D01*
X201532017Y-130159819D02*
X201770112Y-130159819D01*
X201770112Y-130159819D02*
X201865350Y-130112200D01*
X201865350Y-130112200D02*
X201912969Y-130064580D01*
X201912969Y-130064580D02*
X201960588Y-129969342D01*
X201960588Y-129969342D02*
X201960588Y-129874104D01*
X201960588Y-129874104D02*
X201912969Y-129778866D01*
X201912969Y-129778866D02*
X201865350Y-129731247D01*
X201865350Y-129731247D02*
X201770112Y-129683628D01*
X201770112Y-129683628D02*
X201579636Y-129636009D01*
X201579636Y-129636009D02*
X201484398Y-129588390D01*
X201484398Y-129588390D02*
X201436779Y-129540771D01*
X201436779Y-129540771D02*
X201389160Y-129445533D01*
X201389160Y-129445533D02*
X201389160Y-129350295D01*
X201389160Y-129350295D02*
X201436779Y-129255057D01*
X201436779Y-129255057D02*
X201484398Y-129207438D01*
X201484398Y-129207438D02*
X201579636Y-129159819D01*
X201579636Y-129159819D02*
X201817731Y-129159819D01*
X201817731Y-129159819D02*
X201960588Y-129207438D01*
X202389160Y-130159819D02*
X202389160Y-129493152D01*
X202389160Y-129159819D02*
X202341541Y-129207438D01*
X202341541Y-129207438D02*
X202389160Y-129255057D01*
X202389160Y-129255057D02*
X202436779Y-129207438D01*
X202436779Y-129207438D02*
X202389160Y-129159819D01*
X202389160Y-129159819D02*
X202389160Y-129255057D01*
X203008207Y-130159819D02*
X202912969Y-130112200D01*
X202912969Y-130112200D02*
X202865350Y-130016961D01*
X202865350Y-130016961D02*
X202865350Y-129159819D01*
X203389160Y-130159819D02*
X203389160Y-129493152D01*
X203389160Y-129159819D02*
X203341541Y-129207438D01*
X203341541Y-129207438D02*
X203389160Y-129255057D01*
X203389160Y-129255057D02*
X203436779Y-129207438D01*
X203436779Y-129207438D02*
X203389160Y-129159819D01*
X203389160Y-129159819D02*
X203389160Y-129255057D01*
X203865350Y-129493152D02*
X203865350Y-130159819D01*
X203865350Y-129588390D02*
X203912969Y-129540771D01*
X203912969Y-129540771D02*
X204008207Y-129493152D01*
X204008207Y-129493152D02*
X204151064Y-129493152D01*
X204151064Y-129493152D02*
X204246302Y-129540771D01*
X204246302Y-129540771D02*
X204293921Y-129636009D01*
X204293921Y-129636009D02*
X204293921Y-130159819D01*
X206008207Y-130159819D02*
X205532017Y-130159819D01*
X205532017Y-130159819D02*
X205532017Y-129159819D01*
X206341541Y-130159819D02*
X206341541Y-129493152D01*
X206341541Y-129159819D02*
X206293922Y-129207438D01*
X206293922Y-129207438D02*
X206341541Y-129255057D01*
X206341541Y-129255057D02*
X206389160Y-129207438D01*
X206389160Y-129207438D02*
X206341541Y-129159819D01*
X206341541Y-129159819D02*
X206341541Y-129255057D01*
X201912969Y-131769819D02*
X201436779Y-131769819D01*
X201436779Y-131769819D02*
X201436779Y-130769819D01*
X202246303Y-131769819D02*
X202246303Y-131103152D01*
X202246303Y-130769819D02*
X202198684Y-130817438D01*
X202198684Y-130817438D02*
X202246303Y-130865057D01*
X202246303Y-130865057D02*
X202293922Y-130817438D01*
X202293922Y-130817438D02*
X202246303Y-130769819D01*
X202246303Y-130769819D02*
X202246303Y-130865057D01*
X203151064Y-131769819D02*
X203151064Y-131246009D01*
X203151064Y-131246009D02*
X203103445Y-131150771D01*
X203103445Y-131150771D02*
X203008207Y-131103152D01*
X203008207Y-131103152D02*
X202817731Y-131103152D01*
X202817731Y-131103152D02*
X202722493Y-131150771D01*
X203151064Y-131722200D02*
X203055826Y-131769819D01*
X203055826Y-131769819D02*
X202817731Y-131769819D01*
X202817731Y-131769819D02*
X202722493Y-131722200D01*
X202722493Y-131722200D02*
X202674874Y-131626961D01*
X202674874Y-131626961D02*
X202674874Y-131531723D01*
X202674874Y-131531723D02*
X202722493Y-131436485D01*
X202722493Y-131436485D02*
X202817731Y-131388866D01*
X202817731Y-131388866D02*
X203055826Y-131388866D01*
X203055826Y-131388866D02*
X203151064Y-131341247D01*
X203627255Y-131103152D02*
X203627255Y-131769819D01*
X203627255Y-131198390D02*
X203674874Y-131150771D01*
X203674874Y-131150771D02*
X203770112Y-131103152D01*
X203770112Y-131103152D02*
X203912969Y-131103152D01*
X203912969Y-131103152D02*
X204008207Y-131150771D01*
X204008207Y-131150771D02*
X204055826Y-131246009D01*
X204055826Y-131246009D02*
X204055826Y-131769819D01*
X204960588Y-131103152D02*
X204960588Y-131912676D01*
X204960588Y-131912676D02*
X204912969Y-132007914D01*
X204912969Y-132007914D02*
X204865350Y-132055533D01*
X204865350Y-132055533D02*
X204770112Y-132103152D01*
X204770112Y-132103152D02*
X204627255Y-132103152D01*
X204627255Y-132103152D02*
X204532017Y-132055533D01*
X204960588Y-131722200D02*
X204865350Y-131769819D01*
X204865350Y-131769819D02*
X204674874Y-131769819D01*
X204674874Y-131769819D02*
X204579636Y-131722200D01*
X204579636Y-131722200D02*
X204532017Y-131674580D01*
X204532017Y-131674580D02*
X204484398Y-131579342D01*
X204484398Y-131579342D02*
X204484398Y-131293628D01*
X204484398Y-131293628D02*
X204532017Y-131198390D01*
X204532017Y-131198390D02*
X204579636Y-131150771D01*
X204579636Y-131150771D02*
X204674874Y-131103152D01*
X204674874Y-131103152D02*
X204865350Y-131103152D01*
X204865350Y-131103152D02*
X204960588Y-131150771D01*
X205436779Y-131769819D02*
X205436779Y-130769819D01*
X205865350Y-131769819D02*
X205865350Y-131246009D01*
X205865350Y-131246009D02*
X205817731Y-131150771D01*
X205817731Y-131150771D02*
X205722493Y-131103152D01*
X205722493Y-131103152D02*
X205579636Y-131103152D01*
X205579636Y-131103152D02*
X205484398Y-131150771D01*
X205484398Y-131150771D02*
X205436779Y-131198390D01*
X206770112Y-131722200D02*
X206674874Y-131769819D01*
X206674874Y-131769819D02*
X206484398Y-131769819D01*
X206484398Y-131769819D02*
X206389160Y-131722200D01*
X206389160Y-131722200D02*
X206341541Y-131674580D01*
X206341541Y-131674580D02*
X206293922Y-131579342D01*
X206293922Y-131579342D02*
X206293922Y-131293628D01*
X206293922Y-131293628D02*
X206341541Y-131198390D01*
X206341541Y-131198390D02*
X206389160Y-131150771D01*
X206389160Y-131150771D02*
X206484398Y-131103152D01*
X206484398Y-131103152D02*
X206674874Y-131103152D01*
X206674874Y-131103152D02*
X206770112Y-131150771D01*
X207198684Y-131769819D02*
X207198684Y-130769819D01*
X207627255Y-131769819D02*
X207627255Y-131246009D01*
X207627255Y-131246009D02*
X207579636Y-131150771D01*
X207579636Y-131150771D02*
X207484398Y-131103152D01*
X207484398Y-131103152D02*
X207341541Y-131103152D01*
X207341541Y-131103152D02*
X207246303Y-131150771D01*
X207246303Y-131150771D02*
X207198684Y-131198390D01*
X208484398Y-131722200D02*
X208389160Y-131769819D01*
X208389160Y-131769819D02*
X208198684Y-131769819D01*
X208198684Y-131769819D02*
X208103446Y-131722200D01*
X208103446Y-131722200D02*
X208055827Y-131626961D01*
X208055827Y-131626961D02*
X208055827Y-131246009D01*
X208055827Y-131246009D02*
X208103446Y-131150771D01*
X208103446Y-131150771D02*
X208198684Y-131103152D01*
X208198684Y-131103152D02*
X208389160Y-131103152D01*
X208389160Y-131103152D02*
X208484398Y-131150771D01*
X208484398Y-131150771D02*
X208532017Y-131246009D01*
X208532017Y-131246009D02*
X208532017Y-131341247D01*
X208532017Y-131341247D02*
X208055827Y-131436485D01*
X208960589Y-131103152D02*
X208960589Y-131769819D01*
X208960589Y-131198390D02*
X209008208Y-131150771D01*
X209008208Y-131150771D02*
X209103446Y-131103152D01*
X209103446Y-131103152D02*
X209246303Y-131103152D01*
X209246303Y-131103152D02*
X209341541Y-131150771D01*
X209341541Y-131150771D02*
X209389160Y-131246009D01*
X209389160Y-131246009D02*
X209389160Y-131769819D01*
X210293922Y-131103152D02*
X210293922Y-131912676D01*
X210293922Y-131912676D02*
X210246303Y-132007914D01*
X210246303Y-132007914D02*
X210198684Y-132055533D01*
X210198684Y-132055533D02*
X210103446Y-132103152D01*
X210103446Y-132103152D02*
X209960589Y-132103152D01*
X209960589Y-132103152D02*
X209865351Y-132055533D01*
X210293922Y-131722200D02*
X210198684Y-131769819D01*
X210198684Y-131769819D02*
X210008208Y-131769819D01*
X210008208Y-131769819D02*
X209912970Y-131722200D01*
X209912970Y-131722200D02*
X209865351Y-131674580D01*
X209865351Y-131674580D02*
X209817732Y-131579342D01*
X209817732Y-131579342D02*
X209817732Y-131293628D01*
X209817732Y-131293628D02*
X209865351Y-131198390D01*
X209865351Y-131198390D02*
X209912970Y-131150771D01*
X209912970Y-131150771D02*
X210008208Y-131103152D01*
X210008208Y-131103152D02*
X210198684Y-131103152D01*
X210198684Y-131103152D02*
X210293922Y-131150771D01*
X211817732Y-130769819D02*
X211817732Y-131484104D01*
X211817732Y-131484104D02*
X211770113Y-131626961D01*
X211770113Y-131626961D02*
X211674875Y-131722200D01*
X211674875Y-131722200D02*
X211532018Y-131769819D01*
X211532018Y-131769819D02*
X211436780Y-131769819D01*
X212293923Y-131769819D02*
X212293923Y-131103152D01*
X212293923Y-130769819D02*
X212246304Y-130817438D01*
X212246304Y-130817438D02*
X212293923Y-130865057D01*
X212293923Y-130865057D02*
X212341542Y-130817438D01*
X212341542Y-130817438D02*
X212293923Y-130769819D01*
X212293923Y-130769819D02*
X212293923Y-130865057D01*
X213198684Y-131769819D02*
X213198684Y-131246009D01*
X213198684Y-131246009D02*
X213151065Y-131150771D01*
X213151065Y-131150771D02*
X213055827Y-131103152D01*
X213055827Y-131103152D02*
X212865351Y-131103152D01*
X212865351Y-131103152D02*
X212770113Y-131150771D01*
X213198684Y-131722200D02*
X213103446Y-131769819D01*
X213103446Y-131769819D02*
X212865351Y-131769819D01*
X212865351Y-131769819D02*
X212770113Y-131722200D01*
X212770113Y-131722200D02*
X212722494Y-131626961D01*
X212722494Y-131626961D02*
X212722494Y-131531723D01*
X212722494Y-131531723D02*
X212770113Y-131436485D01*
X212770113Y-131436485D02*
X212865351Y-131388866D01*
X212865351Y-131388866D02*
X213103446Y-131388866D01*
X213103446Y-131388866D02*
X213198684Y-131341247D01*
X213674875Y-131103152D02*
X213674875Y-131769819D01*
X213674875Y-131198390D02*
X213722494Y-131150771D01*
X213722494Y-131150771D02*
X213817732Y-131103152D01*
X213817732Y-131103152D02*
X213960589Y-131103152D01*
X213960589Y-131103152D02*
X214055827Y-131150771D01*
X214055827Y-131150771D02*
X214103446Y-131246009D01*
X214103446Y-131246009D02*
X214103446Y-131769819D01*
X215008208Y-131103152D02*
X215008208Y-131912676D01*
X215008208Y-131912676D02*
X214960589Y-132007914D01*
X214960589Y-132007914D02*
X214912970Y-132055533D01*
X214912970Y-132055533D02*
X214817732Y-132103152D01*
X214817732Y-132103152D02*
X214674875Y-132103152D01*
X214674875Y-132103152D02*
X214579637Y-132055533D01*
X215008208Y-131722200D02*
X214912970Y-131769819D01*
X214912970Y-131769819D02*
X214722494Y-131769819D01*
X214722494Y-131769819D02*
X214627256Y-131722200D01*
X214627256Y-131722200D02*
X214579637Y-131674580D01*
X214579637Y-131674580D02*
X214532018Y-131579342D01*
X214532018Y-131579342D02*
X214532018Y-131293628D01*
X214532018Y-131293628D02*
X214579637Y-131198390D01*
X214579637Y-131198390D02*
X214627256Y-131150771D01*
X214627256Y-131150771D02*
X214722494Y-131103152D01*
X214722494Y-131103152D02*
X214912970Y-131103152D01*
X214912970Y-131103152D02*
X215008208Y-131150771D01*
X136036779Y-40606009D02*
X136370112Y-40606009D01*
X136512969Y-41129819D02*
X136036779Y-41129819D01*
X136036779Y-41129819D02*
X136036779Y-40129819D01*
X136036779Y-40129819D02*
X136512969Y-40129819D01*
X137512969Y-41034580D02*
X137465350Y-41082200D01*
X137465350Y-41082200D02*
X137322493Y-41129819D01*
X137322493Y-41129819D02*
X137227255Y-41129819D01*
X137227255Y-41129819D02*
X137084398Y-41082200D01*
X137084398Y-41082200D02*
X136989160Y-40986961D01*
X136989160Y-40986961D02*
X136941541Y-40891723D01*
X136941541Y-40891723D02*
X136893922Y-40701247D01*
X136893922Y-40701247D02*
X136893922Y-40558390D01*
X136893922Y-40558390D02*
X136941541Y-40367914D01*
X136941541Y-40367914D02*
X136989160Y-40272676D01*
X136989160Y-40272676D02*
X137084398Y-40177438D01*
X137084398Y-40177438D02*
X137227255Y-40129819D01*
X137227255Y-40129819D02*
X137322493Y-40129819D01*
X137322493Y-40129819D02*
X137465350Y-40177438D01*
X137465350Y-40177438D02*
X137512969Y-40225057D01*
X137941541Y-40606009D02*
X138274874Y-40606009D01*
X138417731Y-41129819D02*
X137941541Y-41129819D01*
X137941541Y-41129819D02*
X137941541Y-40129819D01*
X137941541Y-40129819D02*
X138417731Y-40129819D01*
X139274874Y-40463152D02*
X139274874Y-41129819D01*
X139036779Y-40082200D02*
X138798684Y-40796485D01*
X138798684Y-40796485D02*
X139417731Y-40796485D01*
X139703446Y-40129819D02*
X140370112Y-40129819D01*
X140370112Y-40129819D02*
X139941541Y-41129819D01*
X140655827Y-40129819D02*
X141322493Y-40129819D01*
X141322493Y-40129819D02*
X140893922Y-41129819D01*
X135989160Y-42692200D02*
X136132017Y-42739819D01*
X136132017Y-42739819D02*
X136370112Y-42739819D01*
X136370112Y-42739819D02*
X136465350Y-42692200D01*
X136465350Y-42692200D02*
X136512969Y-42644580D01*
X136512969Y-42644580D02*
X136560588Y-42549342D01*
X136560588Y-42549342D02*
X136560588Y-42454104D01*
X136560588Y-42454104D02*
X136512969Y-42358866D01*
X136512969Y-42358866D02*
X136465350Y-42311247D01*
X136465350Y-42311247D02*
X136370112Y-42263628D01*
X136370112Y-42263628D02*
X136179636Y-42216009D01*
X136179636Y-42216009D02*
X136084398Y-42168390D01*
X136084398Y-42168390D02*
X136036779Y-42120771D01*
X136036779Y-42120771D02*
X135989160Y-42025533D01*
X135989160Y-42025533D02*
X135989160Y-41930295D01*
X135989160Y-41930295D02*
X136036779Y-41835057D01*
X136036779Y-41835057D02*
X136084398Y-41787438D01*
X136084398Y-41787438D02*
X136179636Y-41739819D01*
X136179636Y-41739819D02*
X136417731Y-41739819D01*
X136417731Y-41739819D02*
X136560588Y-41787438D01*
X136989160Y-42073152D02*
X136989160Y-43073152D01*
X136989160Y-42120771D02*
X137084398Y-42073152D01*
X137084398Y-42073152D02*
X137274874Y-42073152D01*
X137274874Y-42073152D02*
X137370112Y-42120771D01*
X137370112Y-42120771D02*
X137417731Y-42168390D01*
X137417731Y-42168390D02*
X137465350Y-42263628D01*
X137465350Y-42263628D02*
X137465350Y-42549342D01*
X137465350Y-42549342D02*
X137417731Y-42644580D01*
X137417731Y-42644580D02*
X137370112Y-42692200D01*
X137370112Y-42692200D02*
X137274874Y-42739819D01*
X137274874Y-42739819D02*
X137084398Y-42739819D01*
X137084398Y-42739819D02*
X136989160Y-42692200D01*
X137893922Y-42739819D02*
X137893922Y-42073152D01*
X137893922Y-42263628D02*
X137941541Y-42168390D01*
X137941541Y-42168390D02*
X137989160Y-42120771D01*
X137989160Y-42120771D02*
X138084398Y-42073152D01*
X138084398Y-42073152D02*
X138179636Y-42073152D01*
X138512970Y-42739819D02*
X138512970Y-42073152D01*
X138512970Y-41739819D02*
X138465351Y-41787438D01*
X138465351Y-41787438D02*
X138512970Y-41835057D01*
X138512970Y-41835057D02*
X138560589Y-41787438D01*
X138560589Y-41787438D02*
X138512970Y-41739819D01*
X138512970Y-41739819D02*
X138512970Y-41835057D01*
X138989160Y-42073152D02*
X138989160Y-42739819D01*
X138989160Y-42168390D02*
X139036779Y-42120771D01*
X139036779Y-42120771D02*
X139132017Y-42073152D01*
X139132017Y-42073152D02*
X139274874Y-42073152D01*
X139274874Y-42073152D02*
X139370112Y-42120771D01*
X139370112Y-42120771D02*
X139417731Y-42216009D01*
X139417731Y-42216009D02*
X139417731Y-42739819D01*
X140322493Y-42073152D02*
X140322493Y-42882676D01*
X140322493Y-42882676D02*
X140274874Y-42977914D01*
X140274874Y-42977914D02*
X140227255Y-43025533D01*
X140227255Y-43025533D02*
X140132017Y-43073152D01*
X140132017Y-43073152D02*
X139989160Y-43073152D01*
X139989160Y-43073152D02*
X139893922Y-43025533D01*
X140322493Y-42692200D02*
X140227255Y-42739819D01*
X140227255Y-42739819D02*
X140036779Y-42739819D01*
X140036779Y-42739819D02*
X139941541Y-42692200D01*
X139941541Y-42692200D02*
X139893922Y-42644580D01*
X139893922Y-42644580D02*
X139846303Y-42549342D01*
X139846303Y-42549342D02*
X139846303Y-42263628D01*
X139846303Y-42263628D02*
X139893922Y-42168390D01*
X139893922Y-42168390D02*
X139941541Y-42120771D01*
X139941541Y-42120771D02*
X140036779Y-42073152D01*
X140036779Y-42073152D02*
X140227255Y-42073152D01*
X140227255Y-42073152D02*
X140322493Y-42120771D01*
X141512970Y-41835057D02*
X141560589Y-41787438D01*
X141560589Y-41787438D02*
X141655827Y-41739819D01*
X141655827Y-41739819D02*
X141893922Y-41739819D01*
X141893922Y-41739819D02*
X141989160Y-41787438D01*
X141989160Y-41787438D02*
X142036779Y-41835057D01*
X142036779Y-41835057D02*
X142084398Y-41930295D01*
X142084398Y-41930295D02*
X142084398Y-42025533D01*
X142084398Y-42025533D02*
X142036779Y-42168390D01*
X142036779Y-42168390D02*
X141465351Y-42739819D01*
X141465351Y-42739819D02*
X142084398Y-42739819D01*
X142703446Y-41739819D02*
X142798684Y-41739819D01*
X142798684Y-41739819D02*
X142893922Y-41787438D01*
X142893922Y-41787438D02*
X142941541Y-41835057D01*
X142941541Y-41835057D02*
X142989160Y-41930295D01*
X142989160Y-41930295D02*
X143036779Y-42120771D01*
X143036779Y-42120771D02*
X143036779Y-42358866D01*
X143036779Y-42358866D02*
X142989160Y-42549342D01*
X142989160Y-42549342D02*
X142941541Y-42644580D01*
X142941541Y-42644580D02*
X142893922Y-42692200D01*
X142893922Y-42692200D02*
X142798684Y-42739819D01*
X142798684Y-42739819D02*
X142703446Y-42739819D01*
X142703446Y-42739819D02*
X142608208Y-42692200D01*
X142608208Y-42692200D02*
X142560589Y-42644580D01*
X142560589Y-42644580D02*
X142512970Y-42549342D01*
X142512970Y-42549342D02*
X142465351Y-42358866D01*
X142465351Y-42358866D02*
X142465351Y-42120771D01*
X142465351Y-42120771D02*
X142512970Y-41930295D01*
X142512970Y-41930295D02*
X142560589Y-41835057D01*
X142560589Y-41835057D02*
X142608208Y-41787438D01*
X142608208Y-41787438D02*
X142703446Y-41739819D01*
X143417732Y-41835057D02*
X143465351Y-41787438D01*
X143465351Y-41787438D02*
X143560589Y-41739819D01*
X143560589Y-41739819D02*
X143798684Y-41739819D01*
X143798684Y-41739819D02*
X143893922Y-41787438D01*
X143893922Y-41787438D02*
X143941541Y-41835057D01*
X143941541Y-41835057D02*
X143989160Y-41930295D01*
X143989160Y-41930295D02*
X143989160Y-42025533D01*
X143989160Y-42025533D02*
X143941541Y-42168390D01*
X143941541Y-42168390D02*
X143370113Y-42739819D01*
X143370113Y-42739819D02*
X143989160Y-42739819D01*
X144846303Y-42073152D02*
X144846303Y-42739819D01*
X144608208Y-41692200D02*
X144370113Y-42406485D01*
X144370113Y-42406485D02*
X144989160Y-42406485D01*
X136560588Y-43397438D02*
X136465350Y-43349819D01*
X136465350Y-43349819D02*
X136322493Y-43349819D01*
X136322493Y-43349819D02*
X136179636Y-43397438D01*
X136179636Y-43397438D02*
X136084398Y-43492676D01*
X136084398Y-43492676D02*
X136036779Y-43587914D01*
X136036779Y-43587914D02*
X135989160Y-43778390D01*
X135989160Y-43778390D02*
X135989160Y-43921247D01*
X135989160Y-43921247D02*
X136036779Y-44111723D01*
X136036779Y-44111723D02*
X136084398Y-44206961D01*
X136084398Y-44206961D02*
X136179636Y-44302200D01*
X136179636Y-44302200D02*
X136322493Y-44349819D01*
X136322493Y-44349819D02*
X136417731Y-44349819D01*
X136417731Y-44349819D02*
X136560588Y-44302200D01*
X136560588Y-44302200D02*
X136608207Y-44254580D01*
X136608207Y-44254580D02*
X136608207Y-43921247D01*
X136608207Y-43921247D02*
X136417731Y-43921247D01*
X137036779Y-44349819D02*
X137036779Y-43683152D01*
X137036779Y-43873628D02*
X137084398Y-43778390D01*
X137084398Y-43778390D02*
X137132017Y-43730771D01*
X137132017Y-43730771D02*
X137227255Y-43683152D01*
X137227255Y-43683152D02*
X137322493Y-43683152D01*
X137798684Y-44349819D02*
X137703446Y-44302200D01*
X137703446Y-44302200D02*
X137655827Y-44254580D01*
X137655827Y-44254580D02*
X137608208Y-44159342D01*
X137608208Y-44159342D02*
X137608208Y-43873628D01*
X137608208Y-43873628D02*
X137655827Y-43778390D01*
X137655827Y-43778390D02*
X137703446Y-43730771D01*
X137703446Y-43730771D02*
X137798684Y-43683152D01*
X137798684Y-43683152D02*
X137941541Y-43683152D01*
X137941541Y-43683152D02*
X138036779Y-43730771D01*
X138036779Y-43730771D02*
X138084398Y-43778390D01*
X138084398Y-43778390D02*
X138132017Y-43873628D01*
X138132017Y-43873628D02*
X138132017Y-44159342D01*
X138132017Y-44159342D02*
X138084398Y-44254580D01*
X138084398Y-44254580D02*
X138036779Y-44302200D01*
X138036779Y-44302200D02*
X137941541Y-44349819D01*
X137941541Y-44349819D02*
X137798684Y-44349819D01*
X138989160Y-43683152D02*
X138989160Y-44349819D01*
X138560589Y-43683152D02*
X138560589Y-44206961D01*
X138560589Y-44206961D02*
X138608208Y-44302200D01*
X138608208Y-44302200D02*
X138703446Y-44349819D01*
X138703446Y-44349819D02*
X138846303Y-44349819D01*
X138846303Y-44349819D02*
X138941541Y-44302200D01*
X138941541Y-44302200D02*
X138989160Y-44254580D01*
X139465351Y-43683152D02*
X139465351Y-44683152D01*
X139465351Y-43730771D02*
X139560589Y-43683152D01*
X139560589Y-43683152D02*
X139751065Y-43683152D01*
X139751065Y-43683152D02*
X139846303Y-43730771D01*
X139846303Y-43730771D02*
X139893922Y-43778390D01*
X139893922Y-43778390D02*
X139941541Y-43873628D01*
X139941541Y-43873628D02*
X139941541Y-44159342D01*
X139941541Y-44159342D02*
X139893922Y-44254580D01*
X139893922Y-44254580D02*
X139846303Y-44302200D01*
X139846303Y-44302200D02*
X139751065Y-44349819D01*
X139751065Y-44349819D02*
X139560589Y-44349819D01*
X139560589Y-44349819D02*
X139465351Y-44302200D01*
X141179637Y-44349819D02*
X141370113Y-44349819D01*
X141370113Y-44349819D02*
X141465351Y-44302200D01*
X141465351Y-44302200D02*
X141512970Y-44254580D01*
X141512970Y-44254580D02*
X141608208Y-44111723D01*
X141608208Y-44111723D02*
X141655827Y-43921247D01*
X141655827Y-43921247D02*
X141655827Y-43540295D01*
X141655827Y-43540295D02*
X141608208Y-43445057D01*
X141608208Y-43445057D02*
X141560589Y-43397438D01*
X141560589Y-43397438D02*
X141465351Y-43349819D01*
X141465351Y-43349819D02*
X141274875Y-43349819D01*
X141274875Y-43349819D02*
X141179637Y-43397438D01*
X141179637Y-43397438D02*
X141132018Y-43445057D01*
X141132018Y-43445057D02*
X141084399Y-43540295D01*
X141084399Y-43540295D02*
X141084399Y-43778390D01*
X141084399Y-43778390D02*
X141132018Y-43873628D01*
X141132018Y-43873628D02*
X141179637Y-43921247D01*
X141179637Y-43921247D02*
X141274875Y-43968866D01*
X141274875Y-43968866D02*
X141465351Y-43968866D01*
X141465351Y-43968866D02*
X141560589Y-43921247D01*
X141560589Y-43921247D02*
X141608208Y-43873628D01*
X141608208Y-43873628D02*
X141655827Y-43778390D01*
X136036779Y-45959819D02*
X136036779Y-44959819D01*
X136036779Y-44959819D02*
X136370112Y-45674104D01*
X136370112Y-45674104D02*
X136703445Y-44959819D01*
X136703445Y-44959819D02*
X136703445Y-45959819D01*
X137608207Y-45959819D02*
X137608207Y-45436009D01*
X137608207Y-45436009D02*
X137560588Y-45340771D01*
X137560588Y-45340771D02*
X137465350Y-45293152D01*
X137465350Y-45293152D02*
X137274874Y-45293152D01*
X137274874Y-45293152D02*
X137179636Y-45340771D01*
X137608207Y-45912200D02*
X137512969Y-45959819D01*
X137512969Y-45959819D02*
X137274874Y-45959819D01*
X137274874Y-45959819D02*
X137179636Y-45912200D01*
X137179636Y-45912200D02*
X137132017Y-45816961D01*
X137132017Y-45816961D02*
X137132017Y-45721723D01*
X137132017Y-45721723D02*
X137179636Y-45626485D01*
X137179636Y-45626485D02*
X137274874Y-45578866D01*
X137274874Y-45578866D02*
X137512969Y-45578866D01*
X137512969Y-45578866D02*
X137608207Y-45531247D01*
X138084398Y-45959819D02*
X138084398Y-45293152D01*
X138084398Y-44959819D02*
X138036779Y-45007438D01*
X138036779Y-45007438D02*
X138084398Y-45055057D01*
X138084398Y-45055057D02*
X138132017Y-45007438D01*
X138132017Y-45007438D02*
X138084398Y-44959819D01*
X138084398Y-44959819D02*
X138084398Y-45055057D01*
X138560588Y-45293152D02*
X138560588Y-45959819D01*
X138560588Y-45388390D02*
X138608207Y-45340771D01*
X138608207Y-45340771D02*
X138703445Y-45293152D01*
X138703445Y-45293152D02*
X138846302Y-45293152D01*
X138846302Y-45293152D02*
X138941540Y-45340771D01*
X138941540Y-45340771D02*
X138989159Y-45436009D01*
X138989159Y-45436009D02*
X138989159Y-45959819D01*
X140798683Y-45864580D02*
X140751064Y-45912200D01*
X140751064Y-45912200D02*
X140608207Y-45959819D01*
X140608207Y-45959819D02*
X140512969Y-45959819D01*
X140512969Y-45959819D02*
X140370112Y-45912200D01*
X140370112Y-45912200D02*
X140274874Y-45816961D01*
X140274874Y-45816961D02*
X140227255Y-45721723D01*
X140227255Y-45721723D02*
X140179636Y-45531247D01*
X140179636Y-45531247D02*
X140179636Y-45388390D01*
X140179636Y-45388390D02*
X140227255Y-45197914D01*
X140227255Y-45197914D02*
X140274874Y-45102676D01*
X140274874Y-45102676D02*
X140370112Y-45007438D01*
X140370112Y-45007438D02*
X140512969Y-44959819D01*
X140512969Y-44959819D02*
X140608207Y-44959819D01*
X140608207Y-44959819D02*
X140751064Y-45007438D01*
X140751064Y-45007438D02*
X140798683Y-45055057D01*
X141370112Y-45959819D02*
X141274874Y-45912200D01*
X141274874Y-45912200D02*
X141227255Y-45864580D01*
X141227255Y-45864580D02*
X141179636Y-45769342D01*
X141179636Y-45769342D02*
X141179636Y-45483628D01*
X141179636Y-45483628D02*
X141227255Y-45388390D01*
X141227255Y-45388390D02*
X141274874Y-45340771D01*
X141274874Y-45340771D02*
X141370112Y-45293152D01*
X141370112Y-45293152D02*
X141512969Y-45293152D01*
X141512969Y-45293152D02*
X141608207Y-45340771D01*
X141608207Y-45340771D02*
X141655826Y-45388390D01*
X141655826Y-45388390D02*
X141703445Y-45483628D01*
X141703445Y-45483628D02*
X141703445Y-45769342D01*
X141703445Y-45769342D02*
X141655826Y-45864580D01*
X141655826Y-45864580D02*
X141608207Y-45912200D01*
X141608207Y-45912200D02*
X141512969Y-45959819D01*
X141512969Y-45959819D02*
X141370112Y-45959819D01*
X142132017Y-45293152D02*
X142132017Y-45959819D01*
X142132017Y-45388390D02*
X142179636Y-45340771D01*
X142179636Y-45340771D02*
X142274874Y-45293152D01*
X142274874Y-45293152D02*
X142417731Y-45293152D01*
X142417731Y-45293152D02*
X142512969Y-45340771D01*
X142512969Y-45340771D02*
X142560588Y-45436009D01*
X142560588Y-45436009D02*
X142560588Y-45959819D01*
X142893922Y-45293152D02*
X143274874Y-45293152D01*
X143036779Y-44959819D02*
X143036779Y-45816961D01*
X143036779Y-45816961D02*
X143084398Y-45912200D01*
X143084398Y-45912200D02*
X143179636Y-45959819D01*
X143179636Y-45959819D02*
X143274874Y-45959819D01*
X143608208Y-45959819D02*
X143608208Y-45293152D01*
X143608208Y-45483628D02*
X143655827Y-45388390D01*
X143655827Y-45388390D02*
X143703446Y-45340771D01*
X143703446Y-45340771D02*
X143798684Y-45293152D01*
X143798684Y-45293152D02*
X143893922Y-45293152D01*
X144370113Y-45959819D02*
X144274875Y-45912200D01*
X144274875Y-45912200D02*
X144227256Y-45864580D01*
X144227256Y-45864580D02*
X144179637Y-45769342D01*
X144179637Y-45769342D02*
X144179637Y-45483628D01*
X144179637Y-45483628D02*
X144227256Y-45388390D01*
X144227256Y-45388390D02*
X144274875Y-45340771D01*
X144274875Y-45340771D02*
X144370113Y-45293152D01*
X144370113Y-45293152D02*
X144512970Y-45293152D01*
X144512970Y-45293152D02*
X144608208Y-45340771D01*
X144608208Y-45340771D02*
X144655827Y-45388390D01*
X144655827Y-45388390D02*
X144703446Y-45483628D01*
X144703446Y-45483628D02*
X144703446Y-45769342D01*
X144703446Y-45769342D02*
X144655827Y-45864580D01*
X144655827Y-45864580D02*
X144608208Y-45912200D01*
X144608208Y-45912200D02*
X144512970Y-45959819D01*
X144512970Y-45959819D02*
X144370113Y-45959819D01*
X145274875Y-45959819D02*
X145179637Y-45912200D01*
X145179637Y-45912200D02*
X145132018Y-45816961D01*
X145132018Y-45816961D02*
X145132018Y-44959819D01*
X146751066Y-45436009D02*
X146893923Y-45483628D01*
X146893923Y-45483628D02*
X146941542Y-45531247D01*
X146941542Y-45531247D02*
X146989161Y-45626485D01*
X146989161Y-45626485D02*
X146989161Y-45769342D01*
X146989161Y-45769342D02*
X146941542Y-45864580D01*
X146941542Y-45864580D02*
X146893923Y-45912200D01*
X146893923Y-45912200D02*
X146798685Y-45959819D01*
X146798685Y-45959819D02*
X146417733Y-45959819D01*
X146417733Y-45959819D02*
X146417733Y-44959819D01*
X146417733Y-44959819D02*
X146751066Y-44959819D01*
X146751066Y-44959819D02*
X146846304Y-45007438D01*
X146846304Y-45007438D02*
X146893923Y-45055057D01*
X146893923Y-45055057D02*
X146941542Y-45150295D01*
X146941542Y-45150295D02*
X146941542Y-45245533D01*
X146941542Y-45245533D02*
X146893923Y-45340771D01*
X146893923Y-45340771D02*
X146846304Y-45388390D01*
X146846304Y-45388390D02*
X146751066Y-45436009D01*
X146751066Y-45436009D02*
X146417733Y-45436009D01*
X147560590Y-45959819D02*
X147465352Y-45912200D01*
X147465352Y-45912200D02*
X147417733Y-45864580D01*
X147417733Y-45864580D02*
X147370114Y-45769342D01*
X147370114Y-45769342D02*
X147370114Y-45483628D01*
X147370114Y-45483628D02*
X147417733Y-45388390D01*
X147417733Y-45388390D02*
X147465352Y-45340771D01*
X147465352Y-45340771D02*
X147560590Y-45293152D01*
X147560590Y-45293152D02*
X147703447Y-45293152D01*
X147703447Y-45293152D02*
X147798685Y-45340771D01*
X147798685Y-45340771D02*
X147846304Y-45388390D01*
X147846304Y-45388390D02*
X147893923Y-45483628D01*
X147893923Y-45483628D02*
X147893923Y-45769342D01*
X147893923Y-45769342D02*
X147846304Y-45864580D01*
X147846304Y-45864580D02*
X147798685Y-45912200D01*
X147798685Y-45912200D02*
X147703447Y-45959819D01*
X147703447Y-45959819D02*
X147560590Y-45959819D01*
X148751066Y-45959819D02*
X148751066Y-45436009D01*
X148751066Y-45436009D02*
X148703447Y-45340771D01*
X148703447Y-45340771D02*
X148608209Y-45293152D01*
X148608209Y-45293152D02*
X148417733Y-45293152D01*
X148417733Y-45293152D02*
X148322495Y-45340771D01*
X148751066Y-45912200D02*
X148655828Y-45959819D01*
X148655828Y-45959819D02*
X148417733Y-45959819D01*
X148417733Y-45959819D02*
X148322495Y-45912200D01*
X148322495Y-45912200D02*
X148274876Y-45816961D01*
X148274876Y-45816961D02*
X148274876Y-45721723D01*
X148274876Y-45721723D02*
X148322495Y-45626485D01*
X148322495Y-45626485D02*
X148417733Y-45578866D01*
X148417733Y-45578866D02*
X148655828Y-45578866D01*
X148655828Y-45578866D02*
X148751066Y-45531247D01*
X149227257Y-45959819D02*
X149227257Y-45293152D01*
X149227257Y-45483628D02*
X149274876Y-45388390D01*
X149274876Y-45388390D02*
X149322495Y-45340771D01*
X149322495Y-45340771D02*
X149417733Y-45293152D01*
X149417733Y-45293152D02*
X149512971Y-45293152D01*
X150274876Y-45959819D02*
X150274876Y-44959819D01*
X150274876Y-45912200D02*
X150179638Y-45959819D01*
X150179638Y-45959819D02*
X149989162Y-45959819D01*
X149989162Y-45959819D02*
X149893924Y-45912200D01*
X149893924Y-45912200D02*
X149846305Y-45864580D01*
X149846305Y-45864580D02*
X149798686Y-45769342D01*
X149798686Y-45769342D02*
X149798686Y-45483628D01*
X149798686Y-45483628D02*
X149846305Y-45388390D01*
X149846305Y-45388390D02*
X149893924Y-45340771D01*
X149893924Y-45340771D02*
X149989162Y-45293152D01*
X149989162Y-45293152D02*
X150179638Y-45293152D01*
X150179638Y-45293152D02*
X150274876Y-45340771D01*
X136512969Y-47569819D02*
X136036779Y-47569819D01*
X136036779Y-47569819D02*
X136036779Y-46569819D01*
X137274874Y-47569819D02*
X137274874Y-47046009D01*
X137274874Y-47046009D02*
X137227255Y-46950771D01*
X137227255Y-46950771D02*
X137132017Y-46903152D01*
X137132017Y-46903152D02*
X136941541Y-46903152D01*
X136941541Y-46903152D02*
X136846303Y-46950771D01*
X137274874Y-47522200D02*
X137179636Y-47569819D01*
X137179636Y-47569819D02*
X136941541Y-47569819D01*
X136941541Y-47569819D02*
X136846303Y-47522200D01*
X136846303Y-47522200D02*
X136798684Y-47426961D01*
X136798684Y-47426961D02*
X136798684Y-47331723D01*
X136798684Y-47331723D02*
X136846303Y-47236485D01*
X136846303Y-47236485D02*
X136941541Y-47188866D01*
X136941541Y-47188866D02*
X137179636Y-47188866D01*
X137179636Y-47188866D02*
X137274874Y-47141247D01*
X137703446Y-47522200D02*
X137798684Y-47569819D01*
X137798684Y-47569819D02*
X137989160Y-47569819D01*
X137989160Y-47569819D02*
X138084398Y-47522200D01*
X138084398Y-47522200D02*
X138132017Y-47426961D01*
X138132017Y-47426961D02*
X138132017Y-47379342D01*
X138132017Y-47379342D02*
X138084398Y-47284104D01*
X138084398Y-47284104D02*
X137989160Y-47236485D01*
X137989160Y-47236485D02*
X137846303Y-47236485D01*
X137846303Y-47236485D02*
X137751065Y-47188866D01*
X137751065Y-47188866D02*
X137703446Y-47093628D01*
X137703446Y-47093628D02*
X137703446Y-47046009D01*
X137703446Y-47046009D02*
X137751065Y-46950771D01*
X137751065Y-46950771D02*
X137846303Y-46903152D01*
X137846303Y-46903152D02*
X137989160Y-46903152D01*
X137989160Y-46903152D02*
X138084398Y-46950771D01*
X138417732Y-46903152D02*
X138798684Y-46903152D01*
X138560589Y-46569819D02*
X138560589Y-47426961D01*
X138560589Y-47426961D02*
X138608208Y-47522200D01*
X138608208Y-47522200D02*
X138703446Y-47569819D01*
X138703446Y-47569819D02*
X138798684Y-47569819D01*
X139893923Y-47569819D02*
X139893923Y-46569819D01*
X139893923Y-46569819D02*
X140227256Y-47284104D01*
X140227256Y-47284104D02*
X140560589Y-46569819D01*
X140560589Y-46569819D02*
X140560589Y-47569819D01*
X141179637Y-47569819D02*
X141084399Y-47522200D01*
X141084399Y-47522200D02*
X141036780Y-47474580D01*
X141036780Y-47474580D02*
X140989161Y-47379342D01*
X140989161Y-47379342D02*
X140989161Y-47093628D01*
X140989161Y-47093628D02*
X141036780Y-46998390D01*
X141036780Y-46998390D02*
X141084399Y-46950771D01*
X141084399Y-46950771D02*
X141179637Y-46903152D01*
X141179637Y-46903152D02*
X141322494Y-46903152D01*
X141322494Y-46903152D02*
X141417732Y-46950771D01*
X141417732Y-46950771D02*
X141465351Y-46998390D01*
X141465351Y-46998390D02*
X141512970Y-47093628D01*
X141512970Y-47093628D02*
X141512970Y-47379342D01*
X141512970Y-47379342D02*
X141465351Y-47474580D01*
X141465351Y-47474580D02*
X141417732Y-47522200D01*
X141417732Y-47522200D02*
X141322494Y-47569819D01*
X141322494Y-47569819D02*
X141179637Y-47569819D01*
X142370113Y-47569819D02*
X142370113Y-46569819D01*
X142370113Y-47522200D02*
X142274875Y-47569819D01*
X142274875Y-47569819D02*
X142084399Y-47569819D01*
X142084399Y-47569819D02*
X141989161Y-47522200D01*
X141989161Y-47522200D02*
X141941542Y-47474580D01*
X141941542Y-47474580D02*
X141893923Y-47379342D01*
X141893923Y-47379342D02*
X141893923Y-47093628D01*
X141893923Y-47093628D02*
X141941542Y-46998390D01*
X141941542Y-46998390D02*
X141989161Y-46950771D01*
X141989161Y-46950771D02*
X142084399Y-46903152D01*
X142084399Y-46903152D02*
X142274875Y-46903152D01*
X142274875Y-46903152D02*
X142370113Y-46950771D01*
X142846304Y-47569819D02*
X142846304Y-46903152D01*
X142846304Y-46569819D02*
X142798685Y-46617438D01*
X142798685Y-46617438D02*
X142846304Y-46665057D01*
X142846304Y-46665057D02*
X142893923Y-46617438D01*
X142893923Y-46617438D02*
X142846304Y-46569819D01*
X142846304Y-46569819D02*
X142846304Y-46665057D01*
X143179637Y-46903152D02*
X143560589Y-46903152D01*
X143322494Y-47569819D02*
X143322494Y-46712676D01*
X143322494Y-46712676D02*
X143370113Y-46617438D01*
X143370113Y-46617438D02*
X143465351Y-46569819D01*
X143465351Y-46569819D02*
X143560589Y-46569819D01*
X143893923Y-47569819D02*
X143893923Y-46903152D01*
X143893923Y-46569819D02*
X143846304Y-46617438D01*
X143846304Y-46617438D02*
X143893923Y-46665057D01*
X143893923Y-46665057D02*
X143941542Y-46617438D01*
X143941542Y-46617438D02*
X143893923Y-46569819D01*
X143893923Y-46569819D02*
X143893923Y-46665057D01*
X144751065Y-47522200D02*
X144655827Y-47569819D01*
X144655827Y-47569819D02*
X144465351Y-47569819D01*
X144465351Y-47569819D02*
X144370113Y-47522200D01*
X144370113Y-47522200D02*
X144322494Y-47426961D01*
X144322494Y-47426961D02*
X144322494Y-47046009D01*
X144322494Y-47046009D02*
X144370113Y-46950771D01*
X144370113Y-46950771D02*
X144465351Y-46903152D01*
X144465351Y-46903152D02*
X144655827Y-46903152D01*
X144655827Y-46903152D02*
X144751065Y-46950771D01*
X144751065Y-46950771D02*
X144798684Y-47046009D01*
X144798684Y-47046009D02*
X144798684Y-47141247D01*
X144798684Y-47141247D02*
X144322494Y-47236485D01*
X145655827Y-47569819D02*
X145655827Y-46569819D01*
X145655827Y-47522200D02*
X145560589Y-47569819D01*
X145560589Y-47569819D02*
X145370113Y-47569819D01*
X145370113Y-47569819D02*
X145274875Y-47522200D01*
X145274875Y-47522200D02*
X145227256Y-47474580D01*
X145227256Y-47474580D02*
X145179637Y-47379342D01*
X145179637Y-47379342D02*
X145179637Y-47093628D01*
X145179637Y-47093628D02*
X145227256Y-46998390D01*
X145227256Y-46998390D02*
X145274875Y-46950771D01*
X145274875Y-46950771D02*
X145370113Y-46903152D01*
X145370113Y-46903152D02*
X145560589Y-46903152D01*
X145560589Y-46903152D02*
X145655827Y-46950771D01*
X146132018Y-47474580D02*
X146179637Y-47522200D01*
X146179637Y-47522200D02*
X146132018Y-47569819D01*
X146132018Y-47569819D02*
X146084399Y-47522200D01*
X146084399Y-47522200D02*
X146132018Y-47474580D01*
X146132018Y-47474580D02*
X146132018Y-47569819D01*
X146132018Y-46950771D02*
X146179637Y-46998390D01*
X146179637Y-46998390D02*
X146132018Y-47046009D01*
X146132018Y-47046009D02*
X146084399Y-46998390D01*
X146084399Y-46998390D02*
X146132018Y-46950771D01*
X146132018Y-46950771D02*
X146132018Y-47046009D01*
X147560589Y-46569819D02*
X147655827Y-46569819D01*
X147655827Y-46569819D02*
X147751065Y-46617438D01*
X147751065Y-46617438D02*
X147798684Y-46665057D01*
X147798684Y-46665057D02*
X147846303Y-46760295D01*
X147846303Y-46760295D02*
X147893922Y-46950771D01*
X147893922Y-46950771D02*
X147893922Y-47188866D01*
X147893922Y-47188866D02*
X147846303Y-47379342D01*
X147846303Y-47379342D02*
X147798684Y-47474580D01*
X147798684Y-47474580D02*
X147751065Y-47522200D01*
X147751065Y-47522200D02*
X147655827Y-47569819D01*
X147655827Y-47569819D02*
X147560589Y-47569819D01*
X147560589Y-47569819D02*
X147465351Y-47522200D01*
X147465351Y-47522200D02*
X147417732Y-47474580D01*
X147417732Y-47474580D02*
X147370113Y-47379342D01*
X147370113Y-47379342D02*
X147322494Y-47188866D01*
X147322494Y-47188866D02*
X147322494Y-46950771D01*
X147322494Y-46950771D02*
X147370113Y-46760295D01*
X147370113Y-46760295D02*
X147417732Y-46665057D01*
X147417732Y-46665057D02*
X147465351Y-46617438D01*
X147465351Y-46617438D02*
X147560589Y-46569819D01*
X148274875Y-46665057D02*
X148322494Y-46617438D01*
X148322494Y-46617438D02*
X148417732Y-46569819D01*
X148417732Y-46569819D02*
X148655827Y-46569819D01*
X148655827Y-46569819D02*
X148751065Y-46617438D01*
X148751065Y-46617438D02*
X148798684Y-46665057D01*
X148798684Y-46665057D02*
X148846303Y-46760295D01*
X148846303Y-46760295D02*
X148846303Y-46855533D01*
X148846303Y-46855533D02*
X148798684Y-46998390D01*
X148798684Y-46998390D02*
X148227256Y-47569819D01*
X148227256Y-47569819D02*
X148846303Y-47569819D01*
X149989160Y-46522200D02*
X149132018Y-47807914D01*
X150274875Y-46665057D02*
X150322494Y-46617438D01*
X150322494Y-46617438D02*
X150417732Y-46569819D01*
X150417732Y-46569819D02*
X150655827Y-46569819D01*
X150655827Y-46569819D02*
X150751065Y-46617438D01*
X150751065Y-46617438D02*
X150798684Y-46665057D01*
X150798684Y-46665057D02*
X150846303Y-46760295D01*
X150846303Y-46760295D02*
X150846303Y-46855533D01*
X150846303Y-46855533D02*
X150798684Y-46998390D01*
X150798684Y-46998390D02*
X150227256Y-47569819D01*
X150227256Y-47569819D02*
X150846303Y-47569819D01*
X151703446Y-46569819D02*
X151512970Y-46569819D01*
X151512970Y-46569819D02*
X151417732Y-46617438D01*
X151417732Y-46617438D02*
X151370113Y-46665057D01*
X151370113Y-46665057D02*
X151274875Y-46807914D01*
X151274875Y-46807914D02*
X151227256Y-46998390D01*
X151227256Y-46998390D02*
X151227256Y-47379342D01*
X151227256Y-47379342D02*
X151274875Y-47474580D01*
X151274875Y-47474580D02*
X151322494Y-47522200D01*
X151322494Y-47522200D02*
X151417732Y-47569819D01*
X151417732Y-47569819D02*
X151608208Y-47569819D01*
X151608208Y-47569819D02*
X151703446Y-47522200D01*
X151703446Y-47522200D02*
X151751065Y-47474580D01*
X151751065Y-47474580D02*
X151798684Y-47379342D01*
X151798684Y-47379342D02*
X151798684Y-47141247D01*
X151798684Y-47141247D02*
X151751065Y-47046009D01*
X151751065Y-47046009D02*
X151703446Y-46998390D01*
X151703446Y-46998390D02*
X151608208Y-46950771D01*
X151608208Y-46950771D02*
X151417732Y-46950771D01*
X151417732Y-46950771D02*
X151322494Y-46998390D01*
X151322494Y-46998390D02*
X151274875Y-47046009D01*
X151274875Y-47046009D02*
X151227256Y-47141247D01*
X152941541Y-46522200D02*
X152084399Y-47807914D01*
X153227256Y-46665057D02*
X153274875Y-46617438D01*
X153274875Y-46617438D02*
X153370113Y-46569819D01*
X153370113Y-46569819D02*
X153608208Y-46569819D01*
X153608208Y-46569819D02*
X153703446Y-46617438D01*
X153703446Y-46617438D02*
X153751065Y-46665057D01*
X153751065Y-46665057D02*
X153798684Y-46760295D01*
X153798684Y-46760295D02*
X153798684Y-46855533D01*
X153798684Y-46855533D02*
X153751065Y-46998390D01*
X153751065Y-46998390D02*
X153179637Y-47569819D01*
X153179637Y-47569819D02*
X153798684Y-47569819D01*
X154417732Y-46569819D02*
X154512970Y-46569819D01*
X154512970Y-46569819D02*
X154608208Y-46617438D01*
X154608208Y-46617438D02*
X154655827Y-46665057D01*
X154655827Y-46665057D02*
X154703446Y-46760295D01*
X154703446Y-46760295D02*
X154751065Y-46950771D01*
X154751065Y-46950771D02*
X154751065Y-47188866D01*
X154751065Y-47188866D02*
X154703446Y-47379342D01*
X154703446Y-47379342D02*
X154655827Y-47474580D01*
X154655827Y-47474580D02*
X154608208Y-47522200D01*
X154608208Y-47522200D02*
X154512970Y-47569819D01*
X154512970Y-47569819D02*
X154417732Y-47569819D01*
X154417732Y-47569819D02*
X154322494Y-47522200D01*
X154322494Y-47522200D02*
X154274875Y-47474580D01*
X154274875Y-47474580D02*
X154227256Y-47379342D01*
X154227256Y-47379342D02*
X154179637Y-47188866D01*
X154179637Y-47188866D02*
X154179637Y-46950771D01*
X154179637Y-46950771D02*
X154227256Y-46760295D01*
X154227256Y-46760295D02*
X154274875Y-46665057D01*
X154274875Y-46665057D02*
X154322494Y-46617438D01*
X154322494Y-46617438D02*
X154417732Y-46569819D01*
X155132018Y-46665057D02*
X155179637Y-46617438D01*
X155179637Y-46617438D02*
X155274875Y-46569819D01*
X155274875Y-46569819D02*
X155512970Y-46569819D01*
X155512970Y-46569819D02*
X155608208Y-46617438D01*
X155608208Y-46617438D02*
X155655827Y-46665057D01*
X155655827Y-46665057D02*
X155703446Y-46760295D01*
X155703446Y-46760295D02*
X155703446Y-46855533D01*
X155703446Y-46855533D02*
X155655827Y-46998390D01*
X155655827Y-46998390D02*
X155084399Y-47569819D01*
X155084399Y-47569819D02*
X155703446Y-47569819D01*
X156560589Y-46903152D02*
X156560589Y-47569819D01*
X156322494Y-46522200D02*
X156084399Y-47236485D01*
X156084399Y-47236485D02*
X156703446Y-47236485D01*
X156259580Y-85032857D02*
X156307200Y-85080476D01*
X156307200Y-85080476D02*
X156354819Y-85223333D01*
X156354819Y-85223333D02*
X156354819Y-85318571D01*
X156354819Y-85318571D02*
X156307200Y-85461428D01*
X156307200Y-85461428D02*
X156211961Y-85556666D01*
X156211961Y-85556666D02*
X156116723Y-85604285D01*
X156116723Y-85604285D02*
X155926247Y-85651904D01*
X155926247Y-85651904D02*
X155783390Y-85651904D01*
X155783390Y-85651904D02*
X155592914Y-85604285D01*
X155592914Y-85604285D02*
X155497676Y-85556666D01*
X155497676Y-85556666D02*
X155402438Y-85461428D01*
X155402438Y-85461428D02*
X155354819Y-85318571D01*
X155354819Y-85318571D02*
X155354819Y-85223333D01*
X155354819Y-85223333D02*
X155402438Y-85080476D01*
X155402438Y-85080476D02*
X155450057Y-85032857D01*
X156354819Y-84080476D02*
X156354819Y-84651904D01*
X156354819Y-84366190D02*
X155354819Y-84366190D01*
X155354819Y-84366190D02*
X155497676Y-84461428D01*
X155497676Y-84461428D02*
X155592914Y-84556666D01*
X155592914Y-84556666D02*
X155640533Y-84651904D01*
X155354819Y-83461428D02*
X155354819Y-83366190D01*
X155354819Y-83366190D02*
X155402438Y-83270952D01*
X155402438Y-83270952D02*
X155450057Y-83223333D01*
X155450057Y-83223333D02*
X155545295Y-83175714D01*
X155545295Y-83175714D02*
X155735771Y-83128095D01*
X155735771Y-83128095D02*
X155973866Y-83128095D01*
X155973866Y-83128095D02*
X156164342Y-83175714D01*
X156164342Y-83175714D02*
X156259580Y-83223333D01*
X156259580Y-83223333D02*
X156307200Y-83270952D01*
X156307200Y-83270952D02*
X156354819Y-83366190D01*
X156354819Y-83366190D02*
X156354819Y-83461428D01*
X156354819Y-83461428D02*
X156307200Y-83556666D01*
X156307200Y-83556666D02*
X156259580Y-83604285D01*
X156259580Y-83604285D02*
X156164342Y-83651904D01*
X156164342Y-83651904D02*
X155973866Y-83699523D01*
X155973866Y-83699523D02*
X155735771Y-83699523D01*
X155735771Y-83699523D02*
X155545295Y-83651904D01*
X155545295Y-83651904D02*
X155450057Y-83604285D01*
X155450057Y-83604285D02*
X155402438Y-83556666D01*
X155402438Y-83556666D02*
X155354819Y-83461428D01*
X141733333Y-123859580D02*
X141685714Y-123907200D01*
X141685714Y-123907200D02*
X141542857Y-123954819D01*
X141542857Y-123954819D02*
X141447619Y-123954819D01*
X141447619Y-123954819D02*
X141304762Y-123907200D01*
X141304762Y-123907200D02*
X141209524Y-123811961D01*
X141209524Y-123811961D02*
X141161905Y-123716723D01*
X141161905Y-123716723D02*
X141114286Y-123526247D01*
X141114286Y-123526247D02*
X141114286Y-123383390D01*
X141114286Y-123383390D02*
X141161905Y-123192914D01*
X141161905Y-123192914D02*
X141209524Y-123097676D01*
X141209524Y-123097676D02*
X141304762Y-123002438D01*
X141304762Y-123002438D02*
X141447619Y-122954819D01*
X141447619Y-122954819D02*
X141542857Y-122954819D01*
X141542857Y-122954819D02*
X141685714Y-123002438D01*
X141685714Y-123002438D02*
X141733333Y-123050057D01*
X142066667Y-122954819D02*
X142733333Y-122954819D01*
X142733333Y-122954819D02*
X142304762Y-123954819D01*
X186933333Y-78754819D02*
X186600000Y-78278628D01*
X186361905Y-78754819D02*
X186361905Y-77754819D01*
X186361905Y-77754819D02*
X186742857Y-77754819D01*
X186742857Y-77754819D02*
X186838095Y-77802438D01*
X186838095Y-77802438D02*
X186885714Y-77850057D01*
X186885714Y-77850057D02*
X186933333Y-77945295D01*
X186933333Y-77945295D02*
X186933333Y-78088152D01*
X186933333Y-78088152D02*
X186885714Y-78183390D01*
X186885714Y-78183390D02*
X186838095Y-78231009D01*
X186838095Y-78231009D02*
X186742857Y-78278628D01*
X186742857Y-78278628D02*
X186361905Y-78278628D01*
X187409524Y-78754819D02*
X187600000Y-78754819D01*
X187600000Y-78754819D02*
X187695238Y-78707200D01*
X187695238Y-78707200D02*
X187742857Y-78659580D01*
X187742857Y-78659580D02*
X187838095Y-78516723D01*
X187838095Y-78516723D02*
X187885714Y-78326247D01*
X187885714Y-78326247D02*
X187885714Y-77945295D01*
X187885714Y-77945295D02*
X187838095Y-77850057D01*
X187838095Y-77850057D02*
X187790476Y-77802438D01*
X187790476Y-77802438D02*
X187695238Y-77754819D01*
X187695238Y-77754819D02*
X187504762Y-77754819D01*
X187504762Y-77754819D02*
X187409524Y-77802438D01*
X187409524Y-77802438D02*
X187361905Y-77850057D01*
X187361905Y-77850057D02*
X187314286Y-77945295D01*
X187314286Y-77945295D02*
X187314286Y-78183390D01*
X187314286Y-78183390D02*
X187361905Y-78278628D01*
X187361905Y-78278628D02*
X187409524Y-78326247D01*
X187409524Y-78326247D02*
X187504762Y-78373866D01*
X187504762Y-78373866D02*
X187695238Y-78373866D01*
X187695238Y-78373866D02*
X187790476Y-78326247D01*
X187790476Y-78326247D02*
X187838095Y-78278628D01*
X187838095Y-78278628D02*
X187885714Y-78183390D01*
X161851905Y-103667200D02*
X161994762Y-103714819D01*
X161994762Y-103714819D02*
X162232857Y-103714819D01*
X162232857Y-103714819D02*
X162328095Y-103667200D01*
X162328095Y-103667200D02*
X162375714Y-103619580D01*
X162375714Y-103619580D02*
X162423333Y-103524342D01*
X162423333Y-103524342D02*
X162423333Y-103429104D01*
X162423333Y-103429104D02*
X162375714Y-103333866D01*
X162375714Y-103333866D02*
X162328095Y-103286247D01*
X162328095Y-103286247D02*
X162232857Y-103238628D01*
X162232857Y-103238628D02*
X162042381Y-103191009D01*
X162042381Y-103191009D02*
X161947143Y-103143390D01*
X161947143Y-103143390D02*
X161899524Y-103095771D01*
X161899524Y-103095771D02*
X161851905Y-103000533D01*
X161851905Y-103000533D02*
X161851905Y-102905295D01*
X161851905Y-102905295D02*
X161899524Y-102810057D01*
X161899524Y-102810057D02*
X161947143Y-102762438D01*
X161947143Y-102762438D02*
X162042381Y-102714819D01*
X162042381Y-102714819D02*
X162280476Y-102714819D01*
X162280476Y-102714819D02*
X162423333Y-102762438D01*
X162851905Y-103191009D02*
X163185238Y-103191009D01*
X163328095Y-103714819D02*
X162851905Y-103714819D01*
X162851905Y-103714819D02*
X162851905Y-102714819D01*
X162851905Y-102714819D02*
X163328095Y-102714819D01*
X163756667Y-103714819D02*
X163756667Y-102714819D01*
X163756667Y-102714819D02*
X164328095Y-103714819D01*
X164328095Y-103714819D02*
X164328095Y-102714819D01*
X164756667Y-103667200D02*
X164899524Y-103714819D01*
X164899524Y-103714819D02*
X165137619Y-103714819D01*
X165137619Y-103714819D02*
X165232857Y-103667200D01*
X165232857Y-103667200D02*
X165280476Y-103619580D01*
X165280476Y-103619580D02*
X165328095Y-103524342D01*
X165328095Y-103524342D02*
X165328095Y-103429104D01*
X165328095Y-103429104D02*
X165280476Y-103333866D01*
X165280476Y-103333866D02*
X165232857Y-103286247D01*
X165232857Y-103286247D02*
X165137619Y-103238628D01*
X165137619Y-103238628D02*
X164947143Y-103191009D01*
X164947143Y-103191009D02*
X164851905Y-103143390D01*
X164851905Y-103143390D02*
X164804286Y-103095771D01*
X164804286Y-103095771D02*
X164756667Y-103000533D01*
X164756667Y-103000533D02*
X164756667Y-102905295D01*
X164756667Y-102905295D02*
X164804286Y-102810057D01*
X164804286Y-102810057D02*
X164851905Y-102762438D01*
X164851905Y-102762438D02*
X164947143Y-102714819D01*
X164947143Y-102714819D02*
X165185238Y-102714819D01*
X165185238Y-102714819D02*
X165328095Y-102762438D01*
X165947143Y-102714819D02*
X166137619Y-102714819D01*
X166137619Y-102714819D02*
X166232857Y-102762438D01*
X166232857Y-102762438D02*
X166328095Y-102857676D01*
X166328095Y-102857676D02*
X166375714Y-103048152D01*
X166375714Y-103048152D02*
X166375714Y-103381485D01*
X166375714Y-103381485D02*
X166328095Y-103571961D01*
X166328095Y-103571961D02*
X166232857Y-103667200D01*
X166232857Y-103667200D02*
X166137619Y-103714819D01*
X166137619Y-103714819D02*
X165947143Y-103714819D01*
X165947143Y-103714819D02*
X165851905Y-103667200D01*
X165851905Y-103667200D02*
X165756667Y-103571961D01*
X165756667Y-103571961D02*
X165709048Y-103381485D01*
X165709048Y-103381485D02*
X165709048Y-103048152D01*
X165709048Y-103048152D02*
X165756667Y-102857676D01*
X165756667Y-102857676D02*
X165851905Y-102762438D01*
X165851905Y-102762438D02*
X165947143Y-102714819D01*
X167375714Y-103714819D02*
X167042381Y-103238628D01*
X166804286Y-103714819D02*
X166804286Y-102714819D01*
X166804286Y-102714819D02*
X167185238Y-102714819D01*
X167185238Y-102714819D02*
X167280476Y-102762438D01*
X167280476Y-102762438D02*
X167328095Y-102810057D01*
X167328095Y-102810057D02*
X167375714Y-102905295D01*
X167375714Y-102905295D02*
X167375714Y-103048152D01*
X167375714Y-103048152D02*
X167328095Y-103143390D01*
X167328095Y-103143390D02*
X167280476Y-103191009D01*
X167280476Y-103191009D02*
X167185238Y-103238628D01*
X167185238Y-103238628D02*
X166804286Y-103238628D01*
X168328095Y-103714819D02*
X167756667Y-103714819D01*
X168042381Y-103714819D02*
X168042381Y-102714819D01*
X168042381Y-102714819D02*
X167947143Y-102857676D01*
X167947143Y-102857676D02*
X167851905Y-102952914D01*
X167851905Y-102952914D02*
X167756667Y-103000533D01*
X162995833Y-91509580D02*
X162948214Y-91557200D01*
X162948214Y-91557200D02*
X162805357Y-91604819D01*
X162805357Y-91604819D02*
X162710119Y-91604819D01*
X162710119Y-91604819D02*
X162567262Y-91557200D01*
X162567262Y-91557200D02*
X162472024Y-91461961D01*
X162472024Y-91461961D02*
X162424405Y-91366723D01*
X162424405Y-91366723D02*
X162376786Y-91176247D01*
X162376786Y-91176247D02*
X162376786Y-91033390D01*
X162376786Y-91033390D02*
X162424405Y-90842914D01*
X162424405Y-90842914D02*
X162472024Y-90747676D01*
X162472024Y-90747676D02*
X162567262Y-90652438D01*
X162567262Y-90652438D02*
X162710119Y-90604819D01*
X162710119Y-90604819D02*
X162805357Y-90604819D01*
X162805357Y-90604819D02*
X162948214Y-90652438D01*
X162948214Y-90652438D02*
X162995833Y-90700057D01*
X163472024Y-91604819D02*
X163662500Y-91604819D01*
X163662500Y-91604819D02*
X163757738Y-91557200D01*
X163757738Y-91557200D02*
X163805357Y-91509580D01*
X163805357Y-91509580D02*
X163900595Y-91366723D01*
X163900595Y-91366723D02*
X163948214Y-91176247D01*
X163948214Y-91176247D02*
X163948214Y-90795295D01*
X163948214Y-90795295D02*
X163900595Y-90700057D01*
X163900595Y-90700057D02*
X163852976Y-90652438D01*
X163852976Y-90652438D02*
X163757738Y-90604819D01*
X163757738Y-90604819D02*
X163567262Y-90604819D01*
X163567262Y-90604819D02*
X163472024Y-90652438D01*
X163472024Y-90652438D02*
X163424405Y-90700057D01*
X163424405Y-90700057D02*
X163376786Y-90795295D01*
X163376786Y-90795295D02*
X163376786Y-91033390D01*
X163376786Y-91033390D02*
X163424405Y-91128628D01*
X163424405Y-91128628D02*
X163472024Y-91176247D01*
X163472024Y-91176247D02*
X163567262Y-91223866D01*
X163567262Y-91223866D02*
X163757738Y-91223866D01*
X163757738Y-91223866D02*
X163852976Y-91176247D01*
X163852976Y-91176247D02*
X163900595Y-91128628D01*
X163900595Y-91128628D02*
X163948214Y-91033390D01*
X141633333Y-119359580D02*
X141585714Y-119407200D01*
X141585714Y-119407200D02*
X141442857Y-119454819D01*
X141442857Y-119454819D02*
X141347619Y-119454819D01*
X141347619Y-119454819D02*
X141204762Y-119407200D01*
X141204762Y-119407200D02*
X141109524Y-119311961D01*
X141109524Y-119311961D02*
X141061905Y-119216723D01*
X141061905Y-119216723D02*
X141014286Y-119026247D01*
X141014286Y-119026247D02*
X141014286Y-118883390D01*
X141014286Y-118883390D02*
X141061905Y-118692914D01*
X141061905Y-118692914D02*
X141109524Y-118597676D01*
X141109524Y-118597676D02*
X141204762Y-118502438D01*
X141204762Y-118502438D02*
X141347619Y-118454819D01*
X141347619Y-118454819D02*
X141442857Y-118454819D01*
X141442857Y-118454819D02*
X141585714Y-118502438D01*
X141585714Y-118502438D02*
X141633333Y-118550057D01*
X142490476Y-118454819D02*
X142300000Y-118454819D01*
X142300000Y-118454819D02*
X142204762Y-118502438D01*
X142204762Y-118502438D02*
X142157143Y-118550057D01*
X142157143Y-118550057D02*
X142061905Y-118692914D01*
X142061905Y-118692914D02*
X142014286Y-118883390D01*
X142014286Y-118883390D02*
X142014286Y-119264342D01*
X142014286Y-119264342D02*
X142061905Y-119359580D01*
X142061905Y-119359580D02*
X142109524Y-119407200D01*
X142109524Y-119407200D02*
X142204762Y-119454819D01*
X142204762Y-119454819D02*
X142395238Y-119454819D01*
X142395238Y-119454819D02*
X142490476Y-119407200D01*
X142490476Y-119407200D02*
X142538095Y-119359580D01*
X142538095Y-119359580D02*
X142585714Y-119264342D01*
X142585714Y-119264342D02*
X142585714Y-119026247D01*
X142585714Y-119026247D02*
X142538095Y-118931009D01*
X142538095Y-118931009D02*
X142490476Y-118883390D01*
X142490476Y-118883390D02*
X142395238Y-118835771D01*
X142395238Y-118835771D02*
X142204762Y-118835771D01*
X142204762Y-118835771D02*
X142109524Y-118883390D01*
X142109524Y-118883390D02*
X142061905Y-118931009D01*
X142061905Y-118931009D02*
X142014286Y-119026247D01*
X124747619Y-94664819D02*
X124747619Y-93664819D01*
X124747619Y-93664819D02*
X125128571Y-93664819D01*
X125128571Y-93664819D02*
X125223809Y-93712438D01*
X125223809Y-93712438D02*
X125271428Y-93760057D01*
X125271428Y-93760057D02*
X125319047Y-93855295D01*
X125319047Y-93855295D02*
X125319047Y-93998152D01*
X125319047Y-93998152D02*
X125271428Y-94093390D01*
X125271428Y-94093390D02*
X125223809Y-94141009D01*
X125223809Y-94141009D02*
X125128571Y-94188628D01*
X125128571Y-94188628D02*
X124747619Y-94188628D01*
X125890476Y-94664819D02*
X125795238Y-94617200D01*
X125795238Y-94617200D02*
X125747619Y-94569580D01*
X125747619Y-94569580D02*
X125700000Y-94474342D01*
X125700000Y-94474342D02*
X125700000Y-94188628D01*
X125700000Y-94188628D02*
X125747619Y-94093390D01*
X125747619Y-94093390D02*
X125795238Y-94045771D01*
X125795238Y-94045771D02*
X125890476Y-93998152D01*
X125890476Y-93998152D02*
X126033333Y-93998152D01*
X126033333Y-93998152D02*
X126128571Y-94045771D01*
X126128571Y-94045771D02*
X126176190Y-94093390D01*
X126176190Y-94093390D02*
X126223809Y-94188628D01*
X126223809Y-94188628D02*
X126223809Y-94474342D01*
X126223809Y-94474342D02*
X126176190Y-94569580D01*
X126176190Y-94569580D02*
X126128571Y-94617200D01*
X126128571Y-94617200D02*
X126033333Y-94664819D01*
X126033333Y-94664819D02*
X125890476Y-94664819D01*
X126557143Y-93998152D02*
X126747619Y-94664819D01*
X126747619Y-94664819D02*
X126938095Y-94188628D01*
X126938095Y-94188628D02*
X127128571Y-94664819D01*
X127128571Y-94664819D02*
X127319047Y-93998152D01*
X128080952Y-94617200D02*
X127985714Y-94664819D01*
X127985714Y-94664819D02*
X127795238Y-94664819D01*
X127795238Y-94664819D02*
X127700000Y-94617200D01*
X127700000Y-94617200D02*
X127652381Y-94521961D01*
X127652381Y-94521961D02*
X127652381Y-94141009D01*
X127652381Y-94141009D02*
X127700000Y-94045771D01*
X127700000Y-94045771D02*
X127795238Y-93998152D01*
X127795238Y-93998152D02*
X127985714Y-93998152D01*
X127985714Y-93998152D02*
X128080952Y-94045771D01*
X128080952Y-94045771D02*
X128128571Y-94141009D01*
X128128571Y-94141009D02*
X128128571Y-94236247D01*
X128128571Y-94236247D02*
X127652381Y-94331485D01*
X128557143Y-94664819D02*
X128557143Y-93998152D01*
X128557143Y-94188628D02*
X128604762Y-94093390D01*
X128604762Y-94093390D02*
X128652381Y-94045771D01*
X128652381Y-94045771D02*
X128747619Y-93998152D01*
X128747619Y-93998152D02*
X128842857Y-93998152D01*
X129700000Y-94664819D02*
X129128572Y-94664819D01*
X129414286Y-94664819D02*
X129414286Y-93664819D01*
X129414286Y-93664819D02*
X129319048Y-93807676D01*
X129319048Y-93807676D02*
X129223810Y-93902914D01*
X129223810Y-93902914D02*
X129128572Y-93950533D01*
X178948333Y-71519580D02*
X178900714Y-71567200D01*
X178900714Y-71567200D02*
X178757857Y-71614819D01*
X178757857Y-71614819D02*
X178662619Y-71614819D01*
X178662619Y-71614819D02*
X178519762Y-71567200D01*
X178519762Y-71567200D02*
X178424524Y-71471961D01*
X178424524Y-71471961D02*
X178376905Y-71376723D01*
X178376905Y-71376723D02*
X178329286Y-71186247D01*
X178329286Y-71186247D02*
X178329286Y-71043390D01*
X178329286Y-71043390D02*
X178376905Y-70852914D01*
X178376905Y-70852914D02*
X178424524Y-70757676D01*
X178424524Y-70757676D02*
X178519762Y-70662438D01*
X178519762Y-70662438D02*
X178662619Y-70614819D01*
X178662619Y-70614819D02*
X178757857Y-70614819D01*
X178757857Y-70614819D02*
X178900714Y-70662438D01*
X178900714Y-70662438D02*
X178948333Y-70710057D01*
X179805476Y-70948152D02*
X179805476Y-71614819D01*
X179567381Y-70567200D02*
X179329286Y-71281485D01*
X179329286Y-71281485D02*
X179948333Y-71281485D01*
X132954819Y-59966666D02*
X132478628Y-60299999D01*
X132954819Y-60538094D02*
X131954819Y-60538094D01*
X131954819Y-60538094D02*
X131954819Y-60157142D01*
X131954819Y-60157142D02*
X132002438Y-60061904D01*
X132002438Y-60061904D02*
X132050057Y-60014285D01*
X132050057Y-60014285D02*
X132145295Y-59966666D01*
X132145295Y-59966666D02*
X132288152Y-59966666D01*
X132288152Y-59966666D02*
X132383390Y-60014285D01*
X132383390Y-60014285D02*
X132431009Y-60061904D01*
X132431009Y-60061904D02*
X132478628Y-60157142D01*
X132478628Y-60157142D02*
X132478628Y-60538094D01*
X131954819Y-59061904D02*
X131954819Y-59538094D01*
X131954819Y-59538094D02*
X132431009Y-59585713D01*
X132431009Y-59585713D02*
X132383390Y-59538094D01*
X132383390Y-59538094D02*
X132335771Y-59442856D01*
X132335771Y-59442856D02*
X132335771Y-59204761D01*
X132335771Y-59204761D02*
X132383390Y-59109523D01*
X132383390Y-59109523D02*
X132431009Y-59061904D01*
X132431009Y-59061904D02*
X132526247Y-59014285D01*
X132526247Y-59014285D02*
X132764342Y-59014285D01*
X132764342Y-59014285D02*
X132859580Y-59061904D01*
X132859580Y-59061904D02*
X132907200Y-59109523D01*
X132907200Y-59109523D02*
X132954819Y-59204761D01*
X132954819Y-59204761D02*
X132954819Y-59442856D01*
X132954819Y-59442856D02*
X132907200Y-59538094D01*
X132907200Y-59538094D02*
X132859580Y-59585713D01*
X135552856Y-133082438D02*
X135457618Y-133034819D01*
X135457618Y-133034819D02*
X135314761Y-133034819D01*
X135314761Y-133034819D02*
X135171904Y-133082438D01*
X135171904Y-133082438D02*
X135076666Y-133177676D01*
X135076666Y-133177676D02*
X135029047Y-133272914D01*
X135029047Y-133272914D02*
X134981428Y-133463390D01*
X134981428Y-133463390D02*
X134981428Y-133606247D01*
X134981428Y-133606247D02*
X135029047Y-133796723D01*
X135029047Y-133796723D02*
X135076666Y-133891961D01*
X135076666Y-133891961D02*
X135171904Y-133987200D01*
X135171904Y-133987200D02*
X135314761Y-134034819D01*
X135314761Y-134034819D02*
X135409999Y-134034819D01*
X135409999Y-134034819D02*
X135552856Y-133987200D01*
X135552856Y-133987200D02*
X135600475Y-133939580D01*
X135600475Y-133939580D02*
X135600475Y-133606247D01*
X135600475Y-133606247D02*
X135409999Y-133606247D01*
X136219523Y-133034819D02*
X136409999Y-133034819D01*
X136409999Y-133034819D02*
X136505237Y-133082438D01*
X136505237Y-133082438D02*
X136600475Y-133177676D01*
X136600475Y-133177676D02*
X136648094Y-133368152D01*
X136648094Y-133368152D02*
X136648094Y-133701485D01*
X136648094Y-133701485D02*
X136600475Y-133891961D01*
X136600475Y-133891961D02*
X136505237Y-133987200D01*
X136505237Y-133987200D02*
X136409999Y-134034819D01*
X136409999Y-134034819D02*
X136219523Y-134034819D01*
X136219523Y-134034819D02*
X136124285Y-133987200D01*
X136124285Y-133987200D02*
X136029047Y-133891961D01*
X136029047Y-133891961D02*
X135981428Y-133701485D01*
X135981428Y-133701485D02*
X135981428Y-133368152D01*
X135981428Y-133368152D02*
X136029047Y-133177676D01*
X136029047Y-133177676D02*
X136124285Y-133082438D01*
X136124285Y-133082438D02*
X136219523Y-133034819D01*
X137029047Y-133749104D02*
X137505237Y-133749104D01*
X136933809Y-134034819D02*
X137267142Y-133034819D01*
X137267142Y-133034819D02*
X137600475Y-134034819D01*
X138409999Y-134034819D02*
X137933809Y-134034819D01*
X137933809Y-134034819D02*
X137933809Y-133034819D01*
X138505238Y-134130057D02*
X139267142Y-134130057D01*
X139838571Y-133511009D02*
X139981428Y-133558628D01*
X139981428Y-133558628D02*
X140029047Y-133606247D01*
X140029047Y-133606247D02*
X140076666Y-133701485D01*
X140076666Y-133701485D02*
X140076666Y-133844342D01*
X140076666Y-133844342D02*
X140029047Y-133939580D01*
X140029047Y-133939580D02*
X139981428Y-133987200D01*
X139981428Y-133987200D02*
X139886190Y-134034819D01*
X139886190Y-134034819D02*
X139505238Y-134034819D01*
X139505238Y-134034819D02*
X139505238Y-133034819D01*
X139505238Y-133034819D02*
X139838571Y-133034819D01*
X139838571Y-133034819D02*
X139933809Y-133082438D01*
X139933809Y-133082438D02*
X139981428Y-133130057D01*
X139981428Y-133130057D02*
X140029047Y-133225295D01*
X140029047Y-133225295D02*
X140029047Y-133320533D01*
X140029047Y-133320533D02*
X139981428Y-133415771D01*
X139981428Y-133415771D02*
X139933809Y-133463390D01*
X139933809Y-133463390D02*
X139838571Y-133511009D01*
X139838571Y-133511009D02*
X139505238Y-133511009D01*
X140695714Y-133034819D02*
X140886190Y-133034819D01*
X140886190Y-133034819D02*
X140981428Y-133082438D01*
X140981428Y-133082438D02*
X141076666Y-133177676D01*
X141076666Y-133177676D02*
X141124285Y-133368152D01*
X141124285Y-133368152D02*
X141124285Y-133701485D01*
X141124285Y-133701485D02*
X141076666Y-133891961D01*
X141076666Y-133891961D02*
X140981428Y-133987200D01*
X140981428Y-133987200D02*
X140886190Y-134034819D01*
X140886190Y-134034819D02*
X140695714Y-134034819D01*
X140695714Y-134034819D02*
X140600476Y-133987200D01*
X140600476Y-133987200D02*
X140505238Y-133891961D01*
X140505238Y-133891961D02*
X140457619Y-133701485D01*
X140457619Y-133701485D02*
X140457619Y-133368152D01*
X140457619Y-133368152D02*
X140505238Y-133177676D01*
X140505238Y-133177676D02*
X140600476Y-133082438D01*
X140600476Y-133082438D02*
X140695714Y-133034819D01*
X141410000Y-133034819D02*
X141981428Y-133034819D01*
X141695714Y-134034819D02*
X141695714Y-133034819D01*
X142838571Y-134034819D02*
X142267143Y-134034819D01*
X142552857Y-134034819D02*
X142552857Y-133034819D01*
X142552857Y-133034819D02*
X142457619Y-133177676D01*
X142457619Y-133177676D02*
X142362381Y-133272914D01*
X142362381Y-133272914D02*
X142267143Y-133320533D01*
X125079047Y-78661009D02*
X125221904Y-78708628D01*
X125221904Y-78708628D02*
X125269523Y-78756247D01*
X125269523Y-78756247D02*
X125317142Y-78851485D01*
X125317142Y-78851485D02*
X125317142Y-78994342D01*
X125317142Y-78994342D02*
X125269523Y-79089580D01*
X125269523Y-79089580D02*
X125221904Y-79137200D01*
X125221904Y-79137200D02*
X125126666Y-79184819D01*
X125126666Y-79184819D02*
X124745714Y-79184819D01*
X124745714Y-79184819D02*
X124745714Y-78184819D01*
X124745714Y-78184819D02*
X125079047Y-78184819D01*
X125079047Y-78184819D02*
X125174285Y-78232438D01*
X125174285Y-78232438D02*
X125221904Y-78280057D01*
X125221904Y-78280057D02*
X125269523Y-78375295D01*
X125269523Y-78375295D02*
X125269523Y-78470533D01*
X125269523Y-78470533D02*
X125221904Y-78565771D01*
X125221904Y-78565771D02*
X125174285Y-78613390D01*
X125174285Y-78613390D02*
X125079047Y-78661009D01*
X125079047Y-78661009D02*
X124745714Y-78661009D01*
X125698095Y-78899104D02*
X126174285Y-78899104D01*
X125602857Y-79184819D02*
X125936190Y-78184819D01*
X125936190Y-78184819D02*
X126269523Y-79184819D01*
X127174285Y-79184819D02*
X126840952Y-78708628D01*
X126602857Y-79184819D02*
X126602857Y-78184819D01*
X126602857Y-78184819D02*
X126983809Y-78184819D01*
X126983809Y-78184819D02*
X127079047Y-78232438D01*
X127079047Y-78232438D02*
X127126666Y-78280057D01*
X127126666Y-78280057D02*
X127174285Y-78375295D01*
X127174285Y-78375295D02*
X127174285Y-78518152D01*
X127174285Y-78518152D02*
X127126666Y-78613390D01*
X127126666Y-78613390D02*
X127079047Y-78661009D01*
X127079047Y-78661009D02*
X126983809Y-78708628D01*
X126983809Y-78708628D02*
X126602857Y-78708628D01*
X128174285Y-79184819D02*
X127840952Y-78708628D01*
X127602857Y-79184819D02*
X127602857Y-78184819D01*
X127602857Y-78184819D02*
X127983809Y-78184819D01*
X127983809Y-78184819D02*
X128079047Y-78232438D01*
X128079047Y-78232438D02*
X128126666Y-78280057D01*
X128126666Y-78280057D02*
X128174285Y-78375295D01*
X128174285Y-78375295D02*
X128174285Y-78518152D01*
X128174285Y-78518152D02*
X128126666Y-78613390D01*
X128126666Y-78613390D02*
X128079047Y-78661009D01*
X128079047Y-78661009D02*
X127983809Y-78708628D01*
X127983809Y-78708628D02*
X127602857Y-78708628D01*
X128602857Y-78661009D02*
X128936190Y-78661009D01*
X129079047Y-79184819D02*
X128602857Y-79184819D01*
X128602857Y-79184819D02*
X128602857Y-78184819D01*
X128602857Y-78184819D02*
X129079047Y-78184819D01*
X129983809Y-79184819D02*
X129507619Y-79184819D01*
X129507619Y-79184819D02*
X129507619Y-78184819D01*
X130079048Y-79280057D02*
X130840952Y-79280057D01*
X131364762Y-78184819D02*
X131364762Y-78899104D01*
X131364762Y-78899104D02*
X131317143Y-79041961D01*
X131317143Y-79041961D02*
X131221905Y-79137200D01*
X131221905Y-79137200D02*
X131079048Y-79184819D01*
X131079048Y-79184819D02*
X130983810Y-79184819D01*
X131793334Y-78899104D02*
X132269524Y-78899104D01*
X131698096Y-79184819D02*
X132031429Y-78184819D01*
X132031429Y-78184819D02*
X132364762Y-79184819D01*
X133269524Y-79089580D02*
X133221905Y-79137200D01*
X133221905Y-79137200D02*
X133079048Y-79184819D01*
X133079048Y-79184819D02*
X132983810Y-79184819D01*
X132983810Y-79184819D02*
X132840953Y-79137200D01*
X132840953Y-79137200D02*
X132745715Y-79041961D01*
X132745715Y-79041961D02*
X132698096Y-78946723D01*
X132698096Y-78946723D02*
X132650477Y-78756247D01*
X132650477Y-78756247D02*
X132650477Y-78613390D01*
X132650477Y-78613390D02*
X132698096Y-78422914D01*
X132698096Y-78422914D02*
X132745715Y-78327676D01*
X132745715Y-78327676D02*
X132840953Y-78232438D01*
X132840953Y-78232438D02*
X132983810Y-78184819D01*
X132983810Y-78184819D02*
X133079048Y-78184819D01*
X133079048Y-78184819D02*
X133221905Y-78232438D01*
X133221905Y-78232438D02*
X133269524Y-78280057D01*
X133698096Y-79184819D02*
X133698096Y-78184819D01*
X134269524Y-79184819D02*
X133840953Y-78613390D01*
X134269524Y-78184819D02*
X133698096Y-78756247D01*
X135221905Y-79184819D02*
X134650477Y-79184819D01*
X134936191Y-79184819D02*
X134936191Y-78184819D01*
X134936191Y-78184819D02*
X134840953Y-78327676D01*
X134840953Y-78327676D02*
X134745715Y-78422914D01*
X134745715Y-78422914D02*
X134650477Y-78470533D01*
X193234819Y-109956190D02*
X194044342Y-109956190D01*
X194044342Y-109956190D02*
X194139580Y-109908571D01*
X194139580Y-109908571D02*
X194187200Y-109860952D01*
X194187200Y-109860952D02*
X194234819Y-109765714D01*
X194234819Y-109765714D02*
X194234819Y-109575238D01*
X194234819Y-109575238D02*
X194187200Y-109480000D01*
X194187200Y-109480000D02*
X194139580Y-109432381D01*
X194139580Y-109432381D02*
X194044342Y-109384762D01*
X194044342Y-109384762D02*
X193234819Y-109384762D01*
X194187200Y-108956190D02*
X194234819Y-108813333D01*
X194234819Y-108813333D02*
X194234819Y-108575238D01*
X194234819Y-108575238D02*
X194187200Y-108480000D01*
X194187200Y-108480000D02*
X194139580Y-108432381D01*
X194139580Y-108432381D02*
X194044342Y-108384762D01*
X194044342Y-108384762D02*
X193949104Y-108384762D01*
X193949104Y-108384762D02*
X193853866Y-108432381D01*
X193853866Y-108432381D02*
X193806247Y-108480000D01*
X193806247Y-108480000D02*
X193758628Y-108575238D01*
X193758628Y-108575238D02*
X193711009Y-108765714D01*
X193711009Y-108765714D02*
X193663390Y-108860952D01*
X193663390Y-108860952D02*
X193615771Y-108908571D01*
X193615771Y-108908571D02*
X193520533Y-108956190D01*
X193520533Y-108956190D02*
X193425295Y-108956190D01*
X193425295Y-108956190D02*
X193330057Y-108908571D01*
X193330057Y-108908571D02*
X193282438Y-108860952D01*
X193282438Y-108860952D02*
X193234819Y-108765714D01*
X193234819Y-108765714D02*
X193234819Y-108527619D01*
X193234819Y-108527619D02*
X193282438Y-108384762D01*
X193711009Y-107956190D02*
X193711009Y-107622857D01*
X194234819Y-107480000D02*
X194234819Y-107956190D01*
X194234819Y-107956190D02*
X193234819Y-107956190D01*
X193234819Y-107956190D02*
X193234819Y-107480000D01*
X194234819Y-106480000D02*
X193758628Y-106813333D01*
X194234819Y-107051428D02*
X193234819Y-107051428D01*
X193234819Y-107051428D02*
X193234819Y-106670476D01*
X193234819Y-106670476D02*
X193282438Y-106575238D01*
X193282438Y-106575238D02*
X193330057Y-106527619D01*
X193330057Y-106527619D02*
X193425295Y-106480000D01*
X193425295Y-106480000D02*
X193568152Y-106480000D01*
X193568152Y-106480000D02*
X193663390Y-106527619D01*
X193663390Y-106527619D02*
X193711009Y-106575238D01*
X193711009Y-106575238D02*
X193758628Y-106670476D01*
X193758628Y-106670476D02*
X193758628Y-107051428D01*
X194330057Y-106289524D02*
X194330057Y-105527619D01*
X194234819Y-105289523D02*
X193234819Y-105289523D01*
X194234819Y-104813333D02*
X193234819Y-104813333D01*
X193234819Y-104813333D02*
X194234819Y-104241905D01*
X194234819Y-104241905D02*
X193234819Y-104241905D01*
X193234819Y-103908571D02*
X193234819Y-103337143D01*
X194234819Y-103622857D02*
X193234819Y-103622857D01*
X193711009Y-103003809D02*
X193711009Y-102670476D01*
X194234819Y-102527619D02*
X194234819Y-103003809D01*
X194234819Y-103003809D02*
X193234819Y-103003809D01*
X193234819Y-103003809D02*
X193234819Y-102527619D01*
X194234819Y-101527619D02*
X193758628Y-101860952D01*
X194234819Y-102099047D02*
X193234819Y-102099047D01*
X193234819Y-102099047D02*
X193234819Y-101718095D01*
X193234819Y-101718095D02*
X193282438Y-101622857D01*
X193282438Y-101622857D02*
X193330057Y-101575238D01*
X193330057Y-101575238D02*
X193425295Y-101527619D01*
X193425295Y-101527619D02*
X193568152Y-101527619D01*
X193568152Y-101527619D02*
X193663390Y-101575238D01*
X193663390Y-101575238D02*
X193711009Y-101622857D01*
X193711009Y-101622857D02*
X193758628Y-101718095D01*
X193758628Y-101718095D02*
X193758628Y-102099047D01*
X193711009Y-100765714D02*
X193711009Y-101099047D01*
X194234819Y-101099047D02*
X193234819Y-101099047D01*
X193234819Y-101099047D02*
X193234819Y-100622857D01*
X193949104Y-100289523D02*
X193949104Y-99813333D01*
X194234819Y-100384761D02*
X193234819Y-100051428D01*
X193234819Y-100051428D02*
X194234819Y-99718095D01*
X194139580Y-98813333D02*
X194187200Y-98860952D01*
X194187200Y-98860952D02*
X194234819Y-99003809D01*
X194234819Y-99003809D02*
X194234819Y-99099047D01*
X194234819Y-99099047D02*
X194187200Y-99241904D01*
X194187200Y-99241904D02*
X194091961Y-99337142D01*
X194091961Y-99337142D02*
X193996723Y-99384761D01*
X193996723Y-99384761D02*
X193806247Y-99432380D01*
X193806247Y-99432380D02*
X193663390Y-99432380D01*
X193663390Y-99432380D02*
X193472914Y-99384761D01*
X193472914Y-99384761D02*
X193377676Y-99337142D01*
X193377676Y-99337142D02*
X193282438Y-99241904D01*
X193282438Y-99241904D02*
X193234819Y-99099047D01*
X193234819Y-99099047D02*
X193234819Y-99003809D01*
X193234819Y-99003809D02*
X193282438Y-98860952D01*
X193282438Y-98860952D02*
X193330057Y-98813333D01*
X193711009Y-98384761D02*
X193711009Y-98051428D01*
X194234819Y-97908571D02*
X194234819Y-98384761D01*
X194234819Y-98384761D02*
X193234819Y-98384761D01*
X193234819Y-98384761D02*
X193234819Y-97908571D01*
X194234819Y-96956190D02*
X194234819Y-97527618D01*
X194234819Y-97241904D02*
X193234819Y-97241904D01*
X193234819Y-97241904D02*
X193377676Y-97337142D01*
X193377676Y-97337142D02*
X193472914Y-97432380D01*
X193472914Y-97432380D02*
X193520533Y-97527618D01*
X163354819Y-59666666D02*
X162878628Y-59999999D01*
X163354819Y-60238094D02*
X162354819Y-60238094D01*
X162354819Y-60238094D02*
X162354819Y-59857142D01*
X162354819Y-59857142D02*
X162402438Y-59761904D01*
X162402438Y-59761904D02*
X162450057Y-59714285D01*
X162450057Y-59714285D02*
X162545295Y-59666666D01*
X162545295Y-59666666D02*
X162688152Y-59666666D01*
X162688152Y-59666666D02*
X162783390Y-59714285D01*
X162783390Y-59714285D02*
X162831009Y-59761904D01*
X162831009Y-59761904D02*
X162878628Y-59857142D01*
X162878628Y-59857142D02*
X162878628Y-60238094D01*
X162354819Y-58809523D02*
X162354819Y-58999999D01*
X162354819Y-58999999D02*
X162402438Y-59095237D01*
X162402438Y-59095237D02*
X162450057Y-59142856D01*
X162450057Y-59142856D02*
X162592914Y-59238094D01*
X162592914Y-59238094D02*
X162783390Y-59285713D01*
X162783390Y-59285713D02*
X163164342Y-59285713D01*
X163164342Y-59285713D02*
X163259580Y-59238094D01*
X163259580Y-59238094D02*
X163307200Y-59190475D01*
X163307200Y-59190475D02*
X163354819Y-59095237D01*
X163354819Y-59095237D02*
X163354819Y-58904761D01*
X163354819Y-58904761D02*
X163307200Y-58809523D01*
X163307200Y-58809523D02*
X163259580Y-58761904D01*
X163259580Y-58761904D02*
X163164342Y-58714285D01*
X163164342Y-58714285D02*
X162926247Y-58714285D01*
X162926247Y-58714285D02*
X162831009Y-58761904D01*
X162831009Y-58761904D02*
X162783390Y-58809523D01*
X162783390Y-58809523D02*
X162735771Y-58904761D01*
X162735771Y-58904761D02*
X162735771Y-59095237D01*
X162735771Y-59095237D02*
X162783390Y-59190475D01*
X162783390Y-59190475D02*
X162831009Y-59238094D01*
X162831009Y-59238094D02*
X162926247Y-59285713D01*
X141933333Y-127654819D02*
X141600000Y-127178628D01*
X141361905Y-127654819D02*
X141361905Y-126654819D01*
X141361905Y-126654819D02*
X141742857Y-126654819D01*
X141742857Y-126654819D02*
X141838095Y-126702438D01*
X141838095Y-126702438D02*
X141885714Y-126750057D01*
X141885714Y-126750057D02*
X141933333Y-126845295D01*
X141933333Y-126845295D02*
X141933333Y-126988152D01*
X141933333Y-126988152D02*
X141885714Y-127083390D01*
X141885714Y-127083390D02*
X141838095Y-127131009D01*
X141838095Y-127131009D02*
X141742857Y-127178628D01*
X141742857Y-127178628D02*
X141361905Y-127178628D01*
X142266667Y-126654819D02*
X142885714Y-126654819D01*
X142885714Y-126654819D02*
X142552381Y-127035771D01*
X142552381Y-127035771D02*
X142695238Y-127035771D01*
X142695238Y-127035771D02*
X142790476Y-127083390D01*
X142790476Y-127083390D02*
X142838095Y-127131009D01*
X142838095Y-127131009D02*
X142885714Y-127226247D01*
X142885714Y-127226247D02*
X142885714Y-127464342D01*
X142885714Y-127464342D02*
X142838095Y-127559580D01*
X142838095Y-127559580D02*
X142790476Y-127607200D01*
X142790476Y-127607200D02*
X142695238Y-127654819D01*
X142695238Y-127654819D02*
X142409524Y-127654819D01*
X142409524Y-127654819D02*
X142314286Y-127607200D01*
X142314286Y-127607200D02*
X142266667Y-127559580D01*
X199914819Y-83456666D02*
X198914819Y-83456666D01*
X198914819Y-83456666D02*
X198914819Y-83075714D01*
X198914819Y-83075714D02*
X198962438Y-82980476D01*
X198962438Y-82980476D02*
X199010057Y-82932857D01*
X199010057Y-82932857D02*
X199105295Y-82885238D01*
X199105295Y-82885238D02*
X199248152Y-82885238D01*
X199248152Y-82885238D02*
X199343390Y-82932857D01*
X199343390Y-82932857D02*
X199391009Y-82980476D01*
X199391009Y-82980476D02*
X199438628Y-83075714D01*
X199438628Y-83075714D02*
X199438628Y-83456666D01*
X198914819Y-82551904D02*
X199914819Y-82313809D01*
X199914819Y-82313809D02*
X199200533Y-82123333D01*
X199200533Y-82123333D02*
X199914819Y-81932857D01*
X199914819Y-81932857D02*
X198914819Y-81694762D01*
X199914819Y-81313809D02*
X198914819Y-81313809D01*
X198914819Y-81313809D02*
X199629104Y-80980476D01*
X199629104Y-80980476D02*
X198914819Y-80647143D01*
X198914819Y-80647143D02*
X199914819Y-80647143D01*
X200010057Y-80409048D02*
X200010057Y-79647143D01*
X199914819Y-79409047D02*
X198914819Y-79409047D01*
X198914819Y-79409047D02*
X198914819Y-79028095D01*
X198914819Y-79028095D02*
X198962438Y-78932857D01*
X198962438Y-78932857D02*
X199010057Y-78885238D01*
X199010057Y-78885238D02*
X199105295Y-78837619D01*
X199105295Y-78837619D02*
X199248152Y-78837619D01*
X199248152Y-78837619D02*
X199343390Y-78885238D01*
X199343390Y-78885238D02*
X199391009Y-78932857D01*
X199391009Y-78932857D02*
X199438628Y-79028095D01*
X199438628Y-79028095D02*
X199438628Y-79409047D01*
X198914819Y-78218571D02*
X198914819Y-78028095D01*
X198914819Y-78028095D02*
X198962438Y-77932857D01*
X198962438Y-77932857D02*
X199057676Y-77837619D01*
X199057676Y-77837619D02*
X199248152Y-77790000D01*
X199248152Y-77790000D02*
X199581485Y-77790000D01*
X199581485Y-77790000D02*
X199771961Y-77837619D01*
X199771961Y-77837619D02*
X199867200Y-77932857D01*
X199867200Y-77932857D02*
X199914819Y-78028095D01*
X199914819Y-78028095D02*
X199914819Y-78218571D01*
X199914819Y-78218571D02*
X199867200Y-78313809D01*
X199867200Y-78313809D02*
X199771961Y-78409047D01*
X199771961Y-78409047D02*
X199581485Y-78456666D01*
X199581485Y-78456666D02*
X199248152Y-78456666D01*
X199248152Y-78456666D02*
X199057676Y-78409047D01*
X199057676Y-78409047D02*
X198962438Y-78313809D01*
X198962438Y-78313809D02*
X198914819Y-78218571D01*
X199914819Y-76790000D02*
X199438628Y-77123333D01*
X199914819Y-77361428D02*
X198914819Y-77361428D01*
X198914819Y-77361428D02*
X198914819Y-76980476D01*
X198914819Y-76980476D02*
X198962438Y-76885238D01*
X198962438Y-76885238D02*
X199010057Y-76837619D01*
X199010057Y-76837619D02*
X199105295Y-76790000D01*
X199105295Y-76790000D02*
X199248152Y-76790000D01*
X199248152Y-76790000D02*
X199343390Y-76837619D01*
X199343390Y-76837619D02*
X199391009Y-76885238D01*
X199391009Y-76885238D02*
X199438628Y-76980476D01*
X199438628Y-76980476D02*
X199438628Y-77361428D01*
X198914819Y-76504285D02*
X198914819Y-75932857D01*
X199914819Y-76218571D02*
X198914819Y-76218571D01*
X199914819Y-75075714D02*
X199914819Y-75647142D01*
X199914819Y-75361428D02*
X198914819Y-75361428D01*
X198914819Y-75361428D02*
X199057676Y-75456666D01*
X199057676Y-75456666D02*
X199152914Y-75551904D01*
X199152914Y-75551904D02*
X199200533Y-75647142D01*
X212498095Y-135914819D02*
X212498095Y-134914819D01*
X212498095Y-135391009D02*
X213069523Y-135391009D01*
X213069523Y-135914819D02*
X213069523Y-134914819D01*
X213974285Y-135248152D02*
X213974285Y-135914819D01*
X213736190Y-134867200D02*
X213498095Y-135581485D01*
X213498095Y-135581485D02*
X214117142Y-135581485D01*
X148479580Y-78976666D02*
X148527200Y-79024285D01*
X148527200Y-79024285D02*
X148574819Y-79167142D01*
X148574819Y-79167142D02*
X148574819Y-79262380D01*
X148574819Y-79262380D02*
X148527200Y-79405237D01*
X148527200Y-79405237D02*
X148431961Y-79500475D01*
X148431961Y-79500475D02*
X148336723Y-79548094D01*
X148336723Y-79548094D02*
X148146247Y-79595713D01*
X148146247Y-79595713D02*
X148003390Y-79595713D01*
X148003390Y-79595713D02*
X147812914Y-79548094D01*
X147812914Y-79548094D02*
X147717676Y-79500475D01*
X147717676Y-79500475D02*
X147622438Y-79405237D01*
X147622438Y-79405237D02*
X147574819Y-79262380D01*
X147574819Y-79262380D02*
X147574819Y-79167142D01*
X147574819Y-79167142D02*
X147622438Y-79024285D01*
X147622438Y-79024285D02*
X147670057Y-78976666D01*
X147670057Y-78595713D02*
X147622438Y-78548094D01*
X147622438Y-78548094D02*
X147574819Y-78452856D01*
X147574819Y-78452856D02*
X147574819Y-78214761D01*
X147574819Y-78214761D02*
X147622438Y-78119523D01*
X147622438Y-78119523D02*
X147670057Y-78071904D01*
X147670057Y-78071904D02*
X147765295Y-78024285D01*
X147765295Y-78024285D02*
X147860533Y-78024285D01*
X147860533Y-78024285D02*
X148003390Y-78071904D01*
X148003390Y-78071904D02*
X148574819Y-78643332D01*
X148574819Y-78643332D02*
X148574819Y-78024285D01*
X214984819Y-96909048D02*
X215699104Y-96909048D01*
X215699104Y-96909048D02*
X215841961Y-96956667D01*
X215841961Y-96956667D02*
X215937200Y-97051905D01*
X215937200Y-97051905D02*
X215984819Y-97194762D01*
X215984819Y-97194762D02*
X215984819Y-97290000D01*
X215937200Y-96051905D02*
X215984819Y-96147143D01*
X215984819Y-96147143D02*
X215984819Y-96337619D01*
X215984819Y-96337619D02*
X215937200Y-96432857D01*
X215937200Y-96432857D02*
X215841961Y-96480476D01*
X215841961Y-96480476D02*
X215461009Y-96480476D01*
X215461009Y-96480476D02*
X215365771Y-96432857D01*
X215365771Y-96432857D02*
X215318152Y-96337619D01*
X215318152Y-96337619D02*
X215318152Y-96147143D01*
X215318152Y-96147143D02*
X215365771Y-96051905D01*
X215365771Y-96051905D02*
X215461009Y-96004286D01*
X215461009Y-96004286D02*
X215556247Y-96004286D01*
X215556247Y-96004286D02*
X215651485Y-96480476D01*
X215318152Y-95718571D02*
X215318152Y-95337619D01*
X214984819Y-95575714D02*
X215841961Y-95575714D01*
X215841961Y-95575714D02*
X215937200Y-95528095D01*
X215937200Y-95528095D02*
X215984819Y-95432857D01*
X215984819Y-95432857D02*
X215984819Y-95337619D01*
X215937200Y-95051904D02*
X215984819Y-94956666D01*
X215984819Y-94956666D02*
X215984819Y-94766190D01*
X215984819Y-94766190D02*
X215937200Y-94670952D01*
X215937200Y-94670952D02*
X215841961Y-94623333D01*
X215841961Y-94623333D02*
X215794342Y-94623333D01*
X215794342Y-94623333D02*
X215699104Y-94670952D01*
X215699104Y-94670952D02*
X215651485Y-94766190D01*
X215651485Y-94766190D02*
X215651485Y-94909047D01*
X215651485Y-94909047D02*
X215603866Y-95004285D01*
X215603866Y-95004285D02*
X215508628Y-95051904D01*
X215508628Y-95051904D02*
X215461009Y-95051904D01*
X215461009Y-95051904D02*
X215365771Y-95004285D01*
X215365771Y-95004285D02*
X215318152Y-94909047D01*
X215318152Y-94909047D02*
X215318152Y-94766190D01*
X215318152Y-94766190D02*
X215365771Y-94670952D01*
X215984819Y-94051904D02*
X215937200Y-94147142D01*
X215937200Y-94147142D02*
X215889580Y-94194761D01*
X215889580Y-94194761D02*
X215794342Y-94242380D01*
X215794342Y-94242380D02*
X215508628Y-94242380D01*
X215508628Y-94242380D02*
X215413390Y-94194761D01*
X215413390Y-94194761D02*
X215365771Y-94147142D01*
X215365771Y-94147142D02*
X215318152Y-94051904D01*
X215318152Y-94051904D02*
X215318152Y-93909047D01*
X215318152Y-93909047D02*
X215365771Y-93813809D01*
X215365771Y-93813809D02*
X215413390Y-93766190D01*
X215413390Y-93766190D02*
X215508628Y-93718571D01*
X215508628Y-93718571D02*
X215794342Y-93718571D01*
X215794342Y-93718571D02*
X215889580Y-93766190D01*
X215889580Y-93766190D02*
X215937200Y-93813809D01*
X215937200Y-93813809D02*
X215984819Y-93909047D01*
X215984819Y-93909047D02*
X215984819Y-94051904D01*
X215318152Y-93289999D02*
X215984819Y-93289999D01*
X215413390Y-93289999D02*
X215365771Y-93242380D01*
X215365771Y-93242380D02*
X215318152Y-93147142D01*
X215318152Y-93147142D02*
X215318152Y-93004285D01*
X215318152Y-93004285D02*
X215365771Y-92909047D01*
X215365771Y-92909047D02*
X215461009Y-92861428D01*
X215461009Y-92861428D02*
X215984819Y-92861428D01*
X216080057Y-92623333D02*
X216080057Y-91861428D01*
X215984819Y-91623332D02*
X214984819Y-91623332D01*
X214984819Y-91623332D02*
X215984819Y-91051904D01*
X215984819Y-91051904D02*
X214984819Y-91051904D01*
X215984819Y-90147142D02*
X215461009Y-90147142D01*
X215461009Y-90147142D02*
X215365771Y-90194761D01*
X215365771Y-90194761D02*
X215318152Y-90289999D01*
X215318152Y-90289999D02*
X215318152Y-90480475D01*
X215318152Y-90480475D02*
X215365771Y-90575713D01*
X215937200Y-90147142D02*
X215984819Y-90242380D01*
X215984819Y-90242380D02*
X215984819Y-90480475D01*
X215984819Y-90480475D02*
X215937200Y-90575713D01*
X215937200Y-90575713D02*
X215841961Y-90623332D01*
X215841961Y-90623332D02*
X215746723Y-90623332D01*
X215746723Y-90623332D02*
X215651485Y-90575713D01*
X215651485Y-90575713D02*
X215603866Y-90480475D01*
X215603866Y-90480475D02*
X215603866Y-90242380D01*
X215603866Y-90242380D02*
X215556247Y-90147142D01*
X215318152Y-89670951D02*
X215984819Y-89670951D01*
X215413390Y-89670951D02*
X215365771Y-89623332D01*
X215365771Y-89623332D02*
X215318152Y-89528094D01*
X215318152Y-89528094D02*
X215318152Y-89385237D01*
X215318152Y-89385237D02*
X215365771Y-89289999D01*
X215365771Y-89289999D02*
X215461009Y-89242380D01*
X215461009Y-89242380D02*
X215984819Y-89242380D01*
X215984819Y-88623332D02*
X215937200Y-88718570D01*
X215937200Y-88718570D02*
X215889580Y-88766189D01*
X215889580Y-88766189D02*
X215794342Y-88813808D01*
X215794342Y-88813808D02*
X215508628Y-88813808D01*
X215508628Y-88813808D02*
X215413390Y-88766189D01*
X215413390Y-88766189D02*
X215365771Y-88718570D01*
X215365771Y-88718570D02*
X215318152Y-88623332D01*
X215318152Y-88623332D02*
X215318152Y-88480475D01*
X215318152Y-88480475D02*
X215365771Y-88385237D01*
X215365771Y-88385237D02*
X215413390Y-88337618D01*
X215413390Y-88337618D02*
X215508628Y-88289999D01*
X215508628Y-88289999D02*
X215794342Y-88289999D01*
X215794342Y-88289999D02*
X215889580Y-88337618D01*
X215889580Y-88337618D02*
X215937200Y-88385237D01*
X215937200Y-88385237D02*
X215984819Y-88480475D01*
X215984819Y-88480475D02*
X215984819Y-88623332D01*
X215984819Y-87337618D02*
X215984819Y-87909046D01*
X215984819Y-87623332D02*
X214984819Y-87623332D01*
X214984819Y-87623332D02*
X215127676Y-87718570D01*
X215127676Y-87718570D02*
X215222914Y-87813808D01*
X215222914Y-87813808D02*
X215270533Y-87909046D01*
X168438095Y-88954819D02*
X168438095Y-89764342D01*
X168438095Y-89764342D02*
X168485714Y-89859580D01*
X168485714Y-89859580D02*
X168533333Y-89907200D01*
X168533333Y-89907200D02*
X168628571Y-89954819D01*
X168628571Y-89954819D02*
X168819047Y-89954819D01*
X168819047Y-89954819D02*
X168914285Y-89907200D01*
X168914285Y-89907200D02*
X168961904Y-89859580D01*
X168961904Y-89859580D02*
X169009523Y-89764342D01*
X169009523Y-89764342D02*
X169009523Y-88954819D01*
X170009523Y-89954819D02*
X169438095Y-89954819D01*
X169723809Y-89954819D02*
X169723809Y-88954819D01*
X169723809Y-88954819D02*
X169628571Y-89097676D01*
X169628571Y-89097676D02*
X169533333Y-89192914D01*
X169533333Y-89192914D02*
X169438095Y-89240533D01*
X134465237Y-103462438D02*
X134369999Y-103414819D01*
X134369999Y-103414819D02*
X134227142Y-103414819D01*
X134227142Y-103414819D02*
X134084285Y-103462438D01*
X134084285Y-103462438D02*
X133989047Y-103557676D01*
X133989047Y-103557676D02*
X133941428Y-103652914D01*
X133941428Y-103652914D02*
X133893809Y-103843390D01*
X133893809Y-103843390D02*
X133893809Y-103986247D01*
X133893809Y-103986247D02*
X133941428Y-104176723D01*
X133941428Y-104176723D02*
X133989047Y-104271961D01*
X133989047Y-104271961D02*
X134084285Y-104367200D01*
X134084285Y-104367200D02*
X134227142Y-104414819D01*
X134227142Y-104414819D02*
X134322380Y-104414819D01*
X134322380Y-104414819D02*
X134465237Y-104367200D01*
X134465237Y-104367200D02*
X134512856Y-104319580D01*
X134512856Y-104319580D02*
X134512856Y-103986247D01*
X134512856Y-103986247D02*
X134322380Y-103986247D01*
X135131904Y-103414819D02*
X135322380Y-103414819D01*
X135322380Y-103414819D02*
X135417618Y-103462438D01*
X135417618Y-103462438D02*
X135512856Y-103557676D01*
X135512856Y-103557676D02*
X135560475Y-103748152D01*
X135560475Y-103748152D02*
X135560475Y-104081485D01*
X135560475Y-104081485D02*
X135512856Y-104271961D01*
X135512856Y-104271961D02*
X135417618Y-104367200D01*
X135417618Y-104367200D02*
X135322380Y-104414819D01*
X135322380Y-104414819D02*
X135131904Y-104414819D01*
X135131904Y-104414819D02*
X135036666Y-104367200D01*
X135036666Y-104367200D02*
X134941428Y-104271961D01*
X134941428Y-104271961D02*
X134893809Y-104081485D01*
X134893809Y-104081485D02*
X134893809Y-103748152D01*
X134893809Y-103748152D02*
X134941428Y-103557676D01*
X134941428Y-103557676D02*
X135036666Y-103462438D01*
X135036666Y-103462438D02*
X135131904Y-103414819D01*
X135941428Y-104129104D02*
X136417618Y-104129104D01*
X135846190Y-104414819D02*
X136179523Y-103414819D01*
X136179523Y-103414819D02*
X136512856Y-104414819D01*
X137322380Y-104414819D02*
X136846190Y-104414819D01*
X136846190Y-104414819D02*
X136846190Y-103414819D01*
X137417619Y-104510057D02*
X138179523Y-104510057D01*
X138417619Y-103414819D02*
X138417619Y-104224342D01*
X138417619Y-104224342D02*
X138465238Y-104319580D01*
X138465238Y-104319580D02*
X138512857Y-104367200D01*
X138512857Y-104367200D02*
X138608095Y-104414819D01*
X138608095Y-104414819D02*
X138798571Y-104414819D01*
X138798571Y-104414819D02*
X138893809Y-104367200D01*
X138893809Y-104367200D02*
X138941428Y-104319580D01*
X138941428Y-104319580D02*
X138989047Y-104224342D01*
X138989047Y-104224342D02*
X138989047Y-103414819D01*
X139417619Y-104367200D02*
X139560476Y-104414819D01*
X139560476Y-104414819D02*
X139798571Y-104414819D01*
X139798571Y-104414819D02*
X139893809Y-104367200D01*
X139893809Y-104367200D02*
X139941428Y-104319580D01*
X139941428Y-104319580D02*
X139989047Y-104224342D01*
X139989047Y-104224342D02*
X139989047Y-104129104D01*
X139989047Y-104129104D02*
X139941428Y-104033866D01*
X139941428Y-104033866D02*
X139893809Y-103986247D01*
X139893809Y-103986247D02*
X139798571Y-103938628D01*
X139798571Y-103938628D02*
X139608095Y-103891009D01*
X139608095Y-103891009D02*
X139512857Y-103843390D01*
X139512857Y-103843390D02*
X139465238Y-103795771D01*
X139465238Y-103795771D02*
X139417619Y-103700533D01*
X139417619Y-103700533D02*
X139417619Y-103605295D01*
X139417619Y-103605295D02*
X139465238Y-103510057D01*
X139465238Y-103510057D02*
X139512857Y-103462438D01*
X139512857Y-103462438D02*
X139608095Y-103414819D01*
X139608095Y-103414819D02*
X139846190Y-103414819D01*
X139846190Y-103414819D02*
X139989047Y-103462438D01*
X140417619Y-103891009D02*
X140750952Y-103891009D01*
X140893809Y-104414819D02*
X140417619Y-104414819D01*
X140417619Y-104414819D02*
X140417619Y-103414819D01*
X140417619Y-103414819D02*
X140893809Y-103414819D01*
X141893809Y-104414819D02*
X141560476Y-103938628D01*
X141322381Y-104414819D02*
X141322381Y-103414819D01*
X141322381Y-103414819D02*
X141703333Y-103414819D01*
X141703333Y-103414819D02*
X141798571Y-103462438D01*
X141798571Y-103462438D02*
X141846190Y-103510057D01*
X141846190Y-103510057D02*
X141893809Y-103605295D01*
X141893809Y-103605295D02*
X141893809Y-103748152D01*
X141893809Y-103748152D02*
X141846190Y-103843390D01*
X141846190Y-103843390D02*
X141798571Y-103891009D01*
X141798571Y-103891009D02*
X141703333Y-103938628D01*
X141703333Y-103938628D02*
X141322381Y-103938628D01*
X142846190Y-104414819D02*
X142274762Y-104414819D01*
X142560476Y-104414819D02*
X142560476Y-103414819D01*
X142560476Y-103414819D02*
X142465238Y-103557676D01*
X142465238Y-103557676D02*
X142370000Y-103652914D01*
X142370000Y-103652914D02*
X142274762Y-103700533D01*
X174750833Y-91689580D02*
X174703214Y-91737200D01*
X174703214Y-91737200D02*
X174560357Y-91784819D01*
X174560357Y-91784819D02*
X174465119Y-91784819D01*
X174465119Y-91784819D02*
X174322262Y-91737200D01*
X174322262Y-91737200D02*
X174227024Y-91641961D01*
X174227024Y-91641961D02*
X174179405Y-91546723D01*
X174179405Y-91546723D02*
X174131786Y-91356247D01*
X174131786Y-91356247D02*
X174131786Y-91213390D01*
X174131786Y-91213390D02*
X174179405Y-91022914D01*
X174179405Y-91022914D02*
X174227024Y-90927676D01*
X174227024Y-90927676D02*
X174322262Y-90832438D01*
X174322262Y-90832438D02*
X174465119Y-90784819D01*
X174465119Y-90784819D02*
X174560357Y-90784819D01*
X174560357Y-90784819D02*
X174703214Y-90832438D01*
X174703214Y-90832438D02*
X174750833Y-90880057D01*
X175655595Y-90784819D02*
X175179405Y-90784819D01*
X175179405Y-90784819D02*
X175131786Y-91261009D01*
X175131786Y-91261009D02*
X175179405Y-91213390D01*
X175179405Y-91213390D02*
X175274643Y-91165771D01*
X175274643Y-91165771D02*
X175512738Y-91165771D01*
X175512738Y-91165771D02*
X175607976Y-91213390D01*
X175607976Y-91213390D02*
X175655595Y-91261009D01*
X175655595Y-91261009D02*
X175703214Y-91356247D01*
X175703214Y-91356247D02*
X175703214Y-91594342D01*
X175703214Y-91594342D02*
X175655595Y-91689580D01*
X175655595Y-91689580D02*
X175607976Y-91737200D01*
X175607976Y-91737200D02*
X175512738Y-91784819D01*
X175512738Y-91784819D02*
X175274643Y-91784819D01*
X175274643Y-91784819D02*
X175179405Y-91737200D01*
X175179405Y-91737200D02*
X175131786Y-91689580D01*
X127338095Y-135654819D02*
X127338095Y-134654819D01*
X127338095Y-135131009D02*
X127909523Y-135131009D01*
X127909523Y-135654819D02*
X127909523Y-134654819D01*
X128290476Y-134654819D02*
X128909523Y-134654819D01*
X128909523Y-134654819D02*
X128576190Y-135035771D01*
X128576190Y-135035771D02*
X128719047Y-135035771D01*
X128719047Y-135035771D02*
X128814285Y-135083390D01*
X128814285Y-135083390D02*
X128861904Y-135131009D01*
X128861904Y-135131009D02*
X128909523Y-135226247D01*
X128909523Y-135226247D02*
X128909523Y-135464342D01*
X128909523Y-135464342D02*
X128861904Y-135559580D01*
X128861904Y-135559580D02*
X128814285Y-135607200D01*
X128814285Y-135607200D02*
X128719047Y-135654819D01*
X128719047Y-135654819D02*
X128433333Y-135654819D01*
X128433333Y-135654819D02*
X128338095Y-135607200D01*
X128338095Y-135607200D02*
X128290476Y-135559580D01*
X127738095Y-39354819D02*
X127738095Y-38354819D01*
X127738095Y-38831009D02*
X128309523Y-38831009D01*
X128309523Y-39354819D02*
X128309523Y-38354819D01*
X129309523Y-39354819D02*
X128738095Y-39354819D01*
X129023809Y-39354819D02*
X129023809Y-38354819D01*
X129023809Y-38354819D02*
X128928571Y-38497676D01*
X128928571Y-38497676D02*
X128833333Y-38592914D01*
X128833333Y-38592914D02*
X128738095Y-38640533D01*
X141633333Y-115954819D02*
X141300000Y-115478628D01*
X141061905Y-115954819D02*
X141061905Y-114954819D01*
X141061905Y-114954819D02*
X141442857Y-114954819D01*
X141442857Y-114954819D02*
X141538095Y-115002438D01*
X141538095Y-115002438D02*
X141585714Y-115050057D01*
X141585714Y-115050057D02*
X141633333Y-115145295D01*
X141633333Y-115145295D02*
X141633333Y-115288152D01*
X141633333Y-115288152D02*
X141585714Y-115383390D01*
X141585714Y-115383390D02*
X141538095Y-115431009D01*
X141538095Y-115431009D02*
X141442857Y-115478628D01*
X141442857Y-115478628D02*
X141061905Y-115478628D01*
X142585714Y-115954819D02*
X142014286Y-115954819D01*
X142300000Y-115954819D02*
X142300000Y-114954819D01*
X142300000Y-114954819D02*
X142204762Y-115097676D01*
X142204762Y-115097676D02*
X142109524Y-115192914D01*
X142109524Y-115192914D02*
X142014286Y-115240533D01*
X136433333Y-56459580D02*
X136385714Y-56507200D01*
X136385714Y-56507200D02*
X136242857Y-56554819D01*
X136242857Y-56554819D02*
X136147619Y-56554819D01*
X136147619Y-56554819D02*
X136004762Y-56507200D01*
X136004762Y-56507200D02*
X135909524Y-56411961D01*
X135909524Y-56411961D02*
X135861905Y-56316723D01*
X135861905Y-56316723D02*
X135814286Y-56126247D01*
X135814286Y-56126247D02*
X135814286Y-55983390D01*
X135814286Y-55983390D02*
X135861905Y-55792914D01*
X135861905Y-55792914D02*
X135909524Y-55697676D01*
X135909524Y-55697676D02*
X136004762Y-55602438D01*
X136004762Y-55602438D02*
X136147619Y-55554819D01*
X136147619Y-55554819D02*
X136242857Y-55554819D01*
X136242857Y-55554819D02*
X136385714Y-55602438D01*
X136385714Y-55602438D02*
X136433333Y-55650057D01*
X137385714Y-56554819D02*
X136814286Y-56554819D01*
X137100000Y-56554819D02*
X137100000Y-55554819D01*
X137100000Y-55554819D02*
X137004762Y-55697676D01*
X137004762Y-55697676D02*
X136909524Y-55792914D01*
X136909524Y-55792914D02*
X136814286Y-55840533D01*
X152466666Y-58531009D02*
X152609523Y-58578628D01*
X152609523Y-58578628D02*
X152657142Y-58626247D01*
X152657142Y-58626247D02*
X152704761Y-58721485D01*
X152704761Y-58721485D02*
X152704761Y-58864342D01*
X152704761Y-58864342D02*
X152657142Y-58959580D01*
X152657142Y-58959580D02*
X152609523Y-59007200D01*
X152609523Y-59007200D02*
X152514285Y-59054819D01*
X152514285Y-59054819D02*
X152133333Y-59054819D01*
X152133333Y-59054819D02*
X152133333Y-58054819D01*
X152133333Y-58054819D02*
X152466666Y-58054819D01*
X152466666Y-58054819D02*
X152561904Y-58102438D01*
X152561904Y-58102438D02*
X152609523Y-58150057D01*
X152609523Y-58150057D02*
X152657142Y-58245295D01*
X152657142Y-58245295D02*
X152657142Y-58340533D01*
X152657142Y-58340533D02*
X152609523Y-58435771D01*
X152609523Y-58435771D02*
X152561904Y-58483390D01*
X152561904Y-58483390D02*
X152466666Y-58531009D01*
X152466666Y-58531009D02*
X152133333Y-58531009D01*
X153323809Y-58054819D02*
X153514285Y-58054819D01*
X153514285Y-58054819D02*
X153609523Y-58102438D01*
X153609523Y-58102438D02*
X153704761Y-58197676D01*
X153704761Y-58197676D02*
X153752380Y-58388152D01*
X153752380Y-58388152D02*
X153752380Y-58721485D01*
X153752380Y-58721485D02*
X153704761Y-58911961D01*
X153704761Y-58911961D02*
X153609523Y-59007200D01*
X153609523Y-59007200D02*
X153514285Y-59054819D01*
X153514285Y-59054819D02*
X153323809Y-59054819D01*
X153323809Y-59054819D02*
X153228571Y-59007200D01*
X153228571Y-59007200D02*
X153133333Y-58911961D01*
X153133333Y-58911961D02*
X153085714Y-58721485D01*
X153085714Y-58721485D02*
X153085714Y-58388152D01*
X153085714Y-58388152D02*
X153133333Y-58197676D01*
X153133333Y-58197676D02*
X153228571Y-58102438D01*
X153228571Y-58102438D02*
X153323809Y-58054819D01*
X154371428Y-58054819D02*
X154561904Y-58054819D01*
X154561904Y-58054819D02*
X154657142Y-58102438D01*
X154657142Y-58102438D02*
X154752380Y-58197676D01*
X154752380Y-58197676D02*
X154799999Y-58388152D01*
X154799999Y-58388152D02*
X154799999Y-58721485D01*
X154799999Y-58721485D02*
X154752380Y-58911961D01*
X154752380Y-58911961D02*
X154657142Y-59007200D01*
X154657142Y-59007200D02*
X154561904Y-59054819D01*
X154561904Y-59054819D02*
X154371428Y-59054819D01*
X154371428Y-59054819D02*
X154276190Y-59007200D01*
X154276190Y-59007200D02*
X154180952Y-58911961D01*
X154180952Y-58911961D02*
X154133333Y-58721485D01*
X154133333Y-58721485D02*
X154133333Y-58388152D01*
X154133333Y-58388152D02*
X154180952Y-58197676D01*
X154180952Y-58197676D02*
X154276190Y-58102438D01*
X154276190Y-58102438D02*
X154371428Y-58054819D01*
X155085714Y-58054819D02*
X155657142Y-58054819D01*
X155371428Y-59054819D02*
X155371428Y-58054819D01*
X156514285Y-59054819D02*
X155942857Y-59054819D01*
X156228571Y-59054819D02*
X156228571Y-58054819D01*
X156228571Y-58054819D02*
X156133333Y-58197676D01*
X156133333Y-58197676D02*
X156038095Y-58292914D01*
X156038095Y-58292914D02*
X155942857Y-58340533D01*
X161901905Y-118917200D02*
X162044762Y-118964819D01*
X162044762Y-118964819D02*
X162282857Y-118964819D01*
X162282857Y-118964819D02*
X162378095Y-118917200D01*
X162378095Y-118917200D02*
X162425714Y-118869580D01*
X162425714Y-118869580D02*
X162473333Y-118774342D01*
X162473333Y-118774342D02*
X162473333Y-118679104D01*
X162473333Y-118679104D02*
X162425714Y-118583866D01*
X162425714Y-118583866D02*
X162378095Y-118536247D01*
X162378095Y-118536247D02*
X162282857Y-118488628D01*
X162282857Y-118488628D02*
X162092381Y-118441009D01*
X162092381Y-118441009D02*
X161997143Y-118393390D01*
X161997143Y-118393390D02*
X161949524Y-118345771D01*
X161949524Y-118345771D02*
X161901905Y-118250533D01*
X161901905Y-118250533D02*
X161901905Y-118155295D01*
X161901905Y-118155295D02*
X161949524Y-118060057D01*
X161949524Y-118060057D02*
X161997143Y-118012438D01*
X161997143Y-118012438D02*
X162092381Y-117964819D01*
X162092381Y-117964819D02*
X162330476Y-117964819D01*
X162330476Y-117964819D02*
X162473333Y-118012438D01*
X162901905Y-118441009D02*
X163235238Y-118441009D01*
X163378095Y-118964819D02*
X162901905Y-118964819D01*
X162901905Y-118964819D02*
X162901905Y-117964819D01*
X162901905Y-117964819D02*
X163378095Y-117964819D01*
X163806667Y-118964819D02*
X163806667Y-117964819D01*
X163806667Y-117964819D02*
X164378095Y-118964819D01*
X164378095Y-118964819D02*
X164378095Y-117964819D01*
X164806667Y-118917200D02*
X164949524Y-118964819D01*
X164949524Y-118964819D02*
X165187619Y-118964819D01*
X165187619Y-118964819D02*
X165282857Y-118917200D01*
X165282857Y-118917200D02*
X165330476Y-118869580D01*
X165330476Y-118869580D02*
X165378095Y-118774342D01*
X165378095Y-118774342D02*
X165378095Y-118679104D01*
X165378095Y-118679104D02*
X165330476Y-118583866D01*
X165330476Y-118583866D02*
X165282857Y-118536247D01*
X165282857Y-118536247D02*
X165187619Y-118488628D01*
X165187619Y-118488628D02*
X164997143Y-118441009D01*
X164997143Y-118441009D02*
X164901905Y-118393390D01*
X164901905Y-118393390D02*
X164854286Y-118345771D01*
X164854286Y-118345771D02*
X164806667Y-118250533D01*
X164806667Y-118250533D02*
X164806667Y-118155295D01*
X164806667Y-118155295D02*
X164854286Y-118060057D01*
X164854286Y-118060057D02*
X164901905Y-118012438D01*
X164901905Y-118012438D02*
X164997143Y-117964819D01*
X164997143Y-117964819D02*
X165235238Y-117964819D01*
X165235238Y-117964819D02*
X165378095Y-118012438D01*
X165997143Y-117964819D02*
X166187619Y-117964819D01*
X166187619Y-117964819D02*
X166282857Y-118012438D01*
X166282857Y-118012438D02*
X166378095Y-118107676D01*
X166378095Y-118107676D02*
X166425714Y-118298152D01*
X166425714Y-118298152D02*
X166425714Y-118631485D01*
X166425714Y-118631485D02*
X166378095Y-118821961D01*
X166378095Y-118821961D02*
X166282857Y-118917200D01*
X166282857Y-118917200D02*
X166187619Y-118964819D01*
X166187619Y-118964819D02*
X165997143Y-118964819D01*
X165997143Y-118964819D02*
X165901905Y-118917200D01*
X165901905Y-118917200D02*
X165806667Y-118821961D01*
X165806667Y-118821961D02*
X165759048Y-118631485D01*
X165759048Y-118631485D02*
X165759048Y-118298152D01*
X165759048Y-118298152D02*
X165806667Y-118107676D01*
X165806667Y-118107676D02*
X165901905Y-118012438D01*
X165901905Y-118012438D02*
X165997143Y-117964819D01*
X167425714Y-118964819D02*
X167092381Y-118488628D01*
X166854286Y-118964819D02*
X166854286Y-117964819D01*
X166854286Y-117964819D02*
X167235238Y-117964819D01*
X167235238Y-117964819D02*
X167330476Y-118012438D01*
X167330476Y-118012438D02*
X167378095Y-118060057D01*
X167378095Y-118060057D02*
X167425714Y-118155295D01*
X167425714Y-118155295D02*
X167425714Y-118298152D01*
X167425714Y-118298152D02*
X167378095Y-118393390D01*
X167378095Y-118393390D02*
X167330476Y-118441009D01*
X167330476Y-118441009D02*
X167235238Y-118488628D01*
X167235238Y-118488628D02*
X166854286Y-118488628D01*
X167806667Y-118060057D02*
X167854286Y-118012438D01*
X167854286Y-118012438D02*
X167949524Y-117964819D01*
X167949524Y-117964819D02*
X168187619Y-117964819D01*
X168187619Y-117964819D02*
X168282857Y-118012438D01*
X168282857Y-118012438D02*
X168330476Y-118060057D01*
X168330476Y-118060057D02*
X168378095Y-118155295D01*
X168378095Y-118155295D02*
X168378095Y-118250533D01*
X168378095Y-118250533D02*
X168330476Y-118393390D01*
X168330476Y-118393390D02*
X167759048Y-118964819D01*
X167759048Y-118964819D02*
X168378095Y-118964819D01*
X205197142Y-94434819D02*
X204863809Y-93958628D01*
X204625714Y-94434819D02*
X204625714Y-93434819D01*
X204625714Y-93434819D02*
X205006666Y-93434819D01*
X205006666Y-93434819D02*
X205101904Y-93482438D01*
X205101904Y-93482438D02*
X205149523Y-93530057D01*
X205149523Y-93530057D02*
X205197142Y-93625295D01*
X205197142Y-93625295D02*
X205197142Y-93768152D01*
X205197142Y-93768152D02*
X205149523Y-93863390D01*
X205149523Y-93863390D02*
X205101904Y-93911009D01*
X205101904Y-93911009D02*
X205006666Y-93958628D01*
X205006666Y-93958628D02*
X204625714Y-93958628D01*
X206149523Y-94434819D02*
X205578095Y-94434819D01*
X205863809Y-94434819D02*
X205863809Y-93434819D01*
X205863809Y-93434819D02*
X205768571Y-93577676D01*
X205768571Y-93577676D02*
X205673333Y-93672914D01*
X205673333Y-93672914D02*
X205578095Y-93720533D01*
X206530476Y-93530057D02*
X206578095Y-93482438D01*
X206578095Y-93482438D02*
X206673333Y-93434819D01*
X206673333Y-93434819D02*
X206911428Y-93434819D01*
X206911428Y-93434819D02*
X207006666Y-93482438D01*
X207006666Y-93482438D02*
X207054285Y-93530057D01*
X207054285Y-93530057D02*
X207101904Y-93625295D01*
X207101904Y-93625295D02*
X207101904Y-93720533D01*
X207101904Y-93720533D02*
X207054285Y-93863390D01*
X207054285Y-93863390D02*
X206482857Y-94434819D01*
X206482857Y-94434819D02*
X207101904Y-94434819D01*
X163672857Y-40784819D02*
X163101429Y-40784819D01*
X163387143Y-40784819D02*
X163387143Y-39784819D01*
X163387143Y-39784819D02*
X163291905Y-39927676D01*
X163291905Y-39927676D02*
X163196667Y-40022914D01*
X163196667Y-40022914D02*
X163101429Y-40070533D01*
X164291905Y-39784819D02*
X164387143Y-39784819D01*
X164387143Y-39784819D02*
X164482381Y-39832438D01*
X164482381Y-39832438D02*
X164530000Y-39880057D01*
X164530000Y-39880057D02*
X164577619Y-39975295D01*
X164577619Y-39975295D02*
X164625238Y-40165771D01*
X164625238Y-40165771D02*
X164625238Y-40403866D01*
X164625238Y-40403866D02*
X164577619Y-40594342D01*
X164577619Y-40594342D02*
X164530000Y-40689580D01*
X164530000Y-40689580D02*
X164482381Y-40737200D01*
X164482381Y-40737200D02*
X164387143Y-40784819D01*
X164387143Y-40784819D02*
X164291905Y-40784819D01*
X164291905Y-40784819D02*
X164196667Y-40737200D01*
X164196667Y-40737200D02*
X164149048Y-40689580D01*
X164149048Y-40689580D02*
X164101429Y-40594342D01*
X164101429Y-40594342D02*
X164053810Y-40403866D01*
X164053810Y-40403866D02*
X164053810Y-40165771D01*
X164053810Y-40165771D02*
X164101429Y-39975295D01*
X164101429Y-39975295D02*
X164149048Y-39880057D01*
X164149048Y-39880057D02*
X164196667Y-39832438D01*
X164196667Y-39832438D02*
X164291905Y-39784819D01*
X165053810Y-40118152D02*
X165053810Y-41118152D01*
X165053810Y-40165771D02*
X165149048Y-40118152D01*
X165149048Y-40118152D02*
X165339524Y-40118152D01*
X165339524Y-40118152D02*
X165434762Y-40165771D01*
X165434762Y-40165771D02*
X165482381Y-40213390D01*
X165482381Y-40213390D02*
X165530000Y-40308628D01*
X165530000Y-40308628D02*
X165530000Y-40594342D01*
X165530000Y-40594342D02*
X165482381Y-40689580D01*
X165482381Y-40689580D02*
X165434762Y-40737200D01*
X165434762Y-40737200D02*
X165339524Y-40784819D01*
X165339524Y-40784819D02*
X165149048Y-40784819D01*
X165149048Y-40784819D02*
X165053810Y-40737200D01*
X165958572Y-40784819D02*
X165958572Y-40118152D01*
X165958572Y-39784819D02*
X165910953Y-39832438D01*
X165910953Y-39832438D02*
X165958572Y-39880057D01*
X165958572Y-39880057D02*
X166006191Y-39832438D01*
X166006191Y-39832438D02*
X165958572Y-39784819D01*
X165958572Y-39784819D02*
X165958572Y-39880057D01*
X166434762Y-40118152D02*
X166434762Y-40784819D01*
X166434762Y-40213390D02*
X166482381Y-40165771D01*
X166482381Y-40165771D02*
X166577619Y-40118152D01*
X166577619Y-40118152D02*
X166720476Y-40118152D01*
X166720476Y-40118152D02*
X166815714Y-40165771D01*
X166815714Y-40165771D02*
X166863333Y-40261009D01*
X166863333Y-40261009D02*
X166863333Y-40784819D01*
X167101429Y-40880057D02*
X167863333Y-40880057D01*
X168101429Y-40784819D02*
X168101429Y-39784819D01*
X168577619Y-40784819D02*
X168577619Y-39784819D01*
X168577619Y-39784819D02*
X168815714Y-39784819D01*
X168815714Y-39784819D02*
X168958571Y-39832438D01*
X168958571Y-39832438D02*
X169053809Y-39927676D01*
X169053809Y-39927676D02*
X169101428Y-40022914D01*
X169101428Y-40022914D02*
X169149047Y-40213390D01*
X169149047Y-40213390D02*
X169149047Y-40356247D01*
X169149047Y-40356247D02*
X169101428Y-40546723D01*
X169101428Y-40546723D02*
X169053809Y-40641961D01*
X169053809Y-40641961D02*
X168958571Y-40737200D01*
X168958571Y-40737200D02*
X168815714Y-40784819D01*
X168815714Y-40784819D02*
X168577619Y-40784819D01*
X170149047Y-40689580D02*
X170101428Y-40737200D01*
X170101428Y-40737200D02*
X169958571Y-40784819D01*
X169958571Y-40784819D02*
X169863333Y-40784819D01*
X169863333Y-40784819D02*
X169720476Y-40737200D01*
X169720476Y-40737200D02*
X169625238Y-40641961D01*
X169625238Y-40641961D02*
X169577619Y-40546723D01*
X169577619Y-40546723D02*
X169530000Y-40356247D01*
X169530000Y-40356247D02*
X169530000Y-40213390D01*
X169530000Y-40213390D02*
X169577619Y-40022914D01*
X169577619Y-40022914D02*
X169625238Y-39927676D01*
X169625238Y-39927676D02*
X169720476Y-39832438D01*
X169720476Y-39832438D02*
X169863333Y-39784819D01*
X169863333Y-39784819D02*
X169958571Y-39784819D01*
X169958571Y-39784819D02*
X170101428Y-39832438D01*
X170101428Y-39832438D02*
X170149047Y-39880057D01*
X170339524Y-40880057D02*
X171101428Y-40880057D01*
X171291905Y-40737200D02*
X171434762Y-40784819D01*
X171434762Y-40784819D02*
X171672857Y-40784819D01*
X171672857Y-40784819D02*
X171768095Y-40737200D01*
X171768095Y-40737200D02*
X171815714Y-40689580D01*
X171815714Y-40689580D02*
X171863333Y-40594342D01*
X171863333Y-40594342D02*
X171863333Y-40499104D01*
X171863333Y-40499104D02*
X171815714Y-40403866D01*
X171815714Y-40403866D02*
X171768095Y-40356247D01*
X171768095Y-40356247D02*
X171672857Y-40308628D01*
X171672857Y-40308628D02*
X171482381Y-40261009D01*
X171482381Y-40261009D02*
X171387143Y-40213390D01*
X171387143Y-40213390D02*
X171339524Y-40165771D01*
X171339524Y-40165771D02*
X171291905Y-40070533D01*
X171291905Y-40070533D02*
X171291905Y-39975295D01*
X171291905Y-39975295D02*
X171339524Y-39880057D01*
X171339524Y-39880057D02*
X171387143Y-39832438D01*
X171387143Y-39832438D02*
X171482381Y-39784819D01*
X171482381Y-39784819D02*
X171720476Y-39784819D01*
X171720476Y-39784819D02*
X171863333Y-39832438D01*
X172196667Y-39784819D02*
X172434762Y-40784819D01*
X172434762Y-40784819D02*
X172625238Y-40070533D01*
X172625238Y-40070533D02*
X172815714Y-40784819D01*
X172815714Y-40784819D02*
X173053810Y-39784819D01*
X173434762Y-40784819D02*
X173434762Y-39784819D01*
X173434762Y-39784819D02*
X173672857Y-39784819D01*
X173672857Y-39784819D02*
X173815714Y-39832438D01*
X173815714Y-39832438D02*
X173910952Y-39927676D01*
X173910952Y-39927676D02*
X173958571Y-40022914D01*
X173958571Y-40022914D02*
X174006190Y-40213390D01*
X174006190Y-40213390D02*
X174006190Y-40356247D01*
X174006190Y-40356247D02*
X173958571Y-40546723D01*
X173958571Y-40546723D02*
X173910952Y-40641961D01*
X173910952Y-40641961D02*
X173815714Y-40737200D01*
X173815714Y-40737200D02*
X173672857Y-40784819D01*
X173672857Y-40784819D02*
X173434762Y-40784819D01*
X174958571Y-40784819D02*
X174387143Y-40784819D01*
X174672857Y-40784819D02*
X174672857Y-39784819D01*
X174672857Y-39784819D02*
X174577619Y-39927676D01*
X174577619Y-39927676D02*
X174482381Y-40022914D01*
X174482381Y-40022914D02*
X174387143Y-40070533D01*
X161130833Y-67369580D02*
X161083214Y-67417200D01*
X161083214Y-67417200D02*
X160940357Y-67464819D01*
X160940357Y-67464819D02*
X160845119Y-67464819D01*
X160845119Y-67464819D02*
X160702262Y-67417200D01*
X160702262Y-67417200D02*
X160607024Y-67321961D01*
X160607024Y-67321961D02*
X160559405Y-67226723D01*
X160559405Y-67226723D02*
X160511786Y-67036247D01*
X160511786Y-67036247D02*
X160511786Y-66893390D01*
X160511786Y-66893390D02*
X160559405Y-66702914D01*
X160559405Y-66702914D02*
X160607024Y-66607676D01*
X160607024Y-66607676D02*
X160702262Y-66512438D01*
X160702262Y-66512438D02*
X160845119Y-66464819D01*
X160845119Y-66464819D02*
X160940357Y-66464819D01*
X160940357Y-66464819D02*
X161083214Y-66512438D01*
X161083214Y-66512438D02*
X161130833Y-66560057D01*
X161464167Y-66464819D02*
X162083214Y-66464819D01*
X162083214Y-66464819D02*
X161749881Y-66845771D01*
X161749881Y-66845771D02*
X161892738Y-66845771D01*
X161892738Y-66845771D02*
X161987976Y-66893390D01*
X161987976Y-66893390D02*
X162035595Y-66941009D01*
X162035595Y-66941009D02*
X162083214Y-67036247D01*
X162083214Y-67036247D02*
X162083214Y-67274342D01*
X162083214Y-67274342D02*
X162035595Y-67369580D01*
X162035595Y-67369580D02*
X161987976Y-67417200D01*
X161987976Y-67417200D02*
X161892738Y-67464819D01*
X161892738Y-67464819D02*
X161607024Y-67464819D01*
X161607024Y-67464819D02*
X161511786Y-67417200D01*
X161511786Y-67417200D02*
X161464167Y-67369580D01*
X186447142Y-73434819D02*
X186113809Y-72958628D01*
X185875714Y-73434819D02*
X185875714Y-72434819D01*
X185875714Y-72434819D02*
X186256666Y-72434819D01*
X186256666Y-72434819D02*
X186351904Y-72482438D01*
X186351904Y-72482438D02*
X186399523Y-72530057D01*
X186399523Y-72530057D02*
X186447142Y-72625295D01*
X186447142Y-72625295D02*
X186447142Y-72768152D01*
X186447142Y-72768152D02*
X186399523Y-72863390D01*
X186399523Y-72863390D02*
X186351904Y-72911009D01*
X186351904Y-72911009D02*
X186256666Y-72958628D01*
X186256666Y-72958628D02*
X185875714Y-72958628D01*
X187399523Y-73434819D02*
X186828095Y-73434819D01*
X187113809Y-73434819D02*
X187113809Y-72434819D01*
X187113809Y-72434819D02*
X187018571Y-72577676D01*
X187018571Y-72577676D02*
X186923333Y-72672914D01*
X186923333Y-72672914D02*
X186828095Y-72720533D01*
X188351904Y-73434819D02*
X187780476Y-73434819D01*
X188066190Y-73434819D02*
X188066190Y-72434819D01*
X188066190Y-72434819D02*
X187970952Y-72577676D01*
X187970952Y-72577676D02*
X187875714Y-72672914D01*
X187875714Y-72672914D02*
X187780476Y-72720533D01*
X190517142Y-46557200D02*
X190659999Y-46604819D01*
X190659999Y-46604819D02*
X190898094Y-46604819D01*
X190898094Y-46604819D02*
X190993332Y-46557200D01*
X190993332Y-46557200D02*
X191040951Y-46509580D01*
X191040951Y-46509580D02*
X191088570Y-46414342D01*
X191088570Y-46414342D02*
X191088570Y-46319104D01*
X191088570Y-46319104D02*
X191040951Y-46223866D01*
X191040951Y-46223866D02*
X190993332Y-46176247D01*
X190993332Y-46176247D02*
X190898094Y-46128628D01*
X190898094Y-46128628D02*
X190707618Y-46081009D01*
X190707618Y-46081009D02*
X190612380Y-46033390D01*
X190612380Y-46033390D02*
X190564761Y-45985771D01*
X190564761Y-45985771D02*
X190517142Y-45890533D01*
X190517142Y-45890533D02*
X190517142Y-45795295D01*
X190517142Y-45795295D02*
X190564761Y-45700057D01*
X190564761Y-45700057D02*
X190612380Y-45652438D01*
X190612380Y-45652438D02*
X190707618Y-45604819D01*
X190707618Y-45604819D02*
X190945713Y-45604819D01*
X190945713Y-45604819D02*
X191088570Y-45652438D01*
X191898094Y-46557200D02*
X191802856Y-46604819D01*
X191802856Y-46604819D02*
X191612380Y-46604819D01*
X191612380Y-46604819D02*
X191517142Y-46557200D01*
X191517142Y-46557200D02*
X191469523Y-46461961D01*
X191469523Y-46461961D02*
X191469523Y-46081009D01*
X191469523Y-46081009D02*
X191517142Y-45985771D01*
X191517142Y-45985771D02*
X191612380Y-45938152D01*
X191612380Y-45938152D02*
X191802856Y-45938152D01*
X191802856Y-45938152D02*
X191898094Y-45985771D01*
X191898094Y-45985771D02*
X191945713Y-46081009D01*
X191945713Y-46081009D02*
X191945713Y-46176247D01*
X191945713Y-46176247D02*
X191469523Y-46271485D01*
X192374285Y-46604819D02*
X192374285Y-45938152D01*
X192374285Y-46128628D02*
X192421904Y-46033390D01*
X192421904Y-46033390D02*
X192469523Y-45985771D01*
X192469523Y-45985771D02*
X192564761Y-45938152D01*
X192564761Y-45938152D02*
X192659999Y-45938152D01*
X192993333Y-46604819D02*
X192993333Y-45938152D01*
X192993333Y-45604819D02*
X192945714Y-45652438D01*
X192945714Y-45652438D02*
X192993333Y-45700057D01*
X192993333Y-45700057D02*
X193040952Y-45652438D01*
X193040952Y-45652438D02*
X192993333Y-45604819D01*
X192993333Y-45604819D02*
X192993333Y-45700057D01*
X193898094Y-46604819D02*
X193898094Y-46081009D01*
X193898094Y-46081009D02*
X193850475Y-45985771D01*
X193850475Y-45985771D02*
X193755237Y-45938152D01*
X193755237Y-45938152D02*
X193564761Y-45938152D01*
X193564761Y-45938152D02*
X193469523Y-45985771D01*
X193898094Y-46557200D02*
X193802856Y-46604819D01*
X193802856Y-46604819D02*
X193564761Y-46604819D01*
X193564761Y-46604819D02*
X193469523Y-46557200D01*
X193469523Y-46557200D02*
X193421904Y-46461961D01*
X193421904Y-46461961D02*
X193421904Y-46366723D01*
X193421904Y-46366723D02*
X193469523Y-46271485D01*
X193469523Y-46271485D02*
X193564761Y-46223866D01*
X193564761Y-46223866D02*
X193802856Y-46223866D01*
X193802856Y-46223866D02*
X193898094Y-46176247D01*
X194517142Y-46604819D02*
X194421904Y-46557200D01*
X194421904Y-46557200D02*
X194374285Y-46461961D01*
X194374285Y-46461961D02*
X194374285Y-45604819D01*
X194660000Y-46700057D02*
X195421904Y-46700057D01*
X195612381Y-46319104D02*
X196088571Y-46319104D01*
X195517143Y-46604819D02*
X195850476Y-45604819D01*
X195850476Y-45604819D02*
X196183809Y-46604819D01*
X196945714Y-46604819D02*
X196945714Y-45604819D01*
X196945714Y-46557200D02*
X196850476Y-46604819D01*
X196850476Y-46604819D02*
X196660000Y-46604819D01*
X196660000Y-46604819D02*
X196564762Y-46557200D01*
X196564762Y-46557200D02*
X196517143Y-46509580D01*
X196517143Y-46509580D02*
X196469524Y-46414342D01*
X196469524Y-46414342D02*
X196469524Y-46128628D01*
X196469524Y-46128628D02*
X196517143Y-46033390D01*
X196517143Y-46033390D02*
X196564762Y-45985771D01*
X196564762Y-45985771D02*
X196660000Y-45938152D01*
X196660000Y-45938152D02*
X196850476Y-45938152D01*
X196850476Y-45938152D02*
X196945714Y-45985771D01*
X197850476Y-46604819D02*
X197850476Y-46081009D01*
X197850476Y-46081009D02*
X197802857Y-45985771D01*
X197802857Y-45985771D02*
X197707619Y-45938152D01*
X197707619Y-45938152D02*
X197517143Y-45938152D01*
X197517143Y-45938152D02*
X197421905Y-45985771D01*
X197850476Y-46557200D02*
X197755238Y-46604819D01*
X197755238Y-46604819D02*
X197517143Y-46604819D01*
X197517143Y-46604819D02*
X197421905Y-46557200D01*
X197421905Y-46557200D02*
X197374286Y-46461961D01*
X197374286Y-46461961D02*
X197374286Y-46366723D01*
X197374286Y-46366723D02*
X197421905Y-46271485D01*
X197421905Y-46271485D02*
X197517143Y-46223866D01*
X197517143Y-46223866D02*
X197755238Y-46223866D01*
X197755238Y-46223866D02*
X197850476Y-46176247D01*
X198326667Y-45938152D02*
X198326667Y-46938152D01*
X198326667Y-45985771D02*
X198421905Y-45938152D01*
X198421905Y-45938152D02*
X198612381Y-45938152D01*
X198612381Y-45938152D02*
X198707619Y-45985771D01*
X198707619Y-45985771D02*
X198755238Y-46033390D01*
X198755238Y-46033390D02*
X198802857Y-46128628D01*
X198802857Y-46128628D02*
X198802857Y-46414342D01*
X198802857Y-46414342D02*
X198755238Y-46509580D01*
X198755238Y-46509580D02*
X198707619Y-46557200D01*
X198707619Y-46557200D02*
X198612381Y-46604819D01*
X198612381Y-46604819D02*
X198421905Y-46604819D01*
X198421905Y-46604819D02*
X198326667Y-46557200D01*
X199088572Y-45938152D02*
X199469524Y-45938152D01*
X199231429Y-45604819D02*
X199231429Y-46461961D01*
X199231429Y-46461961D02*
X199279048Y-46557200D01*
X199279048Y-46557200D02*
X199374286Y-46604819D01*
X199374286Y-46604819D02*
X199469524Y-46604819D01*
X200183810Y-46557200D02*
X200088572Y-46604819D01*
X200088572Y-46604819D02*
X199898096Y-46604819D01*
X199898096Y-46604819D02*
X199802858Y-46557200D01*
X199802858Y-46557200D02*
X199755239Y-46461961D01*
X199755239Y-46461961D02*
X199755239Y-46081009D01*
X199755239Y-46081009D02*
X199802858Y-45985771D01*
X199802858Y-45985771D02*
X199898096Y-45938152D01*
X199898096Y-45938152D02*
X200088572Y-45938152D01*
X200088572Y-45938152D02*
X200183810Y-45985771D01*
X200183810Y-45985771D02*
X200231429Y-46081009D01*
X200231429Y-46081009D02*
X200231429Y-46176247D01*
X200231429Y-46176247D02*
X199755239Y-46271485D01*
X200660001Y-46604819D02*
X200660001Y-45938152D01*
X200660001Y-46128628D02*
X200707620Y-46033390D01*
X200707620Y-46033390D02*
X200755239Y-45985771D01*
X200755239Y-45985771D02*
X200850477Y-45938152D01*
X200850477Y-45938152D02*
X200945715Y-45938152D01*
X201802858Y-46604819D02*
X201231430Y-46604819D01*
X201517144Y-46604819D02*
X201517144Y-45604819D01*
X201517144Y-45604819D02*
X201421906Y-45747676D01*
X201421906Y-45747676D02*
X201326668Y-45842914D01*
X201326668Y-45842914D02*
X201231430Y-45890533D01*
X212498095Y-39544819D02*
X212498095Y-38544819D01*
X212498095Y-39021009D02*
X213069523Y-39021009D01*
X213069523Y-39544819D02*
X213069523Y-38544819D01*
X213498095Y-38640057D02*
X213545714Y-38592438D01*
X213545714Y-38592438D02*
X213640952Y-38544819D01*
X213640952Y-38544819D02*
X213879047Y-38544819D01*
X213879047Y-38544819D02*
X213974285Y-38592438D01*
X213974285Y-38592438D02*
X214021904Y-38640057D01*
X214021904Y-38640057D02*
X214069523Y-38735295D01*
X214069523Y-38735295D02*
X214069523Y-38830533D01*
X214069523Y-38830533D02*
X214021904Y-38973390D01*
X214021904Y-38973390D02*
X213450476Y-39544819D01*
X213450476Y-39544819D02*
X214069523Y-39544819D01*
X152604761Y-80829580D02*
X152557142Y-80877200D01*
X152557142Y-80877200D02*
X152414285Y-80924819D01*
X152414285Y-80924819D02*
X152319047Y-80924819D01*
X152319047Y-80924819D02*
X152176190Y-80877200D01*
X152176190Y-80877200D02*
X152080952Y-80781961D01*
X152080952Y-80781961D02*
X152033333Y-80686723D01*
X152033333Y-80686723D02*
X151985714Y-80496247D01*
X151985714Y-80496247D02*
X151985714Y-80353390D01*
X151985714Y-80353390D02*
X152033333Y-80162914D01*
X152033333Y-80162914D02*
X152080952Y-80067676D01*
X152080952Y-80067676D02*
X152176190Y-79972438D01*
X152176190Y-79972438D02*
X152319047Y-79924819D01*
X152319047Y-79924819D02*
X152414285Y-79924819D01*
X152414285Y-79924819D02*
X152557142Y-79972438D01*
X152557142Y-79972438D02*
X152604761Y-80020057D01*
X153509523Y-80924819D02*
X153033333Y-80924819D01*
X153033333Y-80924819D02*
X153033333Y-79924819D01*
X154033333Y-79924819D02*
X154223809Y-79924819D01*
X154223809Y-79924819D02*
X154319047Y-79972438D01*
X154319047Y-79972438D02*
X154414285Y-80067676D01*
X154414285Y-80067676D02*
X154461904Y-80258152D01*
X154461904Y-80258152D02*
X154461904Y-80591485D01*
X154461904Y-80591485D02*
X154414285Y-80781961D01*
X154414285Y-80781961D02*
X154319047Y-80877200D01*
X154319047Y-80877200D02*
X154223809Y-80924819D01*
X154223809Y-80924819D02*
X154033333Y-80924819D01*
X154033333Y-80924819D02*
X153938095Y-80877200D01*
X153938095Y-80877200D02*
X153842857Y-80781961D01*
X153842857Y-80781961D02*
X153795238Y-80591485D01*
X153795238Y-80591485D02*
X153795238Y-80258152D01*
X153795238Y-80258152D02*
X153842857Y-80067676D01*
X153842857Y-80067676D02*
X153938095Y-79972438D01*
X153938095Y-79972438D02*
X154033333Y-79924819D01*
X155461904Y-80829580D02*
X155414285Y-80877200D01*
X155414285Y-80877200D02*
X155271428Y-80924819D01*
X155271428Y-80924819D02*
X155176190Y-80924819D01*
X155176190Y-80924819D02*
X155033333Y-80877200D01*
X155033333Y-80877200D02*
X154938095Y-80781961D01*
X154938095Y-80781961D02*
X154890476Y-80686723D01*
X154890476Y-80686723D02*
X154842857Y-80496247D01*
X154842857Y-80496247D02*
X154842857Y-80353390D01*
X154842857Y-80353390D02*
X154890476Y-80162914D01*
X154890476Y-80162914D02*
X154938095Y-80067676D01*
X154938095Y-80067676D02*
X155033333Y-79972438D01*
X155033333Y-79972438D02*
X155176190Y-79924819D01*
X155176190Y-79924819D02*
X155271428Y-79924819D01*
X155271428Y-79924819D02*
X155414285Y-79972438D01*
X155414285Y-79972438D02*
X155461904Y-80020057D01*
X155890476Y-80924819D02*
X155890476Y-79924819D01*
X156461904Y-80924819D02*
X156033333Y-80353390D01*
X156461904Y-79924819D02*
X155890476Y-80496247D01*
X157414285Y-80924819D02*
X156842857Y-80924819D01*
X157128571Y-80924819D02*
X157128571Y-79924819D01*
X157128571Y-79924819D02*
X157033333Y-80067676D01*
X157033333Y-80067676D02*
X156938095Y-80162914D01*
X156938095Y-80162914D02*
X156842857Y-80210533D01*
X205437142Y-100044819D02*
X205103809Y-99568628D01*
X204865714Y-100044819D02*
X204865714Y-99044819D01*
X204865714Y-99044819D02*
X205246666Y-99044819D01*
X205246666Y-99044819D02*
X205341904Y-99092438D01*
X205341904Y-99092438D02*
X205389523Y-99140057D01*
X205389523Y-99140057D02*
X205437142Y-99235295D01*
X205437142Y-99235295D02*
X205437142Y-99378152D01*
X205437142Y-99378152D02*
X205389523Y-99473390D01*
X205389523Y-99473390D02*
X205341904Y-99521009D01*
X205341904Y-99521009D02*
X205246666Y-99568628D01*
X205246666Y-99568628D02*
X204865714Y-99568628D01*
X206389523Y-100044819D02*
X205818095Y-100044819D01*
X206103809Y-100044819D02*
X206103809Y-99044819D01*
X206103809Y-99044819D02*
X206008571Y-99187676D01*
X206008571Y-99187676D02*
X205913333Y-99282914D01*
X205913333Y-99282914D02*
X205818095Y-99330533D01*
X207246666Y-99378152D02*
X207246666Y-100044819D01*
X207008571Y-98997200D02*
X206770476Y-99711485D01*
X206770476Y-99711485D02*
X207389523Y-99711485D01*
X205217142Y-97104819D02*
X204883809Y-96628628D01*
X204645714Y-97104819D02*
X204645714Y-96104819D01*
X204645714Y-96104819D02*
X205026666Y-96104819D01*
X205026666Y-96104819D02*
X205121904Y-96152438D01*
X205121904Y-96152438D02*
X205169523Y-96200057D01*
X205169523Y-96200057D02*
X205217142Y-96295295D01*
X205217142Y-96295295D02*
X205217142Y-96438152D01*
X205217142Y-96438152D02*
X205169523Y-96533390D01*
X205169523Y-96533390D02*
X205121904Y-96581009D01*
X205121904Y-96581009D02*
X205026666Y-96628628D01*
X205026666Y-96628628D02*
X204645714Y-96628628D01*
X206169523Y-97104819D02*
X205598095Y-97104819D01*
X205883809Y-97104819D02*
X205883809Y-96104819D01*
X205883809Y-96104819D02*
X205788571Y-96247676D01*
X205788571Y-96247676D02*
X205693333Y-96342914D01*
X205693333Y-96342914D02*
X205598095Y-96390533D01*
X206502857Y-96104819D02*
X207121904Y-96104819D01*
X207121904Y-96104819D02*
X206788571Y-96485771D01*
X206788571Y-96485771D02*
X206931428Y-96485771D01*
X206931428Y-96485771D02*
X207026666Y-96533390D01*
X207026666Y-96533390D02*
X207074285Y-96581009D01*
X207074285Y-96581009D02*
X207121904Y-96676247D01*
X207121904Y-96676247D02*
X207121904Y-96914342D01*
X207121904Y-96914342D02*
X207074285Y-97009580D01*
X207074285Y-97009580D02*
X207026666Y-97057200D01*
X207026666Y-97057200D02*
X206931428Y-97104819D01*
X206931428Y-97104819D02*
X206645714Y-97104819D01*
X206645714Y-97104819D02*
X206550476Y-97057200D01*
X206550476Y-97057200D02*
X206502857Y-97009580D01*
X186347142Y-75964819D02*
X186013809Y-75488628D01*
X185775714Y-75964819D02*
X185775714Y-74964819D01*
X185775714Y-74964819D02*
X186156666Y-74964819D01*
X186156666Y-74964819D02*
X186251904Y-75012438D01*
X186251904Y-75012438D02*
X186299523Y-75060057D01*
X186299523Y-75060057D02*
X186347142Y-75155295D01*
X186347142Y-75155295D02*
X186347142Y-75298152D01*
X186347142Y-75298152D02*
X186299523Y-75393390D01*
X186299523Y-75393390D02*
X186251904Y-75441009D01*
X186251904Y-75441009D02*
X186156666Y-75488628D01*
X186156666Y-75488628D02*
X185775714Y-75488628D01*
X187299523Y-75964819D02*
X186728095Y-75964819D01*
X187013809Y-75964819D02*
X187013809Y-74964819D01*
X187013809Y-74964819D02*
X186918571Y-75107676D01*
X186918571Y-75107676D02*
X186823333Y-75202914D01*
X186823333Y-75202914D02*
X186728095Y-75250533D01*
X187918571Y-74964819D02*
X188013809Y-74964819D01*
X188013809Y-74964819D02*
X188109047Y-75012438D01*
X188109047Y-75012438D02*
X188156666Y-75060057D01*
X188156666Y-75060057D02*
X188204285Y-75155295D01*
X188204285Y-75155295D02*
X188251904Y-75345771D01*
X188251904Y-75345771D02*
X188251904Y-75583866D01*
X188251904Y-75583866D02*
X188204285Y-75774342D01*
X188204285Y-75774342D02*
X188156666Y-75869580D01*
X188156666Y-75869580D02*
X188109047Y-75917200D01*
X188109047Y-75917200D02*
X188013809Y-75964819D01*
X188013809Y-75964819D02*
X187918571Y-75964819D01*
X187918571Y-75964819D02*
X187823333Y-75917200D01*
X187823333Y-75917200D02*
X187775714Y-75869580D01*
X187775714Y-75869580D02*
X187728095Y-75774342D01*
X187728095Y-75774342D02*
X187680476Y-75583866D01*
X187680476Y-75583866D02*
X187680476Y-75345771D01*
X187680476Y-75345771D02*
X187728095Y-75155295D01*
X187728095Y-75155295D02*
X187775714Y-75060057D01*
X187775714Y-75060057D02*
X187823333Y-75012438D01*
X187823333Y-75012438D02*
X187918571Y-74964819D01*
X138171428Y-59154819D02*
X137838095Y-58678628D01*
X137600000Y-59154819D02*
X137600000Y-58154819D01*
X137600000Y-58154819D02*
X137980952Y-58154819D01*
X137980952Y-58154819D02*
X138076190Y-58202438D01*
X138076190Y-58202438D02*
X138123809Y-58250057D01*
X138123809Y-58250057D02*
X138171428Y-58345295D01*
X138171428Y-58345295D02*
X138171428Y-58488152D01*
X138171428Y-58488152D02*
X138123809Y-58583390D01*
X138123809Y-58583390D02*
X138076190Y-58631009D01*
X138076190Y-58631009D02*
X137980952Y-58678628D01*
X137980952Y-58678628D02*
X137600000Y-58678628D01*
X138600000Y-58631009D02*
X138933333Y-58631009D01*
X139076190Y-59154819D02*
X138600000Y-59154819D01*
X138600000Y-59154819D02*
X138600000Y-58154819D01*
X138600000Y-58154819D02*
X139076190Y-58154819D01*
X139457143Y-59107200D02*
X139600000Y-59154819D01*
X139600000Y-59154819D02*
X139838095Y-59154819D01*
X139838095Y-59154819D02*
X139933333Y-59107200D01*
X139933333Y-59107200D02*
X139980952Y-59059580D01*
X139980952Y-59059580D02*
X140028571Y-58964342D01*
X140028571Y-58964342D02*
X140028571Y-58869104D01*
X140028571Y-58869104D02*
X139980952Y-58773866D01*
X139980952Y-58773866D02*
X139933333Y-58726247D01*
X139933333Y-58726247D02*
X139838095Y-58678628D01*
X139838095Y-58678628D02*
X139647619Y-58631009D01*
X139647619Y-58631009D02*
X139552381Y-58583390D01*
X139552381Y-58583390D02*
X139504762Y-58535771D01*
X139504762Y-58535771D02*
X139457143Y-58440533D01*
X139457143Y-58440533D02*
X139457143Y-58345295D01*
X139457143Y-58345295D02*
X139504762Y-58250057D01*
X139504762Y-58250057D02*
X139552381Y-58202438D01*
X139552381Y-58202438D02*
X139647619Y-58154819D01*
X139647619Y-58154819D02*
X139885714Y-58154819D01*
X139885714Y-58154819D02*
X140028571Y-58202438D01*
X140457143Y-58631009D02*
X140790476Y-58631009D01*
X140933333Y-59154819D02*
X140457143Y-59154819D01*
X140457143Y-59154819D02*
X140457143Y-58154819D01*
X140457143Y-58154819D02*
X140933333Y-58154819D01*
X141219048Y-58154819D02*
X141790476Y-58154819D01*
X141504762Y-59154819D02*
X141504762Y-58154819D01*
X142647619Y-59154819D02*
X142076191Y-59154819D01*
X142361905Y-59154819D02*
X142361905Y-58154819D01*
X142361905Y-58154819D02*
X142266667Y-58297676D01*
X142266667Y-58297676D02*
X142171429Y-58392914D01*
X142171429Y-58392914D02*
X142076191Y-58440533D01*
X162341905Y-133667200D02*
X162484762Y-133714819D01*
X162484762Y-133714819D02*
X162722857Y-133714819D01*
X162722857Y-133714819D02*
X162818095Y-133667200D01*
X162818095Y-133667200D02*
X162865714Y-133619580D01*
X162865714Y-133619580D02*
X162913333Y-133524342D01*
X162913333Y-133524342D02*
X162913333Y-133429104D01*
X162913333Y-133429104D02*
X162865714Y-133333866D01*
X162865714Y-133333866D02*
X162818095Y-133286247D01*
X162818095Y-133286247D02*
X162722857Y-133238628D01*
X162722857Y-133238628D02*
X162532381Y-133191009D01*
X162532381Y-133191009D02*
X162437143Y-133143390D01*
X162437143Y-133143390D02*
X162389524Y-133095771D01*
X162389524Y-133095771D02*
X162341905Y-133000533D01*
X162341905Y-133000533D02*
X162341905Y-132905295D01*
X162341905Y-132905295D02*
X162389524Y-132810057D01*
X162389524Y-132810057D02*
X162437143Y-132762438D01*
X162437143Y-132762438D02*
X162532381Y-132714819D01*
X162532381Y-132714819D02*
X162770476Y-132714819D01*
X162770476Y-132714819D02*
X162913333Y-132762438D01*
X163341905Y-133191009D02*
X163675238Y-133191009D01*
X163818095Y-133714819D02*
X163341905Y-133714819D01*
X163341905Y-133714819D02*
X163341905Y-132714819D01*
X163341905Y-132714819D02*
X163818095Y-132714819D01*
X164246667Y-133714819D02*
X164246667Y-132714819D01*
X164246667Y-132714819D02*
X164818095Y-133714819D01*
X164818095Y-133714819D02*
X164818095Y-132714819D01*
X165246667Y-133667200D02*
X165389524Y-133714819D01*
X165389524Y-133714819D02*
X165627619Y-133714819D01*
X165627619Y-133714819D02*
X165722857Y-133667200D01*
X165722857Y-133667200D02*
X165770476Y-133619580D01*
X165770476Y-133619580D02*
X165818095Y-133524342D01*
X165818095Y-133524342D02*
X165818095Y-133429104D01*
X165818095Y-133429104D02*
X165770476Y-133333866D01*
X165770476Y-133333866D02*
X165722857Y-133286247D01*
X165722857Y-133286247D02*
X165627619Y-133238628D01*
X165627619Y-133238628D02*
X165437143Y-133191009D01*
X165437143Y-133191009D02*
X165341905Y-133143390D01*
X165341905Y-133143390D02*
X165294286Y-133095771D01*
X165294286Y-133095771D02*
X165246667Y-133000533D01*
X165246667Y-133000533D02*
X165246667Y-132905295D01*
X165246667Y-132905295D02*
X165294286Y-132810057D01*
X165294286Y-132810057D02*
X165341905Y-132762438D01*
X165341905Y-132762438D02*
X165437143Y-132714819D01*
X165437143Y-132714819D02*
X165675238Y-132714819D01*
X165675238Y-132714819D02*
X165818095Y-132762438D01*
X166437143Y-132714819D02*
X166627619Y-132714819D01*
X166627619Y-132714819D02*
X166722857Y-132762438D01*
X166722857Y-132762438D02*
X166818095Y-132857676D01*
X166818095Y-132857676D02*
X166865714Y-133048152D01*
X166865714Y-133048152D02*
X166865714Y-133381485D01*
X166865714Y-133381485D02*
X166818095Y-133571961D01*
X166818095Y-133571961D02*
X166722857Y-133667200D01*
X166722857Y-133667200D02*
X166627619Y-133714819D01*
X166627619Y-133714819D02*
X166437143Y-133714819D01*
X166437143Y-133714819D02*
X166341905Y-133667200D01*
X166341905Y-133667200D02*
X166246667Y-133571961D01*
X166246667Y-133571961D02*
X166199048Y-133381485D01*
X166199048Y-133381485D02*
X166199048Y-133048152D01*
X166199048Y-133048152D02*
X166246667Y-132857676D01*
X166246667Y-132857676D02*
X166341905Y-132762438D01*
X166341905Y-132762438D02*
X166437143Y-132714819D01*
X167865714Y-133714819D02*
X167532381Y-133238628D01*
X167294286Y-133714819D02*
X167294286Y-132714819D01*
X167294286Y-132714819D02*
X167675238Y-132714819D01*
X167675238Y-132714819D02*
X167770476Y-132762438D01*
X167770476Y-132762438D02*
X167818095Y-132810057D01*
X167818095Y-132810057D02*
X167865714Y-132905295D01*
X167865714Y-132905295D02*
X167865714Y-133048152D01*
X167865714Y-133048152D02*
X167818095Y-133143390D01*
X167818095Y-133143390D02*
X167770476Y-133191009D01*
X167770476Y-133191009D02*
X167675238Y-133238628D01*
X167675238Y-133238628D02*
X167294286Y-133238628D01*
X168199048Y-132714819D02*
X168818095Y-132714819D01*
X168818095Y-132714819D02*
X168484762Y-133095771D01*
X168484762Y-133095771D02*
X168627619Y-133095771D01*
X168627619Y-133095771D02*
X168722857Y-133143390D01*
X168722857Y-133143390D02*
X168770476Y-133191009D01*
X168770476Y-133191009D02*
X168818095Y-133286247D01*
X168818095Y-133286247D02*
X168818095Y-133524342D01*
X168818095Y-133524342D02*
X168770476Y-133619580D01*
X168770476Y-133619580D02*
X168722857Y-133667200D01*
X168722857Y-133667200D02*
X168627619Y-133714819D01*
X168627619Y-133714819D02*
X168341905Y-133714819D01*
X168341905Y-133714819D02*
X168246667Y-133667200D01*
X168246667Y-133667200D02*
X168199048Y-133619580D01*
X128583333Y-98524819D02*
X128250000Y-98048628D01*
X128011905Y-98524819D02*
X128011905Y-97524819D01*
X128011905Y-97524819D02*
X128392857Y-97524819D01*
X128392857Y-97524819D02*
X128488095Y-97572438D01*
X128488095Y-97572438D02*
X128535714Y-97620057D01*
X128535714Y-97620057D02*
X128583333Y-97715295D01*
X128583333Y-97715295D02*
X128583333Y-97858152D01*
X128583333Y-97858152D02*
X128535714Y-97953390D01*
X128535714Y-97953390D02*
X128488095Y-98001009D01*
X128488095Y-98001009D02*
X128392857Y-98048628D01*
X128392857Y-98048628D02*
X128011905Y-98048628D01*
X128916667Y-97524819D02*
X129583333Y-97524819D01*
X129583333Y-97524819D02*
X129154762Y-98524819D01*
X186963333Y-81644819D02*
X186630000Y-81168628D01*
X186391905Y-81644819D02*
X186391905Y-80644819D01*
X186391905Y-80644819D02*
X186772857Y-80644819D01*
X186772857Y-80644819D02*
X186868095Y-80692438D01*
X186868095Y-80692438D02*
X186915714Y-80740057D01*
X186915714Y-80740057D02*
X186963333Y-80835295D01*
X186963333Y-80835295D02*
X186963333Y-80978152D01*
X186963333Y-80978152D02*
X186915714Y-81073390D01*
X186915714Y-81073390D02*
X186868095Y-81121009D01*
X186868095Y-81121009D02*
X186772857Y-81168628D01*
X186772857Y-81168628D02*
X186391905Y-81168628D01*
X187534762Y-81073390D02*
X187439524Y-81025771D01*
X187439524Y-81025771D02*
X187391905Y-80978152D01*
X187391905Y-80978152D02*
X187344286Y-80882914D01*
X187344286Y-80882914D02*
X187344286Y-80835295D01*
X187344286Y-80835295D02*
X187391905Y-80740057D01*
X187391905Y-80740057D02*
X187439524Y-80692438D01*
X187439524Y-80692438D02*
X187534762Y-80644819D01*
X187534762Y-80644819D02*
X187725238Y-80644819D01*
X187725238Y-80644819D02*
X187820476Y-80692438D01*
X187820476Y-80692438D02*
X187868095Y-80740057D01*
X187868095Y-80740057D02*
X187915714Y-80835295D01*
X187915714Y-80835295D02*
X187915714Y-80882914D01*
X187915714Y-80882914D02*
X187868095Y-80978152D01*
X187868095Y-80978152D02*
X187820476Y-81025771D01*
X187820476Y-81025771D02*
X187725238Y-81073390D01*
X187725238Y-81073390D02*
X187534762Y-81073390D01*
X187534762Y-81073390D02*
X187439524Y-81121009D01*
X187439524Y-81121009D02*
X187391905Y-81168628D01*
X187391905Y-81168628D02*
X187344286Y-81263866D01*
X187344286Y-81263866D02*
X187344286Y-81454342D01*
X187344286Y-81454342D02*
X187391905Y-81549580D01*
X187391905Y-81549580D02*
X187439524Y-81597200D01*
X187439524Y-81597200D02*
X187534762Y-81644819D01*
X187534762Y-81644819D02*
X187725238Y-81644819D01*
X187725238Y-81644819D02*
X187820476Y-81597200D01*
X187820476Y-81597200D02*
X187868095Y-81549580D01*
X187868095Y-81549580D02*
X187915714Y-81454342D01*
X187915714Y-81454342D02*
X187915714Y-81263866D01*
X187915714Y-81263866D02*
X187868095Y-81168628D01*
X187868095Y-81168628D02*
X187820476Y-81121009D01*
X187820476Y-81121009D02*
X187725238Y-81073390D01*
X142033333Y-131654819D02*
X141700000Y-131178628D01*
X141461905Y-131654819D02*
X141461905Y-130654819D01*
X141461905Y-130654819D02*
X141842857Y-130654819D01*
X141842857Y-130654819D02*
X141938095Y-130702438D01*
X141938095Y-130702438D02*
X141985714Y-130750057D01*
X141985714Y-130750057D02*
X142033333Y-130845295D01*
X142033333Y-130845295D02*
X142033333Y-130988152D01*
X142033333Y-130988152D02*
X141985714Y-131083390D01*
X141985714Y-131083390D02*
X141938095Y-131131009D01*
X141938095Y-131131009D02*
X141842857Y-131178628D01*
X141842857Y-131178628D02*
X141461905Y-131178628D01*
X142890476Y-130988152D02*
X142890476Y-131654819D01*
X142652381Y-130607200D02*
X142414286Y-131321485D01*
X142414286Y-131321485D02*
X143033333Y-131321485D01*
X141633333Y-112354819D02*
X141300000Y-111878628D01*
X141061905Y-112354819D02*
X141061905Y-111354819D01*
X141061905Y-111354819D02*
X141442857Y-111354819D01*
X141442857Y-111354819D02*
X141538095Y-111402438D01*
X141538095Y-111402438D02*
X141585714Y-111450057D01*
X141585714Y-111450057D02*
X141633333Y-111545295D01*
X141633333Y-111545295D02*
X141633333Y-111688152D01*
X141633333Y-111688152D02*
X141585714Y-111783390D01*
X141585714Y-111783390D02*
X141538095Y-111831009D01*
X141538095Y-111831009D02*
X141442857Y-111878628D01*
X141442857Y-111878628D02*
X141061905Y-111878628D01*
X142014286Y-111450057D02*
X142061905Y-111402438D01*
X142061905Y-111402438D02*
X142157143Y-111354819D01*
X142157143Y-111354819D02*
X142395238Y-111354819D01*
X142395238Y-111354819D02*
X142490476Y-111402438D01*
X142490476Y-111402438D02*
X142538095Y-111450057D01*
X142538095Y-111450057D02*
X142585714Y-111545295D01*
X142585714Y-111545295D02*
X142585714Y-111640533D01*
X142585714Y-111640533D02*
X142538095Y-111783390D01*
X142538095Y-111783390D02*
X141966667Y-112354819D01*
X141966667Y-112354819D02*
X142585714Y-112354819D01*
D11*
%TO.C,C10*%
X156840000Y-85101252D02*
X156840000Y-83678748D01*
X158660000Y-85101252D02*
X158660000Y-83678748D01*
%TO.C,C7*%
X137626248Y-122090000D02*
X139048752Y-122090000D01*
X137626248Y-123910000D02*
X139048752Y-123910000D01*
%TO.C,R9*%
X191967064Y-79120000D02*
X190512936Y-79120000D01*
X191967064Y-77300000D02*
X190512936Y-77300000D01*
%TO.C,SENSOR1*%
X150250000Y-108340000D02*
X150250000Y-107010000D01*
X151580000Y-108340000D02*
X150250000Y-108340000D01*
X152850000Y-108340000D02*
X180850000Y-108340000D01*
X152850000Y-108340000D02*
X152850000Y-105680000D01*
X180850000Y-108340000D02*
X180850000Y-105680000D01*
X152850000Y-105680000D02*
X180850000Y-105680000D01*
%TO.C,C9*%
X163873752Y-90210000D02*
X162451248Y-90210000D01*
X163873752Y-88390000D02*
X162451248Y-88390000D01*
%TO.C,C6*%
X137651248Y-117990000D02*
X139073752Y-117990000D01*
X137651248Y-119810000D02*
X139073752Y-119810000D01*
%TO.C,Power1*%
X134922500Y-95435000D02*
X134922500Y-93165000D01*
X134922500Y-93165000D02*
X130862500Y-93165000D01*
X130862500Y-95435000D02*
X134922500Y-95435000D01*
%TO.C,C4*%
X178006248Y-72300000D02*
X179428752Y-72300000D01*
X178006248Y-74120000D02*
X179428752Y-74120000D01*
%TO.C,R5*%
X133310000Y-62772936D02*
X133310000Y-64227064D01*
X131490000Y-62772936D02*
X131490000Y-64227064D01*
%TO.C,GOAL_BOT1*%
X136300000Y-137670000D02*
X136300000Y-136340000D01*
X137630000Y-137670000D02*
X136300000Y-137670000D01*
X138900000Y-137670000D02*
X141500000Y-137670000D01*
X138900000Y-137670000D02*
X138900000Y-135010000D01*
X141500000Y-137670000D02*
X141500000Y-135010000D01*
X138900000Y-135010000D02*
X141500000Y-135010000D01*
%TO.C,BARREL_JACK1*%
X137840000Y-80060000D02*
X137840000Y-81800000D01*
X136100000Y-80060000D02*
X137840000Y-80060000D01*
X137600000Y-80300000D02*
X137600000Y-83100000D01*
X123000000Y-80300000D02*
X137600000Y-80300000D01*
X137600000Y-86700000D02*
X137600000Y-89500000D01*
X137600000Y-89500000D02*
X135600000Y-89500000D01*
X132000000Y-89500000D02*
X123000000Y-89500000D01*
X123000000Y-89500000D02*
X123000000Y-80300000D01*
%TO.C,USER_INTERFACE1*%
X198020000Y-113490000D02*
X196690000Y-113490000D01*
X198020000Y-112160000D02*
X198020000Y-113490000D01*
X198020000Y-110890000D02*
X198020000Y-93050000D01*
X198020000Y-110890000D02*
X195360000Y-110890000D01*
X198020000Y-93050000D02*
X195360000Y-93050000D01*
X195360000Y-110890000D02*
X195360000Y-93050000D01*
%TO.C,R6*%
X163710000Y-62372936D02*
X163710000Y-63827064D01*
X161890000Y-62372936D02*
X161890000Y-63827064D01*
%TO.C,R3*%
X139107064Y-127740000D02*
X137652936Y-127740000D01*
X139107064Y-125920000D02*
X137652936Y-125920000D01*
%TO.C,PWM_PORT1*%
X197910000Y-87140000D02*
X196580000Y-87140000D01*
X197910000Y-85810000D02*
X197910000Y-87140000D01*
X197910000Y-84540000D02*
X197910000Y-71780000D01*
X197910000Y-84540000D02*
X195250000Y-84540000D01*
X197910000Y-71780000D02*
X195250000Y-71780000D01*
X195250000Y-84540000D02*
X195250000Y-71780000D01*
%TO.C,C2*%
X149060000Y-79521252D02*
X149060000Y-78098748D01*
X150880000Y-79521252D02*
X150880000Y-78098748D01*
%TO.C,Jetson_Nano1*%
X208330000Y-67410000D02*
X209660000Y-67410000D01*
X208330000Y-68740000D02*
X208330000Y-67410000D01*
X208330000Y-70010000D02*
X208330000Y-118330000D01*
X208330000Y-70010000D02*
X210930000Y-70010000D01*
X208330000Y-118330000D02*
X213530000Y-118330000D01*
X210930000Y-67410000D02*
X213530000Y-67410000D01*
X210930000Y-70010000D02*
X210930000Y-67410000D01*
X213530000Y-67410000D02*
X213530000Y-118330000D01*
%TO.C,U1*%
X163890000Y-74490000D02*
X163890000Y-75440000D01*
X163890000Y-75440000D02*
X162550000Y-75440000D01*
X163890000Y-84710000D02*
X163890000Y-83760000D01*
X164840000Y-74490000D02*
X163890000Y-74490000D01*
X164840000Y-84710000D02*
X163890000Y-84710000D01*
X173160000Y-74490000D02*
X174110000Y-74490000D01*
X173160000Y-84710000D02*
X174110000Y-84710000D01*
X174110000Y-74490000D02*
X174110000Y-75440000D01*
X174110000Y-84710000D02*
X174110000Y-83760000D01*
%TO.C,C8*%
X141350000Y-88106248D02*
X141350000Y-89528752D01*
X139530000Y-88106248D02*
X139530000Y-89528752D01*
%TO.C,GOAL_USER1*%
X135850000Y-108280000D02*
X135850000Y-106950000D01*
X137180000Y-108280000D02*
X135850000Y-108280000D01*
X138450000Y-108280000D02*
X141050000Y-108280000D01*
X138450000Y-108280000D02*
X138450000Y-105620000D01*
X141050000Y-108280000D02*
X141050000Y-105620000D01*
X138450000Y-105620000D02*
X141050000Y-105620000D01*
%TO.C,C5*%
X175628752Y-90390000D02*
X174206248Y-90390000D01*
X175628752Y-88570000D02*
X174206248Y-88570000D01*
%TO.C,R1*%
X139077064Y-116300000D02*
X137622936Y-116300000D01*
X139077064Y-114480000D02*
X137622936Y-114480000D01*
%TO.C,C1*%
X139526248Y-55090000D02*
X140948752Y-55090000D01*
X139526248Y-56910000D02*
X140948752Y-56910000D01*
%TO.C,BOOT1*%
X150450000Y-62400000D02*
X150450000Y-63900000D01*
X151700000Y-66400000D02*
X156200000Y-66400000D01*
X156200000Y-59900000D02*
X151700000Y-59900000D01*
X157450000Y-63900000D02*
X157450000Y-62400000D01*
%TO.C,SENSOR2*%
X150290000Y-123090000D02*
X150290000Y-121760000D01*
X151620000Y-123090000D02*
X150290000Y-123090000D01*
X152890000Y-123090000D02*
X180890000Y-123090000D01*
X152890000Y-123090000D02*
X152890000Y-120430000D01*
X180890000Y-123090000D02*
X180890000Y-120430000D01*
X152890000Y-120430000D02*
X180890000Y-120430000D01*
%TO.C,R12*%
X200932936Y-92860000D02*
X202387064Y-92860000D01*
X200932936Y-94680000D02*
X202387064Y-94680000D01*
%TO.C,10pin_IDC_SWD1*%
X174450000Y-41540000D02*
X173450000Y-41540000D01*
X173450000Y-41540000D02*
X173950000Y-42540000D01*
X173950000Y-42540000D02*
X174450000Y-41540000D01*
X179160000Y-42930000D02*
X179160000Y-52050000D01*
X170920000Y-42930000D02*
X170920000Y-44240000D01*
X158580000Y-42930000D02*
X179160000Y-42930000D01*
X177860000Y-44240000D02*
X177860000Y-50740000D01*
X170920000Y-44240000D02*
X177860000Y-44240000D01*
X166820000Y-44240000D02*
X166820000Y-42930000D01*
X166820000Y-44240000D02*
X166820000Y-44240000D01*
X159880000Y-44240000D02*
X166820000Y-44240000D01*
X177860000Y-50740000D02*
X159880000Y-50740000D01*
X159880000Y-50740000D02*
X159880000Y-44240000D01*
X179160000Y-52050000D02*
X158580000Y-52050000D01*
X158580000Y-52050000D02*
X158580000Y-42930000D01*
%TO.C,C3*%
X160586248Y-67950000D02*
X162008752Y-67950000D01*
X160586248Y-69770000D02*
X162008752Y-69770000D01*
%TO.C,R11*%
X191967064Y-73910000D02*
X190512936Y-73910000D01*
X191967064Y-72090000D02*
X190512936Y-72090000D01*
%TO.C,Serial_Adapter1*%
X191100000Y-50480000D02*
X203860000Y-50480000D01*
X191100000Y-50480000D02*
X191100000Y-47820000D01*
X203860000Y-50480000D02*
X203860000Y-47820000D01*
X188500000Y-49150000D02*
X188500000Y-47820000D01*
X188500000Y-47820000D02*
X189830000Y-47820000D01*
X191100000Y-47820000D02*
X203860000Y-47820000D01*
%TO.C,CLOCK1*%
X155330000Y-77360000D02*
X153920000Y-77360000D01*
X153920000Y-79680000D02*
X155950000Y-79680000D01*
X153920000Y-79680000D02*
X153920000Y-79020000D01*
X153920000Y-78020000D02*
X153920000Y-77360000D01*
%TO.C,R14*%
X201052936Y-98560000D02*
X202507064Y-98560000D01*
X201052936Y-100380000D02*
X202507064Y-100380000D01*
%TO.C,R13*%
X200992936Y-95730000D02*
X202447064Y-95730000D01*
X200992936Y-97550000D02*
X202447064Y-97550000D01*
%TO.C,R10*%
X191947064Y-76490000D02*
X190492936Y-76490000D01*
X191947064Y-74670000D02*
X190492936Y-74670000D01*
%TO.C,RESET1*%
X136400000Y-62450000D02*
X136400000Y-63950000D01*
X137650000Y-66450000D02*
X142150000Y-66450000D01*
X142150000Y-59950000D02*
X137650000Y-59950000D01*
X143400000Y-63950000D02*
X143400000Y-62450000D01*
%TO.C,SENSOR3*%
X150210000Y-137620000D02*
X150210000Y-136290000D01*
X151540000Y-137620000D02*
X150210000Y-137620000D01*
X152810000Y-137620000D02*
X180810000Y-137620000D01*
X152810000Y-137620000D02*
X152810000Y-134960000D01*
X180810000Y-137620000D02*
X180810000Y-134960000D01*
X152810000Y-134960000D02*
X180810000Y-134960000D01*
%TO.C,R7*%
X133227064Y-98740000D02*
X131772936Y-98740000D01*
X133227064Y-96920000D02*
X131772936Y-96920000D01*
%TO.C,R8*%
X191937064Y-81880000D02*
X190482936Y-81880000D01*
X191937064Y-80060000D02*
X190482936Y-80060000D01*
%TO.C,R4*%
X139177064Y-131810000D02*
X137722936Y-131810000D01*
X139177064Y-129990000D02*
X137722936Y-129990000D01*
%TO.C,R2*%
X139077064Y-113010000D02*
X137622936Y-113010000D01*
X139077064Y-111190000D02*
X137622936Y-111190000D01*
%TD*%
M02*
