%TF.GenerationSoftware,KiCad,Pcbnew,7.0.10*%
%TF.CreationDate,2024-03-05T14:42:54-05:00*%
%TF.ProjectId,Senior Design,53656e69-6f72-4204-9465-7369676e2e6b,rev?*%
%TF.SameCoordinates,Original*%
%TF.FileFunction,Soldermask,Bot*%
%TF.FilePolarity,Negative*%
%FSLAX46Y46*%
G04 Gerber Fmt 4.6, Leading zero omitted, Abs format (unit mm)*
G04 Created by KiCad (PCBNEW 7.0.10) date 2024-03-05 14:42:54*
%MOMM*%
%LPD*%
G01*
G04 APERTURE LIST*
G04 Aperture macros list*
%AMRoundRect*
0 Rectangle with rounded corners*
0 $1 Rounding radius*
0 $2 $3 $4 $5 $6 $7 $8 $9 X,Y pos of 4 corners*
0 Add a 4 corners polygon primitive as box body*
4,1,4,$2,$3,$4,$5,$6,$7,$8,$9,$2,$3,0*
0 Add four circle primitives for the rounded corners*
1,1,$1+$1,$2,$3*
1,1,$1+$1,$4,$5*
1,1,$1+$1,$6,$7*
1,1,$1+$1,$8,$9*
0 Add four rect primitives between the rounded corners*
20,1,$1+$1,$2,$3,$4,$5,0*
20,1,$1+$1,$4,$5,$6,$7,0*
20,1,$1+$1,$6,$7,$8,$9,0*
20,1,$1+$1,$8,$9,$2,$3,0*%
G04 Aperture macros list end*
%ADD10R,1.700000X1.700000*%
%ADD11O,1.700000X1.700000*%
%ADD12R,2.600000X2.600000*%
%ADD13C,2.600000*%
%ADD14C,4.000000*%
%ADD15C,2.000000*%
%ADD16RoundRect,0.250000X-0.600000X0.600000X-0.600000X-0.600000X0.600000X-0.600000X0.600000X0.600000X0*%
%ADD17C,1.700000*%
G04 APERTURE END LIST*
D10*
%TO.C,SENSOR1*%
X151580000Y-107010000D03*
D11*
X154120000Y-107010000D03*
X156660000Y-107010000D03*
X159200000Y-107010000D03*
X161740000Y-107010000D03*
X164280000Y-107010000D03*
X166820000Y-107010000D03*
X169360000Y-107010000D03*
X171900000Y-107010000D03*
X174440000Y-107010000D03*
X176980000Y-107010000D03*
X179520000Y-107010000D03*
%TD*%
D10*
%TO.C,GOAL_BOT1*%
X137630000Y-136340000D03*
D11*
X140170000Y-136340000D03*
%TD*%
D12*
%TO.C,BARREL_JACK1*%
X136800000Y-84900000D03*
D13*
X130800000Y-84900000D03*
X133800000Y-89600000D03*
%TD*%
D10*
%TO.C,USER_INTERFACE1*%
X196690000Y-112160000D03*
D11*
X196690000Y-109620000D03*
X196690000Y-107080000D03*
X196690000Y-104540000D03*
X196690000Y-102000000D03*
X196690000Y-99460000D03*
X196690000Y-96920000D03*
X196690000Y-94380000D03*
%TD*%
D10*
%TO.C,PWM_PORT1*%
X196580000Y-85810000D03*
D11*
X196580000Y-83270000D03*
X196580000Y-80730000D03*
X196580000Y-78190000D03*
X196580000Y-75650000D03*
X196580000Y-73110000D03*
%TD*%
D14*
%TO.C,H4*%
X213260000Y-140460000D03*
%TD*%
D10*
%TO.C,Jetson_Nano1*%
X209660000Y-68740000D03*
D11*
X212200000Y-68740000D03*
X209660000Y-71280000D03*
X212200000Y-71280000D03*
X209660000Y-73820000D03*
X212200000Y-73820000D03*
X209660000Y-76360000D03*
X212200000Y-76360000D03*
X209660000Y-78900000D03*
X212200000Y-78900000D03*
X209660000Y-81440000D03*
X212200000Y-81440000D03*
X209660000Y-83980000D03*
X212200000Y-83980000D03*
X209660000Y-86520000D03*
X212200000Y-86520000D03*
X209660000Y-89060000D03*
X212200000Y-89060000D03*
X209660000Y-91600000D03*
X212200000Y-91600000D03*
X209660000Y-94140000D03*
X212200000Y-94140000D03*
X209660000Y-96680000D03*
X212200000Y-96680000D03*
X209660000Y-99220000D03*
X212200000Y-99220000D03*
X209660000Y-101760000D03*
X212200000Y-101760000D03*
X209660000Y-104300000D03*
X212200000Y-104300000D03*
X209660000Y-106840000D03*
X212200000Y-106840000D03*
X209660000Y-109380000D03*
X212200000Y-109380000D03*
X209660000Y-111920000D03*
X212200000Y-111920000D03*
X209660000Y-114460000D03*
X212200000Y-114460000D03*
X209660000Y-117000000D03*
X212200000Y-117000000D03*
%TD*%
D10*
%TO.C,GOAL_USER1*%
X137180000Y-106950000D03*
D11*
X139720000Y-106950000D03*
%TD*%
D14*
%TO.C,H3*%
X128100000Y-140200000D03*
%TD*%
%TO.C,H1*%
X128500000Y-43900000D03*
%TD*%
D15*
%TO.C,BOOT1*%
X150700000Y-60900000D03*
X157200000Y-60900000D03*
X150700000Y-65400000D03*
X157200000Y-65400000D03*
%TD*%
D10*
%TO.C,SENSOR2*%
X151620000Y-121760000D03*
D11*
X154160000Y-121760000D03*
X156700000Y-121760000D03*
X159240000Y-121760000D03*
X161780000Y-121760000D03*
X164320000Y-121760000D03*
X166860000Y-121760000D03*
X169400000Y-121760000D03*
X171940000Y-121760000D03*
X174480000Y-121760000D03*
X177020000Y-121760000D03*
X179560000Y-121760000D03*
%TD*%
D16*
%TO.C,10pin_IDC_SWD1*%
X173950000Y-46220000D03*
D17*
X171410000Y-46220000D03*
X168870000Y-46220000D03*
X166330000Y-46220000D03*
X163790000Y-46220000D03*
X173950000Y-48760000D03*
X171410000Y-48760000D03*
X168870000Y-48760000D03*
X166330000Y-48760000D03*
X163790000Y-48760000D03*
%TD*%
D10*
%TO.C,Serial_Adapter1*%
X189830000Y-49150000D03*
D11*
X192370000Y-49150000D03*
X194910000Y-49150000D03*
X197450000Y-49150000D03*
X199990000Y-49150000D03*
X202530000Y-49150000D03*
%TD*%
D14*
%TO.C,H2*%
X213060000Y-44090000D03*
%TD*%
D15*
%TO.C,RESET1*%
X136650000Y-60950000D03*
X143150000Y-60950000D03*
X136650000Y-65450000D03*
X143150000Y-65450000D03*
%TD*%
D10*
%TO.C,SENSOR3*%
X151540000Y-136290000D03*
D11*
X154080000Y-136290000D03*
X156620000Y-136290000D03*
X159160000Y-136290000D03*
X161700000Y-136290000D03*
X164240000Y-136290000D03*
X166780000Y-136290000D03*
X169320000Y-136290000D03*
X171860000Y-136290000D03*
X174400000Y-136290000D03*
X176940000Y-136290000D03*
X179480000Y-136290000D03*
%TD*%
M02*
