M48
; DRILL file {KiCad 7.0.10} date Thu Mar  7 12:21:28 2024
; FORMAT={-:-/ absolute / inch / decimal}
; #@! TF.CreationDate,2024-03-07T12:21:28-07:00
; #@! TF.GenerationSoftware,Kicad,Pcbnew,7.0.10
; #@! TF.FileFunction,Plated,1,2,PTH
FMAT,2
INCH
; #@! TA.AperFunction,Plated,PTH,ViaDrill
T1C0.0157
; #@! TA.AperFunction,Plated,PTH,ViaDrill
T2C0.0394
; #@! TA.AperFunction,Plated,PTH,ComponentDrill
T3C0.0394
; #@! TA.AperFunction,Plated,PTH,ComponentDrill
T4C0.0433
; #@! TA.AperFunction,Plated,PTH,ComponentDrill
T5C0.0630
%
G90
G05
T1
X5.3858Y-3.8484
X5.4803Y-2.7835
X5.537Y-3.6969
X5.5591Y-2.7835
X5.5591Y-2.9606
X5.622Y-3.3307
X5.628Y-2.9616
X5.6358Y-2.6969
X5.8672Y-3.5415
X5.9094Y-3.5433
X5.9835Y-3.3315
X5.9921Y-4.0472
X6.0433Y-3.6142
X6.063Y-3.9961
X6.1677Y-3.5622
X6.1732Y-3.189
X6.1801Y-3.6219
X6.2131Y-3.1895
X6.2533Y-3.1897
X6.2835Y-2.9055
X6.2926Y-3.1885
X6.3058Y-3.227
X6.3622Y-3.5933
X6.4094Y-2.2047
X6.4134Y-2.6437
X6.437Y-3.6378
X6.5079Y-2.6929
X6.5472Y-2.6929
X6.5935Y-3.6496
X6.5945Y-3.7047
X6.6807Y-3.8382
X6.7268Y-3.839
X6.75Y-3.9504
X6.7709Y-2.3524
X6.7717Y-3.8409
X6.7736Y-2.3925
X6.776Y-2.4346
X6.7776Y-2.4776
X6.7791Y-2.5193
X6.7799Y-2.5634
X6.7807Y-2.6094
X6.7823Y-2.6571
X6.7846Y-2.7031
X6.7904Y-2.7493
X6.8185Y-3.8398
X6.8233Y-3.6008
X6.8677Y-3.8421
X6.8937Y-2.8819
X6.9197Y-2.8002
X6.948Y-3.6319
X6.9575Y-3.9496
X6.9685Y-5.0079
X7.0384Y-3.0177
X7.0669Y-5.0079
X7.1402Y-3.4681
X7.1886Y-3.4693
X7.2362Y-2.5634
X7.2362Y-2.6098
X7.2362Y-2.6571
X7.2362Y-2.7039
X7.237Y-3.4665
X7.2843Y-3.4654
X7.2988Y-1.8539
X7.4114Y-1.6291
X7.4579Y-4.0134
X7.487Y-4.7213
X7.487Y-4.8043
X7.487Y-4.8799
X7.4874Y-4.9559
X7.4882Y-4.6339
X7.9319Y-3.5118
X8.1065Y-3.6862
T2
X8.3768Y-2.1496
T3
X5.4008Y-4.2106
X5.4185Y-5.3677
X5.5008Y-4.2106
X5.5185Y-5.3677
X5.9661Y-5.3657
X5.9677Y-4.213
X5.9693Y-4.7937
X6.0661Y-5.3657
X6.0677Y-4.213
X6.0693Y-4.7937
X6.1661Y-5.3657
X6.1677Y-4.213
X6.1693Y-4.7937
X6.2661Y-5.3657
X6.2677Y-4.213
X6.2693Y-4.7937
X6.3661Y-5.3657
X6.3677Y-4.213
X6.3693Y-4.7937
X6.4484Y-1.8197
X6.4484Y-1.9197
X6.4661Y-5.3657
X6.4677Y-4.213
X6.4693Y-4.7937
X6.5484Y-1.8197
X6.5484Y-1.9197
X6.5661Y-5.3657
X6.5677Y-4.213
X6.5693Y-4.7937
X6.6484Y-1.8197
X6.6484Y-1.9197
X6.6661Y-5.3657
X6.6677Y-4.213
X6.6693Y-4.7937
X6.7484Y-1.8197
X6.7484Y-1.9197
X6.7661Y-5.3657
X6.7677Y-4.213
X6.7693Y-4.7937
X6.8484Y-1.8197
X6.8484Y-1.9197
X6.8661Y-5.3657
X6.8677Y-4.213
X6.8693Y-4.7937
X6.9661Y-5.3657
X6.9677Y-4.213
X6.9693Y-4.7937
X7.0661Y-5.3657
X7.0677Y-4.213
X7.0693Y-4.7937
X7.4736Y-1.935
X7.5736Y-1.935
X7.6736Y-1.935
X7.7394Y-2.8783
X7.7394Y-2.9783
X7.7394Y-3.0783
X7.7394Y-3.1783
X7.7394Y-3.2783
X7.7394Y-3.3783
X7.7437Y-3.7157
X7.7437Y-3.8157
X7.7437Y-3.9157
X7.7437Y-4.0157
X7.7437Y-4.1157
X7.7437Y-4.2157
X7.7437Y-4.3157
X7.7437Y-4.4157
X7.7736Y-1.935
X7.8736Y-1.935
X7.9736Y-1.935
X8.2543Y-2.7063
X8.2543Y-2.8063
X8.2543Y-2.9063
X8.2543Y-3.0063
X8.2543Y-3.1063
X8.2543Y-3.2063
X8.2543Y-3.3063
X8.2543Y-3.4063
X8.2543Y-3.5063
X8.2543Y-3.6063
X8.2543Y-3.7063
X8.2543Y-3.8063
X8.2543Y-3.9063
X8.2543Y-4.0063
X8.2543Y-4.1063
X8.2543Y-4.2063
X8.2543Y-4.3063
X8.2543Y-4.4063
X8.2543Y-4.5063
X8.2543Y-4.6063
X8.3543Y-2.7063
X8.3543Y-2.8063
X8.3543Y-2.9063
X8.3543Y-3.0063
X8.3543Y-3.1063
X8.3543Y-3.2063
X8.3543Y-3.3063
X8.3543Y-3.4063
X8.3543Y-3.5063
X8.3543Y-3.6063
X8.3543Y-3.7063
X8.3543Y-3.8063
X8.3543Y-3.9063
X8.3543Y-4.0063
X8.3543Y-4.1063
X8.3543Y-4.2063
X8.3543Y-4.3063
X8.3543Y-4.4063
X8.3543Y-4.5063
X8.3543Y-4.6063
T4
X5.3799Y-2.3996
X5.3799Y-2.5768
X5.6358Y-2.3996
X5.6358Y-2.5768
X5.9331Y-2.3976
X5.9331Y-2.5748
X6.189Y-2.3976
X6.189Y-2.5748
T5
X5.1287Y-3.3441
X5.2469Y-3.5291
X5.365Y-3.3441
M30
