%TF.GenerationSoftware,KiCad,Pcbnew,7.0.10*%
%TF.CreationDate,2024-03-07T18:04:43-07:00*%
%TF.ProjectId,User_Interface,55736572-5f49-46e7-9465-72666163652e,rev?*%
%TF.SameCoordinates,Original*%
%TF.FileFunction,Legend,Top*%
%TF.FilePolarity,Positive*%
%FSLAX46Y46*%
G04 Gerber Fmt 4.6, Leading zero omitted, Abs format (unit mm)*
G04 Created by KiCad (PCBNEW 7.0.10) date 2024-03-07 18:04:43*
%MOMM*%
%LPD*%
G01*
G04 APERTURE LIST*
%ADD10C,0.150000*%
%ADD11C,0.120000*%
G04 APERTURE END LIST*
D10*
X138958207Y-109806382D02*
X138910588Y-109854002D01*
X138910588Y-109854002D02*
X138767731Y-109901621D01*
X138767731Y-109901621D02*
X138672493Y-109901621D01*
X138672493Y-109901621D02*
X138529636Y-109854002D01*
X138529636Y-109854002D02*
X138434398Y-109758763D01*
X138434398Y-109758763D02*
X138386779Y-109663525D01*
X138386779Y-109663525D02*
X138339160Y-109473049D01*
X138339160Y-109473049D02*
X138339160Y-109330192D01*
X138339160Y-109330192D02*
X138386779Y-109139716D01*
X138386779Y-109139716D02*
X138434398Y-109044478D01*
X138434398Y-109044478D02*
X138529636Y-108949240D01*
X138529636Y-108949240D02*
X138672493Y-108901621D01*
X138672493Y-108901621D02*
X138767731Y-108901621D01*
X138767731Y-108901621D02*
X138910588Y-108949240D01*
X138910588Y-108949240D02*
X138958207Y-108996859D01*
X139291541Y-109234954D02*
X139529636Y-109901621D01*
X139767731Y-109234954D02*
X139529636Y-109901621D01*
X139529636Y-109901621D02*
X139434398Y-110139716D01*
X139434398Y-110139716D02*
X139386779Y-110187335D01*
X139386779Y-110187335D02*
X139291541Y-110234954D01*
X140148684Y-109901621D02*
X140148684Y-108901621D01*
X140148684Y-109282573D02*
X140243922Y-109234954D01*
X140243922Y-109234954D02*
X140434398Y-109234954D01*
X140434398Y-109234954D02*
X140529636Y-109282573D01*
X140529636Y-109282573D02*
X140577255Y-109330192D01*
X140577255Y-109330192D02*
X140624874Y-109425430D01*
X140624874Y-109425430D02*
X140624874Y-109711144D01*
X140624874Y-109711144D02*
X140577255Y-109806382D01*
X140577255Y-109806382D02*
X140529636Y-109854002D01*
X140529636Y-109854002D02*
X140434398Y-109901621D01*
X140434398Y-109901621D02*
X140243922Y-109901621D01*
X140243922Y-109901621D02*
X140148684Y-109854002D01*
X141434398Y-109854002D02*
X141339160Y-109901621D01*
X141339160Y-109901621D02*
X141148684Y-109901621D01*
X141148684Y-109901621D02*
X141053446Y-109854002D01*
X141053446Y-109854002D02*
X141005827Y-109758763D01*
X141005827Y-109758763D02*
X141005827Y-109377811D01*
X141005827Y-109377811D02*
X141053446Y-109282573D01*
X141053446Y-109282573D02*
X141148684Y-109234954D01*
X141148684Y-109234954D02*
X141339160Y-109234954D01*
X141339160Y-109234954D02*
X141434398Y-109282573D01*
X141434398Y-109282573D02*
X141482017Y-109377811D01*
X141482017Y-109377811D02*
X141482017Y-109473049D01*
X141482017Y-109473049D02*
X141005827Y-109568287D01*
X141910589Y-109901621D02*
X141910589Y-109234954D01*
X141910589Y-109425430D02*
X141958208Y-109330192D01*
X141958208Y-109330192D02*
X142005827Y-109282573D01*
X142005827Y-109282573D02*
X142101065Y-109234954D01*
X142101065Y-109234954D02*
X142196303Y-109234954D01*
X143624875Y-109377811D02*
X143291542Y-109377811D01*
X143291542Y-109901621D02*
X143291542Y-108901621D01*
X143291542Y-108901621D02*
X143767732Y-108901621D01*
X144291542Y-109901621D02*
X144196304Y-109854002D01*
X144196304Y-109854002D02*
X144148685Y-109806382D01*
X144148685Y-109806382D02*
X144101066Y-109711144D01*
X144101066Y-109711144D02*
X144101066Y-109425430D01*
X144101066Y-109425430D02*
X144148685Y-109330192D01*
X144148685Y-109330192D02*
X144196304Y-109282573D01*
X144196304Y-109282573D02*
X144291542Y-109234954D01*
X144291542Y-109234954D02*
X144434399Y-109234954D01*
X144434399Y-109234954D02*
X144529637Y-109282573D01*
X144529637Y-109282573D02*
X144577256Y-109330192D01*
X144577256Y-109330192D02*
X144624875Y-109425430D01*
X144624875Y-109425430D02*
X144624875Y-109711144D01*
X144624875Y-109711144D02*
X144577256Y-109806382D01*
X144577256Y-109806382D02*
X144529637Y-109854002D01*
X144529637Y-109854002D02*
X144434399Y-109901621D01*
X144434399Y-109901621D02*
X144291542Y-109901621D01*
X145196304Y-109901621D02*
X145101066Y-109854002D01*
X145101066Y-109854002D02*
X145053447Y-109806382D01*
X145053447Y-109806382D02*
X145005828Y-109711144D01*
X145005828Y-109711144D02*
X145005828Y-109425430D01*
X145005828Y-109425430D02*
X145053447Y-109330192D01*
X145053447Y-109330192D02*
X145101066Y-109282573D01*
X145101066Y-109282573D02*
X145196304Y-109234954D01*
X145196304Y-109234954D02*
X145339161Y-109234954D01*
X145339161Y-109234954D02*
X145434399Y-109282573D01*
X145434399Y-109282573D02*
X145482018Y-109330192D01*
X145482018Y-109330192D02*
X145529637Y-109425430D01*
X145529637Y-109425430D02*
X145529637Y-109711144D01*
X145529637Y-109711144D02*
X145482018Y-109806382D01*
X145482018Y-109806382D02*
X145434399Y-109854002D01*
X145434399Y-109854002D02*
X145339161Y-109901621D01*
X145339161Y-109901621D02*
X145196304Y-109901621D01*
X145910590Y-109854002D02*
X146005828Y-109901621D01*
X146005828Y-109901621D02*
X146196304Y-109901621D01*
X146196304Y-109901621D02*
X146291542Y-109854002D01*
X146291542Y-109854002D02*
X146339161Y-109758763D01*
X146339161Y-109758763D02*
X146339161Y-109711144D01*
X146339161Y-109711144D02*
X146291542Y-109615906D01*
X146291542Y-109615906D02*
X146196304Y-109568287D01*
X146196304Y-109568287D02*
X146053447Y-109568287D01*
X146053447Y-109568287D02*
X145958209Y-109520668D01*
X145958209Y-109520668D02*
X145910590Y-109425430D01*
X145910590Y-109425430D02*
X145910590Y-109377811D01*
X145910590Y-109377811D02*
X145958209Y-109282573D01*
X145958209Y-109282573D02*
X146053447Y-109234954D01*
X146053447Y-109234954D02*
X146196304Y-109234954D01*
X146196304Y-109234954D02*
X146291542Y-109282573D01*
X146767733Y-109901621D02*
X146767733Y-108901621D01*
X146767733Y-109282573D02*
X146862971Y-109234954D01*
X146862971Y-109234954D02*
X147053447Y-109234954D01*
X147053447Y-109234954D02*
X147148685Y-109282573D01*
X147148685Y-109282573D02*
X147196304Y-109330192D01*
X147196304Y-109330192D02*
X147243923Y-109425430D01*
X147243923Y-109425430D02*
X147243923Y-109711144D01*
X147243923Y-109711144D02*
X147196304Y-109806382D01*
X147196304Y-109806382D02*
X147148685Y-109854002D01*
X147148685Y-109854002D02*
X147053447Y-109901621D01*
X147053447Y-109901621D02*
X146862971Y-109901621D01*
X146862971Y-109901621D02*
X146767733Y-109854002D01*
X148101066Y-109901621D02*
X148101066Y-109377811D01*
X148101066Y-109377811D02*
X148053447Y-109282573D01*
X148053447Y-109282573D02*
X147958209Y-109234954D01*
X147958209Y-109234954D02*
X147767733Y-109234954D01*
X147767733Y-109234954D02*
X147672495Y-109282573D01*
X148101066Y-109854002D02*
X148005828Y-109901621D01*
X148005828Y-109901621D02*
X147767733Y-109901621D01*
X147767733Y-109901621D02*
X147672495Y-109854002D01*
X147672495Y-109854002D02*
X147624876Y-109758763D01*
X147624876Y-109758763D02*
X147624876Y-109663525D01*
X147624876Y-109663525D02*
X147672495Y-109568287D01*
X147672495Y-109568287D02*
X147767733Y-109520668D01*
X147767733Y-109520668D02*
X148005828Y-109520668D01*
X148005828Y-109520668D02*
X148101066Y-109473049D01*
X148720114Y-109901621D02*
X148624876Y-109854002D01*
X148624876Y-109854002D02*
X148577257Y-109758763D01*
X148577257Y-109758763D02*
X148577257Y-108901621D01*
X149243924Y-109901621D02*
X149148686Y-109854002D01*
X149148686Y-109854002D02*
X149101067Y-109758763D01*
X149101067Y-109758763D02*
X149101067Y-108901621D01*
X150910591Y-108949240D02*
X150815353Y-108901621D01*
X150815353Y-108901621D02*
X150672496Y-108901621D01*
X150672496Y-108901621D02*
X150529639Y-108949240D01*
X150529639Y-108949240D02*
X150434401Y-109044478D01*
X150434401Y-109044478D02*
X150386782Y-109139716D01*
X150386782Y-109139716D02*
X150339163Y-109330192D01*
X150339163Y-109330192D02*
X150339163Y-109473049D01*
X150339163Y-109473049D02*
X150386782Y-109663525D01*
X150386782Y-109663525D02*
X150434401Y-109758763D01*
X150434401Y-109758763D02*
X150529639Y-109854002D01*
X150529639Y-109854002D02*
X150672496Y-109901621D01*
X150672496Y-109901621D02*
X150767734Y-109901621D01*
X150767734Y-109901621D02*
X150910591Y-109854002D01*
X150910591Y-109854002D02*
X150958210Y-109806382D01*
X150958210Y-109806382D02*
X150958210Y-109473049D01*
X150958210Y-109473049D02*
X150767734Y-109473049D01*
X151815353Y-109901621D02*
X151815353Y-109377811D01*
X151815353Y-109377811D02*
X151767734Y-109282573D01*
X151767734Y-109282573D02*
X151672496Y-109234954D01*
X151672496Y-109234954D02*
X151482020Y-109234954D01*
X151482020Y-109234954D02*
X151386782Y-109282573D01*
X151815353Y-109854002D02*
X151720115Y-109901621D01*
X151720115Y-109901621D02*
X151482020Y-109901621D01*
X151482020Y-109901621D02*
X151386782Y-109854002D01*
X151386782Y-109854002D02*
X151339163Y-109758763D01*
X151339163Y-109758763D02*
X151339163Y-109663525D01*
X151339163Y-109663525D02*
X151386782Y-109568287D01*
X151386782Y-109568287D02*
X151482020Y-109520668D01*
X151482020Y-109520668D02*
X151720115Y-109520668D01*
X151720115Y-109520668D02*
X151815353Y-109473049D01*
X152291544Y-109901621D02*
X152291544Y-109234954D01*
X152291544Y-109330192D02*
X152339163Y-109282573D01*
X152339163Y-109282573D02*
X152434401Y-109234954D01*
X152434401Y-109234954D02*
X152577258Y-109234954D01*
X152577258Y-109234954D02*
X152672496Y-109282573D01*
X152672496Y-109282573D02*
X152720115Y-109377811D01*
X152720115Y-109377811D02*
X152720115Y-109901621D01*
X152720115Y-109377811D02*
X152767734Y-109282573D01*
X152767734Y-109282573D02*
X152862972Y-109234954D01*
X152862972Y-109234954D02*
X153005829Y-109234954D01*
X153005829Y-109234954D02*
X153101068Y-109282573D01*
X153101068Y-109282573D02*
X153148687Y-109377811D01*
X153148687Y-109377811D02*
X153148687Y-109901621D01*
X154005829Y-109854002D02*
X153910591Y-109901621D01*
X153910591Y-109901621D02*
X153720115Y-109901621D01*
X153720115Y-109901621D02*
X153624877Y-109854002D01*
X153624877Y-109854002D02*
X153577258Y-109758763D01*
X153577258Y-109758763D02*
X153577258Y-109377811D01*
X153577258Y-109377811D02*
X153624877Y-109282573D01*
X153624877Y-109282573D02*
X153720115Y-109234954D01*
X153720115Y-109234954D02*
X153910591Y-109234954D01*
X153910591Y-109234954D02*
X154005829Y-109282573D01*
X154005829Y-109282573D02*
X154053448Y-109377811D01*
X154053448Y-109377811D02*
X154053448Y-109473049D01*
X154053448Y-109473049D02*
X153577258Y-109568287D01*
X191638095Y-137054819D02*
X191638095Y-136054819D01*
X191638095Y-136531009D02*
X192209523Y-136531009D01*
X192209523Y-137054819D02*
X192209523Y-136054819D01*
X193114285Y-136388152D02*
X193114285Y-137054819D01*
X192876190Y-136007200D02*
X192638095Y-136721485D01*
X192638095Y-136721485D02*
X193257142Y-136721485D01*
X143858333Y-116689002D02*
X144001190Y-116736621D01*
X144001190Y-116736621D02*
X144239285Y-116736621D01*
X144239285Y-116736621D02*
X144334523Y-116689002D01*
X144334523Y-116689002D02*
X144382142Y-116641382D01*
X144382142Y-116641382D02*
X144429761Y-116546144D01*
X144429761Y-116546144D02*
X144429761Y-116450906D01*
X144429761Y-116450906D02*
X144382142Y-116355668D01*
X144382142Y-116355668D02*
X144334523Y-116308049D01*
X144334523Y-116308049D02*
X144239285Y-116260430D01*
X144239285Y-116260430D02*
X144048809Y-116212811D01*
X144048809Y-116212811D02*
X143953571Y-116165192D01*
X143953571Y-116165192D02*
X143905952Y-116117573D01*
X143905952Y-116117573D02*
X143858333Y-116022335D01*
X143858333Y-116022335D02*
X143858333Y-115927097D01*
X143858333Y-115927097D02*
X143905952Y-115831859D01*
X143905952Y-115831859D02*
X143953571Y-115784240D01*
X143953571Y-115784240D02*
X144048809Y-115736621D01*
X144048809Y-115736621D02*
X144286904Y-115736621D01*
X144286904Y-115736621D02*
X144429761Y-115784240D01*
X144715476Y-115736621D02*
X145286904Y-115736621D01*
X145001190Y-116736621D02*
X145001190Y-115736621D01*
X145810714Y-115736621D02*
X146001190Y-115736621D01*
X146001190Y-115736621D02*
X146096428Y-115784240D01*
X146096428Y-115784240D02*
X146191666Y-115879478D01*
X146191666Y-115879478D02*
X146239285Y-116069954D01*
X146239285Y-116069954D02*
X146239285Y-116403287D01*
X146239285Y-116403287D02*
X146191666Y-116593763D01*
X146191666Y-116593763D02*
X146096428Y-116689002D01*
X146096428Y-116689002D02*
X146001190Y-116736621D01*
X146001190Y-116736621D02*
X145810714Y-116736621D01*
X145810714Y-116736621D02*
X145715476Y-116689002D01*
X145715476Y-116689002D02*
X145620238Y-116593763D01*
X145620238Y-116593763D02*
X145572619Y-116403287D01*
X145572619Y-116403287D02*
X145572619Y-116069954D01*
X145572619Y-116069954D02*
X145620238Y-115879478D01*
X145620238Y-115879478D02*
X145715476Y-115784240D01*
X145715476Y-115784240D02*
X145810714Y-115736621D01*
X146667857Y-116736621D02*
X146667857Y-115736621D01*
X146667857Y-115736621D02*
X147048809Y-115736621D01*
X147048809Y-115736621D02*
X147144047Y-115784240D01*
X147144047Y-115784240D02*
X147191666Y-115831859D01*
X147191666Y-115831859D02*
X147239285Y-115927097D01*
X147239285Y-115927097D02*
X147239285Y-116069954D01*
X147239285Y-116069954D02*
X147191666Y-116165192D01*
X147191666Y-116165192D02*
X147144047Y-116212811D01*
X147144047Y-116212811D02*
X147048809Y-116260430D01*
X147048809Y-116260430D02*
X146667857Y-116260430D01*
X148191666Y-116736621D02*
X147620238Y-116736621D01*
X147905952Y-116736621D02*
X147905952Y-115736621D01*
X147905952Y-115736621D02*
X147810714Y-115879478D01*
X147810714Y-115879478D02*
X147715476Y-115974716D01*
X147715476Y-115974716D02*
X147620238Y-116022335D01*
X95138095Y-136354819D02*
X95138095Y-135354819D01*
X95138095Y-135831009D02*
X95709523Y-135831009D01*
X95709523Y-136354819D02*
X95709523Y-135354819D01*
X96090476Y-135354819D02*
X96709523Y-135354819D01*
X96709523Y-135354819D02*
X96376190Y-135735771D01*
X96376190Y-135735771D02*
X96519047Y-135735771D01*
X96519047Y-135735771D02*
X96614285Y-135783390D01*
X96614285Y-135783390D02*
X96661904Y-135831009D01*
X96661904Y-135831009D02*
X96709523Y-135926247D01*
X96709523Y-135926247D02*
X96709523Y-136164342D01*
X96709523Y-136164342D02*
X96661904Y-136259580D01*
X96661904Y-136259580D02*
X96614285Y-136307200D01*
X96614285Y-136307200D02*
X96519047Y-136354819D01*
X96519047Y-136354819D02*
X96233333Y-136354819D01*
X96233333Y-136354819D02*
X96138095Y-136307200D01*
X96138095Y-136307200D02*
X96090476Y-136259580D01*
X125821428Y-55794819D02*
X126011904Y-55794819D01*
X126011904Y-55794819D02*
X126107142Y-55842438D01*
X126107142Y-55842438D02*
X126202380Y-55937676D01*
X126202380Y-55937676D02*
X126249999Y-56128152D01*
X126249999Y-56128152D02*
X126249999Y-56461485D01*
X126249999Y-56461485D02*
X126202380Y-56651961D01*
X126202380Y-56651961D02*
X126107142Y-56747200D01*
X126107142Y-56747200D02*
X126011904Y-56794819D01*
X126011904Y-56794819D02*
X125821428Y-56794819D01*
X125821428Y-56794819D02*
X125726190Y-56747200D01*
X125726190Y-56747200D02*
X125630952Y-56651961D01*
X125630952Y-56651961D02*
X125583333Y-56461485D01*
X125583333Y-56461485D02*
X125583333Y-56128152D01*
X125583333Y-56128152D02*
X125630952Y-55937676D01*
X125630952Y-55937676D02*
X125726190Y-55842438D01*
X125726190Y-55842438D02*
X125821428Y-55794819D01*
X127154761Y-56794819D02*
X126678571Y-56794819D01*
X126678571Y-56794819D02*
X126678571Y-55794819D01*
X127488095Y-56271009D02*
X127821428Y-56271009D01*
X127964285Y-56794819D02*
X127488095Y-56794819D01*
X127488095Y-56794819D02*
X127488095Y-55794819D01*
X127488095Y-55794819D02*
X127964285Y-55794819D01*
X128392857Y-56794819D02*
X128392857Y-55794819D01*
X128392857Y-55794819D02*
X128630952Y-55794819D01*
X128630952Y-55794819D02*
X128773809Y-55842438D01*
X128773809Y-55842438D02*
X128869047Y-55937676D01*
X128869047Y-55937676D02*
X128916666Y-56032914D01*
X128916666Y-56032914D02*
X128964285Y-56223390D01*
X128964285Y-56223390D02*
X128964285Y-56366247D01*
X128964285Y-56366247D02*
X128916666Y-56556723D01*
X128916666Y-56556723D02*
X128869047Y-56651961D01*
X128869047Y-56651961D02*
X128773809Y-56747200D01*
X128773809Y-56747200D02*
X128630952Y-56794819D01*
X128630952Y-56794819D02*
X128392857Y-56794819D01*
X129916666Y-56794819D02*
X129345238Y-56794819D01*
X129630952Y-56794819D02*
X129630952Y-55794819D01*
X129630952Y-55794819D02*
X129535714Y-55937676D01*
X129535714Y-55937676D02*
X129440476Y-56032914D01*
X129440476Y-56032914D02*
X129345238Y-56080533D01*
X139841905Y-147354819D02*
X139841905Y-146354819D01*
X139841905Y-146354819D02*
X140175238Y-147069104D01*
X140175238Y-147069104D02*
X140508571Y-146354819D01*
X140508571Y-146354819D02*
X140508571Y-147354819D01*
X140937143Y-147069104D02*
X141413333Y-147069104D01*
X140841905Y-147354819D02*
X141175238Y-146354819D01*
X141175238Y-146354819D02*
X141508571Y-147354819D01*
X141841905Y-147354819D02*
X141841905Y-146354819D01*
X142318095Y-147354819D02*
X142318095Y-146354819D01*
X142318095Y-146354819D02*
X142889523Y-147354819D01*
X142889523Y-147354819D02*
X142889523Y-146354819D01*
X143127619Y-147450057D02*
X143889523Y-147450057D01*
X144699047Y-147259580D02*
X144651428Y-147307200D01*
X144651428Y-147307200D02*
X144508571Y-147354819D01*
X144508571Y-147354819D02*
X144413333Y-147354819D01*
X144413333Y-147354819D02*
X144270476Y-147307200D01*
X144270476Y-147307200D02*
X144175238Y-147211961D01*
X144175238Y-147211961D02*
X144127619Y-147116723D01*
X144127619Y-147116723D02*
X144080000Y-146926247D01*
X144080000Y-146926247D02*
X144080000Y-146783390D01*
X144080000Y-146783390D02*
X144127619Y-146592914D01*
X144127619Y-146592914D02*
X144175238Y-146497676D01*
X144175238Y-146497676D02*
X144270476Y-146402438D01*
X144270476Y-146402438D02*
X144413333Y-146354819D01*
X144413333Y-146354819D02*
X144508571Y-146354819D01*
X144508571Y-146354819D02*
X144651428Y-146402438D01*
X144651428Y-146402438D02*
X144699047Y-146450057D01*
X145318095Y-146354819D02*
X145508571Y-146354819D01*
X145508571Y-146354819D02*
X145603809Y-146402438D01*
X145603809Y-146402438D02*
X145699047Y-146497676D01*
X145699047Y-146497676D02*
X145746666Y-146688152D01*
X145746666Y-146688152D02*
X145746666Y-147021485D01*
X145746666Y-147021485D02*
X145699047Y-147211961D01*
X145699047Y-147211961D02*
X145603809Y-147307200D01*
X145603809Y-147307200D02*
X145508571Y-147354819D01*
X145508571Y-147354819D02*
X145318095Y-147354819D01*
X145318095Y-147354819D02*
X145222857Y-147307200D01*
X145222857Y-147307200D02*
X145127619Y-147211961D01*
X145127619Y-147211961D02*
X145080000Y-147021485D01*
X145080000Y-147021485D02*
X145080000Y-146688152D01*
X145080000Y-146688152D02*
X145127619Y-146497676D01*
X145127619Y-146497676D02*
X145222857Y-146402438D01*
X145222857Y-146402438D02*
X145318095Y-146354819D01*
X146175238Y-147354819D02*
X146175238Y-146354819D01*
X146175238Y-146354819D02*
X146746666Y-147354819D01*
X146746666Y-147354819D02*
X146746666Y-146354819D01*
X147080000Y-146354819D02*
X147651428Y-146354819D01*
X147365714Y-147354819D02*
X147365714Y-146354819D01*
X148556190Y-147354819D02*
X148222857Y-146878628D01*
X147984762Y-147354819D02*
X147984762Y-146354819D01*
X147984762Y-146354819D02*
X148365714Y-146354819D01*
X148365714Y-146354819D02*
X148460952Y-146402438D01*
X148460952Y-146402438D02*
X148508571Y-146450057D01*
X148508571Y-146450057D02*
X148556190Y-146545295D01*
X148556190Y-146545295D02*
X148556190Y-146688152D01*
X148556190Y-146688152D02*
X148508571Y-146783390D01*
X148508571Y-146783390D02*
X148460952Y-146831009D01*
X148460952Y-146831009D02*
X148365714Y-146878628D01*
X148365714Y-146878628D02*
X147984762Y-146878628D01*
X149175238Y-146354819D02*
X149365714Y-146354819D01*
X149365714Y-146354819D02*
X149460952Y-146402438D01*
X149460952Y-146402438D02*
X149556190Y-146497676D01*
X149556190Y-146497676D02*
X149603809Y-146688152D01*
X149603809Y-146688152D02*
X149603809Y-147021485D01*
X149603809Y-147021485D02*
X149556190Y-147211961D01*
X149556190Y-147211961D02*
X149460952Y-147307200D01*
X149460952Y-147307200D02*
X149365714Y-147354819D01*
X149365714Y-147354819D02*
X149175238Y-147354819D01*
X149175238Y-147354819D02*
X149080000Y-147307200D01*
X149080000Y-147307200D02*
X148984762Y-147211961D01*
X148984762Y-147211961D02*
X148937143Y-147021485D01*
X148937143Y-147021485D02*
X148937143Y-146688152D01*
X148937143Y-146688152D02*
X148984762Y-146497676D01*
X148984762Y-146497676D02*
X149080000Y-146402438D01*
X149080000Y-146402438D02*
X149175238Y-146354819D01*
X150508571Y-147354819D02*
X150032381Y-147354819D01*
X150032381Y-147354819D02*
X150032381Y-146354819D01*
X151365714Y-147354819D02*
X150794286Y-147354819D01*
X151080000Y-147354819D02*
X151080000Y-146354819D01*
X151080000Y-146354819D02*
X150984762Y-146497676D01*
X150984762Y-146497676D02*
X150889524Y-146592914D01*
X150889524Y-146592914D02*
X150794286Y-146640533D01*
X191738095Y-47654819D02*
X191738095Y-46654819D01*
X191738095Y-47131009D02*
X192309523Y-47131009D01*
X192309523Y-47654819D02*
X192309523Y-46654819D01*
X192738095Y-46750057D02*
X192785714Y-46702438D01*
X192785714Y-46702438D02*
X192880952Y-46654819D01*
X192880952Y-46654819D02*
X193119047Y-46654819D01*
X193119047Y-46654819D02*
X193214285Y-46702438D01*
X193214285Y-46702438D02*
X193261904Y-46750057D01*
X193261904Y-46750057D02*
X193309523Y-46845295D01*
X193309523Y-46845295D02*
X193309523Y-46940533D01*
X193309523Y-46940533D02*
X193261904Y-47083390D01*
X193261904Y-47083390D02*
X192690476Y-47654819D01*
X192690476Y-47654819D02*
X193309523Y-47654819D01*
X169621428Y-116736621D02*
X169288095Y-116260430D01*
X169050000Y-116736621D02*
X169050000Y-115736621D01*
X169050000Y-115736621D02*
X169430952Y-115736621D01*
X169430952Y-115736621D02*
X169526190Y-115784240D01*
X169526190Y-115784240D02*
X169573809Y-115831859D01*
X169573809Y-115831859D02*
X169621428Y-115927097D01*
X169621428Y-115927097D02*
X169621428Y-116069954D01*
X169621428Y-116069954D02*
X169573809Y-116165192D01*
X169573809Y-116165192D02*
X169526190Y-116212811D01*
X169526190Y-116212811D02*
X169430952Y-116260430D01*
X169430952Y-116260430D02*
X169050000Y-116260430D01*
X170050000Y-116212811D02*
X170383333Y-116212811D01*
X170526190Y-116736621D02*
X170050000Y-116736621D01*
X170050000Y-116736621D02*
X170050000Y-115736621D01*
X170050000Y-115736621D02*
X170526190Y-115736621D01*
X170907143Y-116689002D02*
X171050000Y-116736621D01*
X171050000Y-116736621D02*
X171288095Y-116736621D01*
X171288095Y-116736621D02*
X171383333Y-116689002D01*
X171383333Y-116689002D02*
X171430952Y-116641382D01*
X171430952Y-116641382D02*
X171478571Y-116546144D01*
X171478571Y-116546144D02*
X171478571Y-116450906D01*
X171478571Y-116450906D02*
X171430952Y-116355668D01*
X171430952Y-116355668D02*
X171383333Y-116308049D01*
X171383333Y-116308049D02*
X171288095Y-116260430D01*
X171288095Y-116260430D02*
X171097619Y-116212811D01*
X171097619Y-116212811D02*
X171002381Y-116165192D01*
X171002381Y-116165192D02*
X170954762Y-116117573D01*
X170954762Y-116117573D02*
X170907143Y-116022335D01*
X170907143Y-116022335D02*
X170907143Y-115927097D01*
X170907143Y-115927097D02*
X170954762Y-115831859D01*
X170954762Y-115831859D02*
X171002381Y-115784240D01*
X171002381Y-115784240D02*
X171097619Y-115736621D01*
X171097619Y-115736621D02*
X171335714Y-115736621D01*
X171335714Y-115736621D02*
X171478571Y-115784240D01*
X171907143Y-116212811D02*
X172240476Y-116212811D01*
X172383333Y-116736621D02*
X171907143Y-116736621D01*
X171907143Y-116736621D02*
X171907143Y-115736621D01*
X171907143Y-115736621D02*
X172383333Y-115736621D01*
X172669048Y-115736621D02*
X173240476Y-115736621D01*
X172954762Y-116736621D02*
X172954762Y-115736621D01*
X174097619Y-116736621D02*
X173526191Y-116736621D01*
X173811905Y-116736621D02*
X173811905Y-115736621D01*
X173811905Y-115736621D02*
X173716667Y-115879478D01*
X173716667Y-115879478D02*
X173621429Y-115974716D01*
X173621429Y-115974716D02*
X173526191Y-116022335D01*
X118047619Y-116689002D02*
X118190476Y-116736621D01*
X118190476Y-116736621D02*
X118428571Y-116736621D01*
X118428571Y-116736621D02*
X118523809Y-116689002D01*
X118523809Y-116689002D02*
X118571428Y-116641382D01*
X118571428Y-116641382D02*
X118619047Y-116546144D01*
X118619047Y-116546144D02*
X118619047Y-116450906D01*
X118619047Y-116450906D02*
X118571428Y-116355668D01*
X118571428Y-116355668D02*
X118523809Y-116308049D01*
X118523809Y-116308049D02*
X118428571Y-116260430D01*
X118428571Y-116260430D02*
X118238095Y-116212811D01*
X118238095Y-116212811D02*
X118142857Y-116165192D01*
X118142857Y-116165192D02*
X118095238Y-116117573D01*
X118095238Y-116117573D02*
X118047619Y-116022335D01*
X118047619Y-116022335D02*
X118047619Y-115927097D01*
X118047619Y-115927097D02*
X118095238Y-115831859D01*
X118095238Y-115831859D02*
X118142857Y-115784240D01*
X118142857Y-115784240D02*
X118238095Y-115736621D01*
X118238095Y-115736621D02*
X118476190Y-115736621D01*
X118476190Y-115736621D02*
X118619047Y-115784240D01*
X118904762Y-115736621D02*
X119476190Y-115736621D01*
X119190476Y-116736621D02*
X119190476Y-115736621D01*
X119761905Y-116450906D02*
X120238095Y-116450906D01*
X119666667Y-116736621D02*
X120000000Y-115736621D01*
X120000000Y-115736621D02*
X120333333Y-116736621D01*
X121238095Y-116736621D02*
X120904762Y-116260430D01*
X120666667Y-116736621D02*
X120666667Y-115736621D01*
X120666667Y-115736621D02*
X121047619Y-115736621D01*
X121047619Y-115736621D02*
X121142857Y-115784240D01*
X121142857Y-115784240D02*
X121190476Y-115831859D01*
X121190476Y-115831859D02*
X121238095Y-115927097D01*
X121238095Y-115927097D02*
X121238095Y-116069954D01*
X121238095Y-116069954D02*
X121190476Y-116165192D01*
X121190476Y-116165192D02*
X121142857Y-116212811D01*
X121142857Y-116212811D02*
X121047619Y-116260430D01*
X121047619Y-116260430D02*
X120666667Y-116260430D01*
X121523810Y-115736621D02*
X122095238Y-115736621D01*
X121809524Y-116736621D02*
X121809524Y-115736621D01*
X122952381Y-116736621D02*
X122380953Y-116736621D01*
X122666667Y-116736621D02*
X122666667Y-115736621D01*
X122666667Y-115736621D02*
X122571429Y-115879478D01*
X122571429Y-115879478D02*
X122476191Y-115974716D01*
X122476191Y-115974716D02*
X122380953Y-116022335D01*
X94238095Y-48854819D02*
X94238095Y-47854819D01*
X94238095Y-48331009D02*
X94809523Y-48331009D01*
X94809523Y-48854819D02*
X94809523Y-47854819D01*
X95809523Y-48854819D02*
X95238095Y-48854819D01*
X95523809Y-48854819D02*
X95523809Y-47854819D01*
X95523809Y-47854819D02*
X95428571Y-47997676D01*
X95428571Y-47997676D02*
X95333333Y-48092914D01*
X95333333Y-48092914D02*
X95238095Y-48140533D01*
D11*
%TO.C,STOP1*%
X142525000Y-119781802D02*
X142525000Y-121281802D01*
X143775000Y-123781802D02*
X148275000Y-123781802D01*
X148275000Y-117281802D02*
X143775000Y-117281802D01*
X149525000Y-121281802D02*
X149525000Y-119781802D01*
%TO.C,OLED1*%
X109070000Y-54930000D02*
X147230000Y-54930000D01*
X109070000Y-54930000D02*
X109070000Y-52270000D01*
X147230000Y-54930000D02*
X147230000Y-52270000D01*
X106470000Y-53600000D02*
X106470000Y-52270000D01*
X106470000Y-52270000D02*
X107800000Y-52270000D01*
X109070000Y-52270000D02*
X147230000Y-52270000D01*
%TO.C,MAIN_CONTROL1*%
X137945000Y-145665000D02*
X155785000Y-145665000D01*
X137945000Y-145665000D02*
X137945000Y-143005000D01*
X155785000Y-145665000D02*
X155785000Y-143005000D01*
X135345000Y-144335000D02*
X135345000Y-143005000D01*
X135345000Y-143005000D02*
X136675000Y-143005000D01*
X137945000Y-143005000D02*
X155785000Y-143005000D01*
%TO.C,RESET1*%
X168050000Y-119781802D02*
X168050000Y-121281802D01*
X169300000Y-123781802D02*
X173800000Y-123781802D01*
X173800000Y-117281802D02*
X169300000Y-117281802D01*
X175050000Y-121281802D02*
X175050000Y-119781802D01*
%TO.C,START1*%
X117000000Y-119781802D02*
X117000000Y-121281802D01*
X118250000Y-123781802D02*
X122750000Y-123781802D01*
X122750000Y-117281802D02*
X118250000Y-117281802D01*
X124000000Y-121281802D02*
X124000000Y-119781802D01*
%TD*%
M02*
