M48
; DRILL file {KiCad 7.0.10} date Thu Mar  7 12:26:49 2024
; FORMAT={-:-/ absolute / inch / decimal}
; #@! TF.CreationDate,2024-03-07T12:26:49-07:00
; #@! TF.GenerationSoftware,Kicad,Pcbnew,7.0.10
; #@! TF.FileFunction,Plated,1,2,PTH
FMAT,2
INCH
; #@! TA.AperFunction,Plated,PTH,ViaDrill
T1C0.0157
; #@! TA.AperFunction,Plated,PTH,ComponentDrill
T2C0.0300
; #@! TA.AperFunction,Plated,PTH,ViaDrill
T3C0.0394
%
G90
G05
T1
X2.385Y-3.6008
X2.4594Y-3.4268
X3.0618Y-3.5945
X3.1545Y-3.4248
X3.7705Y-3.5996
X3.876Y-3.4268
X4.4807Y-3.6008
X4.5953Y-3.4295
X4.7846Y-3.1071
X4.7996Y-3.1563
X5.1016Y-3.3646
X5.1878Y-3.5949
X5.2937Y-3.426
X5.8961Y-3.6004
X6.0039Y-3.4276
X6.6047Y-3.6028
X6.715Y-3.4276
X7.3126Y-3.6035
X7.4323Y-3.426
X8.0189Y-3.6051
X8.1331Y-3.4039
X8.7291Y-3.615
X8.8437Y-3.4283
T2
X5.1976Y-3.1075
X5.2976Y-3.1075
X5.3976Y-3.1075
X5.4976Y-3.1075
X5.5976Y-3.1075
X5.6976Y-3.1075
X5.7976Y-3.1075
X5.8976Y-3.1075
X5.9976Y-3.1075
X6.0976Y-3.1075
X6.1976Y-3.1075
X6.2976Y-3.1075
T3
X4.4748Y-3.1012
M30
