%TF.GenerationSoftware,KiCad,Pcbnew,7.0.10*%
%TF.CreationDate,2024-03-07T12:26:51-07:00*%
%TF.ProjectId,Hall_effect_sensors,48616c6c-5f65-4666-9665-63745f73656e,rev?*%
%TF.SameCoordinates,Original*%
%TF.FileFunction,Drillmap*%
%TF.FilePolarity,Positive*%
%FSLAX45Y45*%
G04 Gerber Fmt 4.5, Leading zero omitted, Abs format (unit mm)*
G04 Created by KiCad (PCBNEW 7.0.10) date 2024-03-07 12:26:51*
%MOMM*%
%LPD*%
G01*
G04 APERTURE LIST*
%ADD10C,0.200000*%
%ADD11C,0.400000*%
G04 APERTURE END LIST*
D10*
X3980000Y-7560000D02*
X23982540Y-7560000D01*
X23982540Y-9431000D01*
X3980000Y-9431000D01*
X3980000Y-7560000D01*
X14093000Y-8753000D02*
X14293000Y-8953000D01*
X14293000Y-8753000D02*
X14093000Y-8953000D01*
D11*
X4790000Y-8530000D02*
G75*
G03*
X4390000Y-8530000I-200000J0D01*
G01*
X4390000Y-8530000D02*
G75*
G03*
X4790000Y-8530000I200000J0D01*
G01*
X23570000Y-8590000D02*
G75*
G03*
X23170000Y-8590000I-200000J0D01*
G01*
X23170000Y-8590000D02*
G75*
G03*
X23570000Y-8590000I200000J0D01*
G01*
D10*
X4230777Y-9752484D02*
X4230777Y-9552484D01*
X4230777Y-9552484D02*
X4278396Y-9552484D01*
X4278396Y-9552484D02*
X4306967Y-9562008D01*
X4306967Y-9562008D02*
X4326015Y-9581055D01*
X4326015Y-9581055D02*
X4335539Y-9600103D01*
X4335539Y-9600103D02*
X4345063Y-9638198D01*
X4345063Y-9638198D02*
X4345063Y-9666770D01*
X4345063Y-9666770D02*
X4335539Y-9704865D01*
X4335539Y-9704865D02*
X4326015Y-9723912D01*
X4326015Y-9723912D02*
X4306967Y-9742960D01*
X4306967Y-9742960D02*
X4278396Y-9752484D01*
X4278396Y-9752484D02*
X4230777Y-9752484D01*
X4430777Y-9752484D02*
X4430777Y-9619150D01*
X4430777Y-9657246D02*
X4440301Y-9638198D01*
X4440301Y-9638198D02*
X4449824Y-9628674D01*
X4449824Y-9628674D02*
X4468872Y-9619150D01*
X4468872Y-9619150D02*
X4487920Y-9619150D01*
X4554586Y-9752484D02*
X4554586Y-9619150D01*
X4554586Y-9552484D02*
X4545063Y-9562008D01*
X4545063Y-9562008D02*
X4554586Y-9571531D01*
X4554586Y-9571531D02*
X4564110Y-9562008D01*
X4564110Y-9562008D02*
X4554586Y-9552484D01*
X4554586Y-9552484D02*
X4554586Y-9571531D01*
X4678396Y-9752484D02*
X4659348Y-9742960D01*
X4659348Y-9742960D02*
X4649824Y-9723912D01*
X4649824Y-9723912D02*
X4649824Y-9552484D01*
X4783158Y-9752484D02*
X4764110Y-9742960D01*
X4764110Y-9742960D02*
X4754586Y-9723912D01*
X4754586Y-9723912D02*
X4754586Y-9552484D01*
X5011729Y-9752484D02*
X5011729Y-9552484D01*
X5011729Y-9552484D02*
X5078396Y-9695341D01*
X5078396Y-9695341D02*
X5145063Y-9552484D01*
X5145063Y-9552484D02*
X5145063Y-9752484D01*
X5326015Y-9752484D02*
X5326015Y-9647722D01*
X5326015Y-9647722D02*
X5316491Y-9628674D01*
X5316491Y-9628674D02*
X5297444Y-9619150D01*
X5297444Y-9619150D02*
X5259348Y-9619150D01*
X5259348Y-9619150D02*
X5240301Y-9628674D01*
X5326015Y-9742960D02*
X5306967Y-9752484D01*
X5306967Y-9752484D02*
X5259348Y-9752484D01*
X5259348Y-9752484D02*
X5240301Y-9742960D01*
X5240301Y-9742960D02*
X5230777Y-9723912D01*
X5230777Y-9723912D02*
X5230777Y-9704865D01*
X5230777Y-9704865D02*
X5240301Y-9685817D01*
X5240301Y-9685817D02*
X5259348Y-9676293D01*
X5259348Y-9676293D02*
X5306967Y-9676293D01*
X5306967Y-9676293D02*
X5326015Y-9666770D01*
X5421253Y-9619150D02*
X5421253Y-9819150D01*
X5421253Y-9628674D02*
X5440301Y-9619150D01*
X5440301Y-9619150D02*
X5478396Y-9619150D01*
X5478396Y-9619150D02*
X5497444Y-9628674D01*
X5497444Y-9628674D02*
X5506967Y-9638198D01*
X5506967Y-9638198D02*
X5516491Y-9657246D01*
X5516491Y-9657246D02*
X5516491Y-9714389D01*
X5516491Y-9714389D02*
X5506967Y-9733436D01*
X5506967Y-9733436D02*
X5497444Y-9742960D01*
X5497444Y-9742960D02*
X5478396Y-9752484D01*
X5478396Y-9752484D02*
X5440301Y-9752484D01*
X5440301Y-9752484D02*
X5421253Y-9742960D01*
X5602205Y-9733436D02*
X5611729Y-9742960D01*
X5611729Y-9742960D02*
X5602205Y-9752484D01*
X5602205Y-9752484D02*
X5592682Y-9742960D01*
X5592682Y-9742960D02*
X5602205Y-9733436D01*
X5602205Y-9733436D02*
X5602205Y-9752484D01*
X5602205Y-9628674D02*
X5611729Y-9638198D01*
X5611729Y-9638198D02*
X5602205Y-9647722D01*
X5602205Y-9647722D02*
X5592682Y-9638198D01*
X5592682Y-9638198D02*
X5602205Y-9628674D01*
X5602205Y-9628674D02*
X5602205Y-9647722D01*
X3770000Y-9981000D02*
X3970000Y-10181000D01*
X3970000Y-9981000D02*
X3770000Y-10181000D01*
X4221253Y-9991531D02*
X4230777Y-9982008D01*
X4230777Y-9982008D02*
X4249824Y-9972484D01*
X4249824Y-9972484D02*
X4297444Y-9972484D01*
X4297444Y-9972484D02*
X4316491Y-9982008D01*
X4316491Y-9982008D02*
X4326015Y-9991531D01*
X4326015Y-9991531D02*
X4335539Y-10010579D01*
X4335539Y-10010579D02*
X4335539Y-10029627D01*
X4335539Y-10029627D02*
X4326015Y-10058198D01*
X4326015Y-10058198D02*
X4211729Y-10172484D01*
X4211729Y-10172484D02*
X4335539Y-10172484D01*
X4421253Y-10153436D02*
X4430777Y-10162960D01*
X4430777Y-10162960D02*
X4421253Y-10172484D01*
X4421253Y-10172484D02*
X4411729Y-10162960D01*
X4411729Y-10162960D02*
X4421253Y-10153436D01*
X4421253Y-10153436D02*
X4421253Y-10172484D01*
X4554586Y-9972484D02*
X4573634Y-9972484D01*
X4573634Y-9972484D02*
X4592682Y-9982008D01*
X4592682Y-9982008D02*
X4602205Y-9991531D01*
X4602205Y-9991531D02*
X4611729Y-10010579D01*
X4611729Y-10010579D02*
X4621253Y-10048674D01*
X4621253Y-10048674D02*
X4621253Y-10096293D01*
X4621253Y-10096293D02*
X4611729Y-10134389D01*
X4611729Y-10134389D02*
X4602205Y-10153436D01*
X4602205Y-10153436D02*
X4592682Y-10162960D01*
X4592682Y-10162960D02*
X4573634Y-10172484D01*
X4573634Y-10172484D02*
X4554586Y-10172484D01*
X4554586Y-10172484D02*
X4535539Y-10162960D01*
X4535539Y-10162960D02*
X4526015Y-10153436D01*
X4526015Y-10153436D02*
X4516491Y-10134389D01*
X4516491Y-10134389D02*
X4506967Y-10096293D01*
X4506967Y-10096293D02*
X4506967Y-10048674D01*
X4506967Y-10048674D02*
X4516491Y-10010579D01*
X4516491Y-10010579D02*
X4526015Y-9991531D01*
X4526015Y-9991531D02*
X4535539Y-9982008D01*
X4535539Y-9982008D02*
X4554586Y-9972484D01*
X4745063Y-9972484D02*
X4764110Y-9972484D01*
X4764110Y-9972484D02*
X4783158Y-9982008D01*
X4783158Y-9982008D02*
X4792682Y-9991531D01*
X4792682Y-9991531D02*
X4802205Y-10010579D01*
X4802205Y-10010579D02*
X4811729Y-10048674D01*
X4811729Y-10048674D02*
X4811729Y-10096293D01*
X4811729Y-10096293D02*
X4802205Y-10134389D01*
X4802205Y-10134389D02*
X4792682Y-10153436D01*
X4792682Y-10153436D02*
X4783158Y-10162960D01*
X4783158Y-10162960D02*
X4764110Y-10172484D01*
X4764110Y-10172484D02*
X4745063Y-10172484D01*
X4745063Y-10172484D02*
X4726015Y-10162960D01*
X4726015Y-10162960D02*
X4716491Y-10153436D01*
X4716491Y-10153436D02*
X4706967Y-10134389D01*
X4706967Y-10134389D02*
X4697444Y-10096293D01*
X4697444Y-10096293D02*
X4697444Y-10048674D01*
X4697444Y-10048674D02*
X4706967Y-10010579D01*
X4706967Y-10010579D02*
X4716491Y-9991531D01*
X4716491Y-9991531D02*
X4726015Y-9982008D01*
X4726015Y-9982008D02*
X4745063Y-9972484D01*
X4935539Y-9972484D02*
X4954586Y-9972484D01*
X4954586Y-9972484D02*
X4973634Y-9982008D01*
X4973634Y-9982008D02*
X4983158Y-9991531D01*
X4983158Y-9991531D02*
X4992682Y-10010579D01*
X4992682Y-10010579D02*
X5002205Y-10048674D01*
X5002205Y-10048674D02*
X5002205Y-10096293D01*
X5002205Y-10096293D02*
X4992682Y-10134389D01*
X4992682Y-10134389D02*
X4983158Y-10153436D01*
X4983158Y-10153436D02*
X4973634Y-10162960D01*
X4973634Y-10162960D02*
X4954586Y-10172484D01*
X4954586Y-10172484D02*
X4935539Y-10172484D01*
X4935539Y-10172484D02*
X4916491Y-10162960D01*
X4916491Y-10162960D02*
X4906967Y-10153436D01*
X4906967Y-10153436D02*
X4897444Y-10134389D01*
X4897444Y-10134389D02*
X4887920Y-10096293D01*
X4887920Y-10096293D02*
X4887920Y-10048674D01*
X4887920Y-10048674D02*
X4897444Y-10010579D01*
X4897444Y-10010579D02*
X4906967Y-9991531D01*
X4906967Y-9991531D02*
X4916491Y-9982008D01*
X4916491Y-9982008D02*
X4935539Y-9972484D01*
X5087920Y-10172484D02*
X5087920Y-10039150D01*
X5087920Y-10058198D02*
X5097444Y-10048674D01*
X5097444Y-10048674D02*
X5116491Y-10039150D01*
X5116491Y-10039150D02*
X5145063Y-10039150D01*
X5145063Y-10039150D02*
X5164110Y-10048674D01*
X5164110Y-10048674D02*
X5173634Y-10067722D01*
X5173634Y-10067722D02*
X5173634Y-10172484D01*
X5173634Y-10067722D02*
X5183158Y-10048674D01*
X5183158Y-10048674D02*
X5202205Y-10039150D01*
X5202205Y-10039150D02*
X5230777Y-10039150D01*
X5230777Y-10039150D02*
X5249825Y-10048674D01*
X5249825Y-10048674D02*
X5259348Y-10067722D01*
X5259348Y-10067722D02*
X5259348Y-10172484D01*
X5354586Y-10172484D02*
X5354586Y-10039150D01*
X5354586Y-10058198D02*
X5364110Y-10048674D01*
X5364110Y-10048674D02*
X5383158Y-10039150D01*
X5383158Y-10039150D02*
X5411729Y-10039150D01*
X5411729Y-10039150D02*
X5430777Y-10048674D01*
X5430777Y-10048674D02*
X5440301Y-10067722D01*
X5440301Y-10067722D02*
X5440301Y-10172484D01*
X5440301Y-10067722D02*
X5449825Y-10048674D01*
X5449825Y-10048674D02*
X5468872Y-10039150D01*
X5468872Y-10039150D02*
X5497444Y-10039150D01*
X5497444Y-10039150D02*
X5516491Y-10048674D01*
X5516491Y-10048674D02*
X5526015Y-10067722D01*
X5526015Y-10067722D02*
X5526015Y-10172484D01*
X5916491Y-9962960D02*
X5745063Y-10220103D01*
X6173634Y-9972484D02*
X6192682Y-9972484D01*
X6192682Y-9972484D02*
X6211729Y-9982008D01*
X6211729Y-9982008D02*
X6221253Y-9991531D01*
X6221253Y-9991531D02*
X6230777Y-10010579D01*
X6230777Y-10010579D02*
X6240301Y-10048674D01*
X6240301Y-10048674D02*
X6240301Y-10096293D01*
X6240301Y-10096293D02*
X6230777Y-10134389D01*
X6230777Y-10134389D02*
X6221253Y-10153436D01*
X6221253Y-10153436D02*
X6211729Y-10162960D01*
X6211729Y-10162960D02*
X6192682Y-10172484D01*
X6192682Y-10172484D02*
X6173634Y-10172484D01*
X6173634Y-10172484D02*
X6154586Y-10162960D01*
X6154586Y-10162960D02*
X6145063Y-10153436D01*
X6145063Y-10153436D02*
X6135539Y-10134389D01*
X6135539Y-10134389D02*
X6126015Y-10096293D01*
X6126015Y-10096293D02*
X6126015Y-10048674D01*
X6126015Y-10048674D02*
X6135539Y-10010579D01*
X6135539Y-10010579D02*
X6145063Y-9991531D01*
X6145063Y-9991531D02*
X6154586Y-9982008D01*
X6154586Y-9982008D02*
X6173634Y-9972484D01*
X6326015Y-10153436D02*
X6335539Y-10162960D01*
X6335539Y-10162960D02*
X6326015Y-10172484D01*
X6326015Y-10172484D02*
X6316491Y-10162960D01*
X6316491Y-10162960D02*
X6326015Y-10153436D01*
X6326015Y-10153436D02*
X6326015Y-10172484D01*
X6459348Y-9972484D02*
X6478396Y-9972484D01*
X6478396Y-9972484D02*
X6497444Y-9982008D01*
X6497444Y-9982008D02*
X6506967Y-9991531D01*
X6506967Y-9991531D02*
X6516491Y-10010579D01*
X6516491Y-10010579D02*
X6526015Y-10048674D01*
X6526015Y-10048674D02*
X6526015Y-10096293D01*
X6526015Y-10096293D02*
X6516491Y-10134389D01*
X6516491Y-10134389D02*
X6506967Y-10153436D01*
X6506967Y-10153436D02*
X6497444Y-10162960D01*
X6497444Y-10162960D02*
X6478396Y-10172484D01*
X6478396Y-10172484D02*
X6459348Y-10172484D01*
X6459348Y-10172484D02*
X6440301Y-10162960D01*
X6440301Y-10162960D02*
X6430777Y-10153436D01*
X6430777Y-10153436D02*
X6421253Y-10134389D01*
X6421253Y-10134389D02*
X6411729Y-10096293D01*
X6411729Y-10096293D02*
X6411729Y-10048674D01*
X6411729Y-10048674D02*
X6421253Y-10010579D01*
X6421253Y-10010579D02*
X6430777Y-9991531D01*
X6430777Y-9991531D02*
X6440301Y-9982008D01*
X6440301Y-9982008D02*
X6459348Y-9972484D01*
X6592682Y-9972484D02*
X6726015Y-9972484D01*
X6726015Y-9972484D02*
X6640301Y-10172484D01*
X6830777Y-10058198D02*
X6811729Y-10048674D01*
X6811729Y-10048674D02*
X6802206Y-10039150D01*
X6802206Y-10039150D02*
X6792682Y-10020103D01*
X6792682Y-10020103D02*
X6792682Y-10010579D01*
X6792682Y-10010579D02*
X6802206Y-9991531D01*
X6802206Y-9991531D02*
X6811729Y-9982008D01*
X6811729Y-9982008D02*
X6830777Y-9972484D01*
X6830777Y-9972484D02*
X6868872Y-9972484D01*
X6868872Y-9972484D02*
X6887920Y-9982008D01*
X6887920Y-9982008D02*
X6897444Y-9991531D01*
X6897444Y-9991531D02*
X6906967Y-10010579D01*
X6906967Y-10010579D02*
X6906967Y-10020103D01*
X6906967Y-10020103D02*
X6897444Y-10039150D01*
X6897444Y-10039150D02*
X6887920Y-10048674D01*
X6887920Y-10048674D02*
X6868872Y-10058198D01*
X6868872Y-10058198D02*
X6830777Y-10058198D01*
X6830777Y-10058198D02*
X6811729Y-10067722D01*
X6811729Y-10067722D02*
X6802206Y-10077246D01*
X6802206Y-10077246D02*
X6792682Y-10096293D01*
X6792682Y-10096293D02*
X6792682Y-10134389D01*
X6792682Y-10134389D02*
X6802206Y-10153436D01*
X6802206Y-10153436D02*
X6811729Y-10162960D01*
X6811729Y-10162960D02*
X6830777Y-10172484D01*
X6830777Y-10172484D02*
X6868872Y-10172484D01*
X6868872Y-10172484D02*
X6887920Y-10162960D01*
X6887920Y-10162960D02*
X6897444Y-10153436D01*
X6897444Y-10153436D02*
X6906967Y-10134389D01*
X6906967Y-10134389D02*
X6906967Y-10096293D01*
X6906967Y-10096293D02*
X6897444Y-10077246D01*
X6897444Y-10077246D02*
X6887920Y-10067722D01*
X6887920Y-10067722D02*
X6868872Y-10058198D01*
X6973634Y-9972484D02*
X7106967Y-9972484D01*
X7106967Y-9972484D02*
X7021253Y-10172484D01*
X7173634Y-9972484D02*
X7173634Y-10010579D01*
X7249825Y-9972484D02*
X7249825Y-10010579D01*
X7545063Y-10248674D02*
X7535539Y-10239150D01*
X7535539Y-10239150D02*
X7516491Y-10210579D01*
X7516491Y-10210579D02*
X7506968Y-10191531D01*
X7506968Y-10191531D02*
X7497444Y-10162960D01*
X7497444Y-10162960D02*
X7487920Y-10115341D01*
X7487920Y-10115341D02*
X7487920Y-10077246D01*
X7487920Y-10077246D02*
X7497444Y-10029627D01*
X7497444Y-10029627D02*
X7506968Y-10001055D01*
X7506968Y-10001055D02*
X7516491Y-9982008D01*
X7516491Y-9982008D02*
X7535539Y-9953436D01*
X7535539Y-9953436D02*
X7545063Y-9943912D01*
X7726015Y-10172484D02*
X7611729Y-10172484D01*
X7668872Y-10172484D02*
X7668872Y-9972484D01*
X7668872Y-9972484D02*
X7649825Y-10001055D01*
X7649825Y-10001055D02*
X7630777Y-10020103D01*
X7630777Y-10020103D02*
X7611729Y-10029627D01*
X7964110Y-10172484D02*
X7964110Y-9972484D01*
X8049825Y-10172484D02*
X8049825Y-10067722D01*
X8049825Y-10067722D02*
X8040301Y-10048674D01*
X8040301Y-10048674D02*
X8021253Y-10039150D01*
X8021253Y-10039150D02*
X7992682Y-10039150D01*
X7992682Y-10039150D02*
X7973634Y-10048674D01*
X7973634Y-10048674D02*
X7964110Y-10058198D01*
X8173634Y-10172484D02*
X8154587Y-10162960D01*
X8154587Y-10162960D02*
X8145063Y-10153436D01*
X8145063Y-10153436D02*
X8135539Y-10134389D01*
X8135539Y-10134389D02*
X8135539Y-10077246D01*
X8135539Y-10077246D02*
X8145063Y-10058198D01*
X8145063Y-10058198D02*
X8154587Y-10048674D01*
X8154587Y-10048674D02*
X8173634Y-10039150D01*
X8173634Y-10039150D02*
X8202206Y-10039150D01*
X8202206Y-10039150D02*
X8221253Y-10048674D01*
X8221253Y-10048674D02*
X8230777Y-10058198D01*
X8230777Y-10058198D02*
X8240301Y-10077246D01*
X8240301Y-10077246D02*
X8240301Y-10134389D01*
X8240301Y-10134389D02*
X8230777Y-10153436D01*
X8230777Y-10153436D02*
X8221253Y-10162960D01*
X8221253Y-10162960D02*
X8202206Y-10172484D01*
X8202206Y-10172484D02*
X8173634Y-10172484D01*
X8354587Y-10172484D02*
X8335539Y-10162960D01*
X8335539Y-10162960D02*
X8326015Y-10143912D01*
X8326015Y-10143912D02*
X8326015Y-9972484D01*
X8506968Y-10162960D02*
X8487920Y-10172484D01*
X8487920Y-10172484D02*
X8449825Y-10172484D01*
X8449825Y-10172484D02*
X8430777Y-10162960D01*
X8430777Y-10162960D02*
X8421253Y-10143912D01*
X8421253Y-10143912D02*
X8421253Y-10067722D01*
X8421253Y-10067722D02*
X8430777Y-10048674D01*
X8430777Y-10048674D02*
X8449825Y-10039150D01*
X8449825Y-10039150D02*
X8487920Y-10039150D01*
X8487920Y-10039150D02*
X8506968Y-10048674D01*
X8506968Y-10048674D02*
X8516492Y-10067722D01*
X8516492Y-10067722D02*
X8516492Y-10086770D01*
X8516492Y-10086770D02*
X8421253Y-10105817D01*
X8583158Y-10248674D02*
X8592682Y-10239150D01*
X8592682Y-10239150D02*
X8611730Y-10210579D01*
X8611730Y-10210579D02*
X8621253Y-10191531D01*
X8621253Y-10191531D02*
X8630777Y-10162960D01*
X8630777Y-10162960D02*
X8640301Y-10115341D01*
X8640301Y-10115341D02*
X8640301Y-10077246D01*
X8640301Y-10077246D02*
X8630777Y-10029627D01*
X8630777Y-10029627D02*
X8621253Y-10001055D01*
X8621253Y-10001055D02*
X8611730Y-9982008D01*
X8611730Y-9982008D02*
X8592682Y-9953436D01*
X8592682Y-9953436D02*
X8583158Y-9943912D01*
X8945063Y-10248674D02*
X8935539Y-10239150D01*
X8935539Y-10239150D02*
X8916492Y-10210579D01*
X8916492Y-10210579D02*
X8906968Y-10191531D01*
X8906968Y-10191531D02*
X8897444Y-10162960D01*
X8897444Y-10162960D02*
X8887920Y-10115341D01*
X8887920Y-10115341D02*
X8887920Y-10077246D01*
X8887920Y-10077246D02*
X8897444Y-10029627D01*
X8897444Y-10029627D02*
X8906968Y-10001055D01*
X8906968Y-10001055D02*
X8916492Y-9982008D01*
X8916492Y-9982008D02*
X8935539Y-9953436D01*
X8935539Y-9953436D02*
X8945063Y-9943912D01*
X9021253Y-10039150D02*
X9021253Y-10172484D01*
X9021253Y-10058198D02*
X9030777Y-10048674D01*
X9030777Y-10048674D02*
X9049825Y-10039150D01*
X9049825Y-10039150D02*
X9078396Y-10039150D01*
X9078396Y-10039150D02*
X9097444Y-10048674D01*
X9097444Y-10048674D02*
X9106968Y-10067722D01*
X9106968Y-10067722D02*
X9106968Y-10172484D01*
X9230777Y-10172484D02*
X9211730Y-10162960D01*
X9211730Y-10162960D02*
X9202206Y-10153436D01*
X9202206Y-10153436D02*
X9192682Y-10134389D01*
X9192682Y-10134389D02*
X9192682Y-10077246D01*
X9192682Y-10077246D02*
X9202206Y-10058198D01*
X9202206Y-10058198D02*
X9211730Y-10048674D01*
X9211730Y-10048674D02*
X9230777Y-10039150D01*
X9230777Y-10039150D02*
X9259349Y-10039150D01*
X9259349Y-10039150D02*
X9278396Y-10048674D01*
X9278396Y-10048674D02*
X9287920Y-10058198D01*
X9287920Y-10058198D02*
X9297444Y-10077246D01*
X9297444Y-10077246D02*
X9297444Y-10134389D01*
X9297444Y-10134389D02*
X9287920Y-10153436D01*
X9287920Y-10153436D02*
X9278396Y-10162960D01*
X9278396Y-10162960D02*
X9259349Y-10172484D01*
X9259349Y-10172484D02*
X9230777Y-10172484D01*
X9354587Y-10039150D02*
X9430777Y-10039150D01*
X9383158Y-9972484D02*
X9383158Y-10143912D01*
X9383158Y-10143912D02*
X9392682Y-10162960D01*
X9392682Y-10162960D02*
X9411730Y-10172484D01*
X9411730Y-10172484D02*
X9430777Y-10172484D01*
X9649825Y-10039150D02*
X9649825Y-10239150D01*
X9649825Y-10048674D02*
X9668873Y-10039150D01*
X9668873Y-10039150D02*
X9706968Y-10039150D01*
X9706968Y-10039150D02*
X9726015Y-10048674D01*
X9726015Y-10048674D02*
X9735539Y-10058198D01*
X9735539Y-10058198D02*
X9745063Y-10077246D01*
X9745063Y-10077246D02*
X9745063Y-10134389D01*
X9745063Y-10134389D02*
X9735539Y-10153436D01*
X9735539Y-10153436D02*
X9726015Y-10162960D01*
X9726015Y-10162960D02*
X9706968Y-10172484D01*
X9706968Y-10172484D02*
X9668873Y-10172484D01*
X9668873Y-10172484D02*
X9649825Y-10162960D01*
X9859349Y-10172484D02*
X9840301Y-10162960D01*
X9840301Y-10162960D02*
X9830777Y-10143912D01*
X9830777Y-10143912D02*
X9830777Y-9972484D01*
X10021254Y-10172484D02*
X10021254Y-10067722D01*
X10021254Y-10067722D02*
X10011730Y-10048674D01*
X10011730Y-10048674D02*
X9992682Y-10039150D01*
X9992682Y-10039150D02*
X9954587Y-10039150D01*
X9954587Y-10039150D02*
X9935539Y-10048674D01*
X10021254Y-10162960D02*
X10002206Y-10172484D01*
X10002206Y-10172484D02*
X9954587Y-10172484D01*
X9954587Y-10172484D02*
X9935539Y-10162960D01*
X9935539Y-10162960D02*
X9926015Y-10143912D01*
X9926015Y-10143912D02*
X9926015Y-10124865D01*
X9926015Y-10124865D02*
X9935539Y-10105817D01*
X9935539Y-10105817D02*
X9954587Y-10096293D01*
X9954587Y-10096293D02*
X10002206Y-10096293D01*
X10002206Y-10096293D02*
X10021254Y-10086770D01*
X10087920Y-10039150D02*
X10164111Y-10039150D01*
X10116492Y-9972484D02*
X10116492Y-10143912D01*
X10116492Y-10143912D02*
X10126015Y-10162960D01*
X10126015Y-10162960D02*
X10145063Y-10172484D01*
X10145063Y-10172484D02*
X10164111Y-10172484D01*
X10306968Y-10162960D02*
X10287920Y-10172484D01*
X10287920Y-10172484D02*
X10249825Y-10172484D01*
X10249825Y-10172484D02*
X10230777Y-10162960D01*
X10230777Y-10162960D02*
X10221254Y-10143912D01*
X10221254Y-10143912D02*
X10221254Y-10067722D01*
X10221254Y-10067722D02*
X10230777Y-10048674D01*
X10230777Y-10048674D02*
X10249825Y-10039150D01*
X10249825Y-10039150D02*
X10287920Y-10039150D01*
X10287920Y-10039150D02*
X10306968Y-10048674D01*
X10306968Y-10048674D02*
X10316492Y-10067722D01*
X10316492Y-10067722D02*
X10316492Y-10086770D01*
X10316492Y-10086770D02*
X10221254Y-10105817D01*
X10487920Y-10172484D02*
X10487920Y-9972484D01*
X10487920Y-10162960D02*
X10468873Y-10172484D01*
X10468873Y-10172484D02*
X10430777Y-10172484D01*
X10430777Y-10172484D02*
X10411730Y-10162960D01*
X10411730Y-10162960D02*
X10402206Y-10153436D01*
X10402206Y-10153436D02*
X10392682Y-10134389D01*
X10392682Y-10134389D02*
X10392682Y-10077246D01*
X10392682Y-10077246D02*
X10402206Y-10058198D01*
X10402206Y-10058198D02*
X10411730Y-10048674D01*
X10411730Y-10048674D02*
X10430777Y-10039150D01*
X10430777Y-10039150D02*
X10468873Y-10039150D01*
X10468873Y-10039150D02*
X10487920Y-10048674D01*
X10564111Y-10248674D02*
X10573635Y-10239150D01*
X10573635Y-10239150D02*
X10592682Y-10210579D01*
X10592682Y-10210579D02*
X10602206Y-10191531D01*
X10602206Y-10191531D02*
X10611730Y-10162960D01*
X10611730Y-10162960D02*
X10621254Y-10115341D01*
X10621254Y-10115341D02*
X10621254Y-10077246D01*
X10621254Y-10077246D02*
X10611730Y-10029627D01*
X10611730Y-10029627D02*
X10602206Y-10001055D01*
X10602206Y-10001055D02*
X10592682Y-9982008D01*
X10592682Y-9982008D02*
X10573635Y-9953436D01*
X10573635Y-9953436D02*
X10564111Y-9943912D01*
X3970000Y-10401000D02*
G75*
G03*
X3770000Y-10401000I-100000J0D01*
G01*
X3770000Y-10401000D02*
G75*
G03*
X3970000Y-10401000I100000J0D01*
G01*
X4316491Y-10359150D02*
X4316491Y-10492484D01*
X4268872Y-10282960D02*
X4221253Y-10425817D01*
X4221253Y-10425817D02*
X4345063Y-10425817D01*
X4421253Y-10473436D02*
X4430777Y-10482960D01*
X4430777Y-10482960D02*
X4421253Y-10492484D01*
X4421253Y-10492484D02*
X4411729Y-10482960D01*
X4411729Y-10482960D02*
X4421253Y-10473436D01*
X4421253Y-10473436D02*
X4421253Y-10492484D01*
X4554586Y-10292484D02*
X4573634Y-10292484D01*
X4573634Y-10292484D02*
X4592682Y-10302008D01*
X4592682Y-10302008D02*
X4602205Y-10311531D01*
X4602205Y-10311531D02*
X4611729Y-10330579D01*
X4611729Y-10330579D02*
X4621253Y-10368674D01*
X4621253Y-10368674D02*
X4621253Y-10416293D01*
X4621253Y-10416293D02*
X4611729Y-10454389D01*
X4611729Y-10454389D02*
X4602205Y-10473436D01*
X4602205Y-10473436D02*
X4592682Y-10482960D01*
X4592682Y-10482960D02*
X4573634Y-10492484D01*
X4573634Y-10492484D02*
X4554586Y-10492484D01*
X4554586Y-10492484D02*
X4535539Y-10482960D01*
X4535539Y-10482960D02*
X4526015Y-10473436D01*
X4526015Y-10473436D02*
X4516491Y-10454389D01*
X4516491Y-10454389D02*
X4506967Y-10416293D01*
X4506967Y-10416293D02*
X4506967Y-10368674D01*
X4506967Y-10368674D02*
X4516491Y-10330579D01*
X4516491Y-10330579D02*
X4526015Y-10311531D01*
X4526015Y-10311531D02*
X4535539Y-10302008D01*
X4535539Y-10302008D02*
X4554586Y-10292484D01*
X4745063Y-10292484D02*
X4764110Y-10292484D01*
X4764110Y-10292484D02*
X4783158Y-10302008D01*
X4783158Y-10302008D02*
X4792682Y-10311531D01*
X4792682Y-10311531D02*
X4802205Y-10330579D01*
X4802205Y-10330579D02*
X4811729Y-10368674D01*
X4811729Y-10368674D02*
X4811729Y-10416293D01*
X4811729Y-10416293D02*
X4802205Y-10454389D01*
X4802205Y-10454389D02*
X4792682Y-10473436D01*
X4792682Y-10473436D02*
X4783158Y-10482960D01*
X4783158Y-10482960D02*
X4764110Y-10492484D01*
X4764110Y-10492484D02*
X4745063Y-10492484D01*
X4745063Y-10492484D02*
X4726015Y-10482960D01*
X4726015Y-10482960D02*
X4716491Y-10473436D01*
X4716491Y-10473436D02*
X4706967Y-10454389D01*
X4706967Y-10454389D02*
X4697444Y-10416293D01*
X4697444Y-10416293D02*
X4697444Y-10368674D01*
X4697444Y-10368674D02*
X4706967Y-10330579D01*
X4706967Y-10330579D02*
X4716491Y-10311531D01*
X4716491Y-10311531D02*
X4726015Y-10302008D01*
X4726015Y-10302008D02*
X4745063Y-10292484D01*
X4935539Y-10292484D02*
X4954586Y-10292484D01*
X4954586Y-10292484D02*
X4973634Y-10302008D01*
X4973634Y-10302008D02*
X4983158Y-10311531D01*
X4983158Y-10311531D02*
X4992682Y-10330579D01*
X4992682Y-10330579D02*
X5002205Y-10368674D01*
X5002205Y-10368674D02*
X5002205Y-10416293D01*
X5002205Y-10416293D02*
X4992682Y-10454389D01*
X4992682Y-10454389D02*
X4983158Y-10473436D01*
X4983158Y-10473436D02*
X4973634Y-10482960D01*
X4973634Y-10482960D02*
X4954586Y-10492484D01*
X4954586Y-10492484D02*
X4935539Y-10492484D01*
X4935539Y-10492484D02*
X4916491Y-10482960D01*
X4916491Y-10482960D02*
X4906967Y-10473436D01*
X4906967Y-10473436D02*
X4897444Y-10454389D01*
X4897444Y-10454389D02*
X4887920Y-10416293D01*
X4887920Y-10416293D02*
X4887920Y-10368674D01*
X4887920Y-10368674D02*
X4897444Y-10330579D01*
X4897444Y-10330579D02*
X4906967Y-10311531D01*
X4906967Y-10311531D02*
X4916491Y-10302008D01*
X4916491Y-10302008D02*
X4935539Y-10292484D01*
X5087920Y-10492484D02*
X5087920Y-10359150D01*
X5087920Y-10378198D02*
X5097444Y-10368674D01*
X5097444Y-10368674D02*
X5116491Y-10359150D01*
X5116491Y-10359150D02*
X5145063Y-10359150D01*
X5145063Y-10359150D02*
X5164110Y-10368674D01*
X5164110Y-10368674D02*
X5173634Y-10387722D01*
X5173634Y-10387722D02*
X5173634Y-10492484D01*
X5173634Y-10387722D02*
X5183158Y-10368674D01*
X5183158Y-10368674D02*
X5202205Y-10359150D01*
X5202205Y-10359150D02*
X5230777Y-10359150D01*
X5230777Y-10359150D02*
X5249825Y-10368674D01*
X5249825Y-10368674D02*
X5259348Y-10387722D01*
X5259348Y-10387722D02*
X5259348Y-10492484D01*
X5354586Y-10492484D02*
X5354586Y-10359150D01*
X5354586Y-10378198D02*
X5364110Y-10368674D01*
X5364110Y-10368674D02*
X5383158Y-10359150D01*
X5383158Y-10359150D02*
X5411729Y-10359150D01*
X5411729Y-10359150D02*
X5430777Y-10368674D01*
X5430777Y-10368674D02*
X5440301Y-10387722D01*
X5440301Y-10387722D02*
X5440301Y-10492484D01*
X5440301Y-10387722D02*
X5449825Y-10368674D01*
X5449825Y-10368674D02*
X5468872Y-10359150D01*
X5468872Y-10359150D02*
X5497444Y-10359150D01*
X5497444Y-10359150D02*
X5516491Y-10368674D01*
X5516491Y-10368674D02*
X5526015Y-10387722D01*
X5526015Y-10387722D02*
X5526015Y-10492484D01*
X5916491Y-10282960D02*
X5745063Y-10540103D01*
X6173634Y-10292484D02*
X6192682Y-10292484D01*
X6192682Y-10292484D02*
X6211729Y-10302008D01*
X6211729Y-10302008D02*
X6221253Y-10311531D01*
X6221253Y-10311531D02*
X6230777Y-10330579D01*
X6230777Y-10330579D02*
X6240301Y-10368674D01*
X6240301Y-10368674D02*
X6240301Y-10416293D01*
X6240301Y-10416293D02*
X6230777Y-10454389D01*
X6230777Y-10454389D02*
X6221253Y-10473436D01*
X6221253Y-10473436D02*
X6211729Y-10482960D01*
X6211729Y-10482960D02*
X6192682Y-10492484D01*
X6192682Y-10492484D02*
X6173634Y-10492484D01*
X6173634Y-10492484D02*
X6154586Y-10482960D01*
X6154586Y-10482960D02*
X6145063Y-10473436D01*
X6145063Y-10473436D02*
X6135539Y-10454389D01*
X6135539Y-10454389D02*
X6126015Y-10416293D01*
X6126015Y-10416293D02*
X6126015Y-10368674D01*
X6126015Y-10368674D02*
X6135539Y-10330579D01*
X6135539Y-10330579D02*
X6145063Y-10311531D01*
X6145063Y-10311531D02*
X6154586Y-10302008D01*
X6154586Y-10302008D02*
X6173634Y-10292484D01*
X6326015Y-10473436D02*
X6335539Y-10482960D01*
X6335539Y-10482960D02*
X6326015Y-10492484D01*
X6326015Y-10492484D02*
X6316491Y-10482960D01*
X6316491Y-10482960D02*
X6326015Y-10473436D01*
X6326015Y-10473436D02*
X6326015Y-10492484D01*
X6526015Y-10492484D02*
X6411729Y-10492484D01*
X6468872Y-10492484D02*
X6468872Y-10292484D01*
X6468872Y-10292484D02*
X6449825Y-10321055D01*
X6449825Y-10321055D02*
X6430777Y-10340103D01*
X6430777Y-10340103D02*
X6411729Y-10349627D01*
X6706967Y-10292484D02*
X6611729Y-10292484D01*
X6611729Y-10292484D02*
X6602206Y-10387722D01*
X6602206Y-10387722D02*
X6611729Y-10378198D01*
X6611729Y-10378198D02*
X6630777Y-10368674D01*
X6630777Y-10368674D02*
X6678396Y-10368674D01*
X6678396Y-10368674D02*
X6697444Y-10378198D01*
X6697444Y-10378198D02*
X6706967Y-10387722D01*
X6706967Y-10387722D02*
X6716491Y-10406770D01*
X6716491Y-10406770D02*
X6716491Y-10454389D01*
X6716491Y-10454389D02*
X6706967Y-10473436D01*
X6706967Y-10473436D02*
X6697444Y-10482960D01*
X6697444Y-10482960D02*
X6678396Y-10492484D01*
X6678396Y-10492484D02*
X6630777Y-10492484D01*
X6630777Y-10492484D02*
X6611729Y-10482960D01*
X6611729Y-10482960D02*
X6602206Y-10473436D01*
X6783158Y-10292484D02*
X6916491Y-10292484D01*
X6916491Y-10292484D02*
X6830777Y-10492484D01*
X7087920Y-10292484D02*
X6992682Y-10292484D01*
X6992682Y-10292484D02*
X6983158Y-10387722D01*
X6983158Y-10387722D02*
X6992682Y-10378198D01*
X6992682Y-10378198D02*
X7011729Y-10368674D01*
X7011729Y-10368674D02*
X7059348Y-10368674D01*
X7059348Y-10368674D02*
X7078396Y-10378198D01*
X7078396Y-10378198D02*
X7087920Y-10387722D01*
X7087920Y-10387722D02*
X7097444Y-10406770D01*
X7097444Y-10406770D02*
X7097444Y-10454389D01*
X7097444Y-10454389D02*
X7087920Y-10473436D01*
X7087920Y-10473436D02*
X7078396Y-10482960D01*
X7078396Y-10482960D02*
X7059348Y-10492484D01*
X7059348Y-10492484D02*
X7011729Y-10492484D01*
X7011729Y-10492484D02*
X6992682Y-10482960D01*
X6992682Y-10482960D02*
X6983158Y-10473436D01*
X7173634Y-10292484D02*
X7173634Y-10330579D01*
X7249825Y-10292484D02*
X7249825Y-10330579D01*
X7545063Y-10568674D02*
X7535539Y-10559150D01*
X7535539Y-10559150D02*
X7516491Y-10530579D01*
X7516491Y-10530579D02*
X7506968Y-10511531D01*
X7506968Y-10511531D02*
X7497444Y-10482960D01*
X7497444Y-10482960D02*
X7487920Y-10435341D01*
X7487920Y-10435341D02*
X7487920Y-10397246D01*
X7487920Y-10397246D02*
X7497444Y-10349627D01*
X7497444Y-10349627D02*
X7506968Y-10321055D01*
X7506968Y-10321055D02*
X7516491Y-10302008D01*
X7516491Y-10302008D02*
X7535539Y-10273436D01*
X7535539Y-10273436D02*
X7545063Y-10263912D01*
X7611729Y-10311531D02*
X7621253Y-10302008D01*
X7621253Y-10302008D02*
X7640301Y-10292484D01*
X7640301Y-10292484D02*
X7687920Y-10292484D01*
X7687920Y-10292484D02*
X7706968Y-10302008D01*
X7706968Y-10302008D02*
X7716491Y-10311531D01*
X7716491Y-10311531D02*
X7726015Y-10330579D01*
X7726015Y-10330579D02*
X7726015Y-10349627D01*
X7726015Y-10349627D02*
X7716491Y-10378198D01*
X7716491Y-10378198D02*
X7602206Y-10492484D01*
X7602206Y-10492484D02*
X7726015Y-10492484D01*
X7964110Y-10492484D02*
X7964110Y-10292484D01*
X8049825Y-10492484D02*
X8049825Y-10387722D01*
X8049825Y-10387722D02*
X8040301Y-10368674D01*
X8040301Y-10368674D02*
X8021253Y-10359150D01*
X8021253Y-10359150D02*
X7992682Y-10359150D01*
X7992682Y-10359150D02*
X7973634Y-10368674D01*
X7973634Y-10368674D02*
X7964110Y-10378198D01*
X8173634Y-10492484D02*
X8154587Y-10482960D01*
X8154587Y-10482960D02*
X8145063Y-10473436D01*
X8145063Y-10473436D02*
X8135539Y-10454389D01*
X8135539Y-10454389D02*
X8135539Y-10397246D01*
X8135539Y-10397246D02*
X8145063Y-10378198D01*
X8145063Y-10378198D02*
X8154587Y-10368674D01*
X8154587Y-10368674D02*
X8173634Y-10359150D01*
X8173634Y-10359150D02*
X8202206Y-10359150D01*
X8202206Y-10359150D02*
X8221253Y-10368674D01*
X8221253Y-10368674D02*
X8230777Y-10378198D01*
X8230777Y-10378198D02*
X8240301Y-10397246D01*
X8240301Y-10397246D02*
X8240301Y-10454389D01*
X8240301Y-10454389D02*
X8230777Y-10473436D01*
X8230777Y-10473436D02*
X8221253Y-10482960D01*
X8221253Y-10482960D02*
X8202206Y-10492484D01*
X8202206Y-10492484D02*
X8173634Y-10492484D01*
X8354587Y-10492484D02*
X8335539Y-10482960D01*
X8335539Y-10482960D02*
X8326015Y-10463912D01*
X8326015Y-10463912D02*
X8326015Y-10292484D01*
X8506968Y-10482960D02*
X8487920Y-10492484D01*
X8487920Y-10492484D02*
X8449825Y-10492484D01*
X8449825Y-10492484D02*
X8430777Y-10482960D01*
X8430777Y-10482960D02*
X8421253Y-10463912D01*
X8421253Y-10463912D02*
X8421253Y-10387722D01*
X8421253Y-10387722D02*
X8430777Y-10368674D01*
X8430777Y-10368674D02*
X8449825Y-10359150D01*
X8449825Y-10359150D02*
X8487920Y-10359150D01*
X8487920Y-10359150D02*
X8506968Y-10368674D01*
X8506968Y-10368674D02*
X8516492Y-10387722D01*
X8516492Y-10387722D02*
X8516492Y-10406770D01*
X8516492Y-10406770D02*
X8421253Y-10425817D01*
X8592682Y-10482960D02*
X8611730Y-10492484D01*
X8611730Y-10492484D02*
X8649825Y-10492484D01*
X8649825Y-10492484D02*
X8668873Y-10482960D01*
X8668873Y-10482960D02*
X8678396Y-10463912D01*
X8678396Y-10463912D02*
X8678396Y-10454389D01*
X8678396Y-10454389D02*
X8668873Y-10435341D01*
X8668873Y-10435341D02*
X8649825Y-10425817D01*
X8649825Y-10425817D02*
X8621253Y-10425817D01*
X8621253Y-10425817D02*
X8602206Y-10416293D01*
X8602206Y-10416293D02*
X8592682Y-10397246D01*
X8592682Y-10397246D02*
X8592682Y-10387722D01*
X8592682Y-10387722D02*
X8602206Y-10368674D01*
X8602206Y-10368674D02*
X8621253Y-10359150D01*
X8621253Y-10359150D02*
X8649825Y-10359150D01*
X8649825Y-10359150D02*
X8668873Y-10368674D01*
X8745063Y-10568674D02*
X8754587Y-10559150D01*
X8754587Y-10559150D02*
X8773634Y-10530579D01*
X8773634Y-10530579D02*
X8783158Y-10511531D01*
X8783158Y-10511531D02*
X8792682Y-10482960D01*
X8792682Y-10482960D02*
X8802206Y-10435341D01*
X8802206Y-10435341D02*
X8802206Y-10397246D01*
X8802206Y-10397246D02*
X8792682Y-10349627D01*
X8792682Y-10349627D02*
X8783158Y-10321055D01*
X8783158Y-10321055D02*
X8773634Y-10302008D01*
X8773634Y-10302008D02*
X8754587Y-10273436D01*
X8754587Y-10273436D02*
X8745063Y-10263912D01*
X9106968Y-10568674D02*
X9097444Y-10559150D01*
X9097444Y-10559150D02*
X9078396Y-10530579D01*
X9078396Y-10530579D02*
X9068873Y-10511531D01*
X9068873Y-10511531D02*
X9059349Y-10482960D01*
X9059349Y-10482960D02*
X9049825Y-10435341D01*
X9049825Y-10435341D02*
X9049825Y-10397246D01*
X9049825Y-10397246D02*
X9059349Y-10349627D01*
X9059349Y-10349627D02*
X9068873Y-10321055D01*
X9068873Y-10321055D02*
X9078396Y-10302008D01*
X9078396Y-10302008D02*
X9097444Y-10273436D01*
X9097444Y-10273436D02*
X9106968Y-10263912D01*
X9183158Y-10359150D02*
X9183158Y-10492484D01*
X9183158Y-10378198D02*
X9192682Y-10368674D01*
X9192682Y-10368674D02*
X9211730Y-10359150D01*
X9211730Y-10359150D02*
X9240301Y-10359150D01*
X9240301Y-10359150D02*
X9259349Y-10368674D01*
X9259349Y-10368674D02*
X9268873Y-10387722D01*
X9268873Y-10387722D02*
X9268873Y-10492484D01*
X9392682Y-10492484D02*
X9373634Y-10482960D01*
X9373634Y-10482960D02*
X9364111Y-10473436D01*
X9364111Y-10473436D02*
X9354587Y-10454389D01*
X9354587Y-10454389D02*
X9354587Y-10397246D01*
X9354587Y-10397246D02*
X9364111Y-10378198D01*
X9364111Y-10378198D02*
X9373634Y-10368674D01*
X9373634Y-10368674D02*
X9392682Y-10359150D01*
X9392682Y-10359150D02*
X9421254Y-10359150D01*
X9421254Y-10359150D02*
X9440301Y-10368674D01*
X9440301Y-10368674D02*
X9449825Y-10378198D01*
X9449825Y-10378198D02*
X9459349Y-10397246D01*
X9459349Y-10397246D02*
X9459349Y-10454389D01*
X9459349Y-10454389D02*
X9449825Y-10473436D01*
X9449825Y-10473436D02*
X9440301Y-10482960D01*
X9440301Y-10482960D02*
X9421254Y-10492484D01*
X9421254Y-10492484D02*
X9392682Y-10492484D01*
X9516492Y-10359150D02*
X9592682Y-10359150D01*
X9545063Y-10292484D02*
X9545063Y-10463912D01*
X9545063Y-10463912D02*
X9554587Y-10482960D01*
X9554587Y-10482960D02*
X9573634Y-10492484D01*
X9573634Y-10492484D02*
X9592682Y-10492484D01*
X9811730Y-10359150D02*
X9811730Y-10559150D01*
X9811730Y-10368674D02*
X9830777Y-10359150D01*
X9830777Y-10359150D02*
X9868873Y-10359150D01*
X9868873Y-10359150D02*
X9887920Y-10368674D01*
X9887920Y-10368674D02*
X9897444Y-10378198D01*
X9897444Y-10378198D02*
X9906968Y-10397246D01*
X9906968Y-10397246D02*
X9906968Y-10454389D01*
X9906968Y-10454389D02*
X9897444Y-10473436D01*
X9897444Y-10473436D02*
X9887920Y-10482960D01*
X9887920Y-10482960D02*
X9868873Y-10492484D01*
X9868873Y-10492484D02*
X9830777Y-10492484D01*
X9830777Y-10492484D02*
X9811730Y-10482960D01*
X10021254Y-10492484D02*
X10002206Y-10482960D01*
X10002206Y-10482960D02*
X9992682Y-10463912D01*
X9992682Y-10463912D02*
X9992682Y-10292484D01*
X10183158Y-10492484D02*
X10183158Y-10387722D01*
X10183158Y-10387722D02*
X10173635Y-10368674D01*
X10173635Y-10368674D02*
X10154587Y-10359150D01*
X10154587Y-10359150D02*
X10116492Y-10359150D01*
X10116492Y-10359150D02*
X10097444Y-10368674D01*
X10183158Y-10482960D02*
X10164111Y-10492484D01*
X10164111Y-10492484D02*
X10116492Y-10492484D01*
X10116492Y-10492484D02*
X10097444Y-10482960D01*
X10097444Y-10482960D02*
X10087920Y-10463912D01*
X10087920Y-10463912D02*
X10087920Y-10444865D01*
X10087920Y-10444865D02*
X10097444Y-10425817D01*
X10097444Y-10425817D02*
X10116492Y-10416293D01*
X10116492Y-10416293D02*
X10164111Y-10416293D01*
X10164111Y-10416293D02*
X10183158Y-10406770D01*
X10249825Y-10359150D02*
X10326015Y-10359150D01*
X10278396Y-10292484D02*
X10278396Y-10463912D01*
X10278396Y-10463912D02*
X10287920Y-10482960D01*
X10287920Y-10482960D02*
X10306968Y-10492484D01*
X10306968Y-10492484D02*
X10326015Y-10492484D01*
X10468873Y-10482960D02*
X10449825Y-10492484D01*
X10449825Y-10492484D02*
X10411730Y-10492484D01*
X10411730Y-10492484D02*
X10392682Y-10482960D01*
X10392682Y-10482960D02*
X10383158Y-10463912D01*
X10383158Y-10463912D02*
X10383158Y-10387722D01*
X10383158Y-10387722D02*
X10392682Y-10368674D01*
X10392682Y-10368674D02*
X10411730Y-10359150D01*
X10411730Y-10359150D02*
X10449825Y-10359150D01*
X10449825Y-10359150D02*
X10468873Y-10368674D01*
X10468873Y-10368674D02*
X10478396Y-10387722D01*
X10478396Y-10387722D02*
X10478396Y-10406770D01*
X10478396Y-10406770D02*
X10383158Y-10425817D01*
X10649825Y-10492484D02*
X10649825Y-10292484D01*
X10649825Y-10482960D02*
X10630777Y-10492484D01*
X10630777Y-10492484D02*
X10592682Y-10492484D01*
X10592682Y-10492484D02*
X10573635Y-10482960D01*
X10573635Y-10482960D02*
X10564111Y-10473436D01*
X10564111Y-10473436D02*
X10554587Y-10454389D01*
X10554587Y-10454389D02*
X10554587Y-10397246D01*
X10554587Y-10397246D02*
X10564111Y-10378198D01*
X10564111Y-10378198D02*
X10573635Y-10368674D01*
X10573635Y-10368674D02*
X10592682Y-10359150D01*
X10592682Y-10359150D02*
X10630777Y-10359150D01*
X10630777Y-10359150D02*
X10649825Y-10368674D01*
X10726016Y-10568674D02*
X10735539Y-10559150D01*
X10735539Y-10559150D02*
X10754587Y-10530579D01*
X10754587Y-10530579D02*
X10764111Y-10511531D01*
X10764111Y-10511531D02*
X10773635Y-10482960D01*
X10773635Y-10482960D02*
X10783158Y-10435341D01*
X10783158Y-10435341D02*
X10783158Y-10397246D01*
X10783158Y-10397246D02*
X10773635Y-10349627D01*
X10773635Y-10349627D02*
X10764111Y-10321055D01*
X10764111Y-10321055D02*
X10754587Y-10302008D01*
X10754587Y-10302008D02*
X10735539Y-10273436D01*
X10735539Y-10273436D02*
X10726016Y-10263912D01*
M02*
