%TF.GenerationSoftware,KiCad,Pcbnew,7.0.10*%
%TF.CreationDate,2024-03-07T12:26:45-07:00*%
%TF.ProjectId,Hall_effect_sensors,48616c6c-5f65-4666-9665-63745f73656e,rev?*%
%TF.SameCoordinates,Original*%
%TF.FileFunction,Copper,L2,Bot*%
%TF.FilePolarity,Positive*%
%FSLAX46Y46*%
G04 Gerber Fmt 4.6, Leading zero omitted, Abs format (unit mm)*
G04 Created by KiCad (PCBNEW 7.0.10) date 2024-03-07 12:26:45*
%MOMM*%
%LPD*%
G01*
G04 APERTURE LIST*
%TA.AperFunction,ComponentPad*%
%ADD10C,1.524000*%
%TD*%
%TA.AperFunction,ViaPad*%
%ADD11C,0.800000*%
%TD*%
%TA.AperFunction,ViaPad*%
%ADD12C,1.400000*%
%TD*%
%TA.AperFunction,Conductor*%
%ADD13C,0.500000*%
%TD*%
%TA.AperFunction,Conductor*%
%ADD14C,0.250000*%
%TD*%
%TA.AperFunction,Conductor*%
%ADD15C,1.000000*%
%TD*%
G04 APERTURE END LIST*
D10*
%TO.P,Main_Control1,1*%
%TO.N,OUT0*%
X159960000Y-78930000D03*
%TO.P,Main_Control1,2*%
%TO.N,OUT1*%
X157420000Y-78930000D03*
%TO.P,Main_Control1,3*%
%TO.N,OUT2*%
X154880000Y-78930000D03*
%TO.P,Main_Control1,4*%
%TO.N,OUT3*%
X152340000Y-78930000D03*
%TO.P,Main_Control1,5*%
%TO.N,OUT4*%
X149800000Y-78930000D03*
%TO.P,Main_Control1,6*%
%TO.N,OUT5*%
X147260000Y-78930000D03*
%TO.P,Main_Control1,7*%
%TO.N,OUT6*%
X144720000Y-78930000D03*
%TO.P,Main_Control1,8*%
%TO.N,OUT7*%
X142180000Y-78930000D03*
%TO.P,Main_Control1,9*%
%TO.N,OUT8*%
X139640000Y-78930000D03*
%TO.P,Main_Control1,10*%
%TO.N,OUT9*%
X137100000Y-78930000D03*
%TO.P,Main_Control1,11,VDD*%
%TO.N,VDD*%
X134560000Y-78930000D03*
%TO.P,Main_Control1,12,VSS*%
%TO.N,VSS*%
X132020000Y-78930000D03*
%TD*%
D11*
%TO.N,VDD*%
X121910000Y-80170000D03*
X80123473Y-86990347D03*
X98450000Y-87040000D03*
X62470000Y-87040000D03*
X206580000Y-86460000D03*
X170560000Y-87060000D03*
X116720000Y-87110000D03*
X134460000Y-87020000D03*
X129580000Y-85460000D03*
X188780000Y-87020000D03*
X152500000Y-87060000D03*
X224630000Y-87080000D03*
%TO.N,VSS*%
X121530000Y-78920000D03*
D12*
X113660000Y-78770000D03*
D11*
X203680000Y-91570000D03*
X60580000Y-91460000D03*
X113810000Y-91460000D03*
X95770000Y-91430000D03*
X131770000Y-91310000D03*
X221720000Y-91820000D03*
X167760000Y-91510000D03*
X77770000Y-91300000D03*
X149760000Y-91450000D03*
X185740000Y-91530000D03*
%TD*%
D13*
%TO.N,VDD*%
X116050000Y-84750000D02*
X102780000Y-84750000D01*
X102780000Y-84750000D02*
X98450000Y-84750000D01*
X134490000Y-84750000D02*
X134330000Y-84750000D01*
D14*
X152500000Y-87060000D02*
X152500000Y-84820000D01*
X98450000Y-84750000D02*
X98450000Y-87040000D01*
D13*
X169800000Y-84750000D02*
X152490000Y-84750000D01*
X64760000Y-84750000D02*
X80240000Y-84750000D01*
X170640000Y-84750000D02*
X206150000Y-84750000D01*
X130290000Y-84750000D02*
X129580000Y-85460000D01*
D14*
X80240000Y-86873820D02*
X80123473Y-86990347D01*
D13*
X134330000Y-84750000D02*
X133310000Y-84750000D01*
X133310000Y-84750000D02*
X130290000Y-84750000D01*
X116720000Y-85420000D02*
X116050000Y-84750000D01*
X224200000Y-84750000D02*
X225090000Y-85640000D01*
X121910000Y-84440000D02*
X122930000Y-85460000D01*
X116720000Y-87110000D02*
X116720000Y-85420000D01*
X152300000Y-84750000D02*
X134490000Y-84750000D01*
X80240000Y-84750000D02*
X102780000Y-84750000D01*
X169800000Y-84750000D02*
X172360000Y-84750000D01*
X206770000Y-84750000D02*
X224200000Y-84750000D01*
D14*
X170560000Y-87060000D02*
X170560000Y-84770000D01*
D13*
X225090000Y-85640000D02*
X225090000Y-86620000D01*
D14*
X188780000Y-87020000D02*
X188780000Y-84790000D01*
X129480000Y-85360000D02*
X129580000Y-85460000D01*
D13*
X225090000Y-86620000D02*
X224630000Y-87080000D01*
X62470000Y-87040000D02*
X64760000Y-84750000D01*
D14*
X206580000Y-86460000D02*
X207480000Y-85560000D01*
D13*
X206150000Y-84750000D02*
X206770000Y-84750000D01*
D14*
X207480000Y-85560000D02*
X207480000Y-84750000D01*
X80240000Y-84750000D02*
X80240000Y-86873820D01*
D13*
X122930000Y-85460000D02*
X129580000Y-85460000D01*
X121910000Y-80170000D02*
X121910000Y-84440000D01*
X134460000Y-84780000D02*
X134490000Y-84750000D01*
X133310000Y-84750000D02*
X134750000Y-84750000D01*
D14*
X134460000Y-87020000D02*
X134460000Y-84780000D01*
%TO.N,VSS*%
X95770000Y-91430000D02*
X95770000Y-92950000D01*
X167760000Y-91510000D02*
X167760000Y-92930000D01*
X126910000Y-92950000D02*
X120610000Y-92950000D01*
X131770000Y-92910000D02*
X131810000Y-92950000D01*
D15*
X167710000Y-92980000D02*
X166280000Y-92980000D01*
X166280000Y-92980000D02*
X149790000Y-92980000D01*
X62070000Y-92950000D02*
X80730000Y-92950000D01*
X120610000Y-92950000D02*
X120610000Y-79840000D01*
X115360000Y-92950000D02*
X97560000Y-92950000D01*
X60580000Y-91460000D02*
X62070000Y-92950000D01*
X221720000Y-91820000D02*
X220560000Y-92980000D01*
X131810000Y-92950000D02*
X149760000Y-92950000D01*
X203670000Y-92980000D02*
X185730000Y-92980000D01*
X185730000Y-92980000D02*
X182510000Y-92980000D01*
D14*
X203680000Y-91570000D02*
X203680000Y-92970000D01*
X185740000Y-91530000D02*
X185740000Y-92980000D01*
D15*
X131810000Y-92950000D02*
X126910000Y-92950000D01*
X126910000Y-92950000D02*
X115360000Y-92950000D01*
X120610000Y-79840000D02*
X121530000Y-78920000D01*
D14*
X113810000Y-91460000D02*
X113810000Y-92810000D01*
D15*
X185740000Y-92980000D02*
X182510000Y-92980000D01*
X220560000Y-92980000D02*
X203670000Y-92980000D01*
D14*
X149760000Y-92950000D02*
X149760000Y-91450000D01*
X131770000Y-91310000D02*
X131770000Y-92910000D01*
D15*
X97560000Y-92950000D02*
X80730000Y-92950000D01*
D14*
X77770000Y-92950000D02*
X80730000Y-92950000D01*
X77770000Y-91300000D02*
X77770000Y-92950000D01*
D15*
X182510000Y-92980000D02*
X167710000Y-92980000D01*
D14*
X113950000Y-92950000D02*
X115360000Y-92950000D01*
X95770000Y-92950000D02*
X97560000Y-92950000D01*
%TD*%
%TA.AperFunction,Conductor*%
%TO.N,VSS*%
G36*
X239767939Y-75620185D02*
G01*
X239813694Y-75672989D01*
X239824900Y-75724500D01*
X239824900Y-94185500D01*
X239805215Y-94252539D01*
X239752411Y-94298294D01*
X239700900Y-94309500D01*
X39924500Y-94309500D01*
X39857461Y-94289815D01*
X39811706Y-94237011D01*
X39800500Y-94185500D01*
X39800500Y-88586330D01*
X140675710Y-88586330D01*
X140705925Y-88809387D01*
X140705926Y-88809390D01*
X140775483Y-89023465D01*
X140882146Y-89221678D01*
X140882148Y-89221681D01*
X141022489Y-89397663D01*
X141022491Y-89397664D01*
X141022492Y-89397666D01*
X141192004Y-89545765D01*
X141385236Y-89661215D01*
X141595976Y-89740307D01*
X141817450Y-89780500D01*
X141817453Y-89780500D01*
X141986148Y-89780500D01*
X141986155Y-89780500D01*
X142154188Y-89765377D01*
X142154192Y-89765376D01*
X142371160Y-89705496D01*
X142371162Y-89705495D01*
X142371170Y-89705493D01*
X142573973Y-89607829D01*
X142756078Y-89475522D01*
X142911632Y-89312825D01*
X143035635Y-89124968D01*
X143124103Y-88917988D01*
X143174191Y-88698537D01*
X143184290Y-88473670D01*
X143154075Y-88250613D01*
X143084517Y-88036536D01*
X143070506Y-88010500D01*
X142977853Y-87838321D01*
X142977851Y-87838318D01*
X142837510Y-87662336D01*
X142814479Y-87642214D01*
X142667996Y-87514235D01*
X142474764Y-87398785D01*
X142356775Y-87354503D01*
X142264023Y-87319692D01*
X142042550Y-87279500D01*
X142042547Y-87279500D01*
X141873845Y-87279500D01*
X141835399Y-87282960D01*
X141705813Y-87294622D01*
X141705807Y-87294623D01*
X141488839Y-87354503D01*
X141488826Y-87354508D01*
X141286033Y-87452167D01*
X141286025Y-87452171D01*
X141103927Y-87584473D01*
X141103925Y-87584474D01*
X140948366Y-87747176D01*
X140824363Y-87935033D01*
X140735899Y-88142004D01*
X140735895Y-88142017D01*
X140685810Y-88361457D01*
X140685808Y-88361468D01*
X140680769Y-88473674D01*
X140675710Y-88586330D01*
X39800500Y-88586330D01*
X39800500Y-85375373D01*
X43645723Y-85375373D01*
X43675881Y-85675160D01*
X43675882Y-85675162D01*
X43745728Y-85968252D01*
X43745733Y-85968266D01*
X43854020Y-86249427D01*
X43854024Y-86249436D01*
X43998825Y-86513665D01*
X43998829Y-86513671D01*
X44131001Y-86693056D01*
X44177554Y-86756238D01*
X44387020Y-86972824D01*
X44442552Y-87016677D01*
X44623478Y-87159553D01*
X44623480Y-87159554D01*
X44623485Y-87159558D01*
X44882730Y-87313109D01*
X45160128Y-87430736D01*
X45450729Y-87510340D01*
X45749347Y-87550500D01*
X45749351Y-87550500D01*
X45975252Y-87550500D01*
X46139164Y-87539526D01*
X46200634Y-87535412D01*
X46495903Y-87475396D01*
X46780537Y-87376560D01*
X47049459Y-87240668D01*
X47297869Y-87070144D01*
X47331198Y-87040000D01*
X61564540Y-87040000D01*
X61584326Y-87228256D01*
X61586292Y-87234309D01*
X61642818Y-87408277D01*
X61642821Y-87408284D01*
X61737467Y-87572216D01*
X61818610Y-87662334D01*
X61864129Y-87712888D01*
X62017265Y-87824148D01*
X62017270Y-87824151D01*
X62190192Y-87901142D01*
X62190197Y-87901144D01*
X62375354Y-87940500D01*
X62375355Y-87940500D01*
X62564644Y-87940500D01*
X62564646Y-87940500D01*
X62749803Y-87901144D01*
X62922730Y-87824151D01*
X63075871Y-87712888D01*
X63202533Y-87572216D01*
X63297179Y-87408284D01*
X63352522Y-87237956D01*
X63382768Y-87188598D01*
X65034549Y-85536819D01*
X65095872Y-85503334D01*
X65122230Y-85500500D01*
X79490500Y-85500500D01*
X79557539Y-85520185D01*
X79603294Y-85572989D01*
X79614500Y-85624500D01*
X79614500Y-86183877D01*
X79594815Y-86250916D01*
X79563386Y-86284194D01*
X79536703Y-86303580D01*
X79517599Y-86317461D01*
X79517596Y-86317463D01*
X79390939Y-86458132D01*
X79296294Y-86622062D01*
X79296291Y-86622069D01*
X79244175Y-86782467D01*
X79237799Y-86802091D01*
X79218013Y-86990347D01*
X79237799Y-87178603D01*
X79237800Y-87178606D01*
X79296291Y-87358624D01*
X79296294Y-87358631D01*
X79390940Y-87522563D01*
X79471664Y-87612216D01*
X79517602Y-87663235D01*
X79670738Y-87774495D01*
X79670743Y-87774498D01*
X79843665Y-87851489D01*
X79843670Y-87851491D01*
X80028827Y-87890847D01*
X80028828Y-87890847D01*
X80218117Y-87890847D01*
X80218119Y-87890847D01*
X80403276Y-87851491D01*
X80576203Y-87774498D01*
X80729344Y-87663235D01*
X80856006Y-87522563D01*
X80950652Y-87358631D01*
X81009147Y-87178603D01*
X81028933Y-86990347D01*
X81009147Y-86802091D01*
X80950652Y-86622063D01*
X80944201Y-86610889D01*
X80882113Y-86503348D01*
X80865500Y-86441349D01*
X80865500Y-85624500D01*
X80885185Y-85557461D01*
X80937989Y-85511706D01*
X80989500Y-85500500D01*
X97700500Y-85500500D01*
X97767539Y-85520185D01*
X97813294Y-85572989D01*
X97824500Y-85624500D01*
X97824500Y-86341312D01*
X97804815Y-86408351D01*
X97792650Y-86424284D01*
X97717466Y-86507784D01*
X97622821Y-86671715D01*
X97622818Y-86671722D01*
X97565076Y-86849436D01*
X97564326Y-86851744D01*
X97544540Y-87040000D01*
X97564326Y-87228256D01*
X97566292Y-87234309D01*
X97622818Y-87408277D01*
X97622821Y-87408284D01*
X97717467Y-87572216D01*
X97798610Y-87662334D01*
X97844129Y-87712888D01*
X97997265Y-87824148D01*
X97997270Y-87824151D01*
X98170192Y-87901142D01*
X98170197Y-87901144D01*
X98355354Y-87940500D01*
X98355355Y-87940500D01*
X98544644Y-87940500D01*
X98544646Y-87940500D01*
X98729803Y-87901144D01*
X98902730Y-87824151D01*
X99055871Y-87712888D01*
X99182533Y-87572216D01*
X99277179Y-87408284D01*
X99335674Y-87228256D01*
X99355460Y-87040000D01*
X99335674Y-86851744D01*
X99277179Y-86671716D01*
X99182533Y-86507784D01*
X99164525Y-86487784D01*
X99107350Y-86424284D01*
X99077120Y-86361292D01*
X99075500Y-86341312D01*
X99075500Y-85624500D01*
X99095185Y-85557461D01*
X99147989Y-85511706D01*
X99199500Y-85500500D01*
X102692279Y-85500500D01*
X115687770Y-85500500D01*
X115754809Y-85520185D01*
X115775451Y-85536819D01*
X115933181Y-85694549D01*
X115966666Y-85755872D01*
X115969500Y-85782230D01*
X115969500Y-86575677D01*
X115952887Y-86637677D01*
X115892821Y-86741714D01*
X115834327Y-86921740D01*
X115834326Y-86921744D01*
X115814540Y-87110000D01*
X115834326Y-87298256D01*
X115834327Y-87298259D01*
X115892818Y-87478277D01*
X115892821Y-87478284D01*
X115987467Y-87642216D01*
X116051101Y-87712888D01*
X116114129Y-87782888D01*
X116267265Y-87894148D01*
X116267270Y-87894151D01*
X116440192Y-87971142D01*
X116440197Y-87971144D01*
X116625354Y-88010500D01*
X116625355Y-88010500D01*
X116814644Y-88010500D01*
X116814646Y-88010500D01*
X116999803Y-87971144D01*
X117172730Y-87894151D01*
X117325871Y-87782888D01*
X117452533Y-87642216D01*
X117547179Y-87478284D01*
X117605674Y-87298256D01*
X117625460Y-87110000D01*
X117605674Y-86921744D01*
X117547179Y-86741716D01*
X117529858Y-86711715D01*
X117487113Y-86637677D01*
X117470500Y-86575677D01*
X117470500Y-85483705D01*
X117471809Y-85465735D01*
X117475289Y-85441974D01*
X117470972Y-85392635D01*
X117470500Y-85381826D01*
X117470500Y-85376296D01*
X117470500Y-85376291D01*
X117466894Y-85345443D01*
X117466534Y-85341916D01*
X117459999Y-85267209D01*
X117458538Y-85260135D01*
X117458598Y-85260122D01*
X117456966Y-85252764D01*
X117456908Y-85252778D01*
X117455242Y-85245750D01*
X117455241Y-85245748D01*
X117455241Y-85245745D01*
X117429567Y-85175206D01*
X117428420Y-85171908D01*
X117404814Y-85100666D01*
X117404811Y-85100662D01*
X117401762Y-85094121D01*
X117401815Y-85094095D01*
X117398531Y-85087311D01*
X117398479Y-85087338D01*
X117395236Y-85080882D01*
X117354025Y-85018222D01*
X117352088Y-85015181D01*
X117312714Y-84951347D01*
X117308234Y-84945681D01*
X117308280Y-84945643D01*
X117303519Y-84939799D01*
X117303474Y-84939838D01*
X117298831Y-84934305D01*
X117283842Y-84920164D01*
X117244290Y-84882848D01*
X117241703Y-84880335D01*
X116625729Y-84264361D01*
X116613949Y-84250730D01*
X116599610Y-84231470D01*
X116561651Y-84199619D01*
X116553686Y-84192318D01*
X116549780Y-84188411D01*
X116525443Y-84169168D01*
X116522647Y-84166890D01*
X116465214Y-84118698D01*
X116459180Y-84114729D01*
X116459212Y-84114680D01*
X116452853Y-84110628D01*
X116452822Y-84110679D01*
X116446680Y-84106891D01*
X116446678Y-84106890D01*
X116446677Y-84106889D01*
X116378688Y-84075184D01*
X116375447Y-84073615D01*
X116311706Y-84041604D01*
X116308433Y-84039960D01*
X116308431Y-84039959D01*
X116308430Y-84039959D01*
X116301645Y-84037489D01*
X116301665Y-84037433D01*
X116294549Y-84034959D01*
X116294531Y-84035015D01*
X116287674Y-84032743D01*
X116214210Y-84017573D01*
X116210693Y-84016793D01*
X116137718Y-83999499D01*
X116130547Y-83998661D01*
X116130553Y-83998601D01*
X116123055Y-83997835D01*
X116123050Y-83997895D01*
X116115860Y-83997265D01*
X116040870Y-83999448D01*
X116037263Y-83999500D01*
X64823705Y-83999500D01*
X64805735Y-83998191D01*
X64781972Y-83994710D01*
X64736826Y-83998661D01*
X64732630Y-83999028D01*
X64721824Y-83999500D01*
X64716284Y-83999500D01*
X64685501Y-84003098D01*
X64681916Y-84003464D01*
X64607199Y-84010001D01*
X64600132Y-84011460D01*
X64600120Y-84011404D01*
X64592763Y-84013035D01*
X64592777Y-84013092D01*
X64585740Y-84014760D01*
X64515231Y-84040421D01*
X64511830Y-84041603D01*
X64440668Y-84065184D01*
X64434126Y-84068235D01*
X64434101Y-84068183D01*
X64427308Y-84071471D01*
X64427334Y-84071522D01*
X64420886Y-84074760D01*
X64358228Y-84115970D01*
X64355191Y-84117905D01*
X64291344Y-84157288D01*
X64285677Y-84161769D01*
X64285641Y-84161723D01*
X64279798Y-84166484D01*
X64279835Y-84166528D01*
X64274310Y-84171164D01*
X64274304Y-84171169D01*
X64274304Y-84171170D01*
X64250733Y-84196153D01*
X64222848Y-84225709D01*
X64220336Y-84228294D01*
X62317228Y-86131402D01*
X62255905Y-86164887D01*
X62255329Y-86165011D01*
X62190196Y-86178856D01*
X62190192Y-86178857D01*
X62017270Y-86255848D01*
X62017265Y-86255851D01*
X61864129Y-86367111D01*
X61737466Y-86507785D01*
X61642821Y-86671715D01*
X61642818Y-86671722D01*
X61585076Y-86849436D01*
X61584326Y-86851744D01*
X61564540Y-87040000D01*
X47331198Y-87040000D01*
X47521333Y-86868032D01*
X47715865Y-86637939D01*
X47877993Y-86383970D01*
X48004823Y-86110658D01*
X48094093Y-85822879D01*
X48144209Y-85525770D01*
X48154277Y-85224631D01*
X48124118Y-84924838D01*
X48054269Y-84631739D01*
X47945977Y-84350566D01*
X47801175Y-84086335D01*
X47792960Y-84075186D01*
X47724623Y-83982438D01*
X47622446Y-83843762D01*
X47412980Y-83627176D01*
X47289742Y-83529856D01*
X47176521Y-83440446D01*
X47176517Y-83440443D01*
X47176515Y-83440442D01*
X46917270Y-83286891D01*
X46639872Y-83169264D01*
X46639863Y-83169261D01*
X46349272Y-83089660D01*
X46274616Y-83079620D01*
X46050653Y-83049500D01*
X45824756Y-83049500D01*
X45824748Y-83049500D01*
X45599368Y-83064587D01*
X45599359Y-83064589D01*
X45304094Y-83124604D01*
X45019464Y-83223439D01*
X45019459Y-83223441D01*
X44750546Y-83359328D01*
X44502125Y-83529860D01*
X44278665Y-83731969D01*
X44084132Y-83962064D01*
X43922006Y-84216030D01*
X43922005Y-84216032D01*
X43797794Y-84483703D01*
X43795177Y-84489342D01*
X43786269Y-84518058D01*
X43705907Y-84777118D01*
X43671958Y-84978385D01*
X43655791Y-85074230D01*
X43646842Y-85341916D01*
X43645723Y-85375373D01*
X39800500Y-85375373D01*
X39800500Y-80170000D01*
X121004540Y-80170000D01*
X121024326Y-80358256D01*
X121024327Y-80358259D01*
X121082818Y-80538277D01*
X121082821Y-80538284D01*
X121142887Y-80642321D01*
X121159500Y-80704321D01*
X121159500Y-84376294D01*
X121158191Y-84394263D01*
X121154710Y-84418025D01*
X121159028Y-84467368D01*
X121159500Y-84478176D01*
X121159500Y-84483703D01*
X121159499Y-84483703D01*
X121163096Y-84514470D01*
X121163462Y-84518058D01*
X121170000Y-84592791D01*
X121171461Y-84599867D01*
X121171403Y-84599878D01*
X121173034Y-84607237D01*
X121173092Y-84607224D01*
X121174757Y-84614249D01*
X121174758Y-84614254D01*
X121174759Y-84614255D01*
X121197177Y-84675851D01*
X121200400Y-84684705D01*
X121201582Y-84688107D01*
X121225182Y-84759326D01*
X121228236Y-84765874D01*
X121228182Y-84765898D01*
X121231470Y-84772688D01*
X121231521Y-84772663D01*
X121234761Y-84779114D01*
X121275979Y-84841784D01*
X121277889Y-84844782D01*
X121299819Y-84880335D01*
X121317289Y-84908658D01*
X121321766Y-84914319D01*
X121321719Y-84914356D01*
X121326482Y-84920202D01*
X121326528Y-84920164D01*
X121331173Y-84925699D01*
X121385707Y-84977149D01*
X121388295Y-84979663D01*
X122354270Y-85945638D01*
X122366051Y-85959270D01*
X122380388Y-85978528D01*
X122418337Y-86010372D01*
X122426310Y-86017679D01*
X122430217Y-86021586D01*
X122430223Y-86021591D01*
X122454537Y-86040816D01*
X122457318Y-86043080D01*
X122484956Y-86066271D01*
X122514789Y-86091305D01*
X122520818Y-86095270D01*
X122520785Y-86095319D01*
X122527147Y-86099372D01*
X122527179Y-86099321D01*
X122533319Y-86103108D01*
X122533323Y-86103111D01*
X122549497Y-86110653D01*
X122601320Y-86134819D01*
X122604566Y-86136391D01*
X122671562Y-86170038D01*
X122678357Y-86172511D01*
X122678336Y-86172567D01*
X122685457Y-86175043D01*
X122685476Y-86174986D01*
X122692319Y-86177253D01*
X122692327Y-86177257D01*
X122765895Y-86192447D01*
X122769228Y-86193186D01*
X122842279Y-86210500D01*
X122842281Y-86210500D01*
X122842285Y-86210501D01*
X122849453Y-86211339D01*
X122849446Y-86211398D01*
X122856944Y-86212164D01*
X122856950Y-86212105D01*
X122864139Y-86212734D01*
X122864143Y-86212733D01*
X122864144Y-86212734D01*
X122939130Y-86210552D01*
X122942737Y-86210500D01*
X129040663Y-86210500D01*
X129107702Y-86230185D01*
X129113548Y-86234182D01*
X129127265Y-86244148D01*
X129127270Y-86244151D01*
X129300192Y-86321142D01*
X129300197Y-86321144D01*
X129485354Y-86360500D01*
X129485355Y-86360500D01*
X129674644Y-86360500D01*
X129674646Y-86360500D01*
X129859803Y-86321144D01*
X130032730Y-86244151D01*
X130185871Y-86132888D01*
X130312533Y-85992216D01*
X130407179Y-85828284D01*
X130462522Y-85657955D01*
X130492767Y-85608599D01*
X130564550Y-85536816D01*
X130625872Y-85503334D01*
X130652229Y-85500500D01*
X133222279Y-85500500D01*
X133710500Y-85500500D01*
X133777539Y-85520185D01*
X133823294Y-85572989D01*
X133834500Y-85624500D01*
X133834500Y-86321312D01*
X133814815Y-86388351D01*
X133802650Y-86404284D01*
X133727466Y-86487784D01*
X133632821Y-86651715D01*
X133632818Y-86651722D01*
X133575450Y-86828284D01*
X133574326Y-86831744D01*
X133554540Y-87020000D01*
X133574326Y-87208256D01*
X133574327Y-87208259D01*
X133632818Y-87388277D01*
X133632821Y-87388284D01*
X133727467Y-87552216D01*
X133808502Y-87642214D01*
X133854129Y-87692888D01*
X134007265Y-87804148D01*
X134007270Y-87804151D01*
X134180192Y-87881142D01*
X134180197Y-87881144D01*
X134365354Y-87920500D01*
X134365355Y-87920500D01*
X134554644Y-87920500D01*
X134554646Y-87920500D01*
X134739803Y-87881144D01*
X134912730Y-87804151D01*
X135065871Y-87692888D01*
X135192533Y-87552216D01*
X135287179Y-87388284D01*
X135345674Y-87208256D01*
X135365460Y-87020000D01*
X135345674Y-86831744D01*
X135287179Y-86651716D01*
X135192533Y-86487784D01*
X135117350Y-86404284D01*
X135087120Y-86341292D01*
X135085500Y-86321312D01*
X135085500Y-85624500D01*
X135105185Y-85557461D01*
X135157989Y-85511706D01*
X135209500Y-85500500D01*
X151750500Y-85500500D01*
X151817539Y-85520185D01*
X151863294Y-85572989D01*
X151874500Y-85624500D01*
X151874500Y-86361312D01*
X151854815Y-86428351D01*
X151842650Y-86444284D01*
X151767466Y-86527784D01*
X151672821Y-86691715D01*
X151672818Y-86691722D01*
X151614327Y-86871740D01*
X151614326Y-86871744D01*
X151594540Y-87060000D01*
X151614326Y-87248256D01*
X151614327Y-87248259D01*
X151672818Y-87428277D01*
X151672821Y-87428284D01*
X151767467Y-87592216D01*
X151837634Y-87670144D01*
X151894129Y-87732888D01*
X152047265Y-87844148D01*
X152047270Y-87844151D01*
X152220192Y-87921142D01*
X152220197Y-87921144D01*
X152405354Y-87960500D01*
X152405355Y-87960500D01*
X152594644Y-87960500D01*
X152594646Y-87960500D01*
X152779803Y-87921144D01*
X152952730Y-87844151D01*
X153105871Y-87732888D01*
X153232533Y-87592216D01*
X153327179Y-87428284D01*
X153385674Y-87248256D01*
X153405460Y-87060000D01*
X153385674Y-86871744D01*
X153327179Y-86691716D01*
X153232533Y-86527784D01*
X153196517Y-86487784D01*
X153157350Y-86444284D01*
X153127120Y-86381292D01*
X153125500Y-86361312D01*
X153125500Y-85624500D01*
X153145185Y-85557461D01*
X153197989Y-85511706D01*
X153249500Y-85500500D01*
X169712279Y-85500500D01*
X169810500Y-85500500D01*
X169877539Y-85520185D01*
X169923294Y-85572989D01*
X169934500Y-85624500D01*
X169934500Y-86361312D01*
X169914815Y-86428351D01*
X169902650Y-86444284D01*
X169827466Y-86527784D01*
X169732821Y-86691715D01*
X169732818Y-86691722D01*
X169674327Y-86871740D01*
X169674326Y-86871744D01*
X169654540Y-87060000D01*
X169674326Y-87248256D01*
X169674327Y-87248259D01*
X169732818Y-87428277D01*
X169732821Y-87428284D01*
X169827467Y-87592216D01*
X169897634Y-87670144D01*
X169954129Y-87732888D01*
X170107265Y-87844148D01*
X170107270Y-87844151D01*
X170280192Y-87921142D01*
X170280197Y-87921144D01*
X170465354Y-87960500D01*
X170465355Y-87960500D01*
X170654644Y-87960500D01*
X170654646Y-87960500D01*
X170839803Y-87921144D01*
X171012730Y-87844151D01*
X171165871Y-87732888D01*
X171292533Y-87592216D01*
X171387179Y-87428284D01*
X171445674Y-87248256D01*
X171465460Y-87060000D01*
X171445674Y-86871744D01*
X171387179Y-86691716D01*
X171292533Y-86527784D01*
X171256517Y-86487784D01*
X171217350Y-86444284D01*
X171187120Y-86381292D01*
X171185500Y-86361312D01*
X171185500Y-85624500D01*
X171205185Y-85557461D01*
X171257989Y-85511706D01*
X171309500Y-85500500D01*
X188030500Y-85500500D01*
X188097539Y-85520185D01*
X188143294Y-85572989D01*
X188154500Y-85624500D01*
X188154500Y-86321312D01*
X188134815Y-86388351D01*
X188122650Y-86404284D01*
X188047466Y-86487784D01*
X187952821Y-86651715D01*
X187952818Y-86651722D01*
X187895450Y-86828284D01*
X187894326Y-86831744D01*
X187874540Y-87020000D01*
X187894326Y-87208256D01*
X187894327Y-87208259D01*
X187952818Y-87388277D01*
X187952821Y-87388284D01*
X188047467Y-87552216D01*
X188128502Y-87642214D01*
X188174129Y-87692888D01*
X188327265Y-87804148D01*
X188327270Y-87804151D01*
X188500192Y-87881142D01*
X188500197Y-87881144D01*
X188685354Y-87920500D01*
X188685355Y-87920500D01*
X188874644Y-87920500D01*
X188874646Y-87920500D01*
X189059803Y-87881144D01*
X189232730Y-87804151D01*
X189385871Y-87692888D01*
X189512533Y-87552216D01*
X189607179Y-87388284D01*
X189665674Y-87208256D01*
X189685460Y-87020000D01*
X189665674Y-86831744D01*
X189607179Y-86651716D01*
X189512533Y-86487784D01*
X189437350Y-86404284D01*
X189407120Y-86341292D01*
X189405500Y-86321312D01*
X189405500Y-85624500D01*
X189425185Y-85557461D01*
X189477989Y-85511706D01*
X189529500Y-85500500D01*
X205986984Y-85500500D01*
X206054023Y-85520185D01*
X206099778Y-85572989D01*
X206109722Y-85642147D01*
X206080697Y-85705703D01*
X206059869Y-85724818D01*
X205974129Y-85787111D01*
X205847466Y-85927785D01*
X205752821Y-86091715D01*
X205752818Y-86091722D01*
X205699321Y-86256371D01*
X205694326Y-86271744D01*
X205674540Y-86460000D01*
X205694326Y-86648256D01*
X205694327Y-86648259D01*
X205752818Y-86828277D01*
X205752821Y-86828284D01*
X205847467Y-86992216D01*
X205965836Y-87123678D01*
X205974129Y-87132888D01*
X206127265Y-87244148D01*
X206127270Y-87244151D01*
X206300192Y-87321142D01*
X206300197Y-87321144D01*
X206485354Y-87360500D01*
X206485355Y-87360500D01*
X206674644Y-87360500D01*
X206674646Y-87360500D01*
X206859803Y-87321144D01*
X207032730Y-87244151D01*
X207185871Y-87132888D01*
X207312533Y-86992216D01*
X207407179Y-86828284D01*
X207465674Y-86648256D01*
X207483321Y-86480344D01*
X207509904Y-86415734D01*
X207518951Y-86405638D01*
X207863788Y-86060801D01*
X207876042Y-86050986D01*
X207875859Y-86050764D01*
X207881868Y-86045791D01*
X207881877Y-86045786D01*
X207927949Y-85996722D01*
X207930566Y-85994023D01*
X207950120Y-85974471D01*
X207952576Y-85971303D01*
X207960156Y-85962427D01*
X207990062Y-85930582D01*
X207999713Y-85913024D01*
X208010396Y-85896761D01*
X208022673Y-85880936D01*
X208040021Y-85840844D01*
X208045151Y-85830371D01*
X208066197Y-85792092D01*
X208071180Y-85772680D01*
X208077481Y-85754280D01*
X208085437Y-85735896D01*
X208092270Y-85692748D01*
X208094633Y-85681338D01*
X208105500Y-85639019D01*
X208105500Y-85624500D01*
X208125185Y-85557461D01*
X208177989Y-85511706D01*
X208229500Y-85500500D01*
X223837770Y-85500500D01*
X223904809Y-85520185D01*
X223925451Y-85536819D01*
X224303181Y-85914549D01*
X224336666Y-85975872D01*
X224339500Y-86002230D01*
X224339500Y-86143092D01*
X224319815Y-86210131D01*
X224267011Y-86255886D01*
X224265936Y-86256371D01*
X224177269Y-86295848D01*
X224024129Y-86407111D01*
X223897466Y-86547785D01*
X223802821Y-86711715D01*
X223802818Y-86711722D01*
X223750824Y-86871744D01*
X223744326Y-86891744D01*
X223724540Y-87080000D01*
X223744326Y-87268256D01*
X223744327Y-87268259D01*
X223802818Y-87448277D01*
X223802821Y-87448284D01*
X223897467Y-87612216D01*
X223949626Y-87670144D01*
X224024129Y-87752888D01*
X224177265Y-87864148D01*
X224177270Y-87864151D01*
X224350192Y-87941142D01*
X224350197Y-87941144D01*
X224535354Y-87980500D01*
X224535355Y-87980500D01*
X224724644Y-87980500D01*
X224724646Y-87980500D01*
X224909803Y-87941144D01*
X225082730Y-87864151D01*
X225235871Y-87752888D01*
X225362533Y-87612216D01*
X225457179Y-87448284D01*
X225512522Y-87277955D01*
X225542770Y-87228595D01*
X225575641Y-87195724D01*
X225589260Y-87183954D01*
X225608530Y-87169610D01*
X225640385Y-87131645D01*
X225647677Y-87123689D01*
X225651590Y-87119777D01*
X225670869Y-87095392D01*
X225673030Y-87092739D01*
X225721302Y-87035214D01*
X225721304Y-87035209D01*
X225725272Y-87029179D01*
X225725323Y-87029212D01*
X225729369Y-87022860D01*
X225729317Y-87022828D01*
X225733105Y-87016683D01*
X225733111Y-87016677D01*
X225764829Y-86948655D01*
X225766369Y-86945476D01*
X225800040Y-86878433D01*
X225800043Y-86878417D01*
X225802510Y-86871644D01*
X225802568Y-86871665D01*
X225805043Y-86864546D01*
X225804985Y-86864527D01*
X225807255Y-86857677D01*
X225808481Y-86851740D01*
X225822431Y-86784171D01*
X225823186Y-86780767D01*
X225840500Y-86707721D01*
X225840500Y-86707719D01*
X225840501Y-86707715D01*
X225841339Y-86700548D01*
X225841397Y-86700554D01*
X225842164Y-86693056D01*
X225842104Y-86693051D01*
X225842733Y-86685860D01*
X225840552Y-86610889D01*
X225840500Y-86607283D01*
X225840500Y-85975373D01*
X231445723Y-85975373D01*
X231475881Y-86275160D01*
X231475882Y-86275162D01*
X231545728Y-86568252D01*
X231545730Y-86568259D01*
X231545731Y-86568261D01*
X231566455Y-86622069D01*
X231654020Y-86849427D01*
X231654024Y-86849436D01*
X231798825Y-87113665D01*
X231798829Y-87113671D01*
X231976276Y-87354503D01*
X231977554Y-87356238D01*
X232187020Y-87572824D01*
X232236900Y-87612214D01*
X232423478Y-87759553D01*
X232423480Y-87759554D01*
X232423485Y-87759558D01*
X232682730Y-87913109D01*
X232960128Y-88030736D01*
X233250729Y-88110340D01*
X233549347Y-88150500D01*
X233549351Y-88150500D01*
X233775252Y-88150500D01*
X233939164Y-88139526D01*
X234000634Y-88135412D01*
X234295903Y-88075396D01*
X234580537Y-87976560D01*
X234849459Y-87840668D01*
X235097869Y-87670144D01*
X235321333Y-87468032D01*
X235515865Y-87237939D01*
X235677993Y-86983970D01*
X235804823Y-86710658D01*
X235894093Y-86422879D01*
X235944209Y-86125770D01*
X235954277Y-85824631D01*
X235924118Y-85524838D01*
X235854269Y-85231739D01*
X235745977Y-84950566D01*
X235601175Y-84686335D01*
X235422446Y-84443762D01*
X235212980Y-84227176D01*
X235163889Y-84188409D01*
X234976521Y-84040446D01*
X234976517Y-84040443D01*
X234976515Y-84040442D01*
X234717270Y-83886891D01*
X234439872Y-83769264D01*
X234439863Y-83769261D01*
X234149272Y-83689660D01*
X234074616Y-83679620D01*
X233850653Y-83649500D01*
X233624756Y-83649500D01*
X233624748Y-83649500D01*
X233399368Y-83664587D01*
X233399359Y-83664589D01*
X233104094Y-83724604D01*
X232819464Y-83823439D01*
X232819459Y-83823441D01*
X232550546Y-83959328D01*
X232302125Y-84129860D01*
X232078665Y-84331969D01*
X231884132Y-84562064D01*
X231722006Y-84816030D01*
X231722005Y-84816032D01*
X231599103Y-85080882D01*
X231595177Y-85089342D01*
X231576824Y-85148504D01*
X231505907Y-85377118D01*
X231461730Y-85639019D01*
X231455791Y-85674230D01*
X231445961Y-85968266D01*
X231445723Y-85975373D01*
X225840500Y-85975373D01*
X225840500Y-85703705D01*
X225841809Y-85685735D01*
X225843257Y-85675849D01*
X225845289Y-85661977D01*
X225844937Y-85657958D01*
X225840972Y-85612630D01*
X225840500Y-85601822D01*
X225840500Y-85596296D01*
X225840500Y-85596291D01*
X225836901Y-85565509D01*
X225836536Y-85561929D01*
X225829999Y-85487201D01*
X225828539Y-85480129D01*
X225828597Y-85480116D01*
X225826965Y-85472757D01*
X225826906Y-85472772D01*
X225825242Y-85465753D01*
X225825241Y-85465745D01*
X225799591Y-85395273D01*
X225798408Y-85391868D01*
X225774813Y-85320663D01*
X225771764Y-85314124D01*
X225771817Y-85314099D01*
X225768531Y-85307311D01*
X225768479Y-85307338D01*
X225765236Y-85300882D01*
X225724025Y-85238222D01*
X225722088Y-85235181D01*
X225682714Y-85171347D01*
X225678234Y-85165681D01*
X225678280Y-85165643D01*
X225673519Y-85159799D01*
X225673474Y-85159838D01*
X225668831Y-85154305D01*
X225614290Y-85102848D01*
X225611703Y-85100335D01*
X224775729Y-84264361D01*
X224763949Y-84250730D01*
X224749610Y-84231470D01*
X224711651Y-84199619D01*
X224703686Y-84192318D01*
X224699780Y-84188411D01*
X224675443Y-84169168D01*
X224672647Y-84166890D01*
X224615214Y-84118698D01*
X224609180Y-84114729D01*
X224609212Y-84114680D01*
X224602853Y-84110628D01*
X224602822Y-84110679D01*
X224596680Y-84106891D01*
X224596678Y-84106890D01*
X224596677Y-84106889D01*
X224528688Y-84075184D01*
X224525447Y-84073615D01*
X224461706Y-84041604D01*
X224458433Y-84039960D01*
X224458431Y-84039959D01*
X224458430Y-84039959D01*
X224451645Y-84037489D01*
X224451665Y-84037433D01*
X224444549Y-84034959D01*
X224444531Y-84035015D01*
X224437674Y-84032743D01*
X224364210Y-84017573D01*
X224360693Y-84016793D01*
X224287718Y-83999499D01*
X224280547Y-83998661D01*
X224280553Y-83998601D01*
X224273055Y-83997835D01*
X224273050Y-83997895D01*
X224265860Y-83997265D01*
X224190870Y-83999448D01*
X224187263Y-83999500D01*
X152446280Y-83999500D01*
X152428776Y-84001546D01*
X152394985Y-83999578D01*
X152394897Y-84000338D01*
X152387725Y-83999500D01*
X152387721Y-83999500D01*
X134837721Y-83999500D01*
X134553705Y-83999500D01*
X134535735Y-83998191D01*
X134511972Y-83994710D01*
X134465642Y-83998764D01*
X134462632Y-83999028D01*
X134451826Y-83999500D01*
X130353705Y-83999500D01*
X130335735Y-83998191D01*
X130311972Y-83994710D01*
X130266826Y-83998661D01*
X130262630Y-83999028D01*
X130251824Y-83999500D01*
X130246284Y-83999500D01*
X130215501Y-84003098D01*
X130211916Y-84003464D01*
X130137199Y-84010001D01*
X130130132Y-84011460D01*
X130130120Y-84011404D01*
X130122763Y-84013035D01*
X130122777Y-84013092D01*
X130115740Y-84014760D01*
X130045231Y-84040421D01*
X130041854Y-84041595D01*
X130002848Y-84054521D01*
X129970668Y-84065185D01*
X129964126Y-84068236D01*
X129964101Y-84068183D01*
X129957308Y-84071471D01*
X129957334Y-84071523D01*
X129950880Y-84074764D01*
X129888221Y-84115975D01*
X129885181Y-84117912D01*
X129821348Y-84157285D01*
X129815683Y-84161765D01*
X129815647Y-84161719D01*
X129809798Y-84166484D01*
X129809835Y-84166528D01*
X129804310Y-84171164D01*
X129804304Y-84171169D01*
X129804304Y-84171170D01*
X129780733Y-84196153D01*
X129752832Y-84225726D01*
X129750320Y-84228311D01*
X129427229Y-84551402D01*
X129365906Y-84584887D01*
X129365330Y-84585011D01*
X129300196Y-84598856D01*
X129300192Y-84598857D01*
X129127270Y-84675848D01*
X129127265Y-84675851D01*
X129113548Y-84685818D01*
X129047742Y-84709298D01*
X129040663Y-84709500D01*
X123292229Y-84709500D01*
X123225190Y-84689815D01*
X123204548Y-84673181D01*
X122696819Y-84165451D01*
X122663334Y-84104128D01*
X122660500Y-84077770D01*
X122660500Y-80704321D01*
X122677113Y-80642321D01*
X122737179Y-80538284D01*
X122795674Y-80358256D01*
X122815460Y-80170000D01*
X122795674Y-79981744D01*
X122737179Y-79801716D01*
X122642533Y-79637784D01*
X122515871Y-79497112D01*
X122515870Y-79497111D01*
X122362734Y-79385851D01*
X122362729Y-79385848D01*
X122189807Y-79308857D01*
X122189802Y-79308855D01*
X122044001Y-79277865D01*
X122004646Y-79269500D01*
X121815354Y-79269500D01*
X121782897Y-79276398D01*
X121630197Y-79308855D01*
X121630192Y-79308857D01*
X121457270Y-79385848D01*
X121457265Y-79385851D01*
X121304129Y-79497111D01*
X121177466Y-79637785D01*
X121082821Y-79801715D01*
X121082818Y-79801722D01*
X121024327Y-79981740D01*
X121024326Y-79981744D01*
X121004540Y-80170000D01*
X39800500Y-80170000D01*
X39800500Y-78930000D01*
X130753179Y-78930000D01*
X130772424Y-79149976D01*
X130772426Y-79149986D01*
X130829575Y-79363270D01*
X130829580Y-79363284D01*
X130922898Y-79563405D01*
X130922901Y-79563411D01*
X130968258Y-79628187D01*
X130968259Y-79628188D01*
X131635096Y-78961350D01*
X131635051Y-78961898D01*
X131666266Y-79085162D01*
X131735813Y-79191612D01*
X131836157Y-79269713D01*
X131956422Y-79311000D01*
X131992553Y-79311000D01*
X131321810Y-79981740D01*
X131386590Y-80027099D01*
X131386592Y-80027100D01*
X131586715Y-80120419D01*
X131586729Y-80120424D01*
X131800013Y-80177573D01*
X131800023Y-80177575D01*
X132019999Y-80196821D01*
X132020001Y-80196821D01*
X132239976Y-80177575D01*
X132239986Y-80177573D01*
X132453270Y-80120424D01*
X132453284Y-80120419D01*
X132653407Y-80027100D01*
X132653417Y-80027094D01*
X132718188Y-79981741D01*
X132047448Y-79311000D01*
X132051569Y-79311000D01*
X132145421Y-79295339D01*
X132257251Y-79234820D01*
X132343371Y-79141269D01*
X132394448Y-79024823D01*
X132400105Y-78956552D01*
X133071741Y-79628188D01*
X133117094Y-79563417D01*
X133117095Y-79563416D01*
X133177340Y-79434219D01*
X133223512Y-79381780D01*
X133290706Y-79362627D01*
X133357587Y-79382842D01*
X133402105Y-79434218D01*
X133462466Y-79563662D01*
X133462468Y-79563666D01*
X133589170Y-79744615D01*
X133589175Y-79744621D01*
X133745378Y-79900824D01*
X133745384Y-79900829D01*
X133926333Y-80027531D01*
X133926335Y-80027532D01*
X133926338Y-80027534D01*
X134126550Y-80120894D01*
X134339932Y-80178070D01*
X134497123Y-80191822D01*
X134559998Y-80197323D01*
X134560000Y-80197323D01*
X134560002Y-80197323D01*
X134615017Y-80192509D01*
X134780068Y-80178070D01*
X134993450Y-80120894D01*
X135193662Y-80027534D01*
X135374620Y-79900826D01*
X135530826Y-79744620D01*
X135657534Y-79563662D01*
X135717618Y-79434811D01*
X135763790Y-79382371D01*
X135830983Y-79363219D01*
X135897865Y-79383435D01*
X135942382Y-79434811D01*
X136002464Y-79563658D01*
X136002468Y-79563666D01*
X136129170Y-79744615D01*
X136129175Y-79744621D01*
X136285378Y-79900824D01*
X136285384Y-79900829D01*
X136466333Y-80027531D01*
X136466335Y-80027532D01*
X136466338Y-80027534D01*
X136666550Y-80120894D01*
X136879932Y-80178070D01*
X137037123Y-80191822D01*
X137099998Y-80197323D01*
X137100000Y-80197323D01*
X137100002Y-80197323D01*
X137155017Y-80192509D01*
X137320068Y-80178070D01*
X137533450Y-80120894D01*
X137733662Y-80027534D01*
X137914620Y-79900826D01*
X138070826Y-79744620D01*
X138197534Y-79563662D01*
X138257618Y-79434811D01*
X138303790Y-79382371D01*
X138370983Y-79363219D01*
X138437865Y-79383435D01*
X138482382Y-79434811D01*
X138542464Y-79563658D01*
X138542468Y-79563666D01*
X138669170Y-79744615D01*
X138669175Y-79744621D01*
X138825378Y-79900824D01*
X138825384Y-79900829D01*
X139006333Y-80027531D01*
X139006335Y-80027532D01*
X139006338Y-80027534D01*
X139206550Y-80120894D01*
X139419932Y-80178070D01*
X139577123Y-80191822D01*
X139639998Y-80197323D01*
X139640000Y-80197323D01*
X139640002Y-80197323D01*
X139695017Y-80192509D01*
X139860068Y-80178070D01*
X140073450Y-80120894D01*
X140273662Y-80027534D01*
X140454620Y-79900826D01*
X140610826Y-79744620D01*
X140737534Y-79563662D01*
X140797618Y-79434811D01*
X140843790Y-79382371D01*
X140910983Y-79363219D01*
X140977865Y-79383435D01*
X141022382Y-79434811D01*
X141082464Y-79563658D01*
X141082468Y-79563666D01*
X141209170Y-79744615D01*
X141209175Y-79744621D01*
X141365378Y-79900824D01*
X141365384Y-79900829D01*
X141546333Y-80027531D01*
X141546335Y-80027532D01*
X141546338Y-80027534D01*
X141746550Y-80120894D01*
X141959932Y-80178070D01*
X142117123Y-80191822D01*
X142179998Y-80197323D01*
X142180000Y-80197323D01*
X142180002Y-80197323D01*
X142235017Y-80192509D01*
X142400068Y-80178070D01*
X142613450Y-80120894D01*
X142813662Y-80027534D01*
X142994620Y-79900826D01*
X143150826Y-79744620D01*
X143277534Y-79563662D01*
X143337618Y-79434811D01*
X143383790Y-79382371D01*
X143450983Y-79363219D01*
X143517865Y-79383435D01*
X143562382Y-79434811D01*
X143622464Y-79563658D01*
X143622468Y-79563666D01*
X143749170Y-79744615D01*
X143749175Y-79744621D01*
X143905378Y-79900824D01*
X143905384Y-79900829D01*
X144086333Y-80027531D01*
X144086335Y-80027532D01*
X144086338Y-80027534D01*
X144286550Y-80120894D01*
X144499932Y-80178070D01*
X144657123Y-80191822D01*
X144719998Y-80197323D01*
X144720000Y-80197323D01*
X144720002Y-80197323D01*
X144775017Y-80192509D01*
X144940068Y-80178070D01*
X145153450Y-80120894D01*
X145353662Y-80027534D01*
X145534620Y-79900826D01*
X145690826Y-79744620D01*
X145817534Y-79563662D01*
X145877618Y-79434811D01*
X145923790Y-79382371D01*
X145990983Y-79363219D01*
X146057865Y-79383435D01*
X146102382Y-79434811D01*
X146162464Y-79563658D01*
X146162468Y-79563666D01*
X146289170Y-79744615D01*
X146289175Y-79744621D01*
X146445378Y-79900824D01*
X146445384Y-79900829D01*
X146626333Y-80027531D01*
X146626335Y-80027532D01*
X146626338Y-80027534D01*
X146826550Y-80120894D01*
X147039932Y-80178070D01*
X147197123Y-80191822D01*
X147259998Y-80197323D01*
X147260000Y-80197323D01*
X147260002Y-80197323D01*
X147315017Y-80192509D01*
X147480068Y-80178070D01*
X147693450Y-80120894D01*
X147893662Y-80027534D01*
X148074620Y-79900826D01*
X148230826Y-79744620D01*
X148357534Y-79563662D01*
X148417618Y-79434811D01*
X148463790Y-79382371D01*
X148530983Y-79363219D01*
X148597865Y-79383435D01*
X148642382Y-79434811D01*
X148702464Y-79563658D01*
X148702468Y-79563666D01*
X148829170Y-79744615D01*
X148829175Y-79744621D01*
X148985378Y-79900824D01*
X148985384Y-79900829D01*
X149166333Y-80027531D01*
X149166335Y-80027532D01*
X149166338Y-80027534D01*
X149366550Y-80120894D01*
X149579932Y-80178070D01*
X149737123Y-80191822D01*
X149799998Y-80197323D01*
X149800000Y-80197323D01*
X149800002Y-80197323D01*
X149855017Y-80192509D01*
X150020068Y-80178070D01*
X150233450Y-80120894D01*
X150433662Y-80027534D01*
X150614620Y-79900826D01*
X150770826Y-79744620D01*
X150897534Y-79563662D01*
X150957618Y-79434811D01*
X151003790Y-79382371D01*
X151070983Y-79363219D01*
X151137865Y-79383435D01*
X151182382Y-79434811D01*
X151242464Y-79563658D01*
X151242468Y-79563666D01*
X151369170Y-79744615D01*
X151369175Y-79744621D01*
X151525378Y-79900824D01*
X151525384Y-79900829D01*
X151706333Y-80027531D01*
X151706335Y-80027532D01*
X151706338Y-80027534D01*
X151906550Y-80120894D01*
X152119932Y-80178070D01*
X152277123Y-80191822D01*
X152339998Y-80197323D01*
X152340000Y-80197323D01*
X152340002Y-80197323D01*
X152395017Y-80192509D01*
X152560068Y-80178070D01*
X152773450Y-80120894D01*
X152973662Y-80027534D01*
X153154620Y-79900826D01*
X153310826Y-79744620D01*
X153437534Y-79563662D01*
X153497618Y-79434811D01*
X153543790Y-79382371D01*
X153610983Y-79363219D01*
X153677865Y-79383435D01*
X153722382Y-79434811D01*
X153782464Y-79563658D01*
X153782468Y-79563666D01*
X153909170Y-79744615D01*
X153909175Y-79744621D01*
X154065378Y-79900824D01*
X154065384Y-79900829D01*
X154246333Y-80027531D01*
X154246335Y-80027532D01*
X154246338Y-80027534D01*
X154446550Y-80120894D01*
X154659932Y-80178070D01*
X154817123Y-80191822D01*
X154879998Y-80197323D01*
X154880000Y-80197323D01*
X154880002Y-80197323D01*
X154935017Y-80192509D01*
X155100068Y-80178070D01*
X155313450Y-80120894D01*
X155513662Y-80027534D01*
X155694620Y-79900826D01*
X155850826Y-79744620D01*
X155977534Y-79563662D01*
X156037618Y-79434811D01*
X156083790Y-79382371D01*
X156150983Y-79363219D01*
X156217865Y-79383435D01*
X156262382Y-79434811D01*
X156322464Y-79563658D01*
X156322468Y-79563666D01*
X156449170Y-79744615D01*
X156449175Y-79744621D01*
X156605378Y-79900824D01*
X156605384Y-79900829D01*
X156786333Y-80027531D01*
X156786335Y-80027532D01*
X156786338Y-80027534D01*
X156986550Y-80120894D01*
X157199932Y-80178070D01*
X157357123Y-80191822D01*
X157419998Y-80197323D01*
X157420000Y-80197323D01*
X157420002Y-80197323D01*
X157475017Y-80192509D01*
X157640068Y-80178070D01*
X157853450Y-80120894D01*
X158053662Y-80027534D01*
X158234620Y-79900826D01*
X158390826Y-79744620D01*
X158517534Y-79563662D01*
X158577618Y-79434811D01*
X158623790Y-79382371D01*
X158690983Y-79363219D01*
X158757865Y-79383435D01*
X158802382Y-79434811D01*
X158862464Y-79563658D01*
X158862468Y-79563666D01*
X158989170Y-79744615D01*
X158989175Y-79744621D01*
X159145378Y-79900824D01*
X159145384Y-79900829D01*
X159326333Y-80027531D01*
X159326335Y-80027532D01*
X159326338Y-80027534D01*
X159526550Y-80120894D01*
X159739932Y-80178070D01*
X159897123Y-80191822D01*
X159959998Y-80197323D01*
X159960000Y-80197323D01*
X159960002Y-80197323D01*
X160015017Y-80192509D01*
X160180068Y-80178070D01*
X160393450Y-80120894D01*
X160593662Y-80027534D01*
X160774620Y-79900826D01*
X160930826Y-79744620D01*
X161057534Y-79563662D01*
X161150894Y-79363450D01*
X161208070Y-79150068D01*
X161227323Y-78930000D01*
X161224532Y-78898102D01*
X161213748Y-78774838D01*
X161208070Y-78709932D01*
X161150894Y-78496550D01*
X161057534Y-78296339D01*
X160930826Y-78115380D01*
X160774620Y-77959174D01*
X160774616Y-77959171D01*
X160774615Y-77959170D01*
X160593666Y-77832468D01*
X160593662Y-77832466D01*
X160593660Y-77832465D01*
X160393450Y-77739106D01*
X160393447Y-77739105D01*
X160393445Y-77739104D01*
X160180070Y-77681930D01*
X160180062Y-77681929D01*
X159960002Y-77662677D01*
X159959998Y-77662677D01*
X159739937Y-77681929D01*
X159739929Y-77681930D01*
X159526554Y-77739104D01*
X159526548Y-77739107D01*
X159326340Y-77832465D01*
X159326338Y-77832466D01*
X159145377Y-77959175D01*
X158989175Y-78115377D01*
X158862466Y-78296338D01*
X158862465Y-78296340D01*
X158802382Y-78425189D01*
X158756209Y-78477628D01*
X158689016Y-78496780D01*
X158622135Y-78476564D01*
X158577618Y-78425189D01*
X158517651Y-78296590D01*
X158517534Y-78296339D01*
X158390826Y-78115380D01*
X158234620Y-77959174D01*
X158234616Y-77959171D01*
X158234615Y-77959170D01*
X158053666Y-77832468D01*
X158053662Y-77832466D01*
X158053660Y-77832465D01*
X157853450Y-77739106D01*
X157853447Y-77739105D01*
X157853445Y-77739104D01*
X157640070Y-77681930D01*
X157640062Y-77681929D01*
X157420002Y-77662677D01*
X157419998Y-77662677D01*
X157199937Y-77681929D01*
X157199929Y-77681930D01*
X156986554Y-77739104D01*
X156986548Y-77739107D01*
X156786340Y-77832465D01*
X156786338Y-77832466D01*
X156605377Y-77959175D01*
X156449175Y-78115377D01*
X156322466Y-78296338D01*
X156322465Y-78296340D01*
X156262382Y-78425189D01*
X156216209Y-78477628D01*
X156149016Y-78496780D01*
X156082135Y-78476564D01*
X156037618Y-78425189D01*
X155977651Y-78296590D01*
X155977534Y-78296339D01*
X155850826Y-78115380D01*
X155694620Y-77959174D01*
X155694616Y-77959171D01*
X155694615Y-77959170D01*
X155513666Y-77832468D01*
X155513662Y-77832466D01*
X155513660Y-77832465D01*
X155313450Y-77739106D01*
X155313447Y-77739105D01*
X155313445Y-77739104D01*
X155100070Y-77681930D01*
X155100062Y-77681929D01*
X154880002Y-77662677D01*
X154879998Y-77662677D01*
X154659937Y-77681929D01*
X154659929Y-77681930D01*
X154446554Y-77739104D01*
X154446548Y-77739107D01*
X154246340Y-77832465D01*
X154246338Y-77832466D01*
X154065377Y-77959175D01*
X153909175Y-78115377D01*
X153782466Y-78296338D01*
X153782465Y-78296340D01*
X153722382Y-78425189D01*
X153676209Y-78477628D01*
X153609016Y-78496780D01*
X153542135Y-78476564D01*
X153497618Y-78425189D01*
X153437651Y-78296590D01*
X153437534Y-78296339D01*
X153310826Y-78115380D01*
X153154620Y-77959174D01*
X153154616Y-77959171D01*
X153154615Y-77959170D01*
X152973666Y-77832468D01*
X152973662Y-77832466D01*
X152973660Y-77832465D01*
X152773450Y-77739106D01*
X152773447Y-77739105D01*
X152773445Y-77739104D01*
X152560070Y-77681930D01*
X152560062Y-77681929D01*
X152340002Y-77662677D01*
X152339998Y-77662677D01*
X152119937Y-77681929D01*
X152119929Y-77681930D01*
X151906554Y-77739104D01*
X151906548Y-77739107D01*
X151706340Y-77832465D01*
X151706338Y-77832466D01*
X151525377Y-77959175D01*
X151369175Y-78115377D01*
X151242466Y-78296338D01*
X151242465Y-78296340D01*
X151182382Y-78425189D01*
X151136209Y-78477628D01*
X151069016Y-78496780D01*
X151002135Y-78476564D01*
X150957618Y-78425189D01*
X150897651Y-78296590D01*
X150897534Y-78296339D01*
X150770826Y-78115380D01*
X150614620Y-77959174D01*
X150614616Y-77959171D01*
X150614615Y-77959170D01*
X150433666Y-77832468D01*
X150433662Y-77832466D01*
X150433660Y-77832465D01*
X150233450Y-77739106D01*
X150233447Y-77739105D01*
X150233445Y-77739104D01*
X150020070Y-77681930D01*
X150020062Y-77681929D01*
X149800002Y-77662677D01*
X149799998Y-77662677D01*
X149579937Y-77681929D01*
X149579929Y-77681930D01*
X149366554Y-77739104D01*
X149366548Y-77739107D01*
X149166340Y-77832465D01*
X149166338Y-77832466D01*
X148985377Y-77959175D01*
X148829175Y-78115377D01*
X148702466Y-78296338D01*
X148702465Y-78296340D01*
X148642382Y-78425189D01*
X148596209Y-78477628D01*
X148529016Y-78496780D01*
X148462135Y-78476564D01*
X148417618Y-78425189D01*
X148357651Y-78296590D01*
X148357534Y-78296339D01*
X148230826Y-78115380D01*
X148074620Y-77959174D01*
X148074616Y-77959171D01*
X148074615Y-77959170D01*
X147893666Y-77832468D01*
X147893662Y-77832466D01*
X147893660Y-77832465D01*
X147693450Y-77739106D01*
X147693447Y-77739105D01*
X147693445Y-77739104D01*
X147480070Y-77681930D01*
X147480062Y-77681929D01*
X147260002Y-77662677D01*
X147259998Y-77662677D01*
X147039937Y-77681929D01*
X147039929Y-77681930D01*
X146826554Y-77739104D01*
X146826548Y-77739107D01*
X146626340Y-77832465D01*
X146626338Y-77832466D01*
X146445377Y-77959175D01*
X146289175Y-78115377D01*
X146162466Y-78296338D01*
X146162465Y-78296340D01*
X146102382Y-78425189D01*
X146056209Y-78477628D01*
X145989016Y-78496780D01*
X145922135Y-78476564D01*
X145877618Y-78425189D01*
X145817651Y-78296590D01*
X145817534Y-78296339D01*
X145690826Y-78115380D01*
X145534620Y-77959174D01*
X145534616Y-77959171D01*
X145534615Y-77959170D01*
X145353666Y-77832468D01*
X145353662Y-77832466D01*
X145353660Y-77832465D01*
X145153450Y-77739106D01*
X145153447Y-77739105D01*
X145153445Y-77739104D01*
X144940070Y-77681930D01*
X144940062Y-77681929D01*
X144720002Y-77662677D01*
X144719998Y-77662677D01*
X144499937Y-77681929D01*
X144499929Y-77681930D01*
X144286554Y-77739104D01*
X144286548Y-77739107D01*
X144086340Y-77832465D01*
X144086338Y-77832466D01*
X143905377Y-77959175D01*
X143749175Y-78115377D01*
X143622466Y-78296338D01*
X143622465Y-78296340D01*
X143562382Y-78425189D01*
X143516209Y-78477628D01*
X143449016Y-78496780D01*
X143382135Y-78476564D01*
X143337618Y-78425189D01*
X143277651Y-78296590D01*
X143277534Y-78296339D01*
X143150826Y-78115380D01*
X142994620Y-77959174D01*
X142994616Y-77959171D01*
X142994615Y-77959170D01*
X142813666Y-77832468D01*
X142813662Y-77832466D01*
X142813660Y-77832465D01*
X142613450Y-77739106D01*
X142613447Y-77739105D01*
X142613445Y-77739104D01*
X142400070Y-77681930D01*
X142400062Y-77681929D01*
X142180002Y-77662677D01*
X142179998Y-77662677D01*
X141959937Y-77681929D01*
X141959929Y-77681930D01*
X141746554Y-77739104D01*
X141746548Y-77739107D01*
X141546340Y-77832465D01*
X141546338Y-77832466D01*
X141365377Y-77959175D01*
X141209175Y-78115377D01*
X141082466Y-78296338D01*
X141082465Y-78296340D01*
X141022382Y-78425189D01*
X140976209Y-78477628D01*
X140909016Y-78496780D01*
X140842135Y-78476564D01*
X140797618Y-78425189D01*
X140737651Y-78296590D01*
X140737534Y-78296339D01*
X140610826Y-78115380D01*
X140454620Y-77959174D01*
X140454616Y-77959171D01*
X140454615Y-77959170D01*
X140273666Y-77832468D01*
X140273662Y-77832466D01*
X140273660Y-77832465D01*
X140073450Y-77739106D01*
X140073447Y-77739105D01*
X140073445Y-77739104D01*
X139860070Y-77681930D01*
X139860062Y-77681929D01*
X139640002Y-77662677D01*
X139639998Y-77662677D01*
X139419937Y-77681929D01*
X139419929Y-77681930D01*
X139206554Y-77739104D01*
X139206548Y-77739107D01*
X139006340Y-77832465D01*
X139006338Y-77832466D01*
X138825377Y-77959175D01*
X138669175Y-78115377D01*
X138542466Y-78296338D01*
X138542465Y-78296340D01*
X138482382Y-78425189D01*
X138436209Y-78477628D01*
X138369016Y-78496780D01*
X138302135Y-78476564D01*
X138257618Y-78425189D01*
X138197651Y-78296590D01*
X138197534Y-78296339D01*
X138070826Y-78115380D01*
X137914620Y-77959174D01*
X137914616Y-77959171D01*
X137914615Y-77959170D01*
X137733666Y-77832468D01*
X137733662Y-77832466D01*
X137733660Y-77832465D01*
X137533450Y-77739106D01*
X137533447Y-77739105D01*
X137533445Y-77739104D01*
X137320070Y-77681930D01*
X137320062Y-77681929D01*
X137100002Y-77662677D01*
X137099998Y-77662677D01*
X136879937Y-77681929D01*
X136879929Y-77681930D01*
X136666554Y-77739104D01*
X136666548Y-77739107D01*
X136466340Y-77832465D01*
X136466338Y-77832466D01*
X136285377Y-77959175D01*
X136129175Y-78115377D01*
X136002466Y-78296338D01*
X136002465Y-78296340D01*
X135942382Y-78425189D01*
X135896209Y-78477628D01*
X135829016Y-78496780D01*
X135762135Y-78476564D01*
X135717618Y-78425189D01*
X135657651Y-78296590D01*
X135657534Y-78296339D01*
X135530826Y-78115380D01*
X135374620Y-77959174D01*
X135374616Y-77959171D01*
X135374615Y-77959170D01*
X135193666Y-77832468D01*
X135193662Y-77832466D01*
X135193660Y-77832465D01*
X134993450Y-77739106D01*
X134993447Y-77739105D01*
X134993445Y-77739104D01*
X134780070Y-77681930D01*
X134780062Y-77681929D01*
X134560002Y-77662677D01*
X134559998Y-77662677D01*
X134339937Y-77681929D01*
X134339929Y-77681930D01*
X134126554Y-77739104D01*
X134126548Y-77739107D01*
X133926340Y-77832465D01*
X133926338Y-77832466D01*
X133745377Y-77959175D01*
X133589175Y-78115377D01*
X133462467Y-78296337D01*
X133402105Y-78425782D01*
X133355932Y-78478221D01*
X133288738Y-78497372D01*
X133221857Y-78477156D01*
X133177341Y-78425780D01*
X133117098Y-78296589D01*
X133117097Y-78296587D01*
X133071741Y-78231811D01*
X133071740Y-78231810D01*
X132404903Y-78898648D01*
X132404949Y-78898102D01*
X132373734Y-78774838D01*
X132304187Y-78668388D01*
X132203843Y-78590287D01*
X132083578Y-78549000D01*
X132047448Y-78549000D01*
X132718188Y-77878259D01*
X132718187Y-77878258D01*
X132653411Y-77832901D01*
X132653405Y-77832898D01*
X132453284Y-77739580D01*
X132453270Y-77739575D01*
X132239986Y-77682426D01*
X132239976Y-77682424D01*
X132020001Y-77663179D01*
X132019999Y-77663179D01*
X131800023Y-77682424D01*
X131800013Y-77682426D01*
X131586729Y-77739575D01*
X131586720Y-77739579D01*
X131386590Y-77832901D01*
X131321811Y-77878258D01*
X131992553Y-78549000D01*
X131988431Y-78549000D01*
X131894579Y-78564661D01*
X131782749Y-78625180D01*
X131696629Y-78718731D01*
X131645552Y-78835177D01*
X131639894Y-78903447D01*
X130968258Y-78231811D01*
X130922901Y-78296590D01*
X130829579Y-78496720D01*
X130829575Y-78496729D01*
X130772426Y-78710013D01*
X130772424Y-78710023D01*
X130753179Y-78929999D01*
X130753179Y-78930000D01*
X39800500Y-78930000D01*
X39800500Y-75724500D01*
X39820185Y-75657461D01*
X39872989Y-75611706D01*
X39924500Y-75600500D01*
X239700900Y-75600500D01*
X239767939Y-75620185D01*
G37*
%TD.AperFunction*%
%TD*%
M02*
