%TF.GenerationSoftware,KiCad,Pcbnew,7.0.10*%
%TF.CreationDate,2024-03-06T15:32:19-05:00*%
%TF.ProjectId,Hall_effect_sensors,48616c6c-5f65-4666-9665-63745f73656e,rev?*%
%TF.SameCoordinates,Original*%
%TF.FileFunction,Legend,Bot*%
%TF.FilePolarity,Positive*%
%FSLAX46Y46*%
G04 Gerber Fmt 4.6, Leading zero omitted, Abs format (unit mm)*
G04 Created by KiCad (PCBNEW 7.0.10) date 2024-03-06 15:32:19*
%MOMM*%
%LPD*%
G01*
G04 APERTURE LIST*
%ADD10C,0.300000*%
G04 APERTURE END LIST*
D10*
X97520225Y-89589171D02*
X98377368Y-89589171D01*
X97948796Y-88089171D02*
X97948796Y-89589171D01*
X99448796Y-88160600D02*
X99305939Y-88089171D01*
X99305939Y-88089171D02*
X99020225Y-88089171D01*
X99020225Y-88089171D02*
X98877367Y-88160600D01*
X98877367Y-88160600D02*
X98805939Y-88303457D01*
X98805939Y-88303457D02*
X98805939Y-88874885D01*
X98805939Y-88874885D02*
X98877367Y-89017742D01*
X98877367Y-89017742D02*
X99020225Y-89089171D01*
X99020225Y-89089171D02*
X99305939Y-89089171D01*
X99305939Y-89089171D02*
X99448796Y-89017742D01*
X99448796Y-89017742D02*
X99520225Y-88874885D01*
X99520225Y-88874885D02*
X99520225Y-88732028D01*
X99520225Y-88732028D02*
X98805939Y-88589171D01*
X100805939Y-88089171D02*
X100805939Y-88874885D01*
X100805939Y-88874885D02*
X100734510Y-89017742D01*
X100734510Y-89017742D02*
X100591653Y-89089171D01*
X100591653Y-89089171D02*
X100305939Y-89089171D01*
X100305939Y-89089171D02*
X100163081Y-89017742D01*
X100805939Y-88160600D02*
X100663081Y-88089171D01*
X100663081Y-88089171D02*
X100305939Y-88089171D01*
X100305939Y-88089171D02*
X100163081Y-88160600D01*
X100163081Y-88160600D02*
X100091653Y-88303457D01*
X100091653Y-88303457D02*
X100091653Y-88446314D01*
X100091653Y-88446314D02*
X100163081Y-88589171D01*
X100163081Y-88589171D02*
X100305939Y-88660600D01*
X100305939Y-88660600D02*
X100663081Y-88660600D01*
X100663081Y-88660600D02*
X100805939Y-88732028D01*
X101520224Y-88089171D02*
X101520224Y-89089171D01*
X101520224Y-88946314D02*
X101591653Y-89017742D01*
X101591653Y-89017742D02*
X101734510Y-89089171D01*
X101734510Y-89089171D02*
X101948796Y-89089171D01*
X101948796Y-89089171D02*
X102091653Y-89017742D01*
X102091653Y-89017742D02*
X102163082Y-88874885D01*
X102163082Y-88874885D02*
X102163082Y-88089171D01*
X102163082Y-88874885D02*
X102234510Y-89017742D01*
X102234510Y-89017742D02*
X102377367Y-89089171D01*
X102377367Y-89089171D02*
X102591653Y-89089171D01*
X102591653Y-89089171D02*
X102734510Y-89017742D01*
X102734510Y-89017742D02*
X102805939Y-88874885D01*
X102805939Y-88874885D02*
X102805939Y-88089171D01*
X104663081Y-88089171D02*
X104663081Y-89589171D01*
X104663081Y-89589171D02*
X105163081Y-88517742D01*
X105163081Y-88517742D02*
X105663081Y-89589171D01*
X105663081Y-89589171D02*
X105663081Y-88089171D01*
X106948796Y-88160600D02*
X106805939Y-88089171D01*
X106805939Y-88089171D02*
X106520225Y-88089171D01*
X106520225Y-88089171D02*
X106377367Y-88160600D01*
X106377367Y-88160600D02*
X106305939Y-88303457D01*
X106305939Y-88303457D02*
X106305939Y-88874885D01*
X106305939Y-88874885D02*
X106377367Y-89017742D01*
X106377367Y-89017742D02*
X106520225Y-89089171D01*
X106520225Y-89089171D02*
X106805939Y-89089171D01*
X106805939Y-89089171D02*
X106948796Y-89017742D01*
X106948796Y-89017742D02*
X107020225Y-88874885D01*
X107020225Y-88874885D02*
X107020225Y-88732028D01*
X107020225Y-88732028D02*
X106305939Y-88589171D01*
X107663081Y-88089171D02*
X107663081Y-89089171D01*
X107663081Y-88946314D02*
X107734510Y-89017742D01*
X107734510Y-89017742D02*
X107877367Y-89089171D01*
X107877367Y-89089171D02*
X108091653Y-89089171D01*
X108091653Y-89089171D02*
X108234510Y-89017742D01*
X108234510Y-89017742D02*
X108305939Y-88874885D01*
X108305939Y-88874885D02*
X108305939Y-88089171D01*
X108305939Y-88874885D02*
X108377367Y-89017742D01*
X108377367Y-89017742D02*
X108520224Y-89089171D01*
X108520224Y-89089171D02*
X108734510Y-89089171D01*
X108734510Y-89089171D02*
X108877367Y-89017742D01*
X108877367Y-89017742D02*
X108948796Y-88874885D01*
X108948796Y-88874885D02*
X108948796Y-88089171D01*
X109663081Y-88089171D02*
X109663081Y-89589171D01*
X109663081Y-89017742D02*
X109805939Y-89089171D01*
X109805939Y-89089171D02*
X110091653Y-89089171D01*
X110091653Y-89089171D02*
X110234510Y-89017742D01*
X110234510Y-89017742D02*
X110305939Y-88946314D01*
X110305939Y-88946314D02*
X110377367Y-88803457D01*
X110377367Y-88803457D02*
X110377367Y-88374885D01*
X110377367Y-88374885D02*
X110305939Y-88232028D01*
X110305939Y-88232028D02*
X110234510Y-88160600D01*
X110234510Y-88160600D02*
X110091653Y-88089171D01*
X110091653Y-88089171D02*
X109805939Y-88089171D01*
X109805939Y-88089171D02*
X109663081Y-88160600D01*
X111591653Y-88160600D02*
X111448796Y-88089171D01*
X111448796Y-88089171D02*
X111163082Y-88089171D01*
X111163082Y-88089171D02*
X111020224Y-88160600D01*
X111020224Y-88160600D02*
X110948796Y-88303457D01*
X110948796Y-88303457D02*
X110948796Y-88874885D01*
X110948796Y-88874885D02*
X111020224Y-89017742D01*
X111020224Y-89017742D02*
X111163082Y-89089171D01*
X111163082Y-89089171D02*
X111448796Y-89089171D01*
X111448796Y-89089171D02*
X111591653Y-89017742D01*
X111591653Y-89017742D02*
X111663082Y-88874885D01*
X111663082Y-88874885D02*
X111663082Y-88732028D01*
X111663082Y-88732028D02*
X110948796Y-88589171D01*
X112305938Y-88089171D02*
X112305938Y-89089171D01*
X112305938Y-88803457D02*
X112377367Y-88946314D01*
X112377367Y-88946314D02*
X112448796Y-89017742D01*
X112448796Y-89017742D02*
X112591653Y-89089171D01*
X112591653Y-89089171D02*
X112734510Y-89089171D01*
X113234509Y-88232028D02*
X113305938Y-88160600D01*
X113305938Y-88160600D02*
X113234509Y-88089171D01*
X113234509Y-88089171D02*
X113163081Y-88160600D01*
X113163081Y-88160600D02*
X113234509Y-88232028D01*
X113234509Y-88232028D02*
X113234509Y-88089171D01*
X113234509Y-89017742D02*
X113305938Y-88946314D01*
X113305938Y-88946314D02*
X113234509Y-88874885D01*
X113234509Y-88874885D02*
X113163081Y-88946314D01*
X113163081Y-88946314D02*
X113234509Y-89017742D01*
X113234509Y-89017742D02*
X113234509Y-88874885D01*
X98591653Y-85674171D02*
X98091653Y-86388457D01*
X97734510Y-85674171D02*
X97734510Y-87174171D01*
X97734510Y-87174171D02*
X98305939Y-87174171D01*
X98305939Y-87174171D02*
X98448796Y-87102742D01*
X98448796Y-87102742D02*
X98520225Y-87031314D01*
X98520225Y-87031314D02*
X98591653Y-86888457D01*
X98591653Y-86888457D02*
X98591653Y-86674171D01*
X98591653Y-86674171D02*
X98520225Y-86531314D01*
X98520225Y-86531314D02*
X98448796Y-86459885D01*
X98448796Y-86459885D02*
X98305939Y-86388457D01*
X98305939Y-86388457D02*
X97734510Y-86388457D01*
X99877368Y-86674171D02*
X99877368Y-85674171D01*
X99234510Y-86674171D02*
X99234510Y-85888457D01*
X99234510Y-85888457D02*
X99305939Y-85745600D01*
X99305939Y-85745600D02*
X99448796Y-85674171D01*
X99448796Y-85674171D02*
X99663082Y-85674171D01*
X99663082Y-85674171D02*
X99805939Y-85745600D01*
X99805939Y-85745600D02*
X99877368Y-85817028D01*
X100448796Y-85674171D02*
X101234511Y-86674171D01*
X100448796Y-86674171D02*
X101234511Y-85674171D01*
X101805939Y-85674171D02*
X101805939Y-86674171D01*
X101805939Y-87174171D02*
X101734511Y-87102742D01*
X101734511Y-87102742D02*
X101805939Y-87031314D01*
X101805939Y-87031314D02*
X101877368Y-87102742D01*
X101877368Y-87102742D02*
X101805939Y-87174171D01*
X101805939Y-87174171D02*
X101805939Y-87031314D01*
X102520225Y-86674171D02*
X102520225Y-85674171D01*
X102520225Y-86531314D02*
X102591654Y-86602742D01*
X102591654Y-86602742D02*
X102734511Y-86674171D01*
X102734511Y-86674171D02*
X102948797Y-86674171D01*
X102948797Y-86674171D02*
X103091654Y-86602742D01*
X103091654Y-86602742D02*
X103163083Y-86459885D01*
X103163083Y-86459885D02*
X103163083Y-85674171D01*
X105734511Y-85674171D02*
X105020225Y-85674171D01*
X105020225Y-85674171D02*
X105020225Y-87174171D01*
X106234511Y-85674171D02*
X106234511Y-86674171D01*
X106234511Y-87174171D02*
X106163083Y-87102742D01*
X106163083Y-87102742D02*
X106234511Y-87031314D01*
X106234511Y-87031314D02*
X106305940Y-87102742D01*
X106305940Y-87102742D02*
X106234511Y-87174171D01*
X106234511Y-87174171D02*
X106234511Y-87031314D01*
X107020226Y-85745600D02*
X107020226Y-85674171D01*
X107020226Y-85674171D02*
X106948797Y-85531314D01*
X106948797Y-85531314D02*
X106877369Y-85459885D01*
X108663083Y-87174171D02*
X109663083Y-87174171D01*
X109663083Y-87174171D02*
X108663083Y-85674171D01*
X108663083Y-85674171D02*
X109663083Y-85674171D01*
X110234511Y-85674171D02*
X110234511Y-87174171D01*
X110877369Y-85674171D02*
X110877369Y-86459885D01*
X110877369Y-86459885D02*
X110805940Y-86602742D01*
X110805940Y-86602742D02*
X110663083Y-86674171D01*
X110663083Y-86674171D02*
X110448797Y-86674171D01*
X110448797Y-86674171D02*
X110305940Y-86602742D01*
X110305940Y-86602742D02*
X110234511Y-86531314D01*
X112234512Y-86674171D02*
X112234512Y-85674171D01*
X111591654Y-86674171D02*
X111591654Y-85888457D01*
X111591654Y-85888457D02*
X111663083Y-85745600D01*
X111663083Y-85745600D02*
X111805940Y-85674171D01*
X111805940Y-85674171D02*
X112020226Y-85674171D01*
X112020226Y-85674171D02*
X112163083Y-85745600D01*
X112163083Y-85745600D02*
X112234512Y-85817028D01*
X113163083Y-85674171D02*
X113020226Y-85745600D01*
X113020226Y-85745600D02*
X112948797Y-85817028D01*
X112948797Y-85817028D02*
X112877369Y-85959885D01*
X112877369Y-85959885D02*
X112877369Y-86388457D01*
X112877369Y-86388457D02*
X112948797Y-86531314D01*
X112948797Y-86531314D02*
X113020226Y-86602742D01*
X113020226Y-86602742D02*
X113163083Y-86674171D01*
X113163083Y-86674171D02*
X113377369Y-86674171D01*
X113377369Y-86674171D02*
X113520226Y-86602742D01*
X113520226Y-86602742D02*
X113591655Y-86531314D01*
X113591655Y-86531314D02*
X113663083Y-86388457D01*
X113663083Y-86388457D02*
X113663083Y-85959885D01*
X113663083Y-85959885D02*
X113591655Y-85817028D01*
X113591655Y-85817028D02*
X113520226Y-85745600D01*
X113520226Y-85745600D02*
X113377369Y-85674171D01*
X113377369Y-85674171D02*
X113163083Y-85674171D01*
X114948798Y-85745600D02*
X114805940Y-85674171D01*
X114805940Y-85674171D02*
X114520226Y-85674171D01*
X114520226Y-85674171D02*
X114377369Y-85745600D01*
X114377369Y-85745600D02*
X114305940Y-85817028D01*
X114305940Y-85817028D02*
X114234512Y-85959885D01*
X114234512Y-85959885D02*
X114234512Y-86388457D01*
X114234512Y-86388457D02*
X114305940Y-86531314D01*
X114305940Y-86531314D02*
X114377369Y-86602742D01*
X114377369Y-86602742D02*
X114520226Y-86674171D01*
X114520226Y-86674171D02*
X114805940Y-86674171D01*
X114805940Y-86674171D02*
X114948798Y-86602742D01*
X115805940Y-85674171D02*
X115663083Y-85745600D01*
X115663083Y-85745600D02*
X115591654Y-85817028D01*
X115591654Y-85817028D02*
X115520226Y-85959885D01*
X115520226Y-85959885D02*
X115520226Y-86388457D01*
X115520226Y-86388457D02*
X115591654Y-86531314D01*
X115591654Y-86531314D02*
X115663083Y-86602742D01*
X115663083Y-86602742D02*
X115805940Y-86674171D01*
X115805940Y-86674171D02*
X116020226Y-86674171D01*
X116020226Y-86674171D02*
X116163083Y-86602742D01*
X116163083Y-86602742D02*
X116234512Y-86531314D01*
X116234512Y-86531314D02*
X116305940Y-86388457D01*
X116305940Y-86388457D02*
X116305940Y-85959885D01*
X116305940Y-85959885D02*
X116234512Y-85817028D01*
X116234512Y-85817028D02*
X116163083Y-85745600D01*
X116163083Y-85745600D02*
X116020226Y-85674171D01*
X116020226Y-85674171D02*
X115805940Y-85674171D01*
X116948797Y-86674171D02*
X116948797Y-85674171D01*
X116948797Y-86531314D02*
X117020226Y-86602742D01*
X117020226Y-86602742D02*
X117163083Y-86674171D01*
X117163083Y-86674171D02*
X117377369Y-86674171D01*
X117377369Y-86674171D02*
X117520226Y-86602742D01*
X117520226Y-86602742D02*
X117591655Y-86459885D01*
X117591655Y-86459885D02*
X117591655Y-85674171D01*
X118948798Y-86674171D02*
X118948798Y-85459885D01*
X118948798Y-85459885D02*
X118877369Y-85317028D01*
X118877369Y-85317028D02*
X118805940Y-85245600D01*
X118805940Y-85245600D02*
X118663083Y-85174171D01*
X118663083Y-85174171D02*
X118448798Y-85174171D01*
X118448798Y-85174171D02*
X118305940Y-85245600D01*
X118948798Y-85745600D02*
X118805940Y-85674171D01*
X118805940Y-85674171D02*
X118520226Y-85674171D01*
X118520226Y-85674171D02*
X118377369Y-85745600D01*
X118377369Y-85745600D02*
X118305940Y-85817028D01*
X118305940Y-85817028D02*
X118234512Y-85959885D01*
X118234512Y-85959885D02*
X118234512Y-86388457D01*
X118234512Y-86388457D02*
X118305940Y-86531314D01*
X118305940Y-86531314D02*
X118377369Y-86602742D01*
X118377369Y-86602742D02*
X118520226Y-86674171D01*
X118520226Y-86674171D02*
X118805940Y-86674171D01*
X118805940Y-86674171D02*
X118948798Y-86602742D01*
X121520226Y-85674171D02*
X120805940Y-85674171D01*
X120805940Y-85674171D02*
X120805940Y-87174171D01*
X122020226Y-85674171D02*
X122020226Y-86674171D01*
X122020226Y-87174171D02*
X121948798Y-87102742D01*
X121948798Y-87102742D02*
X122020226Y-87031314D01*
X122020226Y-87031314D02*
X122091655Y-87102742D01*
X122091655Y-87102742D02*
X122020226Y-87174171D01*
X122020226Y-87174171D02*
X122020226Y-87031314D01*
X97663082Y-83330600D02*
X97877368Y-83259171D01*
X97877368Y-83259171D02*
X98234510Y-83259171D01*
X98234510Y-83259171D02*
X98377368Y-83330600D01*
X98377368Y-83330600D02*
X98448796Y-83402028D01*
X98448796Y-83402028D02*
X98520225Y-83544885D01*
X98520225Y-83544885D02*
X98520225Y-83687742D01*
X98520225Y-83687742D02*
X98448796Y-83830600D01*
X98448796Y-83830600D02*
X98377368Y-83902028D01*
X98377368Y-83902028D02*
X98234510Y-83973457D01*
X98234510Y-83973457D02*
X97948796Y-84044885D01*
X97948796Y-84044885D02*
X97805939Y-84116314D01*
X97805939Y-84116314D02*
X97734510Y-84187742D01*
X97734510Y-84187742D02*
X97663082Y-84330600D01*
X97663082Y-84330600D02*
X97663082Y-84473457D01*
X97663082Y-84473457D02*
X97734510Y-84616314D01*
X97734510Y-84616314D02*
X97805939Y-84687742D01*
X97805939Y-84687742D02*
X97948796Y-84759171D01*
X97948796Y-84759171D02*
X98305939Y-84759171D01*
X98305939Y-84759171D02*
X98520225Y-84687742D01*
X99163081Y-83259171D02*
X99163081Y-84259171D01*
X99163081Y-84759171D02*
X99091653Y-84687742D01*
X99091653Y-84687742D02*
X99163081Y-84616314D01*
X99163081Y-84616314D02*
X99234510Y-84687742D01*
X99234510Y-84687742D02*
X99163081Y-84759171D01*
X99163081Y-84759171D02*
X99163081Y-84616314D01*
X100091653Y-83259171D02*
X99948796Y-83330600D01*
X99948796Y-83330600D02*
X99877367Y-83473457D01*
X99877367Y-83473457D02*
X99877367Y-84759171D01*
X100663081Y-83259171D02*
X100663081Y-84259171D01*
X100663081Y-84759171D02*
X100591653Y-84687742D01*
X100591653Y-84687742D02*
X100663081Y-84616314D01*
X100663081Y-84616314D02*
X100734510Y-84687742D01*
X100734510Y-84687742D02*
X100663081Y-84759171D01*
X100663081Y-84759171D02*
X100663081Y-84616314D01*
X101377367Y-84259171D02*
X101377367Y-83259171D01*
X101377367Y-84116314D02*
X101448796Y-84187742D01*
X101448796Y-84187742D02*
X101591653Y-84259171D01*
X101591653Y-84259171D02*
X101805939Y-84259171D01*
X101805939Y-84259171D02*
X101948796Y-84187742D01*
X101948796Y-84187742D02*
X102020225Y-84044885D01*
X102020225Y-84044885D02*
X102020225Y-83259171D01*
X104591653Y-83259171D02*
X103877367Y-83259171D01*
X103877367Y-83259171D02*
X103877367Y-84759171D01*
X105091653Y-83259171D02*
X105091653Y-84259171D01*
X105091653Y-84759171D02*
X105020225Y-84687742D01*
X105020225Y-84687742D02*
X105091653Y-84616314D01*
X105091653Y-84616314D02*
X105163082Y-84687742D01*
X105163082Y-84687742D02*
X105091653Y-84759171D01*
X105091653Y-84759171D02*
X105091653Y-84616314D01*
X105877368Y-83330600D02*
X105877368Y-83259171D01*
X105877368Y-83259171D02*
X105805939Y-83116314D01*
X105805939Y-83116314D02*
X105734511Y-83044885D01*
X108377368Y-83259171D02*
X107663082Y-83259171D01*
X107663082Y-83259171D02*
X107663082Y-84759171D01*
X108877368Y-83259171D02*
X108877368Y-84259171D01*
X108877368Y-84759171D02*
X108805940Y-84687742D01*
X108805940Y-84687742D02*
X108877368Y-84616314D01*
X108877368Y-84616314D02*
X108948797Y-84687742D01*
X108948797Y-84687742D02*
X108877368Y-84759171D01*
X108877368Y-84759171D02*
X108877368Y-84616314D01*
X110234512Y-83259171D02*
X110234512Y-84044885D01*
X110234512Y-84044885D02*
X110163083Y-84187742D01*
X110163083Y-84187742D02*
X110020226Y-84259171D01*
X110020226Y-84259171D02*
X109734512Y-84259171D01*
X109734512Y-84259171D02*
X109591654Y-84187742D01*
X110234512Y-83330600D02*
X110091654Y-83259171D01*
X110091654Y-83259171D02*
X109734512Y-83259171D01*
X109734512Y-83259171D02*
X109591654Y-83330600D01*
X109591654Y-83330600D02*
X109520226Y-83473457D01*
X109520226Y-83473457D02*
X109520226Y-83616314D01*
X109520226Y-83616314D02*
X109591654Y-83759171D01*
X109591654Y-83759171D02*
X109734512Y-83830600D01*
X109734512Y-83830600D02*
X110091654Y-83830600D01*
X110091654Y-83830600D02*
X110234512Y-83902028D01*
X110948797Y-84259171D02*
X110948797Y-83259171D01*
X110948797Y-84116314D02*
X111020226Y-84187742D01*
X111020226Y-84187742D02*
X111163083Y-84259171D01*
X111163083Y-84259171D02*
X111377369Y-84259171D01*
X111377369Y-84259171D02*
X111520226Y-84187742D01*
X111520226Y-84187742D02*
X111591655Y-84044885D01*
X111591655Y-84044885D02*
X111591655Y-83259171D01*
X112948798Y-84259171D02*
X112948798Y-83044885D01*
X112948798Y-83044885D02*
X112877369Y-82902028D01*
X112877369Y-82902028D02*
X112805940Y-82830600D01*
X112805940Y-82830600D02*
X112663083Y-82759171D01*
X112663083Y-82759171D02*
X112448798Y-82759171D01*
X112448798Y-82759171D02*
X112305940Y-82830600D01*
X112948798Y-83330600D02*
X112805940Y-83259171D01*
X112805940Y-83259171D02*
X112520226Y-83259171D01*
X112520226Y-83259171D02*
X112377369Y-83330600D01*
X112377369Y-83330600D02*
X112305940Y-83402028D01*
X112305940Y-83402028D02*
X112234512Y-83544885D01*
X112234512Y-83544885D02*
X112234512Y-83973457D01*
X112234512Y-83973457D02*
X112305940Y-84116314D01*
X112305940Y-84116314D02*
X112377369Y-84187742D01*
X112377369Y-84187742D02*
X112520226Y-84259171D01*
X112520226Y-84259171D02*
X112805940Y-84259171D01*
X112805940Y-84259171D02*
X112948798Y-84187742D01*
X114305941Y-83330600D02*
X114163083Y-83259171D01*
X114163083Y-83259171D02*
X113877369Y-83259171D01*
X113877369Y-83259171D02*
X113734512Y-83330600D01*
X113734512Y-83330600D02*
X113663083Y-83402028D01*
X113663083Y-83402028D02*
X113591655Y-83544885D01*
X113591655Y-83544885D02*
X113591655Y-83973457D01*
X113591655Y-83973457D02*
X113663083Y-84116314D01*
X113663083Y-84116314D02*
X113734512Y-84187742D01*
X113734512Y-84187742D02*
X113877369Y-84259171D01*
X113877369Y-84259171D02*
X114163083Y-84259171D01*
X114163083Y-84259171D02*
X114305941Y-84187742D01*
X114948797Y-83259171D02*
X114948797Y-84759171D01*
X115591655Y-83259171D02*
X115591655Y-84044885D01*
X115591655Y-84044885D02*
X115520226Y-84187742D01*
X115520226Y-84187742D02*
X115377369Y-84259171D01*
X115377369Y-84259171D02*
X115163083Y-84259171D01*
X115163083Y-84259171D02*
X115020226Y-84187742D01*
X115020226Y-84187742D02*
X114948797Y-84116314D01*
X116877369Y-83330600D02*
X116734512Y-83259171D01*
X116734512Y-83259171D02*
X116448798Y-83259171D01*
X116448798Y-83259171D02*
X116305940Y-83330600D01*
X116305940Y-83330600D02*
X116234512Y-83473457D01*
X116234512Y-83473457D02*
X116234512Y-84044885D01*
X116234512Y-84044885D02*
X116305940Y-84187742D01*
X116305940Y-84187742D02*
X116448798Y-84259171D01*
X116448798Y-84259171D02*
X116734512Y-84259171D01*
X116734512Y-84259171D02*
X116877369Y-84187742D01*
X116877369Y-84187742D02*
X116948798Y-84044885D01*
X116948798Y-84044885D02*
X116948798Y-83902028D01*
X116948798Y-83902028D02*
X116234512Y-83759171D01*
X117591654Y-84259171D02*
X117591654Y-83259171D01*
X117591654Y-84116314D02*
X117663083Y-84187742D01*
X117663083Y-84187742D02*
X117805940Y-84259171D01*
X117805940Y-84259171D02*
X118020226Y-84259171D01*
X118020226Y-84259171D02*
X118163083Y-84187742D01*
X118163083Y-84187742D02*
X118234512Y-84044885D01*
X118234512Y-84044885D02*
X118234512Y-83259171D01*
X119591655Y-84259171D02*
X119591655Y-83044885D01*
X119591655Y-83044885D02*
X119520226Y-82902028D01*
X119520226Y-82902028D02*
X119448797Y-82830600D01*
X119448797Y-82830600D02*
X119305940Y-82759171D01*
X119305940Y-82759171D02*
X119091655Y-82759171D01*
X119091655Y-82759171D02*
X118948797Y-82830600D01*
X119591655Y-83330600D02*
X119448797Y-83259171D01*
X119448797Y-83259171D02*
X119163083Y-83259171D01*
X119163083Y-83259171D02*
X119020226Y-83330600D01*
X119020226Y-83330600D02*
X118948797Y-83402028D01*
X118948797Y-83402028D02*
X118877369Y-83544885D01*
X118877369Y-83544885D02*
X118877369Y-83973457D01*
X118877369Y-83973457D02*
X118948797Y-84116314D01*
X118948797Y-84116314D02*
X119020226Y-84187742D01*
X119020226Y-84187742D02*
X119163083Y-84259171D01*
X119163083Y-84259171D02*
X119448797Y-84259171D01*
X119448797Y-84259171D02*
X119591655Y-84187742D01*
X121877369Y-84759171D02*
X121877369Y-83687742D01*
X121877369Y-83687742D02*
X121805940Y-83473457D01*
X121805940Y-83473457D02*
X121663083Y-83330600D01*
X121663083Y-83330600D02*
X121448797Y-83259171D01*
X121448797Y-83259171D02*
X121305940Y-83259171D01*
X122591654Y-83259171D02*
X122591654Y-84259171D01*
X122591654Y-84759171D02*
X122520226Y-84687742D01*
X122520226Y-84687742D02*
X122591654Y-84616314D01*
X122591654Y-84616314D02*
X122663083Y-84687742D01*
X122663083Y-84687742D02*
X122591654Y-84759171D01*
X122591654Y-84759171D02*
X122591654Y-84616314D01*
X123948798Y-83259171D02*
X123948798Y-84044885D01*
X123948798Y-84044885D02*
X123877369Y-84187742D01*
X123877369Y-84187742D02*
X123734512Y-84259171D01*
X123734512Y-84259171D02*
X123448798Y-84259171D01*
X123448798Y-84259171D02*
X123305940Y-84187742D01*
X123948798Y-83330600D02*
X123805940Y-83259171D01*
X123805940Y-83259171D02*
X123448798Y-83259171D01*
X123448798Y-83259171D02*
X123305940Y-83330600D01*
X123305940Y-83330600D02*
X123234512Y-83473457D01*
X123234512Y-83473457D02*
X123234512Y-83616314D01*
X123234512Y-83616314D02*
X123305940Y-83759171D01*
X123305940Y-83759171D02*
X123448798Y-83830600D01*
X123448798Y-83830600D02*
X123805940Y-83830600D01*
X123805940Y-83830600D02*
X123948798Y-83902028D01*
X124663083Y-84259171D02*
X124663083Y-83259171D01*
X124663083Y-84116314D02*
X124734512Y-84187742D01*
X124734512Y-84187742D02*
X124877369Y-84259171D01*
X124877369Y-84259171D02*
X125091655Y-84259171D01*
X125091655Y-84259171D02*
X125234512Y-84187742D01*
X125234512Y-84187742D02*
X125305941Y-84044885D01*
X125305941Y-84044885D02*
X125305941Y-83259171D01*
X126663084Y-84259171D02*
X126663084Y-83044885D01*
X126663084Y-83044885D02*
X126591655Y-82902028D01*
X126591655Y-82902028D02*
X126520226Y-82830600D01*
X126520226Y-82830600D02*
X126377369Y-82759171D01*
X126377369Y-82759171D02*
X126163084Y-82759171D01*
X126163084Y-82759171D02*
X126020226Y-82830600D01*
X126663084Y-83330600D02*
X126520226Y-83259171D01*
X126520226Y-83259171D02*
X126234512Y-83259171D01*
X126234512Y-83259171D02*
X126091655Y-83330600D01*
X126091655Y-83330600D02*
X126020226Y-83402028D01*
X126020226Y-83402028D02*
X125948798Y-83544885D01*
X125948798Y-83544885D02*
X125948798Y-83973457D01*
X125948798Y-83973457D02*
X126020226Y-84116314D01*
X126020226Y-84116314D02*
X126091655Y-84187742D01*
X126091655Y-84187742D02*
X126234512Y-84259171D01*
X126234512Y-84259171D02*
X126520226Y-84259171D01*
X126520226Y-84259171D02*
X126663084Y-84187742D01*
X185134510Y-88174885D02*
X185634510Y-88174885D01*
X185848796Y-87389171D02*
X185134510Y-87389171D01*
X185134510Y-87389171D02*
X185134510Y-88889171D01*
X185134510Y-88889171D02*
X185848796Y-88889171D01*
X187348796Y-87532028D02*
X187277368Y-87460600D01*
X187277368Y-87460600D02*
X187063082Y-87389171D01*
X187063082Y-87389171D02*
X186920225Y-87389171D01*
X186920225Y-87389171D02*
X186705939Y-87460600D01*
X186705939Y-87460600D02*
X186563082Y-87603457D01*
X186563082Y-87603457D02*
X186491653Y-87746314D01*
X186491653Y-87746314D02*
X186420225Y-88032028D01*
X186420225Y-88032028D02*
X186420225Y-88246314D01*
X186420225Y-88246314D02*
X186491653Y-88532028D01*
X186491653Y-88532028D02*
X186563082Y-88674885D01*
X186563082Y-88674885D02*
X186705939Y-88817742D01*
X186705939Y-88817742D02*
X186920225Y-88889171D01*
X186920225Y-88889171D02*
X187063082Y-88889171D01*
X187063082Y-88889171D02*
X187277368Y-88817742D01*
X187277368Y-88817742D02*
X187348796Y-88746314D01*
X187991653Y-88174885D02*
X188491653Y-88174885D01*
X188705939Y-87389171D02*
X187991653Y-87389171D01*
X187991653Y-87389171D02*
X187991653Y-88889171D01*
X187991653Y-88889171D02*
X188705939Y-88889171D01*
X191134511Y-88389171D02*
X191134511Y-87389171D01*
X190777368Y-88960600D02*
X190420225Y-87889171D01*
X190420225Y-87889171D02*
X191348796Y-87889171D01*
X191777367Y-88889171D02*
X192777367Y-88889171D01*
X192777367Y-88889171D02*
X192134510Y-87389171D01*
X193205938Y-88889171D02*
X194205938Y-88889171D01*
X194205938Y-88889171D02*
X193563081Y-87389171D01*
X185063082Y-85045600D02*
X185277368Y-84974171D01*
X185277368Y-84974171D02*
X185634510Y-84974171D01*
X185634510Y-84974171D02*
X185777368Y-85045600D01*
X185777368Y-85045600D02*
X185848796Y-85117028D01*
X185848796Y-85117028D02*
X185920225Y-85259885D01*
X185920225Y-85259885D02*
X185920225Y-85402742D01*
X185920225Y-85402742D02*
X185848796Y-85545600D01*
X185848796Y-85545600D02*
X185777368Y-85617028D01*
X185777368Y-85617028D02*
X185634510Y-85688457D01*
X185634510Y-85688457D02*
X185348796Y-85759885D01*
X185348796Y-85759885D02*
X185205939Y-85831314D01*
X185205939Y-85831314D02*
X185134510Y-85902742D01*
X185134510Y-85902742D02*
X185063082Y-86045600D01*
X185063082Y-86045600D02*
X185063082Y-86188457D01*
X185063082Y-86188457D02*
X185134510Y-86331314D01*
X185134510Y-86331314D02*
X185205939Y-86402742D01*
X185205939Y-86402742D02*
X185348796Y-86474171D01*
X185348796Y-86474171D02*
X185705939Y-86474171D01*
X185705939Y-86474171D02*
X185920225Y-86402742D01*
X186563081Y-85974171D02*
X186563081Y-84474171D01*
X186563081Y-85902742D02*
X186705939Y-85974171D01*
X186705939Y-85974171D02*
X186991653Y-85974171D01*
X186991653Y-85974171D02*
X187134510Y-85902742D01*
X187134510Y-85902742D02*
X187205939Y-85831314D01*
X187205939Y-85831314D02*
X187277367Y-85688457D01*
X187277367Y-85688457D02*
X187277367Y-85259885D01*
X187277367Y-85259885D02*
X187205939Y-85117028D01*
X187205939Y-85117028D02*
X187134510Y-85045600D01*
X187134510Y-85045600D02*
X186991653Y-84974171D01*
X186991653Y-84974171D02*
X186705939Y-84974171D01*
X186705939Y-84974171D02*
X186563081Y-85045600D01*
X187920224Y-84974171D02*
X187920224Y-85974171D01*
X187920224Y-85688457D02*
X187991653Y-85831314D01*
X187991653Y-85831314D02*
X188063082Y-85902742D01*
X188063082Y-85902742D02*
X188205939Y-85974171D01*
X188205939Y-85974171D02*
X188348796Y-85974171D01*
X188848795Y-84974171D02*
X188848795Y-85974171D01*
X188848795Y-86474171D02*
X188777367Y-86402742D01*
X188777367Y-86402742D02*
X188848795Y-86331314D01*
X188848795Y-86331314D02*
X188920224Y-86402742D01*
X188920224Y-86402742D02*
X188848795Y-86474171D01*
X188848795Y-86474171D02*
X188848795Y-86331314D01*
X189563081Y-85974171D02*
X189563081Y-84974171D01*
X189563081Y-85831314D02*
X189634510Y-85902742D01*
X189634510Y-85902742D02*
X189777367Y-85974171D01*
X189777367Y-85974171D02*
X189991653Y-85974171D01*
X189991653Y-85974171D02*
X190134510Y-85902742D01*
X190134510Y-85902742D02*
X190205939Y-85759885D01*
X190205939Y-85759885D02*
X190205939Y-84974171D01*
X191563082Y-85974171D02*
X191563082Y-84759885D01*
X191563082Y-84759885D02*
X191491653Y-84617028D01*
X191491653Y-84617028D02*
X191420224Y-84545600D01*
X191420224Y-84545600D02*
X191277367Y-84474171D01*
X191277367Y-84474171D02*
X191063082Y-84474171D01*
X191063082Y-84474171D02*
X190920224Y-84545600D01*
X191563082Y-85045600D02*
X191420224Y-84974171D01*
X191420224Y-84974171D02*
X191134510Y-84974171D01*
X191134510Y-84974171D02*
X190991653Y-85045600D01*
X190991653Y-85045600D02*
X190920224Y-85117028D01*
X190920224Y-85117028D02*
X190848796Y-85259885D01*
X190848796Y-85259885D02*
X190848796Y-85688457D01*
X190848796Y-85688457D02*
X190920224Y-85831314D01*
X190920224Y-85831314D02*
X190991653Y-85902742D01*
X190991653Y-85902742D02*
X191134510Y-85974171D01*
X191134510Y-85974171D02*
X191420224Y-85974171D01*
X191420224Y-85974171D02*
X191563082Y-85902742D01*
X193348796Y-86331314D02*
X193420224Y-86402742D01*
X193420224Y-86402742D02*
X193563082Y-86474171D01*
X193563082Y-86474171D02*
X193920224Y-86474171D01*
X193920224Y-86474171D02*
X194063082Y-86402742D01*
X194063082Y-86402742D02*
X194134510Y-86331314D01*
X194134510Y-86331314D02*
X194205939Y-86188457D01*
X194205939Y-86188457D02*
X194205939Y-86045600D01*
X194205939Y-86045600D02*
X194134510Y-85831314D01*
X194134510Y-85831314D02*
X193277367Y-84974171D01*
X193277367Y-84974171D02*
X194205939Y-84974171D01*
X195134510Y-86474171D02*
X195277367Y-86474171D01*
X195277367Y-86474171D02*
X195420224Y-86402742D01*
X195420224Y-86402742D02*
X195491653Y-86331314D01*
X195491653Y-86331314D02*
X195563081Y-86188457D01*
X195563081Y-86188457D02*
X195634510Y-85902742D01*
X195634510Y-85902742D02*
X195634510Y-85545600D01*
X195634510Y-85545600D02*
X195563081Y-85259885D01*
X195563081Y-85259885D02*
X195491653Y-85117028D01*
X195491653Y-85117028D02*
X195420224Y-85045600D01*
X195420224Y-85045600D02*
X195277367Y-84974171D01*
X195277367Y-84974171D02*
X195134510Y-84974171D01*
X195134510Y-84974171D02*
X194991653Y-85045600D01*
X194991653Y-85045600D02*
X194920224Y-85117028D01*
X194920224Y-85117028D02*
X194848795Y-85259885D01*
X194848795Y-85259885D02*
X194777367Y-85545600D01*
X194777367Y-85545600D02*
X194777367Y-85902742D01*
X194777367Y-85902742D02*
X194848795Y-86188457D01*
X194848795Y-86188457D02*
X194920224Y-86331314D01*
X194920224Y-86331314D02*
X194991653Y-86402742D01*
X194991653Y-86402742D02*
X195134510Y-86474171D01*
X196205938Y-86331314D02*
X196277366Y-86402742D01*
X196277366Y-86402742D02*
X196420224Y-86474171D01*
X196420224Y-86474171D02*
X196777366Y-86474171D01*
X196777366Y-86474171D02*
X196920224Y-86402742D01*
X196920224Y-86402742D02*
X196991652Y-86331314D01*
X196991652Y-86331314D02*
X197063081Y-86188457D01*
X197063081Y-86188457D02*
X197063081Y-86045600D01*
X197063081Y-86045600D02*
X196991652Y-85831314D01*
X196991652Y-85831314D02*
X196134509Y-84974171D01*
X196134509Y-84974171D02*
X197063081Y-84974171D01*
X198348795Y-85974171D02*
X198348795Y-84974171D01*
X197991652Y-86545600D02*
X197634509Y-85474171D01*
X197634509Y-85474171D02*
X198563080Y-85474171D01*
X185920225Y-83987742D02*
X185777368Y-84059171D01*
X185777368Y-84059171D02*
X185563082Y-84059171D01*
X185563082Y-84059171D02*
X185348796Y-83987742D01*
X185348796Y-83987742D02*
X185205939Y-83844885D01*
X185205939Y-83844885D02*
X185134510Y-83702028D01*
X185134510Y-83702028D02*
X185063082Y-83416314D01*
X185063082Y-83416314D02*
X185063082Y-83202028D01*
X185063082Y-83202028D02*
X185134510Y-82916314D01*
X185134510Y-82916314D02*
X185205939Y-82773457D01*
X185205939Y-82773457D02*
X185348796Y-82630600D01*
X185348796Y-82630600D02*
X185563082Y-82559171D01*
X185563082Y-82559171D02*
X185705939Y-82559171D01*
X185705939Y-82559171D02*
X185920225Y-82630600D01*
X185920225Y-82630600D02*
X185991653Y-82702028D01*
X185991653Y-82702028D02*
X185991653Y-83202028D01*
X185991653Y-83202028D02*
X185705939Y-83202028D01*
X186634510Y-82559171D02*
X186634510Y-83559171D01*
X186634510Y-83273457D02*
X186705939Y-83416314D01*
X186705939Y-83416314D02*
X186777368Y-83487742D01*
X186777368Y-83487742D02*
X186920225Y-83559171D01*
X186920225Y-83559171D02*
X187063082Y-83559171D01*
X187777367Y-82559171D02*
X187634510Y-82630600D01*
X187634510Y-82630600D02*
X187563081Y-82702028D01*
X187563081Y-82702028D02*
X187491653Y-82844885D01*
X187491653Y-82844885D02*
X187491653Y-83273457D01*
X187491653Y-83273457D02*
X187563081Y-83416314D01*
X187563081Y-83416314D02*
X187634510Y-83487742D01*
X187634510Y-83487742D02*
X187777367Y-83559171D01*
X187777367Y-83559171D02*
X187991653Y-83559171D01*
X187991653Y-83559171D02*
X188134510Y-83487742D01*
X188134510Y-83487742D02*
X188205939Y-83416314D01*
X188205939Y-83416314D02*
X188277367Y-83273457D01*
X188277367Y-83273457D02*
X188277367Y-82844885D01*
X188277367Y-82844885D02*
X188205939Y-82702028D01*
X188205939Y-82702028D02*
X188134510Y-82630600D01*
X188134510Y-82630600D02*
X187991653Y-82559171D01*
X187991653Y-82559171D02*
X187777367Y-82559171D01*
X189563082Y-83559171D02*
X189563082Y-82559171D01*
X188920224Y-83559171D02*
X188920224Y-82773457D01*
X188920224Y-82773457D02*
X188991653Y-82630600D01*
X188991653Y-82630600D02*
X189134510Y-82559171D01*
X189134510Y-82559171D02*
X189348796Y-82559171D01*
X189348796Y-82559171D02*
X189491653Y-82630600D01*
X189491653Y-82630600D02*
X189563082Y-82702028D01*
X190277367Y-83559171D02*
X190277367Y-82059171D01*
X190277367Y-83487742D02*
X190420225Y-83559171D01*
X190420225Y-83559171D02*
X190705939Y-83559171D01*
X190705939Y-83559171D02*
X190848796Y-83487742D01*
X190848796Y-83487742D02*
X190920225Y-83416314D01*
X190920225Y-83416314D02*
X190991653Y-83273457D01*
X190991653Y-83273457D02*
X190991653Y-82844885D01*
X190991653Y-82844885D02*
X190920225Y-82702028D01*
X190920225Y-82702028D02*
X190848796Y-82630600D01*
X190848796Y-82630600D02*
X190705939Y-82559171D01*
X190705939Y-82559171D02*
X190420225Y-82559171D01*
X190420225Y-82559171D02*
X190277367Y-82630600D01*
X192848796Y-82559171D02*
X193134510Y-82559171D01*
X193134510Y-82559171D02*
X193277367Y-82630600D01*
X193277367Y-82630600D02*
X193348796Y-82702028D01*
X193348796Y-82702028D02*
X193491653Y-82916314D01*
X193491653Y-82916314D02*
X193563082Y-83202028D01*
X193563082Y-83202028D02*
X193563082Y-83773457D01*
X193563082Y-83773457D02*
X193491653Y-83916314D01*
X193491653Y-83916314D02*
X193420225Y-83987742D01*
X193420225Y-83987742D02*
X193277367Y-84059171D01*
X193277367Y-84059171D02*
X192991653Y-84059171D01*
X192991653Y-84059171D02*
X192848796Y-83987742D01*
X192848796Y-83987742D02*
X192777367Y-83916314D01*
X192777367Y-83916314D02*
X192705939Y-83773457D01*
X192705939Y-83773457D02*
X192705939Y-83416314D01*
X192705939Y-83416314D02*
X192777367Y-83273457D01*
X192777367Y-83273457D02*
X192848796Y-83202028D01*
X192848796Y-83202028D02*
X192991653Y-83130600D01*
X192991653Y-83130600D02*
X193277367Y-83130600D01*
X193277367Y-83130600D02*
X193420225Y-83202028D01*
X193420225Y-83202028D02*
X193491653Y-83273457D01*
X193491653Y-83273457D02*
X193563082Y-83416314D01*
X145734510Y-87204171D02*
X145734510Y-88704171D01*
X145734510Y-87989885D02*
X146591653Y-87989885D01*
X146591653Y-87204171D02*
X146591653Y-88704171D01*
X147948797Y-87204171D02*
X147948797Y-87989885D01*
X147948797Y-87989885D02*
X147877368Y-88132742D01*
X147877368Y-88132742D02*
X147734511Y-88204171D01*
X147734511Y-88204171D02*
X147448797Y-88204171D01*
X147448797Y-88204171D02*
X147305939Y-88132742D01*
X147948797Y-87275600D02*
X147805939Y-87204171D01*
X147805939Y-87204171D02*
X147448797Y-87204171D01*
X147448797Y-87204171D02*
X147305939Y-87275600D01*
X147305939Y-87275600D02*
X147234511Y-87418457D01*
X147234511Y-87418457D02*
X147234511Y-87561314D01*
X147234511Y-87561314D02*
X147305939Y-87704171D01*
X147305939Y-87704171D02*
X147448797Y-87775600D01*
X147448797Y-87775600D02*
X147805939Y-87775600D01*
X147805939Y-87775600D02*
X147948797Y-87847028D01*
X148877368Y-87204171D02*
X148734511Y-87275600D01*
X148734511Y-87275600D02*
X148663082Y-87418457D01*
X148663082Y-87418457D02*
X148663082Y-88704171D01*
X149663082Y-87204171D02*
X149520225Y-87275600D01*
X149520225Y-87275600D02*
X149448796Y-87418457D01*
X149448796Y-87418457D02*
X149448796Y-88704171D01*
X151377367Y-87989885D02*
X151877367Y-87989885D01*
X152091653Y-87204171D02*
X151377367Y-87204171D01*
X151377367Y-87204171D02*
X151377367Y-88704171D01*
X151377367Y-88704171D02*
X152091653Y-88704171D01*
X152520225Y-88204171D02*
X153091653Y-88204171D01*
X152734510Y-87204171D02*
X152734510Y-88489885D01*
X152734510Y-88489885D02*
X152805939Y-88632742D01*
X152805939Y-88632742D02*
X152948796Y-88704171D01*
X152948796Y-88704171D02*
X153091653Y-88704171D01*
X153377368Y-88204171D02*
X153948796Y-88204171D01*
X153591653Y-87204171D02*
X153591653Y-88489885D01*
X153591653Y-88489885D02*
X153663082Y-88632742D01*
X153663082Y-88632742D02*
X153805939Y-88704171D01*
X153805939Y-88704171D02*
X153948796Y-88704171D01*
X155020225Y-87275600D02*
X154877368Y-87204171D01*
X154877368Y-87204171D02*
X154591654Y-87204171D01*
X154591654Y-87204171D02*
X154448796Y-87275600D01*
X154448796Y-87275600D02*
X154377368Y-87418457D01*
X154377368Y-87418457D02*
X154377368Y-87989885D01*
X154377368Y-87989885D02*
X154448796Y-88132742D01*
X154448796Y-88132742D02*
X154591654Y-88204171D01*
X154591654Y-88204171D02*
X154877368Y-88204171D01*
X154877368Y-88204171D02*
X155020225Y-88132742D01*
X155020225Y-88132742D02*
X155091654Y-87989885D01*
X155091654Y-87989885D02*
X155091654Y-87847028D01*
X155091654Y-87847028D02*
X154377368Y-87704171D01*
X156377368Y-87275600D02*
X156234510Y-87204171D01*
X156234510Y-87204171D02*
X155948796Y-87204171D01*
X155948796Y-87204171D02*
X155805939Y-87275600D01*
X155805939Y-87275600D02*
X155734510Y-87347028D01*
X155734510Y-87347028D02*
X155663082Y-87489885D01*
X155663082Y-87489885D02*
X155663082Y-87918457D01*
X155663082Y-87918457D02*
X155734510Y-88061314D01*
X155734510Y-88061314D02*
X155805939Y-88132742D01*
X155805939Y-88132742D02*
X155948796Y-88204171D01*
X155948796Y-88204171D02*
X156234510Y-88204171D01*
X156234510Y-88204171D02*
X156377368Y-88132742D01*
X156805939Y-88204171D02*
X157377367Y-88204171D01*
X157020224Y-88704171D02*
X157020224Y-87418457D01*
X157020224Y-87418457D02*
X157091653Y-87275600D01*
X157091653Y-87275600D02*
X157234510Y-87204171D01*
X157234510Y-87204171D02*
X157377367Y-87204171D01*
X158948796Y-87275600D02*
X159163082Y-87204171D01*
X159163082Y-87204171D02*
X159520224Y-87204171D01*
X159520224Y-87204171D02*
X159663082Y-87275600D01*
X159663082Y-87275600D02*
X159734510Y-87347028D01*
X159734510Y-87347028D02*
X159805939Y-87489885D01*
X159805939Y-87489885D02*
X159805939Y-87632742D01*
X159805939Y-87632742D02*
X159734510Y-87775600D01*
X159734510Y-87775600D02*
X159663082Y-87847028D01*
X159663082Y-87847028D02*
X159520224Y-87918457D01*
X159520224Y-87918457D02*
X159234510Y-87989885D01*
X159234510Y-87989885D02*
X159091653Y-88061314D01*
X159091653Y-88061314D02*
X159020224Y-88132742D01*
X159020224Y-88132742D02*
X158948796Y-88275600D01*
X158948796Y-88275600D02*
X158948796Y-88418457D01*
X158948796Y-88418457D02*
X159020224Y-88561314D01*
X159020224Y-88561314D02*
X159091653Y-88632742D01*
X159091653Y-88632742D02*
X159234510Y-88704171D01*
X159234510Y-88704171D02*
X159591653Y-88704171D01*
X159591653Y-88704171D02*
X159805939Y-88632742D01*
X161020224Y-87275600D02*
X160877367Y-87204171D01*
X160877367Y-87204171D02*
X160591653Y-87204171D01*
X160591653Y-87204171D02*
X160448795Y-87275600D01*
X160448795Y-87275600D02*
X160377367Y-87418457D01*
X160377367Y-87418457D02*
X160377367Y-87989885D01*
X160377367Y-87989885D02*
X160448795Y-88132742D01*
X160448795Y-88132742D02*
X160591653Y-88204171D01*
X160591653Y-88204171D02*
X160877367Y-88204171D01*
X160877367Y-88204171D02*
X161020224Y-88132742D01*
X161020224Y-88132742D02*
X161091653Y-87989885D01*
X161091653Y-87989885D02*
X161091653Y-87847028D01*
X161091653Y-87847028D02*
X160377367Y-87704171D01*
X161734509Y-88204171D02*
X161734509Y-87204171D01*
X161734509Y-88061314D02*
X161805938Y-88132742D01*
X161805938Y-88132742D02*
X161948795Y-88204171D01*
X161948795Y-88204171D02*
X162163081Y-88204171D01*
X162163081Y-88204171D02*
X162305938Y-88132742D01*
X162305938Y-88132742D02*
X162377367Y-87989885D01*
X162377367Y-87989885D02*
X162377367Y-87204171D01*
X163020224Y-87275600D02*
X163163081Y-87204171D01*
X163163081Y-87204171D02*
X163448795Y-87204171D01*
X163448795Y-87204171D02*
X163591652Y-87275600D01*
X163591652Y-87275600D02*
X163663081Y-87418457D01*
X163663081Y-87418457D02*
X163663081Y-87489885D01*
X163663081Y-87489885D02*
X163591652Y-87632742D01*
X163591652Y-87632742D02*
X163448795Y-87704171D01*
X163448795Y-87704171D02*
X163234510Y-87704171D01*
X163234510Y-87704171D02*
X163091652Y-87775600D01*
X163091652Y-87775600D02*
X163020224Y-87918457D01*
X163020224Y-87918457D02*
X163020224Y-87989885D01*
X163020224Y-87989885D02*
X163091652Y-88132742D01*
X163091652Y-88132742D02*
X163234510Y-88204171D01*
X163234510Y-88204171D02*
X163448795Y-88204171D01*
X163448795Y-88204171D02*
X163591652Y-88132742D01*
X164520224Y-87204171D02*
X164377367Y-87275600D01*
X164377367Y-87275600D02*
X164305938Y-87347028D01*
X164305938Y-87347028D02*
X164234510Y-87489885D01*
X164234510Y-87489885D02*
X164234510Y-87918457D01*
X164234510Y-87918457D02*
X164305938Y-88061314D01*
X164305938Y-88061314D02*
X164377367Y-88132742D01*
X164377367Y-88132742D02*
X164520224Y-88204171D01*
X164520224Y-88204171D02*
X164734510Y-88204171D01*
X164734510Y-88204171D02*
X164877367Y-88132742D01*
X164877367Y-88132742D02*
X164948796Y-88061314D01*
X164948796Y-88061314D02*
X165020224Y-87918457D01*
X165020224Y-87918457D02*
X165020224Y-87489885D01*
X165020224Y-87489885D02*
X164948796Y-87347028D01*
X164948796Y-87347028D02*
X164877367Y-87275600D01*
X164877367Y-87275600D02*
X164734510Y-87204171D01*
X164734510Y-87204171D02*
X164520224Y-87204171D01*
X165663081Y-87204171D02*
X165663081Y-88204171D01*
X165663081Y-87918457D02*
X165734510Y-88061314D01*
X165734510Y-88061314D02*
X165805939Y-88132742D01*
X165805939Y-88132742D02*
X165948796Y-88204171D01*
X165948796Y-88204171D02*
X166091653Y-88204171D01*
X166520224Y-87275600D02*
X166663081Y-87204171D01*
X166663081Y-87204171D02*
X166948795Y-87204171D01*
X166948795Y-87204171D02*
X167091652Y-87275600D01*
X167091652Y-87275600D02*
X167163081Y-87418457D01*
X167163081Y-87418457D02*
X167163081Y-87489885D01*
X167163081Y-87489885D02*
X167091652Y-87632742D01*
X167091652Y-87632742D02*
X166948795Y-87704171D01*
X166948795Y-87704171D02*
X166734510Y-87704171D01*
X166734510Y-87704171D02*
X166591652Y-87775600D01*
X166591652Y-87775600D02*
X166520224Y-87918457D01*
X166520224Y-87918457D02*
X166520224Y-87989885D01*
X166520224Y-87989885D02*
X166591652Y-88132742D01*
X166591652Y-88132742D02*
X166734510Y-88204171D01*
X166734510Y-88204171D02*
X166948795Y-88204171D01*
X166948795Y-88204171D02*
X167091652Y-88132742D01*
X168877367Y-87632742D02*
X169591653Y-87632742D01*
X168734510Y-87204171D02*
X169234510Y-88704171D01*
X169234510Y-88704171D02*
X169734510Y-87204171D01*
X170234509Y-87204171D02*
X170234509Y-88204171D01*
X170234509Y-87918457D02*
X170305938Y-88061314D01*
X170305938Y-88061314D02*
X170377367Y-88132742D01*
X170377367Y-88132742D02*
X170520224Y-88204171D01*
X170520224Y-88204171D02*
X170663081Y-88204171D01*
X171163080Y-87204171D02*
X171163080Y-88204171D01*
X171163080Y-87918457D02*
X171234509Y-88061314D01*
X171234509Y-88061314D02*
X171305938Y-88132742D01*
X171305938Y-88132742D02*
X171448795Y-88204171D01*
X171448795Y-88204171D02*
X171591652Y-88204171D01*
X172734509Y-87204171D02*
X172734509Y-87989885D01*
X172734509Y-87989885D02*
X172663080Y-88132742D01*
X172663080Y-88132742D02*
X172520223Y-88204171D01*
X172520223Y-88204171D02*
X172234509Y-88204171D01*
X172234509Y-88204171D02*
X172091651Y-88132742D01*
X172734509Y-87275600D02*
X172591651Y-87204171D01*
X172591651Y-87204171D02*
X172234509Y-87204171D01*
X172234509Y-87204171D02*
X172091651Y-87275600D01*
X172091651Y-87275600D02*
X172020223Y-87418457D01*
X172020223Y-87418457D02*
X172020223Y-87561314D01*
X172020223Y-87561314D02*
X172091651Y-87704171D01*
X172091651Y-87704171D02*
X172234509Y-87775600D01*
X172234509Y-87775600D02*
X172591651Y-87775600D01*
X172591651Y-87775600D02*
X172734509Y-87847028D01*
X173305937Y-88204171D02*
X173663080Y-87204171D01*
X174020223Y-88204171D02*
X173663080Y-87204171D01*
X173663080Y-87204171D02*
X173520223Y-86847028D01*
X173520223Y-86847028D02*
X173448794Y-86775600D01*
X173448794Y-86775600D02*
X173305937Y-86704171D01*
X176234508Y-87989885D02*
X176448794Y-87918457D01*
X176448794Y-87918457D02*
X176520223Y-87847028D01*
X176520223Y-87847028D02*
X176591651Y-87704171D01*
X176591651Y-87704171D02*
X176591651Y-87489885D01*
X176591651Y-87489885D02*
X176520223Y-87347028D01*
X176520223Y-87347028D02*
X176448794Y-87275600D01*
X176448794Y-87275600D02*
X176305937Y-87204171D01*
X176305937Y-87204171D02*
X175734508Y-87204171D01*
X175734508Y-87204171D02*
X175734508Y-88704171D01*
X175734508Y-88704171D02*
X176234508Y-88704171D01*
X176234508Y-88704171D02*
X176377366Y-88632742D01*
X176377366Y-88632742D02*
X176448794Y-88561314D01*
X176448794Y-88561314D02*
X176520223Y-88418457D01*
X176520223Y-88418457D02*
X176520223Y-88275600D01*
X176520223Y-88275600D02*
X176448794Y-88132742D01*
X176448794Y-88132742D02*
X176377366Y-88061314D01*
X176377366Y-88061314D02*
X176234508Y-87989885D01*
X176234508Y-87989885D02*
X175734508Y-87989885D01*
X177448794Y-87204171D02*
X177305937Y-87275600D01*
X177305937Y-87275600D02*
X177234508Y-87347028D01*
X177234508Y-87347028D02*
X177163080Y-87489885D01*
X177163080Y-87489885D02*
X177163080Y-87918457D01*
X177163080Y-87918457D02*
X177234508Y-88061314D01*
X177234508Y-88061314D02*
X177305937Y-88132742D01*
X177305937Y-88132742D02*
X177448794Y-88204171D01*
X177448794Y-88204171D02*
X177663080Y-88204171D01*
X177663080Y-88204171D02*
X177805937Y-88132742D01*
X177805937Y-88132742D02*
X177877366Y-88061314D01*
X177877366Y-88061314D02*
X177948794Y-87918457D01*
X177948794Y-87918457D02*
X177948794Y-87489885D01*
X177948794Y-87489885D02*
X177877366Y-87347028D01*
X177877366Y-87347028D02*
X177805937Y-87275600D01*
X177805937Y-87275600D02*
X177663080Y-87204171D01*
X177663080Y-87204171D02*
X177448794Y-87204171D01*
X179234509Y-87204171D02*
X179234509Y-87989885D01*
X179234509Y-87989885D02*
X179163080Y-88132742D01*
X179163080Y-88132742D02*
X179020223Y-88204171D01*
X179020223Y-88204171D02*
X178734509Y-88204171D01*
X178734509Y-88204171D02*
X178591651Y-88132742D01*
X179234509Y-87275600D02*
X179091651Y-87204171D01*
X179091651Y-87204171D02*
X178734509Y-87204171D01*
X178734509Y-87204171D02*
X178591651Y-87275600D01*
X178591651Y-87275600D02*
X178520223Y-87418457D01*
X178520223Y-87418457D02*
X178520223Y-87561314D01*
X178520223Y-87561314D02*
X178591651Y-87704171D01*
X178591651Y-87704171D02*
X178734509Y-87775600D01*
X178734509Y-87775600D02*
X179091651Y-87775600D01*
X179091651Y-87775600D02*
X179234509Y-87847028D01*
X179948794Y-87204171D02*
X179948794Y-88204171D01*
X179948794Y-87918457D02*
X180020223Y-88061314D01*
X180020223Y-88061314D02*
X180091652Y-88132742D01*
X180091652Y-88132742D02*
X180234509Y-88204171D01*
X180234509Y-88204171D02*
X180377366Y-88204171D01*
X181520223Y-87204171D02*
X181520223Y-88704171D01*
X181520223Y-87275600D02*
X181377365Y-87204171D01*
X181377365Y-87204171D02*
X181091651Y-87204171D01*
X181091651Y-87204171D02*
X180948794Y-87275600D01*
X180948794Y-87275600D02*
X180877365Y-87347028D01*
X180877365Y-87347028D02*
X180805937Y-87489885D01*
X180805937Y-87489885D02*
X180805937Y-87918457D01*
X180805937Y-87918457D02*
X180877365Y-88061314D01*
X180877365Y-88061314D02*
X180948794Y-88132742D01*
X180948794Y-88132742D02*
X181091651Y-88204171D01*
X181091651Y-88204171D02*
X181377365Y-88204171D01*
X181377365Y-88204171D02*
X181520223Y-88132742D01*
X146448796Y-84789171D02*
X145734510Y-84789171D01*
X145734510Y-84789171D02*
X145734510Y-86289171D01*
X147591654Y-84789171D02*
X147591654Y-85574885D01*
X147591654Y-85574885D02*
X147520225Y-85717742D01*
X147520225Y-85717742D02*
X147377368Y-85789171D01*
X147377368Y-85789171D02*
X147091654Y-85789171D01*
X147091654Y-85789171D02*
X146948796Y-85717742D01*
X147591654Y-84860600D02*
X147448796Y-84789171D01*
X147448796Y-84789171D02*
X147091654Y-84789171D01*
X147091654Y-84789171D02*
X146948796Y-84860600D01*
X146948796Y-84860600D02*
X146877368Y-85003457D01*
X146877368Y-85003457D02*
X146877368Y-85146314D01*
X146877368Y-85146314D02*
X146948796Y-85289171D01*
X146948796Y-85289171D02*
X147091654Y-85360600D01*
X147091654Y-85360600D02*
X147448796Y-85360600D01*
X147448796Y-85360600D02*
X147591654Y-85432028D01*
X148234511Y-84860600D02*
X148377368Y-84789171D01*
X148377368Y-84789171D02*
X148663082Y-84789171D01*
X148663082Y-84789171D02*
X148805939Y-84860600D01*
X148805939Y-84860600D02*
X148877368Y-85003457D01*
X148877368Y-85003457D02*
X148877368Y-85074885D01*
X148877368Y-85074885D02*
X148805939Y-85217742D01*
X148805939Y-85217742D02*
X148663082Y-85289171D01*
X148663082Y-85289171D02*
X148448797Y-85289171D01*
X148448797Y-85289171D02*
X148305939Y-85360600D01*
X148305939Y-85360600D02*
X148234511Y-85503457D01*
X148234511Y-85503457D02*
X148234511Y-85574885D01*
X148234511Y-85574885D02*
X148305939Y-85717742D01*
X148305939Y-85717742D02*
X148448797Y-85789171D01*
X148448797Y-85789171D02*
X148663082Y-85789171D01*
X148663082Y-85789171D02*
X148805939Y-85717742D01*
X149305940Y-85789171D02*
X149877368Y-85789171D01*
X149520225Y-86289171D02*
X149520225Y-85003457D01*
X149520225Y-85003457D02*
X149591654Y-84860600D01*
X149591654Y-84860600D02*
X149734511Y-84789171D01*
X149734511Y-84789171D02*
X149877368Y-84789171D01*
X151520225Y-84789171D02*
X151520225Y-86289171D01*
X151520225Y-86289171D02*
X152020225Y-85217742D01*
X152020225Y-85217742D02*
X152520225Y-86289171D01*
X152520225Y-86289171D02*
X152520225Y-84789171D01*
X153448797Y-84789171D02*
X153305940Y-84860600D01*
X153305940Y-84860600D02*
X153234511Y-84932028D01*
X153234511Y-84932028D02*
X153163083Y-85074885D01*
X153163083Y-85074885D02*
X153163083Y-85503457D01*
X153163083Y-85503457D02*
X153234511Y-85646314D01*
X153234511Y-85646314D02*
X153305940Y-85717742D01*
X153305940Y-85717742D02*
X153448797Y-85789171D01*
X153448797Y-85789171D02*
X153663083Y-85789171D01*
X153663083Y-85789171D02*
X153805940Y-85717742D01*
X153805940Y-85717742D02*
X153877369Y-85646314D01*
X153877369Y-85646314D02*
X153948797Y-85503457D01*
X153948797Y-85503457D02*
X153948797Y-85074885D01*
X153948797Y-85074885D02*
X153877369Y-84932028D01*
X153877369Y-84932028D02*
X153805940Y-84860600D01*
X153805940Y-84860600D02*
X153663083Y-84789171D01*
X153663083Y-84789171D02*
X153448797Y-84789171D01*
X155234512Y-84789171D02*
X155234512Y-86289171D01*
X155234512Y-84860600D02*
X155091654Y-84789171D01*
X155091654Y-84789171D02*
X154805940Y-84789171D01*
X154805940Y-84789171D02*
X154663083Y-84860600D01*
X154663083Y-84860600D02*
X154591654Y-84932028D01*
X154591654Y-84932028D02*
X154520226Y-85074885D01*
X154520226Y-85074885D02*
X154520226Y-85503457D01*
X154520226Y-85503457D02*
X154591654Y-85646314D01*
X154591654Y-85646314D02*
X154663083Y-85717742D01*
X154663083Y-85717742D02*
X154805940Y-85789171D01*
X154805940Y-85789171D02*
X155091654Y-85789171D01*
X155091654Y-85789171D02*
X155234512Y-85717742D01*
X155948797Y-84789171D02*
X155948797Y-85789171D01*
X155948797Y-86289171D02*
X155877369Y-86217742D01*
X155877369Y-86217742D02*
X155948797Y-86146314D01*
X155948797Y-86146314D02*
X156020226Y-86217742D01*
X156020226Y-86217742D02*
X155948797Y-86289171D01*
X155948797Y-86289171D02*
X155948797Y-86146314D01*
X156448798Y-85789171D02*
X157020226Y-85789171D01*
X156663083Y-84789171D02*
X156663083Y-86074885D01*
X156663083Y-86074885D02*
X156734512Y-86217742D01*
X156734512Y-86217742D02*
X156877369Y-86289171D01*
X156877369Y-86289171D02*
X157020226Y-86289171D01*
X157520226Y-84789171D02*
X157520226Y-85789171D01*
X157520226Y-86289171D02*
X157448798Y-86217742D01*
X157448798Y-86217742D02*
X157520226Y-86146314D01*
X157520226Y-86146314D02*
X157591655Y-86217742D01*
X157591655Y-86217742D02*
X157520226Y-86289171D01*
X157520226Y-86289171D02*
X157520226Y-86146314D01*
X158805941Y-84860600D02*
X158663084Y-84789171D01*
X158663084Y-84789171D02*
X158377370Y-84789171D01*
X158377370Y-84789171D02*
X158234512Y-84860600D01*
X158234512Y-84860600D02*
X158163084Y-85003457D01*
X158163084Y-85003457D02*
X158163084Y-85574885D01*
X158163084Y-85574885D02*
X158234512Y-85717742D01*
X158234512Y-85717742D02*
X158377370Y-85789171D01*
X158377370Y-85789171D02*
X158663084Y-85789171D01*
X158663084Y-85789171D02*
X158805941Y-85717742D01*
X158805941Y-85717742D02*
X158877370Y-85574885D01*
X158877370Y-85574885D02*
X158877370Y-85432028D01*
X158877370Y-85432028D02*
X158163084Y-85289171D01*
X160163084Y-84789171D02*
X160163084Y-86289171D01*
X160163084Y-84860600D02*
X160020226Y-84789171D01*
X160020226Y-84789171D02*
X159734512Y-84789171D01*
X159734512Y-84789171D02*
X159591655Y-84860600D01*
X159591655Y-84860600D02*
X159520226Y-84932028D01*
X159520226Y-84932028D02*
X159448798Y-85074885D01*
X159448798Y-85074885D02*
X159448798Y-85503457D01*
X159448798Y-85503457D02*
X159520226Y-85646314D01*
X159520226Y-85646314D02*
X159591655Y-85717742D01*
X159591655Y-85717742D02*
X159734512Y-85789171D01*
X159734512Y-85789171D02*
X160020226Y-85789171D01*
X160020226Y-85789171D02*
X160163084Y-85717742D01*
X160877369Y-84932028D02*
X160948798Y-84860600D01*
X160948798Y-84860600D02*
X160877369Y-84789171D01*
X160877369Y-84789171D02*
X160805941Y-84860600D01*
X160805941Y-84860600D02*
X160877369Y-84932028D01*
X160877369Y-84932028D02*
X160877369Y-84789171D01*
X160877369Y-85717742D02*
X160948798Y-85646314D01*
X160948798Y-85646314D02*
X160877369Y-85574885D01*
X160877369Y-85574885D02*
X160805941Y-85646314D01*
X160805941Y-85646314D02*
X160877369Y-85717742D01*
X160877369Y-85717742D02*
X160877369Y-85574885D01*
X163020227Y-86289171D02*
X163163084Y-86289171D01*
X163163084Y-86289171D02*
X163305941Y-86217742D01*
X163305941Y-86217742D02*
X163377370Y-86146314D01*
X163377370Y-86146314D02*
X163448798Y-86003457D01*
X163448798Y-86003457D02*
X163520227Y-85717742D01*
X163520227Y-85717742D02*
X163520227Y-85360600D01*
X163520227Y-85360600D02*
X163448798Y-85074885D01*
X163448798Y-85074885D02*
X163377370Y-84932028D01*
X163377370Y-84932028D02*
X163305941Y-84860600D01*
X163305941Y-84860600D02*
X163163084Y-84789171D01*
X163163084Y-84789171D02*
X163020227Y-84789171D01*
X163020227Y-84789171D02*
X162877370Y-84860600D01*
X162877370Y-84860600D02*
X162805941Y-84932028D01*
X162805941Y-84932028D02*
X162734512Y-85074885D01*
X162734512Y-85074885D02*
X162663084Y-85360600D01*
X162663084Y-85360600D02*
X162663084Y-85717742D01*
X162663084Y-85717742D02*
X162734512Y-86003457D01*
X162734512Y-86003457D02*
X162805941Y-86146314D01*
X162805941Y-86146314D02*
X162877370Y-86217742D01*
X162877370Y-86217742D02*
X163020227Y-86289171D01*
X164091655Y-86146314D02*
X164163083Y-86217742D01*
X164163083Y-86217742D02*
X164305941Y-86289171D01*
X164305941Y-86289171D02*
X164663083Y-86289171D01*
X164663083Y-86289171D02*
X164805941Y-86217742D01*
X164805941Y-86217742D02*
X164877369Y-86146314D01*
X164877369Y-86146314D02*
X164948798Y-86003457D01*
X164948798Y-86003457D02*
X164948798Y-85860600D01*
X164948798Y-85860600D02*
X164877369Y-85646314D01*
X164877369Y-85646314D02*
X164020226Y-84789171D01*
X164020226Y-84789171D02*
X164948798Y-84789171D01*
X166663083Y-86360600D02*
X165377369Y-84432028D01*
X167091655Y-86146314D02*
X167163083Y-86217742D01*
X167163083Y-86217742D02*
X167305941Y-86289171D01*
X167305941Y-86289171D02*
X167663083Y-86289171D01*
X167663083Y-86289171D02*
X167805941Y-86217742D01*
X167805941Y-86217742D02*
X167877369Y-86146314D01*
X167877369Y-86146314D02*
X167948798Y-86003457D01*
X167948798Y-86003457D02*
X167948798Y-85860600D01*
X167948798Y-85860600D02*
X167877369Y-85646314D01*
X167877369Y-85646314D02*
X167020226Y-84789171D01*
X167020226Y-84789171D02*
X167948798Y-84789171D01*
X169234512Y-86289171D02*
X168948797Y-86289171D01*
X168948797Y-86289171D02*
X168805940Y-86217742D01*
X168805940Y-86217742D02*
X168734512Y-86146314D01*
X168734512Y-86146314D02*
X168591654Y-85932028D01*
X168591654Y-85932028D02*
X168520226Y-85646314D01*
X168520226Y-85646314D02*
X168520226Y-85074885D01*
X168520226Y-85074885D02*
X168591654Y-84932028D01*
X168591654Y-84932028D02*
X168663083Y-84860600D01*
X168663083Y-84860600D02*
X168805940Y-84789171D01*
X168805940Y-84789171D02*
X169091654Y-84789171D01*
X169091654Y-84789171D02*
X169234512Y-84860600D01*
X169234512Y-84860600D02*
X169305940Y-84932028D01*
X169305940Y-84932028D02*
X169377369Y-85074885D01*
X169377369Y-85074885D02*
X169377369Y-85432028D01*
X169377369Y-85432028D02*
X169305940Y-85574885D01*
X169305940Y-85574885D02*
X169234512Y-85646314D01*
X169234512Y-85646314D02*
X169091654Y-85717742D01*
X169091654Y-85717742D02*
X168805940Y-85717742D01*
X168805940Y-85717742D02*
X168663083Y-85646314D01*
X168663083Y-85646314D02*
X168591654Y-85574885D01*
X168591654Y-85574885D02*
X168520226Y-85432028D01*
X171091654Y-86360600D02*
X169805940Y-84432028D01*
X171520226Y-86146314D02*
X171591654Y-86217742D01*
X171591654Y-86217742D02*
X171734512Y-86289171D01*
X171734512Y-86289171D02*
X172091654Y-86289171D01*
X172091654Y-86289171D02*
X172234512Y-86217742D01*
X172234512Y-86217742D02*
X172305940Y-86146314D01*
X172305940Y-86146314D02*
X172377369Y-86003457D01*
X172377369Y-86003457D02*
X172377369Y-85860600D01*
X172377369Y-85860600D02*
X172305940Y-85646314D01*
X172305940Y-85646314D02*
X171448797Y-84789171D01*
X171448797Y-84789171D02*
X172377369Y-84789171D01*
X173305940Y-86289171D02*
X173448797Y-86289171D01*
X173448797Y-86289171D02*
X173591654Y-86217742D01*
X173591654Y-86217742D02*
X173663083Y-86146314D01*
X173663083Y-86146314D02*
X173734511Y-86003457D01*
X173734511Y-86003457D02*
X173805940Y-85717742D01*
X173805940Y-85717742D02*
X173805940Y-85360600D01*
X173805940Y-85360600D02*
X173734511Y-85074885D01*
X173734511Y-85074885D02*
X173663083Y-84932028D01*
X173663083Y-84932028D02*
X173591654Y-84860600D01*
X173591654Y-84860600D02*
X173448797Y-84789171D01*
X173448797Y-84789171D02*
X173305940Y-84789171D01*
X173305940Y-84789171D02*
X173163083Y-84860600D01*
X173163083Y-84860600D02*
X173091654Y-84932028D01*
X173091654Y-84932028D02*
X173020225Y-85074885D01*
X173020225Y-85074885D02*
X172948797Y-85360600D01*
X172948797Y-85360600D02*
X172948797Y-85717742D01*
X172948797Y-85717742D02*
X173020225Y-86003457D01*
X173020225Y-86003457D02*
X173091654Y-86146314D01*
X173091654Y-86146314D02*
X173163083Y-86217742D01*
X173163083Y-86217742D02*
X173305940Y-86289171D01*
X174377368Y-86146314D02*
X174448796Y-86217742D01*
X174448796Y-86217742D02*
X174591654Y-86289171D01*
X174591654Y-86289171D02*
X174948796Y-86289171D01*
X174948796Y-86289171D02*
X175091654Y-86217742D01*
X175091654Y-86217742D02*
X175163082Y-86146314D01*
X175163082Y-86146314D02*
X175234511Y-86003457D01*
X175234511Y-86003457D02*
X175234511Y-85860600D01*
X175234511Y-85860600D02*
X175163082Y-85646314D01*
X175163082Y-85646314D02*
X174305939Y-84789171D01*
X174305939Y-84789171D02*
X175234511Y-84789171D01*
X176520225Y-85789171D02*
X176520225Y-84789171D01*
X176163082Y-86360600D02*
X175805939Y-85289171D01*
X175805939Y-85289171D02*
X176734510Y-85289171D01*
M02*
