%TF.GenerationSoftware,KiCad,Pcbnew,7.0.10*%
%TF.CreationDate,2024-03-06T15:32:23-05:00*%
%TF.ProjectId,Hall_effect_sensors,48616c6c-5f65-4666-9665-63745f73656e,rev?*%
%TF.SameCoordinates,Original*%
%TF.FileFunction,Drillmap*%
%TF.FilePolarity,Positive*%
%FSLAX45Y45*%
G04 Gerber Fmt 4.5, Leading zero omitted, Abs format (unit mm)*
G04 Created by KiCad (PCBNEW 7.0.10) date 2024-03-06 15:32:23*
%MOMM*%
%LPD*%
G01*
G04 APERTURE LIST*
%ADD10C,0.200000*%
%ADD11C,0.100000*%
G04 APERTURE END LIST*
D10*
X3980000Y-7560000D02*
X23982540Y-7560000D01*
X23982540Y-9431000D01*
X3980000Y-9431000D01*
X3980000Y-7560000D01*
D11*
X6038000Y-9126000D02*
X6078000Y-9166000D01*
X6078000Y-9126000D02*
X6038000Y-9166000D01*
X6227000Y-8684000D02*
X6267000Y-8724000D01*
X6267000Y-8684000D02*
X6227000Y-8724000D01*
X7757000Y-9110000D02*
X7797000Y-9150000D01*
X7797000Y-9110000D02*
X7757000Y-9150000D01*
X7992347Y-8679035D02*
X8032347Y-8719035D01*
X8032347Y-8679035D02*
X7992347Y-8719035D01*
X9557000Y-9123000D02*
X9597000Y-9163000D01*
X9597000Y-9123000D02*
X9557000Y-9163000D01*
X9825000Y-8684000D02*
X9865000Y-8724000D01*
X9865000Y-8684000D02*
X9825000Y-8724000D01*
X11361000Y-9126000D02*
X11401000Y-9166000D01*
X11401000Y-9126000D02*
X11361000Y-9166000D01*
X11652000Y-8691000D02*
X11692000Y-8731000D01*
X11692000Y-8691000D02*
X11652000Y-8731000D01*
X12133000Y-7872000D02*
X12173000Y-7912000D01*
X12173000Y-7872000D02*
X12133000Y-7912000D01*
X12171000Y-7997000D02*
X12211000Y-8037000D01*
X12211000Y-7997000D02*
X12171000Y-8037000D01*
X12938000Y-8526000D02*
X12978000Y-8566000D01*
X12978000Y-8526000D02*
X12938000Y-8566000D01*
X13157000Y-9111000D02*
X13197000Y-9151000D01*
X13197000Y-9111000D02*
X13157000Y-9151000D01*
X13426000Y-8682000D02*
X13466000Y-8722000D01*
X13466000Y-8682000D02*
X13426000Y-8722000D01*
X14956000Y-9125000D02*
X14996000Y-9165000D01*
X14996000Y-9125000D02*
X14956000Y-9165000D01*
X15230000Y-8686000D02*
X15270000Y-8726000D01*
X15270000Y-8686000D02*
X15230000Y-8726000D01*
X16756000Y-9131000D02*
X16796000Y-9171000D01*
X16796000Y-9131000D02*
X16756000Y-9171000D01*
X17036000Y-8686000D02*
X17076000Y-8726000D01*
X17076000Y-8686000D02*
X17036000Y-8726000D01*
X18554000Y-9133000D02*
X18594000Y-9173000D01*
X18594000Y-9133000D02*
X18554000Y-9173000D01*
X18858000Y-8682000D02*
X18898000Y-8722000D01*
X18898000Y-8682000D02*
X18858000Y-8722000D01*
X20348000Y-9137000D02*
X20388000Y-9177000D01*
X20388000Y-9137000D02*
X20348000Y-9177000D01*
X20638000Y-8626000D02*
X20678000Y-8666000D01*
X20678000Y-8626000D02*
X20638000Y-8666000D01*
X22152000Y-9162000D02*
X22192000Y-9202000D01*
X22192000Y-9162000D02*
X22152000Y-9202000D01*
X22443000Y-8688000D02*
X22483000Y-8728000D01*
X22483000Y-8688000D02*
X22443000Y-8728000D01*
X13240100Y-7893000D02*
G75*
G03*
X13163900Y-7893000I-38100J0D01*
G01*
X13163900Y-7893000D02*
G75*
G03*
X13240100Y-7893000I38100J0D01*
G01*
X13494100Y-7893000D02*
G75*
G03*
X13417900Y-7893000I-38100J0D01*
G01*
X13417900Y-7893000D02*
G75*
G03*
X13494100Y-7893000I38100J0D01*
G01*
X13748100Y-7893000D02*
G75*
G03*
X13671900Y-7893000I-38100J0D01*
G01*
X13671900Y-7893000D02*
G75*
G03*
X13748100Y-7893000I38100J0D01*
G01*
X14002100Y-7893000D02*
G75*
G03*
X13925900Y-7893000I-38100J0D01*
G01*
X13925900Y-7893000D02*
G75*
G03*
X14002100Y-7893000I38100J0D01*
G01*
X14256100Y-7893000D02*
G75*
G03*
X14179900Y-7893000I-38100J0D01*
G01*
X14179900Y-7893000D02*
G75*
G03*
X14256100Y-7893000I38100J0D01*
G01*
X14510100Y-7893000D02*
G75*
G03*
X14433900Y-7893000I-38100J0D01*
G01*
X14433900Y-7893000D02*
G75*
G03*
X14510100Y-7893000I38100J0D01*
G01*
X14764100Y-7893000D02*
G75*
G03*
X14687900Y-7893000I-38100J0D01*
G01*
X14687900Y-7893000D02*
G75*
G03*
X14764100Y-7893000I38100J0D01*
G01*
X15018100Y-7893000D02*
G75*
G03*
X14941900Y-7893000I-38100J0D01*
G01*
X14941900Y-7893000D02*
G75*
G03*
X15018100Y-7893000I38100J0D01*
G01*
X15272100Y-7893000D02*
G75*
G03*
X15195900Y-7893000I-38100J0D01*
G01*
X15195900Y-7893000D02*
G75*
G03*
X15272100Y-7893000I38100J0D01*
G01*
X15526100Y-7893000D02*
G75*
G03*
X15449900Y-7893000I-38100J0D01*
G01*
X15449900Y-7893000D02*
G75*
G03*
X15526100Y-7893000I38100J0D01*
G01*
X15780100Y-7893000D02*
G75*
G03*
X15703900Y-7893000I-38100J0D01*
G01*
X15703900Y-7893000D02*
G75*
G03*
X15780100Y-7893000I38100J0D01*
G01*
X16034100Y-7893000D02*
G75*
G03*
X15957900Y-7893000I-38100J0D01*
G01*
X15957900Y-7893000D02*
G75*
G03*
X16034100Y-7893000I38100J0D01*
G01*
X11366000Y-7827000D02*
X11366000Y-7927000D01*
X11316000Y-7877000D02*
X11416000Y-7877000D01*
D10*
X4230777Y-9752484D02*
X4230777Y-9552484D01*
X4230777Y-9552484D02*
X4278396Y-9552484D01*
X4278396Y-9552484D02*
X4306967Y-9562008D01*
X4306967Y-9562008D02*
X4326015Y-9581055D01*
X4326015Y-9581055D02*
X4335539Y-9600103D01*
X4335539Y-9600103D02*
X4345063Y-9638198D01*
X4345063Y-9638198D02*
X4345063Y-9666770D01*
X4345063Y-9666770D02*
X4335539Y-9704865D01*
X4335539Y-9704865D02*
X4326015Y-9723912D01*
X4326015Y-9723912D02*
X4306967Y-9742960D01*
X4306967Y-9742960D02*
X4278396Y-9752484D01*
X4278396Y-9752484D02*
X4230777Y-9752484D01*
X4430777Y-9752484D02*
X4430777Y-9619150D01*
X4430777Y-9657246D02*
X4440301Y-9638198D01*
X4440301Y-9638198D02*
X4449824Y-9628674D01*
X4449824Y-9628674D02*
X4468872Y-9619150D01*
X4468872Y-9619150D02*
X4487920Y-9619150D01*
X4554586Y-9752484D02*
X4554586Y-9619150D01*
X4554586Y-9552484D02*
X4545063Y-9562008D01*
X4545063Y-9562008D02*
X4554586Y-9571531D01*
X4554586Y-9571531D02*
X4564110Y-9562008D01*
X4564110Y-9562008D02*
X4554586Y-9552484D01*
X4554586Y-9552484D02*
X4554586Y-9571531D01*
X4678396Y-9752484D02*
X4659348Y-9742960D01*
X4659348Y-9742960D02*
X4649824Y-9723912D01*
X4649824Y-9723912D02*
X4649824Y-9552484D01*
X4783158Y-9752484D02*
X4764110Y-9742960D01*
X4764110Y-9742960D02*
X4754586Y-9723912D01*
X4754586Y-9723912D02*
X4754586Y-9552484D01*
X5011729Y-9752484D02*
X5011729Y-9552484D01*
X5011729Y-9552484D02*
X5078396Y-9695341D01*
X5078396Y-9695341D02*
X5145063Y-9552484D01*
X5145063Y-9552484D02*
X5145063Y-9752484D01*
X5326015Y-9752484D02*
X5326015Y-9647722D01*
X5326015Y-9647722D02*
X5316491Y-9628674D01*
X5316491Y-9628674D02*
X5297444Y-9619150D01*
X5297444Y-9619150D02*
X5259348Y-9619150D01*
X5259348Y-9619150D02*
X5240301Y-9628674D01*
X5326015Y-9742960D02*
X5306967Y-9752484D01*
X5306967Y-9752484D02*
X5259348Y-9752484D01*
X5259348Y-9752484D02*
X5240301Y-9742960D01*
X5240301Y-9742960D02*
X5230777Y-9723912D01*
X5230777Y-9723912D02*
X5230777Y-9704865D01*
X5230777Y-9704865D02*
X5240301Y-9685817D01*
X5240301Y-9685817D02*
X5259348Y-9676293D01*
X5259348Y-9676293D02*
X5306967Y-9676293D01*
X5306967Y-9676293D02*
X5326015Y-9666770D01*
X5421253Y-9619150D02*
X5421253Y-9819150D01*
X5421253Y-9628674D02*
X5440301Y-9619150D01*
X5440301Y-9619150D02*
X5478396Y-9619150D01*
X5478396Y-9619150D02*
X5497444Y-9628674D01*
X5497444Y-9628674D02*
X5506967Y-9638198D01*
X5506967Y-9638198D02*
X5516491Y-9657246D01*
X5516491Y-9657246D02*
X5516491Y-9714389D01*
X5516491Y-9714389D02*
X5506967Y-9733436D01*
X5506967Y-9733436D02*
X5497444Y-9742960D01*
X5497444Y-9742960D02*
X5478396Y-9752484D01*
X5478396Y-9752484D02*
X5440301Y-9752484D01*
X5440301Y-9752484D02*
X5421253Y-9742960D01*
X5602205Y-9733436D02*
X5611729Y-9742960D01*
X5611729Y-9742960D02*
X5602205Y-9752484D01*
X5602205Y-9752484D02*
X5592682Y-9742960D01*
X5592682Y-9742960D02*
X5602205Y-9733436D01*
X5602205Y-9733436D02*
X5602205Y-9752484D01*
X5602205Y-9628674D02*
X5611729Y-9638198D01*
X5611729Y-9638198D02*
X5602205Y-9647722D01*
X5602205Y-9647722D02*
X5592682Y-9638198D01*
X5592682Y-9638198D02*
X5602205Y-9628674D01*
X5602205Y-9628674D02*
X5602205Y-9647722D01*
D11*
X3930000Y-10061000D02*
X3970000Y-10101000D01*
X3970000Y-10061000D02*
X3930000Y-10101000D01*
D10*
X4268872Y-9972484D02*
X4287920Y-9972484D01*
X4287920Y-9972484D02*
X4306967Y-9982008D01*
X4306967Y-9982008D02*
X4316491Y-9991531D01*
X4316491Y-9991531D02*
X4326015Y-10010579D01*
X4326015Y-10010579D02*
X4335539Y-10048674D01*
X4335539Y-10048674D02*
X4335539Y-10096293D01*
X4335539Y-10096293D02*
X4326015Y-10134389D01*
X4326015Y-10134389D02*
X4316491Y-10153436D01*
X4316491Y-10153436D02*
X4306967Y-10162960D01*
X4306967Y-10162960D02*
X4287920Y-10172484D01*
X4287920Y-10172484D02*
X4268872Y-10172484D01*
X4268872Y-10172484D02*
X4249824Y-10162960D01*
X4249824Y-10162960D02*
X4240301Y-10153436D01*
X4240301Y-10153436D02*
X4230777Y-10134389D01*
X4230777Y-10134389D02*
X4221253Y-10096293D01*
X4221253Y-10096293D02*
X4221253Y-10048674D01*
X4221253Y-10048674D02*
X4230777Y-10010579D01*
X4230777Y-10010579D02*
X4240301Y-9991531D01*
X4240301Y-9991531D02*
X4249824Y-9982008D01*
X4249824Y-9982008D02*
X4268872Y-9972484D01*
X4421253Y-10153436D02*
X4430777Y-10162960D01*
X4430777Y-10162960D02*
X4421253Y-10172484D01*
X4421253Y-10172484D02*
X4411729Y-10162960D01*
X4411729Y-10162960D02*
X4421253Y-10153436D01*
X4421253Y-10153436D02*
X4421253Y-10172484D01*
X4602205Y-10039150D02*
X4602205Y-10172484D01*
X4554586Y-9962960D02*
X4506967Y-10105817D01*
X4506967Y-10105817D02*
X4630777Y-10105817D01*
X4745063Y-9972484D02*
X4764110Y-9972484D01*
X4764110Y-9972484D02*
X4783158Y-9982008D01*
X4783158Y-9982008D02*
X4792682Y-9991531D01*
X4792682Y-9991531D02*
X4802205Y-10010579D01*
X4802205Y-10010579D02*
X4811729Y-10048674D01*
X4811729Y-10048674D02*
X4811729Y-10096293D01*
X4811729Y-10096293D02*
X4802205Y-10134389D01*
X4802205Y-10134389D02*
X4792682Y-10153436D01*
X4792682Y-10153436D02*
X4783158Y-10162960D01*
X4783158Y-10162960D02*
X4764110Y-10172484D01*
X4764110Y-10172484D02*
X4745063Y-10172484D01*
X4745063Y-10172484D02*
X4726015Y-10162960D01*
X4726015Y-10162960D02*
X4716491Y-10153436D01*
X4716491Y-10153436D02*
X4706967Y-10134389D01*
X4706967Y-10134389D02*
X4697444Y-10096293D01*
X4697444Y-10096293D02*
X4697444Y-10048674D01*
X4697444Y-10048674D02*
X4706967Y-10010579D01*
X4706967Y-10010579D02*
X4716491Y-9991531D01*
X4716491Y-9991531D02*
X4726015Y-9982008D01*
X4726015Y-9982008D02*
X4745063Y-9972484D01*
X4935539Y-9972484D02*
X4954586Y-9972484D01*
X4954586Y-9972484D02*
X4973634Y-9982008D01*
X4973634Y-9982008D02*
X4983158Y-9991531D01*
X4983158Y-9991531D02*
X4992682Y-10010579D01*
X4992682Y-10010579D02*
X5002205Y-10048674D01*
X5002205Y-10048674D02*
X5002205Y-10096293D01*
X5002205Y-10096293D02*
X4992682Y-10134389D01*
X4992682Y-10134389D02*
X4983158Y-10153436D01*
X4983158Y-10153436D02*
X4973634Y-10162960D01*
X4973634Y-10162960D02*
X4954586Y-10172484D01*
X4954586Y-10172484D02*
X4935539Y-10172484D01*
X4935539Y-10172484D02*
X4916491Y-10162960D01*
X4916491Y-10162960D02*
X4906967Y-10153436D01*
X4906967Y-10153436D02*
X4897444Y-10134389D01*
X4897444Y-10134389D02*
X4887920Y-10096293D01*
X4887920Y-10096293D02*
X4887920Y-10048674D01*
X4887920Y-10048674D02*
X4897444Y-10010579D01*
X4897444Y-10010579D02*
X4906967Y-9991531D01*
X4906967Y-9991531D02*
X4916491Y-9982008D01*
X4916491Y-9982008D02*
X4935539Y-9972484D01*
X5087920Y-10172484D02*
X5087920Y-10039150D01*
X5087920Y-10058198D02*
X5097444Y-10048674D01*
X5097444Y-10048674D02*
X5116491Y-10039150D01*
X5116491Y-10039150D02*
X5145063Y-10039150D01*
X5145063Y-10039150D02*
X5164110Y-10048674D01*
X5164110Y-10048674D02*
X5173634Y-10067722D01*
X5173634Y-10067722D02*
X5173634Y-10172484D01*
X5173634Y-10067722D02*
X5183158Y-10048674D01*
X5183158Y-10048674D02*
X5202205Y-10039150D01*
X5202205Y-10039150D02*
X5230777Y-10039150D01*
X5230777Y-10039150D02*
X5249825Y-10048674D01*
X5249825Y-10048674D02*
X5259348Y-10067722D01*
X5259348Y-10067722D02*
X5259348Y-10172484D01*
X5354586Y-10172484D02*
X5354586Y-10039150D01*
X5354586Y-10058198D02*
X5364110Y-10048674D01*
X5364110Y-10048674D02*
X5383158Y-10039150D01*
X5383158Y-10039150D02*
X5411729Y-10039150D01*
X5411729Y-10039150D02*
X5430777Y-10048674D01*
X5430777Y-10048674D02*
X5440301Y-10067722D01*
X5440301Y-10067722D02*
X5440301Y-10172484D01*
X5440301Y-10067722D02*
X5449825Y-10048674D01*
X5449825Y-10048674D02*
X5468872Y-10039150D01*
X5468872Y-10039150D02*
X5497444Y-10039150D01*
X5497444Y-10039150D02*
X5516491Y-10048674D01*
X5516491Y-10048674D02*
X5526015Y-10067722D01*
X5526015Y-10067722D02*
X5526015Y-10172484D01*
X5916491Y-9962960D02*
X5745063Y-10220103D01*
X6173634Y-9972484D02*
X6192682Y-9972484D01*
X6192682Y-9972484D02*
X6211729Y-9982008D01*
X6211729Y-9982008D02*
X6221253Y-9991531D01*
X6221253Y-9991531D02*
X6230777Y-10010579D01*
X6230777Y-10010579D02*
X6240301Y-10048674D01*
X6240301Y-10048674D02*
X6240301Y-10096293D01*
X6240301Y-10096293D02*
X6230777Y-10134389D01*
X6230777Y-10134389D02*
X6221253Y-10153436D01*
X6221253Y-10153436D02*
X6211729Y-10162960D01*
X6211729Y-10162960D02*
X6192682Y-10172484D01*
X6192682Y-10172484D02*
X6173634Y-10172484D01*
X6173634Y-10172484D02*
X6154586Y-10162960D01*
X6154586Y-10162960D02*
X6145063Y-10153436D01*
X6145063Y-10153436D02*
X6135539Y-10134389D01*
X6135539Y-10134389D02*
X6126015Y-10096293D01*
X6126015Y-10096293D02*
X6126015Y-10048674D01*
X6126015Y-10048674D02*
X6135539Y-10010579D01*
X6135539Y-10010579D02*
X6145063Y-9991531D01*
X6145063Y-9991531D02*
X6154586Y-9982008D01*
X6154586Y-9982008D02*
X6173634Y-9972484D01*
X6326015Y-10153436D02*
X6335539Y-10162960D01*
X6335539Y-10162960D02*
X6326015Y-10172484D01*
X6326015Y-10172484D02*
X6316491Y-10162960D01*
X6316491Y-10162960D02*
X6326015Y-10153436D01*
X6326015Y-10153436D02*
X6326015Y-10172484D01*
X6459348Y-9972484D02*
X6478396Y-9972484D01*
X6478396Y-9972484D02*
X6497444Y-9982008D01*
X6497444Y-9982008D02*
X6506967Y-9991531D01*
X6506967Y-9991531D02*
X6516491Y-10010579D01*
X6516491Y-10010579D02*
X6526015Y-10048674D01*
X6526015Y-10048674D02*
X6526015Y-10096293D01*
X6526015Y-10096293D02*
X6516491Y-10134389D01*
X6516491Y-10134389D02*
X6506967Y-10153436D01*
X6506967Y-10153436D02*
X6497444Y-10162960D01*
X6497444Y-10162960D02*
X6478396Y-10172484D01*
X6478396Y-10172484D02*
X6459348Y-10172484D01*
X6459348Y-10172484D02*
X6440301Y-10162960D01*
X6440301Y-10162960D02*
X6430777Y-10153436D01*
X6430777Y-10153436D02*
X6421253Y-10134389D01*
X6421253Y-10134389D02*
X6411729Y-10096293D01*
X6411729Y-10096293D02*
X6411729Y-10048674D01*
X6411729Y-10048674D02*
X6421253Y-10010579D01*
X6421253Y-10010579D02*
X6430777Y-9991531D01*
X6430777Y-9991531D02*
X6440301Y-9982008D01*
X6440301Y-9982008D02*
X6459348Y-9972484D01*
X6716491Y-10172484D02*
X6602206Y-10172484D01*
X6659348Y-10172484D02*
X6659348Y-9972484D01*
X6659348Y-9972484D02*
X6640301Y-10001055D01*
X6640301Y-10001055D02*
X6621253Y-10020103D01*
X6621253Y-10020103D02*
X6602206Y-10029627D01*
X6897444Y-9972484D02*
X6802206Y-9972484D01*
X6802206Y-9972484D02*
X6792682Y-10067722D01*
X6792682Y-10067722D02*
X6802206Y-10058198D01*
X6802206Y-10058198D02*
X6821253Y-10048674D01*
X6821253Y-10048674D02*
X6868872Y-10048674D01*
X6868872Y-10048674D02*
X6887920Y-10058198D01*
X6887920Y-10058198D02*
X6897444Y-10067722D01*
X6897444Y-10067722D02*
X6906967Y-10086770D01*
X6906967Y-10086770D02*
X6906967Y-10134389D01*
X6906967Y-10134389D02*
X6897444Y-10153436D01*
X6897444Y-10153436D02*
X6887920Y-10162960D01*
X6887920Y-10162960D02*
X6868872Y-10172484D01*
X6868872Y-10172484D02*
X6821253Y-10172484D01*
X6821253Y-10172484D02*
X6802206Y-10162960D01*
X6802206Y-10162960D02*
X6792682Y-10153436D01*
X6973634Y-9972484D02*
X7106967Y-9972484D01*
X7106967Y-9972484D02*
X7021253Y-10172484D01*
X7173634Y-9972484D02*
X7173634Y-10010579D01*
X7249825Y-9972484D02*
X7249825Y-10010579D01*
X7545063Y-10248674D02*
X7535539Y-10239150D01*
X7535539Y-10239150D02*
X7516491Y-10210579D01*
X7516491Y-10210579D02*
X7506968Y-10191531D01*
X7506968Y-10191531D02*
X7497444Y-10162960D01*
X7497444Y-10162960D02*
X7487920Y-10115341D01*
X7487920Y-10115341D02*
X7487920Y-10077246D01*
X7487920Y-10077246D02*
X7497444Y-10029627D01*
X7497444Y-10029627D02*
X7506968Y-10001055D01*
X7506968Y-10001055D02*
X7516491Y-9982008D01*
X7516491Y-9982008D02*
X7535539Y-9953436D01*
X7535539Y-9953436D02*
X7545063Y-9943912D01*
X7611729Y-9991531D02*
X7621253Y-9982008D01*
X7621253Y-9982008D02*
X7640301Y-9972484D01*
X7640301Y-9972484D02*
X7687920Y-9972484D01*
X7687920Y-9972484D02*
X7706968Y-9982008D01*
X7706968Y-9982008D02*
X7716491Y-9991531D01*
X7716491Y-9991531D02*
X7726015Y-10010579D01*
X7726015Y-10010579D02*
X7726015Y-10029627D01*
X7726015Y-10029627D02*
X7716491Y-10058198D01*
X7716491Y-10058198D02*
X7602206Y-10172484D01*
X7602206Y-10172484D02*
X7726015Y-10172484D01*
X7792682Y-9972484D02*
X7916491Y-9972484D01*
X7916491Y-9972484D02*
X7849825Y-10048674D01*
X7849825Y-10048674D02*
X7878396Y-10048674D01*
X7878396Y-10048674D02*
X7897444Y-10058198D01*
X7897444Y-10058198D02*
X7906968Y-10067722D01*
X7906968Y-10067722D02*
X7916491Y-10086770D01*
X7916491Y-10086770D02*
X7916491Y-10134389D01*
X7916491Y-10134389D02*
X7906968Y-10153436D01*
X7906968Y-10153436D02*
X7897444Y-10162960D01*
X7897444Y-10162960D02*
X7878396Y-10172484D01*
X7878396Y-10172484D02*
X7821253Y-10172484D01*
X7821253Y-10172484D02*
X7802206Y-10162960D01*
X7802206Y-10162960D02*
X7792682Y-10153436D01*
X8154587Y-10172484D02*
X8154587Y-9972484D01*
X8240301Y-10172484D02*
X8240301Y-10067722D01*
X8240301Y-10067722D02*
X8230777Y-10048674D01*
X8230777Y-10048674D02*
X8211730Y-10039150D01*
X8211730Y-10039150D02*
X8183158Y-10039150D01*
X8183158Y-10039150D02*
X8164110Y-10048674D01*
X8164110Y-10048674D02*
X8154587Y-10058198D01*
X8364110Y-10172484D02*
X8345063Y-10162960D01*
X8345063Y-10162960D02*
X8335539Y-10153436D01*
X8335539Y-10153436D02*
X8326015Y-10134389D01*
X8326015Y-10134389D02*
X8326015Y-10077246D01*
X8326015Y-10077246D02*
X8335539Y-10058198D01*
X8335539Y-10058198D02*
X8345063Y-10048674D01*
X8345063Y-10048674D02*
X8364110Y-10039150D01*
X8364110Y-10039150D02*
X8392682Y-10039150D01*
X8392682Y-10039150D02*
X8411730Y-10048674D01*
X8411730Y-10048674D02*
X8421253Y-10058198D01*
X8421253Y-10058198D02*
X8430777Y-10077246D01*
X8430777Y-10077246D02*
X8430777Y-10134389D01*
X8430777Y-10134389D02*
X8421253Y-10153436D01*
X8421253Y-10153436D02*
X8411730Y-10162960D01*
X8411730Y-10162960D02*
X8392682Y-10172484D01*
X8392682Y-10172484D02*
X8364110Y-10172484D01*
X8545063Y-10172484D02*
X8526015Y-10162960D01*
X8526015Y-10162960D02*
X8516492Y-10143912D01*
X8516492Y-10143912D02*
X8516492Y-9972484D01*
X8697444Y-10162960D02*
X8678396Y-10172484D01*
X8678396Y-10172484D02*
X8640301Y-10172484D01*
X8640301Y-10172484D02*
X8621253Y-10162960D01*
X8621253Y-10162960D02*
X8611730Y-10143912D01*
X8611730Y-10143912D02*
X8611730Y-10067722D01*
X8611730Y-10067722D02*
X8621253Y-10048674D01*
X8621253Y-10048674D02*
X8640301Y-10039150D01*
X8640301Y-10039150D02*
X8678396Y-10039150D01*
X8678396Y-10039150D02*
X8697444Y-10048674D01*
X8697444Y-10048674D02*
X8706968Y-10067722D01*
X8706968Y-10067722D02*
X8706968Y-10086770D01*
X8706968Y-10086770D02*
X8611730Y-10105817D01*
X8783158Y-10162960D02*
X8802206Y-10172484D01*
X8802206Y-10172484D02*
X8840301Y-10172484D01*
X8840301Y-10172484D02*
X8859349Y-10162960D01*
X8859349Y-10162960D02*
X8868873Y-10143912D01*
X8868873Y-10143912D02*
X8868873Y-10134389D01*
X8868873Y-10134389D02*
X8859349Y-10115341D01*
X8859349Y-10115341D02*
X8840301Y-10105817D01*
X8840301Y-10105817D02*
X8811730Y-10105817D01*
X8811730Y-10105817D02*
X8792682Y-10096293D01*
X8792682Y-10096293D02*
X8783158Y-10077246D01*
X8783158Y-10077246D02*
X8783158Y-10067722D01*
X8783158Y-10067722D02*
X8792682Y-10048674D01*
X8792682Y-10048674D02*
X8811730Y-10039150D01*
X8811730Y-10039150D02*
X8840301Y-10039150D01*
X8840301Y-10039150D02*
X8859349Y-10048674D01*
X8935539Y-10248674D02*
X8945063Y-10239150D01*
X8945063Y-10239150D02*
X8964111Y-10210579D01*
X8964111Y-10210579D02*
X8973634Y-10191531D01*
X8973634Y-10191531D02*
X8983158Y-10162960D01*
X8983158Y-10162960D02*
X8992682Y-10115341D01*
X8992682Y-10115341D02*
X8992682Y-10077246D01*
X8992682Y-10077246D02*
X8983158Y-10029627D01*
X8983158Y-10029627D02*
X8973634Y-10001055D01*
X8973634Y-10001055D02*
X8964111Y-9982008D01*
X8964111Y-9982008D02*
X8945063Y-9953436D01*
X8945063Y-9953436D02*
X8935539Y-9943912D01*
D11*
X3970000Y-10345000D02*
G75*
G03*
X3893800Y-10345000I-38100J0D01*
G01*
X3893800Y-10345000D02*
G75*
G03*
X3970000Y-10345000I38100J0D01*
G01*
D10*
X4268872Y-10236484D02*
X4287920Y-10236484D01*
X4287920Y-10236484D02*
X4306967Y-10246008D01*
X4306967Y-10246008D02*
X4316491Y-10255531D01*
X4316491Y-10255531D02*
X4326015Y-10274579D01*
X4326015Y-10274579D02*
X4335539Y-10312674D01*
X4335539Y-10312674D02*
X4335539Y-10360293D01*
X4335539Y-10360293D02*
X4326015Y-10398389D01*
X4326015Y-10398389D02*
X4316491Y-10417436D01*
X4316491Y-10417436D02*
X4306967Y-10426960D01*
X4306967Y-10426960D02*
X4287920Y-10436484D01*
X4287920Y-10436484D02*
X4268872Y-10436484D01*
X4268872Y-10436484D02*
X4249824Y-10426960D01*
X4249824Y-10426960D02*
X4240301Y-10417436D01*
X4240301Y-10417436D02*
X4230777Y-10398389D01*
X4230777Y-10398389D02*
X4221253Y-10360293D01*
X4221253Y-10360293D02*
X4221253Y-10312674D01*
X4221253Y-10312674D02*
X4230777Y-10274579D01*
X4230777Y-10274579D02*
X4240301Y-10255531D01*
X4240301Y-10255531D02*
X4249824Y-10246008D01*
X4249824Y-10246008D02*
X4268872Y-10236484D01*
X4421253Y-10417436D02*
X4430777Y-10426960D01*
X4430777Y-10426960D02*
X4421253Y-10436484D01*
X4421253Y-10436484D02*
X4411729Y-10426960D01*
X4411729Y-10426960D02*
X4421253Y-10417436D01*
X4421253Y-10417436D02*
X4421253Y-10436484D01*
X4497444Y-10236484D02*
X4630777Y-10236484D01*
X4630777Y-10236484D02*
X4545063Y-10436484D01*
X4792682Y-10236484D02*
X4754586Y-10236484D01*
X4754586Y-10236484D02*
X4735539Y-10246008D01*
X4735539Y-10246008D02*
X4726015Y-10255531D01*
X4726015Y-10255531D02*
X4706967Y-10284103D01*
X4706967Y-10284103D02*
X4697444Y-10322198D01*
X4697444Y-10322198D02*
X4697444Y-10398389D01*
X4697444Y-10398389D02*
X4706967Y-10417436D01*
X4706967Y-10417436D02*
X4716491Y-10426960D01*
X4716491Y-10426960D02*
X4735539Y-10436484D01*
X4735539Y-10436484D02*
X4773634Y-10436484D01*
X4773634Y-10436484D02*
X4792682Y-10426960D01*
X4792682Y-10426960D02*
X4802205Y-10417436D01*
X4802205Y-10417436D02*
X4811729Y-10398389D01*
X4811729Y-10398389D02*
X4811729Y-10350770D01*
X4811729Y-10350770D02*
X4802205Y-10331722D01*
X4802205Y-10331722D02*
X4792682Y-10322198D01*
X4792682Y-10322198D02*
X4773634Y-10312674D01*
X4773634Y-10312674D02*
X4735539Y-10312674D01*
X4735539Y-10312674D02*
X4716491Y-10322198D01*
X4716491Y-10322198D02*
X4706967Y-10331722D01*
X4706967Y-10331722D02*
X4697444Y-10350770D01*
X4887920Y-10255531D02*
X4897444Y-10246008D01*
X4897444Y-10246008D02*
X4916491Y-10236484D01*
X4916491Y-10236484D02*
X4964110Y-10236484D01*
X4964110Y-10236484D02*
X4983158Y-10246008D01*
X4983158Y-10246008D02*
X4992682Y-10255531D01*
X4992682Y-10255531D02*
X5002205Y-10274579D01*
X5002205Y-10274579D02*
X5002205Y-10293627D01*
X5002205Y-10293627D02*
X4992682Y-10322198D01*
X4992682Y-10322198D02*
X4878396Y-10436484D01*
X4878396Y-10436484D02*
X5002205Y-10436484D01*
X5087920Y-10436484D02*
X5087920Y-10303150D01*
X5087920Y-10322198D02*
X5097444Y-10312674D01*
X5097444Y-10312674D02*
X5116491Y-10303150D01*
X5116491Y-10303150D02*
X5145063Y-10303150D01*
X5145063Y-10303150D02*
X5164110Y-10312674D01*
X5164110Y-10312674D02*
X5173634Y-10331722D01*
X5173634Y-10331722D02*
X5173634Y-10436484D01*
X5173634Y-10331722D02*
X5183158Y-10312674D01*
X5183158Y-10312674D02*
X5202205Y-10303150D01*
X5202205Y-10303150D02*
X5230777Y-10303150D01*
X5230777Y-10303150D02*
X5249825Y-10312674D01*
X5249825Y-10312674D02*
X5259348Y-10331722D01*
X5259348Y-10331722D02*
X5259348Y-10436484D01*
X5354586Y-10436484D02*
X5354586Y-10303150D01*
X5354586Y-10322198D02*
X5364110Y-10312674D01*
X5364110Y-10312674D02*
X5383158Y-10303150D01*
X5383158Y-10303150D02*
X5411729Y-10303150D01*
X5411729Y-10303150D02*
X5430777Y-10312674D01*
X5430777Y-10312674D02*
X5440301Y-10331722D01*
X5440301Y-10331722D02*
X5440301Y-10436484D01*
X5440301Y-10331722D02*
X5449825Y-10312674D01*
X5449825Y-10312674D02*
X5468872Y-10303150D01*
X5468872Y-10303150D02*
X5497444Y-10303150D01*
X5497444Y-10303150D02*
X5516491Y-10312674D01*
X5516491Y-10312674D02*
X5526015Y-10331722D01*
X5526015Y-10331722D02*
X5526015Y-10436484D01*
X5916491Y-10226960D02*
X5745063Y-10484103D01*
X6173634Y-10236484D02*
X6192682Y-10236484D01*
X6192682Y-10236484D02*
X6211729Y-10246008D01*
X6211729Y-10246008D02*
X6221253Y-10255531D01*
X6221253Y-10255531D02*
X6230777Y-10274579D01*
X6230777Y-10274579D02*
X6240301Y-10312674D01*
X6240301Y-10312674D02*
X6240301Y-10360293D01*
X6240301Y-10360293D02*
X6230777Y-10398389D01*
X6230777Y-10398389D02*
X6221253Y-10417436D01*
X6221253Y-10417436D02*
X6211729Y-10426960D01*
X6211729Y-10426960D02*
X6192682Y-10436484D01*
X6192682Y-10436484D02*
X6173634Y-10436484D01*
X6173634Y-10436484D02*
X6154586Y-10426960D01*
X6154586Y-10426960D02*
X6145063Y-10417436D01*
X6145063Y-10417436D02*
X6135539Y-10398389D01*
X6135539Y-10398389D02*
X6126015Y-10360293D01*
X6126015Y-10360293D02*
X6126015Y-10312674D01*
X6126015Y-10312674D02*
X6135539Y-10274579D01*
X6135539Y-10274579D02*
X6145063Y-10255531D01*
X6145063Y-10255531D02*
X6154586Y-10246008D01*
X6154586Y-10246008D02*
X6173634Y-10236484D01*
X6326015Y-10417436D02*
X6335539Y-10426960D01*
X6335539Y-10426960D02*
X6326015Y-10436484D01*
X6326015Y-10436484D02*
X6316491Y-10426960D01*
X6316491Y-10426960D02*
X6326015Y-10417436D01*
X6326015Y-10417436D02*
X6326015Y-10436484D01*
X6459348Y-10236484D02*
X6478396Y-10236484D01*
X6478396Y-10236484D02*
X6497444Y-10246008D01*
X6497444Y-10246008D02*
X6506967Y-10255531D01*
X6506967Y-10255531D02*
X6516491Y-10274579D01*
X6516491Y-10274579D02*
X6526015Y-10312674D01*
X6526015Y-10312674D02*
X6526015Y-10360293D01*
X6526015Y-10360293D02*
X6516491Y-10398389D01*
X6516491Y-10398389D02*
X6506967Y-10417436D01*
X6506967Y-10417436D02*
X6497444Y-10426960D01*
X6497444Y-10426960D02*
X6478396Y-10436484D01*
X6478396Y-10436484D02*
X6459348Y-10436484D01*
X6459348Y-10436484D02*
X6440301Y-10426960D01*
X6440301Y-10426960D02*
X6430777Y-10417436D01*
X6430777Y-10417436D02*
X6421253Y-10398389D01*
X6421253Y-10398389D02*
X6411729Y-10360293D01*
X6411729Y-10360293D02*
X6411729Y-10312674D01*
X6411729Y-10312674D02*
X6421253Y-10274579D01*
X6421253Y-10274579D02*
X6430777Y-10255531D01*
X6430777Y-10255531D02*
X6440301Y-10246008D01*
X6440301Y-10246008D02*
X6459348Y-10236484D01*
X6592682Y-10236484D02*
X6716491Y-10236484D01*
X6716491Y-10236484D02*
X6649825Y-10312674D01*
X6649825Y-10312674D02*
X6678396Y-10312674D01*
X6678396Y-10312674D02*
X6697444Y-10322198D01*
X6697444Y-10322198D02*
X6706967Y-10331722D01*
X6706967Y-10331722D02*
X6716491Y-10350770D01*
X6716491Y-10350770D02*
X6716491Y-10398389D01*
X6716491Y-10398389D02*
X6706967Y-10417436D01*
X6706967Y-10417436D02*
X6697444Y-10426960D01*
X6697444Y-10426960D02*
X6678396Y-10436484D01*
X6678396Y-10436484D02*
X6621253Y-10436484D01*
X6621253Y-10436484D02*
X6602206Y-10426960D01*
X6602206Y-10426960D02*
X6592682Y-10417436D01*
X6840301Y-10236484D02*
X6859348Y-10236484D01*
X6859348Y-10236484D02*
X6878396Y-10246008D01*
X6878396Y-10246008D02*
X6887920Y-10255531D01*
X6887920Y-10255531D02*
X6897444Y-10274579D01*
X6897444Y-10274579D02*
X6906967Y-10312674D01*
X6906967Y-10312674D02*
X6906967Y-10360293D01*
X6906967Y-10360293D02*
X6897444Y-10398389D01*
X6897444Y-10398389D02*
X6887920Y-10417436D01*
X6887920Y-10417436D02*
X6878396Y-10426960D01*
X6878396Y-10426960D02*
X6859348Y-10436484D01*
X6859348Y-10436484D02*
X6840301Y-10436484D01*
X6840301Y-10436484D02*
X6821253Y-10426960D01*
X6821253Y-10426960D02*
X6811729Y-10417436D01*
X6811729Y-10417436D02*
X6802206Y-10398389D01*
X6802206Y-10398389D02*
X6792682Y-10360293D01*
X6792682Y-10360293D02*
X6792682Y-10312674D01*
X6792682Y-10312674D02*
X6802206Y-10274579D01*
X6802206Y-10274579D02*
X6811729Y-10255531D01*
X6811729Y-10255531D02*
X6821253Y-10246008D01*
X6821253Y-10246008D02*
X6840301Y-10236484D01*
X7030777Y-10236484D02*
X7049825Y-10236484D01*
X7049825Y-10236484D02*
X7068872Y-10246008D01*
X7068872Y-10246008D02*
X7078396Y-10255531D01*
X7078396Y-10255531D02*
X7087920Y-10274579D01*
X7087920Y-10274579D02*
X7097444Y-10312674D01*
X7097444Y-10312674D02*
X7097444Y-10360293D01*
X7097444Y-10360293D02*
X7087920Y-10398389D01*
X7087920Y-10398389D02*
X7078396Y-10417436D01*
X7078396Y-10417436D02*
X7068872Y-10426960D01*
X7068872Y-10426960D02*
X7049825Y-10436484D01*
X7049825Y-10436484D02*
X7030777Y-10436484D01*
X7030777Y-10436484D02*
X7011729Y-10426960D01*
X7011729Y-10426960D02*
X7002206Y-10417436D01*
X7002206Y-10417436D02*
X6992682Y-10398389D01*
X6992682Y-10398389D02*
X6983158Y-10360293D01*
X6983158Y-10360293D02*
X6983158Y-10312674D01*
X6983158Y-10312674D02*
X6992682Y-10274579D01*
X6992682Y-10274579D02*
X7002206Y-10255531D01*
X7002206Y-10255531D02*
X7011729Y-10246008D01*
X7011729Y-10246008D02*
X7030777Y-10236484D01*
X7173634Y-10236484D02*
X7173634Y-10274579D01*
X7249825Y-10236484D02*
X7249825Y-10274579D01*
X7545063Y-10512674D02*
X7535539Y-10503150D01*
X7535539Y-10503150D02*
X7516491Y-10474579D01*
X7516491Y-10474579D02*
X7506968Y-10455531D01*
X7506968Y-10455531D02*
X7497444Y-10426960D01*
X7497444Y-10426960D02*
X7487920Y-10379341D01*
X7487920Y-10379341D02*
X7487920Y-10341246D01*
X7487920Y-10341246D02*
X7497444Y-10293627D01*
X7497444Y-10293627D02*
X7506968Y-10265055D01*
X7506968Y-10265055D02*
X7516491Y-10246008D01*
X7516491Y-10246008D02*
X7535539Y-10217436D01*
X7535539Y-10217436D02*
X7545063Y-10207912D01*
X7726015Y-10436484D02*
X7611729Y-10436484D01*
X7668872Y-10436484D02*
X7668872Y-10236484D01*
X7668872Y-10236484D02*
X7649825Y-10265055D01*
X7649825Y-10265055D02*
X7630777Y-10284103D01*
X7630777Y-10284103D02*
X7611729Y-10293627D01*
X7802206Y-10255531D02*
X7811729Y-10246008D01*
X7811729Y-10246008D02*
X7830777Y-10236484D01*
X7830777Y-10236484D02*
X7878396Y-10236484D01*
X7878396Y-10236484D02*
X7897444Y-10246008D01*
X7897444Y-10246008D02*
X7906968Y-10255531D01*
X7906968Y-10255531D02*
X7916491Y-10274579D01*
X7916491Y-10274579D02*
X7916491Y-10293627D01*
X7916491Y-10293627D02*
X7906968Y-10322198D01*
X7906968Y-10322198D02*
X7792682Y-10436484D01*
X7792682Y-10436484D02*
X7916491Y-10436484D01*
X8154587Y-10436484D02*
X8154587Y-10236484D01*
X8240301Y-10436484D02*
X8240301Y-10331722D01*
X8240301Y-10331722D02*
X8230777Y-10312674D01*
X8230777Y-10312674D02*
X8211730Y-10303150D01*
X8211730Y-10303150D02*
X8183158Y-10303150D01*
X8183158Y-10303150D02*
X8164110Y-10312674D01*
X8164110Y-10312674D02*
X8154587Y-10322198D01*
X8364110Y-10436484D02*
X8345063Y-10426960D01*
X8345063Y-10426960D02*
X8335539Y-10417436D01*
X8335539Y-10417436D02*
X8326015Y-10398389D01*
X8326015Y-10398389D02*
X8326015Y-10341246D01*
X8326015Y-10341246D02*
X8335539Y-10322198D01*
X8335539Y-10322198D02*
X8345063Y-10312674D01*
X8345063Y-10312674D02*
X8364110Y-10303150D01*
X8364110Y-10303150D02*
X8392682Y-10303150D01*
X8392682Y-10303150D02*
X8411730Y-10312674D01*
X8411730Y-10312674D02*
X8421253Y-10322198D01*
X8421253Y-10322198D02*
X8430777Y-10341246D01*
X8430777Y-10341246D02*
X8430777Y-10398389D01*
X8430777Y-10398389D02*
X8421253Y-10417436D01*
X8421253Y-10417436D02*
X8411730Y-10426960D01*
X8411730Y-10426960D02*
X8392682Y-10436484D01*
X8392682Y-10436484D02*
X8364110Y-10436484D01*
X8545063Y-10436484D02*
X8526015Y-10426960D01*
X8526015Y-10426960D02*
X8516492Y-10407912D01*
X8516492Y-10407912D02*
X8516492Y-10236484D01*
X8697444Y-10426960D02*
X8678396Y-10436484D01*
X8678396Y-10436484D02*
X8640301Y-10436484D01*
X8640301Y-10436484D02*
X8621253Y-10426960D01*
X8621253Y-10426960D02*
X8611730Y-10407912D01*
X8611730Y-10407912D02*
X8611730Y-10331722D01*
X8611730Y-10331722D02*
X8621253Y-10312674D01*
X8621253Y-10312674D02*
X8640301Y-10303150D01*
X8640301Y-10303150D02*
X8678396Y-10303150D01*
X8678396Y-10303150D02*
X8697444Y-10312674D01*
X8697444Y-10312674D02*
X8706968Y-10331722D01*
X8706968Y-10331722D02*
X8706968Y-10350770D01*
X8706968Y-10350770D02*
X8611730Y-10369817D01*
X8783158Y-10426960D02*
X8802206Y-10436484D01*
X8802206Y-10436484D02*
X8840301Y-10436484D01*
X8840301Y-10436484D02*
X8859349Y-10426960D01*
X8859349Y-10426960D02*
X8868873Y-10407912D01*
X8868873Y-10407912D02*
X8868873Y-10398389D01*
X8868873Y-10398389D02*
X8859349Y-10379341D01*
X8859349Y-10379341D02*
X8840301Y-10369817D01*
X8840301Y-10369817D02*
X8811730Y-10369817D01*
X8811730Y-10369817D02*
X8792682Y-10360293D01*
X8792682Y-10360293D02*
X8783158Y-10341246D01*
X8783158Y-10341246D02*
X8783158Y-10331722D01*
X8783158Y-10331722D02*
X8792682Y-10312674D01*
X8792682Y-10312674D02*
X8811730Y-10303150D01*
X8811730Y-10303150D02*
X8840301Y-10303150D01*
X8840301Y-10303150D02*
X8859349Y-10312674D01*
X8935539Y-10512674D02*
X8945063Y-10503150D01*
X8945063Y-10503150D02*
X8964111Y-10474579D01*
X8964111Y-10474579D02*
X8973634Y-10455531D01*
X8973634Y-10455531D02*
X8983158Y-10426960D01*
X8983158Y-10426960D02*
X8992682Y-10379341D01*
X8992682Y-10379341D02*
X8992682Y-10341246D01*
X8992682Y-10341246D02*
X8983158Y-10293627D01*
X8983158Y-10293627D02*
X8973634Y-10265055D01*
X8973634Y-10265055D02*
X8964111Y-10246008D01*
X8964111Y-10246008D02*
X8945063Y-10217436D01*
X8945063Y-10217436D02*
X8935539Y-10207912D01*
D11*
X3920000Y-10559000D02*
X3920000Y-10659000D01*
X3870000Y-10609000D02*
X3970000Y-10609000D01*
D10*
X4335539Y-10700484D02*
X4221253Y-10700484D01*
X4278396Y-10700484D02*
X4278396Y-10500484D01*
X4278396Y-10500484D02*
X4259348Y-10529055D01*
X4259348Y-10529055D02*
X4240301Y-10548103D01*
X4240301Y-10548103D02*
X4221253Y-10557627D01*
X4421253Y-10681436D02*
X4430777Y-10690960D01*
X4430777Y-10690960D02*
X4421253Y-10700484D01*
X4421253Y-10700484D02*
X4411729Y-10690960D01*
X4411729Y-10690960D02*
X4421253Y-10681436D01*
X4421253Y-10681436D02*
X4421253Y-10700484D01*
X4554586Y-10500484D02*
X4573634Y-10500484D01*
X4573634Y-10500484D02*
X4592682Y-10510008D01*
X4592682Y-10510008D02*
X4602205Y-10519531D01*
X4602205Y-10519531D02*
X4611729Y-10538579D01*
X4611729Y-10538579D02*
X4621253Y-10576674D01*
X4621253Y-10576674D02*
X4621253Y-10624293D01*
X4621253Y-10624293D02*
X4611729Y-10662389D01*
X4611729Y-10662389D02*
X4602205Y-10681436D01*
X4602205Y-10681436D02*
X4592682Y-10690960D01*
X4592682Y-10690960D02*
X4573634Y-10700484D01*
X4573634Y-10700484D02*
X4554586Y-10700484D01*
X4554586Y-10700484D02*
X4535539Y-10690960D01*
X4535539Y-10690960D02*
X4526015Y-10681436D01*
X4526015Y-10681436D02*
X4516491Y-10662389D01*
X4516491Y-10662389D02*
X4506967Y-10624293D01*
X4506967Y-10624293D02*
X4506967Y-10576674D01*
X4506967Y-10576674D02*
X4516491Y-10538579D01*
X4516491Y-10538579D02*
X4526015Y-10519531D01*
X4526015Y-10519531D02*
X4535539Y-10510008D01*
X4535539Y-10510008D02*
X4554586Y-10500484D01*
X4745063Y-10500484D02*
X4764110Y-10500484D01*
X4764110Y-10500484D02*
X4783158Y-10510008D01*
X4783158Y-10510008D02*
X4792682Y-10519531D01*
X4792682Y-10519531D02*
X4802205Y-10538579D01*
X4802205Y-10538579D02*
X4811729Y-10576674D01*
X4811729Y-10576674D02*
X4811729Y-10624293D01*
X4811729Y-10624293D02*
X4802205Y-10662389D01*
X4802205Y-10662389D02*
X4792682Y-10681436D01*
X4792682Y-10681436D02*
X4783158Y-10690960D01*
X4783158Y-10690960D02*
X4764110Y-10700484D01*
X4764110Y-10700484D02*
X4745063Y-10700484D01*
X4745063Y-10700484D02*
X4726015Y-10690960D01*
X4726015Y-10690960D02*
X4716491Y-10681436D01*
X4716491Y-10681436D02*
X4706967Y-10662389D01*
X4706967Y-10662389D02*
X4697444Y-10624293D01*
X4697444Y-10624293D02*
X4697444Y-10576674D01*
X4697444Y-10576674D02*
X4706967Y-10538579D01*
X4706967Y-10538579D02*
X4716491Y-10519531D01*
X4716491Y-10519531D02*
X4726015Y-10510008D01*
X4726015Y-10510008D02*
X4745063Y-10500484D01*
X4935539Y-10500484D02*
X4954586Y-10500484D01*
X4954586Y-10500484D02*
X4973634Y-10510008D01*
X4973634Y-10510008D02*
X4983158Y-10519531D01*
X4983158Y-10519531D02*
X4992682Y-10538579D01*
X4992682Y-10538579D02*
X5002205Y-10576674D01*
X5002205Y-10576674D02*
X5002205Y-10624293D01*
X5002205Y-10624293D02*
X4992682Y-10662389D01*
X4992682Y-10662389D02*
X4983158Y-10681436D01*
X4983158Y-10681436D02*
X4973634Y-10690960D01*
X4973634Y-10690960D02*
X4954586Y-10700484D01*
X4954586Y-10700484D02*
X4935539Y-10700484D01*
X4935539Y-10700484D02*
X4916491Y-10690960D01*
X4916491Y-10690960D02*
X4906967Y-10681436D01*
X4906967Y-10681436D02*
X4897444Y-10662389D01*
X4897444Y-10662389D02*
X4887920Y-10624293D01*
X4887920Y-10624293D02*
X4887920Y-10576674D01*
X4887920Y-10576674D02*
X4897444Y-10538579D01*
X4897444Y-10538579D02*
X4906967Y-10519531D01*
X4906967Y-10519531D02*
X4916491Y-10510008D01*
X4916491Y-10510008D02*
X4935539Y-10500484D01*
X5087920Y-10700484D02*
X5087920Y-10567150D01*
X5087920Y-10586198D02*
X5097444Y-10576674D01*
X5097444Y-10576674D02*
X5116491Y-10567150D01*
X5116491Y-10567150D02*
X5145063Y-10567150D01*
X5145063Y-10567150D02*
X5164110Y-10576674D01*
X5164110Y-10576674D02*
X5173634Y-10595722D01*
X5173634Y-10595722D02*
X5173634Y-10700484D01*
X5173634Y-10595722D02*
X5183158Y-10576674D01*
X5183158Y-10576674D02*
X5202205Y-10567150D01*
X5202205Y-10567150D02*
X5230777Y-10567150D01*
X5230777Y-10567150D02*
X5249825Y-10576674D01*
X5249825Y-10576674D02*
X5259348Y-10595722D01*
X5259348Y-10595722D02*
X5259348Y-10700484D01*
X5354586Y-10700484D02*
X5354586Y-10567150D01*
X5354586Y-10586198D02*
X5364110Y-10576674D01*
X5364110Y-10576674D02*
X5383158Y-10567150D01*
X5383158Y-10567150D02*
X5411729Y-10567150D01*
X5411729Y-10567150D02*
X5430777Y-10576674D01*
X5430777Y-10576674D02*
X5440301Y-10595722D01*
X5440301Y-10595722D02*
X5440301Y-10700484D01*
X5440301Y-10595722D02*
X5449825Y-10576674D01*
X5449825Y-10576674D02*
X5468872Y-10567150D01*
X5468872Y-10567150D02*
X5497444Y-10567150D01*
X5497444Y-10567150D02*
X5516491Y-10576674D01*
X5516491Y-10576674D02*
X5526015Y-10595722D01*
X5526015Y-10595722D02*
X5526015Y-10700484D01*
X5916491Y-10490960D02*
X5745063Y-10748103D01*
X6173634Y-10500484D02*
X6192682Y-10500484D01*
X6192682Y-10500484D02*
X6211729Y-10510008D01*
X6211729Y-10510008D02*
X6221253Y-10519531D01*
X6221253Y-10519531D02*
X6230777Y-10538579D01*
X6230777Y-10538579D02*
X6240301Y-10576674D01*
X6240301Y-10576674D02*
X6240301Y-10624293D01*
X6240301Y-10624293D02*
X6230777Y-10662389D01*
X6230777Y-10662389D02*
X6221253Y-10681436D01*
X6221253Y-10681436D02*
X6211729Y-10690960D01*
X6211729Y-10690960D02*
X6192682Y-10700484D01*
X6192682Y-10700484D02*
X6173634Y-10700484D01*
X6173634Y-10700484D02*
X6154586Y-10690960D01*
X6154586Y-10690960D02*
X6145063Y-10681436D01*
X6145063Y-10681436D02*
X6135539Y-10662389D01*
X6135539Y-10662389D02*
X6126015Y-10624293D01*
X6126015Y-10624293D02*
X6126015Y-10576674D01*
X6126015Y-10576674D02*
X6135539Y-10538579D01*
X6135539Y-10538579D02*
X6145063Y-10519531D01*
X6145063Y-10519531D02*
X6154586Y-10510008D01*
X6154586Y-10510008D02*
X6173634Y-10500484D01*
X6326015Y-10681436D02*
X6335539Y-10690960D01*
X6335539Y-10690960D02*
X6326015Y-10700484D01*
X6326015Y-10700484D02*
X6316491Y-10690960D01*
X6316491Y-10690960D02*
X6326015Y-10681436D01*
X6326015Y-10681436D02*
X6326015Y-10700484D01*
X6459348Y-10500484D02*
X6478396Y-10500484D01*
X6478396Y-10500484D02*
X6497444Y-10510008D01*
X6497444Y-10510008D02*
X6506967Y-10519531D01*
X6506967Y-10519531D02*
X6516491Y-10538579D01*
X6516491Y-10538579D02*
X6526015Y-10576674D01*
X6526015Y-10576674D02*
X6526015Y-10624293D01*
X6526015Y-10624293D02*
X6516491Y-10662389D01*
X6516491Y-10662389D02*
X6506967Y-10681436D01*
X6506967Y-10681436D02*
X6497444Y-10690960D01*
X6497444Y-10690960D02*
X6478396Y-10700484D01*
X6478396Y-10700484D02*
X6459348Y-10700484D01*
X6459348Y-10700484D02*
X6440301Y-10690960D01*
X6440301Y-10690960D02*
X6430777Y-10681436D01*
X6430777Y-10681436D02*
X6421253Y-10662389D01*
X6421253Y-10662389D02*
X6411729Y-10624293D01*
X6411729Y-10624293D02*
X6411729Y-10576674D01*
X6411729Y-10576674D02*
X6421253Y-10538579D01*
X6421253Y-10538579D02*
X6430777Y-10519531D01*
X6430777Y-10519531D02*
X6440301Y-10510008D01*
X6440301Y-10510008D02*
X6459348Y-10500484D01*
X6592682Y-10500484D02*
X6716491Y-10500484D01*
X6716491Y-10500484D02*
X6649825Y-10576674D01*
X6649825Y-10576674D02*
X6678396Y-10576674D01*
X6678396Y-10576674D02*
X6697444Y-10586198D01*
X6697444Y-10586198D02*
X6706967Y-10595722D01*
X6706967Y-10595722D02*
X6716491Y-10614770D01*
X6716491Y-10614770D02*
X6716491Y-10662389D01*
X6716491Y-10662389D02*
X6706967Y-10681436D01*
X6706967Y-10681436D02*
X6697444Y-10690960D01*
X6697444Y-10690960D02*
X6678396Y-10700484D01*
X6678396Y-10700484D02*
X6621253Y-10700484D01*
X6621253Y-10700484D02*
X6602206Y-10690960D01*
X6602206Y-10690960D02*
X6592682Y-10681436D01*
X6811729Y-10700484D02*
X6849825Y-10700484D01*
X6849825Y-10700484D02*
X6868872Y-10690960D01*
X6868872Y-10690960D02*
X6878396Y-10681436D01*
X6878396Y-10681436D02*
X6897444Y-10652865D01*
X6897444Y-10652865D02*
X6906967Y-10614770D01*
X6906967Y-10614770D02*
X6906967Y-10538579D01*
X6906967Y-10538579D02*
X6897444Y-10519531D01*
X6897444Y-10519531D02*
X6887920Y-10510008D01*
X6887920Y-10510008D02*
X6868872Y-10500484D01*
X6868872Y-10500484D02*
X6830777Y-10500484D01*
X6830777Y-10500484D02*
X6811729Y-10510008D01*
X6811729Y-10510008D02*
X6802206Y-10519531D01*
X6802206Y-10519531D02*
X6792682Y-10538579D01*
X6792682Y-10538579D02*
X6792682Y-10586198D01*
X6792682Y-10586198D02*
X6802206Y-10605246D01*
X6802206Y-10605246D02*
X6811729Y-10614770D01*
X6811729Y-10614770D02*
X6830777Y-10624293D01*
X6830777Y-10624293D02*
X6868872Y-10624293D01*
X6868872Y-10624293D02*
X6887920Y-10614770D01*
X6887920Y-10614770D02*
X6897444Y-10605246D01*
X6897444Y-10605246D02*
X6906967Y-10586198D01*
X7078396Y-10567150D02*
X7078396Y-10700484D01*
X7030777Y-10490960D02*
X6983158Y-10633817D01*
X6983158Y-10633817D02*
X7106967Y-10633817D01*
X7173634Y-10500484D02*
X7173634Y-10538579D01*
X7249825Y-10500484D02*
X7249825Y-10538579D01*
X7545063Y-10776674D02*
X7535539Y-10767150D01*
X7535539Y-10767150D02*
X7516491Y-10738579D01*
X7516491Y-10738579D02*
X7506968Y-10719531D01*
X7506968Y-10719531D02*
X7497444Y-10690960D01*
X7497444Y-10690960D02*
X7487920Y-10643341D01*
X7487920Y-10643341D02*
X7487920Y-10605246D01*
X7487920Y-10605246D02*
X7497444Y-10557627D01*
X7497444Y-10557627D02*
X7506968Y-10529055D01*
X7506968Y-10529055D02*
X7516491Y-10510008D01*
X7516491Y-10510008D02*
X7535539Y-10481436D01*
X7535539Y-10481436D02*
X7545063Y-10471912D01*
X7726015Y-10700484D02*
X7611729Y-10700484D01*
X7668872Y-10700484D02*
X7668872Y-10500484D01*
X7668872Y-10500484D02*
X7649825Y-10529055D01*
X7649825Y-10529055D02*
X7630777Y-10548103D01*
X7630777Y-10548103D02*
X7611729Y-10557627D01*
X7964110Y-10700484D02*
X7964110Y-10500484D01*
X8049825Y-10700484D02*
X8049825Y-10595722D01*
X8049825Y-10595722D02*
X8040301Y-10576674D01*
X8040301Y-10576674D02*
X8021253Y-10567150D01*
X8021253Y-10567150D02*
X7992682Y-10567150D01*
X7992682Y-10567150D02*
X7973634Y-10576674D01*
X7973634Y-10576674D02*
X7964110Y-10586198D01*
X8173634Y-10700484D02*
X8154587Y-10690960D01*
X8154587Y-10690960D02*
X8145063Y-10681436D01*
X8145063Y-10681436D02*
X8135539Y-10662389D01*
X8135539Y-10662389D02*
X8135539Y-10605246D01*
X8135539Y-10605246D02*
X8145063Y-10586198D01*
X8145063Y-10586198D02*
X8154587Y-10576674D01*
X8154587Y-10576674D02*
X8173634Y-10567150D01*
X8173634Y-10567150D02*
X8202206Y-10567150D01*
X8202206Y-10567150D02*
X8221253Y-10576674D01*
X8221253Y-10576674D02*
X8230777Y-10586198D01*
X8230777Y-10586198D02*
X8240301Y-10605246D01*
X8240301Y-10605246D02*
X8240301Y-10662389D01*
X8240301Y-10662389D02*
X8230777Y-10681436D01*
X8230777Y-10681436D02*
X8221253Y-10690960D01*
X8221253Y-10690960D02*
X8202206Y-10700484D01*
X8202206Y-10700484D02*
X8173634Y-10700484D01*
X8354587Y-10700484D02*
X8335539Y-10690960D01*
X8335539Y-10690960D02*
X8326015Y-10671912D01*
X8326015Y-10671912D02*
X8326015Y-10500484D01*
X8506968Y-10690960D02*
X8487920Y-10700484D01*
X8487920Y-10700484D02*
X8449825Y-10700484D01*
X8449825Y-10700484D02*
X8430777Y-10690960D01*
X8430777Y-10690960D02*
X8421253Y-10671912D01*
X8421253Y-10671912D02*
X8421253Y-10595722D01*
X8421253Y-10595722D02*
X8430777Y-10576674D01*
X8430777Y-10576674D02*
X8449825Y-10567150D01*
X8449825Y-10567150D02*
X8487920Y-10567150D01*
X8487920Y-10567150D02*
X8506968Y-10576674D01*
X8506968Y-10576674D02*
X8516492Y-10595722D01*
X8516492Y-10595722D02*
X8516492Y-10614770D01*
X8516492Y-10614770D02*
X8421253Y-10633817D01*
X8583158Y-10776674D02*
X8592682Y-10767150D01*
X8592682Y-10767150D02*
X8611730Y-10738579D01*
X8611730Y-10738579D02*
X8621253Y-10719531D01*
X8621253Y-10719531D02*
X8630777Y-10690960D01*
X8630777Y-10690960D02*
X8640301Y-10643341D01*
X8640301Y-10643341D02*
X8640301Y-10605246D01*
X8640301Y-10605246D02*
X8630777Y-10557627D01*
X8630777Y-10557627D02*
X8621253Y-10529055D01*
X8621253Y-10529055D02*
X8611730Y-10510008D01*
X8611730Y-10510008D02*
X8592682Y-10481436D01*
X8592682Y-10481436D02*
X8583158Y-10471912D01*
M02*
