%TF.GenerationSoftware,KiCad,Pcbnew,7.0.10*%
%TF.CreationDate,2024-03-06T16:53:12-05:00*%
%TF.ProjectId,Power_Supply,506f7765-725f-4537-9570-706c792e6b69,rev?*%
%TF.SameCoordinates,Original*%
%TF.FileFunction,Copper,L2,Bot*%
%TF.FilePolarity,Positive*%
%FSLAX46Y46*%
G04 Gerber Fmt 4.6, Leading zero omitted, Abs format (unit mm)*
G04 Created by KiCad (PCBNEW 7.0.10) date 2024-03-06 16:53:12*
%MOMM*%
%LPD*%
G01*
G04 APERTURE LIST*
G04 Aperture macros list*
%AMRoundRect*
0 Rectangle with rounded corners*
0 $1 Rounding radius*
0 $2 $3 $4 $5 $6 $7 $8 $9 X,Y pos of 4 corners*
0 Add a 4 corners polygon primitive as box body*
4,1,4,$2,$3,$4,$5,$6,$7,$8,$9,$2,$3,0*
0 Add four circle primitives for the rounded corners*
1,1,$1+$1,$2,$3*
1,1,$1+$1,$4,$5*
1,1,$1+$1,$6,$7*
1,1,$1+$1,$8,$9*
0 Add four rect primitives between the rounded corners*
20,1,$1+$1,$2,$3,$4,$5,0*
20,1,$1+$1,$4,$5,$6,$7,0*
20,1,$1+$1,$6,$7,$8,$9,0*
20,1,$1+$1,$8,$9,$2,$3,0*%
G04 Aperture macros list end*
%TA.AperFunction,ComponentPad*%
%ADD10R,2.600000X2.600000*%
%TD*%
%TA.AperFunction,ComponentPad*%
%ADD11C,2.600000*%
%TD*%
%TA.AperFunction,ComponentPad*%
%ADD12R,1.700000X1.700000*%
%TD*%
%TA.AperFunction,ComponentPad*%
%ADD13O,1.700000X1.700000*%
%TD*%
%TA.AperFunction,ComponentPad*%
%ADD14C,1.524000*%
%TD*%
%TA.AperFunction,ComponentPad*%
%ADD15RoundRect,1.500000X-1.500000X1.500000X-1.500000X-1.500000X1.500000X-1.500000X1.500000X1.500000X0*%
%TD*%
%TA.AperFunction,ComponentPad*%
%ADD16C,6.000000*%
%TD*%
%TA.AperFunction,ViaPad*%
%ADD17C,0.800000*%
%TD*%
%TA.AperFunction,ViaPad*%
%ADD18C,1.400000*%
%TD*%
%TA.AperFunction,Conductor*%
%ADD19C,4.000000*%
%TD*%
%TA.AperFunction,Conductor*%
%ADD20C,3.600000*%
%TD*%
%TA.AperFunction,Conductor*%
%ADD21C,2.000000*%
%TD*%
%TA.AperFunction,Conductor*%
%ADD22C,0.250000*%
%TD*%
G04 APERTURE END LIST*
D10*
%TO.P,Jetson1,1*%
%TO.N,Net-(Jetson1-Pad1)*%
X112510000Y-217890000D03*
D11*
%TO.P,Jetson1,2*%
%TO.N,GND*%
X106510000Y-217890000D03*
%TO.P,Jetson1,3*%
X109510000Y-222590000D03*
%TD*%
%TO.P,MCU1,3*%
%TO.N,GND*%
X109580000Y-72170000D03*
%TO.P,MCU1,2*%
X106580000Y-67470000D03*
D10*
%TO.P,MCU1,1*%
%TO.N,Net-(3.3V1-Vout+)*%
X112580000Y-67470000D03*
%TD*%
D12*
%TO.P,Servo_Shift1,1,VDD*%
%TO.N,Net-(6.8V1-Vout+)*%
X155355003Y-73803332D03*
D13*
%TO.P,Servo_Shift1,2,GND*%
%TO.N,GND*%
X157895003Y-73803332D03*
%TO.P,Servo_Shift1,3,PWM*%
%TO.N,MOTOR_SHIFT1*%
X160435003Y-73803332D03*
%TD*%
D14*
%TO.P,6.8V3,1,Vin+*%
%TO.N,12V*%
X223300000Y-125410000D03*
%TO.P,6.8V3,2,Vin-*%
%TO.N,GND*%
X241080000Y-125410000D03*
%TO.P,6.8V3,3,Vout+*%
%TO.N,Net-(6.8V3-Vout+)*%
X223300000Y-84770000D03*
%TO.P,6.8V3,4,Vout-*%
%TO.N,GND*%
X241080000Y-84770000D03*
%TD*%
%TO.P,6.8V1,1,Vin+*%
%TO.N,12V*%
X149150000Y-125610000D03*
%TO.P,6.8V1,2,Vin-*%
%TO.N,GND*%
X166930000Y-125610000D03*
%TO.P,6.8V1,3,Vout+*%
%TO.N,Net-(6.8V1-Vout+)*%
X149150000Y-84970000D03*
%TO.P,6.8V1,4,Vout-*%
%TO.N,GND*%
X166930000Y-84970000D03*
%TD*%
%TO.P,6.8V2,1,Vin+*%
%TO.N,12V*%
X184670000Y-125390000D03*
%TO.P,6.8V2,2,Vin-*%
%TO.N,GND*%
X202450000Y-125390000D03*
%TO.P,6.8V2,3,Vout+*%
%TO.N,Net-(6.8V2-Vout+)*%
X184670000Y-84750000D03*
%TO.P,6.8V2,4,Vout-*%
%TO.N,GND*%
X202450000Y-84750000D03*
%TD*%
%TO.P,3.3V1,1,Vin+*%
%TO.N,12V*%
X114080000Y-125430000D03*
%TO.P,3.3V1,2,Vin-*%
%TO.N,GND*%
X131860000Y-125430000D03*
%TO.P,3.3V1,3,Vout+*%
%TO.N,Net-(3.3V1-Vout+)*%
X114080000Y-84790000D03*
%TO.P,3.3V1,4,Vout-*%
%TO.N,GND*%
X131860000Y-84790000D03*
%TD*%
D12*
%TO.P,Servo_Shift3,1,VDD*%
%TO.N,Net-(6.8V3-Vout+)*%
X225753003Y-73803332D03*
D13*
%TO.P,Servo_Shift3,2,GND*%
%TO.N,GND*%
X228293003Y-73803332D03*
%TO.P,Servo_Shift3,3,PWM*%
%TO.N,MOTOR_SHIFT3*%
X230833003Y-73803332D03*
%TD*%
D12*
%TO.P,Servo_Swing1,1,VDD*%
%TO.N,Net-(6.8V4-Vout+)*%
X234968000Y-217200000D03*
D13*
%TO.P,Servo_Swing1,2,GND*%
%TO.N,GND*%
X232428000Y-217200000D03*
%TO.P,Servo_Swing1,3,PWM*%
%TO.N,MOTOR_SWING*%
X229888000Y-217200000D03*
%TD*%
D14*
%TO.P,6.8V5,1,Vin+*%
%TO.N,12V*%
X206360000Y-165080000D03*
%TO.P,6.8V5,2,Vin-*%
%TO.N,GND*%
X188580000Y-165080000D03*
%TO.P,6.8V5,3,Vout+*%
%TO.N,Net-(6.8V5-Vout+)*%
X206360000Y-205720000D03*
%TO.P,6.8V5,4,Vout-*%
%TO.N,GND*%
X188580000Y-205720000D03*
%TD*%
D15*
%TO.P,XT60,1,Power*%
%TO.N,12V*%
X105800000Y-172510000D03*
D16*
%TO.P,XT60,2,GND*%
%TO.N,GND*%
X105800000Y-179710000D03*
%TD*%
D10*
%TO.P,Main_Power1,1*%
%TO.N,12V*%
X112600000Y-146690000D03*
D11*
%TO.P,Main_Power1,2*%
%TO.N,GND*%
X106600000Y-146690000D03*
%TO.P,Main_Power1,3*%
X109600000Y-151390000D03*
%TD*%
D14*
%TO.P,6.8V4,1,Vin+*%
%TO.N,12V*%
X241140000Y-165700000D03*
%TO.P,6.8V4,2,Vin-*%
%TO.N,GND*%
X223360000Y-165700000D03*
%TO.P,6.8V4,3,Vout+*%
%TO.N,Net-(6.8V4-Vout+)*%
X241140000Y-206340000D03*
%TO.P,6.8V4,4,Vout-*%
%TO.N,GND*%
X223360000Y-206340000D03*
%TD*%
%TO.P,6.8V6,1,Vin+*%
%TO.N,12V*%
X171220000Y-165090000D03*
%TO.P,6.8V6,2,Vin-*%
%TO.N,GND*%
X153440000Y-165090000D03*
%TO.P,6.8V6,3,Vout+*%
%TO.N,Net-(6.8V6-Vout+)*%
X171220000Y-205730000D03*
%TO.P,6.8V6,4,Vout-*%
%TO.N,GND*%
X153440000Y-205730000D03*
%TD*%
D12*
%TO.P,Servo_Swing3,1,VDD*%
%TO.N,Net-(6.8V6-Vout+)*%
X164570000Y-217200000D03*
D13*
%TO.P,Servo_Swing3,2,GND*%
%TO.N,GND*%
X162030000Y-217200000D03*
%TO.P,Servo_Swing3,3,PWM*%
%TO.N,MOTOR_SWING*%
X159490000Y-217200000D03*
%TD*%
D12*
%TO.P,Control_Port1,1,VDD*%
%TO.N,unconnected-(Control_Port1-VDD-Pad1)*%
X250936668Y-127280000D03*
D13*
%TO.P,Control_Port1,2,GND*%
%TO.N,unconnected-(Control_Port1-GND-Pad2)*%
X250936668Y-129820000D03*
%TO.P,Control_Port1,3,PWM1*%
%TO.N,MOTOR_SHIFT1*%
X250936668Y-132360000D03*
%TO.P,Control_Port1,4,PWM2*%
%TO.N,MOTOR_SHIFT2*%
X250936668Y-134900000D03*
%TO.P,Control_Port1,5,PWM3*%
%TO.N,MOTOR_SHIFT3*%
X250936668Y-137440000D03*
%TO.P,Control_Port1,6,PWM4*%
%TO.N,MOTOR_SWING*%
X250936668Y-139980000D03*
%TD*%
D12*
%TO.P,Servo_Swing2,1,VDD*%
%TO.N,Net-(6.8V5-Vout+)*%
X199769000Y-217200000D03*
D13*
%TO.P,Servo_Swing2,2,GND*%
%TO.N,GND*%
X197229000Y-217200000D03*
%TO.P,Servo_Swing2,3,PWM*%
%TO.N,MOTOR_SWING*%
X194689000Y-217200000D03*
%TD*%
D12*
%TO.P,Servo_Shift2,1,VDD*%
%TO.N,Net-(6.8V2-Vout+)*%
X190554003Y-73803332D03*
D13*
%TO.P,Servo_Shift2,2,GND*%
%TO.N,GND*%
X193094003Y-73803332D03*
%TO.P,Servo_Shift2,3,PWM*%
%TO.N,MOTOR_SHIFT2*%
X195634003Y-73803332D03*
%TD*%
D12*
%TO.P,U1,1,Vout*%
%TO.N,Net-(Jetson1-Pad1)*%
X129410000Y-177950000D03*
D13*
%TO.P,U1,2,GND*%
%TO.N,GND*%
X131950000Y-177950000D03*
%TO.P,U1,3,GND*%
X134490000Y-177950000D03*
%TO.P,U1,4,Vin*%
%TO.N,12V*%
X137030000Y-177950000D03*
%TO.P,U1,5,VRP*%
%TO.N,unconnected-(U1-VRP-Pad5)*%
X139570000Y-177950000D03*
%TO.P,U1,6,EN*%
%TO.N,unconnected-(U1-EN-Pad6)*%
X142110000Y-177950000D03*
%TO.P,U1,7,Vout*%
%TO.N,unconnected-(U1-Vout-Pad7)*%
X129410000Y-175410000D03*
%TO.P,U1,8,GND*%
%TO.N,GND*%
X131950000Y-175410000D03*
%TO.P,U1,9,GND*%
X134490000Y-175410000D03*
%TO.P,U1,10,Vin*%
%TO.N,12V*%
X137030000Y-175410000D03*
%TO.P,U1,11,VRP*%
%TO.N,unconnected-(U1-VRP-Pad11)*%
X139570000Y-175410000D03*
%TO.P,U1,12,PG*%
%TO.N,unconnected-(U1-PG-Pad12)*%
X142110000Y-175410000D03*
%TD*%
D17*
%TO.N,GND*%
X142200000Y-126410000D03*
D18*
X107020000Y-197430000D03*
D17*
X147510000Y-137380000D03*
%TD*%
D19*
%TO.N,GND*%
X147440000Y-165510000D02*
X153660000Y-165510000D01*
X133750000Y-151820000D02*
X147440000Y-165510000D01*
X115330000Y-151820000D02*
X133750000Y-151820000D01*
X115230000Y-151920000D02*
X115330000Y-151820000D01*
X117140000Y-164720000D02*
X117760000Y-164720000D01*
X115230000Y-151920000D02*
X115230000Y-162810000D01*
D20*
X114463332Y-150953332D02*
X110036668Y-150953332D01*
X110036668Y-150953332D02*
X109600000Y-151390000D01*
D19*
X115230000Y-162810000D02*
X117140000Y-164720000D01*
D20*
X102810000Y-142900000D02*
X102810000Y-141220000D01*
X109600000Y-149690000D02*
X102810000Y-142900000D01*
X109600000Y-151390000D02*
X109600000Y-149690000D01*
D21*
X106510000Y-208850000D02*
X106510000Y-219590000D01*
X106510000Y-219590000D02*
X109510000Y-222590000D01*
X131950000Y-183410000D02*
X106510000Y-208850000D01*
X131950000Y-177950000D02*
X131950000Y-183410000D01*
X109580000Y-74950000D02*
X109580000Y-72170000D01*
X113180000Y-78550000D02*
X109580000Y-74950000D01*
X130360000Y-78550000D02*
X113180000Y-78550000D01*
X131860000Y-80050000D02*
X130360000Y-78550000D01*
X131860000Y-84790000D02*
X131860000Y-80050000D01*
X109580000Y-72170000D02*
X109580000Y-70470000D01*
X109580000Y-70470000D02*
X106580000Y-67470000D01*
D19*
X127080003Y-134293332D02*
X131860000Y-129513335D01*
X105376668Y-134293332D02*
X127080003Y-134293332D01*
X102810000Y-136860000D02*
X105376668Y-134293332D01*
X131860000Y-129513335D02*
X131860000Y-84790000D01*
X102810000Y-141220000D02*
X102810000Y-136860000D01*
X117760000Y-176740000D02*
X114790000Y-179710000D01*
X114790000Y-179710000D02*
X105800000Y-179710000D01*
X117760000Y-164720000D02*
X117760000Y-176740000D01*
D21*
X188960000Y-205800000D02*
X197229000Y-214069000D01*
D19*
X223826668Y-165510000D02*
X217710000Y-165510000D01*
X188743335Y-165510000D02*
X188743335Y-205556665D01*
X240420000Y-125550000D02*
X242950000Y-123020000D01*
D22*
X147510000Y-134750000D02*
X142200000Y-129440000D01*
D20*
X240400000Y-125370000D02*
X240400000Y-125570000D01*
D19*
X168270000Y-157350000D02*
X160110000Y-165510000D01*
D21*
X131980000Y-177990000D02*
X134520000Y-177990000D01*
D19*
X206830000Y-89130000D02*
X202450000Y-84750000D01*
X242950000Y-123020000D02*
X242950000Y-86640000D01*
X166930000Y-125610000D02*
X161330000Y-120010000D01*
X206660000Y-154460000D02*
X194060000Y-154460000D01*
X217710000Y-165510000D02*
X206660000Y-154460000D01*
D21*
X153670000Y-206080000D02*
X156190000Y-208600000D01*
D19*
X240450000Y-141926668D02*
X223826668Y-158550000D01*
X206830000Y-124700000D02*
X206830000Y-89130000D01*
D21*
X131980000Y-175450000D02*
X131980000Y-177990000D01*
X194970000Y-78340000D02*
X193094003Y-76464003D01*
D19*
X223826668Y-165510000D02*
X223826668Y-205873332D01*
D21*
X166930000Y-84970000D02*
X166930000Y-79980000D01*
X166930000Y-79980000D02*
X165320000Y-78370000D01*
X242950000Y-86640000D02*
X241080000Y-84770000D01*
X156190000Y-208600000D02*
X159490000Y-208600000D01*
X202450000Y-79970000D02*
X200820000Y-78340000D01*
D19*
X223826668Y-158550000D02*
X223826668Y-165510000D01*
D22*
X142200000Y-129440000D02*
X142200000Y-126410000D01*
D19*
X185230000Y-165510000D02*
X177070000Y-157350000D01*
D21*
X131980000Y-175450000D02*
X134520000Y-175450000D01*
X228293003Y-76593003D02*
X229420000Y-77720000D01*
X188580000Y-205800000D02*
X188960000Y-205800000D01*
X131980000Y-175450000D02*
X131940000Y-175410000D01*
X202450000Y-84750000D02*
X202450000Y-79970000D01*
D20*
X172080000Y-120460000D02*
X197520000Y-120460000D01*
D19*
X160110000Y-165510000D02*
X153660000Y-165510000D01*
D20*
X213646668Y-125493332D02*
X217940000Y-121200000D01*
D21*
X223360000Y-206390000D02*
X232428000Y-215458000D01*
D20*
X217940000Y-121200000D02*
X236230000Y-121200000D01*
D21*
X131860000Y-170740000D02*
X131860000Y-175455000D01*
D20*
X202553332Y-125493332D02*
X213646668Y-125493332D01*
D21*
X159470000Y-78370000D02*
X157895003Y-76795003D01*
X240400000Y-84090000D02*
X241080000Y-84770000D01*
D19*
X153660000Y-165510000D02*
X153660000Y-206070000D01*
D21*
X200820000Y-78340000D02*
X194970000Y-78340000D01*
D19*
X161330000Y-120010000D02*
X161330000Y-95430000D01*
D21*
X240400000Y-79660000D02*
X240400000Y-84090000D01*
D20*
X197520000Y-120460000D02*
X202450000Y-125390000D01*
X236230000Y-121200000D02*
X240400000Y-125370000D01*
D19*
X161330000Y-95430000D02*
X166930000Y-89830000D01*
D21*
X232428000Y-215458000D02*
X232428000Y-217200000D01*
D19*
X240450000Y-125620000D02*
X240450000Y-141926668D01*
D21*
X157895003Y-76795003D02*
X157895003Y-73803332D01*
D19*
X131370000Y-170250000D02*
X125840000Y-164720000D01*
D20*
X153660000Y-206070000D02*
X153670000Y-206080000D01*
D21*
X238460000Y-77720000D02*
X240400000Y-79660000D01*
D20*
X202450000Y-125390000D02*
X202553332Y-125493332D01*
D21*
X131370000Y-170250000D02*
X131860000Y-170740000D01*
D20*
X240400000Y-125570000D02*
X240420000Y-125550000D01*
D19*
X194060000Y-154460000D02*
X188743335Y-159776665D01*
D21*
X165320000Y-78370000D02*
X159470000Y-78370000D01*
X193094003Y-76464003D02*
X193094003Y-73803332D01*
X228293003Y-73803332D02*
X228293003Y-76593003D01*
D19*
X125840000Y-164720000D02*
X117760000Y-164720000D01*
D21*
X229420000Y-77720000D02*
X238460000Y-77720000D01*
X223360000Y-206340000D02*
X223360000Y-206390000D01*
D19*
X188743335Y-159776665D02*
X188743335Y-165510000D01*
D21*
X162030000Y-211140000D02*
X162030000Y-217200000D01*
D20*
X188743335Y-205556665D02*
X188580000Y-205720000D01*
D19*
X188743335Y-165510000D02*
X185230000Y-165510000D01*
X177070000Y-157350000D02*
X168270000Y-157350000D01*
X166930000Y-89830000D02*
X166930000Y-84970000D01*
D22*
X147510000Y-137380000D02*
X147510000Y-134750000D01*
D21*
X159490000Y-208600000D02*
X162030000Y-211140000D01*
D20*
X153660000Y-165510000D02*
X153660000Y-138880000D01*
X153660000Y-138880000D02*
X172080000Y-120460000D01*
D21*
X197229000Y-214069000D02*
X197229000Y-217200000D01*
X134520000Y-175450000D02*
X134520000Y-177990000D01*
%TD*%
%TA.AperFunction,Conductor*%
%TO.N,GND*%
G36*
X134030507Y-177740156D02*
G01*
X133990000Y-177878111D01*
X133990000Y-178021889D01*
X134030507Y-178159844D01*
X134056314Y-178200000D01*
X132383686Y-178200000D01*
X132409493Y-178159844D01*
X132450000Y-178021889D01*
X132450000Y-177878111D01*
X132409493Y-177740156D01*
X132383686Y-177700000D01*
X134056314Y-177700000D01*
X134030507Y-177740156D01*
G37*
%TD.AperFunction*%
%TA.AperFunction,Conductor*%
G36*
X132200000Y-177514498D02*
G01*
X132092315Y-177465320D01*
X131985763Y-177450000D01*
X131914237Y-177450000D01*
X131807685Y-177465320D01*
X131700000Y-177514498D01*
X131700000Y-175845501D01*
X131807685Y-175894680D01*
X131914237Y-175910000D01*
X131985763Y-175910000D01*
X132092315Y-175894680D01*
X132200000Y-175845501D01*
X132200000Y-177514498D01*
G37*
%TD.AperFunction*%
%TA.AperFunction,Conductor*%
G36*
X134740000Y-177514498D02*
G01*
X134632315Y-177465320D01*
X134525763Y-177450000D01*
X134454237Y-177450000D01*
X134347685Y-177465320D01*
X134240000Y-177514498D01*
X134240000Y-175845501D01*
X134347685Y-175894680D01*
X134454237Y-175910000D01*
X134525763Y-175910000D01*
X134632315Y-175894680D01*
X134740000Y-175845501D01*
X134740000Y-177514498D01*
G37*
%TD.AperFunction*%
%TA.AperFunction,Conductor*%
G36*
X133304855Y-176075673D02*
G01*
X133321575Y-176094968D01*
X133451894Y-176281082D01*
X133618917Y-176448105D01*
X133805031Y-176578425D01*
X133848656Y-176633003D01*
X133855848Y-176702501D01*
X133824326Y-176764856D01*
X133805031Y-176781575D01*
X133618922Y-176911890D01*
X133618920Y-176911891D01*
X133451891Y-177078920D01*
X133451890Y-177078922D01*
X133321575Y-177265031D01*
X133266998Y-177308655D01*
X133197499Y-177315848D01*
X133135145Y-177284326D01*
X133118425Y-177265031D01*
X132988109Y-177078922D01*
X132988108Y-177078920D01*
X132821082Y-176911894D01*
X132634968Y-176781575D01*
X132591344Y-176726998D01*
X132584151Y-176657499D01*
X132615673Y-176595145D01*
X132634968Y-176578425D01*
X132821082Y-176448105D01*
X132988105Y-176281082D01*
X133118425Y-176094968D01*
X133173002Y-176051344D01*
X133242501Y-176044151D01*
X133304855Y-176075673D01*
G37*
%TD.AperFunction*%
%TA.AperFunction,Conductor*%
G36*
X135844549Y-176076110D02*
G01*
X135861269Y-176095405D01*
X135991505Y-176281401D01*
X135991506Y-176281402D01*
X136158597Y-176448493D01*
X136158603Y-176448498D01*
X136344158Y-176578425D01*
X136387783Y-176633002D01*
X136394977Y-176702500D01*
X136363454Y-176764855D01*
X136344158Y-176781575D01*
X136158597Y-176911505D01*
X135991508Y-177078594D01*
X135861269Y-177264595D01*
X135806692Y-177308219D01*
X135737193Y-177315412D01*
X135674839Y-177283890D01*
X135658119Y-177264594D01*
X135528113Y-177078926D01*
X135528108Y-177078920D01*
X135361082Y-176911894D01*
X135174968Y-176781575D01*
X135131344Y-176726998D01*
X135124151Y-176657499D01*
X135155673Y-176595145D01*
X135174968Y-176578425D01*
X135361082Y-176448105D01*
X135528105Y-176281082D01*
X135658119Y-176095405D01*
X135712696Y-176051781D01*
X135782195Y-176044588D01*
X135844549Y-176076110D01*
G37*
%TD.AperFunction*%
%TA.AperFunction,Conductor*%
G36*
X130765160Y-176076110D02*
G01*
X130781879Y-176095405D01*
X130911890Y-176281078D01*
X131078917Y-176448105D01*
X131265031Y-176578425D01*
X131308656Y-176633003D01*
X131315848Y-176702501D01*
X131284326Y-176764856D01*
X131265031Y-176781575D01*
X131078924Y-176911888D01*
X130956865Y-177033947D01*
X130895542Y-177067431D01*
X130825850Y-177062447D01*
X130769917Y-177020575D01*
X130753002Y-176989598D01*
X130703797Y-176857671D01*
X130703793Y-176857664D01*
X130617547Y-176742455D01*
X130617544Y-176742452D01*
X130502335Y-176656206D01*
X130502328Y-176656202D01*
X130370917Y-176607189D01*
X130314983Y-176565318D01*
X130290566Y-176499853D01*
X130305418Y-176431580D01*
X130326563Y-176403332D01*
X130448495Y-176281401D01*
X130578730Y-176095405D01*
X130633307Y-176051781D01*
X130702805Y-176044587D01*
X130765160Y-176076110D01*
G37*
%TD.AperFunction*%
%TA.AperFunction,Conductor*%
G36*
X134030507Y-175200156D02*
G01*
X133990000Y-175338111D01*
X133990000Y-175481889D01*
X134030507Y-175619844D01*
X134056314Y-175660000D01*
X132383686Y-175660000D01*
X132409493Y-175619844D01*
X132450000Y-175481889D01*
X132450000Y-175338111D01*
X132409493Y-175200156D01*
X132383686Y-175160000D01*
X134056314Y-175160000D01*
X134030507Y-175200156D01*
G37*
%TD.AperFunction*%
%TA.AperFunction,Conductor*%
G36*
X264124207Y-49680185D02*
G01*
X264169962Y-49732989D01*
X264181168Y-49784500D01*
X264181168Y-237565500D01*
X264161483Y-237632539D01*
X264108679Y-237678294D01*
X264057168Y-237689500D01*
X98596168Y-237689500D01*
X98529129Y-237669815D01*
X98483374Y-237617011D01*
X98472168Y-237565500D01*
X98472168Y-231114334D01*
X103446168Y-231114334D01*
X103487097Y-231359616D01*
X103567837Y-231594802D01*
X103567840Y-231594811D01*
X103686192Y-231813506D01*
X103686194Y-231813509D01*
X103838930Y-232009744D01*
X103875609Y-232043509D01*
X104021885Y-232178166D01*
X104230061Y-232314173D01*
X104457786Y-232414063D01*
X104698843Y-232475107D01*
X104698847Y-232475108D01*
X104698849Y-232475108D01*
X104698854Y-232475109D01*
X104852257Y-232487819D01*
X104884601Y-232490500D01*
X104884605Y-232490500D01*
X105008731Y-232490500D01*
X105008735Y-232490500D01*
X105071345Y-232485311D01*
X105194481Y-232475109D01*
X105194484Y-232475108D01*
X105194489Y-232475108D01*
X105435549Y-232414063D01*
X105663275Y-232314173D01*
X105871453Y-232178164D01*
X106054406Y-232009744D01*
X106207142Y-231813509D01*
X106325496Y-231594810D01*
X106406239Y-231359614D01*
X106408789Y-231344334D01*
X256046168Y-231344334D01*
X256087097Y-231589616D01*
X256167837Y-231824802D01*
X256167840Y-231824811D01*
X256267920Y-232009742D01*
X256286194Y-232043509D01*
X256438930Y-232239744D01*
X256598412Y-232386557D01*
X256621885Y-232408166D01*
X256830061Y-232544173D01*
X257057786Y-232644063D01*
X257298843Y-232705107D01*
X257298847Y-232705108D01*
X257298849Y-232705108D01*
X257298854Y-232705109D01*
X257452257Y-232717819D01*
X257484601Y-232720500D01*
X257484605Y-232720500D01*
X257608731Y-232720500D01*
X257608735Y-232720500D01*
X257671345Y-232715311D01*
X257794481Y-232705109D01*
X257794484Y-232705108D01*
X257794489Y-232705108D01*
X258035549Y-232644063D01*
X258263275Y-232544173D01*
X258471453Y-232408164D01*
X258654406Y-232239744D01*
X258807142Y-232043509D01*
X258925496Y-231824810D01*
X259006239Y-231589614D01*
X259047168Y-231344335D01*
X259047168Y-231095665D01*
X259006239Y-230850386D01*
X258925496Y-230615190D01*
X258807142Y-230396491D01*
X258654406Y-230200256D01*
X258471453Y-230031836D01*
X258471450Y-230031833D01*
X258263274Y-229895826D01*
X258035549Y-229795936D01*
X257794492Y-229734892D01*
X257794481Y-229734890D01*
X257608745Y-229719500D01*
X257608735Y-229719500D01*
X257484601Y-229719500D01*
X257484590Y-229719500D01*
X257298854Y-229734890D01*
X257298843Y-229734892D01*
X257057786Y-229795936D01*
X256830061Y-229895826D01*
X256621885Y-230031833D01*
X256438929Y-230200257D01*
X256286192Y-230396493D01*
X256167840Y-230615188D01*
X256167837Y-230615197D01*
X256087097Y-230850383D01*
X256046168Y-231095665D01*
X256046168Y-231344334D01*
X106408789Y-231344334D01*
X106447168Y-231114335D01*
X106447168Y-230865665D01*
X106406239Y-230620386D01*
X106325496Y-230385190D01*
X106207142Y-230166491D01*
X106054406Y-229970256D01*
X105871453Y-229801836D01*
X105871450Y-229801833D01*
X105663274Y-229665826D01*
X105435549Y-229565936D01*
X105194492Y-229504892D01*
X105194481Y-229504890D01*
X105008745Y-229489500D01*
X105008735Y-229489500D01*
X104884601Y-229489500D01*
X104884590Y-229489500D01*
X104698854Y-229504890D01*
X104698843Y-229504892D01*
X104457786Y-229565936D01*
X104230061Y-229665826D01*
X104021885Y-229801833D01*
X103838929Y-229970257D01*
X103686192Y-230166493D01*
X103567840Y-230385188D01*
X103567837Y-230385197D01*
X103487097Y-230620383D01*
X103446168Y-230865665D01*
X103446168Y-231114334D01*
X98472168Y-231114334D01*
X98472168Y-222590004D01*
X107704953Y-222590004D01*
X107725113Y-222859026D01*
X107725113Y-222859028D01*
X107785142Y-223122033D01*
X107785148Y-223122052D01*
X107883709Y-223373181D01*
X107883708Y-223373181D01*
X108018602Y-223606822D01*
X108072294Y-223674151D01*
X108793337Y-222953107D01*
X108880577Y-223091948D01*
X109008052Y-223219423D01*
X109146890Y-223306661D01*
X108424848Y-224028702D01*
X108607483Y-224153220D01*
X108607485Y-224153221D01*
X108850539Y-224270269D01*
X108850537Y-224270269D01*
X109108337Y-224349790D01*
X109108343Y-224349792D01*
X109375101Y-224389999D01*
X109375110Y-224390000D01*
X109644890Y-224390000D01*
X109644898Y-224389999D01*
X109911656Y-224349792D01*
X109911662Y-224349790D01*
X110169461Y-224270269D01*
X110412521Y-224153218D01*
X110595150Y-224028702D01*
X109873108Y-223306661D01*
X110011948Y-223219423D01*
X110139423Y-223091948D01*
X110226661Y-222953108D01*
X110947703Y-223674151D01*
X110947704Y-223674150D01*
X111001393Y-223606828D01*
X111001400Y-223606817D01*
X111136290Y-223373181D01*
X111234851Y-223122052D01*
X111234857Y-223122033D01*
X111294886Y-222859028D01*
X111294886Y-222859026D01*
X111315047Y-222590004D01*
X111315047Y-222589995D01*
X111294886Y-222320973D01*
X111294886Y-222320971D01*
X111234857Y-222057966D01*
X111234851Y-222057947D01*
X111136290Y-221806818D01*
X111136291Y-221806818D01*
X111001397Y-221573177D01*
X110947704Y-221505847D01*
X110226660Y-222226890D01*
X110139423Y-222088052D01*
X110011948Y-221960577D01*
X109873108Y-221873338D01*
X110595150Y-221151296D01*
X110412517Y-221026779D01*
X110412516Y-221026778D01*
X110169460Y-220909730D01*
X110169462Y-220909730D01*
X109911662Y-220830209D01*
X109911656Y-220830207D01*
X109644898Y-220790000D01*
X109375101Y-220790000D01*
X109108343Y-220830207D01*
X109108337Y-220830209D01*
X108850538Y-220909730D01*
X108607485Y-221026778D01*
X108607476Y-221026783D01*
X108424848Y-221151296D01*
X109146891Y-221873338D01*
X109008052Y-221960577D01*
X108880577Y-222088052D01*
X108793338Y-222226891D01*
X108072295Y-221505848D01*
X108018600Y-221573180D01*
X107883709Y-221806818D01*
X107785148Y-222057947D01*
X107785142Y-222057966D01*
X107725113Y-222320971D01*
X107725113Y-222320973D01*
X107704953Y-222589995D01*
X107704953Y-222590004D01*
X98472168Y-222590004D01*
X98472168Y-217890004D01*
X104704953Y-217890004D01*
X104725113Y-218159026D01*
X104725113Y-218159028D01*
X104785142Y-218422033D01*
X104785148Y-218422052D01*
X104883709Y-218673181D01*
X104883708Y-218673181D01*
X105018602Y-218906822D01*
X105072294Y-218974151D01*
X105072295Y-218974151D01*
X105793338Y-218253108D01*
X105880577Y-218391948D01*
X106008052Y-218519423D01*
X106146890Y-218606661D01*
X105424848Y-219328702D01*
X105607483Y-219453220D01*
X105607485Y-219453221D01*
X105850539Y-219570269D01*
X105850537Y-219570269D01*
X106108337Y-219649790D01*
X106108343Y-219649792D01*
X106375101Y-219689999D01*
X106375110Y-219690000D01*
X106644890Y-219690000D01*
X106644898Y-219689999D01*
X106911656Y-219649792D01*
X106911662Y-219649790D01*
X107169461Y-219570269D01*
X107412521Y-219453218D01*
X107595150Y-219328702D01*
X107504318Y-219237870D01*
X110709500Y-219237870D01*
X110709501Y-219237876D01*
X110715908Y-219297483D01*
X110766202Y-219432328D01*
X110766206Y-219432335D01*
X110852452Y-219547544D01*
X110852455Y-219547547D01*
X110967664Y-219633793D01*
X110967671Y-219633797D01*
X111102517Y-219684091D01*
X111102516Y-219684091D01*
X111109444Y-219684835D01*
X111162127Y-219690500D01*
X113857872Y-219690499D01*
X113917483Y-219684091D01*
X114052331Y-219633796D01*
X114167546Y-219547546D01*
X114253796Y-219432331D01*
X114304091Y-219297483D01*
X114310500Y-219237873D01*
X114310499Y-217200000D01*
X158134341Y-217200000D01*
X158154936Y-217435403D01*
X158154938Y-217435413D01*
X158216094Y-217663655D01*
X158216096Y-217663659D01*
X158216097Y-217663663D01*
X158299155Y-217841781D01*
X158315965Y-217877830D01*
X158315967Y-217877834D01*
X158324489Y-217890004D01*
X158451505Y-218071401D01*
X158618599Y-218238495D01*
X158715384Y-218306265D01*
X158812165Y-218374032D01*
X158812167Y-218374033D01*
X158812170Y-218374035D01*
X159026337Y-218473903D01*
X159254592Y-218535063D01*
X159431034Y-218550500D01*
X159489999Y-218555659D01*
X159490000Y-218555659D01*
X159490001Y-218555659D01*
X159548966Y-218550500D01*
X159725408Y-218535063D01*
X159953663Y-218473903D01*
X160167830Y-218374035D01*
X160361401Y-218238495D01*
X160528495Y-218071401D01*
X160658730Y-217885405D01*
X160713307Y-217841781D01*
X160782805Y-217834587D01*
X160845160Y-217866110D01*
X160861879Y-217885405D01*
X160991890Y-218071078D01*
X161158917Y-218238105D01*
X161352421Y-218373600D01*
X161566507Y-218473429D01*
X161566516Y-218473433D01*
X161780000Y-218530634D01*
X161780000Y-217635501D01*
X161887685Y-217684680D01*
X161994237Y-217700000D01*
X162065763Y-217700000D01*
X162172315Y-217684680D01*
X162280000Y-217635501D01*
X162280000Y-218530633D01*
X162493483Y-218473433D01*
X162493492Y-218473429D01*
X162707578Y-218373600D01*
X162901078Y-218238108D01*
X163023133Y-218116053D01*
X163084456Y-218082568D01*
X163154148Y-218087552D01*
X163210082Y-218129423D01*
X163226997Y-218160401D01*
X163276202Y-218292328D01*
X163276206Y-218292335D01*
X163362452Y-218407544D01*
X163362455Y-218407547D01*
X163477664Y-218493793D01*
X163477671Y-218493797D01*
X163612517Y-218544091D01*
X163612516Y-218544091D01*
X163619444Y-218544835D01*
X163672127Y-218550500D01*
X165467872Y-218550499D01*
X165527483Y-218544091D01*
X165662331Y-218493796D01*
X165777546Y-218407546D01*
X165863796Y-218292331D01*
X165914091Y-218157483D01*
X165920500Y-218097873D01*
X165920499Y-217200000D01*
X193333341Y-217200000D01*
X193353936Y-217435403D01*
X193353938Y-217435413D01*
X193415094Y-217663655D01*
X193415096Y-217663659D01*
X193415097Y-217663663D01*
X193498155Y-217841781D01*
X193514965Y-217877830D01*
X193514967Y-217877834D01*
X193523489Y-217890004D01*
X193650505Y-218071401D01*
X193817599Y-218238495D01*
X193914384Y-218306265D01*
X194011165Y-218374032D01*
X194011167Y-218374033D01*
X194011170Y-218374035D01*
X194225337Y-218473903D01*
X194453592Y-218535063D01*
X194630034Y-218550500D01*
X194688999Y-218555659D01*
X194689000Y-218555659D01*
X194689001Y-218555659D01*
X194747966Y-218550500D01*
X194924408Y-218535063D01*
X195152663Y-218473903D01*
X195366830Y-218374035D01*
X195560401Y-218238495D01*
X195727495Y-218071401D01*
X195857730Y-217885405D01*
X195912307Y-217841781D01*
X195981805Y-217834587D01*
X196044160Y-217866110D01*
X196060879Y-217885405D01*
X196190890Y-218071078D01*
X196357917Y-218238105D01*
X196551421Y-218373600D01*
X196765507Y-218473429D01*
X196765516Y-218473433D01*
X196979000Y-218530634D01*
X196979000Y-217635501D01*
X197086685Y-217684680D01*
X197193237Y-217700000D01*
X197264763Y-217700000D01*
X197371315Y-217684680D01*
X197479000Y-217635501D01*
X197479000Y-218530633D01*
X197692483Y-218473433D01*
X197692492Y-218473429D01*
X197906578Y-218373600D01*
X198100078Y-218238108D01*
X198222133Y-218116053D01*
X198283456Y-218082568D01*
X198353148Y-218087552D01*
X198409082Y-218129423D01*
X198425997Y-218160401D01*
X198475202Y-218292328D01*
X198475206Y-218292335D01*
X198561452Y-218407544D01*
X198561455Y-218407547D01*
X198676664Y-218493793D01*
X198676671Y-218493797D01*
X198811517Y-218544091D01*
X198811516Y-218544091D01*
X198818444Y-218544835D01*
X198871127Y-218550500D01*
X200666872Y-218550499D01*
X200726483Y-218544091D01*
X200861331Y-218493796D01*
X200976546Y-218407546D01*
X201062796Y-218292331D01*
X201113091Y-218157483D01*
X201119500Y-218097873D01*
X201119499Y-217200000D01*
X228532341Y-217200000D01*
X228552936Y-217435403D01*
X228552938Y-217435413D01*
X228614094Y-217663655D01*
X228614096Y-217663659D01*
X228614097Y-217663663D01*
X228697155Y-217841781D01*
X228713965Y-217877830D01*
X228713967Y-217877834D01*
X228722489Y-217890004D01*
X228849505Y-218071401D01*
X229016599Y-218238495D01*
X229113384Y-218306265D01*
X229210165Y-218374032D01*
X229210167Y-218374033D01*
X229210170Y-218374035D01*
X229424337Y-218473903D01*
X229652592Y-218535063D01*
X229829034Y-218550500D01*
X229887999Y-218555659D01*
X229888000Y-218555659D01*
X229888001Y-218555659D01*
X229946966Y-218550500D01*
X230123408Y-218535063D01*
X230351663Y-218473903D01*
X230565830Y-218374035D01*
X230759401Y-218238495D01*
X230926495Y-218071401D01*
X231056730Y-217885405D01*
X231111307Y-217841781D01*
X231180805Y-217834587D01*
X231243160Y-217866110D01*
X231259879Y-217885405D01*
X231389890Y-218071078D01*
X231556917Y-218238105D01*
X231750421Y-218373600D01*
X231964507Y-218473429D01*
X231964516Y-218473433D01*
X232178000Y-218530634D01*
X232178000Y-217635501D01*
X232285685Y-217684680D01*
X232392237Y-217700000D01*
X232463763Y-217700000D01*
X232570315Y-217684680D01*
X232678000Y-217635501D01*
X232678000Y-218530633D01*
X232891483Y-218473433D01*
X232891492Y-218473429D01*
X233105578Y-218373600D01*
X233299078Y-218238108D01*
X233421133Y-218116053D01*
X233482456Y-218082568D01*
X233552148Y-218087552D01*
X233608082Y-218129423D01*
X233624997Y-218160401D01*
X233674202Y-218292328D01*
X233674206Y-218292335D01*
X233760452Y-218407544D01*
X233760455Y-218407547D01*
X233875664Y-218493793D01*
X233875671Y-218493797D01*
X234010517Y-218544091D01*
X234010516Y-218544091D01*
X234017444Y-218544835D01*
X234070127Y-218550500D01*
X235865872Y-218550499D01*
X235925483Y-218544091D01*
X236060331Y-218493796D01*
X236175546Y-218407546D01*
X236261796Y-218292331D01*
X236312091Y-218157483D01*
X236318500Y-218097873D01*
X236318499Y-216302128D01*
X236312091Y-216242517D01*
X236311002Y-216239598D01*
X236261797Y-216107671D01*
X236261793Y-216107664D01*
X236175547Y-215992455D01*
X236175544Y-215992452D01*
X236060335Y-215906206D01*
X236060328Y-215906202D01*
X235925482Y-215855908D01*
X235925483Y-215855908D01*
X235865883Y-215849501D01*
X235865881Y-215849500D01*
X235865873Y-215849500D01*
X235865864Y-215849500D01*
X234070129Y-215849500D01*
X234070123Y-215849501D01*
X234010516Y-215855908D01*
X233875671Y-215906202D01*
X233875664Y-215906206D01*
X233760455Y-215992452D01*
X233760452Y-215992455D01*
X233674206Y-216107664D01*
X233674202Y-216107671D01*
X233624997Y-216239598D01*
X233583126Y-216295532D01*
X233517661Y-216319949D01*
X233449388Y-216305097D01*
X233421134Y-216283946D01*
X233299082Y-216161894D01*
X233105578Y-216026399D01*
X232891492Y-215926570D01*
X232891486Y-215926567D01*
X232678000Y-215869364D01*
X232678000Y-216764498D01*
X232570315Y-216715320D01*
X232463763Y-216700000D01*
X232392237Y-216700000D01*
X232285685Y-216715320D01*
X232178000Y-216764498D01*
X232178000Y-215869364D01*
X232177999Y-215869364D01*
X231964513Y-215926567D01*
X231964507Y-215926570D01*
X231750422Y-216026399D01*
X231750420Y-216026400D01*
X231556926Y-216161886D01*
X231556920Y-216161891D01*
X231389891Y-216328920D01*
X231389890Y-216328922D01*
X231259880Y-216514595D01*
X231205303Y-216558219D01*
X231135804Y-216565412D01*
X231073450Y-216533890D01*
X231056730Y-216514594D01*
X230926494Y-216328597D01*
X230759402Y-216161506D01*
X230759395Y-216161501D01*
X230565834Y-216025967D01*
X230565830Y-216025965D01*
X230565828Y-216025964D01*
X230351663Y-215926097D01*
X230351659Y-215926096D01*
X230351655Y-215926094D01*
X230123413Y-215864938D01*
X230123403Y-215864936D01*
X229888001Y-215844341D01*
X229887999Y-215844341D01*
X229652596Y-215864936D01*
X229652586Y-215864938D01*
X229424344Y-215926094D01*
X229424335Y-215926098D01*
X229210171Y-216025964D01*
X229210169Y-216025965D01*
X229016597Y-216161505D01*
X228849505Y-216328597D01*
X228713965Y-216522169D01*
X228713964Y-216522171D01*
X228614098Y-216736335D01*
X228614094Y-216736344D01*
X228552938Y-216964586D01*
X228552936Y-216964596D01*
X228532341Y-217199999D01*
X228532341Y-217200000D01*
X201119499Y-217200000D01*
X201119499Y-216302128D01*
X201113091Y-216242517D01*
X201112002Y-216239598D01*
X201062797Y-216107671D01*
X201062793Y-216107664D01*
X200976547Y-215992455D01*
X200976544Y-215992452D01*
X200861335Y-215906206D01*
X200861328Y-215906202D01*
X200726482Y-215855908D01*
X200726483Y-215855908D01*
X200666883Y-215849501D01*
X200666881Y-215849500D01*
X200666873Y-215849500D01*
X200666864Y-215849500D01*
X198871129Y-215849500D01*
X198871123Y-215849501D01*
X198811516Y-215855908D01*
X198676671Y-215906202D01*
X198676664Y-215906206D01*
X198561455Y-215992452D01*
X198561452Y-215992455D01*
X198475206Y-216107664D01*
X198475202Y-216107671D01*
X198425997Y-216239598D01*
X198384126Y-216295532D01*
X198318661Y-216319949D01*
X198250388Y-216305097D01*
X198222134Y-216283946D01*
X198100082Y-216161894D01*
X197906578Y-216026399D01*
X197692492Y-215926570D01*
X197692486Y-215926567D01*
X197479000Y-215869364D01*
X197479000Y-216764498D01*
X197371315Y-216715320D01*
X197264763Y-216700000D01*
X197193237Y-216700000D01*
X197086685Y-216715320D01*
X196979000Y-216764498D01*
X196979000Y-215869364D01*
X196978999Y-215869364D01*
X196765513Y-215926567D01*
X196765507Y-215926570D01*
X196551422Y-216026399D01*
X196551420Y-216026400D01*
X196357926Y-216161886D01*
X196357920Y-216161891D01*
X196190891Y-216328920D01*
X196190890Y-216328922D01*
X196060880Y-216514595D01*
X196006303Y-216558219D01*
X195936804Y-216565412D01*
X195874450Y-216533890D01*
X195857730Y-216514594D01*
X195727494Y-216328597D01*
X195560402Y-216161506D01*
X195560395Y-216161501D01*
X195366834Y-216025967D01*
X195366830Y-216025965D01*
X195366828Y-216025964D01*
X195152663Y-215926097D01*
X195152659Y-215926096D01*
X195152655Y-215926094D01*
X194924413Y-215864938D01*
X194924403Y-215864936D01*
X194689001Y-215844341D01*
X194688999Y-215844341D01*
X194453596Y-215864936D01*
X194453586Y-215864938D01*
X194225344Y-215926094D01*
X194225335Y-215926098D01*
X194011171Y-216025964D01*
X194011169Y-216025965D01*
X193817597Y-216161505D01*
X193650505Y-216328597D01*
X193514965Y-216522169D01*
X193514964Y-216522171D01*
X193415098Y-216736335D01*
X193415094Y-216736344D01*
X193353938Y-216964586D01*
X193353936Y-216964596D01*
X193333341Y-217199999D01*
X193333341Y-217200000D01*
X165920499Y-217200000D01*
X165920499Y-216302128D01*
X165914091Y-216242517D01*
X165913002Y-216239598D01*
X165863797Y-216107671D01*
X165863793Y-216107664D01*
X165777547Y-215992455D01*
X165777544Y-215992452D01*
X165662335Y-215906206D01*
X165662328Y-215906202D01*
X165527482Y-215855908D01*
X165527483Y-215855908D01*
X165467883Y-215849501D01*
X165467881Y-215849500D01*
X165467873Y-215849500D01*
X165467864Y-215849500D01*
X163672129Y-215849500D01*
X163672123Y-215849501D01*
X163612516Y-215855908D01*
X163477671Y-215906202D01*
X163477664Y-215906206D01*
X163362455Y-215992452D01*
X163362452Y-215992455D01*
X163276206Y-216107664D01*
X163276202Y-216107671D01*
X163226997Y-216239598D01*
X163185126Y-216295532D01*
X163119661Y-216319949D01*
X163051388Y-216305097D01*
X163023134Y-216283946D01*
X162901082Y-216161894D01*
X162707578Y-216026399D01*
X162493492Y-215926570D01*
X162493486Y-215926567D01*
X162280000Y-215869364D01*
X162280000Y-216764498D01*
X162172315Y-216715320D01*
X162065763Y-216700000D01*
X161994237Y-216700000D01*
X161887685Y-216715320D01*
X161780000Y-216764498D01*
X161780000Y-215869364D01*
X161779999Y-215869364D01*
X161566513Y-215926567D01*
X161566507Y-215926570D01*
X161352422Y-216026399D01*
X161352420Y-216026400D01*
X161158926Y-216161886D01*
X161158920Y-216161891D01*
X160991891Y-216328920D01*
X160991890Y-216328922D01*
X160861880Y-216514595D01*
X160807303Y-216558219D01*
X160737804Y-216565412D01*
X160675450Y-216533890D01*
X160658730Y-216514594D01*
X160528494Y-216328597D01*
X160361402Y-216161506D01*
X160361395Y-216161501D01*
X160167834Y-216025967D01*
X160167830Y-216025965D01*
X160167828Y-216025964D01*
X159953663Y-215926097D01*
X159953659Y-215926096D01*
X159953655Y-215926094D01*
X159725413Y-215864938D01*
X159725403Y-215864936D01*
X159490001Y-215844341D01*
X159489999Y-215844341D01*
X159254596Y-215864936D01*
X159254586Y-215864938D01*
X159026344Y-215926094D01*
X159026335Y-215926098D01*
X158812171Y-216025964D01*
X158812169Y-216025965D01*
X158618597Y-216161505D01*
X158451505Y-216328597D01*
X158315965Y-216522169D01*
X158315964Y-216522171D01*
X158216098Y-216736335D01*
X158216094Y-216736344D01*
X158154938Y-216964586D01*
X158154936Y-216964596D01*
X158134341Y-217199999D01*
X158134341Y-217200000D01*
X114310499Y-217200000D01*
X114310499Y-216542128D01*
X114304091Y-216482517D01*
X114292446Y-216451296D01*
X114253797Y-216347671D01*
X114253793Y-216347664D01*
X114167547Y-216232455D01*
X114167544Y-216232452D01*
X114052335Y-216146206D01*
X114052328Y-216146202D01*
X113917482Y-216095908D01*
X113917483Y-216095908D01*
X113857883Y-216089501D01*
X113857881Y-216089500D01*
X113857873Y-216089500D01*
X113857864Y-216089500D01*
X111162129Y-216089500D01*
X111162123Y-216089501D01*
X111102516Y-216095908D01*
X110967671Y-216146202D01*
X110967664Y-216146206D01*
X110852455Y-216232452D01*
X110852452Y-216232455D01*
X110766206Y-216347664D01*
X110766202Y-216347671D01*
X110715908Y-216482517D01*
X110709501Y-216542116D01*
X110709501Y-216542123D01*
X110709500Y-216542135D01*
X110709500Y-219237870D01*
X107504318Y-219237870D01*
X106873108Y-218606661D01*
X107011948Y-218519423D01*
X107139423Y-218391948D01*
X107226661Y-218253108D01*
X107947703Y-218974151D01*
X107947704Y-218974150D01*
X108001393Y-218906828D01*
X108001400Y-218906817D01*
X108136290Y-218673181D01*
X108234851Y-218422052D01*
X108234857Y-218422033D01*
X108294886Y-218159028D01*
X108294886Y-218159026D01*
X108315047Y-217890004D01*
X108315047Y-217889995D01*
X108294886Y-217620973D01*
X108294886Y-217620971D01*
X108234857Y-217357966D01*
X108234851Y-217357947D01*
X108136290Y-217106818D01*
X108136291Y-217106818D01*
X108001397Y-216873177D01*
X107947704Y-216805847D01*
X107226660Y-217526890D01*
X107139423Y-217388052D01*
X107011948Y-217260577D01*
X106873108Y-217173338D01*
X107595150Y-216451296D01*
X107412517Y-216326779D01*
X107412516Y-216326778D01*
X107169460Y-216209730D01*
X107169462Y-216209730D01*
X106911662Y-216130209D01*
X106911656Y-216130207D01*
X106644898Y-216090000D01*
X106375101Y-216090000D01*
X106108343Y-216130207D01*
X106108337Y-216130209D01*
X105850538Y-216209730D01*
X105607485Y-216326778D01*
X105607476Y-216326783D01*
X105424848Y-216451296D01*
X106146891Y-217173338D01*
X106008052Y-217260577D01*
X105880577Y-217388052D01*
X105793338Y-217526891D01*
X105072295Y-216805848D01*
X105018600Y-216873180D01*
X104883709Y-217106818D01*
X104785148Y-217357947D01*
X104785142Y-217357966D01*
X104725113Y-217620971D01*
X104725113Y-217620973D01*
X104704953Y-217889995D01*
X104704953Y-217890004D01*
X98472168Y-217890004D01*
X98472168Y-205730000D01*
X152173179Y-205730000D01*
X152192424Y-205949976D01*
X152192426Y-205949986D01*
X152249575Y-206163270D01*
X152249580Y-206163284D01*
X152342898Y-206363405D01*
X152342901Y-206363411D01*
X152388258Y-206428187D01*
X152388259Y-206428188D01*
X153055096Y-205761350D01*
X153055051Y-205761898D01*
X153086266Y-205885162D01*
X153155813Y-205991612D01*
X153256157Y-206069713D01*
X153376422Y-206111000D01*
X153412553Y-206111000D01*
X152741810Y-206781740D01*
X152806590Y-206827099D01*
X152806592Y-206827100D01*
X153006715Y-206920419D01*
X153006729Y-206920424D01*
X153220013Y-206977573D01*
X153220023Y-206977575D01*
X153439999Y-206996821D01*
X153440001Y-206996821D01*
X153659976Y-206977575D01*
X153659986Y-206977573D01*
X153873270Y-206920424D01*
X153873284Y-206920419D01*
X154073407Y-206827100D01*
X154073417Y-206827094D01*
X154138188Y-206781741D01*
X153467448Y-206111000D01*
X153471569Y-206111000D01*
X153565421Y-206095339D01*
X153677251Y-206034820D01*
X153763371Y-205941269D01*
X153814448Y-205824823D01*
X153820105Y-205756552D01*
X154491741Y-206428188D01*
X154537094Y-206363417D01*
X154537100Y-206363407D01*
X154630419Y-206163284D01*
X154630424Y-206163270D01*
X154687573Y-205949986D01*
X154687575Y-205949976D01*
X154706821Y-205730002D01*
X169952677Y-205730002D01*
X169971929Y-205950062D01*
X169971930Y-205950070D01*
X170029104Y-206163445D01*
X170029105Y-206163447D01*
X170029106Y-206163450D01*
X170067216Y-206245177D01*
X170122466Y-206363662D01*
X170122468Y-206363666D01*
X170249170Y-206544615D01*
X170249175Y-206544621D01*
X170405378Y-206700824D01*
X170405384Y-206700829D01*
X170586333Y-206827531D01*
X170586335Y-206827532D01*
X170586338Y-206827534D01*
X170786550Y-206920894D01*
X170999932Y-206978070D01*
X171157123Y-206991822D01*
X171219998Y-206997323D01*
X171220000Y-206997323D01*
X171220002Y-206997323D01*
X171275017Y-206992509D01*
X171440068Y-206978070D01*
X171653450Y-206920894D01*
X171853662Y-206827534D01*
X172034620Y-206700826D01*
X172190826Y-206544620D01*
X172317534Y-206363662D01*
X172410894Y-206163450D01*
X172468070Y-205950068D01*
X172487323Y-205730000D01*
X172486448Y-205720002D01*
X172486448Y-205720000D01*
X187313179Y-205720000D01*
X187332424Y-205939976D01*
X187332426Y-205939986D01*
X187389575Y-206153270D01*
X187389580Y-206153284D01*
X187482898Y-206353405D01*
X187482901Y-206353411D01*
X187528258Y-206418187D01*
X187528259Y-206418188D01*
X188195096Y-205751350D01*
X188195051Y-205751898D01*
X188226266Y-205875162D01*
X188295813Y-205981612D01*
X188396157Y-206059713D01*
X188516422Y-206101000D01*
X188552553Y-206101000D01*
X187881810Y-206771740D01*
X187946590Y-206817099D01*
X187946592Y-206817100D01*
X188146715Y-206910419D01*
X188146729Y-206910424D01*
X188360013Y-206967573D01*
X188360023Y-206967575D01*
X188579999Y-206986821D01*
X188580001Y-206986821D01*
X188799976Y-206967575D01*
X188799986Y-206967573D01*
X189013270Y-206910424D01*
X189013284Y-206910419D01*
X189213407Y-206817100D01*
X189213417Y-206817094D01*
X189278188Y-206771741D01*
X188607448Y-206101000D01*
X188611569Y-206101000D01*
X188705421Y-206085339D01*
X188817251Y-206024820D01*
X188903371Y-205931269D01*
X188954448Y-205814823D01*
X188960105Y-205746552D01*
X189631741Y-206418188D01*
X189677094Y-206353417D01*
X189677100Y-206353407D01*
X189770419Y-206153284D01*
X189770424Y-206153270D01*
X189827573Y-205939986D01*
X189827575Y-205939976D01*
X189846821Y-205720002D01*
X205092677Y-205720002D01*
X205111929Y-205940062D01*
X205111930Y-205940070D01*
X205169104Y-206153445D01*
X205169105Y-206153447D01*
X205169106Y-206153450D01*
X205211879Y-206245177D01*
X205262466Y-206353662D01*
X205262468Y-206353666D01*
X205389170Y-206534615D01*
X205389175Y-206534621D01*
X205545378Y-206690824D01*
X205545384Y-206690829D01*
X205726333Y-206817531D01*
X205726335Y-206817532D01*
X205726338Y-206817534D01*
X205926550Y-206910894D01*
X206139932Y-206968070D01*
X206297123Y-206981822D01*
X206359998Y-206987323D01*
X206360000Y-206987323D01*
X206360002Y-206987323D01*
X206415017Y-206982509D01*
X206580068Y-206968070D01*
X206793450Y-206910894D01*
X206993662Y-206817534D01*
X207174620Y-206690826D01*
X207330826Y-206534620D01*
X207457534Y-206353662D01*
X207463905Y-206340000D01*
X222093179Y-206340000D01*
X222112424Y-206559976D01*
X222112426Y-206559986D01*
X222169575Y-206773270D01*
X222169580Y-206773284D01*
X222262898Y-206973405D01*
X222262901Y-206973411D01*
X222308258Y-207038187D01*
X222308259Y-207038188D01*
X222975096Y-206371350D01*
X222975051Y-206371898D01*
X223006266Y-206495162D01*
X223075813Y-206601612D01*
X223176157Y-206679713D01*
X223296422Y-206721000D01*
X223332553Y-206721000D01*
X222661810Y-207391740D01*
X222726590Y-207437099D01*
X222726592Y-207437100D01*
X222926715Y-207530419D01*
X222926729Y-207530424D01*
X223140013Y-207587573D01*
X223140023Y-207587575D01*
X223359999Y-207606821D01*
X223360001Y-207606821D01*
X223579976Y-207587575D01*
X223579986Y-207587573D01*
X223793270Y-207530424D01*
X223793284Y-207530419D01*
X223993407Y-207437100D01*
X223993417Y-207437094D01*
X224058188Y-207391741D01*
X223387448Y-206721000D01*
X223391569Y-206721000D01*
X223485421Y-206705339D01*
X223597251Y-206644820D01*
X223683371Y-206551269D01*
X223734448Y-206434823D01*
X223740105Y-206366552D01*
X224411741Y-207038188D01*
X224457094Y-206973417D01*
X224457100Y-206973407D01*
X224550419Y-206773284D01*
X224550424Y-206773270D01*
X224607573Y-206559986D01*
X224607575Y-206559976D01*
X224626821Y-206340002D01*
X239872677Y-206340002D01*
X239891929Y-206560062D01*
X239891930Y-206560070D01*
X239949104Y-206773445D01*
X239949105Y-206773447D01*
X239949106Y-206773450D01*
X240039627Y-206967573D01*
X240042466Y-206973662D01*
X240042468Y-206973666D01*
X240169170Y-207154615D01*
X240169175Y-207154621D01*
X240325378Y-207310824D01*
X240325384Y-207310829D01*
X240506333Y-207437531D01*
X240506335Y-207437532D01*
X240506338Y-207437534D01*
X240706550Y-207530894D01*
X240919932Y-207588070D01*
X241077123Y-207601822D01*
X241139998Y-207607323D01*
X241140000Y-207607323D01*
X241140002Y-207607323D01*
X241195017Y-207602509D01*
X241360068Y-207588070D01*
X241573450Y-207530894D01*
X241773662Y-207437534D01*
X241954620Y-207310826D01*
X242110826Y-207154620D01*
X242237534Y-206973662D01*
X242330894Y-206773450D01*
X242388070Y-206560068D01*
X242405275Y-206363405D01*
X242407323Y-206340002D01*
X242407323Y-206339997D01*
X242391877Y-206163445D01*
X242388070Y-206119932D01*
X242330894Y-205906550D01*
X242237534Y-205706339D01*
X242110826Y-205525380D01*
X241954620Y-205369174D01*
X241954616Y-205369171D01*
X241954615Y-205369170D01*
X241773666Y-205242468D01*
X241773662Y-205242466D01*
X241773660Y-205242465D01*
X241573450Y-205149106D01*
X241573447Y-205149105D01*
X241573445Y-205149104D01*
X241360070Y-205091930D01*
X241360062Y-205091929D01*
X241140002Y-205072677D01*
X241139998Y-205072677D01*
X240919937Y-205091929D01*
X240919929Y-205091930D01*
X240706554Y-205149104D01*
X240706548Y-205149107D01*
X240506340Y-205242465D01*
X240506338Y-205242466D01*
X240325377Y-205369175D01*
X240169175Y-205525377D01*
X240042466Y-205706338D01*
X240042465Y-205706340D01*
X239949107Y-205906548D01*
X239949104Y-205906554D01*
X239891930Y-206119929D01*
X239891929Y-206119937D01*
X239872677Y-206339997D01*
X239872677Y-206340002D01*
X224626821Y-206340002D01*
X224626821Y-206340000D01*
X224626821Y-206339999D01*
X224607575Y-206120023D01*
X224607573Y-206120013D01*
X224550424Y-205906729D01*
X224550420Y-205906720D01*
X224457096Y-205706586D01*
X224411741Y-205641811D01*
X224411740Y-205641810D01*
X223744903Y-206308648D01*
X223744949Y-206308102D01*
X223713734Y-206184838D01*
X223644187Y-206078388D01*
X223543843Y-206000287D01*
X223423578Y-205959000D01*
X223387448Y-205959000D01*
X224058188Y-205288259D01*
X224058187Y-205288258D01*
X223993411Y-205242901D01*
X223993405Y-205242898D01*
X223793284Y-205149580D01*
X223793270Y-205149575D01*
X223579986Y-205092426D01*
X223579976Y-205092424D01*
X223360001Y-205073179D01*
X223359999Y-205073179D01*
X223140023Y-205092424D01*
X223140013Y-205092426D01*
X222926729Y-205149575D01*
X222926720Y-205149579D01*
X222726590Y-205242901D01*
X222661811Y-205288258D01*
X223332553Y-205959000D01*
X223328431Y-205959000D01*
X223234579Y-205974661D01*
X223122749Y-206035180D01*
X223036629Y-206128731D01*
X222985552Y-206245177D01*
X222979894Y-206313446D01*
X222308258Y-205641811D01*
X222262901Y-205706590D01*
X222169579Y-205906720D01*
X222169575Y-205906729D01*
X222112426Y-206120013D01*
X222112424Y-206120023D01*
X222093179Y-206339999D01*
X222093179Y-206340000D01*
X207463905Y-206340000D01*
X207550894Y-206153450D01*
X207608070Y-205940068D01*
X207622509Y-205775017D01*
X207627323Y-205720002D01*
X207627323Y-205719997D01*
X207610296Y-205525377D01*
X207608070Y-205499932D01*
X207550894Y-205286550D01*
X207457534Y-205086339D01*
X207330826Y-204905380D01*
X207174620Y-204749174D01*
X207174616Y-204749171D01*
X207174615Y-204749170D01*
X206993666Y-204622468D01*
X206993662Y-204622466D01*
X206993660Y-204622465D01*
X206793450Y-204529106D01*
X206793447Y-204529105D01*
X206793445Y-204529104D01*
X206580070Y-204471930D01*
X206580062Y-204471929D01*
X206360002Y-204452677D01*
X206359998Y-204452677D01*
X206139937Y-204471929D01*
X206139929Y-204471930D01*
X205926554Y-204529104D01*
X205926548Y-204529107D01*
X205726340Y-204622465D01*
X205726338Y-204622466D01*
X205545377Y-204749175D01*
X205389175Y-204905377D01*
X205262466Y-205086338D01*
X205262465Y-205086340D01*
X205169107Y-205286548D01*
X205169104Y-205286554D01*
X205111930Y-205499929D01*
X205111929Y-205499937D01*
X205092677Y-205719997D01*
X205092677Y-205720002D01*
X189846821Y-205720002D01*
X189846821Y-205720000D01*
X189846821Y-205719999D01*
X189827575Y-205500023D01*
X189827573Y-205500013D01*
X189770424Y-205286729D01*
X189770420Y-205286720D01*
X189677096Y-205086586D01*
X189631741Y-205021811D01*
X189631740Y-205021810D01*
X188964903Y-205688648D01*
X188964949Y-205688102D01*
X188933734Y-205564838D01*
X188864187Y-205458388D01*
X188763843Y-205380287D01*
X188643578Y-205339000D01*
X188607448Y-205339000D01*
X189278188Y-204668259D01*
X189278187Y-204668258D01*
X189213411Y-204622901D01*
X189213405Y-204622898D01*
X189013284Y-204529580D01*
X189013270Y-204529575D01*
X188799986Y-204472426D01*
X188799976Y-204472424D01*
X188580001Y-204453179D01*
X188579999Y-204453179D01*
X188360023Y-204472424D01*
X188360013Y-204472426D01*
X188146729Y-204529575D01*
X188146720Y-204529579D01*
X187946590Y-204622901D01*
X187881811Y-204668258D01*
X188552553Y-205339000D01*
X188548431Y-205339000D01*
X188454579Y-205354661D01*
X188342749Y-205415180D01*
X188256629Y-205508731D01*
X188205552Y-205625177D01*
X188199894Y-205693447D01*
X187528258Y-205021811D01*
X187482901Y-205086590D01*
X187389579Y-205286720D01*
X187389575Y-205286729D01*
X187332426Y-205500013D01*
X187332424Y-205500023D01*
X187313179Y-205719999D01*
X187313179Y-205720000D01*
X172486448Y-205720000D01*
X172473748Y-205574838D01*
X172468070Y-205509932D01*
X172410894Y-205296550D01*
X172317534Y-205096339D01*
X172190826Y-204915380D01*
X172034620Y-204759174D01*
X172034616Y-204759171D01*
X172034615Y-204759170D01*
X171853666Y-204632468D01*
X171853662Y-204632466D01*
X171832215Y-204622465D01*
X171653450Y-204539106D01*
X171653447Y-204539105D01*
X171653445Y-204539104D01*
X171440070Y-204481930D01*
X171440062Y-204481929D01*
X171220002Y-204462677D01*
X171219998Y-204462677D01*
X170999937Y-204481929D01*
X170999929Y-204481930D01*
X170786554Y-204539104D01*
X170786548Y-204539107D01*
X170586340Y-204632465D01*
X170586338Y-204632466D01*
X170405377Y-204759175D01*
X170249175Y-204915377D01*
X170122466Y-205096338D01*
X170122465Y-205096340D01*
X170029107Y-205296548D01*
X170029104Y-205296554D01*
X169971930Y-205509929D01*
X169971929Y-205509937D01*
X169952677Y-205729997D01*
X169952677Y-205730002D01*
X154706821Y-205730002D01*
X154706821Y-205730000D01*
X154706821Y-205729999D01*
X154687575Y-205510023D01*
X154687573Y-205510013D01*
X154630424Y-205296729D01*
X154630420Y-205296720D01*
X154537096Y-205096586D01*
X154491741Y-205031811D01*
X154491740Y-205031810D01*
X153824903Y-205698648D01*
X153824949Y-205698102D01*
X153793734Y-205574838D01*
X153724187Y-205468388D01*
X153623843Y-205390287D01*
X153503578Y-205349000D01*
X153467448Y-205349000D01*
X154138188Y-204678259D01*
X154138187Y-204678258D01*
X154073411Y-204632901D01*
X154073405Y-204632898D01*
X153873284Y-204539580D01*
X153873270Y-204539575D01*
X153659986Y-204482426D01*
X153659976Y-204482424D01*
X153440001Y-204463179D01*
X153439999Y-204463179D01*
X153220023Y-204482424D01*
X153220013Y-204482426D01*
X153006729Y-204539575D01*
X153006720Y-204539579D01*
X152806590Y-204632901D01*
X152741811Y-204678258D01*
X153412553Y-205349000D01*
X153408431Y-205349000D01*
X153314579Y-205364661D01*
X153202749Y-205425180D01*
X153116629Y-205518731D01*
X153065552Y-205635177D01*
X153059894Y-205703446D01*
X152388258Y-205031811D01*
X152342901Y-205096590D01*
X152249579Y-205296720D01*
X152249575Y-205296729D01*
X152192426Y-205510013D01*
X152192424Y-205510023D01*
X152173179Y-205729999D01*
X152173179Y-205730000D01*
X98472168Y-205730000D01*
X98472168Y-179710000D01*
X102295197Y-179710000D01*
X102314397Y-180076353D01*
X102371784Y-180438684D01*
X102371784Y-180438686D01*
X102466736Y-180793051D01*
X102598204Y-181135535D01*
X102764754Y-181462406D01*
X102964553Y-181770070D01*
X103153297Y-182003148D01*
X104040857Y-181115588D01*
X104077937Y-181165914D01*
X104287356Y-181382452D01*
X104395611Y-181467940D01*
X103506850Y-182356701D01*
X103739929Y-182545446D01*
X104047593Y-182745245D01*
X104374464Y-182911795D01*
X104716948Y-183043263D01*
X105071314Y-183138215D01*
X105433646Y-183195602D01*
X105799999Y-183214803D01*
X105800001Y-183214803D01*
X106166353Y-183195602D01*
X106528684Y-183138215D01*
X106528686Y-183138215D01*
X106883051Y-183043263D01*
X107225535Y-182911795D01*
X107552406Y-182745245D01*
X107860064Y-182545450D01*
X108093148Y-182356701D01*
X107207345Y-181470898D01*
X107420973Y-181277684D01*
X107558531Y-181114978D01*
X108446701Y-182003148D01*
X108635450Y-181770064D01*
X108835245Y-181462406D01*
X109001795Y-181135535D01*
X109133263Y-180793051D01*
X109228215Y-180438686D01*
X109228215Y-180438684D01*
X109285602Y-180076353D01*
X109304803Y-179710000D01*
X109304803Y-179709999D01*
X109285602Y-179343646D01*
X109228215Y-178981315D01*
X109228215Y-178981313D01*
X109133263Y-178626948D01*
X109001795Y-178284464D01*
X108835245Y-177957594D01*
X108635446Y-177649929D01*
X108446701Y-177416850D01*
X107559141Y-178304409D01*
X107522063Y-178254086D01*
X107312644Y-178037548D01*
X107204387Y-177952059D01*
X108093149Y-177063297D01*
X107860070Y-176874553D01*
X107552406Y-176674754D01*
X107225535Y-176508204D01*
X106883051Y-176376736D01*
X106528685Y-176281784D01*
X106372031Y-176256973D01*
X106308897Y-176227044D01*
X106271965Y-176167733D01*
X106272963Y-176097870D01*
X106311573Y-176039637D01*
X106375536Y-176011523D01*
X106391429Y-176010500D01*
X107371448Y-176010500D01*
X107585428Y-175995196D01*
X107865046Y-175934369D01*
X108133161Y-175834367D01*
X108384315Y-175697226D01*
X108613395Y-175525739D01*
X108729134Y-175410000D01*
X128054341Y-175410000D01*
X128074936Y-175645403D01*
X128074938Y-175645413D01*
X128136094Y-175873655D01*
X128136096Y-175873659D01*
X128136097Y-175873663D01*
X128215801Y-176044588D01*
X128235965Y-176087830D01*
X128235967Y-176087834D01*
X128325503Y-176215703D01*
X128371504Y-176281400D01*
X128371506Y-176281402D01*
X128493430Y-176403326D01*
X128526915Y-176464649D01*
X128521931Y-176534341D01*
X128480059Y-176590274D01*
X128449083Y-176607189D01*
X128317669Y-176656203D01*
X128317664Y-176656206D01*
X128202455Y-176742452D01*
X128202452Y-176742455D01*
X128116206Y-176857664D01*
X128116202Y-176857671D01*
X128065908Y-176992517D01*
X128059501Y-177052116D01*
X128059500Y-177052135D01*
X128059500Y-178847870D01*
X128059501Y-178847876D01*
X128065908Y-178907483D01*
X128116202Y-179042328D01*
X128116206Y-179042335D01*
X128202452Y-179157544D01*
X128202455Y-179157547D01*
X128317664Y-179243793D01*
X128317671Y-179243797D01*
X128452517Y-179294091D01*
X128452516Y-179294091D01*
X128459444Y-179294835D01*
X128512127Y-179300500D01*
X130307872Y-179300499D01*
X130367483Y-179294091D01*
X130502331Y-179243796D01*
X130617546Y-179157546D01*
X130703796Y-179042331D01*
X130753002Y-178910401D01*
X130794872Y-178854468D01*
X130860337Y-178830050D01*
X130928610Y-178844901D01*
X130956865Y-178866053D01*
X131078917Y-178988105D01*
X131272421Y-179123600D01*
X131486507Y-179223429D01*
X131486516Y-179223433D01*
X131700000Y-179280634D01*
X131700000Y-178385501D01*
X131807685Y-178434680D01*
X131914237Y-178450000D01*
X131985763Y-178450000D01*
X132092315Y-178434680D01*
X132200000Y-178385501D01*
X132200000Y-179280633D01*
X132413483Y-179223433D01*
X132413492Y-179223429D01*
X132627578Y-179123600D01*
X132821082Y-178988105D01*
X132988105Y-178821082D01*
X133118425Y-178634968D01*
X133173002Y-178591344D01*
X133242501Y-178584151D01*
X133304855Y-178615673D01*
X133321575Y-178634968D01*
X133451894Y-178821082D01*
X133618917Y-178988105D01*
X133812421Y-179123600D01*
X134026507Y-179223429D01*
X134026516Y-179223433D01*
X134240000Y-179280634D01*
X134240000Y-178385501D01*
X134347685Y-178434680D01*
X134454237Y-178450000D01*
X134525763Y-178450000D01*
X134632315Y-178434680D01*
X134740000Y-178385501D01*
X134740000Y-179280633D01*
X134953483Y-179223433D01*
X134953492Y-179223429D01*
X135167578Y-179123600D01*
X135361082Y-178988105D01*
X135528105Y-178821082D01*
X135658119Y-178635405D01*
X135712696Y-178591781D01*
X135782195Y-178584588D01*
X135844549Y-178616110D01*
X135861269Y-178635405D01*
X135991505Y-178821401D01*
X136158599Y-178988495D01*
X136255384Y-179056265D01*
X136352165Y-179124032D01*
X136352167Y-179124033D01*
X136352170Y-179124035D01*
X136566337Y-179223903D01*
X136794592Y-179285063D01*
X136971034Y-179300500D01*
X137029999Y-179305659D01*
X137030000Y-179305659D01*
X137030001Y-179305659D01*
X137088966Y-179300500D01*
X137265408Y-179285063D01*
X137493663Y-179223903D01*
X137707830Y-179124035D01*
X137901401Y-178988495D01*
X138068495Y-178821401D01*
X138198425Y-178635842D01*
X138253002Y-178592217D01*
X138322500Y-178585023D01*
X138384855Y-178616546D01*
X138401575Y-178635842D01*
X138531500Y-178821395D01*
X138531505Y-178821401D01*
X138698599Y-178988495D01*
X138795384Y-179056265D01*
X138892165Y-179124032D01*
X138892167Y-179124033D01*
X138892170Y-179124035D01*
X139106337Y-179223903D01*
X139334592Y-179285063D01*
X139511034Y-179300500D01*
X139569999Y-179305659D01*
X139570000Y-179305659D01*
X139570001Y-179305659D01*
X139628966Y-179300500D01*
X139805408Y-179285063D01*
X140033663Y-179223903D01*
X140247830Y-179124035D01*
X140441401Y-178988495D01*
X140608495Y-178821401D01*
X140738425Y-178635842D01*
X140793002Y-178592217D01*
X140862500Y-178585023D01*
X140924855Y-178616546D01*
X140941575Y-178635842D01*
X141071500Y-178821395D01*
X141071505Y-178821401D01*
X141238599Y-178988495D01*
X141335384Y-179056265D01*
X141432165Y-179124032D01*
X141432167Y-179124033D01*
X141432170Y-179124035D01*
X141646337Y-179223903D01*
X141874592Y-179285063D01*
X142051034Y-179300500D01*
X142109999Y-179305659D01*
X142110000Y-179305659D01*
X142110001Y-179305659D01*
X142168966Y-179300500D01*
X142345408Y-179285063D01*
X142573663Y-179223903D01*
X142787830Y-179124035D01*
X142981401Y-178988495D01*
X143148495Y-178821401D01*
X143284035Y-178627830D01*
X143383903Y-178413663D01*
X143445063Y-178185408D01*
X143465659Y-177950000D01*
X143445063Y-177714592D01*
X143383903Y-177486337D01*
X143284035Y-177272171D01*
X143278731Y-177264595D01*
X143148494Y-177078597D01*
X142981402Y-176911506D01*
X142981396Y-176911501D01*
X142795842Y-176781575D01*
X142752217Y-176726998D01*
X142745023Y-176657500D01*
X142776546Y-176595145D01*
X142795842Y-176578425D01*
X142858800Y-176534341D01*
X142981401Y-176448495D01*
X143148495Y-176281401D01*
X143284035Y-176087830D01*
X143383903Y-175873663D01*
X143445063Y-175645408D01*
X143465659Y-175410000D01*
X143445063Y-175174592D01*
X143383903Y-174946337D01*
X143284035Y-174732171D01*
X143278731Y-174724595D01*
X143148494Y-174538597D01*
X142981402Y-174371506D01*
X142981395Y-174371501D01*
X142787834Y-174235967D01*
X142787830Y-174235965D01*
X142787828Y-174235964D01*
X142573663Y-174136097D01*
X142573659Y-174136096D01*
X142573655Y-174136094D01*
X142345413Y-174074938D01*
X142345403Y-174074936D01*
X142110001Y-174054341D01*
X142109999Y-174054341D01*
X141874596Y-174074936D01*
X141874586Y-174074938D01*
X141646344Y-174136094D01*
X141646335Y-174136098D01*
X141432171Y-174235964D01*
X141432169Y-174235965D01*
X141238597Y-174371505D01*
X141071505Y-174538597D01*
X140941575Y-174724158D01*
X140886998Y-174767783D01*
X140817500Y-174774977D01*
X140755145Y-174743454D01*
X140738425Y-174724158D01*
X140608494Y-174538597D01*
X140441402Y-174371506D01*
X140441395Y-174371501D01*
X140247834Y-174235967D01*
X140247830Y-174235965D01*
X140247828Y-174235964D01*
X140033663Y-174136097D01*
X140033659Y-174136096D01*
X140033655Y-174136094D01*
X139805413Y-174074938D01*
X139805403Y-174074936D01*
X139570001Y-174054341D01*
X139569999Y-174054341D01*
X139334596Y-174074936D01*
X139334586Y-174074938D01*
X139106344Y-174136094D01*
X139106335Y-174136098D01*
X138892171Y-174235964D01*
X138892169Y-174235965D01*
X138698597Y-174371505D01*
X138531505Y-174538597D01*
X138401575Y-174724158D01*
X138346998Y-174767783D01*
X138277500Y-174774977D01*
X138215145Y-174743454D01*
X138198425Y-174724158D01*
X138068494Y-174538597D01*
X137901402Y-174371506D01*
X137901395Y-174371501D01*
X137707834Y-174235967D01*
X137707830Y-174235965D01*
X137707828Y-174235964D01*
X137493663Y-174136097D01*
X137493659Y-174136096D01*
X137493655Y-174136094D01*
X137265413Y-174074938D01*
X137265403Y-174074936D01*
X137030001Y-174054341D01*
X137029999Y-174054341D01*
X136794596Y-174074936D01*
X136794586Y-174074938D01*
X136566344Y-174136094D01*
X136566335Y-174136098D01*
X136352171Y-174235964D01*
X136352169Y-174235965D01*
X136158597Y-174371505D01*
X135991508Y-174538594D01*
X135861269Y-174724595D01*
X135806692Y-174768219D01*
X135737193Y-174775412D01*
X135674839Y-174743890D01*
X135658119Y-174724594D01*
X135528113Y-174538926D01*
X135528108Y-174538920D01*
X135361082Y-174371894D01*
X135167578Y-174236399D01*
X134953492Y-174136570D01*
X134953486Y-174136567D01*
X134740000Y-174079364D01*
X134740000Y-174974498D01*
X134632315Y-174925320D01*
X134525763Y-174910000D01*
X134454237Y-174910000D01*
X134347685Y-174925320D01*
X134240000Y-174974498D01*
X134240000Y-174079364D01*
X134239999Y-174079364D01*
X134026513Y-174136567D01*
X134026507Y-174136570D01*
X133812422Y-174236399D01*
X133812420Y-174236400D01*
X133618926Y-174371886D01*
X133618920Y-174371891D01*
X133451891Y-174538920D01*
X133451890Y-174538922D01*
X133321575Y-174725031D01*
X133266998Y-174768655D01*
X133197499Y-174775848D01*
X133135145Y-174744326D01*
X133118425Y-174725031D01*
X132988109Y-174538922D01*
X132988108Y-174538920D01*
X132821082Y-174371894D01*
X132627578Y-174236399D01*
X132413492Y-174136570D01*
X132413486Y-174136567D01*
X132200000Y-174079364D01*
X132200000Y-174974498D01*
X132092315Y-174925320D01*
X131985763Y-174910000D01*
X131914237Y-174910000D01*
X131807685Y-174925320D01*
X131700000Y-174974498D01*
X131700000Y-174079364D01*
X131699999Y-174079364D01*
X131486513Y-174136567D01*
X131486507Y-174136570D01*
X131272422Y-174236399D01*
X131272420Y-174236400D01*
X131078926Y-174371886D01*
X131078920Y-174371891D01*
X130911891Y-174538920D01*
X130911890Y-174538922D01*
X130781880Y-174724595D01*
X130727303Y-174768219D01*
X130657804Y-174775412D01*
X130595450Y-174743890D01*
X130578730Y-174724594D01*
X130448494Y-174538597D01*
X130281402Y-174371506D01*
X130281395Y-174371501D01*
X130087834Y-174235967D01*
X130087830Y-174235965D01*
X130087828Y-174235964D01*
X129873663Y-174136097D01*
X129873659Y-174136096D01*
X129873655Y-174136094D01*
X129645413Y-174074938D01*
X129645403Y-174074936D01*
X129410001Y-174054341D01*
X129409999Y-174054341D01*
X129174596Y-174074936D01*
X129174586Y-174074938D01*
X128946344Y-174136094D01*
X128946335Y-174136098D01*
X128732171Y-174235964D01*
X128732169Y-174235965D01*
X128538597Y-174371505D01*
X128371505Y-174538597D01*
X128235965Y-174732169D01*
X128235964Y-174732171D01*
X128136098Y-174946335D01*
X128136094Y-174946344D01*
X128074938Y-175174586D01*
X128074936Y-175174596D01*
X128054341Y-175409999D01*
X128054341Y-175410000D01*
X108729134Y-175410000D01*
X108815739Y-175323395D01*
X108987226Y-175094315D01*
X109124367Y-174843161D01*
X109224369Y-174575046D01*
X109285196Y-174295428D01*
X109300500Y-174081448D01*
X109300500Y-170938552D01*
X109285196Y-170724572D01*
X109224369Y-170444954D01*
X109124367Y-170176839D01*
X108987226Y-169925685D01*
X108987224Y-169925682D01*
X108815745Y-169696612D01*
X108815729Y-169696594D01*
X108613405Y-169494270D01*
X108613387Y-169494254D01*
X108384317Y-169322775D01*
X108384309Y-169322770D01*
X108133166Y-169185635D01*
X108133167Y-169185635D01*
X108025915Y-169145632D01*
X107865046Y-169085631D01*
X107865043Y-169085630D01*
X107865037Y-169085628D01*
X107585433Y-169024804D01*
X107371450Y-169009500D01*
X107371448Y-169009500D01*
X104228552Y-169009500D01*
X104228549Y-169009500D01*
X104014566Y-169024804D01*
X103734962Y-169085628D01*
X103466833Y-169185635D01*
X103215690Y-169322770D01*
X103215682Y-169322775D01*
X102986612Y-169494254D01*
X102986594Y-169494270D01*
X102784270Y-169696594D01*
X102784254Y-169696612D01*
X102612775Y-169925682D01*
X102612770Y-169925690D01*
X102475635Y-170176833D01*
X102375628Y-170444962D01*
X102314804Y-170724566D01*
X102299500Y-170938549D01*
X102299500Y-174081450D01*
X102314804Y-174295433D01*
X102375628Y-174575037D01*
X102375630Y-174575043D01*
X102375631Y-174575046D01*
X102475633Y-174843161D01*
X102475635Y-174843166D01*
X102612770Y-175094309D01*
X102612775Y-175094317D01*
X102784254Y-175323387D01*
X102784270Y-175323405D01*
X102986594Y-175525729D01*
X102986612Y-175525745D01*
X103215682Y-175697224D01*
X103215690Y-175697229D01*
X103466833Y-175834364D01*
X103466832Y-175834364D01*
X103466836Y-175834365D01*
X103466839Y-175834367D01*
X103734954Y-175934369D01*
X103734960Y-175934370D01*
X103734962Y-175934371D01*
X104014566Y-175995195D01*
X104014568Y-175995195D01*
X104014572Y-175995196D01*
X104228552Y-176010500D01*
X105208571Y-176010500D01*
X105275610Y-176030185D01*
X105321365Y-176082989D01*
X105331309Y-176152147D01*
X105302284Y-176215703D01*
X105243506Y-176253477D01*
X105227969Y-176256973D01*
X105071315Y-176281784D01*
X105071313Y-176281784D01*
X104716948Y-176376736D01*
X104374464Y-176508204D01*
X104047594Y-176674754D01*
X103739924Y-176874557D01*
X103506849Y-177063296D01*
X103506849Y-177063297D01*
X104392654Y-177949101D01*
X104179027Y-178142316D01*
X104041468Y-178305020D01*
X103153297Y-177416849D01*
X103153296Y-177416849D01*
X102964557Y-177649924D01*
X102764754Y-177957594D01*
X102598204Y-178284464D01*
X102466736Y-178626948D01*
X102371784Y-178981313D01*
X102371784Y-178981315D01*
X102314397Y-179343646D01*
X102295197Y-179709999D01*
X102295197Y-179710000D01*
X98472168Y-179710000D01*
X98472168Y-165090000D01*
X152173179Y-165090000D01*
X152192424Y-165309976D01*
X152192426Y-165309986D01*
X152249575Y-165523270D01*
X152249580Y-165523284D01*
X152342898Y-165723405D01*
X152342901Y-165723411D01*
X152388258Y-165788187D01*
X152388259Y-165788188D01*
X153055096Y-165121350D01*
X153055051Y-165121898D01*
X153086266Y-165245162D01*
X153155813Y-165351612D01*
X153256157Y-165429713D01*
X153376422Y-165471000D01*
X153412553Y-165471000D01*
X152741810Y-166141740D01*
X152806590Y-166187099D01*
X152806592Y-166187100D01*
X153006715Y-166280419D01*
X153006729Y-166280424D01*
X153220013Y-166337573D01*
X153220023Y-166337575D01*
X153439999Y-166356821D01*
X153440001Y-166356821D01*
X153659976Y-166337575D01*
X153659986Y-166337573D01*
X153873270Y-166280424D01*
X153873284Y-166280419D01*
X154073407Y-166187100D01*
X154073417Y-166187094D01*
X154138188Y-166141741D01*
X153467448Y-165471000D01*
X153471569Y-165471000D01*
X153565421Y-165455339D01*
X153677251Y-165394820D01*
X153763371Y-165301269D01*
X153814448Y-165184823D01*
X153820105Y-165116552D01*
X154491741Y-165788188D01*
X154537094Y-165723417D01*
X154537100Y-165723407D01*
X154630419Y-165523284D01*
X154630424Y-165523270D01*
X154687573Y-165309986D01*
X154687575Y-165309976D01*
X154706821Y-165090002D01*
X169952677Y-165090002D01*
X169971929Y-165310062D01*
X169971930Y-165310070D01*
X170029104Y-165523445D01*
X170029105Y-165523447D01*
X170029106Y-165523450D01*
X170067216Y-165605177D01*
X170122466Y-165723662D01*
X170122468Y-165723666D01*
X170249170Y-165904615D01*
X170249175Y-165904621D01*
X170405378Y-166060824D01*
X170405384Y-166060829D01*
X170586333Y-166187531D01*
X170586335Y-166187532D01*
X170586338Y-166187534D01*
X170786550Y-166280894D01*
X170999932Y-166338070D01*
X171157123Y-166351822D01*
X171219998Y-166357323D01*
X171220000Y-166357323D01*
X171220002Y-166357323D01*
X171275017Y-166352509D01*
X171440068Y-166338070D01*
X171653450Y-166280894D01*
X171853662Y-166187534D01*
X172034620Y-166060826D01*
X172190826Y-165904620D01*
X172317534Y-165723662D01*
X172410894Y-165523450D01*
X172468070Y-165310068D01*
X172487323Y-165090000D01*
X172486448Y-165080002D01*
X172486448Y-165080000D01*
X187313179Y-165080000D01*
X187332424Y-165299976D01*
X187332426Y-165299986D01*
X187389575Y-165513270D01*
X187389580Y-165513284D01*
X187482898Y-165713405D01*
X187482901Y-165713411D01*
X187528258Y-165778187D01*
X187528259Y-165778188D01*
X188195096Y-165111350D01*
X188195051Y-165111898D01*
X188226266Y-165235162D01*
X188295813Y-165341612D01*
X188396157Y-165419713D01*
X188516422Y-165461000D01*
X188552553Y-165461000D01*
X187881810Y-166131740D01*
X187946590Y-166177099D01*
X187946592Y-166177100D01*
X188146715Y-166270419D01*
X188146729Y-166270424D01*
X188360013Y-166327573D01*
X188360023Y-166327575D01*
X188579999Y-166346821D01*
X188580001Y-166346821D01*
X188799976Y-166327575D01*
X188799986Y-166327573D01*
X189013270Y-166270424D01*
X189013284Y-166270419D01*
X189213407Y-166177100D01*
X189213417Y-166177094D01*
X189278188Y-166131741D01*
X188607448Y-165461000D01*
X188611569Y-165461000D01*
X188705421Y-165445339D01*
X188817251Y-165384820D01*
X188903371Y-165291269D01*
X188954448Y-165174823D01*
X188960105Y-165106552D01*
X189631741Y-165778188D01*
X189677094Y-165713417D01*
X189677100Y-165713407D01*
X189770419Y-165513284D01*
X189770424Y-165513270D01*
X189827573Y-165299986D01*
X189827575Y-165299976D01*
X189846821Y-165080002D01*
X205092677Y-165080002D01*
X205111929Y-165300062D01*
X205111930Y-165300070D01*
X205169104Y-165513445D01*
X205169105Y-165513447D01*
X205169106Y-165513450D01*
X205211879Y-165605177D01*
X205262466Y-165713662D01*
X205262468Y-165713666D01*
X205389170Y-165894615D01*
X205389175Y-165894621D01*
X205545378Y-166050824D01*
X205545384Y-166050829D01*
X205726333Y-166177531D01*
X205726335Y-166177532D01*
X205726338Y-166177534D01*
X205926550Y-166270894D01*
X206139932Y-166328070D01*
X206297123Y-166341822D01*
X206359998Y-166347323D01*
X206360000Y-166347323D01*
X206360002Y-166347323D01*
X206415017Y-166342509D01*
X206580068Y-166328070D01*
X206793450Y-166270894D01*
X206993662Y-166177534D01*
X207174620Y-166050826D01*
X207330826Y-165894620D01*
X207457534Y-165713662D01*
X207463905Y-165700000D01*
X222093179Y-165700000D01*
X222112424Y-165919976D01*
X222112426Y-165919986D01*
X222169575Y-166133270D01*
X222169580Y-166133284D01*
X222262898Y-166333405D01*
X222262901Y-166333411D01*
X222308258Y-166398187D01*
X222308259Y-166398188D01*
X222975096Y-165731350D01*
X222975051Y-165731898D01*
X223006266Y-165855162D01*
X223075813Y-165961612D01*
X223176157Y-166039713D01*
X223296422Y-166081000D01*
X223332553Y-166081000D01*
X222661810Y-166751740D01*
X222726590Y-166797099D01*
X222726592Y-166797100D01*
X222926715Y-166890419D01*
X222926729Y-166890424D01*
X223140013Y-166947573D01*
X223140023Y-166947575D01*
X223359999Y-166966821D01*
X223360001Y-166966821D01*
X223579976Y-166947575D01*
X223579986Y-166947573D01*
X223793270Y-166890424D01*
X223793284Y-166890419D01*
X223993407Y-166797100D01*
X223993417Y-166797094D01*
X224058188Y-166751741D01*
X223387448Y-166081000D01*
X223391569Y-166081000D01*
X223485421Y-166065339D01*
X223597251Y-166004820D01*
X223683371Y-165911269D01*
X223734448Y-165794823D01*
X223740105Y-165726552D01*
X224411741Y-166398188D01*
X224457094Y-166333417D01*
X224457100Y-166333407D01*
X224550419Y-166133284D01*
X224550424Y-166133270D01*
X224607573Y-165919986D01*
X224607575Y-165919976D01*
X224626821Y-165700002D01*
X239872677Y-165700002D01*
X239891929Y-165920062D01*
X239891930Y-165920070D01*
X239949104Y-166133445D01*
X239949105Y-166133447D01*
X239949106Y-166133450D01*
X240039627Y-166327573D01*
X240042466Y-166333662D01*
X240042468Y-166333666D01*
X240169170Y-166514615D01*
X240169175Y-166514621D01*
X240325378Y-166670824D01*
X240325384Y-166670829D01*
X240506333Y-166797531D01*
X240506335Y-166797532D01*
X240506338Y-166797534D01*
X240706550Y-166890894D01*
X240919932Y-166948070D01*
X241077123Y-166961822D01*
X241139998Y-166967323D01*
X241140000Y-166967323D01*
X241140002Y-166967323D01*
X241195017Y-166962509D01*
X241360068Y-166948070D01*
X241573450Y-166890894D01*
X241773662Y-166797534D01*
X241954620Y-166670826D01*
X242110826Y-166514620D01*
X242237534Y-166333662D01*
X242330894Y-166133450D01*
X242388070Y-165920068D01*
X242405275Y-165723405D01*
X242407323Y-165700002D01*
X242407323Y-165699997D01*
X242391877Y-165523445D01*
X242388070Y-165479932D01*
X242330894Y-165266550D01*
X242237534Y-165066339D01*
X242110826Y-164885380D01*
X241954620Y-164729174D01*
X241954616Y-164729171D01*
X241954615Y-164729170D01*
X241773666Y-164602468D01*
X241773662Y-164602466D01*
X241773660Y-164602465D01*
X241573450Y-164509106D01*
X241573447Y-164509105D01*
X241573445Y-164509104D01*
X241360070Y-164451930D01*
X241360062Y-164451929D01*
X241140002Y-164432677D01*
X241139998Y-164432677D01*
X240919937Y-164451929D01*
X240919929Y-164451930D01*
X240706554Y-164509104D01*
X240706548Y-164509107D01*
X240506340Y-164602465D01*
X240506338Y-164602466D01*
X240325377Y-164729175D01*
X240169175Y-164885377D01*
X240042466Y-165066338D01*
X240042465Y-165066340D01*
X239949107Y-165266548D01*
X239949104Y-165266554D01*
X239891930Y-165479929D01*
X239891929Y-165479937D01*
X239872677Y-165699997D01*
X239872677Y-165700002D01*
X224626821Y-165700002D01*
X224626821Y-165700000D01*
X224626821Y-165699999D01*
X224607575Y-165480023D01*
X224607573Y-165480013D01*
X224550424Y-165266729D01*
X224550420Y-165266720D01*
X224457096Y-165066586D01*
X224411741Y-165001811D01*
X224411740Y-165001810D01*
X223744903Y-165668648D01*
X223744949Y-165668102D01*
X223713734Y-165544838D01*
X223644187Y-165438388D01*
X223543843Y-165360287D01*
X223423578Y-165319000D01*
X223387448Y-165319000D01*
X224058188Y-164648259D01*
X224058187Y-164648258D01*
X223993411Y-164602901D01*
X223993405Y-164602898D01*
X223793284Y-164509580D01*
X223793270Y-164509575D01*
X223579986Y-164452426D01*
X223579976Y-164452424D01*
X223360001Y-164433179D01*
X223359999Y-164433179D01*
X223140023Y-164452424D01*
X223140013Y-164452426D01*
X222926729Y-164509575D01*
X222926720Y-164509579D01*
X222726590Y-164602901D01*
X222661811Y-164648258D01*
X223332553Y-165319000D01*
X223328431Y-165319000D01*
X223234579Y-165334661D01*
X223122749Y-165395180D01*
X223036629Y-165488731D01*
X222985552Y-165605177D01*
X222979894Y-165673446D01*
X222308258Y-165001811D01*
X222262901Y-165066590D01*
X222169579Y-165266720D01*
X222169575Y-165266729D01*
X222112426Y-165480013D01*
X222112424Y-165480023D01*
X222093179Y-165699999D01*
X222093179Y-165700000D01*
X207463905Y-165700000D01*
X207550894Y-165513450D01*
X207608070Y-165300068D01*
X207622509Y-165135017D01*
X207627323Y-165080002D01*
X207627323Y-165079997D01*
X207610296Y-164885377D01*
X207608070Y-164859932D01*
X207550894Y-164646550D01*
X207457534Y-164446339D01*
X207330826Y-164265380D01*
X207174620Y-164109174D01*
X207174616Y-164109171D01*
X207174615Y-164109170D01*
X206993666Y-163982468D01*
X206993662Y-163982466D01*
X206993660Y-163982465D01*
X206793450Y-163889106D01*
X206793447Y-163889105D01*
X206793445Y-163889104D01*
X206580070Y-163831930D01*
X206580062Y-163831929D01*
X206360002Y-163812677D01*
X206359998Y-163812677D01*
X206139937Y-163831929D01*
X206139929Y-163831930D01*
X205926554Y-163889104D01*
X205926548Y-163889107D01*
X205726340Y-163982465D01*
X205726338Y-163982466D01*
X205545377Y-164109175D01*
X205389175Y-164265377D01*
X205262466Y-164446338D01*
X205262465Y-164446340D01*
X205169107Y-164646548D01*
X205169104Y-164646554D01*
X205111930Y-164859929D01*
X205111929Y-164859937D01*
X205092677Y-165079997D01*
X205092677Y-165080002D01*
X189846821Y-165080002D01*
X189846821Y-165080000D01*
X189846821Y-165079999D01*
X189827575Y-164860023D01*
X189827573Y-164860013D01*
X189770424Y-164646729D01*
X189770420Y-164646720D01*
X189677096Y-164446586D01*
X189631741Y-164381811D01*
X189631740Y-164381810D01*
X188964903Y-165048648D01*
X188964949Y-165048102D01*
X188933734Y-164924838D01*
X188864187Y-164818388D01*
X188763843Y-164740287D01*
X188643578Y-164699000D01*
X188607448Y-164699000D01*
X189278188Y-164028259D01*
X189278187Y-164028258D01*
X189213411Y-163982901D01*
X189213405Y-163982898D01*
X189013284Y-163889580D01*
X189013270Y-163889575D01*
X188799986Y-163832426D01*
X188799976Y-163832424D01*
X188580001Y-163813179D01*
X188579999Y-163813179D01*
X188360023Y-163832424D01*
X188360013Y-163832426D01*
X188146729Y-163889575D01*
X188146720Y-163889579D01*
X187946590Y-163982901D01*
X187881811Y-164028258D01*
X188552553Y-164699000D01*
X188548431Y-164699000D01*
X188454579Y-164714661D01*
X188342749Y-164775180D01*
X188256629Y-164868731D01*
X188205552Y-164985177D01*
X188199894Y-165053447D01*
X187528258Y-164381811D01*
X187482901Y-164446590D01*
X187389579Y-164646720D01*
X187389575Y-164646729D01*
X187332426Y-164860013D01*
X187332424Y-164860023D01*
X187313179Y-165079999D01*
X187313179Y-165080000D01*
X172486448Y-165080000D01*
X172473748Y-164934838D01*
X172468070Y-164869932D01*
X172410894Y-164656550D01*
X172317534Y-164456339D01*
X172190826Y-164275380D01*
X172034620Y-164119174D01*
X172034616Y-164119171D01*
X172034615Y-164119170D01*
X171853666Y-163992468D01*
X171853662Y-163992466D01*
X171832215Y-163982465D01*
X171653450Y-163899106D01*
X171653447Y-163899105D01*
X171653445Y-163899104D01*
X171440070Y-163841930D01*
X171440062Y-163841929D01*
X171220002Y-163822677D01*
X171219998Y-163822677D01*
X170999937Y-163841929D01*
X170999929Y-163841930D01*
X170786554Y-163899104D01*
X170786548Y-163899107D01*
X170586340Y-163992465D01*
X170586338Y-163992466D01*
X170405377Y-164119175D01*
X170249175Y-164275377D01*
X170122466Y-164456338D01*
X170122465Y-164456340D01*
X170029107Y-164656548D01*
X170029104Y-164656554D01*
X169971930Y-164869929D01*
X169971929Y-164869937D01*
X169952677Y-165089997D01*
X169952677Y-165090002D01*
X154706821Y-165090002D01*
X154706821Y-165090000D01*
X154706821Y-165089999D01*
X154687575Y-164870023D01*
X154687573Y-164870013D01*
X154630424Y-164656729D01*
X154630420Y-164656720D01*
X154537096Y-164456586D01*
X154491741Y-164391811D01*
X154491740Y-164391810D01*
X153824903Y-165058648D01*
X153824949Y-165058102D01*
X153793734Y-164934838D01*
X153724187Y-164828388D01*
X153623843Y-164750287D01*
X153503578Y-164709000D01*
X153467448Y-164709000D01*
X154138188Y-164038259D01*
X154138187Y-164038258D01*
X154073411Y-163992901D01*
X154073405Y-163992898D01*
X153873284Y-163899580D01*
X153873270Y-163899575D01*
X153659986Y-163842426D01*
X153659976Y-163842424D01*
X153440001Y-163823179D01*
X153439999Y-163823179D01*
X153220023Y-163842424D01*
X153220013Y-163842426D01*
X153006729Y-163899575D01*
X153006720Y-163899579D01*
X152806590Y-163992901D01*
X152741811Y-164038258D01*
X153412553Y-164709000D01*
X153408431Y-164709000D01*
X153314579Y-164724661D01*
X153202749Y-164785180D01*
X153116629Y-164878731D01*
X153065552Y-164995177D01*
X153059894Y-165063446D01*
X152388258Y-164391811D01*
X152342901Y-164456590D01*
X152249579Y-164656720D01*
X152249575Y-164656729D01*
X152192426Y-164870013D01*
X152192424Y-164870023D01*
X152173179Y-165089999D01*
X152173179Y-165090000D01*
X98472168Y-165090000D01*
X98472168Y-151390004D01*
X107794953Y-151390004D01*
X107815113Y-151659026D01*
X107815113Y-151659028D01*
X107875142Y-151922033D01*
X107875148Y-151922052D01*
X107973709Y-152173181D01*
X107973708Y-152173181D01*
X108108602Y-152406822D01*
X108162294Y-152474151D01*
X108883337Y-151753107D01*
X108970577Y-151891948D01*
X109098052Y-152019423D01*
X109236890Y-152106661D01*
X108514848Y-152828702D01*
X108697483Y-152953220D01*
X108697485Y-152953221D01*
X108940539Y-153070269D01*
X108940537Y-153070269D01*
X109198337Y-153149790D01*
X109198343Y-153149792D01*
X109465101Y-153189999D01*
X109465110Y-153190000D01*
X109734890Y-153190000D01*
X109734898Y-153189999D01*
X110001656Y-153149792D01*
X110001662Y-153149790D01*
X110259461Y-153070269D01*
X110502521Y-152953218D01*
X110685150Y-152828702D01*
X109963108Y-152106661D01*
X110101948Y-152019423D01*
X110229423Y-151891948D01*
X110316661Y-151753108D01*
X111037703Y-152474151D01*
X111037704Y-152474150D01*
X111091393Y-152406828D01*
X111091400Y-152406817D01*
X111226290Y-152173181D01*
X111324851Y-151922052D01*
X111324857Y-151922033D01*
X111384886Y-151659028D01*
X111384886Y-151659026D01*
X111405047Y-151390004D01*
X111405047Y-151389995D01*
X111384886Y-151120973D01*
X111384886Y-151120971D01*
X111324857Y-150857966D01*
X111324851Y-150857947D01*
X111226290Y-150606818D01*
X111226291Y-150606818D01*
X111091397Y-150373177D01*
X111037704Y-150305847D01*
X110316660Y-151026890D01*
X110229423Y-150888052D01*
X110101948Y-150760577D01*
X109963108Y-150673338D01*
X110685150Y-149951296D01*
X110502517Y-149826779D01*
X110502516Y-149826778D01*
X110259460Y-149709730D01*
X110259462Y-149709730D01*
X110001662Y-149630209D01*
X110001656Y-149630207D01*
X109734898Y-149590000D01*
X109465101Y-149590000D01*
X109198343Y-149630207D01*
X109198337Y-149630209D01*
X108940538Y-149709730D01*
X108697485Y-149826778D01*
X108697476Y-149826783D01*
X108514848Y-149951296D01*
X109236891Y-150673338D01*
X109098052Y-150760577D01*
X108970577Y-150888052D01*
X108883338Y-151026891D01*
X108162295Y-150305848D01*
X108108600Y-150373180D01*
X107973709Y-150606818D01*
X107875148Y-150857947D01*
X107875142Y-150857966D01*
X107815113Y-151120971D01*
X107815113Y-151120973D01*
X107794953Y-151389995D01*
X107794953Y-151390004D01*
X98472168Y-151390004D01*
X98472168Y-146690004D01*
X104794953Y-146690004D01*
X104815113Y-146959026D01*
X104815113Y-146959028D01*
X104875142Y-147222033D01*
X104875148Y-147222052D01*
X104973709Y-147473181D01*
X104973708Y-147473181D01*
X105108602Y-147706822D01*
X105162294Y-147774151D01*
X105883337Y-147053107D01*
X105970577Y-147191948D01*
X106098052Y-147319423D01*
X106236890Y-147406661D01*
X105514848Y-148128702D01*
X105697483Y-148253220D01*
X105697485Y-148253221D01*
X105940539Y-148370269D01*
X105940537Y-148370269D01*
X106198337Y-148449790D01*
X106198343Y-148449792D01*
X106465101Y-148489999D01*
X106465110Y-148490000D01*
X106734890Y-148490000D01*
X106734898Y-148489999D01*
X107001656Y-148449792D01*
X107001662Y-148449790D01*
X107259461Y-148370269D01*
X107502521Y-148253218D01*
X107685150Y-148128702D01*
X107594318Y-148037870D01*
X110799500Y-148037870D01*
X110799501Y-148037876D01*
X110805908Y-148097483D01*
X110856202Y-148232328D01*
X110856206Y-148232335D01*
X110942452Y-148347544D01*
X110942455Y-148347547D01*
X111057664Y-148433793D01*
X111057671Y-148433797D01*
X111192517Y-148484091D01*
X111192516Y-148484091D01*
X111199444Y-148484835D01*
X111252127Y-148490500D01*
X113947872Y-148490499D01*
X114007483Y-148484091D01*
X114142331Y-148433796D01*
X114257546Y-148347546D01*
X114343796Y-148232331D01*
X114394091Y-148097483D01*
X114400500Y-148037873D01*
X114400499Y-145342128D01*
X114394091Y-145282517D01*
X114382446Y-145251296D01*
X114343797Y-145147671D01*
X114343793Y-145147664D01*
X114257547Y-145032455D01*
X114257544Y-145032452D01*
X114142335Y-144946206D01*
X114142328Y-144946202D01*
X114007482Y-144895908D01*
X114007483Y-144895908D01*
X113947883Y-144889501D01*
X113947881Y-144889500D01*
X113947873Y-144889500D01*
X113947864Y-144889500D01*
X111252129Y-144889500D01*
X111252123Y-144889501D01*
X111192516Y-144895908D01*
X111057671Y-144946202D01*
X111057664Y-144946206D01*
X110942455Y-145032452D01*
X110942452Y-145032455D01*
X110856206Y-145147664D01*
X110856202Y-145147671D01*
X110805908Y-145282517D01*
X110799501Y-145342116D01*
X110799501Y-145342123D01*
X110799500Y-145342135D01*
X110799500Y-148037870D01*
X107594318Y-148037870D01*
X106963108Y-147406661D01*
X107101948Y-147319423D01*
X107229423Y-147191948D01*
X107316661Y-147053108D01*
X108037703Y-147774151D01*
X108037704Y-147774150D01*
X108091393Y-147706828D01*
X108091400Y-147706817D01*
X108226290Y-147473181D01*
X108324851Y-147222052D01*
X108324857Y-147222033D01*
X108384886Y-146959028D01*
X108384886Y-146959026D01*
X108405047Y-146690004D01*
X108405047Y-146689995D01*
X108384886Y-146420973D01*
X108384886Y-146420971D01*
X108324857Y-146157966D01*
X108324851Y-146157947D01*
X108226290Y-145906818D01*
X108226291Y-145906818D01*
X108091397Y-145673177D01*
X108037704Y-145605847D01*
X107316660Y-146326890D01*
X107229423Y-146188052D01*
X107101948Y-146060577D01*
X106963108Y-145973338D01*
X107685150Y-145251296D01*
X107502517Y-145126779D01*
X107502516Y-145126778D01*
X107259460Y-145009730D01*
X107259462Y-145009730D01*
X107001662Y-144930209D01*
X107001656Y-144930207D01*
X106734898Y-144890000D01*
X106465101Y-144890000D01*
X106198343Y-144930207D01*
X106198337Y-144930209D01*
X105940538Y-145009730D01*
X105697485Y-145126778D01*
X105697476Y-145126783D01*
X105514848Y-145251296D01*
X106236891Y-145973338D01*
X106098052Y-146060577D01*
X105970577Y-146188052D01*
X105883338Y-146326891D01*
X105162295Y-145605848D01*
X105108600Y-145673180D01*
X104973709Y-145906818D01*
X104875148Y-146157947D01*
X104875142Y-146157966D01*
X104815113Y-146420971D01*
X104815113Y-146420973D01*
X104794953Y-146689995D01*
X104794953Y-146690004D01*
X98472168Y-146690004D01*
X98472168Y-139980000D01*
X249581009Y-139980000D01*
X249601604Y-140215403D01*
X249601606Y-140215413D01*
X249662762Y-140443655D01*
X249662764Y-140443659D01*
X249662765Y-140443663D01*
X249762633Y-140657830D01*
X249762635Y-140657834D01*
X249870949Y-140812521D01*
X249898173Y-140851401D01*
X250065267Y-141018495D01*
X250162052Y-141086265D01*
X250258833Y-141154032D01*
X250258835Y-141154033D01*
X250258838Y-141154035D01*
X250473005Y-141253903D01*
X250701260Y-141315063D01*
X250889586Y-141331539D01*
X250936667Y-141335659D01*
X250936668Y-141335659D01*
X250936669Y-141335659D01*
X250975902Y-141332226D01*
X251172076Y-141315063D01*
X251400331Y-141253903D01*
X251614498Y-141154035D01*
X251808069Y-141018495D01*
X251975163Y-140851401D01*
X252110703Y-140657830D01*
X252210571Y-140443663D01*
X252271731Y-140215408D01*
X252292327Y-139980000D01*
X252271731Y-139744592D01*
X252210571Y-139516337D01*
X252110703Y-139302171D01*
X251975163Y-139108599D01*
X251975162Y-139108597D01*
X251808070Y-138941506D01*
X251808064Y-138941501D01*
X251622510Y-138811575D01*
X251578885Y-138756998D01*
X251571691Y-138687500D01*
X251603214Y-138625145D01*
X251622510Y-138608425D01*
X251644694Y-138592891D01*
X251808069Y-138478495D01*
X251975163Y-138311401D01*
X252110703Y-138117830D01*
X252210571Y-137903663D01*
X252271731Y-137675408D01*
X252292327Y-137440000D01*
X252271731Y-137204592D01*
X252210571Y-136976337D01*
X252110703Y-136762171D01*
X251975163Y-136568599D01*
X251975162Y-136568597D01*
X251808070Y-136401506D01*
X251808064Y-136401501D01*
X251622510Y-136271575D01*
X251578885Y-136216998D01*
X251571691Y-136147500D01*
X251603214Y-136085145D01*
X251622510Y-136068425D01*
X251644694Y-136052891D01*
X251808069Y-135938495D01*
X251975163Y-135771401D01*
X252110703Y-135577830D01*
X252210571Y-135363663D01*
X252271731Y-135135408D01*
X252292327Y-134900000D01*
X252271731Y-134664592D01*
X252210571Y-134436337D01*
X252110703Y-134222171D01*
X251975163Y-134028599D01*
X251975162Y-134028597D01*
X251808070Y-133861506D01*
X251808064Y-133861501D01*
X251622510Y-133731575D01*
X251578885Y-133676998D01*
X251571691Y-133607500D01*
X251603214Y-133545145D01*
X251622510Y-133528425D01*
X251644694Y-133512891D01*
X251808069Y-133398495D01*
X251975163Y-133231401D01*
X252110703Y-133037830D01*
X252210571Y-132823663D01*
X252271731Y-132595408D01*
X252292327Y-132360000D01*
X252271731Y-132124592D01*
X252210571Y-131896337D01*
X252110703Y-131682171D01*
X251975163Y-131488599D01*
X251975162Y-131488597D01*
X251808070Y-131321506D01*
X251808064Y-131321501D01*
X251622510Y-131191575D01*
X251578885Y-131136998D01*
X251571691Y-131067500D01*
X251603214Y-131005145D01*
X251622510Y-130988425D01*
X251644694Y-130972891D01*
X251808069Y-130858495D01*
X251975163Y-130691401D01*
X252110703Y-130497830D01*
X252210571Y-130283663D01*
X252271731Y-130055408D01*
X252292327Y-129820000D01*
X252271731Y-129584592D01*
X252210571Y-129356337D01*
X252110703Y-129142171D01*
X251975163Y-128948599D01*
X251853235Y-128826671D01*
X251819752Y-128765351D01*
X251824736Y-128695659D01*
X251866607Y-128639725D01*
X251897583Y-128622810D01*
X252028999Y-128573796D01*
X252144214Y-128487546D01*
X252230464Y-128372331D01*
X252280759Y-128237483D01*
X252287168Y-128177873D01*
X252287167Y-126382128D01*
X252280759Y-126322517D01*
X252275414Y-126308187D01*
X252230465Y-126187671D01*
X252230461Y-126187664D01*
X252144215Y-126072455D01*
X252144212Y-126072452D01*
X252029003Y-125986206D01*
X252028996Y-125986202D01*
X251894150Y-125935908D01*
X251894151Y-125935908D01*
X251834551Y-125929501D01*
X251834549Y-125929500D01*
X251834541Y-125929500D01*
X251834532Y-125929500D01*
X250038797Y-125929500D01*
X250038791Y-125929501D01*
X249979184Y-125935908D01*
X249844339Y-125986202D01*
X249844332Y-125986206D01*
X249729123Y-126072452D01*
X249729120Y-126072455D01*
X249642874Y-126187664D01*
X249642870Y-126187671D01*
X249592576Y-126322517D01*
X249586169Y-126382116D01*
X249586169Y-126382123D01*
X249586168Y-126382135D01*
X249586168Y-128177870D01*
X249586169Y-128177876D01*
X249592576Y-128237483D01*
X249642870Y-128372328D01*
X249642874Y-128372335D01*
X249729120Y-128487544D01*
X249729123Y-128487547D01*
X249844332Y-128573793D01*
X249844339Y-128573797D01*
X249975749Y-128622810D01*
X250031683Y-128664681D01*
X250056100Y-128730145D01*
X250041248Y-128798418D01*
X250020098Y-128826673D01*
X249898171Y-128948600D01*
X249762633Y-129142169D01*
X249762632Y-129142171D01*
X249662766Y-129356335D01*
X249662762Y-129356344D01*
X249601606Y-129584586D01*
X249601604Y-129584596D01*
X249581009Y-129819999D01*
X249581009Y-129820000D01*
X249601604Y-130055403D01*
X249601606Y-130055413D01*
X249662762Y-130283655D01*
X249662764Y-130283659D01*
X249662765Y-130283663D01*
X249762633Y-130497830D01*
X249762635Y-130497834D01*
X249898169Y-130691395D01*
X249898174Y-130691402D01*
X250065265Y-130858493D01*
X250065271Y-130858498D01*
X250250826Y-130988425D01*
X250294451Y-131043002D01*
X250301645Y-131112500D01*
X250270122Y-131174855D01*
X250250826Y-131191575D01*
X250065265Y-131321505D01*
X249898173Y-131488597D01*
X249762633Y-131682169D01*
X249762632Y-131682171D01*
X249662766Y-131896335D01*
X249662762Y-131896344D01*
X249601606Y-132124586D01*
X249601604Y-132124596D01*
X249581009Y-132359999D01*
X249581009Y-132360000D01*
X249601604Y-132595403D01*
X249601606Y-132595413D01*
X249662762Y-132823655D01*
X249662764Y-132823659D01*
X249662765Y-132823663D01*
X249762633Y-133037830D01*
X249762635Y-133037834D01*
X249898169Y-133231395D01*
X249898174Y-133231402D01*
X250065265Y-133398493D01*
X250065271Y-133398498D01*
X250250826Y-133528425D01*
X250294451Y-133583002D01*
X250301645Y-133652500D01*
X250270122Y-133714855D01*
X250250826Y-133731575D01*
X250065265Y-133861505D01*
X249898173Y-134028597D01*
X249762633Y-134222169D01*
X249762632Y-134222171D01*
X249662766Y-134436335D01*
X249662762Y-134436344D01*
X249601606Y-134664586D01*
X249601604Y-134664596D01*
X249581009Y-134899999D01*
X249581009Y-134900000D01*
X249601604Y-135135403D01*
X249601606Y-135135413D01*
X249662762Y-135363655D01*
X249662764Y-135363659D01*
X249662765Y-135363663D01*
X249762633Y-135577830D01*
X249762635Y-135577834D01*
X249898169Y-135771395D01*
X249898174Y-135771402D01*
X250065265Y-135938493D01*
X250065271Y-135938498D01*
X250250826Y-136068425D01*
X250294451Y-136123002D01*
X250301645Y-136192500D01*
X250270122Y-136254855D01*
X250250826Y-136271575D01*
X250065265Y-136401505D01*
X249898173Y-136568597D01*
X249762633Y-136762169D01*
X249762632Y-136762171D01*
X249662766Y-136976335D01*
X249662762Y-136976344D01*
X249601606Y-137204586D01*
X249601604Y-137204596D01*
X249581009Y-137439999D01*
X249581009Y-137440000D01*
X249601604Y-137675403D01*
X249601606Y-137675413D01*
X249662762Y-137903655D01*
X249662764Y-137903659D01*
X249662765Y-137903663D01*
X249762633Y-138117830D01*
X249762635Y-138117834D01*
X249898169Y-138311395D01*
X249898174Y-138311402D01*
X250065265Y-138478493D01*
X250065271Y-138478498D01*
X250250826Y-138608425D01*
X250294451Y-138663002D01*
X250301645Y-138732500D01*
X250270122Y-138794855D01*
X250250826Y-138811575D01*
X250065265Y-138941505D01*
X249898173Y-139108597D01*
X249762633Y-139302169D01*
X249762632Y-139302171D01*
X249662766Y-139516335D01*
X249662762Y-139516344D01*
X249601606Y-139744586D01*
X249601604Y-139744596D01*
X249581009Y-139979999D01*
X249581009Y-139980000D01*
X98472168Y-139980000D01*
X98472168Y-125430002D01*
X112812677Y-125430002D01*
X112831929Y-125650062D01*
X112831930Y-125650070D01*
X112889104Y-125863445D01*
X112889105Y-125863447D01*
X112889106Y-125863450D01*
X112973140Y-126043662D01*
X112982466Y-126063662D01*
X112982468Y-126063666D01*
X113109170Y-126244615D01*
X113109175Y-126244621D01*
X113265378Y-126400824D01*
X113265384Y-126400829D01*
X113446333Y-126527531D01*
X113446335Y-126527532D01*
X113446338Y-126527534D01*
X113646550Y-126620894D01*
X113859932Y-126678070D01*
X114017123Y-126691822D01*
X114079998Y-126697323D01*
X114080000Y-126697323D01*
X114080002Y-126697323D01*
X114135017Y-126692509D01*
X114300068Y-126678070D01*
X114513450Y-126620894D01*
X114713662Y-126527534D01*
X114894620Y-126400826D01*
X115050826Y-126244620D01*
X115177534Y-126063662D01*
X115270894Y-125863450D01*
X115328070Y-125650068D01*
X115347323Y-125430000D01*
X130593179Y-125430000D01*
X130612424Y-125649976D01*
X130612426Y-125649986D01*
X130669575Y-125863270D01*
X130669580Y-125863284D01*
X130762898Y-126063405D01*
X130762901Y-126063411D01*
X130808258Y-126128187D01*
X130808259Y-126128188D01*
X131475096Y-125461350D01*
X131475051Y-125461898D01*
X131506266Y-125585162D01*
X131575813Y-125691612D01*
X131676157Y-125769713D01*
X131796422Y-125811000D01*
X131832553Y-125811000D01*
X131161810Y-126481740D01*
X131226590Y-126527099D01*
X131226592Y-126527100D01*
X131426715Y-126620419D01*
X131426729Y-126620424D01*
X131640013Y-126677573D01*
X131640023Y-126677575D01*
X131859999Y-126696821D01*
X131860001Y-126696821D01*
X132079976Y-126677575D01*
X132079986Y-126677573D01*
X132293270Y-126620424D01*
X132293284Y-126620419D01*
X132493407Y-126527100D01*
X132493417Y-126527094D01*
X132558188Y-126481741D01*
X131887448Y-125811000D01*
X131891569Y-125811000D01*
X131985421Y-125795339D01*
X132097251Y-125734820D01*
X132183371Y-125641269D01*
X132234448Y-125524823D01*
X132240105Y-125456552D01*
X132911741Y-126128188D01*
X132957094Y-126063417D01*
X132957100Y-126063407D01*
X133050419Y-125863284D01*
X133050424Y-125863270D01*
X133107573Y-125649986D01*
X133107575Y-125649976D01*
X133111072Y-125610002D01*
X147882677Y-125610002D01*
X147901929Y-125830062D01*
X147901930Y-125830070D01*
X147959104Y-126043445D01*
X147959105Y-126043447D01*
X147959106Y-126043450D01*
X148034261Y-126204621D01*
X148052466Y-126243662D01*
X148052468Y-126243666D01*
X148179170Y-126424615D01*
X148179175Y-126424621D01*
X148335378Y-126580824D01*
X148335384Y-126580829D01*
X148516333Y-126707531D01*
X148516335Y-126707532D01*
X148516338Y-126707534D01*
X148716550Y-126800894D01*
X148929932Y-126858070D01*
X149087123Y-126871822D01*
X149149998Y-126877323D01*
X149150000Y-126877323D01*
X149150002Y-126877323D01*
X149205017Y-126872509D01*
X149370068Y-126858070D01*
X149583450Y-126800894D01*
X149783662Y-126707534D01*
X149964620Y-126580826D01*
X150120826Y-126424620D01*
X150247534Y-126243662D01*
X150340894Y-126043450D01*
X150398070Y-125830068D01*
X150415568Y-125630062D01*
X150417323Y-125610002D01*
X150417323Y-125610000D01*
X165663179Y-125610000D01*
X165682424Y-125829976D01*
X165682426Y-125829986D01*
X165739575Y-126043270D01*
X165739580Y-126043284D01*
X165832898Y-126243405D01*
X165832901Y-126243411D01*
X165878258Y-126308187D01*
X165878259Y-126308188D01*
X166545096Y-125641350D01*
X166545051Y-125641898D01*
X166576266Y-125765162D01*
X166645813Y-125871612D01*
X166746157Y-125949713D01*
X166866422Y-125991000D01*
X166902553Y-125991000D01*
X166231810Y-126661740D01*
X166296590Y-126707099D01*
X166296592Y-126707100D01*
X166496715Y-126800419D01*
X166496729Y-126800424D01*
X166710013Y-126857573D01*
X166710023Y-126857575D01*
X166929999Y-126876821D01*
X166930001Y-126876821D01*
X167149976Y-126857575D01*
X167149986Y-126857573D01*
X167363270Y-126800424D01*
X167363284Y-126800419D01*
X167563407Y-126707100D01*
X167563417Y-126707094D01*
X167628188Y-126661741D01*
X166957448Y-125991000D01*
X166961569Y-125991000D01*
X167055421Y-125975339D01*
X167167251Y-125914820D01*
X167253371Y-125821269D01*
X167304448Y-125704823D01*
X167310105Y-125636552D01*
X167981741Y-126308188D01*
X168027094Y-126243417D01*
X168027100Y-126243407D01*
X168120419Y-126043284D01*
X168120424Y-126043270D01*
X168177573Y-125829986D01*
X168177575Y-125829976D01*
X168196821Y-125610000D01*
X168196821Y-125609999D01*
X168177575Y-125390023D01*
X168177573Y-125390013D01*
X168177570Y-125390002D01*
X183402677Y-125390002D01*
X183421929Y-125610062D01*
X183421930Y-125610070D01*
X183479104Y-125823445D01*
X183479105Y-125823447D01*
X183479106Y-125823450D01*
X183537983Y-125949713D01*
X183572466Y-126023662D01*
X183572468Y-126023666D01*
X183699170Y-126204615D01*
X183699175Y-126204621D01*
X183855378Y-126360824D01*
X183855384Y-126360829D01*
X184036333Y-126487531D01*
X184036335Y-126487532D01*
X184036338Y-126487534D01*
X184236550Y-126580894D01*
X184449932Y-126638070D01*
X184607123Y-126651822D01*
X184669998Y-126657323D01*
X184670000Y-126657323D01*
X184670002Y-126657323D01*
X184725017Y-126652509D01*
X184890068Y-126638070D01*
X185103450Y-126580894D01*
X185303662Y-126487534D01*
X185484620Y-126360826D01*
X185640826Y-126204620D01*
X185767534Y-126023662D01*
X185860894Y-125823450D01*
X185918070Y-125610068D01*
X185937323Y-125390000D01*
X201183179Y-125390000D01*
X201202424Y-125609976D01*
X201202426Y-125609986D01*
X201259575Y-125823270D01*
X201259580Y-125823284D01*
X201352898Y-126023405D01*
X201352901Y-126023411D01*
X201398258Y-126088187D01*
X201398259Y-126088188D01*
X202065096Y-125421350D01*
X202065051Y-125421898D01*
X202096266Y-125545162D01*
X202165813Y-125651612D01*
X202266157Y-125729713D01*
X202386422Y-125771000D01*
X202422553Y-125771000D01*
X201751810Y-126441740D01*
X201816590Y-126487099D01*
X201816592Y-126487100D01*
X202016715Y-126580419D01*
X202016729Y-126580424D01*
X202230013Y-126637573D01*
X202230023Y-126637575D01*
X202449999Y-126656821D01*
X202450001Y-126656821D01*
X202669976Y-126637575D01*
X202669986Y-126637573D01*
X202883270Y-126580424D01*
X202883284Y-126580419D01*
X203083407Y-126487100D01*
X203083417Y-126487094D01*
X203148188Y-126441741D01*
X202477448Y-125771000D01*
X202481569Y-125771000D01*
X202575421Y-125755339D01*
X202687251Y-125694820D01*
X202773371Y-125601269D01*
X202824448Y-125484823D01*
X202830105Y-125416552D01*
X203501741Y-126088188D01*
X203547094Y-126023417D01*
X203547100Y-126023407D01*
X203640419Y-125823284D01*
X203640424Y-125823270D01*
X203697573Y-125609986D01*
X203697575Y-125609976D01*
X203715071Y-125410002D01*
X222032677Y-125410002D01*
X222051929Y-125630062D01*
X222051930Y-125630070D01*
X222109104Y-125843445D01*
X222109105Y-125843447D01*
X222109106Y-125843450D01*
X222193020Y-126023405D01*
X222202466Y-126043662D01*
X222202468Y-126043666D01*
X222329170Y-126224615D01*
X222329175Y-126224621D01*
X222485378Y-126380824D01*
X222485384Y-126380829D01*
X222666333Y-126507531D01*
X222666335Y-126507532D01*
X222666338Y-126507534D01*
X222866550Y-126600894D01*
X223079932Y-126658070D01*
X223237123Y-126671822D01*
X223299998Y-126677323D01*
X223300000Y-126677323D01*
X223300002Y-126677323D01*
X223355017Y-126672509D01*
X223520068Y-126658070D01*
X223733450Y-126600894D01*
X223933662Y-126507534D01*
X224114620Y-126380826D01*
X224270826Y-126224620D01*
X224397534Y-126043662D01*
X224490894Y-125843450D01*
X224548070Y-125630068D01*
X224567323Y-125410000D01*
X239813179Y-125410000D01*
X239832424Y-125629976D01*
X239832426Y-125629986D01*
X239889575Y-125843270D01*
X239889580Y-125843284D01*
X239982898Y-126043405D01*
X239982901Y-126043411D01*
X240028258Y-126108187D01*
X240028259Y-126108188D01*
X240695096Y-125441350D01*
X240695051Y-125441898D01*
X240726266Y-125565162D01*
X240795813Y-125671612D01*
X240896157Y-125749713D01*
X241016422Y-125791000D01*
X241052553Y-125791000D01*
X240381810Y-126461740D01*
X240446590Y-126507099D01*
X240446592Y-126507100D01*
X240646715Y-126600419D01*
X240646729Y-126600424D01*
X240860013Y-126657573D01*
X240860023Y-126657575D01*
X241079999Y-126676821D01*
X241080001Y-126676821D01*
X241299976Y-126657575D01*
X241299986Y-126657573D01*
X241513270Y-126600424D01*
X241513284Y-126600419D01*
X241713407Y-126507100D01*
X241713417Y-126507094D01*
X241778188Y-126461741D01*
X241107448Y-125791000D01*
X241111569Y-125791000D01*
X241205421Y-125775339D01*
X241317251Y-125714820D01*
X241403371Y-125621269D01*
X241454448Y-125504823D01*
X241460105Y-125436552D01*
X242131741Y-126108188D01*
X242177094Y-126043417D01*
X242177100Y-126043407D01*
X242270419Y-125843284D01*
X242270424Y-125843270D01*
X242327573Y-125629986D01*
X242327575Y-125629976D01*
X242346821Y-125410000D01*
X242346821Y-125409999D01*
X242327575Y-125190023D01*
X242327573Y-125190013D01*
X242270424Y-124976729D01*
X242270420Y-124976720D01*
X242177096Y-124776586D01*
X242131741Y-124711811D01*
X242131740Y-124711810D01*
X241464903Y-125378648D01*
X241464949Y-125378102D01*
X241433734Y-125254838D01*
X241364187Y-125148388D01*
X241263843Y-125070287D01*
X241143578Y-125029000D01*
X241107448Y-125029000D01*
X241778188Y-124358259D01*
X241778187Y-124358258D01*
X241713411Y-124312901D01*
X241713405Y-124312898D01*
X241513284Y-124219580D01*
X241513270Y-124219575D01*
X241299986Y-124162426D01*
X241299976Y-124162424D01*
X241080001Y-124143179D01*
X241079999Y-124143179D01*
X240860023Y-124162424D01*
X240860013Y-124162426D01*
X240646729Y-124219575D01*
X240646720Y-124219579D01*
X240446590Y-124312901D01*
X240381811Y-124358258D01*
X241052553Y-125029000D01*
X241048431Y-125029000D01*
X240954579Y-125044661D01*
X240842749Y-125105180D01*
X240756629Y-125198731D01*
X240705552Y-125315177D01*
X240699894Y-125383446D01*
X240028258Y-124711811D01*
X239982901Y-124776590D01*
X239889579Y-124976720D01*
X239889575Y-124976729D01*
X239832426Y-125190013D01*
X239832424Y-125190023D01*
X239813179Y-125409999D01*
X239813179Y-125410000D01*
X224567323Y-125410000D01*
X224565574Y-125390013D01*
X224558153Y-125305180D01*
X224548070Y-125189932D01*
X224490894Y-124976550D01*
X224397534Y-124776339D01*
X224334180Y-124685859D01*
X224270827Y-124595381D01*
X224233704Y-124558258D01*
X224114620Y-124439174D01*
X224114616Y-124439171D01*
X224114615Y-124439170D01*
X223933666Y-124312468D01*
X223933662Y-124312466D01*
X223933660Y-124312465D01*
X223733450Y-124219106D01*
X223733447Y-124219105D01*
X223733445Y-124219104D01*
X223520070Y-124161930D01*
X223520062Y-124161929D01*
X223300002Y-124142677D01*
X223299998Y-124142677D01*
X223079937Y-124161929D01*
X223079929Y-124161930D01*
X222866554Y-124219104D01*
X222866548Y-124219107D01*
X222666340Y-124312465D01*
X222666338Y-124312466D01*
X222485377Y-124439175D01*
X222329175Y-124595377D01*
X222202466Y-124776338D01*
X222202465Y-124776340D01*
X222109107Y-124976548D01*
X222109104Y-124976554D01*
X222051930Y-125189929D01*
X222051929Y-125189937D01*
X222032677Y-125409997D01*
X222032677Y-125410002D01*
X203715071Y-125410002D01*
X203716821Y-125390000D01*
X203716821Y-125389999D01*
X203697575Y-125170023D01*
X203697573Y-125170013D01*
X203640424Y-124956729D01*
X203640420Y-124956720D01*
X203547096Y-124756586D01*
X203501741Y-124691811D01*
X203501740Y-124691810D01*
X202834903Y-125358648D01*
X202834949Y-125358102D01*
X202803734Y-125234838D01*
X202734187Y-125128388D01*
X202633843Y-125050287D01*
X202513578Y-125009000D01*
X202477448Y-125009000D01*
X203148188Y-124338259D01*
X203148187Y-124338258D01*
X203083411Y-124292901D01*
X203083405Y-124292898D01*
X202883284Y-124199580D01*
X202883270Y-124199575D01*
X202669986Y-124142426D01*
X202669976Y-124142424D01*
X202450001Y-124123179D01*
X202449999Y-124123179D01*
X202230023Y-124142424D01*
X202230013Y-124142426D01*
X202016729Y-124199575D01*
X202016720Y-124199579D01*
X201816590Y-124292901D01*
X201751811Y-124338258D01*
X202422553Y-125009000D01*
X202418431Y-125009000D01*
X202324579Y-125024661D01*
X202212749Y-125085180D01*
X202126629Y-125178731D01*
X202075552Y-125295177D01*
X202069894Y-125363447D01*
X201398258Y-124691811D01*
X201352901Y-124756590D01*
X201259579Y-124956720D01*
X201259575Y-124956729D01*
X201202426Y-125170013D01*
X201202424Y-125170023D01*
X201183179Y-125389999D01*
X201183179Y-125390000D01*
X185937323Y-125390000D01*
X185937317Y-125389937D01*
X185923748Y-125234838D01*
X185918070Y-125169932D01*
X185860894Y-124956550D01*
X185767534Y-124756339D01*
X185704180Y-124665859D01*
X185640827Y-124575381D01*
X185577911Y-124512465D01*
X185484620Y-124419174D01*
X185484616Y-124419171D01*
X185484615Y-124419170D01*
X185303666Y-124292468D01*
X185303662Y-124292466D01*
X185303660Y-124292465D01*
X185103450Y-124199106D01*
X185103447Y-124199105D01*
X185103445Y-124199104D01*
X184890070Y-124141930D01*
X184890062Y-124141929D01*
X184670002Y-124122677D01*
X184669998Y-124122677D01*
X184449937Y-124141929D01*
X184449929Y-124141930D01*
X184236554Y-124199104D01*
X184236548Y-124199107D01*
X184036340Y-124292465D01*
X184036338Y-124292466D01*
X183855377Y-124419175D01*
X183699175Y-124575377D01*
X183572466Y-124756338D01*
X183572465Y-124756340D01*
X183479107Y-124956548D01*
X183479104Y-124956554D01*
X183421930Y-125169929D01*
X183421929Y-125169937D01*
X183402677Y-125389997D01*
X183402677Y-125390002D01*
X168177570Y-125390002D01*
X168120424Y-125176729D01*
X168120420Y-125176720D01*
X168027096Y-124976586D01*
X167981741Y-124911811D01*
X167981740Y-124911810D01*
X167314903Y-125578648D01*
X167314949Y-125578102D01*
X167283734Y-125454838D01*
X167214187Y-125348388D01*
X167113843Y-125270287D01*
X166993578Y-125229000D01*
X166957448Y-125229000D01*
X167628188Y-124558259D01*
X167628187Y-124558258D01*
X167563411Y-124512901D01*
X167563405Y-124512898D01*
X167363284Y-124419580D01*
X167363270Y-124419575D01*
X167149986Y-124362426D01*
X167149976Y-124362424D01*
X166930001Y-124343179D01*
X166929999Y-124343179D01*
X166710023Y-124362424D01*
X166710013Y-124362426D01*
X166496729Y-124419575D01*
X166496720Y-124419579D01*
X166296590Y-124512901D01*
X166231811Y-124558258D01*
X166902553Y-125229000D01*
X166898431Y-125229000D01*
X166804579Y-125244661D01*
X166692749Y-125305180D01*
X166606629Y-125398731D01*
X166555552Y-125515177D01*
X166549894Y-125583447D01*
X165878258Y-124911811D01*
X165832901Y-124976590D01*
X165739579Y-125176720D01*
X165739575Y-125176729D01*
X165682426Y-125390013D01*
X165682424Y-125390023D01*
X165663179Y-125609999D01*
X165663179Y-125610000D01*
X150417323Y-125610000D01*
X150417323Y-125609997D01*
X150402616Y-125441898D01*
X150398070Y-125389932D01*
X150340894Y-125176550D01*
X150247534Y-124976339D01*
X150184180Y-124885859D01*
X150120827Y-124795381D01*
X150057256Y-124731810D01*
X149964620Y-124639174D01*
X149964616Y-124639171D01*
X149964615Y-124639170D01*
X149783666Y-124512468D01*
X149783662Y-124512466D01*
X149783660Y-124512465D01*
X149583450Y-124419106D01*
X149583447Y-124419105D01*
X149583445Y-124419104D01*
X149370070Y-124361930D01*
X149370062Y-124361929D01*
X149150002Y-124342677D01*
X149149998Y-124342677D01*
X148929937Y-124361929D01*
X148929929Y-124361930D01*
X148716554Y-124419104D01*
X148716548Y-124419107D01*
X148516340Y-124512465D01*
X148516338Y-124512466D01*
X148335377Y-124639175D01*
X148179175Y-124795377D01*
X148052466Y-124976338D01*
X148052465Y-124976340D01*
X147959107Y-125176548D01*
X147959104Y-125176554D01*
X147901930Y-125389929D01*
X147901929Y-125389937D01*
X147882677Y-125609997D01*
X147882677Y-125610002D01*
X133111072Y-125610002D01*
X133126821Y-125430000D01*
X133126821Y-125429999D01*
X133107575Y-125210023D01*
X133107573Y-125210013D01*
X133050424Y-124996729D01*
X133050420Y-124996720D01*
X132957096Y-124796586D01*
X132911741Y-124731811D01*
X132911740Y-124731810D01*
X132244903Y-125398648D01*
X132244949Y-125398102D01*
X132213734Y-125274838D01*
X132144187Y-125168388D01*
X132043843Y-125090287D01*
X131923578Y-125049000D01*
X131887448Y-125049000D01*
X132558188Y-124378259D01*
X132558187Y-124378258D01*
X132493411Y-124332901D01*
X132493405Y-124332898D01*
X132293284Y-124239580D01*
X132293270Y-124239575D01*
X132079986Y-124182426D01*
X132079976Y-124182424D01*
X131860001Y-124163179D01*
X131859999Y-124163179D01*
X131640023Y-124182424D01*
X131640013Y-124182426D01*
X131426729Y-124239575D01*
X131426720Y-124239579D01*
X131226590Y-124332901D01*
X131161811Y-124378258D01*
X131832553Y-125049000D01*
X131828431Y-125049000D01*
X131734579Y-125064661D01*
X131622749Y-125125180D01*
X131536629Y-125218731D01*
X131485552Y-125335177D01*
X131479894Y-125403447D01*
X130808258Y-124731811D01*
X130762901Y-124796590D01*
X130669579Y-124996720D01*
X130669575Y-124996729D01*
X130612426Y-125210013D01*
X130612424Y-125210023D01*
X130593179Y-125429999D01*
X130593179Y-125430000D01*
X115347323Y-125430000D01*
X115345573Y-125410002D01*
X115339027Y-125335177D01*
X115328070Y-125209932D01*
X115270894Y-124996550D01*
X115177534Y-124796339D01*
X115104343Y-124691810D01*
X115050827Y-124615381D01*
X114993704Y-124558258D01*
X114894620Y-124459174D01*
X114894616Y-124459171D01*
X114894615Y-124459170D01*
X114713666Y-124332468D01*
X114713662Y-124332466D01*
X114713660Y-124332465D01*
X114513450Y-124239106D01*
X114513447Y-124239105D01*
X114513445Y-124239104D01*
X114300070Y-124181930D01*
X114300062Y-124181929D01*
X114080002Y-124162677D01*
X114079998Y-124162677D01*
X113859937Y-124181929D01*
X113859929Y-124181930D01*
X113646554Y-124239104D01*
X113646548Y-124239107D01*
X113446340Y-124332465D01*
X113446338Y-124332466D01*
X113265377Y-124459175D01*
X113109175Y-124615377D01*
X112982466Y-124796338D01*
X112982465Y-124796340D01*
X112889107Y-124996548D01*
X112889104Y-124996554D01*
X112831930Y-125209929D01*
X112831929Y-125209937D01*
X112812677Y-125429997D01*
X112812677Y-125430002D01*
X98472168Y-125430002D01*
X98472168Y-84790002D01*
X112812677Y-84790002D01*
X112831929Y-85010062D01*
X112831930Y-85010070D01*
X112889104Y-85223445D01*
X112889105Y-85223447D01*
X112889106Y-85223450D01*
X112973140Y-85403662D01*
X112982466Y-85423662D01*
X112982468Y-85423666D01*
X113109170Y-85604615D01*
X113109175Y-85604621D01*
X113265378Y-85760824D01*
X113265384Y-85760829D01*
X113446333Y-85887531D01*
X113446335Y-85887532D01*
X113446338Y-85887534D01*
X113646550Y-85980894D01*
X113859932Y-86038070D01*
X114017123Y-86051822D01*
X114079998Y-86057323D01*
X114080000Y-86057323D01*
X114080002Y-86057323D01*
X114135017Y-86052509D01*
X114300068Y-86038070D01*
X114513450Y-85980894D01*
X114713662Y-85887534D01*
X114894620Y-85760826D01*
X115050826Y-85604620D01*
X115177534Y-85423662D01*
X115270894Y-85223450D01*
X115328070Y-85010068D01*
X115347323Y-84790000D01*
X130593179Y-84790000D01*
X130612424Y-85009976D01*
X130612426Y-85009986D01*
X130669575Y-85223270D01*
X130669580Y-85223284D01*
X130762898Y-85423405D01*
X130762901Y-85423411D01*
X130808258Y-85488187D01*
X130808259Y-85488188D01*
X131475096Y-84821350D01*
X131475051Y-84821898D01*
X131506266Y-84945162D01*
X131575813Y-85051612D01*
X131676157Y-85129713D01*
X131796422Y-85171000D01*
X131832553Y-85171000D01*
X131161810Y-85841740D01*
X131226590Y-85887099D01*
X131226592Y-85887100D01*
X131426715Y-85980419D01*
X131426729Y-85980424D01*
X131640013Y-86037573D01*
X131640023Y-86037575D01*
X131859999Y-86056821D01*
X131860001Y-86056821D01*
X132079976Y-86037575D01*
X132079986Y-86037573D01*
X132293270Y-85980424D01*
X132293284Y-85980419D01*
X132493407Y-85887100D01*
X132493417Y-85887094D01*
X132558188Y-85841741D01*
X131887448Y-85171000D01*
X131891569Y-85171000D01*
X131985421Y-85155339D01*
X132097251Y-85094820D01*
X132183371Y-85001269D01*
X132234448Y-84884823D01*
X132240105Y-84816552D01*
X132911741Y-85488188D01*
X132957094Y-85423417D01*
X132957100Y-85423407D01*
X133050419Y-85223284D01*
X133050424Y-85223270D01*
X133107573Y-85009986D01*
X133107575Y-85009976D01*
X133111072Y-84970002D01*
X147882677Y-84970002D01*
X147901929Y-85190062D01*
X147901930Y-85190070D01*
X147959104Y-85403445D01*
X147959105Y-85403447D01*
X147959106Y-85403450D01*
X148034261Y-85564621D01*
X148052466Y-85603662D01*
X148052468Y-85603666D01*
X148179170Y-85784615D01*
X148179175Y-85784621D01*
X148335378Y-85940824D01*
X148335384Y-85940829D01*
X148516333Y-86067531D01*
X148516335Y-86067532D01*
X148516338Y-86067534D01*
X148716550Y-86160894D01*
X148929932Y-86218070D01*
X149087123Y-86231822D01*
X149149998Y-86237323D01*
X149150000Y-86237323D01*
X149150002Y-86237323D01*
X149205017Y-86232509D01*
X149370068Y-86218070D01*
X149583450Y-86160894D01*
X149783662Y-86067534D01*
X149964620Y-85940826D01*
X150120826Y-85784620D01*
X150247534Y-85603662D01*
X150340894Y-85403450D01*
X150398070Y-85190068D01*
X150415568Y-84990062D01*
X150417323Y-84970002D01*
X150417323Y-84970000D01*
X165663179Y-84970000D01*
X165682424Y-85189976D01*
X165682426Y-85189986D01*
X165739575Y-85403270D01*
X165739580Y-85403284D01*
X165832898Y-85603405D01*
X165832901Y-85603411D01*
X165878258Y-85668187D01*
X165878259Y-85668188D01*
X166545096Y-85001350D01*
X166545051Y-85001898D01*
X166576266Y-85125162D01*
X166645813Y-85231612D01*
X166746157Y-85309713D01*
X166866422Y-85351000D01*
X166902553Y-85351000D01*
X166231810Y-86021740D01*
X166296590Y-86067099D01*
X166296592Y-86067100D01*
X166496715Y-86160419D01*
X166496729Y-86160424D01*
X166710013Y-86217573D01*
X166710023Y-86217575D01*
X166929999Y-86236821D01*
X166930001Y-86236821D01*
X167149976Y-86217575D01*
X167149986Y-86217573D01*
X167363270Y-86160424D01*
X167363284Y-86160419D01*
X167563407Y-86067100D01*
X167563417Y-86067094D01*
X167628188Y-86021741D01*
X166957448Y-85351000D01*
X166961569Y-85351000D01*
X167055421Y-85335339D01*
X167167251Y-85274820D01*
X167253371Y-85181269D01*
X167304448Y-85064823D01*
X167310105Y-84996552D01*
X167981741Y-85668188D01*
X168027094Y-85603417D01*
X168027100Y-85603407D01*
X168120419Y-85403284D01*
X168120424Y-85403270D01*
X168177573Y-85189986D01*
X168177575Y-85189976D01*
X168196821Y-84970000D01*
X168196821Y-84969999D01*
X168177575Y-84750023D01*
X168177573Y-84750013D01*
X168177570Y-84750002D01*
X183402677Y-84750002D01*
X183421929Y-84970062D01*
X183421930Y-84970070D01*
X183479104Y-85183445D01*
X183479105Y-85183447D01*
X183479106Y-85183450D01*
X183537983Y-85309713D01*
X183572466Y-85383662D01*
X183572468Y-85383666D01*
X183699170Y-85564615D01*
X183699175Y-85564621D01*
X183855378Y-85720824D01*
X183855384Y-85720829D01*
X184036333Y-85847531D01*
X184036335Y-85847532D01*
X184036338Y-85847534D01*
X184236550Y-85940894D01*
X184449932Y-85998070D01*
X184607123Y-86011822D01*
X184669998Y-86017323D01*
X184670000Y-86017323D01*
X184670002Y-86017323D01*
X184725017Y-86012509D01*
X184890068Y-85998070D01*
X185103450Y-85940894D01*
X185303662Y-85847534D01*
X185484620Y-85720826D01*
X185640826Y-85564620D01*
X185767534Y-85383662D01*
X185860894Y-85183450D01*
X185918070Y-84970068D01*
X185937323Y-84750000D01*
X201183179Y-84750000D01*
X201202424Y-84969976D01*
X201202426Y-84969986D01*
X201259575Y-85183270D01*
X201259580Y-85183284D01*
X201352898Y-85383405D01*
X201352901Y-85383411D01*
X201398258Y-85448187D01*
X201398259Y-85448188D01*
X202065096Y-84781350D01*
X202065051Y-84781898D01*
X202096266Y-84905162D01*
X202165813Y-85011612D01*
X202266157Y-85089713D01*
X202386422Y-85131000D01*
X202422553Y-85131000D01*
X201751810Y-85801740D01*
X201816590Y-85847099D01*
X201816592Y-85847100D01*
X202016715Y-85940419D01*
X202016729Y-85940424D01*
X202230013Y-85997573D01*
X202230023Y-85997575D01*
X202449999Y-86016821D01*
X202450001Y-86016821D01*
X202669976Y-85997575D01*
X202669986Y-85997573D01*
X202883270Y-85940424D01*
X202883284Y-85940419D01*
X203083407Y-85847100D01*
X203083417Y-85847094D01*
X203148188Y-85801741D01*
X202477448Y-85131000D01*
X202481569Y-85131000D01*
X202575421Y-85115339D01*
X202687251Y-85054820D01*
X202773371Y-84961269D01*
X202824448Y-84844823D01*
X202830105Y-84776552D01*
X203501741Y-85448188D01*
X203547094Y-85383417D01*
X203547100Y-85383407D01*
X203640419Y-85183284D01*
X203640424Y-85183270D01*
X203697573Y-84969986D01*
X203697575Y-84969976D01*
X203715071Y-84770002D01*
X222032677Y-84770002D01*
X222051929Y-84990062D01*
X222051930Y-84990070D01*
X222109104Y-85203445D01*
X222109105Y-85203447D01*
X222109106Y-85203450D01*
X222193020Y-85383405D01*
X222202466Y-85403662D01*
X222202468Y-85403666D01*
X222329170Y-85584615D01*
X222329175Y-85584621D01*
X222485378Y-85740824D01*
X222485384Y-85740829D01*
X222666333Y-85867531D01*
X222666335Y-85867532D01*
X222666338Y-85867534D01*
X222866550Y-85960894D01*
X223079932Y-86018070D01*
X223237123Y-86031822D01*
X223299998Y-86037323D01*
X223300000Y-86037323D01*
X223300002Y-86037323D01*
X223355017Y-86032509D01*
X223520068Y-86018070D01*
X223733450Y-85960894D01*
X223933662Y-85867534D01*
X224114620Y-85740826D01*
X224270826Y-85584620D01*
X224397534Y-85403662D01*
X224490894Y-85203450D01*
X224548070Y-84990068D01*
X224567323Y-84770000D01*
X239813179Y-84770000D01*
X239832424Y-84989976D01*
X239832426Y-84989986D01*
X239889575Y-85203270D01*
X239889580Y-85203284D01*
X239982898Y-85403405D01*
X239982901Y-85403411D01*
X240028258Y-85468187D01*
X240028259Y-85468188D01*
X240695096Y-84801350D01*
X240695051Y-84801898D01*
X240726266Y-84925162D01*
X240795813Y-85031612D01*
X240896157Y-85109713D01*
X241016422Y-85151000D01*
X241052553Y-85151000D01*
X240381810Y-85821740D01*
X240446590Y-85867099D01*
X240446592Y-85867100D01*
X240646715Y-85960419D01*
X240646729Y-85960424D01*
X240860013Y-86017573D01*
X240860023Y-86017575D01*
X241079999Y-86036821D01*
X241080001Y-86036821D01*
X241299976Y-86017575D01*
X241299986Y-86017573D01*
X241513270Y-85960424D01*
X241513284Y-85960419D01*
X241713407Y-85867100D01*
X241713417Y-85867094D01*
X241778188Y-85821741D01*
X241107448Y-85151000D01*
X241111569Y-85151000D01*
X241205421Y-85135339D01*
X241317251Y-85074820D01*
X241403371Y-84981269D01*
X241454448Y-84864823D01*
X241460105Y-84796552D01*
X242131741Y-85468188D01*
X242177094Y-85403417D01*
X242177100Y-85403407D01*
X242270419Y-85203284D01*
X242270424Y-85203270D01*
X242327573Y-84989986D01*
X242327575Y-84989976D01*
X242346821Y-84770000D01*
X242346821Y-84769999D01*
X242327575Y-84550023D01*
X242327573Y-84550013D01*
X242270424Y-84336729D01*
X242270420Y-84336720D01*
X242177096Y-84136586D01*
X242131741Y-84071811D01*
X242131740Y-84071810D01*
X241464903Y-84738648D01*
X241464949Y-84738102D01*
X241433734Y-84614838D01*
X241364187Y-84508388D01*
X241263843Y-84430287D01*
X241143578Y-84389000D01*
X241107448Y-84389000D01*
X241778188Y-83718259D01*
X241778187Y-83718258D01*
X241713411Y-83672901D01*
X241713405Y-83672898D01*
X241513284Y-83579580D01*
X241513270Y-83579575D01*
X241299986Y-83522426D01*
X241299976Y-83522424D01*
X241080001Y-83503179D01*
X241079999Y-83503179D01*
X240860023Y-83522424D01*
X240860013Y-83522426D01*
X240646729Y-83579575D01*
X240646720Y-83579579D01*
X240446590Y-83672901D01*
X240381811Y-83718258D01*
X241052553Y-84389000D01*
X241048431Y-84389000D01*
X240954579Y-84404661D01*
X240842749Y-84465180D01*
X240756629Y-84558731D01*
X240705552Y-84675177D01*
X240699894Y-84743446D01*
X240028258Y-84071811D01*
X239982901Y-84136590D01*
X239889579Y-84336720D01*
X239889575Y-84336729D01*
X239832426Y-84550013D01*
X239832424Y-84550023D01*
X239813179Y-84769999D01*
X239813179Y-84770000D01*
X224567323Y-84770000D01*
X224565574Y-84750013D01*
X224558153Y-84665180D01*
X224548070Y-84549932D01*
X224490894Y-84336550D01*
X224397534Y-84136339D01*
X224334180Y-84045859D01*
X224270827Y-83955381D01*
X224233704Y-83918258D01*
X224114620Y-83799174D01*
X224114616Y-83799171D01*
X224114615Y-83799170D01*
X223933666Y-83672468D01*
X223933662Y-83672466D01*
X223933660Y-83672465D01*
X223733450Y-83579106D01*
X223733447Y-83579105D01*
X223733445Y-83579104D01*
X223520070Y-83521930D01*
X223520062Y-83521929D01*
X223300002Y-83502677D01*
X223299998Y-83502677D01*
X223079937Y-83521929D01*
X223079929Y-83521930D01*
X222866554Y-83579104D01*
X222866548Y-83579107D01*
X222666340Y-83672465D01*
X222666338Y-83672466D01*
X222485377Y-83799175D01*
X222329175Y-83955377D01*
X222202466Y-84136338D01*
X222202465Y-84136340D01*
X222109107Y-84336548D01*
X222109104Y-84336554D01*
X222051930Y-84549929D01*
X222051929Y-84549937D01*
X222032677Y-84769997D01*
X222032677Y-84770002D01*
X203715071Y-84770002D01*
X203716821Y-84750000D01*
X203716821Y-84749999D01*
X203697575Y-84530023D01*
X203697573Y-84530013D01*
X203640424Y-84316729D01*
X203640420Y-84316720D01*
X203547096Y-84116586D01*
X203501741Y-84051811D01*
X203501740Y-84051810D01*
X202834903Y-84718648D01*
X202834949Y-84718102D01*
X202803734Y-84594838D01*
X202734187Y-84488388D01*
X202633843Y-84410287D01*
X202513578Y-84369000D01*
X202477448Y-84369000D01*
X203148188Y-83698259D01*
X203148187Y-83698258D01*
X203083411Y-83652901D01*
X203083405Y-83652898D01*
X202883284Y-83559580D01*
X202883270Y-83559575D01*
X202669986Y-83502426D01*
X202669976Y-83502424D01*
X202450001Y-83483179D01*
X202449999Y-83483179D01*
X202230023Y-83502424D01*
X202230013Y-83502426D01*
X202016729Y-83559575D01*
X202016720Y-83559579D01*
X201816590Y-83652901D01*
X201751811Y-83698258D01*
X202422553Y-84369000D01*
X202418431Y-84369000D01*
X202324579Y-84384661D01*
X202212749Y-84445180D01*
X202126629Y-84538731D01*
X202075552Y-84655177D01*
X202069894Y-84723447D01*
X201398258Y-84051811D01*
X201352901Y-84116590D01*
X201259579Y-84316720D01*
X201259575Y-84316729D01*
X201202426Y-84530013D01*
X201202424Y-84530023D01*
X201183179Y-84749999D01*
X201183179Y-84750000D01*
X185937323Y-84750000D01*
X185937317Y-84749937D01*
X185923748Y-84594838D01*
X185918070Y-84529932D01*
X185860894Y-84316550D01*
X185767534Y-84116339D01*
X185704180Y-84025859D01*
X185640827Y-83935381D01*
X185577911Y-83872465D01*
X185484620Y-83779174D01*
X185484616Y-83779171D01*
X185484615Y-83779170D01*
X185303666Y-83652468D01*
X185303662Y-83652466D01*
X185303660Y-83652465D01*
X185103450Y-83559106D01*
X185103447Y-83559105D01*
X185103445Y-83559104D01*
X184890070Y-83501930D01*
X184890062Y-83501929D01*
X184670002Y-83482677D01*
X184669998Y-83482677D01*
X184449937Y-83501929D01*
X184449929Y-83501930D01*
X184236554Y-83559104D01*
X184236548Y-83559107D01*
X184036340Y-83652465D01*
X184036338Y-83652466D01*
X183855377Y-83779175D01*
X183699175Y-83935377D01*
X183572466Y-84116338D01*
X183572465Y-84116340D01*
X183479107Y-84316548D01*
X183479104Y-84316554D01*
X183421930Y-84529929D01*
X183421929Y-84529937D01*
X183402677Y-84749997D01*
X183402677Y-84750002D01*
X168177570Y-84750002D01*
X168120424Y-84536729D01*
X168120420Y-84536720D01*
X168027096Y-84336586D01*
X167981741Y-84271811D01*
X167981740Y-84271810D01*
X167314903Y-84938648D01*
X167314949Y-84938102D01*
X167283734Y-84814838D01*
X167214187Y-84708388D01*
X167113843Y-84630287D01*
X166993578Y-84589000D01*
X166957448Y-84589000D01*
X167628188Y-83918259D01*
X167628187Y-83918258D01*
X167563411Y-83872901D01*
X167563405Y-83872898D01*
X167363284Y-83779580D01*
X167363270Y-83779575D01*
X167149986Y-83722426D01*
X167149976Y-83722424D01*
X166930001Y-83703179D01*
X166929999Y-83703179D01*
X166710023Y-83722424D01*
X166710013Y-83722426D01*
X166496729Y-83779575D01*
X166496720Y-83779579D01*
X166296590Y-83872901D01*
X166231811Y-83918258D01*
X166902553Y-84589000D01*
X166898431Y-84589000D01*
X166804579Y-84604661D01*
X166692749Y-84665180D01*
X166606629Y-84758731D01*
X166555552Y-84875177D01*
X166549894Y-84943447D01*
X165878258Y-84271811D01*
X165832901Y-84336590D01*
X165739579Y-84536720D01*
X165739575Y-84536729D01*
X165682426Y-84750013D01*
X165682424Y-84750023D01*
X165663179Y-84969999D01*
X165663179Y-84970000D01*
X150417323Y-84970000D01*
X150417323Y-84969997D01*
X150402616Y-84801898D01*
X150398070Y-84749932D01*
X150340894Y-84536550D01*
X150247534Y-84336339D01*
X150184180Y-84245859D01*
X150120827Y-84155381D01*
X150057256Y-84091810D01*
X149964620Y-83999174D01*
X149964616Y-83999171D01*
X149964615Y-83999170D01*
X149783666Y-83872468D01*
X149783662Y-83872466D01*
X149783660Y-83872465D01*
X149583450Y-83779106D01*
X149583447Y-83779105D01*
X149583445Y-83779104D01*
X149370070Y-83721930D01*
X149370062Y-83721929D01*
X149150002Y-83702677D01*
X149149998Y-83702677D01*
X148929937Y-83721929D01*
X148929929Y-83721930D01*
X148716554Y-83779104D01*
X148716548Y-83779107D01*
X148516340Y-83872465D01*
X148516338Y-83872466D01*
X148335377Y-83999175D01*
X148179175Y-84155377D01*
X148052466Y-84336338D01*
X148052465Y-84336340D01*
X147959107Y-84536548D01*
X147959104Y-84536554D01*
X147901930Y-84749929D01*
X147901929Y-84749937D01*
X147882677Y-84969997D01*
X147882677Y-84970002D01*
X133111072Y-84970002D01*
X133126821Y-84790000D01*
X133126821Y-84789999D01*
X133107575Y-84570023D01*
X133107573Y-84570013D01*
X133050424Y-84356729D01*
X133050420Y-84356720D01*
X132957096Y-84156586D01*
X132911741Y-84091811D01*
X132911740Y-84091810D01*
X132244903Y-84758648D01*
X132244949Y-84758102D01*
X132213734Y-84634838D01*
X132144187Y-84528388D01*
X132043843Y-84450287D01*
X131923578Y-84409000D01*
X131887448Y-84409000D01*
X132558188Y-83738259D01*
X132558187Y-83738258D01*
X132493411Y-83692901D01*
X132493405Y-83692898D01*
X132293284Y-83599580D01*
X132293270Y-83599575D01*
X132079986Y-83542426D01*
X132079976Y-83542424D01*
X131860001Y-83523179D01*
X131859999Y-83523179D01*
X131640023Y-83542424D01*
X131640013Y-83542426D01*
X131426729Y-83599575D01*
X131426720Y-83599579D01*
X131226590Y-83692901D01*
X131161811Y-83738258D01*
X131832553Y-84409000D01*
X131828431Y-84409000D01*
X131734579Y-84424661D01*
X131622749Y-84485180D01*
X131536629Y-84578731D01*
X131485552Y-84695177D01*
X131479894Y-84763447D01*
X130808258Y-84091811D01*
X130762901Y-84156590D01*
X130669579Y-84356720D01*
X130669575Y-84356729D01*
X130612426Y-84570013D01*
X130612424Y-84570023D01*
X130593179Y-84789999D01*
X130593179Y-84790000D01*
X115347323Y-84790000D01*
X115345573Y-84770002D01*
X115339027Y-84695177D01*
X115328070Y-84569932D01*
X115270894Y-84356550D01*
X115177534Y-84156339D01*
X115104343Y-84051810D01*
X115050827Y-83975381D01*
X114993704Y-83918258D01*
X114894620Y-83819174D01*
X114894616Y-83819171D01*
X114894615Y-83819170D01*
X114713666Y-83692468D01*
X114713662Y-83692466D01*
X114713660Y-83692465D01*
X114513450Y-83599106D01*
X114513447Y-83599105D01*
X114513445Y-83599104D01*
X114300070Y-83541930D01*
X114300062Y-83541929D01*
X114080002Y-83522677D01*
X114079998Y-83522677D01*
X113859937Y-83541929D01*
X113859929Y-83541930D01*
X113646554Y-83599104D01*
X113646548Y-83599107D01*
X113446340Y-83692465D01*
X113446338Y-83692466D01*
X113265377Y-83819175D01*
X113109175Y-83975377D01*
X112982466Y-84156338D01*
X112982465Y-84156340D01*
X112889107Y-84356548D01*
X112889104Y-84356554D01*
X112831930Y-84569929D01*
X112831929Y-84569937D01*
X112812677Y-84789997D01*
X112812677Y-84790002D01*
X98472168Y-84790002D01*
X98472168Y-74701202D01*
X154004503Y-74701202D01*
X154004504Y-74701208D01*
X154010911Y-74760815D01*
X154061205Y-74895660D01*
X154061209Y-74895667D01*
X154147455Y-75010876D01*
X154147458Y-75010879D01*
X154262667Y-75097125D01*
X154262674Y-75097129D01*
X154397520Y-75147423D01*
X154397519Y-75147423D01*
X154404447Y-75148167D01*
X154457130Y-75153832D01*
X156252875Y-75153831D01*
X156312486Y-75147423D01*
X156447334Y-75097128D01*
X156562549Y-75010878D01*
X156648799Y-74895663D01*
X156698005Y-74763733D01*
X156739875Y-74707800D01*
X156805340Y-74683382D01*
X156873613Y-74698233D01*
X156901868Y-74719385D01*
X157023920Y-74841437D01*
X157217424Y-74976932D01*
X157431510Y-75076761D01*
X157431519Y-75076765D01*
X157645003Y-75133966D01*
X157645003Y-74238833D01*
X157752688Y-74288012D01*
X157859240Y-74303332D01*
X157930766Y-74303332D01*
X158037318Y-74288012D01*
X158145003Y-74238833D01*
X158145003Y-75133965D01*
X158358486Y-75076765D01*
X158358495Y-75076761D01*
X158572581Y-74976932D01*
X158766085Y-74841437D01*
X158933108Y-74674414D01*
X159063122Y-74488737D01*
X159117699Y-74445113D01*
X159187198Y-74437920D01*
X159249552Y-74469442D01*
X159266272Y-74488737D01*
X159396508Y-74674733D01*
X159563602Y-74841827D01*
X159660387Y-74909597D01*
X159757168Y-74977364D01*
X159757170Y-74977365D01*
X159757173Y-74977367D01*
X159971340Y-75077235D01*
X160199595Y-75138395D01*
X160376037Y-75153832D01*
X160435002Y-75158991D01*
X160435003Y-75158991D01*
X160435004Y-75158991D01*
X160493969Y-75153832D01*
X160670411Y-75138395D01*
X160898666Y-75077235D01*
X161112833Y-74977367D01*
X161306404Y-74841827D01*
X161447029Y-74701202D01*
X189203503Y-74701202D01*
X189203504Y-74701208D01*
X189209911Y-74760815D01*
X189260205Y-74895660D01*
X189260209Y-74895667D01*
X189346455Y-75010876D01*
X189346458Y-75010879D01*
X189461667Y-75097125D01*
X189461674Y-75097129D01*
X189596520Y-75147423D01*
X189596519Y-75147423D01*
X189603447Y-75148167D01*
X189656130Y-75153832D01*
X191451875Y-75153831D01*
X191511486Y-75147423D01*
X191646334Y-75097128D01*
X191761549Y-75010878D01*
X191847799Y-74895663D01*
X191897005Y-74763733D01*
X191938875Y-74707800D01*
X192004340Y-74683382D01*
X192072613Y-74698233D01*
X192100868Y-74719385D01*
X192222920Y-74841437D01*
X192416424Y-74976932D01*
X192630510Y-75076761D01*
X192630519Y-75076765D01*
X192844003Y-75133966D01*
X192844003Y-74238833D01*
X192951688Y-74288012D01*
X193058240Y-74303332D01*
X193129766Y-74303332D01*
X193236318Y-74288012D01*
X193344003Y-74238833D01*
X193344003Y-75133965D01*
X193557486Y-75076765D01*
X193557495Y-75076761D01*
X193771581Y-74976932D01*
X193965085Y-74841437D01*
X194132108Y-74674414D01*
X194262122Y-74488737D01*
X194316699Y-74445113D01*
X194386198Y-74437920D01*
X194448552Y-74469442D01*
X194465272Y-74488737D01*
X194595508Y-74674733D01*
X194762602Y-74841827D01*
X194859387Y-74909597D01*
X194956168Y-74977364D01*
X194956170Y-74977365D01*
X194956173Y-74977367D01*
X195170340Y-75077235D01*
X195398595Y-75138395D01*
X195575037Y-75153832D01*
X195634002Y-75158991D01*
X195634003Y-75158991D01*
X195634004Y-75158991D01*
X195692969Y-75153832D01*
X195869411Y-75138395D01*
X196097666Y-75077235D01*
X196311833Y-74977367D01*
X196505404Y-74841827D01*
X196646029Y-74701202D01*
X224402503Y-74701202D01*
X224402504Y-74701208D01*
X224408911Y-74760815D01*
X224459205Y-74895660D01*
X224459209Y-74895667D01*
X224545455Y-75010876D01*
X224545458Y-75010879D01*
X224660667Y-75097125D01*
X224660674Y-75097129D01*
X224795520Y-75147423D01*
X224795519Y-75147423D01*
X224802447Y-75148167D01*
X224855130Y-75153832D01*
X226650875Y-75153831D01*
X226710486Y-75147423D01*
X226845334Y-75097128D01*
X226960549Y-75010878D01*
X227046799Y-74895663D01*
X227096005Y-74763733D01*
X227137875Y-74707800D01*
X227203340Y-74683382D01*
X227271613Y-74698233D01*
X227299868Y-74719385D01*
X227421920Y-74841437D01*
X227615424Y-74976932D01*
X227829510Y-75076761D01*
X227829519Y-75076765D01*
X228043003Y-75133966D01*
X228043003Y-74238833D01*
X228150688Y-74288012D01*
X228257240Y-74303332D01*
X228328766Y-74303332D01*
X228435318Y-74288012D01*
X228543003Y-74238833D01*
X228543003Y-75133965D01*
X228756486Y-75076765D01*
X228756495Y-75076761D01*
X228970581Y-74976932D01*
X229164085Y-74841437D01*
X229331108Y-74674414D01*
X229461122Y-74488737D01*
X229515699Y-74445113D01*
X229585198Y-74437920D01*
X229647552Y-74469442D01*
X229664272Y-74488737D01*
X229794508Y-74674733D01*
X229961602Y-74841827D01*
X230058387Y-74909597D01*
X230155168Y-74977364D01*
X230155170Y-74977365D01*
X230155173Y-74977367D01*
X230369340Y-75077235D01*
X230597595Y-75138395D01*
X230774037Y-75153832D01*
X230833002Y-75158991D01*
X230833003Y-75158991D01*
X230833004Y-75158991D01*
X230891969Y-75153832D01*
X231068411Y-75138395D01*
X231296666Y-75077235D01*
X231510833Y-74977367D01*
X231704404Y-74841827D01*
X231871498Y-74674733D01*
X232007038Y-74481162D01*
X232106906Y-74266995D01*
X232168066Y-74038740D01*
X232188662Y-73803332D01*
X232168066Y-73567924D01*
X232106906Y-73339669D01*
X232007038Y-73125503D01*
X232001734Y-73117927D01*
X231871497Y-72931929D01*
X231704405Y-72764838D01*
X231704398Y-72764833D01*
X231510837Y-72629299D01*
X231510833Y-72629297D01*
X231510831Y-72629296D01*
X231296666Y-72529429D01*
X231296662Y-72529428D01*
X231296658Y-72529426D01*
X231068416Y-72468270D01*
X231068406Y-72468268D01*
X230833004Y-72447673D01*
X230833002Y-72447673D01*
X230597599Y-72468268D01*
X230597589Y-72468270D01*
X230369347Y-72529426D01*
X230369338Y-72529430D01*
X230155174Y-72629296D01*
X230155172Y-72629297D01*
X229961600Y-72764837D01*
X229794511Y-72931926D01*
X229664272Y-73117927D01*
X229609695Y-73161551D01*
X229540196Y-73168744D01*
X229477842Y-73137222D01*
X229461122Y-73117926D01*
X229331116Y-72932258D01*
X229331111Y-72932252D01*
X229164085Y-72765226D01*
X228970581Y-72629731D01*
X228756495Y-72529902D01*
X228756489Y-72529899D01*
X228543003Y-72472696D01*
X228543003Y-73367830D01*
X228435318Y-73318652D01*
X228328766Y-73303332D01*
X228257240Y-73303332D01*
X228150688Y-73318652D01*
X228043003Y-73367830D01*
X228043003Y-72472696D01*
X228043002Y-72472696D01*
X227829516Y-72529899D01*
X227829510Y-72529902D01*
X227615425Y-72629731D01*
X227615423Y-72629732D01*
X227421929Y-72765218D01*
X227299868Y-72887279D01*
X227238545Y-72920763D01*
X227168853Y-72915779D01*
X227112920Y-72873907D01*
X227096005Y-72842930D01*
X227046800Y-72711003D01*
X227046796Y-72710996D01*
X226960550Y-72595787D01*
X226960547Y-72595784D01*
X226845338Y-72509538D01*
X226845331Y-72509534D01*
X226710485Y-72459240D01*
X226710486Y-72459240D01*
X226650886Y-72452833D01*
X226650884Y-72452832D01*
X226650876Y-72452832D01*
X226650867Y-72452832D01*
X224855132Y-72452832D01*
X224855126Y-72452833D01*
X224795519Y-72459240D01*
X224660674Y-72509534D01*
X224660667Y-72509538D01*
X224545458Y-72595784D01*
X224545455Y-72595787D01*
X224459209Y-72710996D01*
X224459205Y-72711003D01*
X224408911Y-72845849D01*
X224402504Y-72905448D01*
X224402503Y-72905467D01*
X224402503Y-74701202D01*
X196646029Y-74701202D01*
X196672498Y-74674733D01*
X196808038Y-74481162D01*
X196907906Y-74266995D01*
X196969066Y-74038740D01*
X196989662Y-73803332D01*
X196969066Y-73567924D01*
X196907906Y-73339669D01*
X196808038Y-73125503D01*
X196802734Y-73117927D01*
X196672497Y-72931929D01*
X196505405Y-72764838D01*
X196505398Y-72764833D01*
X196311837Y-72629299D01*
X196311833Y-72629297D01*
X196311831Y-72629296D01*
X196097666Y-72529429D01*
X196097662Y-72529428D01*
X196097658Y-72529426D01*
X195869416Y-72468270D01*
X195869406Y-72468268D01*
X195634004Y-72447673D01*
X195634002Y-72447673D01*
X195398599Y-72468268D01*
X195398589Y-72468270D01*
X195170347Y-72529426D01*
X195170338Y-72529430D01*
X194956174Y-72629296D01*
X194956172Y-72629297D01*
X194762600Y-72764837D01*
X194595511Y-72931926D01*
X194465272Y-73117927D01*
X194410695Y-73161551D01*
X194341196Y-73168744D01*
X194278842Y-73137222D01*
X194262122Y-73117926D01*
X194132116Y-72932258D01*
X194132111Y-72932252D01*
X193965085Y-72765226D01*
X193771581Y-72629731D01*
X193557495Y-72529902D01*
X193557489Y-72529899D01*
X193344003Y-72472696D01*
X193344003Y-73367830D01*
X193236318Y-73318652D01*
X193129766Y-73303332D01*
X193058240Y-73303332D01*
X192951688Y-73318652D01*
X192844003Y-73367830D01*
X192844003Y-72472696D01*
X192844002Y-72472696D01*
X192630516Y-72529899D01*
X192630510Y-72529902D01*
X192416425Y-72629731D01*
X192416423Y-72629732D01*
X192222929Y-72765218D01*
X192100868Y-72887279D01*
X192039545Y-72920763D01*
X191969853Y-72915779D01*
X191913920Y-72873907D01*
X191897005Y-72842930D01*
X191847800Y-72711003D01*
X191847796Y-72710996D01*
X191761550Y-72595787D01*
X191761547Y-72595784D01*
X191646338Y-72509538D01*
X191646331Y-72509534D01*
X191511485Y-72459240D01*
X191511486Y-72459240D01*
X191451886Y-72452833D01*
X191451884Y-72452832D01*
X191451876Y-72452832D01*
X191451867Y-72452832D01*
X189656132Y-72452832D01*
X189656126Y-72452833D01*
X189596519Y-72459240D01*
X189461674Y-72509534D01*
X189461667Y-72509538D01*
X189346458Y-72595784D01*
X189346455Y-72595787D01*
X189260209Y-72710996D01*
X189260205Y-72711003D01*
X189209911Y-72845849D01*
X189203504Y-72905448D01*
X189203503Y-72905467D01*
X189203503Y-74701202D01*
X161447029Y-74701202D01*
X161473498Y-74674733D01*
X161609038Y-74481162D01*
X161708906Y-74266995D01*
X161770066Y-74038740D01*
X161790662Y-73803332D01*
X161770066Y-73567924D01*
X161708906Y-73339669D01*
X161609038Y-73125503D01*
X161603734Y-73117927D01*
X161473497Y-72931929D01*
X161306405Y-72764838D01*
X161306398Y-72764833D01*
X161112837Y-72629299D01*
X161112833Y-72629297D01*
X161112831Y-72629296D01*
X160898666Y-72529429D01*
X160898662Y-72529428D01*
X160898658Y-72529426D01*
X160670416Y-72468270D01*
X160670406Y-72468268D01*
X160435004Y-72447673D01*
X160435002Y-72447673D01*
X160199599Y-72468268D01*
X160199589Y-72468270D01*
X159971347Y-72529426D01*
X159971338Y-72529430D01*
X159757174Y-72629296D01*
X159757172Y-72629297D01*
X159563600Y-72764837D01*
X159396511Y-72931926D01*
X159266272Y-73117927D01*
X159211695Y-73161551D01*
X159142196Y-73168744D01*
X159079842Y-73137222D01*
X159063122Y-73117926D01*
X158933116Y-72932258D01*
X158933111Y-72932252D01*
X158766085Y-72765226D01*
X158572581Y-72629731D01*
X158358495Y-72529902D01*
X158358489Y-72529899D01*
X158145003Y-72472696D01*
X158145003Y-73367830D01*
X158037318Y-73318652D01*
X157930766Y-73303332D01*
X157859240Y-73303332D01*
X157752688Y-73318652D01*
X157645003Y-73367830D01*
X157645003Y-72472696D01*
X157645002Y-72472696D01*
X157431516Y-72529899D01*
X157431510Y-72529902D01*
X157217425Y-72629731D01*
X157217423Y-72629732D01*
X157023929Y-72765218D01*
X156901868Y-72887279D01*
X156840545Y-72920763D01*
X156770853Y-72915779D01*
X156714920Y-72873907D01*
X156698005Y-72842930D01*
X156648800Y-72711003D01*
X156648796Y-72710996D01*
X156562550Y-72595787D01*
X156562547Y-72595784D01*
X156447338Y-72509538D01*
X156447331Y-72509534D01*
X156312485Y-72459240D01*
X156312486Y-72459240D01*
X156252886Y-72452833D01*
X156252884Y-72452832D01*
X156252876Y-72452832D01*
X156252867Y-72452832D01*
X154457132Y-72452832D01*
X154457126Y-72452833D01*
X154397519Y-72459240D01*
X154262674Y-72509534D01*
X154262667Y-72509538D01*
X154147458Y-72595784D01*
X154147455Y-72595787D01*
X154061209Y-72710996D01*
X154061205Y-72711003D01*
X154010911Y-72845849D01*
X154004504Y-72905448D01*
X154004503Y-72905467D01*
X154004503Y-74701202D01*
X98472168Y-74701202D01*
X98472168Y-72170004D01*
X107774953Y-72170004D01*
X107795113Y-72439026D01*
X107795113Y-72439028D01*
X107855142Y-72702033D01*
X107855148Y-72702052D01*
X107953709Y-72953181D01*
X107953708Y-72953181D01*
X108088602Y-73186822D01*
X108142294Y-73254151D01*
X108863337Y-72533107D01*
X108950577Y-72671948D01*
X109078052Y-72799423D01*
X109216890Y-72886661D01*
X108494848Y-73608702D01*
X108677483Y-73733220D01*
X108677485Y-73733221D01*
X108920539Y-73850269D01*
X108920537Y-73850269D01*
X109178337Y-73929790D01*
X109178343Y-73929792D01*
X109445101Y-73969999D01*
X109445110Y-73970000D01*
X109714890Y-73970000D01*
X109714898Y-73969999D01*
X109981656Y-73929792D01*
X109981662Y-73929790D01*
X110239461Y-73850269D01*
X110482521Y-73733218D01*
X110665150Y-73608702D01*
X109943108Y-72886661D01*
X110081948Y-72799423D01*
X110209423Y-72671948D01*
X110296661Y-72533108D01*
X111017703Y-73254151D01*
X111017704Y-73254150D01*
X111071393Y-73186828D01*
X111071400Y-73186817D01*
X111206290Y-72953181D01*
X111304851Y-72702052D01*
X111304857Y-72702033D01*
X111364886Y-72439028D01*
X111364886Y-72439026D01*
X111385047Y-72170004D01*
X111385047Y-72169995D01*
X111364886Y-71900973D01*
X111364886Y-71900971D01*
X111304857Y-71637966D01*
X111304851Y-71637947D01*
X111206290Y-71386818D01*
X111206291Y-71386818D01*
X111071397Y-71153177D01*
X111017704Y-71085847D01*
X110296660Y-71806890D01*
X110209423Y-71668052D01*
X110081948Y-71540577D01*
X109943108Y-71453338D01*
X110665150Y-70731296D01*
X110482517Y-70606779D01*
X110482516Y-70606778D01*
X110239460Y-70489730D01*
X110239462Y-70489730D01*
X109981662Y-70410209D01*
X109981656Y-70410207D01*
X109714898Y-70370000D01*
X109445101Y-70370000D01*
X109178343Y-70410207D01*
X109178337Y-70410209D01*
X108920538Y-70489730D01*
X108677485Y-70606778D01*
X108677476Y-70606783D01*
X108494848Y-70731296D01*
X109216891Y-71453338D01*
X109078052Y-71540577D01*
X108950577Y-71668052D01*
X108863338Y-71806891D01*
X108142295Y-71085848D01*
X108088600Y-71153180D01*
X107953709Y-71386818D01*
X107855148Y-71637947D01*
X107855142Y-71637966D01*
X107795113Y-71900971D01*
X107795113Y-71900973D01*
X107774953Y-72169995D01*
X107774953Y-72170004D01*
X98472168Y-72170004D01*
X98472168Y-67470004D01*
X104774953Y-67470004D01*
X104795113Y-67739026D01*
X104795113Y-67739028D01*
X104855142Y-68002033D01*
X104855148Y-68002052D01*
X104953709Y-68253181D01*
X104953708Y-68253181D01*
X105088602Y-68486822D01*
X105142294Y-68554151D01*
X105142295Y-68554151D01*
X105863338Y-67833108D01*
X105950577Y-67971948D01*
X106078052Y-68099423D01*
X106216890Y-68186661D01*
X105494848Y-68908702D01*
X105677483Y-69033220D01*
X105677485Y-69033221D01*
X105920539Y-69150269D01*
X105920537Y-69150269D01*
X106178337Y-69229790D01*
X106178343Y-69229792D01*
X106445101Y-69269999D01*
X106445110Y-69270000D01*
X106714890Y-69270000D01*
X106714898Y-69269999D01*
X106981656Y-69229792D01*
X106981662Y-69229790D01*
X107239461Y-69150269D01*
X107482521Y-69033218D01*
X107665150Y-68908702D01*
X107574318Y-68817870D01*
X110779500Y-68817870D01*
X110779501Y-68817876D01*
X110785908Y-68877483D01*
X110836202Y-69012328D01*
X110836206Y-69012335D01*
X110922452Y-69127544D01*
X110922455Y-69127547D01*
X111037664Y-69213793D01*
X111037671Y-69213797D01*
X111172517Y-69264091D01*
X111172516Y-69264091D01*
X111179444Y-69264835D01*
X111232127Y-69270500D01*
X113927872Y-69270499D01*
X113987483Y-69264091D01*
X114122331Y-69213796D01*
X114237546Y-69127546D01*
X114323796Y-69012331D01*
X114374091Y-68877483D01*
X114380500Y-68817873D01*
X114380499Y-66122128D01*
X114374091Y-66062517D01*
X114362446Y-66031296D01*
X114323797Y-65927671D01*
X114323793Y-65927664D01*
X114237547Y-65812455D01*
X114237544Y-65812452D01*
X114122335Y-65726206D01*
X114122328Y-65726202D01*
X113987482Y-65675908D01*
X113987483Y-65675908D01*
X113927883Y-65669501D01*
X113927881Y-65669500D01*
X113927873Y-65669500D01*
X113927864Y-65669500D01*
X111232129Y-65669500D01*
X111232123Y-65669501D01*
X111172516Y-65675908D01*
X111037671Y-65726202D01*
X111037664Y-65726206D01*
X110922455Y-65812452D01*
X110922452Y-65812455D01*
X110836206Y-65927664D01*
X110836202Y-65927671D01*
X110785908Y-66062517D01*
X110779501Y-66122116D01*
X110779501Y-66122123D01*
X110779500Y-66122135D01*
X110779500Y-68817870D01*
X107574318Y-68817870D01*
X106943108Y-68186661D01*
X107081948Y-68099423D01*
X107209423Y-67971948D01*
X107296661Y-67833108D01*
X108017703Y-68554151D01*
X108017704Y-68554150D01*
X108071393Y-68486828D01*
X108071400Y-68486817D01*
X108206290Y-68253181D01*
X108304851Y-68002052D01*
X108304857Y-68002033D01*
X108364886Y-67739028D01*
X108364886Y-67739026D01*
X108385047Y-67470004D01*
X108385047Y-67469995D01*
X108364886Y-67200973D01*
X108364886Y-67200971D01*
X108304857Y-66937966D01*
X108304851Y-66937947D01*
X108206290Y-66686818D01*
X108206291Y-66686818D01*
X108071397Y-66453177D01*
X108017704Y-66385847D01*
X107296660Y-67106890D01*
X107209423Y-66968052D01*
X107081948Y-66840577D01*
X106943108Y-66753338D01*
X107665150Y-66031296D01*
X107482517Y-65906779D01*
X107482516Y-65906778D01*
X107239460Y-65789730D01*
X107239462Y-65789730D01*
X106981662Y-65710209D01*
X106981656Y-65710207D01*
X106714898Y-65670000D01*
X106445101Y-65670000D01*
X106178343Y-65710207D01*
X106178337Y-65710209D01*
X105920538Y-65789730D01*
X105677485Y-65906778D01*
X105677476Y-65906783D01*
X105494848Y-66031296D01*
X106216891Y-66753338D01*
X106078052Y-66840577D01*
X105950577Y-66968052D01*
X105863338Y-67106891D01*
X105142295Y-66385848D01*
X105088600Y-66453180D01*
X104953709Y-66686818D01*
X104855148Y-66937947D01*
X104855142Y-66937966D01*
X104795113Y-67200971D01*
X104795113Y-67200973D01*
X104774953Y-67469995D01*
X104774953Y-67470004D01*
X98472168Y-67470004D01*
X98472168Y-55614334D01*
X104026168Y-55614334D01*
X104067097Y-55859616D01*
X104147837Y-56094802D01*
X104147840Y-56094811D01*
X104266192Y-56313506D01*
X104266194Y-56313509D01*
X104418930Y-56509744D01*
X104578412Y-56656557D01*
X104601885Y-56678166D01*
X104810061Y-56814173D01*
X105037786Y-56914063D01*
X105278843Y-56975107D01*
X105278847Y-56975108D01*
X105278849Y-56975108D01*
X105278854Y-56975109D01*
X105432257Y-56987819D01*
X105464601Y-56990500D01*
X105464605Y-56990500D01*
X105588731Y-56990500D01*
X105588735Y-56990500D01*
X105651345Y-56985311D01*
X105774481Y-56975109D01*
X105774484Y-56975108D01*
X105774489Y-56975108D01*
X106015549Y-56914063D01*
X106243275Y-56814173D01*
X106451453Y-56678164D01*
X106607694Y-56534334D01*
X256236168Y-56534334D01*
X256277097Y-56779616D01*
X256357837Y-57014802D01*
X256357840Y-57014811D01*
X256476192Y-57233506D01*
X256476194Y-57233509D01*
X256628930Y-57429744D01*
X256788412Y-57576557D01*
X256811885Y-57598166D01*
X257020061Y-57734173D01*
X257247786Y-57834063D01*
X257488843Y-57895107D01*
X257488847Y-57895108D01*
X257488849Y-57895108D01*
X257488854Y-57895109D01*
X257642257Y-57907819D01*
X257674601Y-57910500D01*
X257674605Y-57910500D01*
X257798731Y-57910500D01*
X257798735Y-57910500D01*
X257861345Y-57905311D01*
X257984481Y-57895109D01*
X257984484Y-57895108D01*
X257984489Y-57895108D01*
X258225549Y-57834063D01*
X258453275Y-57734173D01*
X258661453Y-57598164D01*
X258844406Y-57429744D01*
X258997142Y-57233509D01*
X259115496Y-57014810D01*
X259196239Y-56779614D01*
X259237168Y-56534335D01*
X259237168Y-56285665D01*
X259196239Y-56040386D01*
X259115496Y-55805190D01*
X258997142Y-55586491D01*
X258844406Y-55390256D01*
X258661453Y-55221836D01*
X258661450Y-55221833D01*
X258453274Y-55085826D01*
X258225549Y-54985936D01*
X257984492Y-54924892D01*
X257984481Y-54924890D01*
X257798745Y-54909500D01*
X257798735Y-54909500D01*
X257674601Y-54909500D01*
X257674590Y-54909500D01*
X257488854Y-54924890D01*
X257488843Y-54924892D01*
X257247786Y-54985936D01*
X257020061Y-55085826D01*
X256811885Y-55221833D01*
X256628929Y-55390257D01*
X256476192Y-55586493D01*
X256357840Y-55805188D01*
X256357837Y-55805197D01*
X256277097Y-56040383D01*
X256236168Y-56285665D01*
X256236168Y-56534334D01*
X106607694Y-56534334D01*
X106634406Y-56509744D01*
X106787142Y-56313509D01*
X106905496Y-56094810D01*
X106986239Y-55859614D01*
X107027168Y-55614335D01*
X107027168Y-55365665D01*
X106986239Y-55120386D01*
X106905496Y-54885190D01*
X106787142Y-54666491D01*
X106634406Y-54470256D01*
X106451453Y-54301836D01*
X106451450Y-54301833D01*
X106243274Y-54165826D01*
X106015549Y-54065936D01*
X105774492Y-54004892D01*
X105774481Y-54004890D01*
X105588745Y-53989500D01*
X105588735Y-53989500D01*
X105464601Y-53989500D01*
X105464590Y-53989500D01*
X105278854Y-54004890D01*
X105278843Y-54004892D01*
X105037786Y-54065936D01*
X104810061Y-54165826D01*
X104601885Y-54301833D01*
X104418929Y-54470257D01*
X104266192Y-54666493D01*
X104147840Y-54885188D01*
X104147837Y-54885197D01*
X104067097Y-55120383D01*
X104026168Y-55365665D01*
X104026168Y-55614334D01*
X98472168Y-55614334D01*
X98472168Y-49784500D01*
X98491853Y-49717461D01*
X98544657Y-49671706D01*
X98596168Y-49660500D01*
X264057168Y-49660500D01*
X264124207Y-49680185D01*
G37*
%TD.AperFunction*%
%TD*%
M02*
