%TF.GenerationSoftware,KiCad,Pcbnew,7.0.10*%
%TF.CreationDate,2024-03-06T14:44:47-05:00*%
%TF.ProjectId,Power_Supply,506f7765-725f-4537-9570-706c792e6b69,rev?*%
%TF.SameCoordinates,Original*%
%TF.FileFunction,Drillmap*%
%TF.FilePolarity,Positive*%
%FSLAX45Y45*%
G04 Gerber Fmt 4.5, Leading zero omitted, Abs format (unit mm)*
G04 Created by KiCad (PCBNEW 7.0.10) date 2024-03-06 14:44:47*
%MOMM*%
%LPD*%
G01*
G04 APERTURE LIST*
%ADD10C,0.200000*%
%ADD11C,0.100000*%
%ADD12C,0.160000*%
%ADD13C,0.450000*%
G04 APERTURE END LIST*
D10*
X9847167Y-4966000D02*
X26418167Y-4966000D01*
X26418167Y-23769000D01*
X9847167Y-23769000D01*
X9847167Y-4966000D01*
D11*
X14200000Y-12621000D02*
X14240000Y-12661000D01*
X14240000Y-12621000D02*
X14200000Y-12661000D01*
X14731000Y-13718000D02*
X14771000Y-13758000D01*
X14771000Y-13718000D02*
X14731000Y-13758000D01*
X11446100Y-8479000D02*
G75*
G03*
X11369900Y-8479000I-38100J0D01*
G01*
X11369900Y-8479000D02*
G75*
G03*
X11446100Y-8479000I38100J0D01*
G01*
X11446100Y-12543000D02*
G75*
G03*
X11369900Y-12543000I-38100J0D01*
G01*
X11369900Y-12543000D02*
G75*
G03*
X11446100Y-12543000I38100J0D01*
G01*
X13224100Y-8479000D02*
G75*
G03*
X13147900Y-8479000I-38100J0D01*
G01*
X13147900Y-8479000D02*
G75*
G03*
X13224100Y-8479000I38100J0D01*
G01*
X13224100Y-12543000D02*
G75*
G03*
X13147900Y-12543000I-38100J0D01*
G01*
X13147900Y-12543000D02*
G75*
G03*
X13224100Y-12543000I38100J0D01*
G01*
X14953100Y-8497000D02*
G75*
G03*
X14876900Y-8497000I-38100J0D01*
G01*
X14876900Y-8497000D02*
G75*
G03*
X14953100Y-8497000I38100J0D01*
G01*
X14953100Y-12561000D02*
G75*
G03*
X14876900Y-12561000I-38100J0D01*
G01*
X14876900Y-12561000D02*
G75*
G03*
X14953100Y-12561000I38100J0D01*
G01*
X15382100Y-16509000D02*
G75*
G03*
X15305900Y-16509000I-38100J0D01*
G01*
X15305900Y-16509000D02*
G75*
G03*
X15382100Y-16509000I38100J0D01*
G01*
X15382100Y-20573000D02*
G75*
G03*
X15305900Y-20573000I-38100J0D01*
G01*
X15305900Y-20573000D02*
G75*
G03*
X15382100Y-20573000I38100J0D01*
G01*
X16731100Y-8497000D02*
G75*
G03*
X16654900Y-8497000I-38100J0D01*
G01*
X16654900Y-8497000D02*
G75*
G03*
X16731100Y-8497000I38100J0D01*
G01*
X16731100Y-12561000D02*
G75*
G03*
X16654900Y-12561000I-38100J0D01*
G01*
X16654900Y-12561000D02*
G75*
G03*
X16731100Y-12561000I38100J0D01*
G01*
X17160100Y-16509000D02*
G75*
G03*
X17083900Y-16509000I-38100J0D01*
G01*
X17083900Y-16509000D02*
G75*
G03*
X17160100Y-16509000I38100J0D01*
G01*
X17160100Y-20573000D02*
G75*
G03*
X17083900Y-20573000I-38100J0D01*
G01*
X17083900Y-20573000D02*
G75*
G03*
X17160100Y-20573000I38100J0D01*
G01*
X18505100Y-8475000D02*
G75*
G03*
X18428900Y-8475000I-38100J0D01*
G01*
X18428900Y-8475000D02*
G75*
G03*
X18505100Y-8475000I38100J0D01*
G01*
X18505100Y-12539000D02*
G75*
G03*
X18428900Y-12539000I-38100J0D01*
G01*
X18428900Y-12539000D02*
G75*
G03*
X18505100Y-12539000I38100J0D01*
G01*
X18896100Y-16508000D02*
G75*
G03*
X18819900Y-16508000I-38100J0D01*
G01*
X18819900Y-16508000D02*
G75*
G03*
X18896100Y-16508000I38100J0D01*
G01*
X18896100Y-20572000D02*
G75*
G03*
X18819900Y-20572000I-38100J0D01*
G01*
X18819900Y-20572000D02*
G75*
G03*
X18896100Y-20572000I38100J0D01*
G01*
X20283100Y-8475000D02*
G75*
G03*
X20206900Y-8475000I-38100J0D01*
G01*
X20206900Y-8475000D02*
G75*
G03*
X20283100Y-8475000I38100J0D01*
G01*
X20283100Y-12539000D02*
G75*
G03*
X20206900Y-12539000I-38100J0D01*
G01*
X20206900Y-12539000D02*
G75*
G03*
X20283100Y-12539000I38100J0D01*
G01*
X20674100Y-16508000D02*
G75*
G03*
X20597900Y-16508000I-38100J0D01*
G01*
X20597900Y-16508000D02*
G75*
G03*
X20674100Y-16508000I38100J0D01*
G01*
X20674100Y-20572000D02*
G75*
G03*
X20597900Y-20572000I-38100J0D01*
G01*
X20597900Y-20572000D02*
G75*
G03*
X20674100Y-20572000I38100J0D01*
G01*
X22368100Y-8477000D02*
G75*
G03*
X22291900Y-8477000I-38100J0D01*
G01*
X22291900Y-8477000D02*
G75*
G03*
X22368100Y-8477000I38100J0D01*
G01*
X22368100Y-12541000D02*
G75*
G03*
X22291900Y-12541000I-38100J0D01*
G01*
X22291900Y-12541000D02*
G75*
G03*
X22368100Y-12541000I38100J0D01*
G01*
X22374100Y-16570000D02*
G75*
G03*
X22297900Y-16570000I-38100J0D01*
G01*
X22297900Y-16570000D02*
G75*
G03*
X22374100Y-16570000I38100J0D01*
G01*
X22374100Y-20634000D02*
G75*
G03*
X22297900Y-20634000I-38100J0D01*
G01*
X22297900Y-20634000D02*
G75*
G03*
X22374100Y-20634000I38100J0D01*
G01*
X24146100Y-8477000D02*
G75*
G03*
X24069900Y-8477000I-38100J0D01*
G01*
X24069900Y-8477000D02*
G75*
G03*
X24146100Y-8477000I38100J0D01*
G01*
X24146100Y-12541000D02*
G75*
G03*
X24069900Y-12541000I-38100J0D01*
G01*
X24069900Y-12541000D02*
G75*
G03*
X24146100Y-12541000I38100J0D01*
G01*
X24152100Y-16570000D02*
G75*
G03*
X24075900Y-16570000I-38100J0D01*
G01*
X24075900Y-16570000D02*
G75*
G03*
X24152100Y-16570000I38100J0D01*
G01*
X24152100Y-20634000D02*
G75*
G03*
X24075900Y-20634000I-38100J0D01*
G01*
X24075900Y-20634000D02*
G75*
G03*
X24152100Y-20634000I38100J0D01*
G01*
X12941000Y-17491000D02*
X12941000Y-17591000D01*
X12891000Y-17541000D02*
X12991000Y-17541000D01*
X12941000Y-17745000D02*
X12941000Y-17845000D01*
X12891000Y-17795000D02*
X12991000Y-17795000D01*
X13195000Y-17491000D02*
X13195000Y-17591000D01*
X13145000Y-17541000D02*
X13245000Y-17541000D01*
X13195000Y-17745000D02*
X13195000Y-17845000D01*
X13145000Y-17795000D02*
X13245000Y-17795000D01*
X13449000Y-17491000D02*
X13449000Y-17591000D01*
X13399000Y-17541000D02*
X13499000Y-17541000D01*
X13449000Y-17745000D02*
X13449000Y-17845000D01*
X13399000Y-17795000D02*
X13499000Y-17795000D01*
X13703000Y-17491000D02*
X13703000Y-17591000D01*
X13653000Y-17541000D02*
X13753000Y-17541000D01*
X13703000Y-17745000D02*
X13703000Y-17845000D01*
X13653000Y-17795000D02*
X13753000Y-17795000D01*
X13957000Y-17491000D02*
X13957000Y-17591000D01*
X13907000Y-17541000D02*
X14007000Y-17541000D01*
X13957000Y-17745000D02*
X13957000Y-17845000D01*
X13907000Y-17795000D02*
X14007000Y-17795000D01*
X14211000Y-17491000D02*
X14211000Y-17591000D01*
X14161000Y-17541000D02*
X14261000Y-17541000D01*
X14211000Y-17745000D02*
X14211000Y-17845000D01*
X14161000Y-17795000D02*
X14261000Y-17795000D01*
X15535500Y-7330333D02*
X15535500Y-7430333D01*
X15485500Y-7380333D02*
X15585500Y-7380333D01*
X15789500Y-7330333D02*
X15789500Y-7430333D01*
X15739500Y-7380333D02*
X15839500Y-7380333D01*
X15949000Y-21670000D02*
X15949000Y-21770000D01*
X15899000Y-21720000D02*
X15999000Y-21720000D01*
X16043500Y-7330333D02*
X16043500Y-7430333D01*
X15993500Y-7380333D02*
X16093500Y-7380333D01*
X16203000Y-21670000D02*
X16203000Y-21770000D01*
X16153000Y-21720000D02*
X16253000Y-21720000D01*
X16457000Y-21670000D02*
X16457000Y-21770000D01*
X16407000Y-21720000D02*
X16507000Y-21720000D01*
X19055400Y-7330333D02*
X19055400Y-7430333D01*
X19005400Y-7380333D02*
X19105400Y-7380333D01*
X19309400Y-7330333D02*
X19309400Y-7430333D01*
X19259400Y-7380333D02*
X19359400Y-7380333D01*
X19468900Y-21670000D02*
X19468900Y-21770000D01*
X19418900Y-21720000D02*
X19518900Y-21720000D01*
X19563400Y-7330333D02*
X19563400Y-7430333D01*
X19513400Y-7380333D02*
X19613400Y-7380333D01*
X19722900Y-21670000D02*
X19722900Y-21770000D01*
X19672900Y-21720000D02*
X19772900Y-21720000D01*
X19976900Y-21670000D02*
X19976900Y-21770000D01*
X19926900Y-21720000D02*
X20026900Y-21720000D01*
X22575300Y-7330333D02*
X22575300Y-7430333D01*
X22525300Y-7380333D02*
X22625300Y-7380333D01*
X22829300Y-7330333D02*
X22829300Y-7430333D01*
X22779300Y-7380333D02*
X22879300Y-7380333D01*
X22988800Y-21670000D02*
X22988800Y-21770000D01*
X22938800Y-21720000D02*
X23038800Y-21720000D01*
X23083300Y-7330333D02*
X23083300Y-7430333D01*
X23033300Y-7380333D02*
X23133300Y-7380333D01*
X23242800Y-21670000D02*
X23242800Y-21770000D01*
X23192800Y-21720000D02*
X23292800Y-21720000D01*
X23496800Y-21670000D02*
X23496800Y-21770000D01*
X23446800Y-21720000D02*
X23546800Y-21720000D01*
X25093667Y-12678000D02*
X25093667Y-12778000D01*
X25043667Y-12728000D02*
X25143667Y-12728000D01*
X25093667Y-12932000D02*
X25093667Y-13032000D01*
X25043667Y-12982000D02*
X25143667Y-12982000D01*
X25093667Y-13186000D02*
X25093667Y-13286000D01*
X25043667Y-13236000D02*
X25143667Y-13236000D01*
X25093667Y-13440000D02*
X25093667Y-13540000D01*
X25043667Y-13490000D02*
X25143667Y-13490000D01*
X25093667Y-13694000D02*
X25093667Y-13794000D01*
X25043667Y-13744000D02*
X25143667Y-13744000D01*
X25093667Y-13948000D02*
X25093667Y-14048000D01*
X25043667Y-13998000D02*
X25143667Y-13998000D01*
D12*
X10824569Y-21831569D02*
X10824569Y-21718431D01*
X10711431Y-21718431D01*
X10711431Y-21831569D01*
X10824569Y-21831569D01*
X10890569Y-6851902D02*
X10890569Y-6738764D01*
X10777431Y-6738764D01*
X10777431Y-6851902D01*
X10890569Y-6851902D01*
X10897569Y-14682569D02*
X10897569Y-14569431D01*
X10784431Y-14569431D01*
X10784431Y-14682569D01*
X10897569Y-14682569D01*
X11124569Y-22301569D02*
X11124569Y-22188431D01*
X11011431Y-22188431D01*
X11011431Y-22301569D01*
X11124569Y-22301569D01*
X11190569Y-7321902D02*
X11190569Y-7208764D01*
X11077431Y-7208764D01*
X11077431Y-7321902D01*
X11190569Y-7321902D01*
X11197569Y-15152569D02*
X11197569Y-15039431D01*
X11084431Y-15039431D01*
X11084431Y-15152569D01*
X11197569Y-15152569D01*
X11424569Y-21831569D02*
X11424569Y-21718431D01*
X11311431Y-21718431D01*
X11311431Y-21831569D01*
X11424569Y-21831569D01*
X11490569Y-6851902D02*
X11490569Y-6738764D01*
X11377431Y-6738764D01*
X11377431Y-6851902D01*
X11490569Y-6851902D01*
X11497569Y-14682569D02*
X11497569Y-14569431D01*
X11384431Y-14569431D01*
X11384431Y-14682569D01*
X11497569Y-14682569D01*
D13*
X10580000Y-17476000D02*
X10805000Y-17251000D01*
X10580000Y-17026000D01*
X10355000Y-17251000D01*
X10580000Y-17476000D01*
X10580000Y-18196000D02*
X10805000Y-17971000D01*
X10580000Y-17746000D01*
X10355000Y-17971000D01*
X10580000Y-18196000D01*
D10*
X10097944Y-24090484D02*
X10097944Y-23890484D01*
X10097944Y-23890484D02*
X10145563Y-23890484D01*
X10145563Y-23890484D02*
X10174134Y-23900008D01*
X10174134Y-23900008D02*
X10193182Y-23919055D01*
X10193182Y-23919055D02*
X10202706Y-23938103D01*
X10202706Y-23938103D02*
X10212229Y-23976198D01*
X10212229Y-23976198D02*
X10212229Y-24004769D01*
X10212229Y-24004769D02*
X10202706Y-24042865D01*
X10202706Y-24042865D02*
X10193182Y-24061912D01*
X10193182Y-24061912D02*
X10174134Y-24080960D01*
X10174134Y-24080960D02*
X10145563Y-24090484D01*
X10145563Y-24090484D02*
X10097944Y-24090484D01*
X10297944Y-24090484D02*
X10297944Y-23957150D01*
X10297944Y-23995246D02*
X10307467Y-23976198D01*
X10307467Y-23976198D02*
X10316991Y-23966674D01*
X10316991Y-23966674D02*
X10336039Y-23957150D01*
X10336039Y-23957150D02*
X10355087Y-23957150D01*
X10421753Y-24090484D02*
X10421753Y-23957150D01*
X10421753Y-23890484D02*
X10412229Y-23900008D01*
X10412229Y-23900008D02*
X10421753Y-23909531D01*
X10421753Y-23909531D02*
X10431277Y-23900008D01*
X10431277Y-23900008D02*
X10421753Y-23890484D01*
X10421753Y-23890484D02*
X10421753Y-23909531D01*
X10545563Y-24090484D02*
X10526515Y-24080960D01*
X10526515Y-24080960D02*
X10516991Y-24061912D01*
X10516991Y-24061912D02*
X10516991Y-23890484D01*
X10650325Y-24090484D02*
X10631277Y-24080960D01*
X10631277Y-24080960D02*
X10621753Y-24061912D01*
X10621753Y-24061912D02*
X10621753Y-23890484D01*
X10878896Y-24090484D02*
X10878896Y-23890484D01*
X10878896Y-23890484D02*
X10945563Y-24033341D01*
X10945563Y-24033341D02*
X11012229Y-23890484D01*
X11012229Y-23890484D02*
X11012229Y-24090484D01*
X11193182Y-24090484D02*
X11193182Y-23985722D01*
X11193182Y-23985722D02*
X11183658Y-23966674D01*
X11183658Y-23966674D02*
X11164610Y-23957150D01*
X11164610Y-23957150D02*
X11126515Y-23957150D01*
X11126515Y-23957150D02*
X11107467Y-23966674D01*
X11193182Y-24080960D02*
X11174134Y-24090484D01*
X11174134Y-24090484D02*
X11126515Y-24090484D01*
X11126515Y-24090484D02*
X11107467Y-24080960D01*
X11107467Y-24080960D02*
X11097944Y-24061912D01*
X11097944Y-24061912D02*
X11097944Y-24042865D01*
X11097944Y-24042865D02*
X11107467Y-24023817D01*
X11107467Y-24023817D02*
X11126515Y-24014293D01*
X11126515Y-24014293D02*
X11174134Y-24014293D01*
X11174134Y-24014293D02*
X11193182Y-24004769D01*
X11288420Y-23957150D02*
X11288420Y-24157150D01*
X11288420Y-23966674D02*
X11307467Y-23957150D01*
X11307467Y-23957150D02*
X11345563Y-23957150D01*
X11345563Y-23957150D02*
X11364610Y-23966674D01*
X11364610Y-23966674D02*
X11374134Y-23976198D01*
X11374134Y-23976198D02*
X11383658Y-23995246D01*
X11383658Y-23995246D02*
X11383658Y-24052388D01*
X11383658Y-24052388D02*
X11374134Y-24071436D01*
X11374134Y-24071436D02*
X11364610Y-24080960D01*
X11364610Y-24080960D02*
X11345563Y-24090484D01*
X11345563Y-24090484D02*
X11307467Y-24090484D01*
X11307467Y-24090484D02*
X11288420Y-24080960D01*
X11469372Y-24071436D02*
X11478896Y-24080960D01*
X11478896Y-24080960D02*
X11469372Y-24090484D01*
X11469372Y-24090484D02*
X11459848Y-24080960D01*
X11459848Y-24080960D02*
X11469372Y-24071436D01*
X11469372Y-24071436D02*
X11469372Y-24090484D01*
X11469372Y-23966674D02*
X11478896Y-23976198D01*
X11478896Y-23976198D02*
X11469372Y-23985722D01*
X11469372Y-23985722D02*
X11459848Y-23976198D01*
X11459848Y-23976198D02*
X11469372Y-23966674D01*
X11469372Y-23966674D02*
X11469372Y-23985722D01*
D11*
X9797167Y-24399000D02*
X9837167Y-24439000D01*
X9837167Y-24399000D02*
X9797167Y-24439000D01*
D10*
X10136039Y-24310484D02*
X10155087Y-24310484D01*
X10155087Y-24310484D02*
X10174134Y-24320008D01*
X10174134Y-24320008D02*
X10183658Y-24329531D01*
X10183658Y-24329531D02*
X10193182Y-24348579D01*
X10193182Y-24348579D02*
X10202706Y-24386674D01*
X10202706Y-24386674D02*
X10202706Y-24434293D01*
X10202706Y-24434293D02*
X10193182Y-24472388D01*
X10193182Y-24472388D02*
X10183658Y-24491436D01*
X10183658Y-24491436D02*
X10174134Y-24500960D01*
X10174134Y-24500960D02*
X10155087Y-24510484D01*
X10155087Y-24510484D02*
X10136039Y-24510484D01*
X10136039Y-24510484D02*
X10116991Y-24500960D01*
X10116991Y-24500960D02*
X10107467Y-24491436D01*
X10107467Y-24491436D02*
X10097944Y-24472388D01*
X10097944Y-24472388D02*
X10088420Y-24434293D01*
X10088420Y-24434293D02*
X10088420Y-24386674D01*
X10088420Y-24386674D02*
X10097944Y-24348579D01*
X10097944Y-24348579D02*
X10107467Y-24329531D01*
X10107467Y-24329531D02*
X10116991Y-24320008D01*
X10116991Y-24320008D02*
X10136039Y-24310484D01*
X10288420Y-24491436D02*
X10297944Y-24500960D01*
X10297944Y-24500960D02*
X10288420Y-24510484D01*
X10288420Y-24510484D02*
X10278896Y-24500960D01*
X10278896Y-24500960D02*
X10288420Y-24491436D01*
X10288420Y-24491436D02*
X10288420Y-24510484D01*
X10469372Y-24377150D02*
X10469372Y-24510484D01*
X10421753Y-24300960D02*
X10374134Y-24443817D01*
X10374134Y-24443817D02*
X10497944Y-24443817D01*
X10612229Y-24310484D02*
X10631277Y-24310484D01*
X10631277Y-24310484D02*
X10650325Y-24320008D01*
X10650325Y-24320008D02*
X10659848Y-24329531D01*
X10659848Y-24329531D02*
X10669372Y-24348579D01*
X10669372Y-24348579D02*
X10678896Y-24386674D01*
X10678896Y-24386674D02*
X10678896Y-24434293D01*
X10678896Y-24434293D02*
X10669372Y-24472388D01*
X10669372Y-24472388D02*
X10659848Y-24491436D01*
X10659848Y-24491436D02*
X10650325Y-24500960D01*
X10650325Y-24500960D02*
X10631277Y-24510484D01*
X10631277Y-24510484D02*
X10612229Y-24510484D01*
X10612229Y-24510484D02*
X10593182Y-24500960D01*
X10593182Y-24500960D02*
X10583658Y-24491436D01*
X10583658Y-24491436D02*
X10574134Y-24472388D01*
X10574134Y-24472388D02*
X10564610Y-24434293D01*
X10564610Y-24434293D02*
X10564610Y-24386674D01*
X10564610Y-24386674D02*
X10574134Y-24348579D01*
X10574134Y-24348579D02*
X10583658Y-24329531D01*
X10583658Y-24329531D02*
X10593182Y-24320008D01*
X10593182Y-24320008D02*
X10612229Y-24310484D01*
X10802706Y-24310484D02*
X10821753Y-24310484D01*
X10821753Y-24310484D02*
X10840801Y-24320008D01*
X10840801Y-24320008D02*
X10850325Y-24329531D01*
X10850325Y-24329531D02*
X10859848Y-24348579D01*
X10859848Y-24348579D02*
X10869372Y-24386674D01*
X10869372Y-24386674D02*
X10869372Y-24434293D01*
X10869372Y-24434293D02*
X10859848Y-24472388D01*
X10859848Y-24472388D02*
X10850325Y-24491436D01*
X10850325Y-24491436D02*
X10840801Y-24500960D01*
X10840801Y-24500960D02*
X10821753Y-24510484D01*
X10821753Y-24510484D02*
X10802706Y-24510484D01*
X10802706Y-24510484D02*
X10783658Y-24500960D01*
X10783658Y-24500960D02*
X10774134Y-24491436D01*
X10774134Y-24491436D02*
X10764610Y-24472388D01*
X10764610Y-24472388D02*
X10755087Y-24434293D01*
X10755087Y-24434293D02*
X10755087Y-24386674D01*
X10755087Y-24386674D02*
X10764610Y-24348579D01*
X10764610Y-24348579D02*
X10774134Y-24329531D01*
X10774134Y-24329531D02*
X10783658Y-24320008D01*
X10783658Y-24320008D02*
X10802706Y-24310484D01*
X10955087Y-24510484D02*
X10955087Y-24377150D01*
X10955087Y-24396198D02*
X10964610Y-24386674D01*
X10964610Y-24386674D02*
X10983658Y-24377150D01*
X10983658Y-24377150D02*
X11012229Y-24377150D01*
X11012229Y-24377150D02*
X11031277Y-24386674D01*
X11031277Y-24386674D02*
X11040801Y-24405722D01*
X11040801Y-24405722D02*
X11040801Y-24510484D01*
X11040801Y-24405722D02*
X11050325Y-24386674D01*
X11050325Y-24386674D02*
X11069372Y-24377150D01*
X11069372Y-24377150D02*
X11097944Y-24377150D01*
X11097944Y-24377150D02*
X11116991Y-24386674D01*
X11116991Y-24386674D02*
X11126515Y-24405722D01*
X11126515Y-24405722D02*
X11126515Y-24510484D01*
X11221753Y-24510484D02*
X11221753Y-24377150D01*
X11221753Y-24396198D02*
X11231277Y-24386674D01*
X11231277Y-24386674D02*
X11250325Y-24377150D01*
X11250325Y-24377150D02*
X11278896Y-24377150D01*
X11278896Y-24377150D02*
X11297944Y-24386674D01*
X11297944Y-24386674D02*
X11307467Y-24405722D01*
X11307467Y-24405722D02*
X11307467Y-24510484D01*
X11307467Y-24405722D02*
X11316991Y-24386674D01*
X11316991Y-24386674D02*
X11336039Y-24377150D01*
X11336039Y-24377150D02*
X11364610Y-24377150D01*
X11364610Y-24377150D02*
X11383658Y-24386674D01*
X11383658Y-24386674D02*
X11393182Y-24405722D01*
X11393182Y-24405722D02*
X11393182Y-24510484D01*
X11783658Y-24300960D02*
X11612229Y-24558103D01*
X12040801Y-24310484D02*
X12059849Y-24310484D01*
X12059849Y-24310484D02*
X12078896Y-24320008D01*
X12078896Y-24320008D02*
X12088420Y-24329531D01*
X12088420Y-24329531D02*
X12097944Y-24348579D01*
X12097944Y-24348579D02*
X12107468Y-24386674D01*
X12107468Y-24386674D02*
X12107468Y-24434293D01*
X12107468Y-24434293D02*
X12097944Y-24472388D01*
X12097944Y-24472388D02*
X12088420Y-24491436D01*
X12088420Y-24491436D02*
X12078896Y-24500960D01*
X12078896Y-24500960D02*
X12059849Y-24510484D01*
X12059849Y-24510484D02*
X12040801Y-24510484D01*
X12040801Y-24510484D02*
X12021753Y-24500960D01*
X12021753Y-24500960D02*
X12012229Y-24491436D01*
X12012229Y-24491436D02*
X12002706Y-24472388D01*
X12002706Y-24472388D02*
X11993182Y-24434293D01*
X11993182Y-24434293D02*
X11993182Y-24386674D01*
X11993182Y-24386674D02*
X12002706Y-24348579D01*
X12002706Y-24348579D02*
X12012229Y-24329531D01*
X12012229Y-24329531D02*
X12021753Y-24320008D01*
X12021753Y-24320008D02*
X12040801Y-24310484D01*
X12193182Y-24491436D02*
X12202706Y-24500960D01*
X12202706Y-24500960D02*
X12193182Y-24510484D01*
X12193182Y-24510484D02*
X12183658Y-24500960D01*
X12183658Y-24500960D02*
X12193182Y-24491436D01*
X12193182Y-24491436D02*
X12193182Y-24510484D01*
X12326515Y-24310484D02*
X12345563Y-24310484D01*
X12345563Y-24310484D02*
X12364610Y-24320008D01*
X12364610Y-24320008D02*
X12374134Y-24329531D01*
X12374134Y-24329531D02*
X12383658Y-24348579D01*
X12383658Y-24348579D02*
X12393182Y-24386674D01*
X12393182Y-24386674D02*
X12393182Y-24434293D01*
X12393182Y-24434293D02*
X12383658Y-24472388D01*
X12383658Y-24472388D02*
X12374134Y-24491436D01*
X12374134Y-24491436D02*
X12364610Y-24500960D01*
X12364610Y-24500960D02*
X12345563Y-24510484D01*
X12345563Y-24510484D02*
X12326515Y-24510484D01*
X12326515Y-24510484D02*
X12307468Y-24500960D01*
X12307468Y-24500960D02*
X12297944Y-24491436D01*
X12297944Y-24491436D02*
X12288420Y-24472388D01*
X12288420Y-24472388D02*
X12278896Y-24434293D01*
X12278896Y-24434293D02*
X12278896Y-24386674D01*
X12278896Y-24386674D02*
X12288420Y-24348579D01*
X12288420Y-24348579D02*
X12297944Y-24329531D01*
X12297944Y-24329531D02*
X12307468Y-24320008D01*
X12307468Y-24320008D02*
X12326515Y-24310484D01*
X12583658Y-24510484D02*
X12469372Y-24510484D01*
X12526515Y-24510484D02*
X12526515Y-24310484D01*
X12526515Y-24310484D02*
X12507468Y-24339055D01*
X12507468Y-24339055D02*
X12488420Y-24358103D01*
X12488420Y-24358103D02*
X12469372Y-24367627D01*
X12764610Y-24310484D02*
X12669372Y-24310484D01*
X12669372Y-24310484D02*
X12659849Y-24405722D01*
X12659849Y-24405722D02*
X12669372Y-24396198D01*
X12669372Y-24396198D02*
X12688420Y-24386674D01*
X12688420Y-24386674D02*
X12736039Y-24386674D01*
X12736039Y-24386674D02*
X12755087Y-24396198D01*
X12755087Y-24396198D02*
X12764610Y-24405722D01*
X12764610Y-24405722D02*
X12774134Y-24424769D01*
X12774134Y-24424769D02*
X12774134Y-24472388D01*
X12774134Y-24472388D02*
X12764610Y-24491436D01*
X12764610Y-24491436D02*
X12755087Y-24500960D01*
X12755087Y-24500960D02*
X12736039Y-24510484D01*
X12736039Y-24510484D02*
X12688420Y-24510484D01*
X12688420Y-24510484D02*
X12669372Y-24500960D01*
X12669372Y-24500960D02*
X12659849Y-24491436D01*
X12840801Y-24310484D02*
X12974134Y-24310484D01*
X12974134Y-24310484D02*
X12888420Y-24510484D01*
X13040801Y-24310484D02*
X13040801Y-24348579D01*
X13116991Y-24310484D02*
X13116991Y-24348579D01*
X13412230Y-24586674D02*
X13402706Y-24577150D01*
X13402706Y-24577150D02*
X13383658Y-24548579D01*
X13383658Y-24548579D02*
X13374134Y-24529531D01*
X13374134Y-24529531D02*
X13364611Y-24500960D01*
X13364611Y-24500960D02*
X13355087Y-24453341D01*
X13355087Y-24453341D02*
X13355087Y-24415246D01*
X13355087Y-24415246D02*
X13364611Y-24367627D01*
X13364611Y-24367627D02*
X13374134Y-24339055D01*
X13374134Y-24339055D02*
X13383658Y-24320008D01*
X13383658Y-24320008D02*
X13402706Y-24291436D01*
X13402706Y-24291436D02*
X13412230Y-24281912D01*
X13478896Y-24329531D02*
X13488420Y-24320008D01*
X13488420Y-24320008D02*
X13507468Y-24310484D01*
X13507468Y-24310484D02*
X13555087Y-24310484D01*
X13555087Y-24310484D02*
X13574134Y-24320008D01*
X13574134Y-24320008D02*
X13583658Y-24329531D01*
X13583658Y-24329531D02*
X13593182Y-24348579D01*
X13593182Y-24348579D02*
X13593182Y-24367627D01*
X13593182Y-24367627D02*
X13583658Y-24396198D01*
X13583658Y-24396198D02*
X13469372Y-24510484D01*
X13469372Y-24510484D02*
X13593182Y-24510484D01*
X13831277Y-24510484D02*
X13831277Y-24310484D01*
X13916992Y-24510484D02*
X13916992Y-24405722D01*
X13916992Y-24405722D02*
X13907468Y-24386674D01*
X13907468Y-24386674D02*
X13888420Y-24377150D01*
X13888420Y-24377150D02*
X13859849Y-24377150D01*
X13859849Y-24377150D02*
X13840801Y-24386674D01*
X13840801Y-24386674D02*
X13831277Y-24396198D01*
X14040801Y-24510484D02*
X14021753Y-24500960D01*
X14021753Y-24500960D02*
X14012230Y-24491436D01*
X14012230Y-24491436D02*
X14002706Y-24472388D01*
X14002706Y-24472388D02*
X14002706Y-24415246D01*
X14002706Y-24415246D02*
X14012230Y-24396198D01*
X14012230Y-24396198D02*
X14021753Y-24386674D01*
X14021753Y-24386674D02*
X14040801Y-24377150D01*
X14040801Y-24377150D02*
X14069373Y-24377150D01*
X14069373Y-24377150D02*
X14088420Y-24386674D01*
X14088420Y-24386674D02*
X14097944Y-24396198D01*
X14097944Y-24396198D02*
X14107468Y-24415246D01*
X14107468Y-24415246D02*
X14107468Y-24472388D01*
X14107468Y-24472388D02*
X14097944Y-24491436D01*
X14097944Y-24491436D02*
X14088420Y-24500960D01*
X14088420Y-24500960D02*
X14069373Y-24510484D01*
X14069373Y-24510484D02*
X14040801Y-24510484D01*
X14221753Y-24510484D02*
X14202706Y-24500960D01*
X14202706Y-24500960D02*
X14193182Y-24481912D01*
X14193182Y-24481912D02*
X14193182Y-24310484D01*
X14374134Y-24500960D02*
X14355087Y-24510484D01*
X14355087Y-24510484D02*
X14316992Y-24510484D01*
X14316992Y-24510484D02*
X14297944Y-24500960D01*
X14297944Y-24500960D02*
X14288420Y-24481912D01*
X14288420Y-24481912D02*
X14288420Y-24405722D01*
X14288420Y-24405722D02*
X14297944Y-24386674D01*
X14297944Y-24386674D02*
X14316992Y-24377150D01*
X14316992Y-24377150D02*
X14355087Y-24377150D01*
X14355087Y-24377150D02*
X14374134Y-24386674D01*
X14374134Y-24386674D02*
X14383658Y-24405722D01*
X14383658Y-24405722D02*
X14383658Y-24424769D01*
X14383658Y-24424769D02*
X14288420Y-24443817D01*
X14459849Y-24500960D02*
X14478896Y-24510484D01*
X14478896Y-24510484D02*
X14516992Y-24510484D01*
X14516992Y-24510484D02*
X14536039Y-24500960D01*
X14536039Y-24500960D02*
X14545563Y-24481912D01*
X14545563Y-24481912D02*
X14545563Y-24472388D01*
X14545563Y-24472388D02*
X14536039Y-24453341D01*
X14536039Y-24453341D02*
X14516992Y-24443817D01*
X14516992Y-24443817D02*
X14488420Y-24443817D01*
X14488420Y-24443817D02*
X14469373Y-24434293D01*
X14469373Y-24434293D02*
X14459849Y-24415246D01*
X14459849Y-24415246D02*
X14459849Y-24405722D01*
X14459849Y-24405722D02*
X14469373Y-24386674D01*
X14469373Y-24386674D02*
X14488420Y-24377150D01*
X14488420Y-24377150D02*
X14516992Y-24377150D01*
X14516992Y-24377150D02*
X14536039Y-24386674D01*
X14612230Y-24586674D02*
X14621754Y-24577150D01*
X14621754Y-24577150D02*
X14640801Y-24548579D01*
X14640801Y-24548579D02*
X14650325Y-24529531D01*
X14650325Y-24529531D02*
X14659849Y-24500960D01*
X14659849Y-24500960D02*
X14669373Y-24453341D01*
X14669373Y-24453341D02*
X14669373Y-24415246D01*
X14669373Y-24415246D02*
X14659849Y-24367627D01*
X14659849Y-24367627D02*
X14650325Y-24339055D01*
X14650325Y-24339055D02*
X14640801Y-24320008D01*
X14640801Y-24320008D02*
X14621754Y-24291436D01*
X14621754Y-24291436D02*
X14612230Y-24281912D01*
D11*
X9837167Y-24683000D02*
G75*
G03*
X9760967Y-24683000I-38100J0D01*
G01*
X9760967Y-24683000D02*
G75*
G03*
X9837167Y-24683000I38100J0D01*
G01*
D10*
X10136039Y-24574484D02*
X10155087Y-24574484D01*
X10155087Y-24574484D02*
X10174134Y-24584008D01*
X10174134Y-24584008D02*
X10183658Y-24593531D01*
X10183658Y-24593531D02*
X10193182Y-24612579D01*
X10193182Y-24612579D02*
X10202706Y-24650674D01*
X10202706Y-24650674D02*
X10202706Y-24698293D01*
X10202706Y-24698293D02*
X10193182Y-24736388D01*
X10193182Y-24736388D02*
X10183658Y-24755436D01*
X10183658Y-24755436D02*
X10174134Y-24764960D01*
X10174134Y-24764960D02*
X10155087Y-24774484D01*
X10155087Y-24774484D02*
X10136039Y-24774484D01*
X10136039Y-24774484D02*
X10116991Y-24764960D01*
X10116991Y-24764960D02*
X10107467Y-24755436D01*
X10107467Y-24755436D02*
X10097944Y-24736388D01*
X10097944Y-24736388D02*
X10088420Y-24698293D01*
X10088420Y-24698293D02*
X10088420Y-24650674D01*
X10088420Y-24650674D02*
X10097944Y-24612579D01*
X10097944Y-24612579D02*
X10107467Y-24593531D01*
X10107467Y-24593531D02*
X10116991Y-24584008D01*
X10116991Y-24584008D02*
X10136039Y-24574484D01*
X10288420Y-24755436D02*
X10297944Y-24764960D01*
X10297944Y-24764960D02*
X10288420Y-24774484D01*
X10288420Y-24774484D02*
X10278896Y-24764960D01*
X10278896Y-24764960D02*
X10288420Y-24755436D01*
X10288420Y-24755436D02*
X10288420Y-24774484D01*
X10364610Y-24574484D02*
X10497944Y-24574484D01*
X10497944Y-24574484D02*
X10412229Y-24774484D01*
X10659848Y-24574484D02*
X10621753Y-24574484D01*
X10621753Y-24574484D02*
X10602706Y-24584008D01*
X10602706Y-24584008D02*
X10593182Y-24593531D01*
X10593182Y-24593531D02*
X10574134Y-24622103D01*
X10574134Y-24622103D02*
X10564610Y-24660198D01*
X10564610Y-24660198D02*
X10564610Y-24736388D01*
X10564610Y-24736388D02*
X10574134Y-24755436D01*
X10574134Y-24755436D02*
X10583658Y-24764960D01*
X10583658Y-24764960D02*
X10602706Y-24774484D01*
X10602706Y-24774484D02*
X10640801Y-24774484D01*
X10640801Y-24774484D02*
X10659848Y-24764960D01*
X10659848Y-24764960D02*
X10669372Y-24755436D01*
X10669372Y-24755436D02*
X10678896Y-24736388D01*
X10678896Y-24736388D02*
X10678896Y-24688769D01*
X10678896Y-24688769D02*
X10669372Y-24669722D01*
X10669372Y-24669722D02*
X10659848Y-24660198D01*
X10659848Y-24660198D02*
X10640801Y-24650674D01*
X10640801Y-24650674D02*
X10602706Y-24650674D01*
X10602706Y-24650674D02*
X10583658Y-24660198D01*
X10583658Y-24660198D02*
X10574134Y-24669722D01*
X10574134Y-24669722D02*
X10564610Y-24688769D01*
X10755087Y-24593531D02*
X10764610Y-24584008D01*
X10764610Y-24584008D02*
X10783658Y-24574484D01*
X10783658Y-24574484D02*
X10831277Y-24574484D01*
X10831277Y-24574484D02*
X10850325Y-24584008D01*
X10850325Y-24584008D02*
X10859848Y-24593531D01*
X10859848Y-24593531D02*
X10869372Y-24612579D01*
X10869372Y-24612579D02*
X10869372Y-24631627D01*
X10869372Y-24631627D02*
X10859848Y-24660198D01*
X10859848Y-24660198D02*
X10745563Y-24774484D01*
X10745563Y-24774484D02*
X10869372Y-24774484D01*
X10955087Y-24774484D02*
X10955087Y-24641150D01*
X10955087Y-24660198D02*
X10964610Y-24650674D01*
X10964610Y-24650674D02*
X10983658Y-24641150D01*
X10983658Y-24641150D02*
X11012229Y-24641150D01*
X11012229Y-24641150D02*
X11031277Y-24650674D01*
X11031277Y-24650674D02*
X11040801Y-24669722D01*
X11040801Y-24669722D02*
X11040801Y-24774484D01*
X11040801Y-24669722D02*
X11050325Y-24650674D01*
X11050325Y-24650674D02*
X11069372Y-24641150D01*
X11069372Y-24641150D02*
X11097944Y-24641150D01*
X11097944Y-24641150D02*
X11116991Y-24650674D01*
X11116991Y-24650674D02*
X11126515Y-24669722D01*
X11126515Y-24669722D02*
X11126515Y-24774484D01*
X11221753Y-24774484D02*
X11221753Y-24641150D01*
X11221753Y-24660198D02*
X11231277Y-24650674D01*
X11231277Y-24650674D02*
X11250325Y-24641150D01*
X11250325Y-24641150D02*
X11278896Y-24641150D01*
X11278896Y-24641150D02*
X11297944Y-24650674D01*
X11297944Y-24650674D02*
X11307467Y-24669722D01*
X11307467Y-24669722D02*
X11307467Y-24774484D01*
X11307467Y-24669722D02*
X11316991Y-24650674D01*
X11316991Y-24650674D02*
X11336039Y-24641150D01*
X11336039Y-24641150D02*
X11364610Y-24641150D01*
X11364610Y-24641150D02*
X11383658Y-24650674D01*
X11383658Y-24650674D02*
X11393182Y-24669722D01*
X11393182Y-24669722D02*
X11393182Y-24774484D01*
X11783658Y-24564960D02*
X11612229Y-24822103D01*
X12040801Y-24574484D02*
X12059849Y-24574484D01*
X12059849Y-24574484D02*
X12078896Y-24584008D01*
X12078896Y-24584008D02*
X12088420Y-24593531D01*
X12088420Y-24593531D02*
X12097944Y-24612579D01*
X12097944Y-24612579D02*
X12107468Y-24650674D01*
X12107468Y-24650674D02*
X12107468Y-24698293D01*
X12107468Y-24698293D02*
X12097944Y-24736388D01*
X12097944Y-24736388D02*
X12088420Y-24755436D01*
X12088420Y-24755436D02*
X12078896Y-24764960D01*
X12078896Y-24764960D02*
X12059849Y-24774484D01*
X12059849Y-24774484D02*
X12040801Y-24774484D01*
X12040801Y-24774484D02*
X12021753Y-24764960D01*
X12021753Y-24764960D02*
X12012229Y-24755436D01*
X12012229Y-24755436D02*
X12002706Y-24736388D01*
X12002706Y-24736388D02*
X11993182Y-24698293D01*
X11993182Y-24698293D02*
X11993182Y-24650674D01*
X11993182Y-24650674D02*
X12002706Y-24612579D01*
X12002706Y-24612579D02*
X12012229Y-24593531D01*
X12012229Y-24593531D02*
X12021753Y-24584008D01*
X12021753Y-24584008D02*
X12040801Y-24574484D01*
X12193182Y-24755436D02*
X12202706Y-24764960D01*
X12202706Y-24764960D02*
X12193182Y-24774484D01*
X12193182Y-24774484D02*
X12183658Y-24764960D01*
X12183658Y-24764960D02*
X12193182Y-24755436D01*
X12193182Y-24755436D02*
X12193182Y-24774484D01*
X12326515Y-24574484D02*
X12345563Y-24574484D01*
X12345563Y-24574484D02*
X12364610Y-24584008D01*
X12364610Y-24584008D02*
X12374134Y-24593531D01*
X12374134Y-24593531D02*
X12383658Y-24612579D01*
X12383658Y-24612579D02*
X12393182Y-24650674D01*
X12393182Y-24650674D02*
X12393182Y-24698293D01*
X12393182Y-24698293D02*
X12383658Y-24736388D01*
X12383658Y-24736388D02*
X12374134Y-24755436D01*
X12374134Y-24755436D02*
X12364610Y-24764960D01*
X12364610Y-24764960D02*
X12345563Y-24774484D01*
X12345563Y-24774484D02*
X12326515Y-24774484D01*
X12326515Y-24774484D02*
X12307468Y-24764960D01*
X12307468Y-24764960D02*
X12297944Y-24755436D01*
X12297944Y-24755436D02*
X12288420Y-24736388D01*
X12288420Y-24736388D02*
X12278896Y-24698293D01*
X12278896Y-24698293D02*
X12278896Y-24650674D01*
X12278896Y-24650674D02*
X12288420Y-24612579D01*
X12288420Y-24612579D02*
X12297944Y-24593531D01*
X12297944Y-24593531D02*
X12307468Y-24584008D01*
X12307468Y-24584008D02*
X12326515Y-24574484D01*
X12459849Y-24574484D02*
X12583658Y-24574484D01*
X12583658Y-24574484D02*
X12516991Y-24650674D01*
X12516991Y-24650674D02*
X12545563Y-24650674D01*
X12545563Y-24650674D02*
X12564610Y-24660198D01*
X12564610Y-24660198D02*
X12574134Y-24669722D01*
X12574134Y-24669722D02*
X12583658Y-24688769D01*
X12583658Y-24688769D02*
X12583658Y-24736388D01*
X12583658Y-24736388D02*
X12574134Y-24755436D01*
X12574134Y-24755436D02*
X12564610Y-24764960D01*
X12564610Y-24764960D02*
X12545563Y-24774484D01*
X12545563Y-24774484D02*
X12488420Y-24774484D01*
X12488420Y-24774484D02*
X12469372Y-24764960D01*
X12469372Y-24764960D02*
X12459849Y-24755436D01*
X12707468Y-24574484D02*
X12726515Y-24574484D01*
X12726515Y-24574484D02*
X12745563Y-24584008D01*
X12745563Y-24584008D02*
X12755087Y-24593531D01*
X12755087Y-24593531D02*
X12764610Y-24612579D01*
X12764610Y-24612579D02*
X12774134Y-24650674D01*
X12774134Y-24650674D02*
X12774134Y-24698293D01*
X12774134Y-24698293D02*
X12764610Y-24736388D01*
X12764610Y-24736388D02*
X12755087Y-24755436D01*
X12755087Y-24755436D02*
X12745563Y-24764960D01*
X12745563Y-24764960D02*
X12726515Y-24774484D01*
X12726515Y-24774484D02*
X12707468Y-24774484D01*
X12707468Y-24774484D02*
X12688420Y-24764960D01*
X12688420Y-24764960D02*
X12678896Y-24755436D01*
X12678896Y-24755436D02*
X12669372Y-24736388D01*
X12669372Y-24736388D02*
X12659849Y-24698293D01*
X12659849Y-24698293D02*
X12659849Y-24650674D01*
X12659849Y-24650674D02*
X12669372Y-24612579D01*
X12669372Y-24612579D02*
X12678896Y-24593531D01*
X12678896Y-24593531D02*
X12688420Y-24584008D01*
X12688420Y-24584008D02*
X12707468Y-24574484D01*
X12897944Y-24574484D02*
X12916991Y-24574484D01*
X12916991Y-24574484D02*
X12936039Y-24584008D01*
X12936039Y-24584008D02*
X12945563Y-24593531D01*
X12945563Y-24593531D02*
X12955087Y-24612579D01*
X12955087Y-24612579D02*
X12964610Y-24650674D01*
X12964610Y-24650674D02*
X12964610Y-24698293D01*
X12964610Y-24698293D02*
X12955087Y-24736388D01*
X12955087Y-24736388D02*
X12945563Y-24755436D01*
X12945563Y-24755436D02*
X12936039Y-24764960D01*
X12936039Y-24764960D02*
X12916991Y-24774484D01*
X12916991Y-24774484D02*
X12897944Y-24774484D01*
X12897944Y-24774484D02*
X12878896Y-24764960D01*
X12878896Y-24764960D02*
X12869372Y-24755436D01*
X12869372Y-24755436D02*
X12859849Y-24736388D01*
X12859849Y-24736388D02*
X12850325Y-24698293D01*
X12850325Y-24698293D02*
X12850325Y-24650674D01*
X12850325Y-24650674D02*
X12859849Y-24612579D01*
X12859849Y-24612579D02*
X12869372Y-24593531D01*
X12869372Y-24593531D02*
X12878896Y-24584008D01*
X12878896Y-24584008D02*
X12897944Y-24574484D01*
X13040801Y-24574484D02*
X13040801Y-24612579D01*
X13116991Y-24574484D02*
X13116991Y-24612579D01*
X13412230Y-24850674D02*
X13402706Y-24841150D01*
X13402706Y-24841150D02*
X13383658Y-24812579D01*
X13383658Y-24812579D02*
X13374134Y-24793531D01*
X13374134Y-24793531D02*
X13364611Y-24764960D01*
X13364611Y-24764960D02*
X13355087Y-24717341D01*
X13355087Y-24717341D02*
X13355087Y-24679246D01*
X13355087Y-24679246D02*
X13364611Y-24631627D01*
X13364611Y-24631627D02*
X13374134Y-24603055D01*
X13374134Y-24603055D02*
X13383658Y-24584008D01*
X13383658Y-24584008D02*
X13402706Y-24555436D01*
X13402706Y-24555436D02*
X13412230Y-24545912D01*
X13478896Y-24593531D02*
X13488420Y-24584008D01*
X13488420Y-24584008D02*
X13507468Y-24574484D01*
X13507468Y-24574484D02*
X13555087Y-24574484D01*
X13555087Y-24574484D02*
X13574134Y-24584008D01*
X13574134Y-24584008D02*
X13583658Y-24593531D01*
X13583658Y-24593531D02*
X13593182Y-24612579D01*
X13593182Y-24612579D02*
X13593182Y-24631627D01*
X13593182Y-24631627D02*
X13583658Y-24660198D01*
X13583658Y-24660198D02*
X13469372Y-24774484D01*
X13469372Y-24774484D02*
X13593182Y-24774484D01*
X13707468Y-24660198D02*
X13688420Y-24650674D01*
X13688420Y-24650674D02*
X13678896Y-24641150D01*
X13678896Y-24641150D02*
X13669372Y-24622103D01*
X13669372Y-24622103D02*
X13669372Y-24612579D01*
X13669372Y-24612579D02*
X13678896Y-24593531D01*
X13678896Y-24593531D02*
X13688420Y-24584008D01*
X13688420Y-24584008D02*
X13707468Y-24574484D01*
X13707468Y-24574484D02*
X13745563Y-24574484D01*
X13745563Y-24574484D02*
X13764611Y-24584008D01*
X13764611Y-24584008D02*
X13774134Y-24593531D01*
X13774134Y-24593531D02*
X13783658Y-24612579D01*
X13783658Y-24612579D02*
X13783658Y-24622103D01*
X13783658Y-24622103D02*
X13774134Y-24641150D01*
X13774134Y-24641150D02*
X13764611Y-24650674D01*
X13764611Y-24650674D02*
X13745563Y-24660198D01*
X13745563Y-24660198D02*
X13707468Y-24660198D01*
X13707468Y-24660198D02*
X13688420Y-24669722D01*
X13688420Y-24669722D02*
X13678896Y-24679246D01*
X13678896Y-24679246D02*
X13669372Y-24698293D01*
X13669372Y-24698293D02*
X13669372Y-24736388D01*
X13669372Y-24736388D02*
X13678896Y-24755436D01*
X13678896Y-24755436D02*
X13688420Y-24764960D01*
X13688420Y-24764960D02*
X13707468Y-24774484D01*
X13707468Y-24774484D02*
X13745563Y-24774484D01*
X13745563Y-24774484D02*
X13764611Y-24764960D01*
X13764611Y-24764960D02*
X13774134Y-24755436D01*
X13774134Y-24755436D02*
X13783658Y-24736388D01*
X13783658Y-24736388D02*
X13783658Y-24698293D01*
X13783658Y-24698293D02*
X13774134Y-24679246D01*
X13774134Y-24679246D02*
X13764611Y-24669722D01*
X13764611Y-24669722D02*
X13745563Y-24660198D01*
X14021753Y-24774484D02*
X14021753Y-24574484D01*
X14107468Y-24774484D02*
X14107468Y-24669722D01*
X14107468Y-24669722D02*
X14097944Y-24650674D01*
X14097944Y-24650674D02*
X14078896Y-24641150D01*
X14078896Y-24641150D02*
X14050325Y-24641150D01*
X14050325Y-24641150D02*
X14031277Y-24650674D01*
X14031277Y-24650674D02*
X14021753Y-24660198D01*
X14231277Y-24774484D02*
X14212230Y-24764960D01*
X14212230Y-24764960D02*
X14202706Y-24755436D01*
X14202706Y-24755436D02*
X14193182Y-24736388D01*
X14193182Y-24736388D02*
X14193182Y-24679246D01*
X14193182Y-24679246D02*
X14202706Y-24660198D01*
X14202706Y-24660198D02*
X14212230Y-24650674D01*
X14212230Y-24650674D02*
X14231277Y-24641150D01*
X14231277Y-24641150D02*
X14259849Y-24641150D01*
X14259849Y-24641150D02*
X14278896Y-24650674D01*
X14278896Y-24650674D02*
X14288420Y-24660198D01*
X14288420Y-24660198D02*
X14297944Y-24679246D01*
X14297944Y-24679246D02*
X14297944Y-24736388D01*
X14297944Y-24736388D02*
X14288420Y-24755436D01*
X14288420Y-24755436D02*
X14278896Y-24764960D01*
X14278896Y-24764960D02*
X14259849Y-24774484D01*
X14259849Y-24774484D02*
X14231277Y-24774484D01*
X14412230Y-24774484D02*
X14393182Y-24764960D01*
X14393182Y-24764960D02*
X14383658Y-24745912D01*
X14383658Y-24745912D02*
X14383658Y-24574484D01*
X14564611Y-24764960D02*
X14545563Y-24774484D01*
X14545563Y-24774484D02*
X14507468Y-24774484D01*
X14507468Y-24774484D02*
X14488420Y-24764960D01*
X14488420Y-24764960D02*
X14478896Y-24745912D01*
X14478896Y-24745912D02*
X14478896Y-24669722D01*
X14478896Y-24669722D02*
X14488420Y-24650674D01*
X14488420Y-24650674D02*
X14507468Y-24641150D01*
X14507468Y-24641150D02*
X14545563Y-24641150D01*
X14545563Y-24641150D02*
X14564611Y-24650674D01*
X14564611Y-24650674D02*
X14574134Y-24669722D01*
X14574134Y-24669722D02*
X14574134Y-24688769D01*
X14574134Y-24688769D02*
X14478896Y-24707817D01*
X14650325Y-24764960D02*
X14669373Y-24774484D01*
X14669373Y-24774484D02*
X14707468Y-24774484D01*
X14707468Y-24774484D02*
X14726515Y-24764960D01*
X14726515Y-24764960D02*
X14736039Y-24745912D01*
X14736039Y-24745912D02*
X14736039Y-24736388D01*
X14736039Y-24736388D02*
X14726515Y-24717341D01*
X14726515Y-24717341D02*
X14707468Y-24707817D01*
X14707468Y-24707817D02*
X14678896Y-24707817D01*
X14678896Y-24707817D02*
X14659849Y-24698293D01*
X14659849Y-24698293D02*
X14650325Y-24679246D01*
X14650325Y-24679246D02*
X14650325Y-24669722D01*
X14650325Y-24669722D02*
X14659849Y-24650674D01*
X14659849Y-24650674D02*
X14678896Y-24641150D01*
X14678896Y-24641150D02*
X14707468Y-24641150D01*
X14707468Y-24641150D02*
X14726515Y-24650674D01*
X14802706Y-24850674D02*
X14812230Y-24841150D01*
X14812230Y-24841150D02*
X14831277Y-24812579D01*
X14831277Y-24812579D02*
X14840801Y-24793531D01*
X14840801Y-24793531D02*
X14850325Y-24764960D01*
X14850325Y-24764960D02*
X14859849Y-24717341D01*
X14859849Y-24717341D02*
X14859849Y-24679246D01*
X14859849Y-24679246D02*
X14850325Y-24631627D01*
X14850325Y-24631627D02*
X14840801Y-24603055D01*
X14840801Y-24603055D02*
X14831277Y-24584008D01*
X14831277Y-24584008D02*
X14812230Y-24555436D01*
X14812230Y-24555436D02*
X14802706Y-24545912D01*
D11*
X9787167Y-24897000D02*
X9787167Y-24997000D01*
X9737167Y-24947000D02*
X9837167Y-24947000D01*
D10*
X10202706Y-25038484D02*
X10088420Y-25038484D01*
X10145563Y-25038484D02*
X10145563Y-24838484D01*
X10145563Y-24838484D02*
X10126515Y-24867055D01*
X10126515Y-24867055D02*
X10107467Y-24886103D01*
X10107467Y-24886103D02*
X10088420Y-24895627D01*
X10288420Y-25019436D02*
X10297944Y-25028960D01*
X10297944Y-25028960D02*
X10288420Y-25038484D01*
X10288420Y-25038484D02*
X10278896Y-25028960D01*
X10278896Y-25028960D02*
X10288420Y-25019436D01*
X10288420Y-25019436D02*
X10288420Y-25038484D01*
X10421753Y-24838484D02*
X10440801Y-24838484D01*
X10440801Y-24838484D02*
X10459848Y-24848008D01*
X10459848Y-24848008D02*
X10469372Y-24857531D01*
X10469372Y-24857531D02*
X10478896Y-24876579D01*
X10478896Y-24876579D02*
X10488420Y-24914674D01*
X10488420Y-24914674D02*
X10488420Y-24962293D01*
X10488420Y-24962293D02*
X10478896Y-25000388D01*
X10478896Y-25000388D02*
X10469372Y-25019436D01*
X10469372Y-25019436D02*
X10459848Y-25028960D01*
X10459848Y-25028960D02*
X10440801Y-25038484D01*
X10440801Y-25038484D02*
X10421753Y-25038484D01*
X10421753Y-25038484D02*
X10402706Y-25028960D01*
X10402706Y-25028960D02*
X10393182Y-25019436D01*
X10393182Y-25019436D02*
X10383658Y-25000388D01*
X10383658Y-25000388D02*
X10374134Y-24962293D01*
X10374134Y-24962293D02*
X10374134Y-24914674D01*
X10374134Y-24914674D02*
X10383658Y-24876579D01*
X10383658Y-24876579D02*
X10393182Y-24857531D01*
X10393182Y-24857531D02*
X10402706Y-24848008D01*
X10402706Y-24848008D02*
X10421753Y-24838484D01*
X10612229Y-24838484D02*
X10631277Y-24838484D01*
X10631277Y-24838484D02*
X10650325Y-24848008D01*
X10650325Y-24848008D02*
X10659848Y-24857531D01*
X10659848Y-24857531D02*
X10669372Y-24876579D01*
X10669372Y-24876579D02*
X10678896Y-24914674D01*
X10678896Y-24914674D02*
X10678896Y-24962293D01*
X10678896Y-24962293D02*
X10669372Y-25000388D01*
X10669372Y-25000388D02*
X10659848Y-25019436D01*
X10659848Y-25019436D02*
X10650325Y-25028960D01*
X10650325Y-25028960D02*
X10631277Y-25038484D01*
X10631277Y-25038484D02*
X10612229Y-25038484D01*
X10612229Y-25038484D02*
X10593182Y-25028960D01*
X10593182Y-25028960D02*
X10583658Y-25019436D01*
X10583658Y-25019436D02*
X10574134Y-25000388D01*
X10574134Y-25000388D02*
X10564610Y-24962293D01*
X10564610Y-24962293D02*
X10564610Y-24914674D01*
X10564610Y-24914674D02*
X10574134Y-24876579D01*
X10574134Y-24876579D02*
X10583658Y-24857531D01*
X10583658Y-24857531D02*
X10593182Y-24848008D01*
X10593182Y-24848008D02*
X10612229Y-24838484D01*
X10802706Y-24838484D02*
X10821753Y-24838484D01*
X10821753Y-24838484D02*
X10840801Y-24848008D01*
X10840801Y-24848008D02*
X10850325Y-24857531D01*
X10850325Y-24857531D02*
X10859848Y-24876579D01*
X10859848Y-24876579D02*
X10869372Y-24914674D01*
X10869372Y-24914674D02*
X10869372Y-24962293D01*
X10869372Y-24962293D02*
X10859848Y-25000388D01*
X10859848Y-25000388D02*
X10850325Y-25019436D01*
X10850325Y-25019436D02*
X10840801Y-25028960D01*
X10840801Y-25028960D02*
X10821753Y-25038484D01*
X10821753Y-25038484D02*
X10802706Y-25038484D01*
X10802706Y-25038484D02*
X10783658Y-25028960D01*
X10783658Y-25028960D02*
X10774134Y-25019436D01*
X10774134Y-25019436D02*
X10764610Y-25000388D01*
X10764610Y-25000388D02*
X10755087Y-24962293D01*
X10755087Y-24962293D02*
X10755087Y-24914674D01*
X10755087Y-24914674D02*
X10764610Y-24876579D01*
X10764610Y-24876579D02*
X10774134Y-24857531D01*
X10774134Y-24857531D02*
X10783658Y-24848008D01*
X10783658Y-24848008D02*
X10802706Y-24838484D01*
X10955087Y-25038484D02*
X10955087Y-24905150D01*
X10955087Y-24924198D02*
X10964610Y-24914674D01*
X10964610Y-24914674D02*
X10983658Y-24905150D01*
X10983658Y-24905150D02*
X11012229Y-24905150D01*
X11012229Y-24905150D02*
X11031277Y-24914674D01*
X11031277Y-24914674D02*
X11040801Y-24933722D01*
X11040801Y-24933722D02*
X11040801Y-25038484D01*
X11040801Y-24933722D02*
X11050325Y-24914674D01*
X11050325Y-24914674D02*
X11069372Y-24905150D01*
X11069372Y-24905150D02*
X11097944Y-24905150D01*
X11097944Y-24905150D02*
X11116991Y-24914674D01*
X11116991Y-24914674D02*
X11126515Y-24933722D01*
X11126515Y-24933722D02*
X11126515Y-25038484D01*
X11221753Y-25038484D02*
X11221753Y-24905150D01*
X11221753Y-24924198D02*
X11231277Y-24914674D01*
X11231277Y-24914674D02*
X11250325Y-24905150D01*
X11250325Y-24905150D02*
X11278896Y-24905150D01*
X11278896Y-24905150D02*
X11297944Y-24914674D01*
X11297944Y-24914674D02*
X11307467Y-24933722D01*
X11307467Y-24933722D02*
X11307467Y-25038484D01*
X11307467Y-24933722D02*
X11316991Y-24914674D01*
X11316991Y-24914674D02*
X11336039Y-24905150D01*
X11336039Y-24905150D02*
X11364610Y-24905150D01*
X11364610Y-24905150D02*
X11383658Y-24914674D01*
X11383658Y-24914674D02*
X11393182Y-24933722D01*
X11393182Y-24933722D02*
X11393182Y-25038484D01*
X11783658Y-24828960D02*
X11612229Y-25086103D01*
X12040801Y-24838484D02*
X12059849Y-24838484D01*
X12059849Y-24838484D02*
X12078896Y-24848008D01*
X12078896Y-24848008D02*
X12088420Y-24857531D01*
X12088420Y-24857531D02*
X12097944Y-24876579D01*
X12097944Y-24876579D02*
X12107468Y-24914674D01*
X12107468Y-24914674D02*
X12107468Y-24962293D01*
X12107468Y-24962293D02*
X12097944Y-25000388D01*
X12097944Y-25000388D02*
X12088420Y-25019436D01*
X12088420Y-25019436D02*
X12078896Y-25028960D01*
X12078896Y-25028960D02*
X12059849Y-25038484D01*
X12059849Y-25038484D02*
X12040801Y-25038484D01*
X12040801Y-25038484D02*
X12021753Y-25028960D01*
X12021753Y-25028960D02*
X12012229Y-25019436D01*
X12012229Y-25019436D02*
X12002706Y-25000388D01*
X12002706Y-25000388D02*
X11993182Y-24962293D01*
X11993182Y-24962293D02*
X11993182Y-24914674D01*
X11993182Y-24914674D02*
X12002706Y-24876579D01*
X12002706Y-24876579D02*
X12012229Y-24857531D01*
X12012229Y-24857531D02*
X12021753Y-24848008D01*
X12021753Y-24848008D02*
X12040801Y-24838484D01*
X12193182Y-25019436D02*
X12202706Y-25028960D01*
X12202706Y-25028960D02*
X12193182Y-25038484D01*
X12193182Y-25038484D02*
X12183658Y-25028960D01*
X12183658Y-25028960D02*
X12193182Y-25019436D01*
X12193182Y-25019436D02*
X12193182Y-25038484D01*
X12326515Y-24838484D02*
X12345563Y-24838484D01*
X12345563Y-24838484D02*
X12364610Y-24848008D01*
X12364610Y-24848008D02*
X12374134Y-24857531D01*
X12374134Y-24857531D02*
X12383658Y-24876579D01*
X12383658Y-24876579D02*
X12393182Y-24914674D01*
X12393182Y-24914674D02*
X12393182Y-24962293D01*
X12393182Y-24962293D02*
X12383658Y-25000388D01*
X12383658Y-25000388D02*
X12374134Y-25019436D01*
X12374134Y-25019436D02*
X12364610Y-25028960D01*
X12364610Y-25028960D02*
X12345563Y-25038484D01*
X12345563Y-25038484D02*
X12326515Y-25038484D01*
X12326515Y-25038484D02*
X12307468Y-25028960D01*
X12307468Y-25028960D02*
X12297944Y-25019436D01*
X12297944Y-25019436D02*
X12288420Y-25000388D01*
X12288420Y-25000388D02*
X12278896Y-24962293D01*
X12278896Y-24962293D02*
X12278896Y-24914674D01*
X12278896Y-24914674D02*
X12288420Y-24876579D01*
X12288420Y-24876579D02*
X12297944Y-24857531D01*
X12297944Y-24857531D02*
X12307468Y-24848008D01*
X12307468Y-24848008D02*
X12326515Y-24838484D01*
X12459849Y-24838484D02*
X12583658Y-24838484D01*
X12583658Y-24838484D02*
X12516991Y-24914674D01*
X12516991Y-24914674D02*
X12545563Y-24914674D01*
X12545563Y-24914674D02*
X12564610Y-24924198D01*
X12564610Y-24924198D02*
X12574134Y-24933722D01*
X12574134Y-24933722D02*
X12583658Y-24952769D01*
X12583658Y-24952769D02*
X12583658Y-25000388D01*
X12583658Y-25000388D02*
X12574134Y-25019436D01*
X12574134Y-25019436D02*
X12564610Y-25028960D01*
X12564610Y-25028960D02*
X12545563Y-25038484D01*
X12545563Y-25038484D02*
X12488420Y-25038484D01*
X12488420Y-25038484D02*
X12469372Y-25028960D01*
X12469372Y-25028960D02*
X12459849Y-25019436D01*
X12678896Y-25038484D02*
X12716991Y-25038484D01*
X12716991Y-25038484D02*
X12736039Y-25028960D01*
X12736039Y-25028960D02*
X12745563Y-25019436D01*
X12745563Y-25019436D02*
X12764610Y-24990865D01*
X12764610Y-24990865D02*
X12774134Y-24952769D01*
X12774134Y-24952769D02*
X12774134Y-24876579D01*
X12774134Y-24876579D02*
X12764610Y-24857531D01*
X12764610Y-24857531D02*
X12755087Y-24848008D01*
X12755087Y-24848008D02*
X12736039Y-24838484D01*
X12736039Y-24838484D02*
X12697944Y-24838484D01*
X12697944Y-24838484D02*
X12678896Y-24848008D01*
X12678896Y-24848008D02*
X12669372Y-24857531D01*
X12669372Y-24857531D02*
X12659849Y-24876579D01*
X12659849Y-24876579D02*
X12659849Y-24924198D01*
X12659849Y-24924198D02*
X12669372Y-24943246D01*
X12669372Y-24943246D02*
X12678896Y-24952769D01*
X12678896Y-24952769D02*
X12697944Y-24962293D01*
X12697944Y-24962293D02*
X12736039Y-24962293D01*
X12736039Y-24962293D02*
X12755087Y-24952769D01*
X12755087Y-24952769D02*
X12764610Y-24943246D01*
X12764610Y-24943246D02*
X12774134Y-24924198D01*
X12945563Y-24905150D02*
X12945563Y-25038484D01*
X12897944Y-24828960D02*
X12850325Y-24971817D01*
X12850325Y-24971817D02*
X12974134Y-24971817D01*
X13040801Y-24838484D02*
X13040801Y-24876579D01*
X13116991Y-24838484D02*
X13116991Y-24876579D01*
X13412230Y-25114674D02*
X13402706Y-25105150D01*
X13402706Y-25105150D02*
X13383658Y-25076579D01*
X13383658Y-25076579D02*
X13374134Y-25057531D01*
X13374134Y-25057531D02*
X13364611Y-25028960D01*
X13364611Y-25028960D02*
X13355087Y-24981341D01*
X13355087Y-24981341D02*
X13355087Y-24943246D01*
X13355087Y-24943246D02*
X13364611Y-24895627D01*
X13364611Y-24895627D02*
X13374134Y-24867055D01*
X13374134Y-24867055D02*
X13383658Y-24848008D01*
X13383658Y-24848008D02*
X13402706Y-24819436D01*
X13402706Y-24819436D02*
X13412230Y-24809912D01*
X13469372Y-24838484D02*
X13593182Y-24838484D01*
X13593182Y-24838484D02*
X13526515Y-24914674D01*
X13526515Y-24914674D02*
X13555087Y-24914674D01*
X13555087Y-24914674D02*
X13574134Y-24924198D01*
X13574134Y-24924198D02*
X13583658Y-24933722D01*
X13583658Y-24933722D02*
X13593182Y-24952769D01*
X13593182Y-24952769D02*
X13593182Y-25000388D01*
X13593182Y-25000388D02*
X13583658Y-25019436D01*
X13583658Y-25019436D02*
X13574134Y-25028960D01*
X13574134Y-25028960D02*
X13555087Y-25038484D01*
X13555087Y-25038484D02*
X13497944Y-25038484D01*
X13497944Y-25038484D02*
X13478896Y-25028960D01*
X13478896Y-25028960D02*
X13469372Y-25019436D01*
X13764611Y-24838484D02*
X13726515Y-24838484D01*
X13726515Y-24838484D02*
X13707468Y-24848008D01*
X13707468Y-24848008D02*
X13697944Y-24857531D01*
X13697944Y-24857531D02*
X13678896Y-24886103D01*
X13678896Y-24886103D02*
X13669372Y-24924198D01*
X13669372Y-24924198D02*
X13669372Y-25000388D01*
X13669372Y-25000388D02*
X13678896Y-25019436D01*
X13678896Y-25019436D02*
X13688420Y-25028960D01*
X13688420Y-25028960D02*
X13707468Y-25038484D01*
X13707468Y-25038484D02*
X13745563Y-25038484D01*
X13745563Y-25038484D02*
X13764611Y-25028960D01*
X13764611Y-25028960D02*
X13774134Y-25019436D01*
X13774134Y-25019436D02*
X13783658Y-25000388D01*
X13783658Y-25000388D02*
X13783658Y-24952769D01*
X13783658Y-24952769D02*
X13774134Y-24933722D01*
X13774134Y-24933722D02*
X13764611Y-24924198D01*
X13764611Y-24924198D02*
X13745563Y-24914674D01*
X13745563Y-24914674D02*
X13707468Y-24914674D01*
X13707468Y-24914674D02*
X13688420Y-24924198D01*
X13688420Y-24924198D02*
X13678896Y-24933722D01*
X13678896Y-24933722D02*
X13669372Y-24952769D01*
X14021753Y-25038484D02*
X14021753Y-24838484D01*
X14107468Y-25038484D02*
X14107468Y-24933722D01*
X14107468Y-24933722D02*
X14097944Y-24914674D01*
X14097944Y-24914674D02*
X14078896Y-24905150D01*
X14078896Y-24905150D02*
X14050325Y-24905150D01*
X14050325Y-24905150D02*
X14031277Y-24914674D01*
X14031277Y-24914674D02*
X14021753Y-24924198D01*
X14231277Y-25038484D02*
X14212230Y-25028960D01*
X14212230Y-25028960D02*
X14202706Y-25019436D01*
X14202706Y-25019436D02*
X14193182Y-25000388D01*
X14193182Y-25000388D02*
X14193182Y-24943246D01*
X14193182Y-24943246D02*
X14202706Y-24924198D01*
X14202706Y-24924198D02*
X14212230Y-24914674D01*
X14212230Y-24914674D02*
X14231277Y-24905150D01*
X14231277Y-24905150D02*
X14259849Y-24905150D01*
X14259849Y-24905150D02*
X14278896Y-24914674D01*
X14278896Y-24914674D02*
X14288420Y-24924198D01*
X14288420Y-24924198D02*
X14297944Y-24943246D01*
X14297944Y-24943246D02*
X14297944Y-25000388D01*
X14297944Y-25000388D02*
X14288420Y-25019436D01*
X14288420Y-25019436D02*
X14278896Y-25028960D01*
X14278896Y-25028960D02*
X14259849Y-25038484D01*
X14259849Y-25038484D02*
X14231277Y-25038484D01*
X14412230Y-25038484D02*
X14393182Y-25028960D01*
X14393182Y-25028960D02*
X14383658Y-25009912D01*
X14383658Y-25009912D02*
X14383658Y-24838484D01*
X14564611Y-25028960D02*
X14545563Y-25038484D01*
X14545563Y-25038484D02*
X14507468Y-25038484D01*
X14507468Y-25038484D02*
X14488420Y-25028960D01*
X14488420Y-25028960D02*
X14478896Y-25009912D01*
X14478896Y-25009912D02*
X14478896Y-24933722D01*
X14478896Y-24933722D02*
X14488420Y-24914674D01*
X14488420Y-24914674D02*
X14507468Y-24905150D01*
X14507468Y-24905150D02*
X14545563Y-24905150D01*
X14545563Y-24905150D02*
X14564611Y-24914674D01*
X14564611Y-24914674D02*
X14574134Y-24933722D01*
X14574134Y-24933722D02*
X14574134Y-24952769D01*
X14574134Y-24952769D02*
X14478896Y-24971817D01*
X14650325Y-25028960D02*
X14669373Y-25038484D01*
X14669373Y-25038484D02*
X14707468Y-25038484D01*
X14707468Y-25038484D02*
X14726515Y-25028960D01*
X14726515Y-25028960D02*
X14736039Y-25009912D01*
X14736039Y-25009912D02*
X14736039Y-25000388D01*
X14736039Y-25000388D02*
X14726515Y-24981341D01*
X14726515Y-24981341D02*
X14707468Y-24971817D01*
X14707468Y-24971817D02*
X14678896Y-24971817D01*
X14678896Y-24971817D02*
X14659849Y-24962293D01*
X14659849Y-24962293D02*
X14650325Y-24943246D01*
X14650325Y-24943246D02*
X14650325Y-24933722D01*
X14650325Y-24933722D02*
X14659849Y-24914674D01*
X14659849Y-24914674D02*
X14678896Y-24905150D01*
X14678896Y-24905150D02*
X14707468Y-24905150D01*
X14707468Y-24905150D02*
X14726515Y-24914674D01*
X14802706Y-25114674D02*
X14812230Y-25105150D01*
X14812230Y-25105150D02*
X14831277Y-25076579D01*
X14831277Y-25076579D02*
X14840801Y-25057531D01*
X14840801Y-25057531D02*
X14850325Y-25028960D01*
X14850325Y-25028960D02*
X14859849Y-24981341D01*
X14859849Y-24981341D02*
X14859849Y-24943246D01*
X14859849Y-24943246D02*
X14850325Y-24895627D01*
X14850325Y-24895627D02*
X14840801Y-24867055D01*
X14840801Y-24867055D02*
X14831277Y-24848008D01*
X14831277Y-24848008D02*
X14812230Y-24819436D01*
X14812230Y-24819436D02*
X14802706Y-24809912D01*
D12*
X9813736Y-25267569D02*
X9813736Y-25154431D01*
X9700598Y-25154431D01*
X9700598Y-25267569D01*
X9813736Y-25267569D01*
D10*
X10202706Y-25302484D02*
X10088420Y-25302484D01*
X10145563Y-25302484D02*
X10145563Y-25102484D01*
X10145563Y-25102484D02*
X10126515Y-25131055D01*
X10126515Y-25131055D02*
X10107467Y-25150103D01*
X10107467Y-25150103D02*
X10088420Y-25159627D01*
X10288420Y-25283436D02*
X10297944Y-25292960D01*
X10297944Y-25292960D02*
X10288420Y-25302484D01*
X10288420Y-25302484D02*
X10278896Y-25292960D01*
X10278896Y-25292960D02*
X10288420Y-25283436D01*
X10288420Y-25283436D02*
X10288420Y-25302484D01*
X10469372Y-25102484D02*
X10431277Y-25102484D01*
X10431277Y-25102484D02*
X10412229Y-25112008D01*
X10412229Y-25112008D02*
X10402706Y-25121531D01*
X10402706Y-25121531D02*
X10383658Y-25150103D01*
X10383658Y-25150103D02*
X10374134Y-25188198D01*
X10374134Y-25188198D02*
X10374134Y-25264388D01*
X10374134Y-25264388D02*
X10383658Y-25283436D01*
X10383658Y-25283436D02*
X10393182Y-25292960D01*
X10393182Y-25292960D02*
X10412229Y-25302484D01*
X10412229Y-25302484D02*
X10450325Y-25302484D01*
X10450325Y-25302484D02*
X10469372Y-25292960D01*
X10469372Y-25292960D02*
X10478896Y-25283436D01*
X10478896Y-25283436D02*
X10488420Y-25264388D01*
X10488420Y-25264388D02*
X10488420Y-25216769D01*
X10488420Y-25216769D02*
X10478896Y-25197722D01*
X10478896Y-25197722D02*
X10469372Y-25188198D01*
X10469372Y-25188198D02*
X10450325Y-25178674D01*
X10450325Y-25178674D02*
X10412229Y-25178674D01*
X10412229Y-25178674D02*
X10393182Y-25188198D01*
X10393182Y-25188198D02*
X10383658Y-25197722D01*
X10383658Y-25197722D02*
X10374134Y-25216769D01*
X10612229Y-25102484D02*
X10631277Y-25102484D01*
X10631277Y-25102484D02*
X10650325Y-25112008D01*
X10650325Y-25112008D02*
X10659848Y-25121531D01*
X10659848Y-25121531D02*
X10669372Y-25140579D01*
X10669372Y-25140579D02*
X10678896Y-25178674D01*
X10678896Y-25178674D02*
X10678896Y-25226293D01*
X10678896Y-25226293D02*
X10669372Y-25264388D01*
X10669372Y-25264388D02*
X10659848Y-25283436D01*
X10659848Y-25283436D02*
X10650325Y-25292960D01*
X10650325Y-25292960D02*
X10631277Y-25302484D01*
X10631277Y-25302484D02*
X10612229Y-25302484D01*
X10612229Y-25302484D02*
X10593182Y-25292960D01*
X10593182Y-25292960D02*
X10583658Y-25283436D01*
X10583658Y-25283436D02*
X10574134Y-25264388D01*
X10574134Y-25264388D02*
X10564610Y-25226293D01*
X10564610Y-25226293D02*
X10564610Y-25178674D01*
X10564610Y-25178674D02*
X10574134Y-25140579D01*
X10574134Y-25140579D02*
X10583658Y-25121531D01*
X10583658Y-25121531D02*
X10593182Y-25112008D01*
X10593182Y-25112008D02*
X10612229Y-25102484D01*
X10802706Y-25102484D02*
X10821753Y-25102484D01*
X10821753Y-25102484D02*
X10840801Y-25112008D01*
X10840801Y-25112008D02*
X10850325Y-25121531D01*
X10850325Y-25121531D02*
X10859848Y-25140579D01*
X10859848Y-25140579D02*
X10869372Y-25178674D01*
X10869372Y-25178674D02*
X10869372Y-25226293D01*
X10869372Y-25226293D02*
X10859848Y-25264388D01*
X10859848Y-25264388D02*
X10850325Y-25283436D01*
X10850325Y-25283436D02*
X10840801Y-25292960D01*
X10840801Y-25292960D02*
X10821753Y-25302484D01*
X10821753Y-25302484D02*
X10802706Y-25302484D01*
X10802706Y-25302484D02*
X10783658Y-25292960D01*
X10783658Y-25292960D02*
X10774134Y-25283436D01*
X10774134Y-25283436D02*
X10764610Y-25264388D01*
X10764610Y-25264388D02*
X10755087Y-25226293D01*
X10755087Y-25226293D02*
X10755087Y-25178674D01*
X10755087Y-25178674D02*
X10764610Y-25140579D01*
X10764610Y-25140579D02*
X10774134Y-25121531D01*
X10774134Y-25121531D02*
X10783658Y-25112008D01*
X10783658Y-25112008D02*
X10802706Y-25102484D01*
X10955087Y-25302484D02*
X10955087Y-25169150D01*
X10955087Y-25188198D02*
X10964610Y-25178674D01*
X10964610Y-25178674D02*
X10983658Y-25169150D01*
X10983658Y-25169150D02*
X11012229Y-25169150D01*
X11012229Y-25169150D02*
X11031277Y-25178674D01*
X11031277Y-25178674D02*
X11040801Y-25197722D01*
X11040801Y-25197722D02*
X11040801Y-25302484D01*
X11040801Y-25197722D02*
X11050325Y-25178674D01*
X11050325Y-25178674D02*
X11069372Y-25169150D01*
X11069372Y-25169150D02*
X11097944Y-25169150D01*
X11097944Y-25169150D02*
X11116991Y-25178674D01*
X11116991Y-25178674D02*
X11126515Y-25197722D01*
X11126515Y-25197722D02*
X11126515Y-25302484D01*
X11221753Y-25302484D02*
X11221753Y-25169150D01*
X11221753Y-25188198D02*
X11231277Y-25178674D01*
X11231277Y-25178674D02*
X11250325Y-25169150D01*
X11250325Y-25169150D02*
X11278896Y-25169150D01*
X11278896Y-25169150D02*
X11297944Y-25178674D01*
X11297944Y-25178674D02*
X11307467Y-25197722D01*
X11307467Y-25197722D02*
X11307467Y-25302484D01*
X11307467Y-25197722D02*
X11316991Y-25178674D01*
X11316991Y-25178674D02*
X11336039Y-25169150D01*
X11336039Y-25169150D02*
X11364610Y-25169150D01*
X11364610Y-25169150D02*
X11383658Y-25178674D01*
X11383658Y-25178674D02*
X11393182Y-25197722D01*
X11393182Y-25197722D02*
X11393182Y-25302484D01*
X11783658Y-25092960D02*
X11612229Y-25350103D01*
X12040801Y-25102484D02*
X12059849Y-25102484D01*
X12059849Y-25102484D02*
X12078896Y-25112008D01*
X12078896Y-25112008D02*
X12088420Y-25121531D01*
X12088420Y-25121531D02*
X12097944Y-25140579D01*
X12097944Y-25140579D02*
X12107468Y-25178674D01*
X12107468Y-25178674D02*
X12107468Y-25226293D01*
X12107468Y-25226293D02*
X12097944Y-25264388D01*
X12097944Y-25264388D02*
X12088420Y-25283436D01*
X12088420Y-25283436D02*
X12078896Y-25292960D01*
X12078896Y-25292960D02*
X12059849Y-25302484D01*
X12059849Y-25302484D02*
X12040801Y-25302484D01*
X12040801Y-25302484D02*
X12021753Y-25292960D01*
X12021753Y-25292960D02*
X12012229Y-25283436D01*
X12012229Y-25283436D02*
X12002706Y-25264388D01*
X12002706Y-25264388D02*
X11993182Y-25226293D01*
X11993182Y-25226293D02*
X11993182Y-25178674D01*
X11993182Y-25178674D02*
X12002706Y-25140579D01*
X12002706Y-25140579D02*
X12012229Y-25121531D01*
X12012229Y-25121531D02*
X12021753Y-25112008D01*
X12021753Y-25112008D02*
X12040801Y-25102484D01*
X12193182Y-25283436D02*
X12202706Y-25292960D01*
X12202706Y-25292960D02*
X12193182Y-25302484D01*
X12193182Y-25302484D02*
X12183658Y-25292960D01*
X12183658Y-25292960D02*
X12193182Y-25283436D01*
X12193182Y-25283436D02*
X12193182Y-25302484D01*
X12326515Y-25102484D02*
X12345563Y-25102484D01*
X12345563Y-25102484D02*
X12364610Y-25112008D01*
X12364610Y-25112008D02*
X12374134Y-25121531D01*
X12374134Y-25121531D02*
X12383658Y-25140579D01*
X12383658Y-25140579D02*
X12393182Y-25178674D01*
X12393182Y-25178674D02*
X12393182Y-25226293D01*
X12393182Y-25226293D02*
X12383658Y-25264388D01*
X12383658Y-25264388D02*
X12374134Y-25283436D01*
X12374134Y-25283436D02*
X12364610Y-25292960D01*
X12364610Y-25292960D02*
X12345563Y-25302484D01*
X12345563Y-25302484D02*
X12326515Y-25302484D01*
X12326515Y-25302484D02*
X12307468Y-25292960D01*
X12307468Y-25292960D02*
X12297944Y-25283436D01*
X12297944Y-25283436D02*
X12288420Y-25264388D01*
X12288420Y-25264388D02*
X12278896Y-25226293D01*
X12278896Y-25226293D02*
X12278896Y-25178674D01*
X12278896Y-25178674D02*
X12288420Y-25140579D01*
X12288420Y-25140579D02*
X12297944Y-25121531D01*
X12297944Y-25121531D02*
X12307468Y-25112008D01*
X12307468Y-25112008D02*
X12326515Y-25102484D01*
X12564610Y-25102484D02*
X12526515Y-25102484D01*
X12526515Y-25102484D02*
X12507468Y-25112008D01*
X12507468Y-25112008D02*
X12497944Y-25121531D01*
X12497944Y-25121531D02*
X12478896Y-25150103D01*
X12478896Y-25150103D02*
X12469372Y-25188198D01*
X12469372Y-25188198D02*
X12469372Y-25264388D01*
X12469372Y-25264388D02*
X12478896Y-25283436D01*
X12478896Y-25283436D02*
X12488420Y-25292960D01*
X12488420Y-25292960D02*
X12507468Y-25302484D01*
X12507468Y-25302484D02*
X12545563Y-25302484D01*
X12545563Y-25302484D02*
X12564610Y-25292960D01*
X12564610Y-25292960D02*
X12574134Y-25283436D01*
X12574134Y-25283436D02*
X12583658Y-25264388D01*
X12583658Y-25264388D02*
X12583658Y-25216769D01*
X12583658Y-25216769D02*
X12574134Y-25197722D01*
X12574134Y-25197722D02*
X12564610Y-25188198D01*
X12564610Y-25188198D02*
X12545563Y-25178674D01*
X12545563Y-25178674D02*
X12507468Y-25178674D01*
X12507468Y-25178674D02*
X12488420Y-25188198D01*
X12488420Y-25188198D02*
X12478896Y-25197722D01*
X12478896Y-25197722D02*
X12469372Y-25216769D01*
X12650325Y-25102484D02*
X12774134Y-25102484D01*
X12774134Y-25102484D02*
X12707468Y-25178674D01*
X12707468Y-25178674D02*
X12736039Y-25178674D01*
X12736039Y-25178674D02*
X12755087Y-25188198D01*
X12755087Y-25188198D02*
X12764610Y-25197722D01*
X12764610Y-25197722D02*
X12774134Y-25216769D01*
X12774134Y-25216769D02*
X12774134Y-25264388D01*
X12774134Y-25264388D02*
X12764610Y-25283436D01*
X12764610Y-25283436D02*
X12755087Y-25292960D01*
X12755087Y-25292960D02*
X12736039Y-25302484D01*
X12736039Y-25302484D02*
X12678896Y-25302484D01*
X12678896Y-25302484D02*
X12659849Y-25292960D01*
X12659849Y-25292960D02*
X12650325Y-25283436D01*
X12897944Y-25102484D02*
X12916991Y-25102484D01*
X12916991Y-25102484D02*
X12936039Y-25112008D01*
X12936039Y-25112008D02*
X12945563Y-25121531D01*
X12945563Y-25121531D02*
X12955087Y-25140579D01*
X12955087Y-25140579D02*
X12964610Y-25178674D01*
X12964610Y-25178674D02*
X12964610Y-25226293D01*
X12964610Y-25226293D02*
X12955087Y-25264388D01*
X12955087Y-25264388D02*
X12945563Y-25283436D01*
X12945563Y-25283436D02*
X12936039Y-25292960D01*
X12936039Y-25292960D02*
X12916991Y-25302484D01*
X12916991Y-25302484D02*
X12897944Y-25302484D01*
X12897944Y-25302484D02*
X12878896Y-25292960D01*
X12878896Y-25292960D02*
X12869372Y-25283436D01*
X12869372Y-25283436D02*
X12859849Y-25264388D01*
X12859849Y-25264388D02*
X12850325Y-25226293D01*
X12850325Y-25226293D02*
X12850325Y-25178674D01*
X12850325Y-25178674D02*
X12859849Y-25140579D01*
X12859849Y-25140579D02*
X12869372Y-25121531D01*
X12869372Y-25121531D02*
X12878896Y-25112008D01*
X12878896Y-25112008D02*
X12897944Y-25102484D01*
X13040801Y-25102484D02*
X13040801Y-25140579D01*
X13116991Y-25102484D02*
X13116991Y-25140579D01*
X13412230Y-25378674D02*
X13402706Y-25369150D01*
X13402706Y-25369150D02*
X13383658Y-25340579D01*
X13383658Y-25340579D02*
X13374134Y-25321531D01*
X13374134Y-25321531D02*
X13364611Y-25292960D01*
X13364611Y-25292960D02*
X13355087Y-25245341D01*
X13355087Y-25245341D02*
X13355087Y-25207246D01*
X13355087Y-25207246D02*
X13364611Y-25159627D01*
X13364611Y-25159627D02*
X13374134Y-25131055D01*
X13374134Y-25131055D02*
X13383658Y-25112008D01*
X13383658Y-25112008D02*
X13402706Y-25083436D01*
X13402706Y-25083436D02*
X13412230Y-25073912D01*
X13497944Y-25302484D02*
X13536039Y-25302484D01*
X13536039Y-25302484D02*
X13555087Y-25292960D01*
X13555087Y-25292960D02*
X13564611Y-25283436D01*
X13564611Y-25283436D02*
X13583658Y-25254865D01*
X13583658Y-25254865D02*
X13593182Y-25216769D01*
X13593182Y-25216769D02*
X13593182Y-25140579D01*
X13593182Y-25140579D02*
X13583658Y-25121531D01*
X13583658Y-25121531D02*
X13574134Y-25112008D01*
X13574134Y-25112008D02*
X13555087Y-25102484D01*
X13555087Y-25102484D02*
X13516991Y-25102484D01*
X13516991Y-25102484D02*
X13497944Y-25112008D01*
X13497944Y-25112008D02*
X13488420Y-25121531D01*
X13488420Y-25121531D02*
X13478896Y-25140579D01*
X13478896Y-25140579D02*
X13478896Y-25188198D01*
X13478896Y-25188198D02*
X13488420Y-25207246D01*
X13488420Y-25207246D02*
X13497944Y-25216769D01*
X13497944Y-25216769D02*
X13516991Y-25226293D01*
X13516991Y-25226293D02*
X13555087Y-25226293D01*
X13555087Y-25226293D02*
X13574134Y-25216769D01*
X13574134Y-25216769D02*
X13583658Y-25207246D01*
X13583658Y-25207246D02*
X13593182Y-25188198D01*
X13831277Y-25302484D02*
X13831277Y-25102484D01*
X13916992Y-25302484D02*
X13916992Y-25197722D01*
X13916992Y-25197722D02*
X13907468Y-25178674D01*
X13907468Y-25178674D02*
X13888420Y-25169150D01*
X13888420Y-25169150D02*
X13859849Y-25169150D01*
X13859849Y-25169150D02*
X13840801Y-25178674D01*
X13840801Y-25178674D02*
X13831277Y-25188198D01*
X14040801Y-25302484D02*
X14021753Y-25292960D01*
X14021753Y-25292960D02*
X14012230Y-25283436D01*
X14012230Y-25283436D02*
X14002706Y-25264388D01*
X14002706Y-25264388D02*
X14002706Y-25207246D01*
X14002706Y-25207246D02*
X14012230Y-25188198D01*
X14012230Y-25188198D02*
X14021753Y-25178674D01*
X14021753Y-25178674D02*
X14040801Y-25169150D01*
X14040801Y-25169150D02*
X14069373Y-25169150D01*
X14069373Y-25169150D02*
X14088420Y-25178674D01*
X14088420Y-25178674D02*
X14097944Y-25188198D01*
X14097944Y-25188198D02*
X14107468Y-25207246D01*
X14107468Y-25207246D02*
X14107468Y-25264388D01*
X14107468Y-25264388D02*
X14097944Y-25283436D01*
X14097944Y-25283436D02*
X14088420Y-25292960D01*
X14088420Y-25292960D02*
X14069373Y-25302484D01*
X14069373Y-25302484D02*
X14040801Y-25302484D01*
X14221753Y-25302484D02*
X14202706Y-25292960D01*
X14202706Y-25292960D02*
X14193182Y-25273912D01*
X14193182Y-25273912D02*
X14193182Y-25102484D01*
X14374134Y-25292960D02*
X14355087Y-25302484D01*
X14355087Y-25302484D02*
X14316992Y-25302484D01*
X14316992Y-25302484D02*
X14297944Y-25292960D01*
X14297944Y-25292960D02*
X14288420Y-25273912D01*
X14288420Y-25273912D02*
X14288420Y-25197722D01*
X14288420Y-25197722D02*
X14297944Y-25178674D01*
X14297944Y-25178674D02*
X14316992Y-25169150D01*
X14316992Y-25169150D02*
X14355087Y-25169150D01*
X14355087Y-25169150D02*
X14374134Y-25178674D01*
X14374134Y-25178674D02*
X14383658Y-25197722D01*
X14383658Y-25197722D02*
X14383658Y-25216769D01*
X14383658Y-25216769D02*
X14288420Y-25235817D01*
X14459849Y-25292960D02*
X14478896Y-25302484D01*
X14478896Y-25302484D02*
X14516992Y-25302484D01*
X14516992Y-25302484D02*
X14536039Y-25292960D01*
X14536039Y-25292960D02*
X14545563Y-25273912D01*
X14545563Y-25273912D02*
X14545563Y-25264388D01*
X14545563Y-25264388D02*
X14536039Y-25245341D01*
X14536039Y-25245341D02*
X14516992Y-25235817D01*
X14516992Y-25235817D02*
X14488420Y-25235817D01*
X14488420Y-25235817D02*
X14469373Y-25226293D01*
X14469373Y-25226293D02*
X14459849Y-25207246D01*
X14459849Y-25207246D02*
X14459849Y-25197722D01*
X14459849Y-25197722D02*
X14469373Y-25178674D01*
X14469373Y-25178674D02*
X14488420Y-25169150D01*
X14488420Y-25169150D02*
X14516992Y-25169150D01*
X14516992Y-25169150D02*
X14536039Y-25178674D01*
X14612230Y-25378674D02*
X14621754Y-25369150D01*
X14621754Y-25369150D02*
X14640801Y-25340579D01*
X14640801Y-25340579D02*
X14650325Y-25321531D01*
X14650325Y-25321531D02*
X14659849Y-25292960D01*
X14659849Y-25292960D02*
X14669373Y-25245341D01*
X14669373Y-25245341D02*
X14669373Y-25207246D01*
X14669373Y-25207246D02*
X14659849Y-25159627D01*
X14659849Y-25159627D02*
X14650325Y-25131055D01*
X14650325Y-25131055D02*
X14640801Y-25112008D01*
X14640801Y-25112008D02*
X14621754Y-25083436D01*
X14621754Y-25083436D02*
X14612230Y-25073912D01*
X9737167Y-25591000D02*
X9837167Y-25491000D01*
X9737167Y-25391000D01*
X9637167Y-25491000D01*
X9737167Y-25591000D01*
X10183658Y-25449150D02*
X10183658Y-25582484D01*
X10136039Y-25372960D02*
X10088420Y-25515817D01*
X10088420Y-25515817D02*
X10212229Y-25515817D01*
X10288420Y-25563436D02*
X10297944Y-25572960D01*
X10297944Y-25572960D02*
X10288420Y-25582484D01*
X10288420Y-25582484D02*
X10278896Y-25572960D01*
X10278896Y-25572960D02*
X10288420Y-25563436D01*
X10288420Y-25563436D02*
X10288420Y-25582484D01*
X10478896Y-25382484D02*
X10383658Y-25382484D01*
X10383658Y-25382484D02*
X10374134Y-25477722D01*
X10374134Y-25477722D02*
X10383658Y-25468198D01*
X10383658Y-25468198D02*
X10402706Y-25458674D01*
X10402706Y-25458674D02*
X10450325Y-25458674D01*
X10450325Y-25458674D02*
X10469372Y-25468198D01*
X10469372Y-25468198D02*
X10478896Y-25477722D01*
X10478896Y-25477722D02*
X10488420Y-25496769D01*
X10488420Y-25496769D02*
X10488420Y-25544388D01*
X10488420Y-25544388D02*
X10478896Y-25563436D01*
X10478896Y-25563436D02*
X10469372Y-25572960D01*
X10469372Y-25572960D02*
X10450325Y-25582484D01*
X10450325Y-25582484D02*
X10402706Y-25582484D01*
X10402706Y-25582484D02*
X10383658Y-25572960D01*
X10383658Y-25572960D02*
X10374134Y-25563436D01*
X10612229Y-25382484D02*
X10631277Y-25382484D01*
X10631277Y-25382484D02*
X10650325Y-25392008D01*
X10650325Y-25392008D02*
X10659848Y-25401531D01*
X10659848Y-25401531D02*
X10669372Y-25420579D01*
X10669372Y-25420579D02*
X10678896Y-25458674D01*
X10678896Y-25458674D02*
X10678896Y-25506293D01*
X10678896Y-25506293D02*
X10669372Y-25544388D01*
X10669372Y-25544388D02*
X10659848Y-25563436D01*
X10659848Y-25563436D02*
X10650325Y-25572960D01*
X10650325Y-25572960D02*
X10631277Y-25582484D01*
X10631277Y-25582484D02*
X10612229Y-25582484D01*
X10612229Y-25582484D02*
X10593182Y-25572960D01*
X10593182Y-25572960D02*
X10583658Y-25563436D01*
X10583658Y-25563436D02*
X10574134Y-25544388D01*
X10574134Y-25544388D02*
X10564610Y-25506293D01*
X10564610Y-25506293D02*
X10564610Y-25458674D01*
X10564610Y-25458674D02*
X10574134Y-25420579D01*
X10574134Y-25420579D02*
X10583658Y-25401531D01*
X10583658Y-25401531D02*
X10593182Y-25392008D01*
X10593182Y-25392008D02*
X10612229Y-25382484D01*
X10802706Y-25382484D02*
X10821753Y-25382484D01*
X10821753Y-25382484D02*
X10840801Y-25392008D01*
X10840801Y-25392008D02*
X10850325Y-25401531D01*
X10850325Y-25401531D02*
X10859848Y-25420579D01*
X10859848Y-25420579D02*
X10869372Y-25458674D01*
X10869372Y-25458674D02*
X10869372Y-25506293D01*
X10869372Y-25506293D02*
X10859848Y-25544388D01*
X10859848Y-25544388D02*
X10850325Y-25563436D01*
X10850325Y-25563436D02*
X10840801Y-25572960D01*
X10840801Y-25572960D02*
X10821753Y-25582484D01*
X10821753Y-25582484D02*
X10802706Y-25582484D01*
X10802706Y-25582484D02*
X10783658Y-25572960D01*
X10783658Y-25572960D02*
X10774134Y-25563436D01*
X10774134Y-25563436D02*
X10764610Y-25544388D01*
X10764610Y-25544388D02*
X10755087Y-25506293D01*
X10755087Y-25506293D02*
X10755087Y-25458674D01*
X10755087Y-25458674D02*
X10764610Y-25420579D01*
X10764610Y-25420579D02*
X10774134Y-25401531D01*
X10774134Y-25401531D02*
X10783658Y-25392008D01*
X10783658Y-25392008D02*
X10802706Y-25382484D01*
X10955087Y-25582484D02*
X10955087Y-25449150D01*
X10955087Y-25468198D02*
X10964610Y-25458674D01*
X10964610Y-25458674D02*
X10983658Y-25449150D01*
X10983658Y-25449150D02*
X11012229Y-25449150D01*
X11012229Y-25449150D02*
X11031277Y-25458674D01*
X11031277Y-25458674D02*
X11040801Y-25477722D01*
X11040801Y-25477722D02*
X11040801Y-25582484D01*
X11040801Y-25477722D02*
X11050325Y-25458674D01*
X11050325Y-25458674D02*
X11069372Y-25449150D01*
X11069372Y-25449150D02*
X11097944Y-25449150D01*
X11097944Y-25449150D02*
X11116991Y-25458674D01*
X11116991Y-25458674D02*
X11126515Y-25477722D01*
X11126515Y-25477722D02*
X11126515Y-25582484D01*
X11221753Y-25582484D02*
X11221753Y-25449150D01*
X11221753Y-25468198D02*
X11231277Y-25458674D01*
X11231277Y-25458674D02*
X11250325Y-25449150D01*
X11250325Y-25449150D02*
X11278896Y-25449150D01*
X11278896Y-25449150D02*
X11297944Y-25458674D01*
X11297944Y-25458674D02*
X11307467Y-25477722D01*
X11307467Y-25477722D02*
X11307467Y-25582484D01*
X11307467Y-25477722D02*
X11316991Y-25458674D01*
X11316991Y-25458674D02*
X11336039Y-25449150D01*
X11336039Y-25449150D02*
X11364610Y-25449150D01*
X11364610Y-25449150D02*
X11383658Y-25458674D01*
X11383658Y-25458674D02*
X11393182Y-25477722D01*
X11393182Y-25477722D02*
X11393182Y-25582484D01*
X11783658Y-25372960D02*
X11612229Y-25630103D01*
X12040801Y-25382484D02*
X12059849Y-25382484D01*
X12059849Y-25382484D02*
X12078896Y-25392008D01*
X12078896Y-25392008D02*
X12088420Y-25401531D01*
X12088420Y-25401531D02*
X12097944Y-25420579D01*
X12097944Y-25420579D02*
X12107468Y-25458674D01*
X12107468Y-25458674D02*
X12107468Y-25506293D01*
X12107468Y-25506293D02*
X12097944Y-25544388D01*
X12097944Y-25544388D02*
X12088420Y-25563436D01*
X12088420Y-25563436D02*
X12078896Y-25572960D01*
X12078896Y-25572960D02*
X12059849Y-25582484D01*
X12059849Y-25582484D02*
X12040801Y-25582484D01*
X12040801Y-25582484D02*
X12021753Y-25572960D01*
X12021753Y-25572960D02*
X12012229Y-25563436D01*
X12012229Y-25563436D02*
X12002706Y-25544388D01*
X12002706Y-25544388D02*
X11993182Y-25506293D01*
X11993182Y-25506293D02*
X11993182Y-25458674D01*
X11993182Y-25458674D02*
X12002706Y-25420579D01*
X12002706Y-25420579D02*
X12012229Y-25401531D01*
X12012229Y-25401531D02*
X12021753Y-25392008D01*
X12021753Y-25392008D02*
X12040801Y-25382484D01*
X12193182Y-25563436D02*
X12202706Y-25572960D01*
X12202706Y-25572960D02*
X12193182Y-25582484D01*
X12193182Y-25582484D02*
X12183658Y-25572960D01*
X12183658Y-25572960D02*
X12193182Y-25563436D01*
X12193182Y-25563436D02*
X12193182Y-25582484D01*
X12393182Y-25582484D02*
X12278896Y-25582484D01*
X12336039Y-25582484D02*
X12336039Y-25382484D01*
X12336039Y-25382484D02*
X12316991Y-25411055D01*
X12316991Y-25411055D02*
X12297944Y-25430103D01*
X12297944Y-25430103D02*
X12278896Y-25439627D01*
X12459849Y-25382484D02*
X12593182Y-25382484D01*
X12593182Y-25382484D02*
X12507468Y-25582484D01*
X12650325Y-25382484D02*
X12783658Y-25382484D01*
X12783658Y-25382484D02*
X12697944Y-25582484D01*
X12850325Y-25401531D02*
X12859849Y-25392008D01*
X12859849Y-25392008D02*
X12878896Y-25382484D01*
X12878896Y-25382484D02*
X12926515Y-25382484D01*
X12926515Y-25382484D02*
X12945563Y-25392008D01*
X12945563Y-25392008D02*
X12955087Y-25401531D01*
X12955087Y-25401531D02*
X12964610Y-25420579D01*
X12964610Y-25420579D02*
X12964610Y-25439627D01*
X12964610Y-25439627D02*
X12955087Y-25468198D01*
X12955087Y-25468198D02*
X12840801Y-25582484D01*
X12840801Y-25582484D02*
X12964610Y-25582484D01*
X13040801Y-25382484D02*
X13040801Y-25420579D01*
X13116991Y-25382484D02*
X13116991Y-25420579D01*
X13412230Y-25658674D02*
X13402706Y-25649150D01*
X13402706Y-25649150D02*
X13383658Y-25620579D01*
X13383658Y-25620579D02*
X13374134Y-25601531D01*
X13374134Y-25601531D02*
X13364611Y-25572960D01*
X13364611Y-25572960D02*
X13355087Y-25525341D01*
X13355087Y-25525341D02*
X13355087Y-25487246D01*
X13355087Y-25487246D02*
X13364611Y-25439627D01*
X13364611Y-25439627D02*
X13374134Y-25411055D01*
X13374134Y-25411055D02*
X13383658Y-25392008D01*
X13383658Y-25392008D02*
X13402706Y-25363436D01*
X13402706Y-25363436D02*
X13412230Y-25353912D01*
X13478896Y-25401531D02*
X13488420Y-25392008D01*
X13488420Y-25392008D02*
X13507468Y-25382484D01*
X13507468Y-25382484D02*
X13555087Y-25382484D01*
X13555087Y-25382484D02*
X13574134Y-25392008D01*
X13574134Y-25392008D02*
X13583658Y-25401531D01*
X13583658Y-25401531D02*
X13593182Y-25420579D01*
X13593182Y-25420579D02*
X13593182Y-25439627D01*
X13593182Y-25439627D02*
X13583658Y-25468198D01*
X13583658Y-25468198D02*
X13469372Y-25582484D01*
X13469372Y-25582484D02*
X13593182Y-25582484D01*
X13831277Y-25582484D02*
X13831277Y-25382484D01*
X13916992Y-25582484D02*
X13916992Y-25477722D01*
X13916992Y-25477722D02*
X13907468Y-25458674D01*
X13907468Y-25458674D02*
X13888420Y-25449150D01*
X13888420Y-25449150D02*
X13859849Y-25449150D01*
X13859849Y-25449150D02*
X13840801Y-25458674D01*
X13840801Y-25458674D02*
X13831277Y-25468198D01*
X14040801Y-25582484D02*
X14021753Y-25572960D01*
X14021753Y-25572960D02*
X14012230Y-25563436D01*
X14012230Y-25563436D02*
X14002706Y-25544388D01*
X14002706Y-25544388D02*
X14002706Y-25487246D01*
X14002706Y-25487246D02*
X14012230Y-25468198D01*
X14012230Y-25468198D02*
X14021753Y-25458674D01*
X14021753Y-25458674D02*
X14040801Y-25449150D01*
X14040801Y-25449150D02*
X14069373Y-25449150D01*
X14069373Y-25449150D02*
X14088420Y-25458674D01*
X14088420Y-25458674D02*
X14097944Y-25468198D01*
X14097944Y-25468198D02*
X14107468Y-25487246D01*
X14107468Y-25487246D02*
X14107468Y-25544388D01*
X14107468Y-25544388D02*
X14097944Y-25563436D01*
X14097944Y-25563436D02*
X14088420Y-25572960D01*
X14088420Y-25572960D02*
X14069373Y-25582484D01*
X14069373Y-25582484D02*
X14040801Y-25582484D01*
X14221753Y-25582484D02*
X14202706Y-25572960D01*
X14202706Y-25572960D02*
X14193182Y-25553912D01*
X14193182Y-25553912D02*
X14193182Y-25382484D01*
X14374134Y-25572960D02*
X14355087Y-25582484D01*
X14355087Y-25582484D02*
X14316992Y-25582484D01*
X14316992Y-25582484D02*
X14297944Y-25572960D01*
X14297944Y-25572960D02*
X14288420Y-25553912D01*
X14288420Y-25553912D02*
X14288420Y-25477722D01*
X14288420Y-25477722D02*
X14297944Y-25458674D01*
X14297944Y-25458674D02*
X14316992Y-25449150D01*
X14316992Y-25449150D02*
X14355087Y-25449150D01*
X14355087Y-25449150D02*
X14374134Y-25458674D01*
X14374134Y-25458674D02*
X14383658Y-25477722D01*
X14383658Y-25477722D02*
X14383658Y-25496769D01*
X14383658Y-25496769D02*
X14288420Y-25515817D01*
X14459849Y-25572960D02*
X14478896Y-25582484D01*
X14478896Y-25582484D02*
X14516992Y-25582484D01*
X14516992Y-25582484D02*
X14536039Y-25572960D01*
X14536039Y-25572960D02*
X14545563Y-25553912D01*
X14545563Y-25553912D02*
X14545563Y-25544388D01*
X14545563Y-25544388D02*
X14536039Y-25525341D01*
X14536039Y-25525341D02*
X14516992Y-25515817D01*
X14516992Y-25515817D02*
X14488420Y-25515817D01*
X14488420Y-25515817D02*
X14469373Y-25506293D01*
X14469373Y-25506293D02*
X14459849Y-25487246D01*
X14459849Y-25487246D02*
X14459849Y-25477722D01*
X14459849Y-25477722D02*
X14469373Y-25458674D01*
X14469373Y-25458674D02*
X14488420Y-25449150D01*
X14488420Y-25449150D02*
X14516992Y-25449150D01*
X14516992Y-25449150D02*
X14536039Y-25458674D01*
X14612230Y-25658674D02*
X14621754Y-25649150D01*
X14621754Y-25649150D02*
X14640801Y-25620579D01*
X14640801Y-25620579D02*
X14650325Y-25601531D01*
X14650325Y-25601531D02*
X14659849Y-25572960D01*
X14659849Y-25572960D02*
X14669373Y-25525341D01*
X14669373Y-25525341D02*
X14669373Y-25487246D01*
X14669373Y-25487246D02*
X14659849Y-25439627D01*
X14659849Y-25439627D02*
X14650325Y-25411055D01*
X14650325Y-25411055D02*
X14640801Y-25392008D01*
X14640801Y-25392008D02*
X14621754Y-25363436D01*
X14621754Y-25363436D02*
X14612230Y-25353912D01*
M02*
