%TF.GenerationSoftware,KiCad,Pcbnew,7.0.10*%
%TF.CreationDate,2024-03-07T12:29:01-07:00*%
%TF.ProjectId,Power_Supply,506f7765-725f-4537-9570-706c792e6b69,rev?*%
%TF.SameCoordinates,Original*%
%TF.FileFunction,Legend,Top*%
%TF.FilePolarity,Positive*%
%FSLAX46Y46*%
G04 Gerber Fmt 4.6, Leading zero omitted, Abs format (unit mm)*
G04 Created by KiCad (PCBNEW 7.0.10) date 2024-03-07 12:29:01*
%MOMM*%
%LPD*%
G01*
G04 APERTURE LIST*
%ADD10C,0.300000*%
%ADD11C,0.150000*%
%ADD12C,0.100000*%
%ADD13C,0.120000*%
G04 APERTURE END LIST*
D10*
X120694510Y-54285114D02*
X121194510Y-54285114D01*
X121408796Y-55070828D02*
X120694510Y-55070828D01*
X120694510Y-55070828D02*
X120694510Y-53570828D01*
X120694510Y-53570828D02*
X121408796Y-53570828D01*
X122908796Y-54927971D02*
X122837368Y-54999400D01*
X122837368Y-54999400D02*
X122623082Y-55070828D01*
X122623082Y-55070828D02*
X122480225Y-55070828D01*
X122480225Y-55070828D02*
X122265939Y-54999400D01*
X122265939Y-54999400D02*
X122123082Y-54856542D01*
X122123082Y-54856542D02*
X122051653Y-54713685D01*
X122051653Y-54713685D02*
X121980225Y-54427971D01*
X121980225Y-54427971D02*
X121980225Y-54213685D01*
X121980225Y-54213685D02*
X122051653Y-53927971D01*
X122051653Y-53927971D02*
X122123082Y-53785114D01*
X122123082Y-53785114D02*
X122265939Y-53642257D01*
X122265939Y-53642257D02*
X122480225Y-53570828D01*
X122480225Y-53570828D02*
X122623082Y-53570828D01*
X122623082Y-53570828D02*
X122837368Y-53642257D01*
X122837368Y-53642257D02*
X122908796Y-53713685D01*
X123551653Y-54285114D02*
X124051653Y-54285114D01*
X124265939Y-55070828D02*
X123551653Y-55070828D01*
X123551653Y-55070828D02*
X123551653Y-53570828D01*
X123551653Y-53570828D02*
X124265939Y-53570828D01*
X125551654Y-54070828D02*
X125551654Y-55070828D01*
X125194511Y-53499400D02*
X124837368Y-54570828D01*
X124837368Y-54570828D02*
X125765939Y-54570828D01*
X126194510Y-53570828D02*
X127194510Y-53570828D01*
X127194510Y-53570828D02*
X126551653Y-55070828D01*
X127623081Y-53570828D02*
X128623081Y-53570828D01*
X128623081Y-53570828D02*
X127980224Y-55070828D01*
X130265938Y-54999400D02*
X130480224Y-55070828D01*
X130480224Y-55070828D02*
X130837366Y-55070828D01*
X130837366Y-55070828D02*
X130980224Y-54999400D01*
X130980224Y-54999400D02*
X131051652Y-54927971D01*
X131051652Y-54927971D02*
X131123081Y-54785114D01*
X131123081Y-54785114D02*
X131123081Y-54642257D01*
X131123081Y-54642257D02*
X131051652Y-54499400D01*
X131051652Y-54499400D02*
X130980224Y-54427971D01*
X130980224Y-54427971D02*
X130837366Y-54356542D01*
X130837366Y-54356542D02*
X130551652Y-54285114D01*
X130551652Y-54285114D02*
X130408795Y-54213685D01*
X130408795Y-54213685D02*
X130337366Y-54142257D01*
X130337366Y-54142257D02*
X130265938Y-53999400D01*
X130265938Y-53999400D02*
X130265938Y-53856542D01*
X130265938Y-53856542D02*
X130337366Y-53713685D01*
X130337366Y-53713685D02*
X130408795Y-53642257D01*
X130408795Y-53642257D02*
X130551652Y-53570828D01*
X130551652Y-53570828D02*
X130908795Y-53570828D01*
X130908795Y-53570828D02*
X131123081Y-53642257D01*
X131765937Y-54070828D02*
X131765937Y-55570828D01*
X131765937Y-54142257D02*
X131908795Y-54070828D01*
X131908795Y-54070828D02*
X132194509Y-54070828D01*
X132194509Y-54070828D02*
X132337366Y-54142257D01*
X132337366Y-54142257D02*
X132408795Y-54213685D01*
X132408795Y-54213685D02*
X132480223Y-54356542D01*
X132480223Y-54356542D02*
X132480223Y-54785114D01*
X132480223Y-54785114D02*
X132408795Y-54927971D01*
X132408795Y-54927971D02*
X132337366Y-54999400D01*
X132337366Y-54999400D02*
X132194509Y-55070828D01*
X132194509Y-55070828D02*
X131908795Y-55070828D01*
X131908795Y-55070828D02*
X131765937Y-54999400D01*
X133123080Y-55070828D02*
X133123080Y-54070828D01*
X133123080Y-54356542D02*
X133194509Y-54213685D01*
X133194509Y-54213685D02*
X133265938Y-54142257D01*
X133265938Y-54142257D02*
X133408795Y-54070828D01*
X133408795Y-54070828D02*
X133551652Y-54070828D01*
X134051651Y-55070828D02*
X134051651Y-54070828D01*
X134051651Y-53570828D02*
X133980223Y-53642257D01*
X133980223Y-53642257D02*
X134051651Y-53713685D01*
X134051651Y-53713685D02*
X134123080Y-53642257D01*
X134123080Y-53642257D02*
X134051651Y-53570828D01*
X134051651Y-53570828D02*
X134051651Y-53713685D01*
X134765937Y-54070828D02*
X134765937Y-55070828D01*
X134765937Y-54213685D02*
X134837366Y-54142257D01*
X134837366Y-54142257D02*
X134980223Y-54070828D01*
X134980223Y-54070828D02*
X135194509Y-54070828D01*
X135194509Y-54070828D02*
X135337366Y-54142257D01*
X135337366Y-54142257D02*
X135408795Y-54285114D01*
X135408795Y-54285114D02*
X135408795Y-55070828D01*
X136765938Y-54070828D02*
X136765938Y-55285114D01*
X136765938Y-55285114D02*
X136694509Y-55427971D01*
X136694509Y-55427971D02*
X136623080Y-55499400D01*
X136623080Y-55499400D02*
X136480223Y-55570828D01*
X136480223Y-55570828D02*
X136265938Y-55570828D01*
X136265938Y-55570828D02*
X136123080Y-55499400D01*
X136765938Y-54999400D02*
X136623080Y-55070828D01*
X136623080Y-55070828D02*
X136337366Y-55070828D01*
X136337366Y-55070828D02*
X136194509Y-54999400D01*
X136194509Y-54999400D02*
X136123080Y-54927971D01*
X136123080Y-54927971D02*
X136051652Y-54785114D01*
X136051652Y-54785114D02*
X136051652Y-54356542D01*
X136051652Y-54356542D02*
X136123080Y-54213685D01*
X136123080Y-54213685D02*
X136194509Y-54142257D01*
X136194509Y-54142257D02*
X136337366Y-54070828D01*
X136337366Y-54070828D02*
X136623080Y-54070828D01*
X136623080Y-54070828D02*
X136765938Y-54142257D01*
X138551652Y-53713685D02*
X138623080Y-53642257D01*
X138623080Y-53642257D02*
X138765938Y-53570828D01*
X138765938Y-53570828D02*
X139123080Y-53570828D01*
X139123080Y-53570828D02*
X139265938Y-53642257D01*
X139265938Y-53642257D02*
X139337366Y-53713685D01*
X139337366Y-53713685D02*
X139408795Y-53856542D01*
X139408795Y-53856542D02*
X139408795Y-53999400D01*
X139408795Y-53999400D02*
X139337366Y-54213685D01*
X139337366Y-54213685D02*
X138480223Y-55070828D01*
X138480223Y-55070828D02*
X139408795Y-55070828D01*
X140337366Y-53570828D02*
X140480223Y-53570828D01*
X140480223Y-53570828D02*
X140623080Y-53642257D01*
X140623080Y-53642257D02*
X140694509Y-53713685D01*
X140694509Y-53713685D02*
X140765937Y-53856542D01*
X140765937Y-53856542D02*
X140837366Y-54142257D01*
X140837366Y-54142257D02*
X140837366Y-54499400D01*
X140837366Y-54499400D02*
X140765937Y-54785114D01*
X140765937Y-54785114D02*
X140694509Y-54927971D01*
X140694509Y-54927971D02*
X140623080Y-54999400D01*
X140623080Y-54999400D02*
X140480223Y-55070828D01*
X140480223Y-55070828D02*
X140337366Y-55070828D01*
X140337366Y-55070828D02*
X140194509Y-54999400D01*
X140194509Y-54999400D02*
X140123080Y-54927971D01*
X140123080Y-54927971D02*
X140051651Y-54785114D01*
X140051651Y-54785114D02*
X139980223Y-54499400D01*
X139980223Y-54499400D02*
X139980223Y-54142257D01*
X139980223Y-54142257D02*
X140051651Y-53856542D01*
X140051651Y-53856542D02*
X140123080Y-53713685D01*
X140123080Y-53713685D02*
X140194509Y-53642257D01*
X140194509Y-53642257D02*
X140337366Y-53570828D01*
X141408794Y-53713685D02*
X141480222Y-53642257D01*
X141480222Y-53642257D02*
X141623080Y-53570828D01*
X141623080Y-53570828D02*
X141980222Y-53570828D01*
X141980222Y-53570828D02*
X142123080Y-53642257D01*
X142123080Y-53642257D02*
X142194508Y-53713685D01*
X142194508Y-53713685D02*
X142265937Y-53856542D01*
X142265937Y-53856542D02*
X142265937Y-53999400D01*
X142265937Y-53999400D02*
X142194508Y-54213685D01*
X142194508Y-54213685D02*
X141337365Y-55070828D01*
X141337365Y-55070828D02*
X142265937Y-55070828D01*
X143551651Y-54070828D02*
X143551651Y-55070828D01*
X143194508Y-53499400D02*
X142837365Y-54570828D01*
X142837365Y-54570828D02*
X143765936Y-54570828D01*
X121480225Y-56057257D02*
X121337368Y-55985828D01*
X121337368Y-55985828D02*
X121123082Y-55985828D01*
X121123082Y-55985828D02*
X120908796Y-56057257D01*
X120908796Y-56057257D02*
X120765939Y-56200114D01*
X120765939Y-56200114D02*
X120694510Y-56342971D01*
X120694510Y-56342971D02*
X120623082Y-56628685D01*
X120623082Y-56628685D02*
X120623082Y-56842971D01*
X120623082Y-56842971D02*
X120694510Y-57128685D01*
X120694510Y-57128685D02*
X120765939Y-57271542D01*
X120765939Y-57271542D02*
X120908796Y-57414400D01*
X120908796Y-57414400D02*
X121123082Y-57485828D01*
X121123082Y-57485828D02*
X121265939Y-57485828D01*
X121265939Y-57485828D02*
X121480225Y-57414400D01*
X121480225Y-57414400D02*
X121551653Y-57342971D01*
X121551653Y-57342971D02*
X121551653Y-56842971D01*
X121551653Y-56842971D02*
X121265939Y-56842971D01*
X122194510Y-57485828D02*
X122194510Y-56485828D01*
X122194510Y-56771542D02*
X122265939Y-56628685D01*
X122265939Y-56628685D02*
X122337368Y-56557257D01*
X122337368Y-56557257D02*
X122480225Y-56485828D01*
X122480225Y-56485828D02*
X122623082Y-56485828D01*
X123337367Y-57485828D02*
X123194510Y-57414400D01*
X123194510Y-57414400D02*
X123123081Y-57342971D01*
X123123081Y-57342971D02*
X123051653Y-57200114D01*
X123051653Y-57200114D02*
X123051653Y-56771542D01*
X123051653Y-56771542D02*
X123123081Y-56628685D01*
X123123081Y-56628685D02*
X123194510Y-56557257D01*
X123194510Y-56557257D02*
X123337367Y-56485828D01*
X123337367Y-56485828D02*
X123551653Y-56485828D01*
X123551653Y-56485828D02*
X123694510Y-56557257D01*
X123694510Y-56557257D02*
X123765939Y-56628685D01*
X123765939Y-56628685D02*
X123837367Y-56771542D01*
X123837367Y-56771542D02*
X123837367Y-57200114D01*
X123837367Y-57200114D02*
X123765939Y-57342971D01*
X123765939Y-57342971D02*
X123694510Y-57414400D01*
X123694510Y-57414400D02*
X123551653Y-57485828D01*
X123551653Y-57485828D02*
X123337367Y-57485828D01*
X125123082Y-56485828D02*
X125123082Y-57485828D01*
X124480224Y-56485828D02*
X124480224Y-57271542D01*
X124480224Y-57271542D02*
X124551653Y-57414400D01*
X124551653Y-57414400D02*
X124694510Y-57485828D01*
X124694510Y-57485828D02*
X124908796Y-57485828D01*
X124908796Y-57485828D02*
X125051653Y-57414400D01*
X125051653Y-57414400D02*
X125123082Y-57342971D01*
X125837367Y-56485828D02*
X125837367Y-57985828D01*
X125837367Y-56557257D02*
X125980225Y-56485828D01*
X125980225Y-56485828D02*
X126265939Y-56485828D01*
X126265939Y-56485828D02*
X126408796Y-56557257D01*
X126408796Y-56557257D02*
X126480225Y-56628685D01*
X126480225Y-56628685D02*
X126551653Y-56771542D01*
X126551653Y-56771542D02*
X126551653Y-57200114D01*
X126551653Y-57200114D02*
X126480225Y-57342971D01*
X126480225Y-57342971D02*
X126408796Y-57414400D01*
X126408796Y-57414400D02*
X126265939Y-57485828D01*
X126265939Y-57485828D02*
X125980225Y-57485828D01*
X125980225Y-57485828D02*
X125837367Y-57414400D01*
X128408796Y-57485828D02*
X128694510Y-57485828D01*
X128694510Y-57485828D02*
X128837367Y-57414400D01*
X128837367Y-57414400D02*
X128908796Y-57342971D01*
X128908796Y-57342971D02*
X129051653Y-57128685D01*
X129051653Y-57128685D02*
X129123082Y-56842971D01*
X129123082Y-56842971D02*
X129123082Y-56271542D01*
X129123082Y-56271542D02*
X129051653Y-56128685D01*
X129051653Y-56128685D02*
X128980225Y-56057257D01*
X128980225Y-56057257D02*
X128837367Y-55985828D01*
X128837367Y-55985828D02*
X128551653Y-55985828D01*
X128551653Y-55985828D02*
X128408796Y-56057257D01*
X128408796Y-56057257D02*
X128337367Y-56128685D01*
X128337367Y-56128685D02*
X128265939Y-56271542D01*
X128265939Y-56271542D02*
X128265939Y-56628685D01*
X128265939Y-56628685D02*
X128337367Y-56771542D01*
X128337367Y-56771542D02*
X128408796Y-56842971D01*
X128408796Y-56842971D02*
X128551653Y-56914400D01*
X128551653Y-56914400D02*
X128837367Y-56914400D01*
X128837367Y-56914400D02*
X128980225Y-56842971D01*
X128980225Y-56842971D02*
X129051653Y-56771542D01*
X129051653Y-56771542D02*
X129123082Y-56628685D01*
X120480225Y-58400828D02*
X121337368Y-58400828D01*
X120908796Y-59900828D02*
X120908796Y-58400828D01*
X122408796Y-59829400D02*
X122265939Y-59900828D01*
X122265939Y-59900828D02*
X121980225Y-59900828D01*
X121980225Y-59900828D02*
X121837367Y-59829400D01*
X121837367Y-59829400D02*
X121765939Y-59686542D01*
X121765939Y-59686542D02*
X121765939Y-59115114D01*
X121765939Y-59115114D02*
X121837367Y-58972257D01*
X121837367Y-58972257D02*
X121980225Y-58900828D01*
X121980225Y-58900828D02*
X122265939Y-58900828D01*
X122265939Y-58900828D02*
X122408796Y-58972257D01*
X122408796Y-58972257D02*
X122480225Y-59115114D01*
X122480225Y-59115114D02*
X122480225Y-59257971D01*
X122480225Y-59257971D02*
X121765939Y-59400828D01*
X123765939Y-59900828D02*
X123765939Y-59115114D01*
X123765939Y-59115114D02*
X123694510Y-58972257D01*
X123694510Y-58972257D02*
X123551653Y-58900828D01*
X123551653Y-58900828D02*
X123265939Y-58900828D01*
X123265939Y-58900828D02*
X123123081Y-58972257D01*
X123765939Y-59829400D02*
X123623081Y-59900828D01*
X123623081Y-59900828D02*
X123265939Y-59900828D01*
X123265939Y-59900828D02*
X123123081Y-59829400D01*
X123123081Y-59829400D02*
X123051653Y-59686542D01*
X123051653Y-59686542D02*
X123051653Y-59543685D01*
X123051653Y-59543685D02*
X123123081Y-59400828D01*
X123123081Y-59400828D02*
X123265939Y-59329400D01*
X123265939Y-59329400D02*
X123623081Y-59329400D01*
X123623081Y-59329400D02*
X123765939Y-59257971D01*
X124480224Y-59900828D02*
X124480224Y-58900828D01*
X124480224Y-59043685D02*
X124551653Y-58972257D01*
X124551653Y-58972257D02*
X124694510Y-58900828D01*
X124694510Y-58900828D02*
X124908796Y-58900828D01*
X124908796Y-58900828D02*
X125051653Y-58972257D01*
X125051653Y-58972257D02*
X125123082Y-59115114D01*
X125123082Y-59115114D02*
X125123082Y-59900828D01*
X125123082Y-59115114D02*
X125194510Y-58972257D01*
X125194510Y-58972257D02*
X125337367Y-58900828D01*
X125337367Y-58900828D02*
X125551653Y-58900828D01*
X125551653Y-58900828D02*
X125694510Y-58972257D01*
X125694510Y-58972257D02*
X125765939Y-59115114D01*
X125765939Y-59115114D02*
X125765939Y-59900828D01*
X127623081Y-59900828D02*
X127623081Y-58900828D01*
X127623081Y-59043685D02*
X127694510Y-58972257D01*
X127694510Y-58972257D02*
X127837367Y-58900828D01*
X127837367Y-58900828D02*
X128051653Y-58900828D01*
X128051653Y-58900828D02*
X128194510Y-58972257D01*
X128194510Y-58972257D02*
X128265939Y-59115114D01*
X128265939Y-59115114D02*
X128265939Y-59900828D01*
X128265939Y-59115114D02*
X128337367Y-58972257D01*
X128337367Y-58972257D02*
X128480224Y-58900828D01*
X128480224Y-58900828D02*
X128694510Y-58900828D01*
X128694510Y-58900828D02*
X128837367Y-58972257D01*
X128837367Y-58972257D02*
X128908796Y-59115114D01*
X128908796Y-59115114D02*
X128908796Y-59900828D01*
X130194510Y-59829400D02*
X130051653Y-59900828D01*
X130051653Y-59900828D02*
X129765939Y-59900828D01*
X129765939Y-59900828D02*
X129623081Y-59829400D01*
X129623081Y-59829400D02*
X129551653Y-59686542D01*
X129551653Y-59686542D02*
X129551653Y-59115114D01*
X129551653Y-59115114D02*
X129623081Y-58972257D01*
X129623081Y-58972257D02*
X129765939Y-58900828D01*
X129765939Y-58900828D02*
X130051653Y-58900828D01*
X130051653Y-58900828D02*
X130194510Y-58972257D01*
X130194510Y-58972257D02*
X130265939Y-59115114D01*
X130265939Y-59115114D02*
X130265939Y-59257971D01*
X130265939Y-59257971D02*
X129551653Y-59400828D01*
X130908795Y-59900828D02*
X130908795Y-58900828D01*
X130908795Y-59043685D02*
X130980224Y-58972257D01*
X130980224Y-58972257D02*
X131123081Y-58900828D01*
X131123081Y-58900828D02*
X131337367Y-58900828D01*
X131337367Y-58900828D02*
X131480224Y-58972257D01*
X131480224Y-58972257D02*
X131551653Y-59115114D01*
X131551653Y-59115114D02*
X131551653Y-59900828D01*
X131551653Y-59115114D02*
X131623081Y-58972257D01*
X131623081Y-58972257D02*
X131765938Y-58900828D01*
X131765938Y-58900828D02*
X131980224Y-58900828D01*
X131980224Y-58900828D02*
X132123081Y-58972257D01*
X132123081Y-58972257D02*
X132194510Y-59115114D01*
X132194510Y-59115114D02*
X132194510Y-59900828D01*
X132908795Y-59900828D02*
X132908795Y-58400828D01*
X132908795Y-58972257D02*
X133051653Y-58900828D01*
X133051653Y-58900828D02*
X133337367Y-58900828D01*
X133337367Y-58900828D02*
X133480224Y-58972257D01*
X133480224Y-58972257D02*
X133551653Y-59043685D01*
X133551653Y-59043685D02*
X133623081Y-59186542D01*
X133623081Y-59186542D02*
X133623081Y-59615114D01*
X133623081Y-59615114D02*
X133551653Y-59757971D01*
X133551653Y-59757971D02*
X133480224Y-59829400D01*
X133480224Y-59829400D02*
X133337367Y-59900828D01*
X133337367Y-59900828D02*
X133051653Y-59900828D01*
X133051653Y-59900828D02*
X132908795Y-59829400D01*
X134837367Y-59829400D02*
X134694510Y-59900828D01*
X134694510Y-59900828D02*
X134408796Y-59900828D01*
X134408796Y-59900828D02*
X134265938Y-59829400D01*
X134265938Y-59829400D02*
X134194510Y-59686542D01*
X134194510Y-59686542D02*
X134194510Y-59115114D01*
X134194510Y-59115114D02*
X134265938Y-58972257D01*
X134265938Y-58972257D02*
X134408796Y-58900828D01*
X134408796Y-58900828D02*
X134694510Y-58900828D01*
X134694510Y-58900828D02*
X134837367Y-58972257D01*
X134837367Y-58972257D02*
X134908796Y-59115114D01*
X134908796Y-59115114D02*
X134908796Y-59257971D01*
X134908796Y-59257971D02*
X134194510Y-59400828D01*
X135551652Y-59900828D02*
X135551652Y-58900828D01*
X135551652Y-59186542D02*
X135623081Y-59043685D01*
X135623081Y-59043685D02*
X135694510Y-58972257D01*
X135694510Y-58972257D02*
X135837367Y-58900828D01*
X135837367Y-58900828D02*
X135980224Y-58900828D01*
X136480223Y-59757971D02*
X136551652Y-59829400D01*
X136551652Y-59829400D02*
X136480223Y-59900828D01*
X136480223Y-59900828D02*
X136408795Y-59829400D01*
X136408795Y-59829400D02*
X136480223Y-59757971D01*
X136480223Y-59757971D02*
X136480223Y-59900828D01*
X136480223Y-58972257D02*
X136551652Y-59043685D01*
X136551652Y-59043685D02*
X136480223Y-59115114D01*
X136480223Y-59115114D02*
X136408795Y-59043685D01*
X136408795Y-59043685D02*
X136480223Y-58972257D01*
X136480223Y-58972257D02*
X136480223Y-59115114D01*
X121551653Y-62315828D02*
X121051653Y-61601542D01*
X120694510Y-62315828D02*
X120694510Y-60815828D01*
X120694510Y-60815828D02*
X121265939Y-60815828D01*
X121265939Y-60815828D02*
X121408796Y-60887257D01*
X121408796Y-60887257D02*
X121480225Y-60958685D01*
X121480225Y-60958685D02*
X121551653Y-61101542D01*
X121551653Y-61101542D02*
X121551653Y-61315828D01*
X121551653Y-61315828D02*
X121480225Y-61458685D01*
X121480225Y-61458685D02*
X121408796Y-61530114D01*
X121408796Y-61530114D02*
X121265939Y-61601542D01*
X121265939Y-61601542D02*
X120694510Y-61601542D01*
X122837368Y-61315828D02*
X122837368Y-62315828D01*
X122194510Y-61315828D02*
X122194510Y-62101542D01*
X122194510Y-62101542D02*
X122265939Y-62244400D01*
X122265939Y-62244400D02*
X122408796Y-62315828D01*
X122408796Y-62315828D02*
X122623082Y-62315828D01*
X122623082Y-62315828D02*
X122765939Y-62244400D01*
X122765939Y-62244400D02*
X122837368Y-62172971D01*
X123408796Y-62315828D02*
X124194511Y-61315828D01*
X123408796Y-61315828D02*
X124194511Y-62315828D01*
X124765939Y-62315828D02*
X124765939Y-61315828D01*
X124765939Y-60815828D02*
X124694511Y-60887257D01*
X124694511Y-60887257D02*
X124765939Y-60958685D01*
X124765939Y-60958685D02*
X124837368Y-60887257D01*
X124837368Y-60887257D02*
X124765939Y-60815828D01*
X124765939Y-60815828D02*
X124765939Y-60958685D01*
X125480225Y-61315828D02*
X125480225Y-62315828D01*
X125480225Y-61458685D02*
X125551654Y-61387257D01*
X125551654Y-61387257D02*
X125694511Y-61315828D01*
X125694511Y-61315828D02*
X125908797Y-61315828D01*
X125908797Y-61315828D02*
X126051654Y-61387257D01*
X126051654Y-61387257D02*
X126123083Y-61530114D01*
X126123083Y-61530114D02*
X126123083Y-62315828D01*
X128694511Y-62315828D02*
X127980225Y-62315828D01*
X127980225Y-62315828D02*
X127980225Y-60815828D01*
X129194511Y-62315828D02*
X129194511Y-61315828D01*
X129194511Y-60815828D02*
X129123083Y-60887257D01*
X129123083Y-60887257D02*
X129194511Y-60958685D01*
X129194511Y-60958685D02*
X129265940Y-60887257D01*
X129265940Y-60887257D02*
X129194511Y-60815828D01*
X129194511Y-60815828D02*
X129194511Y-60958685D01*
X120551653Y-63230828D02*
X121551653Y-63230828D01*
X121551653Y-63230828D02*
X120551653Y-64730828D01*
X120551653Y-64730828D02*
X121551653Y-64730828D01*
X122123081Y-64730828D02*
X122123081Y-63230828D01*
X122765939Y-64730828D02*
X122765939Y-63945114D01*
X122765939Y-63945114D02*
X122694510Y-63802257D01*
X122694510Y-63802257D02*
X122551653Y-63730828D01*
X122551653Y-63730828D02*
X122337367Y-63730828D01*
X122337367Y-63730828D02*
X122194510Y-63802257D01*
X122194510Y-63802257D02*
X122123081Y-63873685D01*
X124123082Y-63730828D02*
X124123082Y-64730828D01*
X123480224Y-63730828D02*
X123480224Y-64516542D01*
X123480224Y-64516542D02*
X123551653Y-64659400D01*
X123551653Y-64659400D02*
X123694510Y-64730828D01*
X123694510Y-64730828D02*
X123908796Y-64730828D01*
X123908796Y-64730828D02*
X124051653Y-64659400D01*
X124051653Y-64659400D02*
X124123082Y-64587971D01*
X125051653Y-64730828D02*
X124908796Y-64659400D01*
X124908796Y-64659400D02*
X124837367Y-64587971D01*
X124837367Y-64587971D02*
X124765939Y-64445114D01*
X124765939Y-64445114D02*
X124765939Y-64016542D01*
X124765939Y-64016542D02*
X124837367Y-63873685D01*
X124837367Y-63873685D02*
X124908796Y-63802257D01*
X124908796Y-63802257D02*
X125051653Y-63730828D01*
X125051653Y-63730828D02*
X125265939Y-63730828D01*
X125265939Y-63730828D02*
X125408796Y-63802257D01*
X125408796Y-63802257D02*
X125480225Y-63873685D01*
X125480225Y-63873685D02*
X125551653Y-64016542D01*
X125551653Y-64016542D02*
X125551653Y-64445114D01*
X125551653Y-64445114D02*
X125480225Y-64587971D01*
X125480225Y-64587971D02*
X125408796Y-64659400D01*
X125408796Y-64659400D02*
X125265939Y-64730828D01*
X125265939Y-64730828D02*
X125051653Y-64730828D01*
X126837368Y-64659400D02*
X126694510Y-64730828D01*
X126694510Y-64730828D02*
X126408796Y-64730828D01*
X126408796Y-64730828D02*
X126265939Y-64659400D01*
X126265939Y-64659400D02*
X126194510Y-64587971D01*
X126194510Y-64587971D02*
X126123082Y-64445114D01*
X126123082Y-64445114D02*
X126123082Y-64016542D01*
X126123082Y-64016542D02*
X126194510Y-63873685D01*
X126194510Y-63873685D02*
X126265939Y-63802257D01*
X126265939Y-63802257D02*
X126408796Y-63730828D01*
X126408796Y-63730828D02*
X126694510Y-63730828D01*
X126694510Y-63730828D02*
X126837368Y-63802257D01*
X127694510Y-64730828D02*
X127551653Y-64659400D01*
X127551653Y-64659400D02*
X127480224Y-64587971D01*
X127480224Y-64587971D02*
X127408796Y-64445114D01*
X127408796Y-64445114D02*
X127408796Y-64016542D01*
X127408796Y-64016542D02*
X127480224Y-63873685D01*
X127480224Y-63873685D02*
X127551653Y-63802257D01*
X127551653Y-63802257D02*
X127694510Y-63730828D01*
X127694510Y-63730828D02*
X127908796Y-63730828D01*
X127908796Y-63730828D02*
X128051653Y-63802257D01*
X128051653Y-63802257D02*
X128123082Y-63873685D01*
X128123082Y-63873685D02*
X128194510Y-64016542D01*
X128194510Y-64016542D02*
X128194510Y-64445114D01*
X128194510Y-64445114D02*
X128123082Y-64587971D01*
X128123082Y-64587971D02*
X128051653Y-64659400D01*
X128051653Y-64659400D02*
X127908796Y-64730828D01*
X127908796Y-64730828D02*
X127694510Y-64730828D01*
X128837367Y-63730828D02*
X128837367Y-64730828D01*
X128837367Y-63873685D02*
X128908796Y-63802257D01*
X128908796Y-63802257D02*
X129051653Y-63730828D01*
X129051653Y-63730828D02*
X129265939Y-63730828D01*
X129265939Y-63730828D02*
X129408796Y-63802257D01*
X129408796Y-63802257D02*
X129480225Y-63945114D01*
X129480225Y-63945114D02*
X129480225Y-64730828D01*
X130837368Y-63730828D02*
X130837368Y-64945114D01*
X130837368Y-64945114D02*
X130765939Y-65087971D01*
X130765939Y-65087971D02*
X130694510Y-65159400D01*
X130694510Y-65159400D02*
X130551653Y-65230828D01*
X130551653Y-65230828D02*
X130337368Y-65230828D01*
X130337368Y-65230828D02*
X130194510Y-65159400D01*
X130837368Y-64659400D02*
X130694510Y-64730828D01*
X130694510Y-64730828D02*
X130408796Y-64730828D01*
X130408796Y-64730828D02*
X130265939Y-64659400D01*
X130265939Y-64659400D02*
X130194510Y-64587971D01*
X130194510Y-64587971D02*
X130123082Y-64445114D01*
X130123082Y-64445114D02*
X130123082Y-64016542D01*
X130123082Y-64016542D02*
X130194510Y-63873685D01*
X130194510Y-63873685D02*
X130265939Y-63802257D01*
X130265939Y-63802257D02*
X130408796Y-63730828D01*
X130408796Y-63730828D02*
X130694510Y-63730828D01*
X130694510Y-63730828D02*
X130837368Y-63802257D01*
X133408796Y-64730828D02*
X132694510Y-64730828D01*
X132694510Y-64730828D02*
X132694510Y-63230828D01*
X133908796Y-64730828D02*
X133908796Y-63730828D01*
X133908796Y-63230828D02*
X133837368Y-63302257D01*
X133837368Y-63302257D02*
X133908796Y-63373685D01*
X133908796Y-63373685D02*
X133980225Y-63302257D01*
X133980225Y-63302257D02*
X133908796Y-63230828D01*
X133908796Y-63230828D02*
X133908796Y-63373685D01*
X120623082Y-67074400D02*
X120837368Y-67145828D01*
X120837368Y-67145828D02*
X121194510Y-67145828D01*
X121194510Y-67145828D02*
X121337368Y-67074400D01*
X121337368Y-67074400D02*
X121408796Y-67002971D01*
X121408796Y-67002971D02*
X121480225Y-66860114D01*
X121480225Y-66860114D02*
X121480225Y-66717257D01*
X121480225Y-66717257D02*
X121408796Y-66574400D01*
X121408796Y-66574400D02*
X121337368Y-66502971D01*
X121337368Y-66502971D02*
X121194510Y-66431542D01*
X121194510Y-66431542D02*
X120908796Y-66360114D01*
X120908796Y-66360114D02*
X120765939Y-66288685D01*
X120765939Y-66288685D02*
X120694510Y-66217257D01*
X120694510Y-66217257D02*
X120623082Y-66074400D01*
X120623082Y-66074400D02*
X120623082Y-65931542D01*
X120623082Y-65931542D02*
X120694510Y-65788685D01*
X120694510Y-65788685D02*
X120765939Y-65717257D01*
X120765939Y-65717257D02*
X120908796Y-65645828D01*
X120908796Y-65645828D02*
X121265939Y-65645828D01*
X121265939Y-65645828D02*
X121480225Y-65717257D01*
X122123081Y-67145828D02*
X122123081Y-66145828D01*
X122123081Y-65645828D02*
X122051653Y-65717257D01*
X122051653Y-65717257D02*
X122123081Y-65788685D01*
X122123081Y-65788685D02*
X122194510Y-65717257D01*
X122194510Y-65717257D02*
X122123081Y-65645828D01*
X122123081Y-65645828D02*
X122123081Y-65788685D01*
X123051653Y-67145828D02*
X122908796Y-67074400D01*
X122908796Y-67074400D02*
X122837367Y-66931542D01*
X122837367Y-66931542D02*
X122837367Y-65645828D01*
X123623081Y-67145828D02*
X123623081Y-66145828D01*
X123623081Y-65645828D02*
X123551653Y-65717257D01*
X123551653Y-65717257D02*
X123623081Y-65788685D01*
X123623081Y-65788685D02*
X123694510Y-65717257D01*
X123694510Y-65717257D02*
X123623081Y-65645828D01*
X123623081Y-65645828D02*
X123623081Y-65788685D01*
X124337367Y-66145828D02*
X124337367Y-67145828D01*
X124337367Y-66288685D02*
X124408796Y-66217257D01*
X124408796Y-66217257D02*
X124551653Y-66145828D01*
X124551653Y-66145828D02*
X124765939Y-66145828D01*
X124765939Y-66145828D02*
X124908796Y-66217257D01*
X124908796Y-66217257D02*
X124980225Y-66360114D01*
X124980225Y-66360114D02*
X124980225Y-67145828D01*
X127551653Y-67145828D02*
X126837367Y-67145828D01*
X126837367Y-67145828D02*
X126837367Y-65645828D01*
X128051653Y-67145828D02*
X128051653Y-66145828D01*
X128051653Y-65645828D02*
X127980225Y-65717257D01*
X127980225Y-65717257D02*
X128051653Y-65788685D01*
X128051653Y-65788685D02*
X128123082Y-65717257D01*
X128123082Y-65717257D02*
X128051653Y-65645828D01*
X128051653Y-65645828D02*
X128051653Y-65788685D01*
X121408796Y-69560828D02*
X120694510Y-69560828D01*
X120694510Y-69560828D02*
X120694510Y-68060828D01*
X121908796Y-69560828D02*
X121908796Y-68560828D01*
X121908796Y-68060828D02*
X121837368Y-68132257D01*
X121837368Y-68132257D02*
X121908796Y-68203685D01*
X121908796Y-68203685D02*
X121980225Y-68132257D01*
X121980225Y-68132257D02*
X121908796Y-68060828D01*
X121908796Y-68060828D02*
X121908796Y-68203685D01*
X123265940Y-69560828D02*
X123265940Y-68775114D01*
X123265940Y-68775114D02*
X123194511Y-68632257D01*
X123194511Y-68632257D02*
X123051654Y-68560828D01*
X123051654Y-68560828D02*
X122765940Y-68560828D01*
X122765940Y-68560828D02*
X122623082Y-68632257D01*
X123265940Y-69489400D02*
X123123082Y-69560828D01*
X123123082Y-69560828D02*
X122765940Y-69560828D01*
X122765940Y-69560828D02*
X122623082Y-69489400D01*
X122623082Y-69489400D02*
X122551654Y-69346542D01*
X122551654Y-69346542D02*
X122551654Y-69203685D01*
X122551654Y-69203685D02*
X122623082Y-69060828D01*
X122623082Y-69060828D02*
X122765940Y-68989400D01*
X122765940Y-68989400D02*
X123123082Y-68989400D01*
X123123082Y-68989400D02*
X123265940Y-68917971D01*
X123980225Y-68560828D02*
X123980225Y-69560828D01*
X123980225Y-68703685D02*
X124051654Y-68632257D01*
X124051654Y-68632257D02*
X124194511Y-68560828D01*
X124194511Y-68560828D02*
X124408797Y-68560828D01*
X124408797Y-68560828D02*
X124551654Y-68632257D01*
X124551654Y-68632257D02*
X124623083Y-68775114D01*
X124623083Y-68775114D02*
X124623083Y-69560828D01*
X125980226Y-68560828D02*
X125980226Y-69775114D01*
X125980226Y-69775114D02*
X125908797Y-69917971D01*
X125908797Y-69917971D02*
X125837368Y-69989400D01*
X125837368Y-69989400D02*
X125694511Y-70060828D01*
X125694511Y-70060828D02*
X125480226Y-70060828D01*
X125480226Y-70060828D02*
X125337368Y-69989400D01*
X125980226Y-69489400D02*
X125837368Y-69560828D01*
X125837368Y-69560828D02*
X125551654Y-69560828D01*
X125551654Y-69560828D02*
X125408797Y-69489400D01*
X125408797Y-69489400D02*
X125337368Y-69417971D01*
X125337368Y-69417971D02*
X125265940Y-69275114D01*
X125265940Y-69275114D02*
X125265940Y-68846542D01*
X125265940Y-68846542D02*
X125337368Y-68703685D01*
X125337368Y-68703685D02*
X125408797Y-68632257D01*
X125408797Y-68632257D02*
X125551654Y-68560828D01*
X125551654Y-68560828D02*
X125837368Y-68560828D01*
X125837368Y-68560828D02*
X125980226Y-68632257D01*
X127337369Y-69489400D02*
X127194511Y-69560828D01*
X127194511Y-69560828D02*
X126908797Y-69560828D01*
X126908797Y-69560828D02*
X126765940Y-69489400D01*
X126765940Y-69489400D02*
X126694511Y-69417971D01*
X126694511Y-69417971D02*
X126623083Y-69275114D01*
X126623083Y-69275114D02*
X126623083Y-68846542D01*
X126623083Y-68846542D02*
X126694511Y-68703685D01*
X126694511Y-68703685D02*
X126765940Y-68632257D01*
X126765940Y-68632257D02*
X126908797Y-68560828D01*
X126908797Y-68560828D02*
X127194511Y-68560828D01*
X127194511Y-68560828D02*
X127337369Y-68632257D01*
X127980225Y-69560828D02*
X127980225Y-68060828D01*
X128623083Y-69560828D02*
X128623083Y-68775114D01*
X128623083Y-68775114D02*
X128551654Y-68632257D01*
X128551654Y-68632257D02*
X128408797Y-68560828D01*
X128408797Y-68560828D02*
X128194511Y-68560828D01*
X128194511Y-68560828D02*
X128051654Y-68632257D01*
X128051654Y-68632257D02*
X127980225Y-68703685D01*
X129908797Y-69489400D02*
X129765940Y-69560828D01*
X129765940Y-69560828D02*
X129480226Y-69560828D01*
X129480226Y-69560828D02*
X129337368Y-69489400D01*
X129337368Y-69489400D02*
X129265940Y-69346542D01*
X129265940Y-69346542D02*
X129265940Y-68775114D01*
X129265940Y-68775114D02*
X129337368Y-68632257D01*
X129337368Y-68632257D02*
X129480226Y-68560828D01*
X129480226Y-68560828D02*
X129765940Y-68560828D01*
X129765940Y-68560828D02*
X129908797Y-68632257D01*
X129908797Y-68632257D02*
X129980226Y-68775114D01*
X129980226Y-68775114D02*
X129980226Y-68917971D01*
X129980226Y-68917971D02*
X129265940Y-69060828D01*
X130623082Y-68560828D02*
X130623082Y-69560828D01*
X130623082Y-68703685D02*
X130694511Y-68632257D01*
X130694511Y-68632257D02*
X130837368Y-68560828D01*
X130837368Y-68560828D02*
X131051654Y-68560828D01*
X131051654Y-68560828D02*
X131194511Y-68632257D01*
X131194511Y-68632257D02*
X131265940Y-68775114D01*
X131265940Y-68775114D02*
X131265940Y-69560828D01*
X132623083Y-68560828D02*
X132623083Y-69775114D01*
X132623083Y-69775114D02*
X132551654Y-69917971D01*
X132551654Y-69917971D02*
X132480225Y-69989400D01*
X132480225Y-69989400D02*
X132337368Y-70060828D01*
X132337368Y-70060828D02*
X132123083Y-70060828D01*
X132123083Y-70060828D02*
X131980225Y-69989400D01*
X132623083Y-69489400D02*
X132480225Y-69560828D01*
X132480225Y-69560828D02*
X132194511Y-69560828D01*
X132194511Y-69560828D02*
X132051654Y-69489400D01*
X132051654Y-69489400D02*
X131980225Y-69417971D01*
X131980225Y-69417971D02*
X131908797Y-69275114D01*
X131908797Y-69275114D02*
X131908797Y-68846542D01*
X131908797Y-68846542D02*
X131980225Y-68703685D01*
X131980225Y-68703685D02*
X132051654Y-68632257D01*
X132051654Y-68632257D02*
X132194511Y-68560828D01*
X132194511Y-68560828D02*
X132480225Y-68560828D01*
X132480225Y-68560828D02*
X132623083Y-68632257D01*
X134908797Y-68060828D02*
X134908797Y-69132257D01*
X134908797Y-69132257D02*
X134837368Y-69346542D01*
X134837368Y-69346542D02*
X134694511Y-69489400D01*
X134694511Y-69489400D02*
X134480225Y-69560828D01*
X134480225Y-69560828D02*
X134337368Y-69560828D01*
X135623082Y-69560828D02*
X135623082Y-68560828D01*
X135623082Y-68060828D02*
X135551654Y-68132257D01*
X135551654Y-68132257D02*
X135623082Y-68203685D01*
X135623082Y-68203685D02*
X135694511Y-68132257D01*
X135694511Y-68132257D02*
X135623082Y-68060828D01*
X135623082Y-68060828D02*
X135623082Y-68203685D01*
X136980226Y-69560828D02*
X136980226Y-68775114D01*
X136980226Y-68775114D02*
X136908797Y-68632257D01*
X136908797Y-68632257D02*
X136765940Y-68560828D01*
X136765940Y-68560828D02*
X136480226Y-68560828D01*
X136480226Y-68560828D02*
X136337368Y-68632257D01*
X136980226Y-69489400D02*
X136837368Y-69560828D01*
X136837368Y-69560828D02*
X136480226Y-69560828D01*
X136480226Y-69560828D02*
X136337368Y-69489400D01*
X136337368Y-69489400D02*
X136265940Y-69346542D01*
X136265940Y-69346542D02*
X136265940Y-69203685D01*
X136265940Y-69203685D02*
X136337368Y-69060828D01*
X136337368Y-69060828D02*
X136480226Y-68989400D01*
X136480226Y-68989400D02*
X136837368Y-68989400D01*
X136837368Y-68989400D02*
X136980226Y-68917971D01*
X137694511Y-68560828D02*
X137694511Y-69560828D01*
X137694511Y-68703685D02*
X137765940Y-68632257D01*
X137765940Y-68632257D02*
X137908797Y-68560828D01*
X137908797Y-68560828D02*
X138123083Y-68560828D01*
X138123083Y-68560828D02*
X138265940Y-68632257D01*
X138265940Y-68632257D02*
X138337369Y-68775114D01*
X138337369Y-68775114D02*
X138337369Y-69560828D01*
X139694512Y-68560828D02*
X139694512Y-69775114D01*
X139694512Y-69775114D02*
X139623083Y-69917971D01*
X139623083Y-69917971D02*
X139551654Y-69989400D01*
X139551654Y-69989400D02*
X139408797Y-70060828D01*
X139408797Y-70060828D02*
X139194512Y-70060828D01*
X139194512Y-70060828D02*
X139051654Y-69989400D01*
X139694512Y-69489400D02*
X139551654Y-69560828D01*
X139551654Y-69560828D02*
X139265940Y-69560828D01*
X139265940Y-69560828D02*
X139123083Y-69489400D01*
X139123083Y-69489400D02*
X139051654Y-69417971D01*
X139051654Y-69417971D02*
X138980226Y-69275114D01*
X138980226Y-69275114D02*
X138980226Y-68846542D01*
X138980226Y-68846542D02*
X139051654Y-68703685D01*
X139051654Y-68703685D02*
X139123083Y-68632257D01*
X139123083Y-68632257D02*
X139265940Y-68560828D01*
X139265940Y-68560828D02*
X139551654Y-68560828D01*
X139551654Y-68560828D02*
X139694512Y-68632257D01*
D11*
X104342856Y-224974819D02*
X104342856Y-225689104D01*
X104342856Y-225689104D02*
X104295237Y-225831961D01*
X104295237Y-225831961D02*
X104199999Y-225927200D01*
X104199999Y-225927200D02*
X104057142Y-225974819D01*
X104057142Y-225974819D02*
X103961904Y-225974819D01*
X105199999Y-225927200D02*
X105104761Y-225974819D01*
X105104761Y-225974819D02*
X104914285Y-225974819D01*
X104914285Y-225974819D02*
X104819047Y-225927200D01*
X104819047Y-225927200D02*
X104771428Y-225831961D01*
X104771428Y-225831961D02*
X104771428Y-225451009D01*
X104771428Y-225451009D02*
X104819047Y-225355771D01*
X104819047Y-225355771D02*
X104914285Y-225308152D01*
X104914285Y-225308152D02*
X105104761Y-225308152D01*
X105104761Y-225308152D02*
X105199999Y-225355771D01*
X105199999Y-225355771D02*
X105247618Y-225451009D01*
X105247618Y-225451009D02*
X105247618Y-225546247D01*
X105247618Y-225546247D02*
X104771428Y-225641485D01*
X105533333Y-225308152D02*
X105914285Y-225308152D01*
X105676190Y-224974819D02*
X105676190Y-225831961D01*
X105676190Y-225831961D02*
X105723809Y-225927200D01*
X105723809Y-225927200D02*
X105819047Y-225974819D01*
X105819047Y-225974819D02*
X105914285Y-225974819D01*
X106200000Y-225927200D02*
X106295238Y-225974819D01*
X106295238Y-225974819D02*
X106485714Y-225974819D01*
X106485714Y-225974819D02*
X106580952Y-225927200D01*
X106580952Y-225927200D02*
X106628571Y-225831961D01*
X106628571Y-225831961D02*
X106628571Y-225784342D01*
X106628571Y-225784342D02*
X106580952Y-225689104D01*
X106580952Y-225689104D02*
X106485714Y-225641485D01*
X106485714Y-225641485D02*
X106342857Y-225641485D01*
X106342857Y-225641485D02*
X106247619Y-225593866D01*
X106247619Y-225593866D02*
X106200000Y-225498628D01*
X106200000Y-225498628D02*
X106200000Y-225451009D01*
X106200000Y-225451009D02*
X106247619Y-225355771D01*
X106247619Y-225355771D02*
X106342857Y-225308152D01*
X106342857Y-225308152D02*
X106485714Y-225308152D01*
X106485714Y-225308152D02*
X106580952Y-225355771D01*
X107200000Y-225974819D02*
X107104762Y-225927200D01*
X107104762Y-225927200D02*
X107057143Y-225879580D01*
X107057143Y-225879580D02*
X107009524Y-225784342D01*
X107009524Y-225784342D02*
X107009524Y-225498628D01*
X107009524Y-225498628D02*
X107057143Y-225403390D01*
X107057143Y-225403390D02*
X107104762Y-225355771D01*
X107104762Y-225355771D02*
X107200000Y-225308152D01*
X107200000Y-225308152D02*
X107342857Y-225308152D01*
X107342857Y-225308152D02*
X107438095Y-225355771D01*
X107438095Y-225355771D02*
X107485714Y-225403390D01*
X107485714Y-225403390D02*
X107533333Y-225498628D01*
X107533333Y-225498628D02*
X107533333Y-225784342D01*
X107533333Y-225784342D02*
X107485714Y-225879580D01*
X107485714Y-225879580D02*
X107438095Y-225927200D01*
X107438095Y-225927200D02*
X107342857Y-225974819D01*
X107342857Y-225974819D02*
X107200000Y-225974819D01*
X107961905Y-225308152D02*
X107961905Y-225974819D01*
X107961905Y-225403390D02*
X108009524Y-225355771D01*
X108009524Y-225355771D02*
X108104762Y-225308152D01*
X108104762Y-225308152D02*
X108247619Y-225308152D01*
X108247619Y-225308152D02*
X108342857Y-225355771D01*
X108342857Y-225355771D02*
X108390476Y-225451009D01*
X108390476Y-225451009D02*
X108390476Y-225974819D01*
X109390476Y-225974819D02*
X108819048Y-225974819D01*
X109104762Y-225974819D02*
X109104762Y-224974819D01*
X109104762Y-224974819D02*
X109009524Y-225117676D01*
X109009524Y-225117676D02*
X108914286Y-225212914D01*
X108914286Y-225212914D02*
X108819048Y-225260533D01*
X103226667Y-73794819D02*
X103226667Y-72794819D01*
X103226667Y-72794819D02*
X103560000Y-73509104D01*
X103560000Y-73509104D02*
X103893333Y-72794819D01*
X103893333Y-72794819D02*
X103893333Y-73794819D01*
X104940952Y-73699580D02*
X104893333Y-73747200D01*
X104893333Y-73747200D02*
X104750476Y-73794819D01*
X104750476Y-73794819D02*
X104655238Y-73794819D01*
X104655238Y-73794819D02*
X104512381Y-73747200D01*
X104512381Y-73747200D02*
X104417143Y-73651961D01*
X104417143Y-73651961D02*
X104369524Y-73556723D01*
X104369524Y-73556723D02*
X104321905Y-73366247D01*
X104321905Y-73366247D02*
X104321905Y-73223390D01*
X104321905Y-73223390D02*
X104369524Y-73032914D01*
X104369524Y-73032914D02*
X104417143Y-72937676D01*
X104417143Y-72937676D02*
X104512381Y-72842438D01*
X104512381Y-72842438D02*
X104655238Y-72794819D01*
X104655238Y-72794819D02*
X104750476Y-72794819D01*
X104750476Y-72794819D02*
X104893333Y-72842438D01*
X104893333Y-72842438D02*
X104940952Y-72890057D01*
X105369524Y-72794819D02*
X105369524Y-73604342D01*
X105369524Y-73604342D02*
X105417143Y-73699580D01*
X105417143Y-73699580D02*
X105464762Y-73747200D01*
X105464762Y-73747200D02*
X105560000Y-73794819D01*
X105560000Y-73794819D02*
X105750476Y-73794819D01*
X105750476Y-73794819D02*
X105845714Y-73747200D01*
X105845714Y-73747200D02*
X105893333Y-73699580D01*
X105893333Y-73699580D02*
X105940952Y-73604342D01*
X105940952Y-73604342D02*
X105940952Y-72794819D01*
X106940952Y-73794819D02*
X106369524Y-73794819D01*
X106655238Y-73794819D02*
X106655238Y-72794819D01*
X106655238Y-72794819D02*
X106560000Y-72937676D01*
X106560000Y-72937676D02*
X106464762Y-73032914D01*
X106464762Y-73032914D02*
X106369524Y-73080533D01*
X153864286Y-69317200D02*
X154007143Y-69364819D01*
X154007143Y-69364819D02*
X154245238Y-69364819D01*
X154245238Y-69364819D02*
X154340476Y-69317200D01*
X154340476Y-69317200D02*
X154388095Y-69269580D01*
X154388095Y-69269580D02*
X154435714Y-69174342D01*
X154435714Y-69174342D02*
X154435714Y-69079104D01*
X154435714Y-69079104D02*
X154388095Y-68983866D01*
X154388095Y-68983866D02*
X154340476Y-68936247D01*
X154340476Y-68936247D02*
X154245238Y-68888628D01*
X154245238Y-68888628D02*
X154054762Y-68841009D01*
X154054762Y-68841009D02*
X153959524Y-68793390D01*
X153959524Y-68793390D02*
X153911905Y-68745771D01*
X153911905Y-68745771D02*
X153864286Y-68650533D01*
X153864286Y-68650533D02*
X153864286Y-68555295D01*
X153864286Y-68555295D02*
X153911905Y-68460057D01*
X153911905Y-68460057D02*
X153959524Y-68412438D01*
X153959524Y-68412438D02*
X154054762Y-68364819D01*
X154054762Y-68364819D02*
X154292857Y-68364819D01*
X154292857Y-68364819D02*
X154435714Y-68412438D01*
X155245238Y-69317200D02*
X155150000Y-69364819D01*
X155150000Y-69364819D02*
X154959524Y-69364819D01*
X154959524Y-69364819D02*
X154864286Y-69317200D01*
X154864286Y-69317200D02*
X154816667Y-69221961D01*
X154816667Y-69221961D02*
X154816667Y-68841009D01*
X154816667Y-68841009D02*
X154864286Y-68745771D01*
X154864286Y-68745771D02*
X154959524Y-68698152D01*
X154959524Y-68698152D02*
X155150000Y-68698152D01*
X155150000Y-68698152D02*
X155245238Y-68745771D01*
X155245238Y-68745771D02*
X155292857Y-68841009D01*
X155292857Y-68841009D02*
X155292857Y-68936247D01*
X155292857Y-68936247D02*
X154816667Y-69031485D01*
X155721429Y-69364819D02*
X155721429Y-68698152D01*
X155721429Y-68888628D02*
X155769048Y-68793390D01*
X155769048Y-68793390D02*
X155816667Y-68745771D01*
X155816667Y-68745771D02*
X155911905Y-68698152D01*
X155911905Y-68698152D02*
X156007143Y-68698152D01*
X156245239Y-68698152D02*
X156483334Y-69364819D01*
X156483334Y-69364819D02*
X156721429Y-68698152D01*
X157245239Y-69364819D02*
X157150001Y-69317200D01*
X157150001Y-69317200D02*
X157102382Y-69269580D01*
X157102382Y-69269580D02*
X157054763Y-69174342D01*
X157054763Y-69174342D02*
X157054763Y-68888628D01*
X157054763Y-68888628D02*
X157102382Y-68793390D01*
X157102382Y-68793390D02*
X157150001Y-68745771D01*
X157150001Y-68745771D02*
X157245239Y-68698152D01*
X157245239Y-68698152D02*
X157388096Y-68698152D01*
X157388096Y-68698152D02*
X157483334Y-68745771D01*
X157483334Y-68745771D02*
X157530953Y-68793390D01*
X157530953Y-68793390D02*
X157578572Y-68888628D01*
X157578572Y-68888628D02*
X157578572Y-69174342D01*
X157578572Y-69174342D02*
X157530953Y-69269580D01*
X157530953Y-69269580D02*
X157483334Y-69317200D01*
X157483334Y-69317200D02*
X157388096Y-69364819D01*
X157388096Y-69364819D02*
X157245239Y-69364819D01*
X157769049Y-69460057D02*
X158530953Y-69460057D01*
X158721430Y-69317200D02*
X158864287Y-69364819D01*
X158864287Y-69364819D02*
X159102382Y-69364819D01*
X159102382Y-69364819D02*
X159197620Y-69317200D01*
X159197620Y-69317200D02*
X159245239Y-69269580D01*
X159245239Y-69269580D02*
X159292858Y-69174342D01*
X159292858Y-69174342D02*
X159292858Y-69079104D01*
X159292858Y-69079104D02*
X159245239Y-68983866D01*
X159245239Y-68983866D02*
X159197620Y-68936247D01*
X159197620Y-68936247D02*
X159102382Y-68888628D01*
X159102382Y-68888628D02*
X158911906Y-68841009D01*
X158911906Y-68841009D02*
X158816668Y-68793390D01*
X158816668Y-68793390D02*
X158769049Y-68745771D01*
X158769049Y-68745771D02*
X158721430Y-68650533D01*
X158721430Y-68650533D02*
X158721430Y-68555295D01*
X158721430Y-68555295D02*
X158769049Y-68460057D01*
X158769049Y-68460057D02*
X158816668Y-68412438D01*
X158816668Y-68412438D02*
X158911906Y-68364819D01*
X158911906Y-68364819D02*
X159150001Y-68364819D01*
X159150001Y-68364819D02*
X159292858Y-68412438D01*
X159721430Y-69364819D02*
X159721430Y-68364819D01*
X160150001Y-69364819D02*
X160150001Y-68841009D01*
X160150001Y-68841009D02*
X160102382Y-68745771D01*
X160102382Y-68745771D02*
X160007144Y-68698152D01*
X160007144Y-68698152D02*
X159864287Y-68698152D01*
X159864287Y-68698152D02*
X159769049Y-68745771D01*
X159769049Y-68745771D02*
X159721430Y-68793390D01*
X160626192Y-69364819D02*
X160626192Y-68698152D01*
X160626192Y-68364819D02*
X160578573Y-68412438D01*
X160578573Y-68412438D02*
X160626192Y-68460057D01*
X160626192Y-68460057D02*
X160673811Y-68412438D01*
X160673811Y-68412438D02*
X160626192Y-68364819D01*
X160626192Y-68364819D02*
X160626192Y-68460057D01*
X160959525Y-68698152D02*
X161340477Y-68698152D01*
X161102382Y-69364819D02*
X161102382Y-68507676D01*
X161102382Y-68507676D02*
X161150001Y-68412438D01*
X161150001Y-68412438D02*
X161245239Y-68364819D01*
X161245239Y-68364819D02*
X161340477Y-68364819D01*
X161530954Y-68698152D02*
X161911906Y-68698152D01*
X161673811Y-68364819D02*
X161673811Y-69221961D01*
X161673811Y-69221961D02*
X161721430Y-69317200D01*
X161721430Y-69317200D02*
X161816668Y-69364819D01*
X161816668Y-69364819D02*
X161911906Y-69364819D01*
X162769049Y-69364819D02*
X162197621Y-69364819D01*
X162483335Y-69364819D02*
X162483335Y-68364819D01*
X162483335Y-68364819D02*
X162388097Y-68507676D01*
X162388097Y-68507676D02*
X162292859Y-68602914D01*
X162292859Y-68602914D02*
X162197621Y-68650533D01*
X104184763Y-227944819D02*
X104184763Y-226944819D01*
X104184763Y-227421009D02*
X104756191Y-227421009D01*
X104756191Y-227944819D02*
X104756191Y-226944819D01*
X105137144Y-226944819D02*
X105756191Y-226944819D01*
X105756191Y-226944819D02*
X105422858Y-227325771D01*
X105422858Y-227325771D02*
X105565715Y-227325771D01*
X105565715Y-227325771D02*
X105660953Y-227373390D01*
X105660953Y-227373390D02*
X105708572Y-227421009D01*
X105708572Y-227421009D02*
X105756191Y-227516247D01*
X105756191Y-227516247D02*
X105756191Y-227754342D01*
X105756191Y-227754342D02*
X105708572Y-227849580D01*
X105708572Y-227849580D02*
X105660953Y-227897200D01*
X105660953Y-227897200D02*
X105565715Y-227944819D01*
X105565715Y-227944819D02*
X105280001Y-227944819D01*
X105280001Y-227944819D02*
X105184763Y-227897200D01*
X105184763Y-227897200D02*
X105137144Y-227849580D01*
D12*
X214637419Y-106518571D02*
X214637419Y-106709047D01*
X214637419Y-106709047D02*
X214685038Y-106804285D01*
X214685038Y-106804285D02*
X214732657Y-106851904D01*
X214732657Y-106851904D02*
X214875514Y-106947142D01*
X214875514Y-106947142D02*
X215065990Y-106994761D01*
X215065990Y-106994761D02*
X215446942Y-106994761D01*
X215446942Y-106994761D02*
X215542180Y-106947142D01*
X215542180Y-106947142D02*
X215589800Y-106899523D01*
X215589800Y-106899523D02*
X215637419Y-106804285D01*
X215637419Y-106804285D02*
X215637419Y-106613809D01*
X215637419Y-106613809D02*
X215589800Y-106518571D01*
X215589800Y-106518571D02*
X215542180Y-106470952D01*
X215542180Y-106470952D02*
X215446942Y-106423333D01*
X215446942Y-106423333D02*
X215208847Y-106423333D01*
X215208847Y-106423333D02*
X215113609Y-106470952D01*
X215113609Y-106470952D02*
X215065990Y-106518571D01*
X215065990Y-106518571D02*
X215018371Y-106613809D01*
X215018371Y-106613809D02*
X215018371Y-106804285D01*
X215018371Y-106804285D02*
X215065990Y-106899523D01*
X215065990Y-106899523D02*
X215113609Y-106947142D01*
X215113609Y-106947142D02*
X215208847Y-106994761D01*
X215542180Y-105994761D02*
X215589800Y-105947142D01*
X215589800Y-105947142D02*
X215637419Y-105994761D01*
X215637419Y-105994761D02*
X215589800Y-106042380D01*
X215589800Y-106042380D02*
X215542180Y-105994761D01*
X215542180Y-105994761D02*
X215637419Y-105994761D01*
X215065990Y-105375714D02*
X215018371Y-105470952D01*
X215018371Y-105470952D02*
X214970752Y-105518571D01*
X214970752Y-105518571D02*
X214875514Y-105566190D01*
X214875514Y-105566190D02*
X214827895Y-105566190D01*
X214827895Y-105566190D02*
X214732657Y-105518571D01*
X214732657Y-105518571D02*
X214685038Y-105470952D01*
X214685038Y-105470952D02*
X214637419Y-105375714D01*
X214637419Y-105375714D02*
X214637419Y-105185238D01*
X214637419Y-105185238D02*
X214685038Y-105090000D01*
X214685038Y-105090000D02*
X214732657Y-105042381D01*
X214732657Y-105042381D02*
X214827895Y-104994762D01*
X214827895Y-104994762D02*
X214875514Y-104994762D01*
X214875514Y-104994762D02*
X214970752Y-105042381D01*
X214970752Y-105042381D02*
X215018371Y-105090000D01*
X215018371Y-105090000D02*
X215065990Y-105185238D01*
X215065990Y-105185238D02*
X215065990Y-105375714D01*
X215065990Y-105375714D02*
X215113609Y-105470952D01*
X215113609Y-105470952D02*
X215161228Y-105518571D01*
X215161228Y-105518571D02*
X215256466Y-105566190D01*
X215256466Y-105566190D02*
X215446942Y-105566190D01*
X215446942Y-105566190D02*
X215542180Y-105518571D01*
X215542180Y-105518571D02*
X215589800Y-105470952D01*
X215589800Y-105470952D02*
X215637419Y-105375714D01*
X215637419Y-105375714D02*
X215637419Y-105185238D01*
X215637419Y-105185238D02*
X215589800Y-105090000D01*
X215589800Y-105090000D02*
X215542180Y-105042381D01*
X215542180Y-105042381D02*
X215446942Y-104994762D01*
X215446942Y-104994762D02*
X215256466Y-104994762D01*
X215256466Y-104994762D02*
X215161228Y-105042381D01*
X215161228Y-105042381D02*
X215113609Y-105090000D01*
X215113609Y-105090000D02*
X215065990Y-105185238D01*
X214637419Y-104709047D02*
X215637419Y-104375714D01*
X215637419Y-104375714D02*
X214637419Y-104042381D01*
X214637419Y-103804285D02*
X214637419Y-103185238D01*
X214637419Y-103185238D02*
X215018371Y-103518571D01*
X215018371Y-103518571D02*
X215018371Y-103375714D01*
X215018371Y-103375714D02*
X215065990Y-103280476D01*
X215065990Y-103280476D02*
X215113609Y-103232857D01*
X215113609Y-103232857D02*
X215208847Y-103185238D01*
X215208847Y-103185238D02*
X215446942Y-103185238D01*
X215446942Y-103185238D02*
X215542180Y-103232857D01*
X215542180Y-103232857D02*
X215589800Y-103280476D01*
X215589800Y-103280476D02*
X215637419Y-103375714D01*
X215637419Y-103375714D02*
X215637419Y-103661428D01*
X215637419Y-103661428D02*
X215589800Y-103756666D01*
X215589800Y-103756666D02*
X215542180Y-103804285D01*
X140487419Y-106718571D02*
X140487419Y-106909047D01*
X140487419Y-106909047D02*
X140535038Y-107004285D01*
X140535038Y-107004285D02*
X140582657Y-107051904D01*
X140582657Y-107051904D02*
X140725514Y-107147142D01*
X140725514Y-107147142D02*
X140915990Y-107194761D01*
X140915990Y-107194761D02*
X141296942Y-107194761D01*
X141296942Y-107194761D02*
X141392180Y-107147142D01*
X141392180Y-107147142D02*
X141439800Y-107099523D01*
X141439800Y-107099523D02*
X141487419Y-107004285D01*
X141487419Y-107004285D02*
X141487419Y-106813809D01*
X141487419Y-106813809D02*
X141439800Y-106718571D01*
X141439800Y-106718571D02*
X141392180Y-106670952D01*
X141392180Y-106670952D02*
X141296942Y-106623333D01*
X141296942Y-106623333D02*
X141058847Y-106623333D01*
X141058847Y-106623333D02*
X140963609Y-106670952D01*
X140963609Y-106670952D02*
X140915990Y-106718571D01*
X140915990Y-106718571D02*
X140868371Y-106813809D01*
X140868371Y-106813809D02*
X140868371Y-107004285D01*
X140868371Y-107004285D02*
X140915990Y-107099523D01*
X140915990Y-107099523D02*
X140963609Y-107147142D01*
X140963609Y-107147142D02*
X141058847Y-107194761D01*
X141392180Y-106194761D02*
X141439800Y-106147142D01*
X141439800Y-106147142D02*
X141487419Y-106194761D01*
X141487419Y-106194761D02*
X141439800Y-106242380D01*
X141439800Y-106242380D02*
X141392180Y-106194761D01*
X141392180Y-106194761D02*
X141487419Y-106194761D01*
X140915990Y-105575714D02*
X140868371Y-105670952D01*
X140868371Y-105670952D02*
X140820752Y-105718571D01*
X140820752Y-105718571D02*
X140725514Y-105766190D01*
X140725514Y-105766190D02*
X140677895Y-105766190D01*
X140677895Y-105766190D02*
X140582657Y-105718571D01*
X140582657Y-105718571D02*
X140535038Y-105670952D01*
X140535038Y-105670952D02*
X140487419Y-105575714D01*
X140487419Y-105575714D02*
X140487419Y-105385238D01*
X140487419Y-105385238D02*
X140535038Y-105290000D01*
X140535038Y-105290000D02*
X140582657Y-105242381D01*
X140582657Y-105242381D02*
X140677895Y-105194762D01*
X140677895Y-105194762D02*
X140725514Y-105194762D01*
X140725514Y-105194762D02*
X140820752Y-105242381D01*
X140820752Y-105242381D02*
X140868371Y-105290000D01*
X140868371Y-105290000D02*
X140915990Y-105385238D01*
X140915990Y-105385238D02*
X140915990Y-105575714D01*
X140915990Y-105575714D02*
X140963609Y-105670952D01*
X140963609Y-105670952D02*
X141011228Y-105718571D01*
X141011228Y-105718571D02*
X141106466Y-105766190D01*
X141106466Y-105766190D02*
X141296942Y-105766190D01*
X141296942Y-105766190D02*
X141392180Y-105718571D01*
X141392180Y-105718571D02*
X141439800Y-105670952D01*
X141439800Y-105670952D02*
X141487419Y-105575714D01*
X141487419Y-105575714D02*
X141487419Y-105385238D01*
X141487419Y-105385238D02*
X141439800Y-105290000D01*
X141439800Y-105290000D02*
X141392180Y-105242381D01*
X141392180Y-105242381D02*
X141296942Y-105194762D01*
X141296942Y-105194762D02*
X141106466Y-105194762D01*
X141106466Y-105194762D02*
X141011228Y-105242381D01*
X141011228Y-105242381D02*
X140963609Y-105290000D01*
X140963609Y-105290000D02*
X140915990Y-105385238D01*
X140487419Y-104909047D02*
X141487419Y-104575714D01*
X141487419Y-104575714D02*
X140487419Y-104242381D01*
X141487419Y-103385238D02*
X141487419Y-103956666D01*
X141487419Y-103670952D02*
X140487419Y-103670952D01*
X140487419Y-103670952D02*
X140630276Y-103766190D01*
X140630276Y-103766190D02*
X140725514Y-103861428D01*
X140725514Y-103861428D02*
X140773133Y-103956666D01*
D11*
X104764763Y-52444819D02*
X104764763Y-51444819D01*
X104764763Y-51921009D02*
X105336191Y-51921009D01*
X105336191Y-52444819D02*
X105336191Y-51444819D01*
X106336191Y-52444819D02*
X105764763Y-52444819D01*
X106050477Y-52444819D02*
X106050477Y-51444819D01*
X106050477Y-51444819D02*
X105955239Y-51587676D01*
X105955239Y-51587676D02*
X105860001Y-51682914D01*
X105860001Y-51682914D02*
X105764763Y-51730533D01*
X256784763Y-228174819D02*
X256784763Y-227174819D01*
X256784763Y-227651009D02*
X257356191Y-227651009D01*
X257356191Y-228174819D02*
X257356191Y-227174819D01*
X258260953Y-227508152D02*
X258260953Y-228174819D01*
X258022858Y-227127200D02*
X257784763Y-227841485D01*
X257784763Y-227841485D02*
X258403810Y-227841485D01*
D12*
X176007419Y-106498571D02*
X176007419Y-106689047D01*
X176007419Y-106689047D02*
X176055038Y-106784285D01*
X176055038Y-106784285D02*
X176102657Y-106831904D01*
X176102657Y-106831904D02*
X176245514Y-106927142D01*
X176245514Y-106927142D02*
X176435990Y-106974761D01*
X176435990Y-106974761D02*
X176816942Y-106974761D01*
X176816942Y-106974761D02*
X176912180Y-106927142D01*
X176912180Y-106927142D02*
X176959800Y-106879523D01*
X176959800Y-106879523D02*
X177007419Y-106784285D01*
X177007419Y-106784285D02*
X177007419Y-106593809D01*
X177007419Y-106593809D02*
X176959800Y-106498571D01*
X176959800Y-106498571D02*
X176912180Y-106450952D01*
X176912180Y-106450952D02*
X176816942Y-106403333D01*
X176816942Y-106403333D02*
X176578847Y-106403333D01*
X176578847Y-106403333D02*
X176483609Y-106450952D01*
X176483609Y-106450952D02*
X176435990Y-106498571D01*
X176435990Y-106498571D02*
X176388371Y-106593809D01*
X176388371Y-106593809D02*
X176388371Y-106784285D01*
X176388371Y-106784285D02*
X176435990Y-106879523D01*
X176435990Y-106879523D02*
X176483609Y-106927142D01*
X176483609Y-106927142D02*
X176578847Y-106974761D01*
X176912180Y-105974761D02*
X176959800Y-105927142D01*
X176959800Y-105927142D02*
X177007419Y-105974761D01*
X177007419Y-105974761D02*
X176959800Y-106022380D01*
X176959800Y-106022380D02*
X176912180Y-105974761D01*
X176912180Y-105974761D02*
X177007419Y-105974761D01*
X176435990Y-105355714D02*
X176388371Y-105450952D01*
X176388371Y-105450952D02*
X176340752Y-105498571D01*
X176340752Y-105498571D02*
X176245514Y-105546190D01*
X176245514Y-105546190D02*
X176197895Y-105546190D01*
X176197895Y-105546190D02*
X176102657Y-105498571D01*
X176102657Y-105498571D02*
X176055038Y-105450952D01*
X176055038Y-105450952D02*
X176007419Y-105355714D01*
X176007419Y-105355714D02*
X176007419Y-105165238D01*
X176007419Y-105165238D02*
X176055038Y-105070000D01*
X176055038Y-105070000D02*
X176102657Y-105022381D01*
X176102657Y-105022381D02*
X176197895Y-104974762D01*
X176197895Y-104974762D02*
X176245514Y-104974762D01*
X176245514Y-104974762D02*
X176340752Y-105022381D01*
X176340752Y-105022381D02*
X176388371Y-105070000D01*
X176388371Y-105070000D02*
X176435990Y-105165238D01*
X176435990Y-105165238D02*
X176435990Y-105355714D01*
X176435990Y-105355714D02*
X176483609Y-105450952D01*
X176483609Y-105450952D02*
X176531228Y-105498571D01*
X176531228Y-105498571D02*
X176626466Y-105546190D01*
X176626466Y-105546190D02*
X176816942Y-105546190D01*
X176816942Y-105546190D02*
X176912180Y-105498571D01*
X176912180Y-105498571D02*
X176959800Y-105450952D01*
X176959800Y-105450952D02*
X177007419Y-105355714D01*
X177007419Y-105355714D02*
X177007419Y-105165238D01*
X177007419Y-105165238D02*
X176959800Y-105070000D01*
X176959800Y-105070000D02*
X176912180Y-105022381D01*
X176912180Y-105022381D02*
X176816942Y-104974762D01*
X176816942Y-104974762D02*
X176626466Y-104974762D01*
X176626466Y-104974762D02*
X176531228Y-105022381D01*
X176531228Y-105022381D02*
X176483609Y-105070000D01*
X176483609Y-105070000D02*
X176435990Y-105165238D01*
X176007419Y-104689047D02*
X177007419Y-104355714D01*
X177007419Y-104355714D02*
X176007419Y-104022381D01*
X176102657Y-103736666D02*
X176055038Y-103689047D01*
X176055038Y-103689047D02*
X176007419Y-103593809D01*
X176007419Y-103593809D02*
X176007419Y-103355714D01*
X176007419Y-103355714D02*
X176055038Y-103260476D01*
X176055038Y-103260476D02*
X176102657Y-103212857D01*
X176102657Y-103212857D02*
X176197895Y-103165238D01*
X176197895Y-103165238D02*
X176293133Y-103165238D01*
X176293133Y-103165238D02*
X176435990Y-103212857D01*
X176435990Y-103212857D02*
X177007419Y-103784285D01*
X177007419Y-103784285D02*
X177007419Y-103165238D01*
X105417419Y-107062380D02*
X105417419Y-106443333D01*
X105417419Y-106443333D02*
X105798371Y-106776666D01*
X105798371Y-106776666D02*
X105798371Y-106633809D01*
X105798371Y-106633809D02*
X105845990Y-106538571D01*
X105845990Y-106538571D02*
X105893609Y-106490952D01*
X105893609Y-106490952D02*
X105988847Y-106443333D01*
X105988847Y-106443333D02*
X106226942Y-106443333D01*
X106226942Y-106443333D02*
X106322180Y-106490952D01*
X106322180Y-106490952D02*
X106369800Y-106538571D01*
X106369800Y-106538571D02*
X106417419Y-106633809D01*
X106417419Y-106633809D02*
X106417419Y-106919523D01*
X106417419Y-106919523D02*
X106369800Y-107014761D01*
X106369800Y-107014761D02*
X106322180Y-107062380D01*
X106322180Y-106014761D02*
X106369800Y-105967142D01*
X106369800Y-105967142D02*
X106417419Y-106014761D01*
X106417419Y-106014761D02*
X106369800Y-106062380D01*
X106369800Y-106062380D02*
X106322180Y-106014761D01*
X106322180Y-106014761D02*
X106417419Y-106014761D01*
X105417419Y-105633809D02*
X105417419Y-105014762D01*
X105417419Y-105014762D02*
X105798371Y-105348095D01*
X105798371Y-105348095D02*
X105798371Y-105205238D01*
X105798371Y-105205238D02*
X105845990Y-105110000D01*
X105845990Y-105110000D02*
X105893609Y-105062381D01*
X105893609Y-105062381D02*
X105988847Y-105014762D01*
X105988847Y-105014762D02*
X106226942Y-105014762D01*
X106226942Y-105014762D02*
X106322180Y-105062381D01*
X106322180Y-105062381D02*
X106369800Y-105110000D01*
X106369800Y-105110000D02*
X106417419Y-105205238D01*
X106417419Y-105205238D02*
X106417419Y-105490952D01*
X106417419Y-105490952D02*
X106369800Y-105586190D01*
X106369800Y-105586190D02*
X106322180Y-105633809D01*
X105417419Y-104729047D02*
X106417419Y-104395714D01*
X106417419Y-104395714D02*
X105417419Y-104062381D01*
X106417419Y-103205238D02*
X106417419Y-103776666D01*
X106417419Y-103490952D02*
X105417419Y-103490952D01*
X105417419Y-103490952D02*
X105560276Y-103586190D01*
X105560276Y-103586190D02*
X105655514Y-103681428D01*
X105655514Y-103681428D02*
X105703133Y-103776666D01*
D11*
X223417621Y-70360532D02*
X223560478Y-70408151D01*
X223560478Y-70408151D02*
X223798573Y-70408151D01*
X223798573Y-70408151D02*
X223893811Y-70360532D01*
X223893811Y-70360532D02*
X223941430Y-70312912D01*
X223941430Y-70312912D02*
X223989049Y-70217674D01*
X223989049Y-70217674D02*
X223989049Y-70122436D01*
X223989049Y-70122436D02*
X223941430Y-70027198D01*
X223941430Y-70027198D02*
X223893811Y-69979579D01*
X223893811Y-69979579D02*
X223798573Y-69931960D01*
X223798573Y-69931960D02*
X223608097Y-69884341D01*
X223608097Y-69884341D02*
X223512859Y-69836722D01*
X223512859Y-69836722D02*
X223465240Y-69789103D01*
X223465240Y-69789103D02*
X223417621Y-69693865D01*
X223417621Y-69693865D02*
X223417621Y-69598627D01*
X223417621Y-69598627D02*
X223465240Y-69503389D01*
X223465240Y-69503389D02*
X223512859Y-69455770D01*
X223512859Y-69455770D02*
X223608097Y-69408151D01*
X223608097Y-69408151D02*
X223846192Y-69408151D01*
X223846192Y-69408151D02*
X223989049Y-69455770D01*
X224798573Y-70360532D02*
X224703335Y-70408151D01*
X224703335Y-70408151D02*
X224512859Y-70408151D01*
X224512859Y-70408151D02*
X224417621Y-70360532D01*
X224417621Y-70360532D02*
X224370002Y-70265293D01*
X224370002Y-70265293D02*
X224370002Y-69884341D01*
X224370002Y-69884341D02*
X224417621Y-69789103D01*
X224417621Y-69789103D02*
X224512859Y-69741484D01*
X224512859Y-69741484D02*
X224703335Y-69741484D01*
X224703335Y-69741484D02*
X224798573Y-69789103D01*
X224798573Y-69789103D02*
X224846192Y-69884341D01*
X224846192Y-69884341D02*
X224846192Y-69979579D01*
X224846192Y-69979579D02*
X224370002Y-70074817D01*
X225274764Y-70408151D02*
X225274764Y-69741484D01*
X225274764Y-69931960D02*
X225322383Y-69836722D01*
X225322383Y-69836722D02*
X225370002Y-69789103D01*
X225370002Y-69789103D02*
X225465240Y-69741484D01*
X225465240Y-69741484D02*
X225560478Y-69741484D01*
X225798574Y-69741484D02*
X226036669Y-70408151D01*
X226036669Y-70408151D02*
X226274764Y-69741484D01*
X226798574Y-70408151D02*
X226703336Y-70360532D01*
X226703336Y-70360532D02*
X226655717Y-70312912D01*
X226655717Y-70312912D02*
X226608098Y-70217674D01*
X226608098Y-70217674D02*
X226608098Y-69931960D01*
X226608098Y-69931960D02*
X226655717Y-69836722D01*
X226655717Y-69836722D02*
X226703336Y-69789103D01*
X226703336Y-69789103D02*
X226798574Y-69741484D01*
X226798574Y-69741484D02*
X226941431Y-69741484D01*
X226941431Y-69741484D02*
X227036669Y-69789103D01*
X227036669Y-69789103D02*
X227084288Y-69836722D01*
X227084288Y-69836722D02*
X227131907Y-69931960D01*
X227131907Y-69931960D02*
X227131907Y-70217674D01*
X227131907Y-70217674D02*
X227084288Y-70312912D01*
X227084288Y-70312912D02*
X227036669Y-70360532D01*
X227036669Y-70360532D02*
X226941431Y-70408151D01*
X226941431Y-70408151D02*
X226798574Y-70408151D01*
X227322384Y-70503389D02*
X228084288Y-70503389D01*
X228274765Y-70360532D02*
X228417622Y-70408151D01*
X228417622Y-70408151D02*
X228655717Y-70408151D01*
X228655717Y-70408151D02*
X228750955Y-70360532D01*
X228750955Y-70360532D02*
X228798574Y-70312912D01*
X228798574Y-70312912D02*
X228846193Y-70217674D01*
X228846193Y-70217674D02*
X228846193Y-70122436D01*
X228846193Y-70122436D02*
X228798574Y-70027198D01*
X228798574Y-70027198D02*
X228750955Y-69979579D01*
X228750955Y-69979579D02*
X228655717Y-69931960D01*
X228655717Y-69931960D02*
X228465241Y-69884341D01*
X228465241Y-69884341D02*
X228370003Y-69836722D01*
X228370003Y-69836722D02*
X228322384Y-69789103D01*
X228322384Y-69789103D02*
X228274765Y-69693865D01*
X228274765Y-69693865D02*
X228274765Y-69598627D01*
X228274765Y-69598627D02*
X228322384Y-69503389D01*
X228322384Y-69503389D02*
X228370003Y-69455770D01*
X228370003Y-69455770D02*
X228465241Y-69408151D01*
X228465241Y-69408151D02*
X228703336Y-69408151D01*
X228703336Y-69408151D02*
X228846193Y-69455770D01*
X229274765Y-70408151D02*
X229274765Y-69408151D01*
X229703336Y-70408151D02*
X229703336Y-69884341D01*
X229703336Y-69884341D02*
X229655717Y-69789103D01*
X229655717Y-69789103D02*
X229560479Y-69741484D01*
X229560479Y-69741484D02*
X229417622Y-69741484D01*
X229417622Y-69741484D02*
X229322384Y-69789103D01*
X229322384Y-69789103D02*
X229274765Y-69836722D01*
X230179527Y-70408151D02*
X230179527Y-69741484D01*
X230179527Y-69408151D02*
X230131908Y-69455770D01*
X230131908Y-69455770D02*
X230179527Y-69503389D01*
X230179527Y-69503389D02*
X230227146Y-69455770D01*
X230227146Y-69455770D02*
X230179527Y-69408151D01*
X230179527Y-69408151D02*
X230179527Y-69503389D01*
X230512860Y-69741484D02*
X230893812Y-69741484D01*
X230655717Y-70408151D02*
X230655717Y-69551008D01*
X230655717Y-69551008D02*
X230703336Y-69455770D01*
X230703336Y-69455770D02*
X230798574Y-69408151D01*
X230798574Y-69408151D02*
X230893812Y-69408151D01*
X231084289Y-69741484D02*
X231465241Y-69741484D01*
X231227146Y-69408151D02*
X231227146Y-70265293D01*
X231227146Y-70265293D02*
X231274765Y-70360532D01*
X231274765Y-70360532D02*
X231370003Y-70408151D01*
X231370003Y-70408151D02*
X231465241Y-70408151D01*
X231703337Y-69408151D02*
X232322384Y-69408151D01*
X232322384Y-69408151D02*
X231989051Y-69789103D01*
X231989051Y-69789103D02*
X232131908Y-69789103D01*
X232131908Y-69789103D02*
X232227146Y-69836722D01*
X232227146Y-69836722D02*
X232274765Y-69884341D01*
X232274765Y-69884341D02*
X232322384Y-69979579D01*
X232322384Y-69979579D02*
X232322384Y-70217674D01*
X232322384Y-70217674D02*
X232274765Y-70312912D01*
X232274765Y-70312912D02*
X232227146Y-70360532D01*
X232227146Y-70360532D02*
X232131908Y-70408151D01*
X232131908Y-70408151D02*
X231846194Y-70408151D01*
X231846194Y-70408151D02*
X231750956Y-70360532D01*
X231750956Y-70360532D02*
X231703337Y-70312912D01*
X227782857Y-221177200D02*
X227925714Y-221224819D01*
X227925714Y-221224819D02*
X228163809Y-221224819D01*
X228163809Y-221224819D02*
X228259047Y-221177200D01*
X228259047Y-221177200D02*
X228306666Y-221129580D01*
X228306666Y-221129580D02*
X228354285Y-221034342D01*
X228354285Y-221034342D02*
X228354285Y-220939104D01*
X228354285Y-220939104D02*
X228306666Y-220843866D01*
X228306666Y-220843866D02*
X228259047Y-220796247D01*
X228259047Y-220796247D02*
X228163809Y-220748628D01*
X228163809Y-220748628D02*
X227973333Y-220701009D01*
X227973333Y-220701009D02*
X227878095Y-220653390D01*
X227878095Y-220653390D02*
X227830476Y-220605771D01*
X227830476Y-220605771D02*
X227782857Y-220510533D01*
X227782857Y-220510533D02*
X227782857Y-220415295D01*
X227782857Y-220415295D02*
X227830476Y-220320057D01*
X227830476Y-220320057D02*
X227878095Y-220272438D01*
X227878095Y-220272438D02*
X227973333Y-220224819D01*
X227973333Y-220224819D02*
X228211428Y-220224819D01*
X228211428Y-220224819D02*
X228354285Y-220272438D01*
X229163809Y-221177200D02*
X229068571Y-221224819D01*
X229068571Y-221224819D02*
X228878095Y-221224819D01*
X228878095Y-221224819D02*
X228782857Y-221177200D01*
X228782857Y-221177200D02*
X228735238Y-221081961D01*
X228735238Y-221081961D02*
X228735238Y-220701009D01*
X228735238Y-220701009D02*
X228782857Y-220605771D01*
X228782857Y-220605771D02*
X228878095Y-220558152D01*
X228878095Y-220558152D02*
X229068571Y-220558152D01*
X229068571Y-220558152D02*
X229163809Y-220605771D01*
X229163809Y-220605771D02*
X229211428Y-220701009D01*
X229211428Y-220701009D02*
X229211428Y-220796247D01*
X229211428Y-220796247D02*
X228735238Y-220891485D01*
X229640000Y-221224819D02*
X229640000Y-220558152D01*
X229640000Y-220748628D02*
X229687619Y-220653390D01*
X229687619Y-220653390D02*
X229735238Y-220605771D01*
X229735238Y-220605771D02*
X229830476Y-220558152D01*
X229830476Y-220558152D02*
X229925714Y-220558152D01*
X230163810Y-220558152D02*
X230401905Y-221224819D01*
X230401905Y-221224819D02*
X230640000Y-220558152D01*
X231163810Y-221224819D02*
X231068572Y-221177200D01*
X231068572Y-221177200D02*
X231020953Y-221129580D01*
X231020953Y-221129580D02*
X230973334Y-221034342D01*
X230973334Y-221034342D02*
X230973334Y-220748628D01*
X230973334Y-220748628D02*
X231020953Y-220653390D01*
X231020953Y-220653390D02*
X231068572Y-220605771D01*
X231068572Y-220605771D02*
X231163810Y-220558152D01*
X231163810Y-220558152D02*
X231306667Y-220558152D01*
X231306667Y-220558152D02*
X231401905Y-220605771D01*
X231401905Y-220605771D02*
X231449524Y-220653390D01*
X231449524Y-220653390D02*
X231497143Y-220748628D01*
X231497143Y-220748628D02*
X231497143Y-221034342D01*
X231497143Y-221034342D02*
X231449524Y-221129580D01*
X231449524Y-221129580D02*
X231401905Y-221177200D01*
X231401905Y-221177200D02*
X231306667Y-221224819D01*
X231306667Y-221224819D02*
X231163810Y-221224819D01*
X231687620Y-221320057D02*
X232449524Y-221320057D01*
X232640001Y-221177200D02*
X232782858Y-221224819D01*
X232782858Y-221224819D02*
X233020953Y-221224819D01*
X233020953Y-221224819D02*
X233116191Y-221177200D01*
X233116191Y-221177200D02*
X233163810Y-221129580D01*
X233163810Y-221129580D02*
X233211429Y-221034342D01*
X233211429Y-221034342D02*
X233211429Y-220939104D01*
X233211429Y-220939104D02*
X233163810Y-220843866D01*
X233163810Y-220843866D02*
X233116191Y-220796247D01*
X233116191Y-220796247D02*
X233020953Y-220748628D01*
X233020953Y-220748628D02*
X232830477Y-220701009D01*
X232830477Y-220701009D02*
X232735239Y-220653390D01*
X232735239Y-220653390D02*
X232687620Y-220605771D01*
X232687620Y-220605771D02*
X232640001Y-220510533D01*
X232640001Y-220510533D02*
X232640001Y-220415295D01*
X232640001Y-220415295D02*
X232687620Y-220320057D01*
X232687620Y-220320057D02*
X232735239Y-220272438D01*
X232735239Y-220272438D02*
X232830477Y-220224819D01*
X232830477Y-220224819D02*
X233068572Y-220224819D01*
X233068572Y-220224819D02*
X233211429Y-220272438D01*
X233544763Y-220558152D02*
X233735239Y-221224819D01*
X233735239Y-221224819D02*
X233925715Y-220748628D01*
X233925715Y-220748628D02*
X234116191Y-221224819D01*
X234116191Y-221224819D02*
X234306667Y-220558152D01*
X234687620Y-221224819D02*
X234687620Y-220558152D01*
X234687620Y-220224819D02*
X234640001Y-220272438D01*
X234640001Y-220272438D02*
X234687620Y-220320057D01*
X234687620Y-220320057D02*
X234735239Y-220272438D01*
X234735239Y-220272438D02*
X234687620Y-220224819D01*
X234687620Y-220224819D02*
X234687620Y-220320057D01*
X235163810Y-220558152D02*
X235163810Y-221224819D01*
X235163810Y-220653390D02*
X235211429Y-220605771D01*
X235211429Y-220605771D02*
X235306667Y-220558152D01*
X235306667Y-220558152D02*
X235449524Y-220558152D01*
X235449524Y-220558152D02*
X235544762Y-220605771D01*
X235544762Y-220605771D02*
X235592381Y-220701009D01*
X235592381Y-220701009D02*
X235592381Y-221224819D01*
X236497143Y-220558152D02*
X236497143Y-221367676D01*
X236497143Y-221367676D02*
X236449524Y-221462914D01*
X236449524Y-221462914D02*
X236401905Y-221510533D01*
X236401905Y-221510533D02*
X236306667Y-221558152D01*
X236306667Y-221558152D02*
X236163810Y-221558152D01*
X236163810Y-221558152D02*
X236068572Y-221510533D01*
X236497143Y-221177200D02*
X236401905Y-221224819D01*
X236401905Y-221224819D02*
X236211429Y-221224819D01*
X236211429Y-221224819D02*
X236116191Y-221177200D01*
X236116191Y-221177200D02*
X236068572Y-221129580D01*
X236068572Y-221129580D02*
X236020953Y-221034342D01*
X236020953Y-221034342D02*
X236020953Y-220748628D01*
X236020953Y-220748628D02*
X236068572Y-220653390D01*
X236068572Y-220653390D02*
X236116191Y-220605771D01*
X236116191Y-220605771D02*
X236211429Y-220558152D01*
X236211429Y-220558152D02*
X236401905Y-220558152D01*
X236401905Y-220558152D02*
X236497143Y-220605771D01*
X237497143Y-221224819D02*
X236925715Y-221224819D01*
X237211429Y-221224819D02*
X237211429Y-220224819D01*
X237211429Y-220224819D02*
X237116191Y-220367676D01*
X237116191Y-220367676D02*
X237020953Y-220462914D01*
X237020953Y-220462914D02*
X236925715Y-220510533D01*
D12*
X215022580Y-183971428D02*
X215022580Y-183780952D01*
X215022580Y-183780952D02*
X214974961Y-183685714D01*
X214974961Y-183685714D02*
X214927342Y-183638095D01*
X214927342Y-183638095D02*
X214784485Y-183542857D01*
X214784485Y-183542857D02*
X214594009Y-183495238D01*
X214594009Y-183495238D02*
X214213057Y-183495238D01*
X214213057Y-183495238D02*
X214117819Y-183542857D01*
X214117819Y-183542857D02*
X214070200Y-183590476D01*
X214070200Y-183590476D02*
X214022580Y-183685714D01*
X214022580Y-183685714D02*
X214022580Y-183876190D01*
X214022580Y-183876190D02*
X214070200Y-183971428D01*
X214070200Y-183971428D02*
X214117819Y-184019047D01*
X214117819Y-184019047D02*
X214213057Y-184066666D01*
X214213057Y-184066666D02*
X214451152Y-184066666D01*
X214451152Y-184066666D02*
X214546390Y-184019047D01*
X214546390Y-184019047D02*
X214594009Y-183971428D01*
X214594009Y-183971428D02*
X214641628Y-183876190D01*
X214641628Y-183876190D02*
X214641628Y-183685714D01*
X214641628Y-183685714D02*
X214594009Y-183590476D01*
X214594009Y-183590476D02*
X214546390Y-183542857D01*
X214546390Y-183542857D02*
X214451152Y-183495238D01*
X214117819Y-184495238D02*
X214070200Y-184542857D01*
X214070200Y-184542857D02*
X214022580Y-184495238D01*
X214022580Y-184495238D02*
X214070200Y-184447619D01*
X214070200Y-184447619D02*
X214117819Y-184495238D01*
X214117819Y-184495238D02*
X214022580Y-184495238D01*
X214594009Y-185114285D02*
X214641628Y-185019047D01*
X214641628Y-185019047D02*
X214689247Y-184971428D01*
X214689247Y-184971428D02*
X214784485Y-184923809D01*
X214784485Y-184923809D02*
X214832104Y-184923809D01*
X214832104Y-184923809D02*
X214927342Y-184971428D01*
X214927342Y-184971428D02*
X214974961Y-185019047D01*
X214974961Y-185019047D02*
X215022580Y-185114285D01*
X215022580Y-185114285D02*
X215022580Y-185304761D01*
X215022580Y-185304761D02*
X214974961Y-185399999D01*
X214974961Y-185399999D02*
X214927342Y-185447618D01*
X214927342Y-185447618D02*
X214832104Y-185495237D01*
X214832104Y-185495237D02*
X214784485Y-185495237D01*
X214784485Y-185495237D02*
X214689247Y-185447618D01*
X214689247Y-185447618D02*
X214641628Y-185399999D01*
X214641628Y-185399999D02*
X214594009Y-185304761D01*
X214594009Y-185304761D02*
X214594009Y-185114285D01*
X214594009Y-185114285D02*
X214546390Y-185019047D01*
X214546390Y-185019047D02*
X214498771Y-184971428D01*
X214498771Y-184971428D02*
X214403533Y-184923809D01*
X214403533Y-184923809D02*
X214213057Y-184923809D01*
X214213057Y-184923809D02*
X214117819Y-184971428D01*
X214117819Y-184971428D02*
X214070200Y-185019047D01*
X214070200Y-185019047D02*
X214022580Y-185114285D01*
X214022580Y-185114285D02*
X214022580Y-185304761D01*
X214022580Y-185304761D02*
X214070200Y-185399999D01*
X214070200Y-185399999D02*
X214117819Y-185447618D01*
X214117819Y-185447618D02*
X214213057Y-185495237D01*
X214213057Y-185495237D02*
X214403533Y-185495237D01*
X214403533Y-185495237D02*
X214498771Y-185447618D01*
X214498771Y-185447618D02*
X214546390Y-185399999D01*
X214546390Y-185399999D02*
X214594009Y-185304761D01*
X215022580Y-185780952D02*
X214022580Y-186114285D01*
X214022580Y-186114285D02*
X215022580Y-186447618D01*
X215022580Y-187257142D02*
X215022580Y-186780952D01*
X215022580Y-186780952D02*
X214546390Y-186733333D01*
X214546390Y-186733333D02*
X214594009Y-186780952D01*
X214594009Y-186780952D02*
X214641628Y-186876190D01*
X214641628Y-186876190D02*
X214641628Y-187114285D01*
X214641628Y-187114285D02*
X214594009Y-187209523D01*
X214594009Y-187209523D02*
X214546390Y-187257142D01*
X214546390Y-187257142D02*
X214451152Y-187304761D01*
X214451152Y-187304761D02*
X214213057Y-187304761D01*
X214213057Y-187304761D02*
X214117819Y-187257142D01*
X214117819Y-187257142D02*
X214070200Y-187209523D01*
X214070200Y-187209523D02*
X214022580Y-187114285D01*
X214022580Y-187114285D02*
X214022580Y-186876190D01*
X214022580Y-186876190D02*
X214070200Y-186780952D01*
X214070200Y-186780952D02*
X214117819Y-186733333D01*
D11*
X110554819Y-177776666D02*
X111554819Y-177110000D01*
X110554819Y-177110000D02*
X111554819Y-177776666D01*
X110554819Y-176871904D02*
X110554819Y-176300476D01*
X111554819Y-176586190D02*
X110554819Y-176586190D01*
X110554819Y-175538571D02*
X110554819Y-175729047D01*
X110554819Y-175729047D02*
X110602438Y-175824285D01*
X110602438Y-175824285D02*
X110650057Y-175871904D01*
X110650057Y-175871904D02*
X110792914Y-175967142D01*
X110792914Y-175967142D02*
X110983390Y-176014761D01*
X110983390Y-176014761D02*
X111364342Y-176014761D01*
X111364342Y-176014761D02*
X111459580Y-175967142D01*
X111459580Y-175967142D02*
X111507200Y-175919523D01*
X111507200Y-175919523D02*
X111554819Y-175824285D01*
X111554819Y-175824285D02*
X111554819Y-175633809D01*
X111554819Y-175633809D02*
X111507200Y-175538571D01*
X111507200Y-175538571D02*
X111459580Y-175490952D01*
X111459580Y-175490952D02*
X111364342Y-175443333D01*
X111364342Y-175443333D02*
X111126247Y-175443333D01*
X111126247Y-175443333D02*
X111031009Y-175490952D01*
X111031009Y-175490952D02*
X110983390Y-175538571D01*
X110983390Y-175538571D02*
X110935771Y-175633809D01*
X110935771Y-175633809D02*
X110935771Y-175824285D01*
X110935771Y-175824285D02*
X110983390Y-175919523D01*
X110983390Y-175919523D02*
X111031009Y-175967142D01*
X111031009Y-175967142D02*
X111126247Y-176014761D01*
X110554819Y-174824285D02*
X110554819Y-174729047D01*
X110554819Y-174729047D02*
X110602438Y-174633809D01*
X110602438Y-174633809D02*
X110650057Y-174586190D01*
X110650057Y-174586190D02*
X110745295Y-174538571D01*
X110745295Y-174538571D02*
X110935771Y-174490952D01*
X110935771Y-174490952D02*
X111173866Y-174490952D01*
X111173866Y-174490952D02*
X111364342Y-174538571D01*
X111364342Y-174538571D02*
X111459580Y-174586190D01*
X111459580Y-174586190D02*
X111507200Y-174633809D01*
X111507200Y-174633809D02*
X111554819Y-174729047D01*
X111554819Y-174729047D02*
X111554819Y-174824285D01*
X111554819Y-174824285D02*
X111507200Y-174919523D01*
X111507200Y-174919523D02*
X111459580Y-174967142D01*
X111459580Y-174967142D02*
X111364342Y-175014761D01*
X111364342Y-175014761D02*
X111173866Y-175062380D01*
X111173866Y-175062380D02*
X110935771Y-175062380D01*
X110935771Y-175062380D02*
X110745295Y-175014761D01*
X110745295Y-175014761D02*
X110650057Y-174967142D01*
X110650057Y-174967142D02*
X110602438Y-174919523D01*
X110602438Y-174919523D02*
X110554819Y-174824285D01*
X103242381Y-155104819D02*
X103242381Y-154104819D01*
X103242381Y-154104819D02*
X103575714Y-154819104D01*
X103575714Y-154819104D02*
X103909047Y-154104819D01*
X103909047Y-154104819D02*
X103909047Y-155104819D01*
X104813809Y-155104819D02*
X104813809Y-154581009D01*
X104813809Y-154581009D02*
X104766190Y-154485771D01*
X104766190Y-154485771D02*
X104670952Y-154438152D01*
X104670952Y-154438152D02*
X104480476Y-154438152D01*
X104480476Y-154438152D02*
X104385238Y-154485771D01*
X104813809Y-155057200D02*
X104718571Y-155104819D01*
X104718571Y-155104819D02*
X104480476Y-155104819D01*
X104480476Y-155104819D02*
X104385238Y-155057200D01*
X104385238Y-155057200D02*
X104337619Y-154961961D01*
X104337619Y-154961961D02*
X104337619Y-154866723D01*
X104337619Y-154866723D02*
X104385238Y-154771485D01*
X104385238Y-154771485D02*
X104480476Y-154723866D01*
X104480476Y-154723866D02*
X104718571Y-154723866D01*
X104718571Y-154723866D02*
X104813809Y-154676247D01*
X105290000Y-155104819D02*
X105290000Y-154438152D01*
X105290000Y-154104819D02*
X105242381Y-154152438D01*
X105242381Y-154152438D02*
X105290000Y-154200057D01*
X105290000Y-154200057D02*
X105337619Y-154152438D01*
X105337619Y-154152438D02*
X105290000Y-154104819D01*
X105290000Y-154104819D02*
X105290000Y-154200057D01*
X105766190Y-154438152D02*
X105766190Y-155104819D01*
X105766190Y-154533390D02*
X105813809Y-154485771D01*
X105813809Y-154485771D02*
X105909047Y-154438152D01*
X105909047Y-154438152D02*
X106051904Y-154438152D01*
X106051904Y-154438152D02*
X106147142Y-154485771D01*
X106147142Y-154485771D02*
X106194761Y-154581009D01*
X106194761Y-154581009D02*
X106194761Y-155104819D01*
X106432857Y-155200057D02*
X107194761Y-155200057D01*
X107432857Y-155104819D02*
X107432857Y-154104819D01*
X107432857Y-154104819D02*
X107813809Y-154104819D01*
X107813809Y-154104819D02*
X107909047Y-154152438D01*
X107909047Y-154152438D02*
X107956666Y-154200057D01*
X107956666Y-154200057D02*
X108004285Y-154295295D01*
X108004285Y-154295295D02*
X108004285Y-154438152D01*
X108004285Y-154438152D02*
X107956666Y-154533390D01*
X107956666Y-154533390D02*
X107909047Y-154581009D01*
X107909047Y-154581009D02*
X107813809Y-154628628D01*
X107813809Y-154628628D02*
X107432857Y-154628628D01*
X108575714Y-155104819D02*
X108480476Y-155057200D01*
X108480476Y-155057200D02*
X108432857Y-155009580D01*
X108432857Y-155009580D02*
X108385238Y-154914342D01*
X108385238Y-154914342D02*
X108385238Y-154628628D01*
X108385238Y-154628628D02*
X108432857Y-154533390D01*
X108432857Y-154533390D02*
X108480476Y-154485771D01*
X108480476Y-154485771D02*
X108575714Y-154438152D01*
X108575714Y-154438152D02*
X108718571Y-154438152D01*
X108718571Y-154438152D02*
X108813809Y-154485771D01*
X108813809Y-154485771D02*
X108861428Y-154533390D01*
X108861428Y-154533390D02*
X108909047Y-154628628D01*
X108909047Y-154628628D02*
X108909047Y-154914342D01*
X108909047Y-154914342D02*
X108861428Y-155009580D01*
X108861428Y-155009580D02*
X108813809Y-155057200D01*
X108813809Y-155057200D02*
X108718571Y-155104819D01*
X108718571Y-155104819D02*
X108575714Y-155104819D01*
X109242381Y-154438152D02*
X109432857Y-155104819D01*
X109432857Y-155104819D02*
X109623333Y-154628628D01*
X109623333Y-154628628D02*
X109813809Y-155104819D01*
X109813809Y-155104819D02*
X110004285Y-154438152D01*
X110766190Y-155057200D02*
X110670952Y-155104819D01*
X110670952Y-155104819D02*
X110480476Y-155104819D01*
X110480476Y-155104819D02*
X110385238Y-155057200D01*
X110385238Y-155057200D02*
X110337619Y-154961961D01*
X110337619Y-154961961D02*
X110337619Y-154581009D01*
X110337619Y-154581009D02*
X110385238Y-154485771D01*
X110385238Y-154485771D02*
X110480476Y-154438152D01*
X110480476Y-154438152D02*
X110670952Y-154438152D01*
X110670952Y-154438152D02*
X110766190Y-154485771D01*
X110766190Y-154485771D02*
X110813809Y-154581009D01*
X110813809Y-154581009D02*
X110813809Y-154676247D01*
X110813809Y-154676247D02*
X110337619Y-154771485D01*
X111242381Y-155104819D02*
X111242381Y-154438152D01*
X111242381Y-154628628D02*
X111290000Y-154533390D01*
X111290000Y-154533390D02*
X111337619Y-154485771D01*
X111337619Y-154485771D02*
X111432857Y-154438152D01*
X111432857Y-154438152D02*
X111528095Y-154438152D01*
X112385238Y-155104819D02*
X111813810Y-155104819D01*
X112099524Y-155104819D02*
X112099524Y-154104819D01*
X112099524Y-154104819D02*
X112004286Y-154247676D01*
X112004286Y-154247676D02*
X111909048Y-154342914D01*
X111909048Y-154342914D02*
X111813810Y-154390533D01*
D12*
X249802580Y-184591428D02*
X249802580Y-184400952D01*
X249802580Y-184400952D02*
X249754961Y-184305714D01*
X249754961Y-184305714D02*
X249707342Y-184258095D01*
X249707342Y-184258095D02*
X249564485Y-184162857D01*
X249564485Y-184162857D02*
X249374009Y-184115238D01*
X249374009Y-184115238D02*
X248993057Y-184115238D01*
X248993057Y-184115238D02*
X248897819Y-184162857D01*
X248897819Y-184162857D02*
X248850200Y-184210476D01*
X248850200Y-184210476D02*
X248802580Y-184305714D01*
X248802580Y-184305714D02*
X248802580Y-184496190D01*
X248802580Y-184496190D02*
X248850200Y-184591428D01*
X248850200Y-184591428D02*
X248897819Y-184639047D01*
X248897819Y-184639047D02*
X248993057Y-184686666D01*
X248993057Y-184686666D02*
X249231152Y-184686666D01*
X249231152Y-184686666D02*
X249326390Y-184639047D01*
X249326390Y-184639047D02*
X249374009Y-184591428D01*
X249374009Y-184591428D02*
X249421628Y-184496190D01*
X249421628Y-184496190D02*
X249421628Y-184305714D01*
X249421628Y-184305714D02*
X249374009Y-184210476D01*
X249374009Y-184210476D02*
X249326390Y-184162857D01*
X249326390Y-184162857D02*
X249231152Y-184115238D01*
X248897819Y-185115238D02*
X248850200Y-185162857D01*
X248850200Y-185162857D02*
X248802580Y-185115238D01*
X248802580Y-185115238D02*
X248850200Y-185067619D01*
X248850200Y-185067619D02*
X248897819Y-185115238D01*
X248897819Y-185115238D02*
X248802580Y-185115238D01*
X249374009Y-185734285D02*
X249421628Y-185639047D01*
X249421628Y-185639047D02*
X249469247Y-185591428D01*
X249469247Y-185591428D02*
X249564485Y-185543809D01*
X249564485Y-185543809D02*
X249612104Y-185543809D01*
X249612104Y-185543809D02*
X249707342Y-185591428D01*
X249707342Y-185591428D02*
X249754961Y-185639047D01*
X249754961Y-185639047D02*
X249802580Y-185734285D01*
X249802580Y-185734285D02*
X249802580Y-185924761D01*
X249802580Y-185924761D02*
X249754961Y-186019999D01*
X249754961Y-186019999D02*
X249707342Y-186067618D01*
X249707342Y-186067618D02*
X249612104Y-186115237D01*
X249612104Y-186115237D02*
X249564485Y-186115237D01*
X249564485Y-186115237D02*
X249469247Y-186067618D01*
X249469247Y-186067618D02*
X249421628Y-186019999D01*
X249421628Y-186019999D02*
X249374009Y-185924761D01*
X249374009Y-185924761D02*
X249374009Y-185734285D01*
X249374009Y-185734285D02*
X249326390Y-185639047D01*
X249326390Y-185639047D02*
X249278771Y-185591428D01*
X249278771Y-185591428D02*
X249183533Y-185543809D01*
X249183533Y-185543809D02*
X248993057Y-185543809D01*
X248993057Y-185543809D02*
X248897819Y-185591428D01*
X248897819Y-185591428D02*
X248850200Y-185639047D01*
X248850200Y-185639047D02*
X248802580Y-185734285D01*
X248802580Y-185734285D02*
X248802580Y-185924761D01*
X248802580Y-185924761D02*
X248850200Y-186019999D01*
X248850200Y-186019999D02*
X248897819Y-186067618D01*
X248897819Y-186067618D02*
X248993057Y-186115237D01*
X248993057Y-186115237D02*
X249183533Y-186115237D01*
X249183533Y-186115237D02*
X249278771Y-186067618D01*
X249278771Y-186067618D02*
X249326390Y-186019999D01*
X249326390Y-186019999D02*
X249374009Y-185924761D01*
X249802580Y-186400952D02*
X248802580Y-186734285D01*
X248802580Y-186734285D02*
X249802580Y-187067618D01*
X249469247Y-187829523D02*
X248802580Y-187829523D01*
X249850200Y-187591428D02*
X249135914Y-187353333D01*
X249135914Y-187353333D02*
X249135914Y-187972380D01*
X179882580Y-183981428D02*
X179882580Y-183790952D01*
X179882580Y-183790952D02*
X179834961Y-183695714D01*
X179834961Y-183695714D02*
X179787342Y-183648095D01*
X179787342Y-183648095D02*
X179644485Y-183552857D01*
X179644485Y-183552857D02*
X179454009Y-183505238D01*
X179454009Y-183505238D02*
X179073057Y-183505238D01*
X179073057Y-183505238D02*
X178977819Y-183552857D01*
X178977819Y-183552857D02*
X178930200Y-183600476D01*
X178930200Y-183600476D02*
X178882580Y-183695714D01*
X178882580Y-183695714D02*
X178882580Y-183886190D01*
X178882580Y-183886190D02*
X178930200Y-183981428D01*
X178930200Y-183981428D02*
X178977819Y-184029047D01*
X178977819Y-184029047D02*
X179073057Y-184076666D01*
X179073057Y-184076666D02*
X179311152Y-184076666D01*
X179311152Y-184076666D02*
X179406390Y-184029047D01*
X179406390Y-184029047D02*
X179454009Y-183981428D01*
X179454009Y-183981428D02*
X179501628Y-183886190D01*
X179501628Y-183886190D02*
X179501628Y-183695714D01*
X179501628Y-183695714D02*
X179454009Y-183600476D01*
X179454009Y-183600476D02*
X179406390Y-183552857D01*
X179406390Y-183552857D02*
X179311152Y-183505238D01*
X178977819Y-184505238D02*
X178930200Y-184552857D01*
X178930200Y-184552857D02*
X178882580Y-184505238D01*
X178882580Y-184505238D02*
X178930200Y-184457619D01*
X178930200Y-184457619D02*
X178977819Y-184505238D01*
X178977819Y-184505238D02*
X178882580Y-184505238D01*
X179454009Y-185124285D02*
X179501628Y-185029047D01*
X179501628Y-185029047D02*
X179549247Y-184981428D01*
X179549247Y-184981428D02*
X179644485Y-184933809D01*
X179644485Y-184933809D02*
X179692104Y-184933809D01*
X179692104Y-184933809D02*
X179787342Y-184981428D01*
X179787342Y-184981428D02*
X179834961Y-185029047D01*
X179834961Y-185029047D02*
X179882580Y-185124285D01*
X179882580Y-185124285D02*
X179882580Y-185314761D01*
X179882580Y-185314761D02*
X179834961Y-185409999D01*
X179834961Y-185409999D02*
X179787342Y-185457618D01*
X179787342Y-185457618D02*
X179692104Y-185505237D01*
X179692104Y-185505237D02*
X179644485Y-185505237D01*
X179644485Y-185505237D02*
X179549247Y-185457618D01*
X179549247Y-185457618D02*
X179501628Y-185409999D01*
X179501628Y-185409999D02*
X179454009Y-185314761D01*
X179454009Y-185314761D02*
X179454009Y-185124285D01*
X179454009Y-185124285D02*
X179406390Y-185029047D01*
X179406390Y-185029047D02*
X179358771Y-184981428D01*
X179358771Y-184981428D02*
X179263533Y-184933809D01*
X179263533Y-184933809D02*
X179073057Y-184933809D01*
X179073057Y-184933809D02*
X178977819Y-184981428D01*
X178977819Y-184981428D02*
X178930200Y-185029047D01*
X178930200Y-185029047D02*
X178882580Y-185124285D01*
X178882580Y-185124285D02*
X178882580Y-185314761D01*
X178882580Y-185314761D02*
X178930200Y-185409999D01*
X178930200Y-185409999D02*
X178977819Y-185457618D01*
X178977819Y-185457618D02*
X179073057Y-185505237D01*
X179073057Y-185505237D02*
X179263533Y-185505237D01*
X179263533Y-185505237D02*
X179358771Y-185457618D01*
X179358771Y-185457618D02*
X179406390Y-185409999D01*
X179406390Y-185409999D02*
X179454009Y-185314761D01*
X179882580Y-185790952D02*
X178882580Y-186124285D01*
X178882580Y-186124285D02*
X179882580Y-186457618D01*
X179882580Y-187219523D02*
X179882580Y-187029047D01*
X179882580Y-187029047D02*
X179834961Y-186933809D01*
X179834961Y-186933809D02*
X179787342Y-186886190D01*
X179787342Y-186886190D02*
X179644485Y-186790952D01*
X179644485Y-186790952D02*
X179454009Y-186743333D01*
X179454009Y-186743333D02*
X179073057Y-186743333D01*
X179073057Y-186743333D02*
X178977819Y-186790952D01*
X178977819Y-186790952D02*
X178930200Y-186838571D01*
X178930200Y-186838571D02*
X178882580Y-186933809D01*
X178882580Y-186933809D02*
X178882580Y-187124285D01*
X178882580Y-187124285D02*
X178930200Y-187219523D01*
X178930200Y-187219523D02*
X178977819Y-187267142D01*
X178977819Y-187267142D02*
X179073057Y-187314761D01*
X179073057Y-187314761D02*
X179311152Y-187314761D01*
X179311152Y-187314761D02*
X179406390Y-187267142D01*
X179406390Y-187267142D02*
X179454009Y-187219523D01*
X179454009Y-187219523D02*
X179501628Y-187124285D01*
X179501628Y-187124285D02*
X179501628Y-186933809D01*
X179501628Y-186933809D02*
X179454009Y-186838571D01*
X179454009Y-186838571D02*
X179406390Y-186790952D01*
X179406390Y-186790952D02*
X179311152Y-186743333D01*
D11*
X158706192Y-221410532D02*
X158849049Y-221458151D01*
X158849049Y-221458151D02*
X159087144Y-221458151D01*
X159087144Y-221458151D02*
X159182382Y-221410532D01*
X159182382Y-221410532D02*
X159230001Y-221362912D01*
X159230001Y-221362912D02*
X159277620Y-221267674D01*
X159277620Y-221267674D02*
X159277620Y-221172436D01*
X159277620Y-221172436D02*
X159230001Y-221077198D01*
X159230001Y-221077198D02*
X159182382Y-221029579D01*
X159182382Y-221029579D02*
X159087144Y-220981960D01*
X159087144Y-220981960D02*
X158896668Y-220934341D01*
X158896668Y-220934341D02*
X158801430Y-220886722D01*
X158801430Y-220886722D02*
X158753811Y-220839103D01*
X158753811Y-220839103D02*
X158706192Y-220743865D01*
X158706192Y-220743865D02*
X158706192Y-220648627D01*
X158706192Y-220648627D02*
X158753811Y-220553389D01*
X158753811Y-220553389D02*
X158801430Y-220505770D01*
X158801430Y-220505770D02*
X158896668Y-220458151D01*
X158896668Y-220458151D02*
X159134763Y-220458151D01*
X159134763Y-220458151D02*
X159277620Y-220505770D01*
X160087144Y-221410532D02*
X159991906Y-221458151D01*
X159991906Y-221458151D02*
X159801430Y-221458151D01*
X159801430Y-221458151D02*
X159706192Y-221410532D01*
X159706192Y-221410532D02*
X159658573Y-221315293D01*
X159658573Y-221315293D02*
X159658573Y-220934341D01*
X159658573Y-220934341D02*
X159706192Y-220839103D01*
X159706192Y-220839103D02*
X159801430Y-220791484D01*
X159801430Y-220791484D02*
X159991906Y-220791484D01*
X159991906Y-220791484D02*
X160087144Y-220839103D01*
X160087144Y-220839103D02*
X160134763Y-220934341D01*
X160134763Y-220934341D02*
X160134763Y-221029579D01*
X160134763Y-221029579D02*
X159658573Y-221124817D01*
X160563335Y-221458151D02*
X160563335Y-220791484D01*
X160563335Y-220981960D02*
X160610954Y-220886722D01*
X160610954Y-220886722D02*
X160658573Y-220839103D01*
X160658573Y-220839103D02*
X160753811Y-220791484D01*
X160753811Y-220791484D02*
X160849049Y-220791484D01*
X161087145Y-220791484D02*
X161325240Y-221458151D01*
X161325240Y-221458151D02*
X161563335Y-220791484D01*
X162087145Y-221458151D02*
X161991907Y-221410532D01*
X161991907Y-221410532D02*
X161944288Y-221362912D01*
X161944288Y-221362912D02*
X161896669Y-221267674D01*
X161896669Y-221267674D02*
X161896669Y-220981960D01*
X161896669Y-220981960D02*
X161944288Y-220886722D01*
X161944288Y-220886722D02*
X161991907Y-220839103D01*
X161991907Y-220839103D02*
X162087145Y-220791484D01*
X162087145Y-220791484D02*
X162230002Y-220791484D01*
X162230002Y-220791484D02*
X162325240Y-220839103D01*
X162325240Y-220839103D02*
X162372859Y-220886722D01*
X162372859Y-220886722D02*
X162420478Y-220981960D01*
X162420478Y-220981960D02*
X162420478Y-221267674D01*
X162420478Y-221267674D02*
X162372859Y-221362912D01*
X162372859Y-221362912D02*
X162325240Y-221410532D01*
X162325240Y-221410532D02*
X162230002Y-221458151D01*
X162230002Y-221458151D02*
X162087145Y-221458151D01*
X162610955Y-221553389D02*
X163372859Y-221553389D01*
X163563336Y-221410532D02*
X163706193Y-221458151D01*
X163706193Y-221458151D02*
X163944288Y-221458151D01*
X163944288Y-221458151D02*
X164039526Y-221410532D01*
X164039526Y-221410532D02*
X164087145Y-221362912D01*
X164087145Y-221362912D02*
X164134764Y-221267674D01*
X164134764Y-221267674D02*
X164134764Y-221172436D01*
X164134764Y-221172436D02*
X164087145Y-221077198D01*
X164087145Y-221077198D02*
X164039526Y-221029579D01*
X164039526Y-221029579D02*
X163944288Y-220981960D01*
X163944288Y-220981960D02*
X163753812Y-220934341D01*
X163753812Y-220934341D02*
X163658574Y-220886722D01*
X163658574Y-220886722D02*
X163610955Y-220839103D01*
X163610955Y-220839103D02*
X163563336Y-220743865D01*
X163563336Y-220743865D02*
X163563336Y-220648627D01*
X163563336Y-220648627D02*
X163610955Y-220553389D01*
X163610955Y-220553389D02*
X163658574Y-220505770D01*
X163658574Y-220505770D02*
X163753812Y-220458151D01*
X163753812Y-220458151D02*
X163991907Y-220458151D01*
X163991907Y-220458151D02*
X164134764Y-220505770D01*
X164468098Y-220791484D02*
X164658574Y-221458151D01*
X164658574Y-221458151D02*
X164849050Y-220981960D01*
X164849050Y-220981960D02*
X165039526Y-221458151D01*
X165039526Y-221458151D02*
X165230002Y-220791484D01*
X165610955Y-221458151D02*
X165610955Y-220791484D01*
X165610955Y-220458151D02*
X165563336Y-220505770D01*
X165563336Y-220505770D02*
X165610955Y-220553389D01*
X165610955Y-220553389D02*
X165658574Y-220505770D01*
X165658574Y-220505770D02*
X165610955Y-220458151D01*
X165610955Y-220458151D02*
X165610955Y-220553389D01*
X166087145Y-220791484D02*
X166087145Y-221458151D01*
X166087145Y-220886722D02*
X166134764Y-220839103D01*
X166134764Y-220839103D02*
X166230002Y-220791484D01*
X166230002Y-220791484D02*
X166372859Y-220791484D01*
X166372859Y-220791484D02*
X166468097Y-220839103D01*
X166468097Y-220839103D02*
X166515716Y-220934341D01*
X166515716Y-220934341D02*
X166515716Y-221458151D01*
X167420478Y-220791484D02*
X167420478Y-221601008D01*
X167420478Y-221601008D02*
X167372859Y-221696246D01*
X167372859Y-221696246D02*
X167325240Y-221743865D01*
X167325240Y-221743865D02*
X167230002Y-221791484D01*
X167230002Y-221791484D02*
X167087145Y-221791484D01*
X167087145Y-221791484D02*
X166991907Y-221743865D01*
X167420478Y-221410532D02*
X167325240Y-221458151D01*
X167325240Y-221458151D02*
X167134764Y-221458151D01*
X167134764Y-221458151D02*
X167039526Y-221410532D01*
X167039526Y-221410532D02*
X166991907Y-221362912D01*
X166991907Y-221362912D02*
X166944288Y-221267674D01*
X166944288Y-221267674D02*
X166944288Y-220981960D01*
X166944288Y-220981960D02*
X166991907Y-220886722D01*
X166991907Y-220886722D02*
X167039526Y-220839103D01*
X167039526Y-220839103D02*
X167134764Y-220791484D01*
X167134764Y-220791484D02*
X167325240Y-220791484D01*
X167325240Y-220791484D02*
X167420478Y-220839103D01*
X167801431Y-220458151D02*
X168420478Y-220458151D01*
X168420478Y-220458151D02*
X168087145Y-220839103D01*
X168087145Y-220839103D02*
X168230002Y-220839103D01*
X168230002Y-220839103D02*
X168325240Y-220886722D01*
X168325240Y-220886722D02*
X168372859Y-220934341D01*
X168372859Y-220934341D02*
X168420478Y-221029579D01*
X168420478Y-221029579D02*
X168420478Y-221267674D01*
X168420478Y-221267674D02*
X168372859Y-221362912D01*
X168372859Y-221362912D02*
X168325240Y-221410532D01*
X168325240Y-221410532D02*
X168230002Y-221458151D01*
X168230002Y-221458151D02*
X167944288Y-221458151D01*
X167944288Y-221458151D02*
X167849050Y-221410532D01*
X167849050Y-221410532D02*
X167801431Y-221362912D01*
X256974763Y-53364819D02*
X256974763Y-52364819D01*
X256974763Y-52841009D02*
X257546191Y-52841009D01*
X257546191Y-53364819D02*
X257546191Y-52364819D01*
X257974763Y-52460057D02*
X258022382Y-52412438D01*
X258022382Y-52412438D02*
X258117620Y-52364819D01*
X258117620Y-52364819D02*
X258355715Y-52364819D01*
X258355715Y-52364819D02*
X258450953Y-52412438D01*
X258450953Y-52412438D02*
X258498572Y-52460057D01*
X258498572Y-52460057D02*
X258546191Y-52555295D01*
X258546191Y-52555295D02*
X258546191Y-52650533D01*
X258546191Y-52650533D02*
X258498572Y-52793390D01*
X258498572Y-52793390D02*
X257927144Y-53364819D01*
X257927144Y-53364819D02*
X258546191Y-53364819D01*
X255059580Y-137516190D02*
X255107200Y-137563809D01*
X255107200Y-137563809D02*
X255154819Y-137706666D01*
X255154819Y-137706666D02*
X255154819Y-137801904D01*
X255154819Y-137801904D02*
X255107200Y-137944761D01*
X255107200Y-137944761D02*
X255011961Y-138039999D01*
X255011961Y-138039999D02*
X254916723Y-138087618D01*
X254916723Y-138087618D02*
X254726247Y-138135237D01*
X254726247Y-138135237D02*
X254583390Y-138135237D01*
X254583390Y-138135237D02*
X254392914Y-138087618D01*
X254392914Y-138087618D02*
X254297676Y-138039999D01*
X254297676Y-138039999D02*
X254202438Y-137944761D01*
X254202438Y-137944761D02*
X254154819Y-137801904D01*
X254154819Y-137801904D02*
X254154819Y-137706666D01*
X254154819Y-137706666D02*
X254202438Y-137563809D01*
X254202438Y-137563809D02*
X254250057Y-137516190D01*
X255154819Y-136944761D02*
X255107200Y-137039999D01*
X255107200Y-137039999D02*
X255059580Y-137087618D01*
X255059580Y-137087618D02*
X254964342Y-137135237D01*
X254964342Y-137135237D02*
X254678628Y-137135237D01*
X254678628Y-137135237D02*
X254583390Y-137087618D01*
X254583390Y-137087618D02*
X254535771Y-137039999D01*
X254535771Y-137039999D02*
X254488152Y-136944761D01*
X254488152Y-136944761D02*
X254488152Y-136801904D01*
X254488152Y-136801904D02*
X254535771Y-136706666D01*
X254535771Y-136706666D02*
X254583390Y-136659047D01*
X254583390Y-136659047D02*
X254678628Y-136611428D01*
X254678628Y-136611428D02*
X254964342Y-136611428D01*
X254964342Y-136611428D02*
X255059580Y-136659047D01*
X255059580Y-136659047D02*
X255107200Y-136706666D01*
X255107200Y-136706666D02*
X255154819Y-136801904D01*
X255154819Y-136801904D02*
X255154819Y-136944761D01*
X254488152Y-136182856D02*
X255154819Y-136182856D01*
X254583390Y-136182856D02*
X254535771Y-136135237D01*
X254535771Y-136135237D02*
X254488152Y-136039999D01*
X254488152Y-136039999D02*
X254488152Y-135897142D01*
X254488152Y-135897142D02*
X254535771Y-135801904D01*
X254535771Y-135801904D02*
X254631009Y-135754285D01*
X254631009Y-135754285D02*
X255154819Y-135754285D01*
X254488152Y-135420951D02*
X254488152Y-135039999D01*
X254154819Y-135278094D02*
X255011961Y-135278094D01*
X255011961Y-135278094D02*
X255107200Y-135230475D01*
X255107200Y-135230475D02*
X255154819Y-135135237D01*
X255154819Y-135135237D02*
X255154819Y-135039999D01*
X255154819Y-134706665D02*
X254488152Y-134706665D01*
X254678628Y-134706665D02*
X254583390Y-134659046D01*
X254583390Y-134659046D02*
X254535771Y-134611427D01*
X254535771Y-134611427D02*
X254488152Y-134516189D01*
X254488152Y-134516189D02*
X254488152Y-134420951D01*
X255154819Y-133944760D02*
X255107200Y-134039998D01*
X255107200Y-134039998D02*
X255059580Y-134087617D01*
X255059580Y-134087617D02*
X254964342Y-134135236D01*
X254964342Y-134135236D02*
X254678628Y-134135236D01*
X254678628Y-134135236D02*
X254583390Y-134087617D01*
X254583390Y-134087617D02*
X254535771Y-134039998D01*
X254535771Y-134039998D02*
X254488152Y-133944760D01*
X254488152Y-133944760D02*
X254488152Y-133801903D01*
X254488152Y-133801903D02*
X254535771Y-133706665D01*
X254535771Y-133706665D02*
X254583390Y-133659046D01*
X254583390Y-133659046D02*
X254678628Y-133611427D01*
X254678628Y-133611427D02*
X254964342Y-133611427D01*
X254964342Y-133611427D02*
X255059580Y-133659046D01*
X255059580Y-133659046D02*
X255107200Y-133706665D01*
X255107200Y-133706665D02*
X255154819Y-133801903D01*
X255154819Y-133801903D02*
X255154819Y-133944760D01*
X255154819Y-133039998D02*
X255107200Y-133135236D01*
X255107200Y-133135236D02*
X255011961Y-133182855D01*
X255011961Y-133182855D02*
X254154819Y-133182855D01*
X255250057Y-132897141D02*
X255250057Y-132135236D01*
X255154819Y-131897140D02*
X254154819Y-131897140D01*
X254154819Y-131897140D02*
X254154819Y-131516188D01*
X254154819Y-131516188D02*
X254202438Y-131420950D01*
X254202438Y-131420950D02*
X254250057Y-131373331D01*
X254250057Y-131373331D02*
X254345295Y-131325712D01*
X254345295Y-131325712D02*
X254488152Y-131325712D01*
X254488152Y-131325712D02*
X254583390Y-131373331D01*
X254583390Y-131373331D02*
X254631009Y-131420950D01*
X254631009Y-131420950D02*
X254678628Y-131516188D01*
X254678628Y-131516188D02*
X254678628Y-131897140D01*
X255154819Y-130754283D02*
X255107200Y-130849521D01*
X255107200Y-130849521D02*
X255059580Y-130897140D01*
X255059580Y-130897140D02*
X254964342Y-130944759D01*
X254964342Y-130944759D02*
X254678628Y-130944759D01*
X254678628Y-130944759D02*
X254583390Y-130897140D01*
X254583390Y-130897140D02*
X254535771Y-130849521D01*
X254535771Y-130849521D02*
X254488152Y-130754283D01*
X254488152Y-130754283D02*
X254488152Y-130611426D01*
X254488152Y-130611426D02*
X254535771Y-130516188D01*
X254535771Y-130516188D02*
X254583390Y-130468569D01*
X254583390Y-130468569D02*
X254678628Y-130420950D01*
X254678628Y-130420950D02*
X254964342Y-130420950D01*
X254964342Y-130420950D02*
X255059580Y-130468569D01*
X255059580Y-130468569D02*
X255107200Y-130516188D01*
X255107200Y-130516188D02*
X255154819Y-130611426D01*
X255154819Y-130611426D02*
X255154819Y-130754283D01*
X255154819Y-129992378D02*
X254488152Y-129992378D01*
X254678628Y-129992378D02*
X254583390Y-129944759D01*
X254583390Y-129944759D02*
X254535771Y-129897140D01*
X254535771Y-129897140D02*
X254488152Y-129801902D01*
X254488152Y-129801902D02*
X254488152Y-129706664D01*
X254488152Y-129516187D02*
X254488152Y-129135235D01*
X254154819Y-129373330D02*
X255011961Y-129373330D01*
X255011961Y-129373330D02*
X255107200Y-129325711D01*
X255107200Y-129325711D02*
X255154819Y-129230473D01*
X255154819Y-129230473D02*
X255154819Y-129135235D01*
X255154819Y-128278092D02*
X255154819Y-128849520D01*
X255154819Y-128563806D02*
X254154819Y-128563806D01*
X254154819Y-128563806D02*
X254297676Y-128659044D01*
X254297676Y-128659044D02*
X254392914Y-128754282D01*
X254392914Y-128754282D02*
X254440533Y-128849520D01*
X191862857Y-221727200D02*
X192005714Y-221774819D01*
X192005714Y-221774819D02*
X192243809Y-221774819D01*
X192243809Y-221774819D02*
X192339047Y-221727200D01*
X192339047Y-221727200D02*
X192386666Y-221679580D01*
X192386666Y-221679580D02*
X192434285Y-221584342D01*
X192434285Y-221584342D02*
X192434285Y-221489104D01*
X192434285Y-221489104D02*
X192386666Y-221393866D01*
X192386666Y-221393866D02*
X192339047Y-221346247D01*
X192339047Y-221346247D02*
X192243809Y-221298628D01*
X192243809Y-221298628D02*
X192053333Y-221251009D01*
X192053333Y-221251009D02*
X191958095Y-221203390D01*
X191958095Y-221203390D02*
X191910476Y-221155771D01*
X191910476Y-221155771D02*
X191862857Y-221060533D01*
X191862857Y-221060533D02*
X191862857Y-220965295D01*
X191862857Y-220965295D02*
X191910476Y-220870057D01*
X191910476Y-220870057D02*
X191958095Y-220822438D01*
X191958095Y-220822438D02*
X192053333Y-220774819D01*
X192053333Y-220774819D02*
X192291428Y-220774819D01*
X192291428Y-220774819D02*
X192434285Y-220822438D01*
X193243809Y-221727200D02*
X193148571Y-221774819D01*
X193148571Y-221774819D02*
X192958095Y-221774819D01*
X192958095Y-221774819D02*
X192862857Y-221727200D01*
X192862857Y-221727200D02*
X192815238Y-221631961D01*
X192815238Y-221631961D02*
X192815238Y-221251009D01*
X192815238Y-221251009D02*
X192862857Y-221155771D01*
X192862857Y-221155771D02*
X192958095Y-221108152D01*
X192958095Y-221108152D02*
X193148571Y-221108152D01*
X193148571Y-221108152D02*
X193243809Y-221155771D01*
X193243809Y-221155771D02*
X193291428Y-221251009D01*
X193291428Y-221251009D02*
X193291428Y-221346247D01*
X193291428Y-221346247D02*
X192815238Y-221441485D01*
X193720000Y-221774819D02*
X193720000Y-221108152D01*
X193720000Y-221298628D02*
X193767619Y-221203390D01*
X193767619Y-221203390D02*
X193815238Y-221155771D01*
X193815238Y-221155771D02*
X193910476Y-221108152D01*
X193910476Y-221108152D02*
X194005714Y-221108152D01*
X194243810Y-221108152D02*
X194481905Y-221774819D01*
X194481905Y-221774819D02*
X194720000Y-221108152D01*
X195243810Y-221774819D02*
X195148572Y-221727200D01*
X195148572Y-221727200D02*
X195100953Y-221679580D01*
X195100953Y-221679580D02*
X195053334Y-221584342D01*
X195053334Y-221584342D02*
X195053334Y-221298628D01*
X195053334Y-221298628D02*
X195100953Y-221203390D01*
X195100953Y-221203390D02*
X195148572Y-221155771D01*
X195148572Y-221155771D02*
X195243810Y-221108152D01*
X195243810Y-221108152D02*
X195386667Y-221108152D01*
X195386667Y-221108152D02*
X195481905Y-221155771D01*
X195481905Y-221155771D02*
X195529524Y-221203390D01*
X195529524Y-221203390D02*
X195577143Y-221298628D01*
X195577143Y-221298628D02*
X195577143Y-221584342D01*
X195577143Y-221584342D02*
X195529524Y-221679580D01*
X195529524Y-221679580D02*
X195481905Y-221727200D01*
X195481905Y-221727200D02*
X195386667Y-221774819D01*
X195386667Y-221774819D02*
X195243810Y-221774819D01*
X195767620Y-221870057D02*
X196529524Y-221870057D01*
X196720001Y-221727200D02*
X196862858Y-221774819D01*
X196862858Y-221774819D02*
X197100953Y-221774819D01*
X197100953Y-221774819D02*
X197196191Y-221727200D01*
X197196191Y-221727200D02*
X197243810Y-221679580D01*
X197243810Y-221679580D02*
X197291429Y-221584342D01*
X197291429Y-221584342D02*
X197291429Y-221489104D01*
X197291429Y-221489104D02*
X197243810Y-221393866D01*
X197243810Y-221393866D02*
X197196191Y-221346247D01*
X197196191Y-221346247D02*
X197100953Y-221298628D01*
X197100953Y-221298628D02*
X196910477Y-221251009D01*
X196910477Y-221251009D02*
X196815239Y-221203390D01*
X196815239Y-221203390D02*
X196767620Y-221155771D01*
X196767620Y-221155771D02*
X196720001Y-221060533D01*
X196720001Y-221060533D02*
X196720001Y-220965295D01*
X196720001Y-220965295D02*
X196767620Y-220870057D01*
X196767620Y-220870057D02*
X196815239Y-220822438D01*
X196815239Y-220822438D02*
X196910477Y-220774819D01*
X196910477Y-220774819D02*
X197148572Y-220774819D01*
X197148572Y-220774819D02*
X197291429Y-220822438D01*
X197624763Y-221108152D02*
X197815239Y-221774819D01*
X197815239Y-221774819D02*
X198005715Y-221298628D01*
X198005715Y-221298628D02*
X198196191Y-221774819D01*
X198196191Y-221774819D02*
X198386667Y-221108152D01*
X198767620Y-221774819D02*
X198767620Y-221108152D01*
X198767620Y-220774819D02*
X198720001Y-220822438D01*
X198720001Y-220822438D02*
X198767620Y-220870057D01*
X198767620Y-220870057D02*
X198815239Y-220822438D01*
X198815239Y-220822438D02*
X198767620Y-220774819D01*
X198767620Y-220774819D02*
X198767620Y-220870057D01*
X199243810Y-221108152D02*
X199243810Y-221774819D01*
X199243810Y-221203390D02*
X199291429Y-221155771D01*
X199291429Y-221155771D02*
X199386667Y-221108152D01*
X199386667Y-221108152D02*
X199529524Y-221108152D01*
X199529524Y-221108152D02*
X199624762Y-221155771D01*
X199624762Y-221155771D02*
X199672381Y-221251009D01*
X199672381Y-221251009D02*
X199672381Y-221774819D01*
X200577143Y-221108152D02*
X200577143Y-221917676D01*
X200577143Y-221917676D02*
X200529524Y-222012914D01*
X200529524Y-222012914D02*
X200481905Y-222060533D01*
X200481905Y-222060533D02*
X200386667Y-222108152D01*
X200386667Y-222108152D02*
X200243810Y-222108152D01*
X200243810Y-222108152D02*
X200148572Y-222060533D01*
X200577143Y-221727200D02*
X200481905Y-221774819D01*
X200481905Y-221774819D02*
X200291429Y-221774819D01*
X200291429Y-221774819D02*
X200196191Y-221727200D01*
X200196191Y-221727200D02*
X200148572Y-221679580D01*
X200148572Y-221679580D02*
X200100953Y-221584342D01*
X200100953Y-221584342D02*
X200100953Y-221298628D01*
X200100953Y-221298628D02*
X200148572Y-221203390D01*
X200148572Y-221203390D02*
X200196191Y-221155771D01*
X200196191Y-221155771D02*
X200291429Y-221108152D01*
X200291429Y-221108152D02*
X200481905Y-221108152D01*
X200481905Y-221108152D02*
X200577143Y-221155771D01*
X201005715Y-220870057D02*
X201053334Y-220822438D01*
X201053334Y-220822438D02*
X201148572Y-220774819D01*
X201148572Y-220774819D02*
X201386667Y-220774819D01*
X201386667Y-220774819D02*
X201481905Y-220822438D01*
X201481905Y-220822438D02*
X201529524Y-220870057D01*
X201529524Y-220870057D02*
X201577143Y-220965295D01*
X201577143Y-220965295D02*
X201577143Y-221060533D01*
X201577143Y-221060533D02*
X201529524Y-221203390D01*
X201529524Y-221203390D02*
X200958096Y-221774819D01*
X200958096Y-221774819D02*
X201577143Y-221774819D01*
X188417621Y-69900532D02*
X188560478Y-69948151D01*
X188560478Y-69948151D02*
X188798573Y-69948151D01*
X188798573Y-69948151D02*
X188893811Y-69900532D01*
X188893811Y-69900532D02*
X188941430Y-69852912D01*
X188941430Y-69852912D02*
X188989049Y-69757674D01*
X188989049Y-69757674D02*
X188989049Y-69662436D01*
X188989049Y-69662436D02*
X188941430Y-69567198D01*
X188941430Y-69567198D02*
X188893811Y-69519579D01*
X188893811Y-69519579D02*
X188798573Y-69471960D01*
X188798573Y-69471960D02*
X188608097Y-69424341D01*
X188608097Y-69424341D02*
X188512859Y-69376722D01*
X188512859Y-69376722D02*
X188465240Y-69329103D01*
X188465240Y-69329103D02*
X188417621Y-69233865D01*
X188417621Y-69233865D02*
X188417621Y-69138627D01*
X188417621Y-69138627D02*
X188465240Y-69043389D01*
X188465240Y-69043389D02*
X188512859Y-68995770D01*
X188512859Y-68995770D02*
X188608097Y-68948151D01*
X188608097Y-68948151D02*
X188846192Y-68948151D01*
X188846192Y-68948151D02*
X188989049Y-68995770D01*
X189798573Y-69900532D02*
X189703335Y-69948151D01*
X189703335Y-69948151D02*
X189512859Y-69948151D01*
X189512859Y-69948151D02*
X189417621Y-69900532D01*
X189417621Y-69900532D02*
X189370002Y-69805293D01*
X189370002Y-69805293D02*
X189370002Y-69424341D01*
X189370002Y-69424341D02*
X189417621Y-69329103D01*
X189417621Y-69329103D02*
X189512859Y-69281484D01*
X189512859Y-69281484D02*
X189703335Y-69281484D01*
X189703335Y-69281484D02*
X189798573Y-69329103D01*
X189798573Y-69329103D02*
X189846192Y-69424341D01*
X189846192Y-69424341D02*
X189846192Y-69519579D01*
X189846192Y-69519579D02*
X189370002Y-69614817D01*
X190274764Y-69948151D02*
X190274764Y-69281484D01*
X190274764Y-69471960D02*
X190322383Y-69376722D01*
X190322383Y-69376722D02*
X190370002Y-69329103D01*
X190370002Y-69329103D02*
X190465240Y-69281484D01*
X190465240Y-69281484D02*
X190560478Y-69281484D01*
X190798574Y-69281484D02*
X191036669Y-69948151D01*
X191036669Y-69948151D02*
X191274764Y-69281484D01*
X191798574Y-69948151D02*
X191703336Y-69900532D01*
X191703336Y-69900532D02*
X191655717Y-69852912D01*
X191655717Y-69852912D02*
X191608098Y-69757674D01*
X191608098Y-69757674D02*
X191608098Y-69471960D01*
X191608098Y-69471960D02*
X191655717Y-69376722D01*
X191655717Y-69376722D02*
X191703336Y-69329103D01*
X191703336Y-69329103D02*
X191798574Y-69281484D01*
X191798574Y-69281484D02*
X191941431Y-69281484D01*
X191941431Y-69281484D02*
X192036669Y-69329103D01*
X192036669Y-69329103D02*
X192084288Y-69376722D01*
X192084288Y-69376722D02*
X192131907Y-69471960D01*
X192131907Y-69471960D02*
X192131907Y-69757674D01*
X192131907Y-69757674D02*
X192084288Y-69852912D01*
X192084288Y-69852912D02*
X192036669Y-69900532D01*
X192036669Y-69900532D02*
X191941431Y-69948151D01*
X191941431Y-69948151D02*
X191798574Y-69948151D01*
X192322384Y-70043389D02*
X193084288Y-70043389D01*
X193274765Y-69900532D02*
X193417622Y-69948151D01*
X193417622Y-69948151D02*
X193655717Y-69948151D01*
X193655717Y-69948151D02*
X193750955Y-69900532D01*
X193750955Y-69900532D02*
X193798574Y-69852912D01*
X193798574Y-69852912D02*
X193846193Y-69757674D01*
X193846193Y-69757674D02*
X193846193Y-69662436D01*
X193846193Y-69662436D02*
X193798574Y-69567198D01*
X193798574Y-69567198D02*
X193750955Y-69519579D01*
X193750955Y-69519579D02*
X193655717Y-69471960D01*
X193655717Y-69471960D02*
X193465241Y-69424341D01*
X193465241Y-69424341D02*
X193370003Y-69376722D01*
X193370003Y-69376722D02*
X193322384Y-69329103D01*
X193322384Y-69329103D02*
X193274765Y-69233865D01*
X193274765Y-69233865D02*
X193274765Y-69138627D01*
X193274765Y-69138627D02*
X193322384Y-69043389D01*
X193322384Y-69043389D02*
X193370003Y-68995770D01*
X193370003Y-68995770D02*
X193465241Y-68948151D01*
X193465241Y-68948151D02*
X193703336Y-68948151D01*
X193703336Y-68948151D02*
X193846193Y-68995770D01*
X194274765Y-69948151D02*
X194274765Y-68948151D01*
X194703336Y-69948151D02*
X194703336Y-69424341D01*
X194703336Y-69424341D02*
X194655717Y-69329103D01*
X194655717Y-69329103D02*
X194560479Y-69281484D01*
X194560479Y-69281484D02*
X194417622Y-69281484D01*
X194417622Y-69281484D02*
X194322384Y-69329103D01*
X194322384Y-69329103D02*
X194274765Y-69376722D01*
X195179527Y-69948151D02*
X195179527Y-69281484D01*
X195179527Y-68948151D02*
X195131908Y-68995770D01*
X195131908Y-68995770D02*
X195179527Y-69043389D01*
X195179527Y-69043389D02*
X195227146Y-68995770D01*
X195227146Y-68995770D02*
X195179527Y-68948151D01*
X195179527Y-68948151D02*
X195179527Y-69043389D01*
X195512860Y-69281484D02*
X195893812Y-69281484D01*
X195655717Y-69948151D02*
X195655717Y-69091008D01*
X195655717Y-69091008D02*
X195703336Y-68995770D01*
X195703336Y-68995770D02*
X195798574Y-68948151D01*
X195798574Y-68948151D02*
X195893812Y-68948151D01*
X196084289Y-69281484D02*
X196465241Y-69281484D01*
X196227146Y-68948151D02*
X196227146Y-69805293D01*
X196227146Y-69805293D02*
X196274765Y-69900532D01*
X196274765Y-69900532D02*
X196370003Y-69948151D01*
X196370003Y-69948151D02*
X196465241Y-69948151D01*
X196750956Y-69043389D02*
X196798575Y-68995770D01*
X196798575Y-68995770D02*
X196893813Y-68948151D01*
X196893813Y-68948151D02*
X197131908Y-68948151D01*
X197131908Y-68948151D02*
X197227146Y-68995770D01*
X197227146Y-68995770D02*
X197274765Y-69043389D01*
X197274765Y-69043389D02*
X197322384Y-69138627D01*
X197322384Y-69138627D02*
X197322384Y-69233865D01*
X197322384Y-69233865D02*
X197274765Y-69376722D01*
X197274765Y-69376722D02*
X196703337Y-69948151D01*
X196703337Y-69948151D02*
X197322384Y-69948151D01*
D13*
%TO.C,Jetson1*%
X113550000Y-213050000D02*
X113550000Y-214790000D01*
X111810000Y-213050000D02*
X113550000Y-213050000D01*
X113310000Y-213290000D02*
X113310000Y-216090000D01*
X98710000Y-213290000D02*
X113310000Y-213290000D01*
X113310000Y-219690000D02*
X113310000Y-222490000D01*
X113310000Y-222490000D02*
X111310000Y-222490000D01*
X107710000Y-222490000D02*
X98710000Y-222490000D01*
X98710000Y-222490000D02*
X98710000Y-213290000D01*
%TO.C,MCU1*%
X113620000Y-62630000D02*
X113620000Y-64370000D01*
X111880000Y-62630000D02*
X113620000Y-62630000D01*
X113380000Y-62870000D02*
X113380000Y-65670000D01*
X98780000Y-62870000D02*
X113380000Y-62870000D01*
X113380000Y-69270000D02*
X113380000Y-72070000D01*
X113380000Y-72070000D02*
X111380000Y-72070000D01*
X107780000Y-72070000D02*
X98780000Y-72070000D01*
X98780000Y-72070000D02*
X98780000Y-62870000D01*
%TO.C,Servo_Shift1*%
X154025003Y-75133332D02*
X154025003Y-73803332D01*
X155355003Y-75133332D02*
X154025003Y-75133332D01*
X156625003Y-75133332D02*
X161765003Y-75133332D01*
X156625003Y-75133332D02*
X156625003Y-72473332D01*
X161765003Y-75133332D02*
X161765003Y-72473332D01*
X156625003Y-72473332D02*
X161765003Y-72473332D01*
D12*
%TO.C,6.8V3*%
X220760000Y-127950000D02*
X243620000Y-127950000D01*
X243620000Y-127950000D02*
X243620000Y-82230000D01*
X243620000Y-82230000D02*
X220760000Y-82230000D01*
X220760000Y-82230000D02*
X220760000Y-127950000D01*
%TO.C,6.8V1*%
X146610000Y-128150000D02*
X169470000Y-128150000D01*
X169470000Y-128150000D02*
X169470000Y-82430000D01*
X169470000Y-82430000D02*
X146610000Y-82430000D01*
X146610000Y-82430000D02*
X146610000Y-128150000D01*
%TO.C,6.8V2*%
X182130000Y-127930000D02*
X204990000Y-127930000D01*
X204990000Y-127930000D02*
X204990000Y-82210000D01*
X204990000Y-82210000D02*
X182130000Y-82210000D01*
X182130000Y-82210000D02*
X182130000Y-127930000D01*
%TO.C,3.3V1*%
X111540000Y-127970000D02*
X134400000Y-127970000D01*
X134400000Y-127970000D02*
X134400000Y-82250000D01*
X134400000Y-82250000D02*
X111540000Y-82250000D01*
X111540000Y-82250000D02*
X111540000Y-127970000D01*
D13*
%TO.C,Servo_Shift3*%
X224423003Y-75133332D02*
X224423003Y-73803332D01*
X225753003Y-75133332D02*
X224423003Y-75133332D01*
X227023003Y-75133332D02*
X232163003Y-75133332D01*
X227023003Y-75133332D02*
X227023003Y-72473332D01*
X232163003Y-75133332D02*
X232163003Y-72473332D01*
X227023003Y-72473332D02*
X232163003Y-72473332D01*
%TO.C,Servo_Swing1*%
X236298000Y-215870000D02*
X236298000Y-217200000D01*
X234968000Y-215870000D02*
X236298000Y-215870000D01*
X233698000Y-215870000D02*
X228558000Y-215870000D01*
X233698000Y-215870000D02*
X233698000Y-218530000D01*
X228558000Y-215870000D02*
X228558000Y-218530000D01*
X233698000Y-218530000D02*
X228558000Y-218530000D01*
D12*
%TO.C,6.8V5*%
X208900000Y-162540000D02*
X186040000Y-162540000D01*
X186040000Y-162540000D02*
X186040000Y-208260000D01*
X186040000Y-208260000D02*
X208900000Y-208260000D01*
X208900000Y-208260000D02*
X208900000Y-162540000D01*
D13*
%TO.C,XT60*%
X107400000Y-168260000D02*
X104250000Y-168260000D01*
X104250000Y-168260000D02*
X101650000Y-171110000D01*
X109950000Y-171110000D02*
X107400000Y-168260000D01*
X101650000Y-171110000D02*
X101650000Y-183960000D01*
X109950000Y-183960000D02*
X109950000Y-171110000D01*
X101650000Y-183960000D02*
X109950000Y-183960000D01*
%TO.C,Main_Power1*%
X113640000Y-141850000D02*
X113640000Y-143590000D01*
X111900000Y-141850000D02*
X113640000Y-141850000D01*
X113400000Y-142090000D02*
X113400000Y-144890000D01*
X98800000Y-142090000D02*
X113400000Y-142090000D01*
X113400000Y-148490000D02*
X113400000Y-151290000D01*
X113400000Y-151290000D02*
X111400000Y-151290000D01*
X107800000Y-151290000D02*
X98800000Y-151290000D01*
X98800000Y-151290000D02*
X98800000Y-142090000D01*
D12*
%TO.C,6.8V4*%
X243680000Y-163160000D02*
X220820000Y-163160000D01*
X220820000Y-163160000D02*
X220820000Y-208880000D01*
X220820000Y-208880000D02*
X243680000Y-208880000D01*
X243680000Y-208880000D02*
X243680000Y-163160000D01*
%TO.C,6.8V6*%
X173760000Y-162550000D02*
X150900000Y-162550000D01*
X150900000Y-162550000D02*
X150900000Y-208270000D01*
X150900000Y-208270000D02*
X173760000Y-208270000D01*
X173760000Y-208270000D02*
X173760000Y-162550000D01*
D13*
%TO.C,Servo_Swing3*%
X165900000Y-215870000D02*
X165900000Y-217200000D01*
X164570000Y-215870000D02*
X165900000Y-215870000D01*
X163300000Y-215870000D02*
X158160000Y-215870000D01*
X163300000Y-215870000D02*
X163300000Y-218530000D01*
X158160000Y-215870000D02*
X158160000Y-218530000D01*
X163300000Y-218530000D02*
X158160000Y-218530000D01*
%TO.C,Control_Port1*%
X249606668Y-125950000D02*
X250936668Y-125950000D01*
X249606668Y-127280000D02*
X249606668Y-125950000D01*
X249606668Y-128550000D02*
X249606668Y-141310000D01*
X249606668Y-128550000D02*
X252266668Y-128550000D01*
X249606668Y-141310000D02*
X252266668Y-141310000D01*
X252266668Y-128550000D02*
X252266668Y-141310000D01*
%TO.C,Servo_Swing2*%
X201099000Y-215870000D02*
X201099000Y-217200000D01*
X199769000Y-215870000D02*
X201099000Y-215870000D01*
X198499000Y-215870000D02*
X193359000Y-215870000D01*
X198499000Y-215870000D02*
X198499000Y-218530000D01*
X193359000Y-215870000D02*
X193359000Y-218530000D01*
X198499000Y-218530000D02*
X193359000Y-218530000D01*
%TO.C,Servo_Shift2*%
X189224003Y-75133332D02*
X189224003Y-73803332D01*
X190554003Y-75133332D02*
X189224003Y-75133332D01*
X191824003Y-75133332D02*
X196964003Y-75133332D01*
X191824003Y-75133332D02*
X191824003Y-72473332D01*
X196964003Y-75133332D02*
X196964003Y-72473332D01*
X191824003Y-72473332D02*
X196964003Y-72473332D01*
%TO.C,U1*%
X128080000Y-179280000D02*
X128080000Y-177950000D01*
X129410000Y-179280000D02*
X128080000Y-179280000D01*
X130680000Y-179280000D02*
X143440000Y-179280000D01*
X130680000Y-179280000D02*
X130680000Y-176680000D01*
X143440000Y-179280000D02*
X143440000Y-174080000D01*
X128080000Y-176680000D02*
X128080000Y-174080000D01*
X130680000Y-176680000D02*
X128080000Y-176680000D01*
X128080000Y-174080000D02*
X143440000Y-174080000D01*
%TD*%
M02*
