%TF.GenerationSoftware,KiCad,Pcbnew,7.0.10*%
%TF.CreationDate,2024-03-07T18:10:15-07:00*%
%TF.ProjectId,Hall_effect_sensors,48616c6c-5f65-4666-9665-63745f73656e,rev?*%
%TF.SameCoordinates,Original*%
%TF.FileFunction,Legend,Top*%
%TF.FilePolarity,Positive*%
%FSLAX46Y46*%
G04 Gerber Fmt 4.6, Leading zero omitted, Abs format (unit mm)*
G04 Created by KiCad (PCBNEW 7.0.10) date 2024-03-07 18:10:15*
%MOMM*%
%LPD*%
G01*
G04 APERTURE LIST*
%ADD10C,0.150000*%
%ADD11C,0.100000*%
%ADD12C,0.120000*%
G04 APERTURE END LIST*
D10*
X224624819Y-89131904D02*
X223624819Y-89131904D01*
X224101009Y-89131904D02*
X224101009Y-88560476D01*
X224624819Y-88560476D02*
X223624819Y-88560476D01*
X224624819Y-87560476D02*
X224624819Y-88131904D01*
X224624819Y-87846190D02*
X223624819Y-87846190D01*
X223624819Y-87846190D02*
X223767676Y-87941428D01*
X223767676Y-87941428D02*
X223862914Y-88036666D01*
X223862914Y-88036666D02*
X223910533Y-88131904D01*
X62764819Y-90478094D02*
X61764819Y-90478094D01*
X62241009Y-90478094D02*
X62241009Y-89906666D01*
X62764819Y-89906666D02*
X61764819Y-89906666D01*
X62764819Y-88906666D02*
X62764819Y-89478094D01*
X62764819Y-89192380D02*
X61764819Y-89192380D01*
X61764819Y-89192380D02*
X61907676Y-89287618D01*
X61907676Y-89287618D02*
X62002914Y-89382856D01*
X62002914Y-89382856D02*
X62050533Y-89478094D01*
X61764819Y-88287618D02*
X61764819Y-88192380D01*
X61764819Y-88192380D02*
X61812438Y-88097142D01*
X61812438Y-88097142D02*
X61860057Y-88049523D01*
X61860057Y-88049523D02*
X61955295Y-88001904D01*
X61955295Y-88001904D02*
X62145771Y-87954285D01*
X62145771Y-87954285D02*
X62383866Y-87954285D01*
X62383866Y-87954285D02*
X62574342Y-88001904D01*
X62574342Y-88001904D02*
X62669580Y-88049523D01*
X62669580Y-88049523D02*
X62717200Y-88097142D01*
X62717200Y-88097142D02*
X62764819Y-88192380D01*
X62764819Y-88192380D02*
X62764819Y-88287618D01*
X62764819Y-88287618D02*
X62717200Y-88382856D01*
X62717200Y-88382856D02*
X62669580Y-88430475D01*
X62669580Y-88430475D02*
X62574342Y-88478094D01*
X62574342Y-88478094D02*
X62383866Y-88525713D01*
X62383866Y-88525713D02*
X62145771Y-88525713D01*
X62145771Y-88525713D02*
X61955295Y-88478094D01*
X61955295Y-88478094D02*
X61860057Y-88430475D01*
X61860057Y-88430475D02*
X61812438Y-88382856D01*
X61812438Y-88382856D02*
X61764819Y-88287618D01*
X170624819Y-89131904D02*
X169624819Y-89131904D01*
X170101009Y-89131904D02*
X170101009Y-88560476D01*
X170624819Y-88560476D02*
X169624819Y-88560476D01*
X169958152Y-87655714D02*
X170624819Y-87655714D01*
X169577200Y-87893809D02*
X170291485Y-88131904D01*
X170291485Y-88131904D02*
X170291485Y-87512857D01*
X152624819Y-89131904D02*
X151624819Y-89131904D01*
X152101009Y-89131904D02*
X152101009Y-88560476D01*
X152624819Y-88560476D02*
X151624819Y-88560476D01*
X151624819Y-87608095D02*
X151624819Y-88084285D01*
X151624819Y-88084285D02*
X152101009Y-88131904D01*
X152101009Y-88131904D02*
X152053390Y-88084285D01*
X152053390Y-88084285D02*
X152005771Y-87989047D01*
X152005771Y-87989047D02*
X152005771Y-87750952D01*
X152005771Y-87750952D02*
X152053390Y-87655714D01*
X152053390Y-87655714D02*
X152101009Y-87608095D01*
X152101009Y-87608095D02*
X152196247Y-87560476D01*
X152196247Y-87560476D02*
X152434342Y-87560476D01*
X152434342Y-87560476D02*
X152529580Y-87608095D01*
X152529580Y-87608095D02*
X152577200Y-87655714D01*
X152577200Y-87655714D02*
X152624819Y-87750952D01*
X152624819Y-87750952D02*
X152624819Y-87989047D01*
X152624819Y-87989047D02*
X152577200Y-88084285D01*
X152577200Y-88084285D02*
X152529580Y-88131904D01*
X140691905Y-85784819D02*
X140691905Y-84784819D01*
X140691905Y-85261009D02*
X141263333Y-85261009D01*
X141263333Y-85784819D02*
X141263333Y-84784819D01*
X142263333Y-85784819D02*
X141691905Y-85784819D01*
X141977619Y-85784819D02*
X141977619Y-84784819D01*
X141977619Y-84784819D02*
X141882381Y-84927676D01*
X141882381Y-84927676D02*
X141787143Y-85022914D01*
X141787143Y-85022914D02*
X141691905Y-85070533D01*
X142596667Y-84784819D02*
X143215714Y-84784819D01*
X143215714Y-84784819D02*
X142882381Y-85165771D01*
X142882381Y-85165771D02*
X143025238Y-85165771D01*
X143025238Y-85165771D02*
X143120476Y-85213390D01*
X143120476Y-85213390D02*
X143168095Y-85261009D01*
X143168095Y-85261009D02*
X143215714Y-85356247D01*
X143215714Y-85356247D02*
X143215714Y-85594342D01*
X143215714Y-85594342D02*
X143168095Y-85689580D01*
X143168095Y-85689580D02*
X143120476Y-85737200D01*
X143120476Y-85737200D02*
X143025238Y-85784819D01*
X143025238Y-85784819D02*
X142739524Y-85784819D01*
X142739524Y-85784819D02*
X142644286Y-85737200D01*
X142644286Y-85737200D02*
X142596667Y-85689580D01*
X116624819Y-89131904D02*
X115624819Y-89131904D01*
X116101009Y-89131904D02*
X116101009Y-88560476D01*
X116624819Y-88560476D02*
X115624819Y-88560476D01*
X115624819Y-88179523D02*
X115624819Y-87512857D01*
X115624819Y-87512857D02*
X116624819Y-87941428D01*
X206624819Y-89131904D02*
X205624819Y-89131904D01*
X206101009Y-89131904D02*
X206101009Y-88560476D01*
X206624819Y-88560476D02*
X205624819Y-88560476D01*
X205720057Y-88131904D02*
X205672438Y-88084285D01*
X205672438Y-88084285D02*
X205624819Y-87989047D01*
X205624819Y-87989047D02*
X205624819Y-87750952D01*
X205624819Y-87750952D02*
X205672438Y-87655714D01*
X205672438Y-87655714D02*
X205720057Y-87608095D01*
X205720057Y-87608095D02*
X205815295Y-87560476D01*
X205815295Y-87560476D02*
X205910533Y-87560476D01*
X205910533Y-87560476D02*
X206053390Y-87608095D01*
X206053390Y-87608095D02*
X206624819Y-88179523D01*
X206624819Y-88179523D02*
X206624819Y-87560476D01*
X80624819Y-89131904D02*
X79624819Y-89131904D01*
X80101009Y-89131904D02*
X80101009Y-88560476D01*
X80624819Y-88560476D02*
X79624819Y-88560476D01*
X80624819Y-88036666D02*
X80624819Y-87846190D01*
X80624819Y-87846190D02*
X80577200Y-87750952D01*
X80577200Y-87750952D02*
X80529580Y-87703333D01*
X80529580Y-87703333D02*
X80386723Y-87608095D01*
X80386723Y-87608095D02*
X80196247Y-87560476D01*
X80196247Y-87560476D02*
X79815295Y-87560476D01*
X79815295Y-87560476D02*
X79720057Y-87608095D01*
X79720057Y-87608095D02*
X79672438Y-87655714D01*
X79672438Y-87655714D02*
X79624819Y-87750952D01*
X79624819Y-87750952D02*
X79624819Y-87941428D01*
X79624819Y-87941428D02*
X79672438Y-88036666D01*
X79672438Y-88036666D02*
X79720057Y-88084285D01*
X79720057Y-88084285D02*
X79815295Y-88131904D01*
X79815295Y-88131904D02*
X80053390Y-88131904D01*
X80053390Y-88131904D02*
X80148628Y-88084285D01*
X80148628Y-88084285D02*
X80196247Y-88036666D01*
X80196247Y-88036666D02*
X80243866Y-87941428D01*
X80243866Y-87941428D02*
X80243866Y-87750952D01*
X80243866Y-87750952D02*
X80196247Y-87655714D01*
X80196247Y-87655714D02*
X80148628Y-87608095D01*
X80148628Y-87608095D02*
X80053390Y-87560476D01*
X232461905Y-81354819D02*
X232461905Y-80354819D01*
X232461905Y-80831009D02*
X233033333Y-80831009D01*
X233033333Y-81354819D02*
X233033333Y-80354819D01*
X234033333Y-81354819D02*
X233461905Y-81354819D01*
X233747619Y-81354819D02*
X233747619Y-80354819D01*
X233747619Y-80354819D02*
X233652381Y-80497676D01*
X233652381Y-80497676D02*
X233557143Y-80592914D01*
X233557143Y-80592914D02*
X233461905Y-80640533D01*
X234414286Y-80450057D02*
X234461905Y-80402438D01*
X234461905Y-80402438D02*
X234557143Y-80354819D01*
X234557143Y-80354819D02*
X234795238Y-80354819D01*
X234795238Y-80354819D02*
X234890476Y-80402438D01*
X234890476Y-80402438D02*
X234938095Y-80450057D01*
X234938095Y-80450057D02*
X234985714Y-80545295D01*
X234985714Y-80545295D02*
X234985714Y-80640533D01*
X234985714Y-80640533D02*
X234938095Y-80783390D01*
X234938095Y-80783390D02*
X234366667Y-81354819D01*
X234366667Y-81354819D02*
X234985714Y-81354819D01*
X127699580Y-82274166D02*
X127747200Y-82321785D01*
X127747200Y-82321785D02*
X127794819Y-82464642D01*
X127794819Y-82464642D02*
X127794819Y-82559880D01*
X127794819Y-82559880D02*
X127747200Y-82702737D01*
X127747200Y-82702737D02*
X127651961Y-82797975D01*
X127651961Y-82797975D02*
X127556723Y-82845594D01*
X127556723Y-82845594D02*
X127366247Y-82893213D01*
X127366247Y-82893213D02*
X127223390Y-82893213D01*
X127223390Y-82893213D02*
X127032914Y-82845594D01*
X127032914Y-82845594D02*
X126937676Y-82797975D01*
X126937676Y-82797975D02*
X126842438Y-82702737D01*
X126842438Y-82702737D02*
X126794819Y-82559880D01*
X126794819Y-82559880D02*
X126794819Y-82464642D01*
X126794819Y-82464642D02*
X126842438Y-82321785D01*
X126842438Y-82321785D02*
X126890057Y-82274166D01*
X126890057Y-81893213D02*
X126842438Y-81845594D01*
X126842438Y-81845594D02*
X126794819Y-81750356D01*
X126794819Y-81750356D02*
X126794819Y-81512261D01*
X126794819Y-81512261D02*
X126842438Y-81417023D01*
X126842438Y-81417023D02*
X126890057Y-81369404D01*
X126890057Y-81369404D02*
X126985295Y-81321785D01*
X126985295Y-81321785D02*
X127080533Y-81321785D01*
X127080533Y-81321785D02*
X127223390Y-81369404D01*
X127223390Y-81369404D02*
X127794819Y-81940832D01*
X127794819Y-81940832D02*
X127794819Y-81321785D01*
X124549580Y-82064166D02*
X124597200Y-82111785D01*
X124597200Y-82111785D02*
X124644819Y-82254642D01*
X124644819Y-82254642D02*
X124644819Y-82349880D01*
X124644819Y-82349880D02*
X124597200Y-82492737D01*
X124597200Y-82492737D02*
X124501961Y-82587975D01*
X124501961Y-82587975D02*
X124406723Y-82635594D01*
X124406723Y-82635594D02*
X124216247Y-82683213D01*
X124216247Y-82683213D02*
X124073390Y-82683213D01*
X124073390Y-82683213D02*
X123882914Y-82635594D01*
X123882914Y-82635594D02*
X123787676Y-82587975D01*
X123787676Y-82587975D02*
X123692438Y-82492737D01*
X123692438Y-82492737D02*
X123644819Y-82349880D01*
X123644819Y-82349880D02*
X123644819Y-82254642D01*
X123644819Y-82254642D02*
X123692438Y-82111785D01*
X123692438Y-82111785D02*
X123740057Y-82064166D01*
X124644819Y-81111785D02*
X124644819Y-81683213D01*
X124644819Y-81397499D02*
X123644819Y-81397499D01*
X123644819Y-81397499D02*
X123787676Y-81492737D01*
X123787676Y-81492737D02*
X123882914Y-81587975D01*
X123882914Y-81587975D02*
X123930533Y-81683213D01*
D11*
X152127619Y-83002580D02*
X152127619Y-84002580D01*
X152127619Y-84002580D02*
X151794286Y-83288295D01*
X151794286Y-83288295D02*
X151460953Y-84002580D01*
X151460953Y-84002580D02*
X151460953Y-83002580D01*
X150556191Y-83002580D02*
X150556191Y-83526390D01*
X150556191Y-83526390D02*
X150603810Y-83621628D01*
X150603810Y-83621628D02*
X150699048Y-83669247D01*
X150699048Y-83669247D02*
X150889524Y-83669247D01*
X150889524Y-83669247D02*
X150984762Y-83621628D01*
X150556191Y-83050200D02*
X150651429Y-83002580D01*
X150651429Y-83002580D02*
X150889524Y-83002580D01*
X150889524Y-83002580D02*
X150984762Y-83050200D01*
X150984762Y-83050200D02*
X151032381Y-83145438D01*
X151032381Y-83145438D02*
X151032381Y-83240676D01*
X151032381Y-83240676D02*
X150984762Y-83335914D01*
X150984762Y-83335914D02*
X150889524Y-83383533D01*
X150889524Y-83383533D02*
X150651429Y-83383533D01*
X150651429Y-83383533D02*
X150556191Y-83431152D01*
X150080000Y-83002580D02*
X150080000Y-83669247D01*
X150080000Y-84002580D02*
X150127619Y-83954961D01*
X150127619Y-83954961D02*
X150080000Y-83907342D01*
X150080000Y-83907342D02*
X150032381Y-83954961D01*
X150032381Y-83954961D02*
X150080000Y-84002580D01*
X150080000Y-84002580D02*
X150080000Y-83907342D01*
X149603810Y-83669247D02*
X149603810Y-83002580D01*
X149603810Y-83574009D02*
X149556191Y-83621628D01*
X149556191Y-83621628D02*
X149460953Y-83669247D01*
X149460953Y-83669247D02*
X149318096Y-83669247D01*
X149318096Y-83669247D02*
X149222858Y-83621628D01*
X149222858Y-83621628D02*
X149175239Y-83526390D01*
X149175239Y-83526390D02*
X149175239Y-83002580D01*
X148937144Y-82907342D02*
X148175239Y-82907342D01*
X147365715Y-83097819D02*
X147413334Y-83050200D01*
X147413334Y-83050200D02*
X147556191Y-83002580D01*
X147556191Y-83002580D02*
X147651429Y-83002580D01*
X147651429Y-83002580D02*
X147794286Y-83050200D01*
X147794286Y-83050200D02*
X147889524Y-83145438D01*
X147889524Y-83145438D02*
X147937143Y-83240676D01*
X147937143Y-83240676D02*
X147984762Y-83431152D01*
X147984762Y-83431152D02*
X147984762Y-83574009D01*
X147984762Y-83574009D02*
X147937143Y-83764485D01*
X147937143Y-83764485D02*
X147889524Y-83859723D01*
X147889524Y-83859723D02*
X147794286Y-83954961D01*
X147794286Y-83954961D02*
X147651429Y-84002580D01*
X147651429Y-84002580D02*
X147556191Y-84002580D01*
X147556191Y-84002580D02*
X147413334Y-83954961D01*
X147413334Y-83954961D02*
X147365715Y-83907342D01*
X146794286Y-83002580D02*
X146889524Y-83050200D01*
X146889524Y-83050200D02*
X146937143Y-83097819D01*
X146937143Y-83097819D02*
X146984762Y-83193057D01*
X146984762Y-83193057D02*
X146984762Y-83478771D01*
X146984762Y-83478771D02*
X146937143Y-83574009D01*
X146937143Y-83574009D02*
X146889524Y-83621628D01*
X146889524Y-83621628D02*
X146794286Y-83669247D01*
X146794286Y-83669247D02*
X146651429Y-83669247D01*
X146651429Y-83669247D02*
X146556191Y-83621628D01*
X146556191Y-83621628D02*
X146508572Y-83574009D01*
X146508572Y-83574009D02*
X146460953Y-83478771D01*
X146460953Y-83478771D02*
X146460953Y-83193057D01*
X146460953Y-83193057D02*
X146508572Y-83097819D01*
X146508572Y-83097819D02*
X146556191Y-83050200D01*
X146556191Y-83050200D02*
X146651429Y-83002580D01*
X146651429Y-83002580D02*
X146794286Y-83002580D01*
X146032381Y-83669247D02*
X146032381Y-83002580D01*
X146032381Y-83574009D02*
X145984762Y-83621628D01*
X145984762Y-83621628D02*
X145889524Y-83669247D01*
X145889524Y-83669247D02*
X145746667Y-83669247D01*
X145746667Y-83669247D02*
X145651429Y-83621628D01*
X145651429Y-83621628D02*
X145603810Y-83526390D01*
X145603810Y-83526390D02*
X145603810Y-83002580D01*
X145270476Y-83669247D02*
X144889524Y-83669247D01*
X145127619Y-84002580D02*
X145127619Y-83145438D01*
X145127619Y-83145438D02*
X145080000Y-83050200D01*
X145080000Y-83050200D02*
X144984762Y-83002580D01*
X144984762Y-83002580D02*
X144889524Y-83002580D01*
X144556190Y-83002580D02*
X144556190Y-83669247D01*
X144556190Y-83478771D02*
X144508571Y-83574009D01*
X144508571Y-83574009D02*
X144460952Y-83621628D01*
X144460952Y-83621628D02*
X144365714Y-83669247D01*
X144365714Y-83669247D02*
X144270476Y-83669247D01*
X143794285Y-83002580D02*
X143889523Y-83050200D01*
X143889523Y-83050200D02*
X143937142Y-83097819D01*
X143937142Y-83097819D02*
X143984761Y-83193057D01*
X143984761Y-83193057D02*
X143984761Y-83478771D01*
X143984761Y-83478771D02*
X143937142Y-83574009D01*
X143937142Y-83574009D02*
X143889523Y-83621628D01*
X143889523Y-83621628D02*
X143794285Y-83669247D01*
X143794285Y-83669247D02*
X143651428Y-83669247D01*
X143651428Y-83669247D02*
X143556190Y-83621628D01*
X143556190Y-83621628D02*
X143508571Y-83574009D01*
X143508571Y-83574009D02*
X143460952Y-83478771D01*
X143460952Y-83478771D02*
X143460952Y-83193057D01*
X143460952Y-83193057D02*
X143508571Y-83097819D01*
X143508571Y-83097819D02*
X143556190Y-83050200D01*
X143556190Y-83050200D02*
X143651428Y-83002580D01*
X143651428Y-83002580D02*
X143794285Y-83002580D01*
X142889523Y-83002580D02*
X142984761Y-83050200D01*
X142984761Y-83050200D02*
X143032380Y-83145438D01*
X143032380Y-83145438D02*
X143032380Y-84002580D01*
X141984761Y-83002580D02*
X142556189Y-83002580D01*
X142270475Y-83002580D02*
X142270475Y-84002580D01*
X142270475Y-84002580D02*
X142365713Y-83859723D01*
X142365713Y-83859723D02*
X142460951Y-83764485D01*
X142460951Y-83764485D02*
X142556189Y-83716866D01*
D10*
X134624819Y-89131904D02*
X133624819Y-89131904D01*
X134101009Y-89131904D02*
X134101009Y-88560476D01*
X134624819Y-88560476D02*
X133624819Y-88560476D01*
X133624819Y-87655714D02*
X133624819Y-87846190D01*
X133624819Y-87846190D02*
X133672438Y-87941428D01*
X133672438Y-87941428D02*
X133720057Y-87989047D01*
X133720057Y-87989047D02*
X133862914Y-88084285D01*
X133862914Y-88084285D02*
X134053390Y-88131904D01*
X134053390Y-88131904D02*
X134434342Y-88131904D01*
X134434342Y-88131904D02*
X134529580Y-88084285D01*
X134529580Y-88084285D02*
X134577200Y-88036666D01*
X134577200Y-88036666D02*
X134624819Y-87941428D01*
X134624819Y-87941428D02*
X134624819Y-87750952D01*
X134624819Y-87750952D02*
X134577200Y-87655714D01*
X134577200Y-87655714D02*
X134529580Y-87608095D01*
X134529580Y-87608095D02*
X134434342Y-87560476D01*
X134434342Y-87560476D02*
X134196247Y-87560476D01*
X134196247Y-87560476D02*
X134101009Y-87608095D01*
X134101009Y-87608095D02*
X134053390Y-87655714D01*
X134053390Y-87655714D02*
X134005771Y-87750952D01*
X134005771Y-87750952D02*
X134005771Y-87941428D01*
X134005771Y-87941428D02*
X134053390Y-88036666D01*
X134053390Y-88036666D02*
X134101009Y-88084285D01*
X134101009Y-88084285D02*
X134196247Y-88131904D01*
X44661905Y-80754819D02*
X44661905Y-79754819D01*
X44661905Y-80231009D02*
X45233333Y-80231009D01*
X45233333Y-80754819D02*
X45233333Y-79754819D01*
X46233333Y-80754819D02*
X45661905Y-80754819D01*
X45947619Y-80754819D02*
X45947619Y-79754819D01*
X45947619Y-79754819D02*
X45852381Y-79897676D01*
X45852381Y-79897676D02*
X45757143Y-79992914D01*
X45757143Y-79992914D02*
X45661905Y-80040533D01*
X47185714Y-80754819D02*
X46614286Y-80754819D01*
X46900000Y-80754819D02*
X46900000Y-79754819D01*
X46900000Y-79754819D02*
X46804762Y-79897676D01*
X46804762Y-79897676D02*
X46709524Y-79992914D01*
X46709524Y-79992914D02*
X46614286Y-80040533D01*
X98624819Y-89131904D02*
X97624819Y-89131904D01*
X98101009Y-89131904D02*
X98101009Y-88560476D01*
X98624819Y-88560476D02*
X97624819Y-88560476D01*
X98053390Y-87941428D02*
X98005771Y-88036666D01*
X98005771Y-88036666D02*
X97958152Y-88084285D01*
X97958152Y-88084285D02*
X97862914Y-88131904D01*
X97862914Y-88131904D02*
X97815295Y-88131904D01*
X97815295Y-88131904D02*
X97720057Y-88084285D01*
X97720057Y-88084285D02*
X97672438Y-88036666D01*
X97672438Y-88036666D02*
X97624819Y-87941428D01*
X97624819Y-87941428D02*
X97624819Y-87750952D01*
X97624819Y-87750952D02*
X97672438Y-87655714D01*
X97672438Y-87655714D02*
X97720057Y-87608095D01*
X97720057Y-87608095D02*
X97815295Y-87560476D01*
X97815295Y-87560476D02*
X97862914Y-87560476D01*
X97862914Y-87560476D02*
X97958152Y-87608095D01*
X97958152Y-87608095D02*
X98005771Y-87655714D01*
X98005771Y-87655714D02*
X98053390Y-87750952D01*
X98053390Y-87750952D02*
X98053390Y-87941428D01*
X98053390Y-87941428D02*
X98101009Y-88036666D01*
X98101009Y-88036666D02*
X98148628Y-88084285D01*
X98148628Y-88084285D02*
X98243866Y-88131904D01*
X98243866Y-88131904D02*
X98434342Y-88131904D01*
X98434342Y-88131904D02*
X98529580Y-88084285D01*
X98529580Y-88084285D02*
X98577200Y-88036666D01*
X98577200Y-88036666D02*
X98624819Y-87941428D01*
X98624819Y-87941428D02*
X98624819Y-87750952D01*
X98624819Y-87750952D02*
X98577200Y-87655714D01*
X98577200Y-87655714D02*
X98529580Y-87608095D01*
X98529580Y-87608095D02*
X98434342Y-87560476D01*
X98434342Y-87560476D02*
X98243866Y-87560476D01*
X98243866Y-87560476D02*
X98148628Y-87608095D01*
X98148628Y-87608095D02*
X98101009Y-87655714D01*
X98101009Y-87655714D02*
X98053390Y-87750952D01*
X188624819Y-89131904D02*
X187624819Y-89131904D01*
X188101009Y-89131904D02*
X188101009Y-88560476D01*
X188624819Y-88560476D02*
X187624819Y-88560476D01*
X187624819Y-88179523D02*
X187624819Y-87560476D01*
X187624819Y-87560476D02*
X188005771Y-87893809D01*
X188005771Y-87893809D02*
X188005771Y-87750952D01*
X188005771Y-87750952D02*
X188053390Y-87655714D01*
X188053390Y-87655714D02*
X188101009Y-87608095D01*
X188101009Y-87608095D02*
X188196247Y-87560476D01*
X188196247Y-87560476D02*
X188434342Y-87560476D01*
X188434342Y-87560476D02*
X188529580Y-87608095D01*
X188529580Y-87608095D02*
X188577200Y-87655714D01*
X188577200Y-87655714D02*
X188624819Y-87750952D01*
X188624819Y-87750952D02*
X188624819Y-88036666D01*
X188624819Y-88036666D02*
X188577200Y-88131904D01*
X188577200Y-88131904D02*
X188529580Y-88179523D01*
D12*
%TO.C,H1*%
X223330000Y-88370000D02*
X223330000Y-86570000D01*
X223330000Y-88370000D02*
X223330000Y-89170000D01*
X220210000Y-88370000D02*
X220210000Y-87570000D01*
X220210000Y-88370000D02*
X220210000Y-89170000D01*
%TO.C,H10*%
X61330000Y-88370000D02*
X61330000Y-86570000D01*
X61330000Y-88370000D02*
X61330000Y-89170000D01*
X58210000Y-88370000D02*
X58210000Y-87570000D01*
X58210000Y-88370000D02*
X58210000Y-89170000D01*
%TO.C,H4*%
X169330000Y-88370000D02*
X169330000Y-86570000D01*
X169330000Y-88370000D02*
X169330000Y-89170000D01*
X166210000Y-88370000D02*
X166210000Y-87570000D01*
X166210000Y-88370000D02*
X166210000Y-89170000D01*
%TO.C,H5*%
X151330000Y-88370000D02*
X151330000Y-86570000D01*
X151330000Y-88370000D02*
X151330000Y-89170000D01*
X148210000Y-88370000D02*
X148210000Y-87570000D01*
X148210000Y-88370000D02*
X148210000Y-89170000D01*
%TO.C,H7*%
X115330000Y-88370000D02*
X115330000Y-86570000D01*
X115330000Y-88370000D02*
X115330000Y-89170000D01*
X112210000Y-88370000D02*
X112210000Y-87570000D01*
X112210000Y-88370000D02*
X112210000Y-89170000D01*
%TO.C,H2*%
X205330000Y-88370000D02*
X205330000Y-86570000D01*
X205330000Y-88370000D02*
X205330000Y-89170000D01*
X202210000Y-88370000D02*
X202210000Y-87570000D01*
X202210000Y-88370000D02*
X202210000Y-89170000D01*
%TO.C,H9*%
X79330000Y-88370000D02*
X79330000Y-86570000D01*
X79330000Y-88370000D02*
X79330000Y-89170000D01*
X76210000Y-88370000D02*
X76210000Y-87570000D01*
X76210000Y-88370000D02*
X76210000Y-89170000D01*
%TO.C,C2*%
X126360000Y-79228752D02*
X126360000Y-77806248D01*
X128180000Y-79228752D02*
X128180000Y-77806248D01*
%TO.C,C1*%
X123170000Y-79188752D02*
X123170000Y-77766248D01*
X124990000Y-79188752D02*
X124990000Y-77766248D01*
D11*
%TO.C,Main_Control1*%
X162500000Y-81470000D02*
X129480000Y-81470000D01*
X129480000Y-81470000D02*
X129480000Y-76390000D01*
X129480000Y-76390000D02*
X162500000Y-76390000D01*
X162500000Y-76390000D02*
X162500000Y-81470000D01*
D12*
%TO.C,H6*%
X133330000Y-88370000D02*
X133330000Y-86570000D01*
X133330000Y-88370000D02*
X133330000Y-89170000D01*
X130210000Y-88370000D02*
X130210000Y-87570000D01*
X130210000Y-88370000D02*
X130210000Y-89170000D01*
%TO.C,H8*%
X97330000Y-88370000D02*
X97330000Y-86570000D01*
X97330000Y-88370000D02*
X97330000Y-89170000D01*
X94210000Y-88370000D02*
X94210000Y-87570000D01*
X94210000Y-88370000D02*
X94210000Y-89170000D01*
%TO.C,H3*%
X187330000Y-88370000D02*
X187330000Y-86570000D01*
X187330000Y-88370000D02*
X187330000Y-89170000D01*
X184210000Y-88370000D02*
X184210000Y-87570000D01*
X184210000Y-88370000D02*
X184210000Y-89170000D01*
%TD*%
M02*
