%TF.GenerationSoftware,KiCad,Pcbnew,7.0.10*%
%TF.CreationDate,2024-03-07T18:10:15-07:00*%
%TF.ProjectId,Hall_effect_sensors,48616c6c-5f65-4666-9665-63745f73656e,rev?*%
%TF.SameCoordinates,Original*%
%TF.FileFunction,Soldermask,Top*%
%TF.FilePolarity,Negative*%
%FSLAX46Y46*%
G04 Gerber Fmt 4.6, Leading zero omitted, Abs format (unit mm)*
G04 Created by KiCad (PCBNEW 7.0.10) date 2024-03-07 18:10:15*
%MOMM*%
%LPD*%
G01*
G04 APERTURE LIST*
G04 Aperture macros list*
%AMRoundRect*
0 Rectangle with rounded corners*
0 $1 Rounding radius*
0 $2 $3 $4 $5 $6 $7 $8 $9 X,Y pos of 4 corners*
0 Add a 4 corners polygon primitive as box body*
4,1,4,$2,$3,$4,$5,$6,$7,$8,$9,$2,$3,0*
0 Add four circle primitives for the rounded corners*
1,1,$1+$1,$2,$3*
1,1,$1+$1,$4,$5*
1,1,$1+$1,$6,$7*
1,1,$1+$1,$8,$9*
0 Add four rect primitives between the rounded corners*
20,1,$1+$1,$2,$3,$4,$5,0*
20,1,$1+$1,$4,$5,$6,$7,0*
20,1,$1+$1,$6,$7,$8,$9,0*
20,1,$1+$1,$8,$9,$2,$3,0*%
G04 Aperture macros list end*
%ADD10RoundRect,0.150000X-0.150000X0.512500X-0.150000X-0.512500X0.150000X-0.512500X0.150000X0.512500X0*%
%ADD11C,2.000000*%
%ADD12C,4.000000*%
%ADD13RoundRect,0.250000X0.650000X-0.412500X0.650000X0.412500X-0.650000X0.412500X-0.650000X-0.412500X0*%
%ADD14C,1.524000*%
%ADD15C,0.800000*%
%ADD16C,1.400000*%
G04 APERTURE END LIST*
D10*
%TO.C,H1*%
X222720000Y-87232500D03*
X220820000Y-87232500D03*
X221770000Y-89507500D03*
%TD*%
%TO.C,H10*%
X60720000Y-87232500D03*
X58820000Y-87232500D03*
X59770000Y-89507500D03*
%TD*%
%TO.C,H4*%
X168720000Y-87232500D03*
X166820000Y-87232500D03*
X167770000Y-89507500D03*
%TD*%
%TO.C,H5*%
X150720000Y-87232500D03*
X148820000Y-87232500D03*
X149770000Y-89507500D03*
%TD*%
D11*
%TO.C,H13*%
X141930000Y-88530000D03*
%TD*%
D10*
%TO.C,H7*%
X114720000Y-87232500D03*
X112820000Y-87232500D03*
X113770000Y-89507500D03*
%TD*%
%TO.C,H2*%
X204720000Y-87232500D03*
X202820000Y-87232500D03*
X203770000Y-89507500D03*
%TD*%
%TO.C,H9*%
X78720000Y-87232500D03*
X76820000Y-87232500D03*
X77770000Y-89507500D03*
%TD*%
D12*
%TO.C,H12*%
X233700000Y-85900000D03*
%TD*%
D13*
%TO.C,C2*%
X127270000Y-80080000D03*
X127270000Y-76955000D03*
%TD*%
%TO.C,C1*%
X124080000Y-80040000D03*
X124080000Y-76915000D03*
%TD*%
D14*
%TO.C,Main_Control1*%
X159960000Y-78930000D03*
X157420000Y-78930000D03*
X154880000Y-78930000D03*
X152340000Y-78930000D03*
X149800000Y-78930000D03*
X147260000Y-78930000D03*
X144720000Y-78930000D03*
X142180000Y-78930000D03*
X139640000Y-78930000D03*
X137100000Y-78930000D03*
X134560000Y-78930000D03*
X132020000Y-78930000D03*
%TD*%
D10*
%TO.C,H6*%
X132720000Y-87232500D03*
X130820000Y-87232500D03*
X131770000Y-89507500D03*
%TD*%
D12*
%TO.C,H11*%
X45900000Y-85300000D03*
%TD*%
D10*
%TO.C,H8*%
X96720000Y-87232500D03*
X94820000Y-87232500D03*
X95770000Y-89507500D03*
%TD*%
%TO.C,H3*%
X186720000Y-87232500D03*
X184820000Y-87232500D03*
X185770000Y-89507500D03*
%TD*%
D15*
X121910000Y-80170000D03*
X80123473Y-86990347D03*
X98450000Y-87040000D03*
X62470000Y-87040000D03*
X206580000Y-86460000D03*
X170560000Y-87060000D03*
X116720000Y-87110000D03*
X134460000Y-87020000D03*
X129580000Y-85460000D03*
X188780000Y-87020000D03*
X152500000Y-87060000D03*
X224630000Y-87080000D03*
X121530000Y-78920000D03*
D16*
X113660000Y-78770000D03*
D15*
X203680000Y-91570000D03*
X60580000Y-91460000D03*
X113810000Y-91460000D03*
X95770000Y-91430000D03*
X131770000Y-91310000D03*
X221720000Y-91820000D03*
X167760000Y-91510000D03*
X77770000Y-91300000D03*
X149760000Y-91450000D03*
X185740000Y-91530000D03*
M02*
