M48
; DRILL file {KiCad 7.0.10} date Thu Mar  7 18:13:06 2024
; FORMAT={-:-/ absolute / inch / decimal}
; #@! TF.CreationDate,2024-03-07T18:13:06-07:00
; #@! TF.GenerationSoftware,Kicad,Pcbnew,7.0.10
; #@! TF.FileFunction,Plated,1,2,PTH
FMAT,2
INCH
; #@! TA.AperFunction,Plated,PTH,ViaDrill
T1C0.0157
; #@! TA.AperFunction,Plated,PTH,ComponentDrill
T2C0.0300
; #@! TA.AperFunction,Plated,PTH,ViaDrill
T3C0.0394
; #@! TA.AperFunction,Plated,PTH,ComponentDrill
T4C0.0394
; #@! TA.AperFunction,Plated,PTH,ComponentDrill
T5C0.0630
; #@! TA.AperFunction,Plated,PTH,ComponentDrill
T6C0.1772
%
G90
G05
T1
X5.5984Y-4.9768
X5.8075Y-5.4087
T2
X4.4913Y-3.3382
X4.4913Y-4.9382
X5.1913Y-3.3382
X5.1913Y-4.9382
X5.872Y-3.3453
X5.872Y-4.9453
X6.0409Y-6.4996
X6.0409Y-8.0996
X6.572Y-3.3453
X6.572Y-4.9453
X6.7409Y-6.4996
X6.7409Y-8.0996
X7.2705Y-3.3366
X7.2705Y-4.9366
X7.4244Y-6.4992
X7.4244Y-8.0992
X7.9705Y-3.3366
X7.9705Y-4.9366
X8.1244Y-6.4992
X8.1244Y-8.0992
X8.7913Y-3.3374
X8.7913Y-4.9374
X8.7937Y-6.5236
X8.7937Y-8.1236
X9.4913Y-3.3374
X9.4913Y-4.9374
X9.4937Y-6.5236
X9.4937Y-8.1236
T3
X4.2134Y-7.7728
T4
X5.0949Y-6.9059
X5.0949Y-7.0059
X5.1949Y-6.9059
X5.1949Y-7.0059
X5.2949Y-6.9059
X5.2949Y-7.0059
X5.3949Y-6.9059
X5.3949Y-7.0059
X5.4949Y-6.9059
X5.4949Y-7.0059
X5.5949Y-6.9059
X5.5949Y-7.0059
X6.1163Y-2.9056
X6.2163Y-2.9056
X6.2791Y-8.5512
X6.3163Y-2.9056
X6.3791Y-8.5512
X6.4791Y-8.5512
X7.5021Y-2.9056
X7.6021Y-2.9056
X7.6649Y-8.5512
X7.7021Y-2.9056
X7.7649Y-8.5512
X7.8649Y-8.5512
X8.8879Y-2.9056
X8.9879Y-2.9056
X9.0507Y-8.5512
X9.0879Y-2.9056
X9.1507Y-8.5512
X9.2507Y-8.5512
X9.8794Y-5.011
X9.8794Y-5.111
X9.8794Y-5.211
X9.8794Y-5.311
X9.8794Y-5.411
X9.8794Y-5.511
T5
X4.1933Y-8.5783
X4.1961Y-2.6563
X4.1969Y-5.7752
X4.3114Y-8.7634
X4.3142Y-2.8413
X4.315Y-5.9602
X4.4295Y-8.5783
X4.4323Y-2.6563
X4.4331Y-5.7752
T6
X4.1654Y-6.7917
X4.1654Y-7.0752
M30
