%TF.GenerationSoftware,KiCad,Pcbnew,7.0.10*%
%TF.CreationDate,2024-03-07T18:13:07-07:00*%
%TF.ProjectId,Power_Supply,506f7765-725f-4537-9570-706c792e6b69,rev?*%
%TF.SameCoordinates,Original*%
%TF.FileFunction,Drillmap*%
%TF.FilePolarity,Positive*%
%FSLAX45Y45*%
G04 Gerber Fmt 4.5, Leading zero omitted, Abs format (unit mm)*
G04 Created by KiCad (PCBNEW 7.0.10) date 2024-03-07 18:13:07*
%MOMM*%
%LPD*%
G01*
G04 APERTURE LIST*
%ADD10C,0.200000*%
%ADD11C,0.250000*%
G04 APERTURE END LIST*
D10*
X9847167Y-4966000D02*
X26418167Y-4966000D01*
X26418167Y-23769000D01*
X9847167Y-23769000D01*
X9847167Y-4966000D01*
D11*
X10369667Y-22974000D02*
X10619667Y-23224000D01*
X10619667Y-22974000D02*
X10369667Y-23224000D01*
X10427667Y-5424000D02*
X10677667Y-5674000D01*
X10677667Y-5424000D02*
X10427667Y-5674000D01*
X25629667Y-22997000D02*
X25879667Y-23247000D01*
X25879667Y-22997000D02*
X25629667Y-23247000D01*
X25648667Y-5516000D02*
X25898667Y-5766000D01*
X25898667Y-5516000D02*
X25648667Y-5766000D01*
D10*
X10097944Y-24090484D02*
X10097944Y-23890484D01*
X10097944Y-23890484D02*
X10145563Y-23890484D01*
X10145563Y-23890484D02*
X10174134Y-23900008D01*
X10174134Y-23900008D02*
X10193182Y-23919055D01*
X10193182Y-23919055D02*
X10202706Y-23938103D01*
X10202706Y-23938103D02*
X10212229Y-23976198D01*
X10212229Y-23976198D02*
X10212229Y-24004769D01*
X10212229Y-24004769D02*
X10202706Y-24042865D01*
X10202706Y-24042865D02*
X10193182Y-24061912D01*
X10193182Y-24061912D02*
X10174134Y-24080960D01*
X10174134Y-24080960D02*
X10145563Y-24090484D01*
X10145563Y-24090484D02*
X10097944Y-24090484D01*
X10297944Y-24090484D02*
X10297944Y-23957150D01*
X10297944Y-23995246D02*
X10307467Y-23976198D01*
X10307467Y-23976198D02*
X10316991Y-23966674D01*
X10316991Y-23966674D02*
X10336039Y-23957150D01*
X10336039Y-23957150D02*
X10355087Y-23957150D01*
X10421753Y-24090484D02*
X10421753Y-23957150D01*
X10421753Y-23890484D02*
X10412229Y-23900008D01*
X10412229Y-23900008D02*
X10421753Y-23909531D01*
X10421753Y-23909531D02*
X10431277Y-23900008D01*
X10431277Y-23900008D02*
X10421753Y-23890484D01*
X10421753Y-23890484D02*
X10421753Y-23909531D01*
X10545563Y-24090484D02*
X10526515Y-24080960D01*
X10526515Y-24080960D02*
X10516991Y-24061912D01*
X10516991Y-24061912D02*
X10516991Y-23890484D01*
X10650325Y-24090484D02*
X10631277Y-24080960D01*
X10631277Y-24080960D02*
X10621753Y-24061912D01*
X10621753Y-24061912D02*
X10621753Y-23890484D01*
X10878896Y-24090484D02*
X10878896Y-23890484D01*
X10878896Y-23890484D02*
X10945563Y-24033341D01*
X10945563Y-24033341D02*
X11012229Y-23890484D01*
X11012229Y-23890484D02*
X11012229Y-24090484D01*
X11193182Y-24090484D02*
X11193182Y-23985722D01*
X11193182Y-23985722D02*
X11183658Y-23966674D01*
X11183658Y-23966674D02*
X11164610Y-23957150D01*
X11164610Y-23957150D02*
X11126515Y-23957150D01*
X11126515Y-23957150D02*
X11107467Y-23966674D01*
X11193182Y-24080960D02*
X11174134Y-24090484D01*
X11174134Y-24090484D02*
X11126515Y-24090484D01*
X11126515Y-24090484D02*
X11107467Y-24080960D01*
X11107467Y-24080960D02*
X11097944Y-24061912D01*
X11097944Y-24061912D02*
X11097944Y-24042865D01*
X11097944Y-24042865D02*
X11107467Y-24023817D01*
X11107467Y-24023817D02*
X11126515Y-24014293D01*
X11126515Y-24014293D02*
X11174134Y-24014293D01*
X11174134Y-24014293D02*
X11193182Y-24004769D01*
X11288420Y-23957150D02*
X11288420Y-24157150D01*
X11288420Y-23966674D02*
X11307467Y-23957150D01*
X11307467Y-23957150D02*
X11345563Y-23957150D01*
X11345563Y-23957150D02*
X11364610Y-23966674D01*
X11364610Y-23966674D02*
X11374134Y-23976198D01*
X11374134Y-23976198D02*
X11383658Y-23995246D01*
X11383658Y-23995246D02*
X11383658Y-24052388D01*
X11383658Y-24052388D02*
X11374134Y-24071436D01*
X11374134Y-24071436D02*
X11364610Y-24080960D01*
X11364610Y-24080960D02*
X11345563Y-24090484D01*
X11345563Y-24090484D02*
X11307467Y-24090484D01*
X11307467Y-24090484D02*
X11288420Y-24080960D01*
X11469372Y-24071436D02*
X11478896Y-24080960D01*
X11478896Y-24080960D02*
X11469372Y-24090484D01*
X11469372Y-24090484D02*
X11459848Y-24080960D01*
X11459848Y-24080960D02*
X11469372Y-24071436D01*
X11469372Y-24071436D02*
X11469372Y-24090484D01*
X11469372Y-23966674D02*
X11478896Y-23976198D01*
X11478896Y-23976198D02*
X11469372Y-23985722D01*
X11469372Y-23985722D02*
X11459848Y-23976198D01*
X11459848Y-23976198D02*
X11469372Y-23966674D01*
X11469372Y-23966674D02*
X11469372Y-23985722D01*
X9637167Y-24319000D02*
X9837167Y-24519000D01*
X9837167Y-24319000D02*
X9637167Y-24519000D01*
X10088420Y-24329531D02*
X10097944Y-24320008D01*
X10097944Y-24320008D02*
X10116991Y-24310484D01*
X10116991Y-24310484D02*
X10164610Y-24310484D01*
X10164610Y-24310484D02*
X10183658Y-24320008D01*
X10183658Y-24320008D02*
X10193182Y-24329531D01*
X10193182Y-24329531D02*
X10202706Y-24348579D01*
X10202706Y-24348579D02*
X10202706Y-24367627D01*
X10202706Y-24367627D02*
X10193182Y-24396198D01*
X10193182Y-24396198D02*
X10078896Y-24510484D01*
X10078896Y-24510484D02*
X10202706Y-24510484D01*
X10288420Y-24491436D02*
X10297944Y-24500960D01*
X10297944Y-24500960D02*
X10288420Y-24510484D01*
X10288420Y-24510484D02*
X10278896Y-24500960D01*
X10278896Y-24500960D02*
X10288420Y-24491436D01*
X10288420Y-24491436D02*
X10288420Y-24510484D01*
X10478896Y-24310484D02*
X10383658Y-24310484D01*
X10383658Y-24310484D02*
X10374134Y-24405722D01*
X10374134Y-24405722D02*
X10383658Y-24396198D01*
X10383658Y-24396198D02*
X10402706Y-24386674D01*
X10402706Y-24386674D02*
X10450325Y-24386674D01*
X10450325Y-24386674D02*
X10469372Y-24396198D01*
X10469372Y-24396198D02*
X10478896Y-24405722D01*
X10478896Y-24405722D02*
X10488420Y-24424769D01*
X10488420Y-24424769D02*
X10488420Y-24472388D01*
X10488420Y-24472388D02*
X10478896Y-24491436D01*
X10478896Y-24491436D02*
X10469372Y-24500960D01*
X10469372Y-24500960D02*
X10450325Y-24510484D01*
X10450325Y-24510484D02*
X10402706Y-24510484D01*
X10402706Y-24510484D02*
X10383658Y-24500960D01*
X10383658Y-24500960D02*
X10374134Y-24491436D01*
X10612229Y-24310484D02*
X10631277Y-24310484D01*
X10631277Y-24310484D02*
X10650325Y-24320008D01*
X10650325Y-24320008D02*
X10659848Y-24329531D01*
X10659848Y-24329531D02*
X10669372Y-24348579D01*
X10669372Y-24348579D02*
X10678896Y-24386674D01*
X10678896Y-24386674D02*
X10678896Y-24434293D01*
X10678896Y-24434293D02*
X10669372Y-24472388D01*
X10669372Y-24472388D02*
X10659848Y-24491436D01*
X10659848Y-24491436D02*
X10650325Y-24500960D01*
X10650325Y-24500960D02*
X10631277Y-24510484D01*
X10631277Y-24510484D02*
X10612229Y-24510484D01*
X10612229Y-24510484D02*
X10593182Y-24500960D01*
X10593182Y-24500960D02*
X10583658Y-24491436D01*
X10583658Y-24491436D02*
X10574134Y-24472388D01*
X10574134Y-24472388D02*
X10564610Y-24434293D01*
X10564610Y-24434293D02*
X10564610Y-24386674D01*
X10564610Y-24386674D02*
X10574134Y-24348579D01*
X10574134Y-24348579D02*
X10583658Y-24329531D01*
X10583658Y-24329531D02*
X10593182Y-24320008D01*
X10593182Y-24320008D02*
X10612229Y-24310484D01*
X10802706Y-24310484D02*
X10821753Y-24310484D01*
X10821753Y-24310484D02*
X10840801Y-24320008D01*
X10840801Y-24320008D02*
X10850325Y-24329531D01*
X10850325Y-24329531D02*
X10859848Y-24348579D01*
X10859848Y-24348579D02*
X10869372Y-24386674D01*
X10869372Y-24386674D02*
X10869372Y-24434293D01*
X10869372Y-24434293D02*
X10859848Y-24472388D01*
X10859848Y-24472388D02*
X10850325Y-24491436D01*
X10850325Y-24491436D02*
X10840801Y-24500960D01*
X10840801Y-24500960D02*
X10821753Y-24510484D01*
X10821753Y-24510484D02*
X10802706Y-24510484D01*
X10802706Y-24510484D02*
X10783658Y-24500960D01*
X10783658Y-24500960D02*
X10774134Y-24491436D01*
X10774134Y-24491436D02*
X10764610Y-24472388D01*
X10764610Y-24472388D02*
X10755087Y-24434293D01*
X10755087Y-24434293D02*
X10755087Y-24386674D01*
X10755087Y-24386674D02*
X10764610Y-24348579D01*
X10764610Y-24348579D02*
X10774134Y-24329531D01*
X10774134Y-24329531D02*
X10783658Y-24320008D01*
X10783658Y-24320008D02*
X10802706Y-24310484D01*
X10955087Y-24510484D02*
X10955087Y-24377150D01*
X10955087Y-24396198D02*
X10964610Y-24386674D01*
X10964610Y-24386674D02*
X10983658Y-24377150D01*
X10983658Y-24377150D02*
X11012229Y-24377150D01*
X11012229Y-24377150D02*
X11031277Y-24386674D01*
X11031277Y-24386674D02*
X11040801Y-24405722D01*
X11040801Y-24405722D02*
X11040801Y-24510484D01*
X11040801Y-24405722D02*
X11050325Y-24386674D01*
X11050325Y-24386674D02*
X11069372Y-24377150D01*
X11069372Y-24377150D02*
X11097944Y-24377150D01*
X11097944Y-24377150D02*
X11116991Y-24386674D01*
X11116991Y-24386674D02*
X11126515Y-24405722D01*
X11126515Y-24405722D02*
X11126515Y-24510484D01*
X11221753Y-24510484D02*
X11221753Y-24377150D01*
X11221753Y-24396198D02*
X11231277Y-24386674D01*
X11231277Y-24386674D02*
X11250325Y-24377150D01*
X11250325Y-24377150D02*
X11278896Y-24377150D01*
X11278896Y-24377150D02*
X11297944Y-24386674D01*
X11297944Y-24386674D02*
X11307467Y-24405722D01*
X11307467Y-24405722D02*
X11307467Y-24510484D01*
X11307467Y-24405722D02*
X11316991Y-24386674D01*
X11316991Y-24386674D02*
X11336039Y-24377150D01*
X11336039Y-24377150D02*
X11364610Y-24377150D01*
X11364610Y-24377150D02*
X11383658Y-24386674D01*
X11383658Y-24386674D02*
X11393182Y-24405722D01*
X11393182Y-24405722D02*
X11393182Y-24510484D01*
X11783658Y-24300960D02*
X11612229Y-24558103D01*
X12040801Y-24310484D02*
X12059849Y-24310484D01*
X12059849Y-24310484D02*
X12078896Y-24320008D01*
X12078896Y-24320008D02*
X12088420Y-24329531D01*
X12088420Y-24329531D02*
X12097944Y-24348579D01*
X12097944Y-24348579D02*
X12107468Y-24386674D01*
X12107468Y-24386674D02*
X12107468Y-24434293D01*
X12107468Y-24434293D02*
X12097944Y-24472388D01*
X12097944Y-24472388D02*
X12088420Y-24491436D01*
X12088420Y-24491436D02*
X12078896Y-24500960D01*
X12078896Y-24500960D02*
X12059849Y-24510484D01*
X12059849Y-24510484D02*
X12040801Y-24510484D01*
X12040801Y-24510484D02*
X12021753Y-24500960D01*
X12021753Y-24500960D02*
X12012229Y-24491436D01*
X12012229Y-24491436D02*
X12002706Y-24472388D01*
X12002706Y-24472388D02*
X11993182Y-24434293D01*
X11993182Y-24434293D02*
X11993182Y-24386674D01*
X11993182Y-24386674D02*
X12002706Y-24348579D01*
X12002706Y-24348579D02*
X12012229Y-24329531D01*
X12012229Y-24329531D02*
X12021753Y-24320008D01*
X12021753Y-24320008D02*
X12040801Y-24310484D01*
X12193182Y-24491436D02*
X12202706Y-24500960D01*
X12202706Y-24500960D02*
X12193182Y-24510484D01*
X12193182Y-24510484D02*
X12183658Y-24500960D01*
X12183658Y-24500960D02*
X12193182Y-24491436D01*
X12193182Y-24491436D02*
X12193182Y-24510484D01*
X12326515Y-24310484D02*
X12345563Y-24310484D01*
X12345563Y-24310484D02*
X12364610Y-24320008D01*
X12364610Y-24320008D02*
X12374134Y-24329531D01*
X12374134Y-24329531D02*
X12383658Y-24348579D01*
X12383658Y-24348579D02*
X12393182Y-24386674D01*
X12393182Y-24386674D02*
X12393182Y-24434293D01*
X12393182Y-24434293D02*
X12383658Y-24472388D01*
X12383658Y-24472388D02*
X12374134Y-24491436D01*
X12374134Y-24491436D02*
X12364610Y-24500960D01*
X12364610Y-24500960D02*
X12345563Y-24510484D01*
X12345563Y-24510484D02*
X12326515Y-24510484D01*
X12326515Y-24510484D02*
X12307468Y-24500960D01*
X12307468Y-24500960D02*
X12297944Y-24491436D01*
X12297944Y-24491436D02*
X12288420Y-24472388D01*
X12288420Y-24472388D02*
X12278896Y-24434293D01*
X12278896Y-24434293D02*
X12278896Y-24386674D01*
X12278896Y-24386674D02*
X12288420Y-24348579D01*
X12288420Y-24348579D02*
X12297944Y-24329531D01*
X12297944Y-24329531D02*
X12307468Y-24320008D01*
X12307468Y-24320008D02*
X12326515Y-24310484D01*
X12488420Y-24510484D02*
X12526515Y-24510484D01*
X12526515Y-24510484D02*
X12545563Y-24500960D01*
X12545563Y-24500960D02*
X12555087Y-24491436D01*
X12555087Y-24491436D02*
X12574134Y-24462865D01*
X12574134Y-24462865D02*
X12583658Y-24424769D01*
X12583658Y-24424769D02*
X12583658Y-24348579D01*
X12583658Y-24348579D02*
X12574134Y-24329531D01*
X12574134Y-24329531D02*
X12564610Y-24320008D01*
X12564610Y-24320008D02*
X12545563Y-24310484D01*
X12545563Y-24310484D02*
X12507468Y-24310484D01*
X12507468Y-24310484D02*
X12488420Y-24320008D01*
X12488420Y-24320008D02*
X12478896Y-24329531D01*
X12478896Y-24329531D02*
X12469372Y-24348579D01*
X12469372Y-24348579D02*
X12469372Y-24396198D01*
X12469372Y-24396198D02*
X12478896Y-24415246D01*
X12478896Y-24415246D02*
X12488420Y-24424769D01*
X12488420Y-24424769D02*
X12507468Y-24434293D01*
X12507468Y-24434293D02*
X12545563Y-24434293D01*
X12545563Y-24434293D02*
X12564610Y-24424769D01*
X12564610Y-24424769D02*
X12574134Y-24415246D01*
X12574134Y-24415246D02*
X12583658Y-24396198D01*
X12697944Y-24396198D02*
X12678896Y-24386674D01*
X12678896Y-24386674D02*
X12669372Y-24377150D01*
X12669372Y-24377150D02*
X12659849Y-24358103D01*
X12659849Y-24358103D02*
X12659849Y-24348579D01*
X12659849Y-24348579D02*
X12669372Y-24329531D01*
X12669372Y-24329531D02*
X12678896Y-24320008D01*
X12678896Y-24320008D02*
X12697944Y-24310484D01*
X12697944Y-24310484D02*
X12736039Y-24310484D01*
X12736039Y-24310484D02*
X12755087Y-24320008D01*
X12755087Y-24320008D02*
X12764610Y-24329531D01*
X12764610Y-24329531D02*
X12774134Y-24348579D01*
X12774134Y-24348579D02*
X12774134Y-24358103D01*
X12774134Y-24358103D02*
X12764610Y-24377150D01*
X12764610Y-24377150D02*
X12755087Y-24386674D01*
X12755087Y-24386674D02*
X12736039Y-24396198D01*
X12736039Y-24396198D02*
X12697944Y-24396198D01*
X12697944Y-24396198D02*
X12678896Y-24405722D01*
X12678896Y-24405722D02*
X12669372Y-24415246D01*
X12669372Y-24415246D02*
X12659849Y-24434293D01*
X12659849Y-24434293D02*
X12659849Y-24472388D01*
X12659849Y-24472388D02*
X12669372Y-24491436D01*
X12669372Y-24491436D02*
X12678896Y-24500960D01*
X12678896Y-24500960D02*
X12697944Y-24510484D01*
X12697944Y-24510484D02*
X12736039Y-24510484D01*
X12736039Y-24510484D02*
X12755087Y-24500960D01*
X12755087Y-24500960D02*
X12764610Y-24491436D01*
X12764610Y-24491436D02*
X12774134Y-24472388D01*
X12774134Y-24472388D02*
X12774134Y-24434293D01*
X12774134Y-24434293D02*
X12764610Y-24415246D01*
X12764610Y-24415246D02*
X12755087Y-24405722D01*
X12755087Y-24405722D02*
X12736039Y-24396198D01*
X12945563Y-24377150D02*
X12945563Y-24510484D01*
X12897944Y-24300960D02*
X12850325Y-24443817D01*
X12850325Y-24443817D02*
X12974134Y-24443817D01*
X13040801Y-24310484D02*
X13040801Y-24348579D01*
X13116991Y-24310484D02*
X13116991Y-24348579D01*
X13412230Y-24586674D02*
X13402706Y-24577150D01*
X13402706Y-24577150D02*
X13383658Y-24548579D01*
X13383658Y-24548579D02*
X13374134Y-24529531D01*
X13374134Y-24529531D02*
X13364611Y-24500960D01*
X13364611Y-24500960D02*
X13355087Y-24453341D01*
X13355087Y-24453341D02*
X13355087Y-24415246D01*
X13355087Y-24415246D02*
X13364611Y-24367627D01*
X13364611Y-24367627D02*
X13374134Y-24339055D01*
X13374134Y-24339055D02*
X13383658Y-24320008D01*
X13383658Y-24320008D02*
X13402706Y-24291436D01*
X13402706Y-24291436D02*
X13412230Y-24281912D01*
X13574134Y-24377150D02*
X13574134Y-24510484D01*
X13526515Y-24300960D02*
X13478896Y-24443817D01*
X13478896Y-24443817D02*
X13602706Y-24443817D01*
X13831277Y-24510484D02*
X13831277Y-24310484D01*
X13916992Y-24510484D02*
X13916992Y-24405722D01*
X13916992Y-24405722D02*
X13907468Y-24386674D01*
X13907468Y-24386674D02*
X13888420Y-24377150D01*
X13888420Y-24377150D02*
X13859849Y-24377150D01*
X13859849Y-24377150D02*
X13840801Y-24386674D01*
X13840801Y-24386674D02*
X13831277Y-24396198D01*
X14040801Y-24510484D02*
X14021753Y-24500960D01*
X14021753Y-24500960D02*
X14012230Y-24491436D01*
X14012230Y-24491436D02*
X14002706Y-24472388D01*
X14002706Y-24472388D02*
X14002706Y-24415246D01*
X14002706Y-24415246D02*
X14012230Y-24396198D01*
X14012230Y-24396198D02*
X14021753Y-24386674D01*
X14021753Y-24386674D02*
X14040801Y-24377150D01*
X14040801Y-24377150D02*
X14069373Y-24377150D01*
X14069373Y-24377150D02*
X14088420Y-24386674D01*
X14088420Y-24386674D02*
X14097944Y-24396198D01*
X14097944Y-24396198D02*
X14107468Y-24415246D01*
X14107468Y-24415246D02*
X14107468Y-24472388D01*
X14107468Y-24472388D02*
X14097944Y-24491436D01*
X14097944Y-24491436D02*
X14088420Y-24500960D01*
X14088420Y-24500960D02*
X14069373Y-24510484D01*
X14069373Y-24510484D02*
X14040801Y-24510484D01*
X14221753Y-24510484D02*
X14202706Y-24500960D01*
X14202706Y-24500960D02*
X14193182Y-24481912D01*
X14193182Y-24481912D02*
X14193182Y-24310484D01*
X14374134Y-24500960D02*
X14355087Y-24510484D01*
X14355087Y-24510484D02*
X14316992Y-24510484D01*
X14316992Y-24510484D02*
X14297944Y-24500960D01*
X14297944Y-24500960D02*
X14288420Y-24481912D01*
X14288420Y-24481912D02*
X14288420Y-24405722D01*
X14288420Y-24405722D02*
X14297944Y-24386674D01*
X14297944Y-24386674D02*
X14316992Y-24377150D01*
X14316992Y-24377150D02*
X14355087Y-24377150D01*
X14355087Y-24377150D02*
X14374134Y-24386674D01*
X14374134Y-24386674D02*
X14383658Y-24405722D01*
X14383658Y-24405722D02*
X14383658Y-24424769D01*
X14383658Y-24424769D02*
X14288420Y-24443817D01*
X14459849Y-24500960D02*
X14478896Y-24510484D01*
X14478896Y-24510484D02*
X14516992Y-24510484D01*
X14516992Y-24510484D02*
X14536039Y-24500960D01*
X14536039Y-24500960D02*
X14545563Y-24481912D01*
X14545563Y-24481912D02*
X14545563Y-24472388D01*
X14545563Y-24472388D02*
X14536039Y-24453341D01*
X14536039Y-24453341D02*
X14516992Y-24443817D01*
X14516992Y-24443817D02*
X14488420Y-24443817D01*
X14488420Y-24443817D02*
X14469373Y-24434293D01*
X14469373Y-24434293D02*
X14459849Y-24415246D01*
X14459849Y-24415246D02*
X14459849Y-24405722D01*
X14459849Y-24405722D02*
X14469373Y-24386674D01*
X14469373Y-24386674D02*
X14488420Y-24377150D01*
X14488420Y-24377150D02*
X14516992Y-24377150D01*
X14516992Y-24377150D02*
X14536039Y-24386674D01*
X14612230Y-24586674D02*
X14621754Y-24577150D01*
X14621754Y-24577150D02*
X14640801Y-24548579D01*
X14640801Y-24548579D02*
X14650325Y-24529531D01*
X14650325Y-24529531D02*
X14659849Y-24500960D01*
X14659849Y-24500960D02*
X14669373Y-24453341D01*
X14669373Y-24453341D02*
X14669373Y-24415246D01*
X14669373Y-24415246D02*
X14659849Y-24367627D01*
X14659849Y-24367627D02*
X14650325Y-24339055D01*
X14650325Y-24339055D02*
X14640801Y-24320008D01*
X14640801Y-24320008D02*
X14621754Y-24291436D01*
X14621754Y-24291436D02*
X14612230Y-24281912D01*
X14974135Y-24586674D02*
X14964611Y-24577150D01*
X14964611Y-24577150D02*
X14945563Y-24548579D01*
X14945563Y-24548579D02*
X14936039Y-24529531D01*
X14936039Y-24529531D02*
X14926515Y-24500960D01*
X14926515Y-24500960D02*
X14916992Y-24453341D01*
X14916992Y-24453341D02*
X14916992Y-24415246D01*
X14916992Y-24415246D02*
X14926515Y-24367627D01*
X14926515Y-24367627D02*
X14936039Y-24339055D01*
X14936039Y-24339055D02*
X14945563Y-24320008D01*
X14945563Y-24320008D02*
X14964611Y-24291436D01*
X14964611Y-24291436D02*
X14974135Y-24281912D01*
X15050325Y-24377150D02*
X15050325Y-24510484D01*
X15050325Y-24396198D02*
X15059849Y-24386674D01*
X15059849Y-24386674D02*
X15078896Y-24377150D01*
X15078896Y-24377150D02*
X15107468Y-24377150D01*
X15107468Y-24377150D02*
X15126515Y-24386674D01*
X15126515Y-24386674D02*
X15136039Y-24405722D01*
X15136039Y-24405722D02*
X15136039Y-24510484D01*
X15259849Y-24510484D02*
X15240801Y-24500960D01*
X15240801Y-24500960D02*
X15231277Y-24491436D01*
X15231277Y-24491436D02*
X15221754Y-24472388D01*
X15221754Y-24472388D02*
X15221754Y-24415246D01*
X15221754Y-24415246D02*
X15231277Y-24396198D01*
X15231277Y-24396198D02*
X15240801Y-24386674D01*
X15240801Y-24386674D02*
X15259849Y-24377150D01*
X15259849Y-24377150D02*
X15288420Y-24377150D01*
X15288420Y-24377150D02*
X15307468Y-24386674D01*
X15307468Y-24386674D02*
X15316992Y-24396198D01*
X15316992Y-24396198D02*
X15326515Y-24415246D01*
X15326515Y-24415246D02*
X15326515Y-24472388D01*
X15326515Y-24472388D02*
X15316992Y-24491436D01*
X15316992Y-24491436D02*
X15307468Y-24500960D01*
X15307468Y-24500960D02*
X15288420Y-24510484D01*
X15288420Y-24510484D02*
X15259849Y-24510484D01*
X15383658Y-24377150D02*
X15459849Y-24377150D01*
X15412230Y-24310484D02*
X15412230Y-24481912D01*
X15412230Y-24481912D02*
X15421754Y-24500960D01*
X15421754Y-24500960D02*
X15440801Y-24510484D01*
X15440801Y-24510484D02*
X15459849Y-24510484D01*
X15678896Y-24377150D02*
X15678896Y-24577150D01*
X15678896Y-24386674D02*
X15697944Y-24377150D01*
X15697944Y-24377150D02*
X15736039Y-24377150D01*
X15736039Y-24377150D02*
X15755087Y-24386674D01*
X15755087Y-24386674D02*
X15764611Y-24396198D01*
X15764611Y-24396198D02*
X15774135Y-24415246D01*
X15774135Y-24415246D02*
X15774135Y-24472388D01*
X15774135Y-24472388D02*
X15764611Y-24491436D01*
X15764611Y-24491436D02*
X15755087Y-24500960D01*
X15755087Y-24500960D02*
X15736039Y-24510484D01*
X15736039Y-24510484D02*
X15697944Y-24510484D01*
X15697944Y-24510484D02*
X15678896Y-24500960D01*
X15888420Y-24510484D02*
X15869373Y-24500960D01*
X15869373Y-24500960D02*
X15859849Y-24481912D01*
X15859849Y-24481912D02*
X15859849Y-24310484D01*
X16050325Y-24510484D02*
X16050325Y-24405722D01*
X16050325Y-24405722D02*
X16040801Y-24386674D01*
X16040801Y-24386674D02*
X16021754Y-24377150D01*
X16021754Y-24377150D02*
X15983658Y-24377150D01*
X15983658Y-24377150D02*
X15964611Y-24386674D01*
X16050325Y-24500960D02*
X16031277Y-24510484D01*
X16031277Y-24510484D02*
X15983658Y-24510484D01*
X15983658Y-24510484D02*
X15964611Y-24500960D01*
X15964611Y-24500960D02*
X15955087Y-24481912D01*
X15955087Y-24481912D02*
X15955087Y-24462865D01*
X15955087Y-24462865D02*
X15964611Y-24443817D01*
X15964611Y-24443817D02*
X15983658Y-24434293D01*
X15983658Y-24434293D02*
X16031277Y-24434293D01*
X16031277Y-24434293D02*
X16050325Y-24424769D01*
X16116992Y-24377150D02*
X16193182Y-24377150D01*
X16145563Y-24310484D02*
X16145563Y-24481912D01*
X16145563Y-24481912D02*
X16155087Y-24500960D01*
X16155087Y-24500960D02*
X16174135Y-24510484D01*
X16174135Y-24510484D02*
X16193182Y-24510484D01*
X16336039Y-24500960D02*
X16316992Y-24510484D01*
X16316992Y-24510484D02*
X16278896Y-24510484D01*
X16278896Y-24510484D02*
X16259849Y-24500960D01*
X16259849Y-24500960D02*
X16250325Y-24481912D01*
X16250325Y-24481912D02*
X16250325Y-24405722D01*
X16250325Y-24405722D02*
X16259849Y-24386674D01*
X16259849Y-24386674D02*
X16278896Y-24377150D01*
X16278896Y-24377150D02*
X16316992Y-24377150D01*
X16316992Y-24377150D02*
X16336039Y-24386674D01*
X16336039Y-24386674D02*
X16345563Y-24405722D01*
X16345563Y-24405722D02*
X16345563Y-24424769D01*
X16345563Y-24424769D02*
X16250325Y-24443817D01*
X16516992Y-24510484D02*
X16516992Y-24310484D01*
X16516992Y-24500960D02*
X16497944Y-24510484D01*
X16497944Y-24510484D02*
X16459849Y-24510484D01*
X16459849Y-24510484D02*
X16440801Y-24500960D01*
X16440801Y-24500960D02*
X16431277Y-24491436D01*
X16431277Y-24491436D02*
X16421754Y-24472388D01*
X16421754Y-24472388D02*
X16421754Y-24415246D01*
X16421754Y-24415246D02*
X16431277Y-24396198D01*
X16431277Y-24396198D02*
X16440801Y-24386674D01*
X16440801Y-24386674D02*
X16459849Y-24377150D01*
X16459849Y-24377150D02*
X16497944Y-24377150D01*
X16497944Y-24377150D02*
X16516992Y-24386674D01*
X16593182Y-24586674D02*
X16602706Y-24577150D01*
X16602706Y-24577150D02*
X16621754Y-24548579D01*
X16621754Y-24548579D02*
X16631277Y-24529531D01*
X16631277Y-24529531D02*
X16640801Y-24500960D01*
X16640801Y-24500960D02*
X16650325Y-24453341D01*
X16650325Y-24453341D02*
X16650325Y-24415246D01*
X16650325Y-24415246D02*
X16640801Y-24367627D01*
X16640801Y-24367627D02*
X16631277Y-24339055D01*
X16631277Y-24339055D02*
X16621754Y-24320008D01*
X16621754Y-24320008D02*
X16602706Y-24291436D01*
X16602706Y-24291436D02*
X16593182Y-24281912D01*
M02*
